<svg width="1440" height="2041" viewBox="0 0 1440 2041" fill="none" xmlns="http://www.w3.org/2000/svg">
<path d="M1245.86 1673.64C1227.99 1677.22 1196.73 1686.69 1201.51 1703.83C1202.23 1705.83 1203.79 1707.54 1206.02 1708.75C1258.38 1742.43 1324.23 1764.37 1368.7 1803.74C1389.19 1821.88 1408.1 1841.38 1426.05 1861.01C1459.83 1898.19 1492.92 1936.85 1523.43 1975.33C1557.62 2018.44 1586.35 2065.3 1615.65 2111.19C1629.02 2132.1 1642.37 2153.08 1655.97 2173.89C1697.5 2237.36 1741.94 2300.27 1796.13 2357.24C1833.8 2396.85 1875.53 2446.7 1947.82 2459.91C2022.62 2473.61 2110.09 2442.68 2183.02 2414.83C2431.86 2319.78 2650.09 2176.15 2892.56 2069.07C2940.63 2047.85 2994.36 2021.42 3046.67 2016.33C3089.66 2012.16 3133.07 2017 3175.5 2017.31C3183.65 2017.37 3192.43 2016.96 3200.14 2015.18C3205.57 2013.93 3210.32 2011.74 3213.13 2007.88C3216.96 2002.64 3216.3 1994.3 3214.16 1986.16C3210.52 1972.59 3205.71 1959.22 3200.14 1946.16C3198.21 1941.59 3196.07 1937.1 3194.04 1932.74C3186.44 1916.34 3176.71 1899.45 3160.73 1887.17C3150.49 1879.63 3138.05 1873.69 3123.95 1869.61C3085.26 1858.53 3043.29 1846.2 2995.18 1860.73C2961.3 1871.01 2930.31 1888 2899.94 1903.42C2840 1933.83 2781.35 1965.1 2723.75 1997.86C2655.5 2036.63 2587.29 2076.5 2518.14 2114.15C2408.34 2173.91 2283.07 2241.79 2154.64 2272.92C2025.17 2304.31 1954.61 2249.4 1887.72 2195.08C1795.47 2120.15 1728.69 2029.73 1667.6 1937.69C1641.92 1899.02 1615.25 1860.58 1587.63 1822.95C1565.76 1793.13 1542.25 1763.44 1512.83 1738.43C1491.28 1720.06 1464.73 1704.98 1434.21 1693.78C1382.51 1674.8 1308.32 1660.96 1245.86 1673.64Z" fill="#979797"/>
<path d="M-715.869 1111.92C-658.926 1140.07 -610.328 1174.25 -567.183 1212C-536.233 1239.09 -508.452 1268.83 -479.823 1296.93C-431.704 1344.12 -399.047 1400.73 -363.915 1454.87C-324.326 1515.88 -282.698 1577.38 -228.612 1630.9C-198.547 1660.64 -165.701 1688.68 -119.061 1706.93C-68.2791 1726.79 -9.0221 1733.71 54.0992 1732.45C184.003 1729.8 319.558 1703.89 450.567 1678.72C519.241 1665.55 587.846 1651.62 656.529 1638.53C714.383 1627.51 776.732 1612.47 834.246 1610.94C948.044 1607.86 1049.34 1647.74 1136.08 1683.78C1165.36 1695.96 1195.23 1707.64 1225.01 1719.23C1295.76 1746.73 1366.46 1790.49 1460.26 1785.51C1469.86 1785 1480.05 1784.08 1489.75 1781.55C1506.44 1777.19 1525.57 1767.09 1531.98 1754.59C1532.42 1753.75 1532.8 1752.91 1533.1 1752.07C1537.46 1739.31 1527.25 1729.51 1518.72 1720.67C1513.52 1715.29 1505.53 1710.46 1498.06 1706.66C1416.2 1665.03 1319.9 1632.7 1222.1 1606.68C1119 1579.18 1009.7 1556.48 895.953 1547.84C857.174 1544.91 816.536 1543.21 775.361 1547.13C737.023 1550.78 697.188 1560.38 659.089 1568.84C571.931 1588.19 485.284 1611.21 398.631 1632.22C289.461 1658.74 174.728 1686.2 64.8288 1689.62C9.72257 1691.33 -43.3722 1684.44 -87.2912 1666.95C-127.904 1650.78 -152.469 1621.46 -170.351 1591.53C-212.122 1521.69 -224.026 1440.83 -251.059 1365.72C-264.538 1328.26 -281.28 1291.46 -306.695 1258.52C-330.063 1228.23 -362.703 1202.82 -395.311 1178.07C-436.538 1146.75 -481.352 1116.62 -532.33 1093.71C-549.45 1086.12 -568.12 1080.05 -588.013 1075.62C-633.133 1065.41 -681.352 1056.83 -732.27 1057.93C-750.673 1058.33 -770.763 1060.01 -788.796 1063.42C-814.968 1068.37 -786.582 1081.67 -779.628 1084.84C-758.849 1094.31 -736.569 1102.34 -715.875 1111.9" fill="#979797"/>
<path d="M-571.196 1049.66C-500.156 1070.49 -434.711 1097 -379.261 1131.82C-342.85 1154.68 -306.531 1180.84 -283.003 1211C-243.211 1262 -232.411 1327.18 -218.491 1388.21C-203.147 1455.51 -188.632 1524.2 -154.575 1584.54C-136.192 1617.1 -107.709 1644.06 -60.217 1657.99C-15.6237 1671.08 34.9795 1674.33 87.49 1670.31C198.014 1661.84 310.854 1629.79 419.022 1599.95C477.13 1583.91 535.138 1567.46 593.543 1552.53C646.109 1539.09 701.939 1523.95 755.32 1518.55C903.985 1503.54 1052.69 1528.71 1185.99 1550.78C1233 1558.56 1280.45 1566.11 1327.17 1574.29C1402.46 1587.46 1475.26 1604.97 1550.32 1618.81C1615.21 1630.79 1684.26 1638.66 1756.86 1629.36C1772.53 1627.35 1789.36 1624.73 1803.91 1619.69C1824.34 1612.62 1853.87 1599.33 1852.68 1581.09C1852.63 1580.04 1852.43 1579.02 1852.1 1578.04C1846.38 1561.26 1817.37 1552.47 1797.72 1545.63C1785.27 1541.39 1772.34 1537.69 1759 1534.54C1621.9 1501.24 1471.05 1482.51 1321.61 1467.54C1168.89 1452.32 1012.21 1441.29 853.794 1442.91C765.567 1443.81 682.588 1450.55 593.328 1475.06C518.291 1495.69 444.985 1521.86 371.648 1546.47C280.736 1576.98 183.832 1609.68 88.4794 1616.27C37.8238 1619.77 -11.8774 1613.66 -52.1752 1598.08C-92.8654 1582.39 -111.742 1550.84 -119.819 1519.07C-139.021 1443.55 -119.026 1357.08 -118.434 1276.27C-118.152 1237.97 -120.623 1199.47 -134.426 1164.25C-147.837 1130.04 -175.215 1104.98 -207.472 1080.51C-251.342 1047.19 -300.91 1016.53 -356.891 993.661C-375.779 985.977 -396.285 979.98 -418.043 975.777C-475.779 964.562 -540.438 958.237 -606.738 972.206C-627.68 976.616 -651.7 983.701 -668.934 994.774C-717.724 1026.12 -593.304 1043.63 -571.196 1049.66Z" fill="#00237C"/>
<path d="M-439.446 933.988C-357.825 955.239 -279.996 981.407 -216.257 1019.51C-177.808 1042.5 -137.756 1069.94 -119.682 1103.75C-88.6671 1161.74 -101.136 1236.93 -108.01 1304.76C-115.43 1377.91 -133.673 1460.61 -105.04 1524.7C-90.8973 1556.42 -64.0181 1577.91 -16.7877 1588.41C24.8235 1597.57 71.4198 1598.53 118.646 1591.2C209.801 1577.25 298.854 1541.06 383.782 1508.14C472.876 1473.65 564.688 1436.14 659.819 1418C727.261 1405.14 796.852 1404.92 862.625 1404.21C961.759 1403.15 1059.77 1406.34 1156.76 1411.09C1218.69 1414.11 1280.83 1417.41 1342.29 1421.59C1464.48 1429.89 1584.98 1442.69 1706.47 1453C1796.19 1460.62 1891.62 1469.51 1986.78 1457.66C1999.99 1456.01 2014.43 1453.52 2026.71 1448.41C2052.67 1437.6 2035.74 1417.58 2025.38 1410.17C2023.84 1409.12 2022.2 1408.14 2020.46 1407.25C1991.03 1391.52 1950.37 1384.38 1913.11 1378.53C1895.73 1375.79 1877.61 1373.47 1859.74 1371.29C1689.97 1350.64 1514 1339.26 1337.7 1331.66C1174.78 1324.63 1009.27 1319.81 842.45 1326.74C759.804 1330.17 683.006 1336.32 601.133 1362.66C534.19 1384.2 470.087 1412.12 405.941 1438.6C325.672 1471.75 239.668 1507.33 151.842 1517.45C104.523 1522.92 56.4057 1518.87 17.7405 1505.74C-25.2191 1491.16 -43.7107 1460.65 -50.1313 1428.1C-65.214 1351.56 -34.3975 1262.49 -19.1878 1179.41C-11.6437 1138.28 -12.1669 1117.24 -19.363 1076.86C-29.2531 1039.95 -50.1085 1001.75 -72.363 980.955C-109.831 945.943 -152.977 912.393 -209.233 891.765C-228.962 884.659 -249.612 878.568 -271.054 873.53C-339.606 857.194 -418.003 847.653 -497.62 855.675C-517.696 857.707 -544.266 861.839 -561.174 872.745C-613.641 906.586 -461.279 928.601 -439.434 933.985" fill="#CD142B"/>
</svg>
