<svg width="419" height="655" fill="none" xmlns="http://www.w3.org/2000/svg"><g clip-path="url(#clip0)"><path d="M209.5 279.641c-4.82 0-8.721-3.913-8.721-8.734V244.72A8.715 8.715 0 01209.5 236c4.821 0 8.721 3.9 8.721 8.72v26.187c0 4.821-3.9 8.734-8.721 8.734z" fill="#434A54"/><path d="M242.668 300.586l-26.187-34.908a8.72 8.72 0 00-6.981-3.49 8.722 8.722 0 00-6.982 3.49l-26.188 34.908a8.727 8.727 0 00-.818 9.143 8.73 8.73 0 007.8 4.833h52.374a8.73 8.73 0 007.8-4.833 8.697 8.697 0 00-.818-9.143z" fill="#656D78"/><path d="M235.687 297.095h-52.375c-4.82 0-8.72 3.913-8.72 8.734v34.921c0 4.821 3.9 8.72 8.72 8.72h52.375c4.821 0 8.72-3.9 8.72-8.72v-34.921c0-4.821-3.899-8.734-8.72-8.734z" fill="#CD142B"/><path d="M268.856 370.429l-26.188-34.922a8.723 8.723 0 00-6.982-3.491h-52.374a8.723 8.723 0 00-6.982 3.491l-26.187 34.922a8.7 8.7 0 00-.818 9.129 8.706 8.706 0 007.8 4.833h104.75a8.708 8.708 0 007.8-4.833 8.672 8.672 0 00-.819-9.129z" fill="#FC6E51"/><path d="M261.875 497.875h-104.75a8.715 8.715 0 00-8.721 8.721v139.67c0 4.821 3.9 8.734 8.721 8.734h104.75c4.821 0 8.721-3.913 8.721-8.734v-139.67c0-4.821-3.9-8.721-8.721-8.721zm0-130.937h-104.75a8.715 8.715 0 00-8.721 8.72v26.188c0 4.82 3.9 8.733 8.721 8.733h104.75c4.821 0 8.721-3.913 8.721-8.733v-26.188c0-4.82-3.9-8.72-8.721-8.72z" fill="#CD142B"/><path d="M192.033 541.516c-4.808 0-8.721 3.901-8.721 8.734V655h17.467V550.25c0-4.833-3.912-8.734-8.746-8.734zm34.935 0c-4.834 0-8.747 3.901-8.747 8.734V655h17.466V550.25c0-4.833-3.911-8.734-8.719-8.734zm44.191-157.125H147.842c-4.808 0-8.721 3.901-8.721 8.734v122.204c0 4.821 3.913 8.734 8.721 8.734h123.317c4.808 0 8.72-3.913 8.72-8.734V393.125c0-4.833-3.912-8.734-8.72-8.734z" fill="#FC6E51"/><path d="M209.5 401.846c-28.873 0-52.375 23.502-52.375 52.375 0 28.885 23.502 52.375 52.375 52.375 28.872 0 52.375-23.49 52.375-52.375 0-28.873-23.503-52.375-52.375-52.375z" fill="#E6E9ED"/><path d="M209.501 462.954c-4.82 0-8.721-3.913-8.721-8.733v-34.908a8.719 8.719 0 018.721-8.734c4.821 0 8.721 3.9 8.721 8.734v34.908c0 4.82-3.9 8.733-8.721 8.733z" fill="#424953"/><path d="M234.193 487.645a8.74 8.74 0 01-6.177-2.557l-24.679-24.692a8.705 8.705 0 010-12.352c3.401-3.401 8.925-3.401 12.327 0l24.703 24.692a8.75 8.75 0 010 12.352 8.736 8.736 0 01-6.174 2.557z" fill="#424953"/></g><path d="M272.788 105.737c-.712-6.782-6.49-11.184-12.975-10.502-6.485.681-11.939 7.069-10.508 12.97 1.431 5.901 5.981 12.15 12.975 10.502 6.995-1.649 11.221-6.189 10.508-12.97z" fill="#00237C"/><circle cx="330" cy="24" r="24" fill="#CD142B"/><circle cx="385.5" cy="164.5" r="11.5" stroke="#CD142B" stroke-opacity=".53" stroke-width="2"/><circle cx="295.5" cy="237.5" r="11.5" stroke="#CD142B" stroke-opacity=".53" stroke-width="2"/><defs><clipPath id="clip0"><path fill="#fff" transform="translate(0 236)" d="M0 0h419v419H0z"/></clipPath></defs></svg>