<svg width="366" height="239" fill="none" xmlns="http://www.w3.org/2000/svg"><rect x="-320" width="686" height="239" rx="119.5" fill="#00237C"/><rect x="-318.5" y="25.5" width="649" height="180" rx="90" stroke="#fff" stroke-width="3" stroke-dasharray="10 10"/><path d="M172.031 152.464v-28.716H95v50.977h88.161l-11.13-22.261z" fill="#FFDA2D"/><path d="M183.161 174.725h-49.929v-50.977h38.799v28.716l11.13 22.261z" fill="#FDBF00"/><path d="M162.969 47v29l-11.13 22.26H240V47h-77.031z" fill="#FFDA2D"/><path d="M201.768 47H240v51.26h-38.232V47z" fill="#FDBF00"/><path d="M128.984 144.988h8.496v8.496h-8.496v-8.496z" fill="#596C76"/><path d="M145.977 144.988h8.496v8.496h-8.496v-8.496z" fill="#465A61"/><path d="M111.992 144.988h8.496v8.496h-8.496v-8.496zm85.528-76.465h8.496v8.496h-8.496v-8.496z" fill="#596C76"/><path d="M214.512 68.523h8.496v8.496h-8.496v-8.496z" fill="#465A61"/><path d="M180.527 68.523h8.496v8.496h-8.496v-8.496z" fill="#596C76"/><path d="M120.488 47c-9.345 0-16.992 7.93-16.992 17.275 0 9.346 7.647 16.993 16.992 16.993 9.346 0 16.992-7.647 16.992-16.993 0-9.345-7.646-17.275-16.992-17.275zm0 34.268C106.47 81.268 95 92.738 95 106.756v8.496h50.977v-8.496c0-14.019-11.47-25.488-25.489-25.488z" fill="#57D9AD"/><path d="M120.488 81.268V47c9.346 0 16.992 7.93 16.992 17.275 0 9.346-7.646 16.993-16.992 16.993zm25.489 25.488v8.496h-25.489V81.268c14.019 0 25.489 11.47 25.489 25.488z" fill="#26BFA6"/><path d="M214.512 123.748c-9.346 0-16.992 7.647-16.992 16.992 0 9.346 7.646 16.992 16.992 16.992 9.345 0 16.992-7.646 16.992-16.992 0-9.345-7.647-16.992-16.992-16.992zm0 33.984c-14.019 0-25.489 11.47-25.489 25.489V192H240v-8.779c0-14.019-11.47-25.489-25.488-25.489z" fill="#FF712D"/><path d="M214.512 157.732v-33.984c9.345 0 16.992 7.647 16.992 16.992 0 9.346-7.647 16.992-16.992 16.992zM240 183.221V192h-25.488v-34.268c14.018 0 25.488 11.47 25.488 25.489z" fill="#E35124"/><path d="M201.768 68.523h4.248v8.496h-4.248v-8.496zm-68.536 76.465h4.248v8.496h-4.248v-8.496z" fill="#465A61"/></svg>