<svg width="596" height="387" fill="none" xmlns="http://www.w3.org/2000/svg"><path d="M293.752 360.288c-.519-11.792-10.525-19.324-23.387-18.993-12.863.331-21.928 11.909-18.927 23.441 3 11.532 11.164 19.393 23.387 18.993 12.222-.399 19.445-11.648 18.927-23.441z" fill="#CD142B"/><circle cx="169" cy="378" r="5" fill="#00237C"/><circle cx="243.5" cy="284.5" r="11.5" stroke="#CD142B" stroke-opacity=".53" stroke-width="2"/><rect x="45" width="669" height="222" rx="100" fill="#00237C"/><path d="M111.6 72.3c-2.12 0-4.04-.46-5.76-1.38-1.7-.94-3.04-2.23-4.02-3.87-.96-1.64-1.44-3.49-1.44-5.55 0-2.06.49-3.91 1.47-5.55a10.31 10.31 0 014.02-3.84c1.72-.94 3.64-1.41 5.76-1.41 1.72 0 3.29.3 4.71.9 1.42.6 2.62 1.47 3.6 2.61l-2.52 2.37c-1.52-1.64-3.39-2.46-5.61-2.46-1.44 0-2.73.32-3.87.96a6.705 6.705 0 00-2.67 2.61c-.64 1.12-.96 2.39-.96 3.81s.32 2.69.96 3.81c.64 1.12 1.53 2 2.67 2.64 1.14.62 2.43.93 3.87.93 2.22 0 4.09-.83 5.61-2.49l2.52 2.4c-.98 1.14-2.19 2.01-3.63 2.61-1.42.6-2.99.9-4.71.9zm20.615-3.27c1.74 0 3.19-.58 4.35-1.74l1.98 2.31c-.7.86-1.6 1.51-2.7 1.95-1.1.44-2.34.66-3.72.66-1.76 0-3.31-.35-4.65-1.05-1.34-.7-2.38-1.67-3.12-2.91-.72-1.26-1.08-2.68-1.08-4.26 0-1.56.35-2.96 1.05-4.2.72-1.26 1.7-2.24 2.94-2.94 1.26-.7 2.68-1.05 4.26-1.05 1.5 0 2.86.33 4.08.99 1.24.64 2.22 1.57 2.94 2.79.72 1.2 1.08 2.61 1.08 4.23l-12.27 2.4c.38.92.99 1.62 1.83 2.1.84.48 1.85.72 3.03.72zm-.69-10.23c-1.38 0-2.5.45-3.36 1.35-.84.9-1.26 2.11-1.26 3.63v.03l9.06-1.74c-.26-.98-.79-1.77-1.59-2.37-.78-.6-1.73-.9-2.85-.9zm21.783-3c1.66 0 3.11.34 4.35 1.02 1.26.68 2.23 1.64 2.91 2.88.7 1.24 1.05 2.68 1.05 4.32 0 1.62-.33 3.05-.99 4.29a7.039 7.039 0 01-2.79 2.88c-1.18.68-2.55 1.02-4.11 1.02-2.22 0-3.96-.71-5.22-2.13v7.74h-3.78V64.05c0-1.62.36-3.05 1.08-4.29a7.373 7.373 0 013-2.91c1.3-.7 2.8-1.05 4.5-1.05zm-.15 13.23c1.4 0 2.54-.46 3.42-1.38.88-.94 1.32-2.15 1.32-3.63s-.44-2.69-1.32-3.63c-.88-.94-2.02-1.41-3.42-1.41-1.42 0-2.56.46-3.42 1.38-.86.92-1.29 2.13-1.29 3.63s.43 2.72 1.29 3.66c.88.92 2.02 1.38 3.42 1.38zm34.53-13.23c2.02 0 3.62.59 4.8 1.77 1.18 1.16 1.77 2.91 1.77 5.25V72h-3.75v-8.7c0-1.4-.31-2.45-.93-3.15-.62-.72-1.51-1.08-2.67-1.08-1.26 0-2.27.42-3.03 1.26-.76.82-1.14 2-1.14 3.54V72h-3.75v-8.7c0-1.4-.31-2.45-.93-3.15-.62-.72-1.51-1.08-2.67-1.08-1.28 0-2.3.41-3.06 1.23-.74.82-1.11 2.01-1.11 3.57V72h-3.75V55.98h3.57v2.04a5.83 5.83 0 012.25-1.65c.9-.38 1.9-.57 3-.57 1.2 0 2.26.23 3.18.69.94.44 1.68 1.1 2.22 1.98.66-.84 1.51-1.49 2.55-1.95 1.04-.48 2.19-.72 3.45-.72zm28.467.18V72h-3.57v-2.04a6.11 6.11 0 01-2.25 1.68c-.88.38-1.84.57-2.88.57-2.14 0-3.83-.59-5.07-1.77-1.24-1.2-1.86-2.97-1.86-5.31v-9.15h3.75v8.64c0 1.44.32 2.52.96 3.24.66.7 1.6 1.05 2.82 1.05 1.32 0 2.37-.41 3.15-1.23.8-.84 1.2-2.04 1.2-3.6v-8.1h3.75zm28.344 7.98c0 2.48-.83 4.43-2.49 5.85-1.64 1.42-3.99 2.23-7.05 2.43v5.58h-3.54v-5.55c-3.06-.2-5.41-1.01-7.05-2.43-1.64-1.42-2.46-3.38-2.46-5.88 0-2.48.82-4.41 2.46-5.79 1.64-1.4 3.99-2.2 7.05-2.4v-6.03h3.54v6.03c3.06.2 5.41 1 7.05 2.4 1.66 1.4 2.49 3.33 2.49 5.79zm-18.9 0c0 1.54.47 2.74 1.41 3.6.96.86 2.43 1.38 4.41 1.56V58.95c-1.98.16-3.45.66-4.41 1.5-.94.84-1.41 2.01-1.41 3.51zm9.36 5.16c3.92-.36 5.88-2.08 5.88-5.16 0-1.52-.49-2.69-1.47-3.51-.96-.84-2.43-1.34-4.41-1.5v10.17zm30.454-13.14V72h-3.57v-2.04a6.11 6.11 0 01-2.25 1.68c-.88.38-1.84.57-2.88.57-2.14 0-3.83-.59-5.07-1.77-1.24-1.2-1.86-2.97-1.86-5.31v-9.15h3.75v8.64c0 1.44.32 2.52.96 3.24.66.7 1.6 1.05 2.82 1.05 1.32 0 2.37-.41 3.15-1.23.8-.84 1.2-2.04 1.2-3.6v-8.1h3.75zm24.744 12.84v6.87h-3.51V72h-14.07V55.98h3.75v12.84h7.65V55.98h3.75v12.84h2.43zm20.618-12.84V72h-3.57v-2.04a6.11 6.11 0 01-2.25 1.68c-.88.38-1.84.57-2.88.57-2.14 0-3.83-.59-5.07-1.77-1.24-1.2-1.86-2.97-1.86-5.31v-9.15h3.75v8.64c0 1.44.32 2.52.96 3.24.66.7 1.6 1.05 2.82 1.05 1.32 0 2.37-.41 3.15-1.23.8-.84 1.2-2.04 1.2-3.6v-8.1h3.75zm15.085-.18c1.66 0 3.11.34 4.35 1.02 1.26.68 2.23 1.64 2.91 2.88.7 1.24 1.05 2.68 1.05 4.32 0 1.62-.33 3.05-.99 4.29a7.039 7.039 0 01-2.79 2.88c-1.18.68-2.55 1.02-4.11 1.02-2.22 0-3.96-.71-5.22-2.13v7.74h-3.78V64.05c0-1.62.36-3.05 1.08-4.29a7.373 7.373 0 013-2.91c1.3-.7 2.8-1.05 4.5-1.05zm-.15 13.23c1.4 0 2.54-.46 3.42-1.38.88-.94 1.32-2.15 1.32-3.63s-.44-2.69-1.32-3.63c-.88-.94-2.02-1.41-3.42-1.41-1.42 0-2.56.46-3.42 1.38-.86.92-1.29 2.13-1.29 3.63s.43 2.72 1.29 3.66c.88.92 2.02 1.38 3.42 1.38zm21.45 3.18c-1.62 0-3.08-.35-4.38-1.05-1.3-.7-2.32-1.67-3.06-2.91-.72-1.26-1.08-2.68-1.08-4.26 0-1.58.36-2.99 1.08-4.23a7.793 7.793 0 013.06-2.91c1.3-.7 2.76-1.05 4.38-1.05 1.64 0 3.11.35 4.41 1.05 1.3.7 2.31 1.67 3.03 2.91.74 1.24 1.11 2.65 1.11 4.23 0 1.58-.37 3-1.11 4.26-.72 1.24-1.73 2.21-3.03 2.91-1.3.7-2.77 1.05-4.41 1.05zm0-3.21c1.38 0 2.52-.46 3.42-1.38.9-.92 1.35-2.13 1.35-3.63s-.45-2.71-1.35-3.63c-.9-.92-2.04-1.38-3.42-1.38s-2.52.46-3.42 1.38c-.88.92-1.32 2.13-1.32 3.63s.44 2.71 1.32 3.63c.9.92 2.04 1.38 3.42 1.38zm25.965-5.34c1.98.6 2.97 1.88 2.97 3.84 0 1.44-.54 2.55-1.62 3.33-1.08.78-2.68 1.17-4.8 1.17h-8.16V55.98h7.83c1.96 0 3.49.36 4.59 1.08 1.1.72 1.65 1.74 1.65 3.06 0 .82-.22 1.53-.66 2.13-.42.6-1.02 1.07-1.8 1.41zm-8.04-.99h3.93c1.94 0 2.91-.67 2.91-2.01 0-1.3-.97-1.95-2.91-1.95h-3.93v3.96zm4.29 6.6c2.06 0 3.09-.67 3.09-2.01 0-.7-.24-1.22-.72-1.56-.48-.36-1.23-.54-2.25-.54h-4.41v4.11h4.29zm28.414-13.29V72h-3.57v-2.07a5.78 5.78 0 01-2.31 1.71c-.9.38-1.9.57-3 .57-1.56 0-2.96-.34-4.2-1.02a7.384 7.384 0 01-2.88-2.88c-.68-1.24-1.02-2.68-1.02-4.32 0-1.64.34-3.07 1.02-4.29.7-1.24 1.66-2.2 2.88-2.88 1.24-.68 2.64-1.02 4.2-1.02 1.04 0 1.99.18 2.85.54.88.36 1.64.89 2.28 1.59v-1.95h3.75zM389.329 69c1.38 0 2.52-.46 3.42-1.38.9-.92 1.35-2.13 1.35-3.63s-.45-2.71-1.35-3.63c-.9-.92-2.04-1.38-3.42-1.38s-2.52.46-3.42 1.38c-.88.92-1.32 2.13-1.32 3.63s.44 2.71 1.32 3.63c.9.92 2.04 1.38 3.42 1.38zm15.526-13.02h3.75v6.51h8.07v-6.51h3.75V72h-3.75v-6.33h-8.07V72h-3.75V55.98zm22.696 0h3.75v6.51h8.07v-6.51h3.75V72h-3.75v-6.33h-8.07V72h-3.75V55.98zm29.656 16.44c-2.42 0-4.25-.56-5.49-1.68-1.22-1.12-1.83-2.74-1.83-4.86v-9.9h3.72v5.76c.46-.38 1.09-.7 1.89-.96.8-.26 1.71-.39 2.73-.39 1.96 0 3.49.5 4.59 1.5 1.1 1 1.65 2.42 1.65 4.26 0 1.96-.66 3.5-1.98 4.62-1.3 1.1-3.06 1.65-5.28 1.65zm9.27-16.44h3.75V72h-3.75V55.98zm-9.27 13.68c1.1 0 1.95-.32 2.55-.96.6-.66.9-1.49.9-2.49 0-.96-.31-1.73-.93-2.31-.6-.58-1.46-.87-2.58-.87-.82 0-1.54.16-2.16.48-.6.32-1.06.77-1.38 1.35v1.35c0 1.08.31 1.93.93 2.55.62.6 1.51.9 2.67.9zm27.719-.63c1.74 0 3.19-.58 4.35-1.74l1.98 2.31c-.7.86-1.6 1.51-2.7 1.95-1.1.44-2.34.66-3.72.66-1.76 0-3.31-.35-4.65-1.05-1.34-.7-2.38-1.67-3.12-2.91-.72-1.26-1.08-2.68-1.08-4.26 0-1.56.35-2.96 1.05-4.2.72-1.26 1.7-2.24 2.94-2.94 1.26-.7 2.68-1.05 4.26-1.05 1.5 0 2.86.33 4.08.99 1.24.64 2.22 1.57 2.94 2.79.72 1.2 1.08 2.61 1.08 4.23l-12.27 2.4c.38.92.99 1.62 1.83 2.1.84.48 1.85.72 3.03.72zm-.69-10.23c-1.38 0-2.5.45-3.36 1.35-.84.9-1.26 2.11-1.26 3.63v.03l9.06-1.74c-.26-.98-.79-1.77-1.59-2.37-.78-.6-1.73-.9-2.85-.9zM116.88 92.98V109h-3.72V96.16h-7.89V109h-3.75V92.98h15.36zm15.08-.18c1.66 0 3.11.34 4.35 1.02 1.26.68 2.23 1.64 2.91 2.88.7 1.24 1.05 2.68 1.05 4.32 0 1.62-.33 3.05-.99 4.29a7.039 7.039 0 01-2.79 2.88c-1.18.68-2.55 1.02-4.11 1.02-2.22 0-3.96-.71-5.22-2.13v7.74h-3.78v-13.77c0-1.62.36-3.05 1.08-4.29a7.373 7.373 0 013-2.91c1.3-.7 2.8-1.05 4.5-1.05zm-.15 13.23c1.4 0 2.54-.46 3.42-1.38.88-.94 1.32-2.15 1.32-3.63s-.44-2.69-1.32-3.63c-.88-.94-2.02-1.41-3.42-1.41-1.42 0-2.56.46-3.42 1.38-.86.92-1.29 2.13-1.29 3.63s.43 2.72 1.29 3.66c.88.92 2.02 1.38 3.42 1.38zm21.87 0c1.74 0 3.19-.58 4.35-1.74l1.98 2.31c-.7.86-1.6 1.51-2.7 1.95-1.1.44-2.34.66-3.72.66-1.76 0-3.31-.35-4.65-1.05-1.34-.7-2.38-1.67-3.12-2.91-.72-1.26-1.08-2.68-1.08-4.26 0-1.56.35-2.96 1.05-4.2.72-1.26 1.7-2.24 2.94-2.94 1.26-.7 2.68-1.05 4.26-1.05 1.5 0 2.86.33 4.08.99 1.24.64 2.22 1.57 2.94 2.79.72 1.2 1.08 2.61 1.08 4.23l-12.27 2.4c.38.92.99 1.62 1.83 2.1.84.48 1.85.72 3.03.72zm-.69-10.23c-1.38 0-2.5.45-3.36 1.35-.84.9-1.26 2.11-1.26 3.63v.03l9.06-1.74c-.26-.98-.79-1.77-1.59-2.37-.78-.6-1.73-.9-2.85-.9zm29.223-2.82V109h-3.72V96.16h-7.89V109h-3.75V92.98h15.36zm14.3 16.23c-1.62 0-3.08-.35-4.38-1.05-1.3-.7-2.32-1.67-3.06-2.91-.72-1.26-1.08-2.68-1.08-4.26 0-1.58.36-2.99 1.08-4.23a7.793 7.793 0 013.06-2.91c1.3-.7 2.76-1.05 4.38-1.05 1.64 0 3.11.35 4.41 1.05 1.3.7 2.31 1.67 3.03 2.91.74 1.24 1.11 2.65 1.11 4.23 0 1.58-.37 3-1.11 4.26-.72 1.24-1.73 2.21-3.03 2.91-1.3.7-2.77 1.05-4.41 1.05zm0-3.21c1.38 0 2.52-.46 3.42-1.38.9-.92 1.35-2.13 1.35-3.63s-.45-2.71-1.35-3.63c-.9-.92-2.04-1.38-3.42-1.38s-2.52.46-3.42 1.38c-.88.92-1.32 2.13-1.32 3.63s.44 2.71 1.32 3.63c.9.92 2.04 1.38 3.42 1.38zm30.135-13.02v13.59c0 5.64-2.88 8.46-8.64 8.46-1.54 0-3-.2-4.38-.6-1.38-.38-2.52-.94-3.42-1.68l1.68-2.82c.7.58 1.58 1.04 2.64 1.38 1.08.36 2.17.54 3.27.54 1.76 0 3.05-.4 3.87-1.2.82-.8 1.23-2.02 1.23-3.66v-.84c-.64.7-1.42 1.23-2.34 1.59-.92.36-1.93.54-3.03.54-1.52 0-2.9-.32-4.14-.96a7.568 7.568 0 01-2.91-2.76c-.7-1.18-1.05-2.53-1.05-4.05s.35-2.86 1.05-4.02a7.35 7.35 0 012.91-2.73c1.24-.64 2.62-.96 4.14-.96 1.16 0 2.21.19 3.15.57.96.38 1.76.96 2.4 1.74v-2.13h3.57zm-8.55 12.12c1.42 0 2.58-.42 3.48-1.26.92-.86 1.38-1.97 1.38-3.33 0-1.34-.46-2.43-1.38-3.27-.9-.84-2.06-1.26-3.48-1.26-1.44 0-2.62.42-3.54 1.26-.9.84-1.35 1.93-1.35 3.27 0 1.36.45 2.47 1.35 3.33.92.84 2.1 1.26 3.54 1.26zm31.3-12.12V109h-3.57v-2.07a5.78 5.78 0 01-2.31 1.71c-.9.38-1.9.57-3 .57-1.56 0-2.96-.34-4.2-1.02a7.384 7.384 0 01-2.88-2.88c-.68-1.24-1.02-2.68-1.02-4.32 0-1.64.34-3.07 1.02-4.29.7-1.24 1.66-2.2 2.88-2.88 1.24-.68 2.64-1.02 4.2-1.02 1.04 0 1.99.18 2.85.54.88.36 1.64.89 2.28 1.59v-1.95h3.75zm-8.46 13.02c1.38 0 2.52-.46 3.42-1.38.9-.92 1.35-2.13 1.35-3.63s-.45-2.71-1.35-3.63c-.9-.92-2.04-1.38-3.42-1.38s-2.52.46-3.42 1.38c-.88.92-1.32 2.13-1.32 3.63s.44 2.71 1.32 3.63c.9.92 2.04 1.38 3.42 1.38zm27.136-5.34c1.98.6 2.97 1.88 2.97 3.84 0 1.44-.54 2.55-1.62 3.33-1.08.78-2.68 1.17-4.8 1.17h-8.16V92.98h7.83c1.96 0 3.49.36 4.59 1.08 1.1.72 1.65 1.74 1.65 3.06 0 .82-.22 1.53-.66 2.13-.42.6-1.02 1.07-1.8 1.41zm-8.04-.99h3.93c1.94 0 2.91-.67 2.91-2.01 0-1.3-.97-1.95-2.91-1.95h-3.93v3.96zm4.29 6.6c2.06 0 3.09-.67 3.09-2.01 0-.7-.24-1.22-.72-1.56-.48-.36-1.23-.54-2.25-.54h-4.41v4.11h4.29zm28.414-13.29V109h-3.57v-2.07a5.78 5.78 0 01-2.31 1.71c-.9.38-1.9.57-3 .57-1.56 0-2.96-.34-4.2-1.02a7.384 7.384 0 01-2.88-2.88c-.68-1.24-1.02-2.68-1.02-4.32 0-1.64.34-3.07 1.02-4.29.7-1.24 1.66-2.2 2.88-2.88 1.24-.68 2.64-1.02 4.2-1.02 1.04 0 1.99.18 2.85.54.88.36 1.64.89 2.28 1.59v-1.95h3.75zm-8.46 13.02c1.38 0 2.52-.46 3.42-1.38.9-.92 1.35-2.13 1.35-3.63s-.45-2.71-1.35-3.63c-.9-.92-2.04-1.38-3.42-1.38s-2.52.46-3.42 1.38c-.88.92-1.32 2.13-1.32 3.63s.44 2.71 1.32 3.63c.9.92 2.04 1.38 3.42 1.38zm35.747-13.2c2.02 0 3.62.59 4.8 1.77 1.18 1.16 1.77 2.91 1.77 5.25V109h-3.75v-8.7c0-1.4-.31-2.45-.93-3.15-.62-.72-1.51-1.08-2.67-1.08-1.26 0-2.27.42-3.03 1.26-.76.82-1.14 2-1.14 3.54V109h-3.75v-8.7c0-1.4-.31-2.45-.93-3.15-.62-.72-1.51-1.08-2.67-1.08-1.28 0-2.3.41-3.06 1.23-.74.82-1.11 2.01-1.11 3.57V109h-3.75V92.98h3.57v2.04a5.83 5.83 0 012.25-1.65c.9-.38 1.9-.57 3-.57 1.2 0 2.26.23 3.18.69.94.44 1.68 1.1 2.22 1.98.66-.84 1.51-1.49 2.55-1.95 1.04-.48 2.19-.72 3.45-.72zm20.846 13.23c1.74 0 3.19-.58 4.35-1.74l1.98 2.31c-.7.86-1.6 1.51-2.7 1.95-1.1.44-2.34.66-3.72.66-1.76 0-3.31-.35-4.65-1.05-1.34-.7-2.38-1.67-3.12-2.91-.72-1.26-1.08-2.68-1.08-4.26 0-1.56.35-2.96 1.05-4.2.72-1.26 1.7-2.24 2.94-2.94 1.26-.7 2.68-1.05 4.26-1.05 1.5 0 2.86.33 4.08.99 1.24.64 2.22 1.57 2.94 2.79.72 1.2 1.08 2.61 1.08 4.23l-12.27 2.4c.38.92.99 1.62 1.83 2.1.84.48 1.85.72 3.03.72zm-.69-10.23c-1.38 0-2.5.45-3.36 1.35-.84.9-1.26 2.11-1.26 3.63v.03l9.06-1.74c-.26-.98-.79-1.77-1.59-2.37-.78-.6-1.73-.9-2.85-.9zm28.178-2.82V109h-3.75V96.16h-6l-.15 3.18c-.1 2.12-.3 3.9-.6 5.34-.28 1.42-.77 2.55-1.47 3.39-.68.82-1.62 1.23-2.82 1.23-.56 0-1.25-.11-2.07-.33l.18-3.15c.28.06.52.09.72.09.76 0 1.33-.3 1.71-.9.38-.62.62-1.35.72-2.19.12-.86.22-2.08.3-3.66l.27-6.18h12.96zm22.33 0V109h-3.57v-2.04a6.11 6.11 0 01-2.25 1.68c-.88.38-1.84.57-2.88.57-2.14 0-3.83-.59-5.07-1.77-1.24-1.2-1.86-2.97-1.86-5.31v-9.15h3.75v8.64c0 1.44.32 2.52.96 3.24.66.7 1.6 1.05 2.82 1.05 1.32 0 2.37-.41 3.15-1.23.8-.84 1.2-2.04 1.2-3.6v-8.1h3.75z" fill="#fff"/><g clip-path="url(#clip0)"><path d="M103.128 308.742l7.94-69.094-22.984-2.641-9.148 79.606c-.385 3.354 3.308 5.642 6.14 3.803l15.253-9.907a3.826 3.826 0 011.421-.57l1.378-1.197z" fill="#FFE07D"/><path d="M109.844 239.507l-8.093 70.432a3.99 3.99 0 013.629 1.15l12.608 13.109c2.34 2.433 6.456 1.042 6.842-2.311l9.148-79.607-24.134-2.773z" fill="#FFD064"/><path d="M132.12 232.885l-19.531 15.506 49.823 62.758c2.099 2.644 6.328 1.65 7.03-1.653l3.78-17.791a3.984 3.984 0 01.65-1.483l1.282-3.109-43.034-54.228z" fill="#FFE07D"/><path d="M198.592 282.425l-49.823-62.757-18.959 15.051 44.065 55.504a3.99 3.99 0 013.328-1.68l18.185.354c3.376.066 5.303-3.828 3.204-6.472z" fill="#FFD064"/><path d="M99.967 135.701a12.389 12.389 0 0011.52-1.08 12.39 12.39 0 0115.336 1.404 12.389 12.389 0 0011.133 3.154 12.388 12.388 0 0113.793 6.85 12.392 12.392 0 009.242 6.963 12.389 12.389 0 0110.388 11.369 12.388 12.388 0 006.102 9.832 12.389 12.389 0 015.579 14.354 12.387 12.387 0 002.139 11.372 12.39 12.39 0 01.017 15.4 12.389 12.389 0 00-2.114 11.376 12.39 12.39 0 01-5.547 14.366 12.392 12.392 0 00-6.081 9.845 12.388 12.388 0 01-10.363 11.392 12.39 12.39 0 00-9.226 6.984 12.39 12.39 0 01-13.778 6.88 12.39 12.39 0 00-11.126 3.178 12.388 12.388 0 01-15.333 1.438 12.389 12.389 0 00-11.523-1.055 12.39 12.39 0 01-14.817-4.198 12.388 12.388 0 00-10.364-5.146 12.39 12.39 0 01-12.3-9.267 12.388 12.388 0 00-7.805-8.543 12.39 12.39 0 01-8.121-13.085 12.388 12.388 0 00-4.192-10.785 12.389 12.389 0 01-2.847-15.135 12.39 12.39 0 00-.012-11.571 12.389 12.389 0 012.813-15.141 12.388 12.388 0 004.168-10.794 12.39 12.39 0 018.093-13.103 12.387 12.387 0 007.786-8.56 12.39 12.39 0 0112.28-9.294 12.391 12.391 0 0010.352-5.169 12.388 12.388 0 0114.808-4.231z" fill="#E8AE4D"/><path d="M144.882 197.897c-6.938-24.286-28.498-40.434-52.394-41.624-25.993 10.122-40.474 38.568-32.658 65.924 7.816 27.357 35.14 43.859 62.557 38.721 19.66-13.635 29.434-38.736 22.495-63.021z" fill="#FFE07D"/><path d="M97.368 154.63a54.838 54.838 0 00-11.33 4.654c24.91-1.363 48.346 14.571 55.489 39.571 7.143 25.001-4.338 50.911-26.207 62.914a54.842 54.842 0 0012.078-2.035c29.024-8.292 45.83-38.543 37.537-67.567-8.292-29.023-38.543-45.829-67.567-37.537z" fill="#FFD064"/><path d="M119.594 226.939l21.626 7.027c.85.276 1.658.122 2.288-.288a58.093 58.093 0 001.084-3.199 2.789 2.789 0 00-.249-.502L132.33 210.67a2.697 2.697 0 01.108-3.01l10.754-14.801a57.31 57.31 0 00-3.29-7.038l-19.001 4.699a2.695 2.695 0 01-2.829-1.033l-13.367-18.397c-1.478-2.034-4.691-1.116-4.871 1.392l-1.63 22.681a2.697 2.697 0 01-1.856 2.371l-21.626 7.027c-2.392.777-2.512 4.116-.182 5.063l21.067 8.558a2.697 2.697 0 011.682 2.499v22.739c0 2.515 3.139 3.661 4.759 1.738l14.65-17.392a2.697 2.697 0 012.896-.827z" fill="#E8AE4D"/><path d="M141.22 233.966c2.392.777 4.452-1.854 3.123-3.989l-2.178-3.501a54.786 54.786 0 01-2.204 7.081l1.259.409zm1.755-48.906l-6.572 1.626a54.621 54.621 0 014.314 9.58l5.087-7.003c1.479-2.034-.387-4.806-2.829-4.203z" fill="#E5A32E"/></g><defs><clipPath id="clip0"><path fill="#fff" transform="rotate(-15.945 576.46 80.736)" d="M0 0h191v191H0z"/></clipPath></defs></svg>