<svg width="390" height="255" fill="none" xmlns="http://www.w3.org/2000/svg"><rect y="62" width="603" height="187" rx="93.5" fill="#CD142B"/><path d="M269.797 115.547v71.094h-13.672v27.343l-27.344-27.343h-62.89v-71.094h103.906z" fill="#57A4FF"/><path d="M111.203 167.5v60.156h8.203v16.406l24.61-16.406h49.218V167.5h-82.031z" fill="#00EED1"/><path d="M173.383 189.375a22.71 22.71 0 01-2.324 5.633l8.23 8.23-7.738 7.739-8.231-8.231a22.628 22.628 0 01-5.632 2.324v11.649H146.75V205.07a22.635 22.635 0 01-5.633-2.324l-8.23 8.231-7.739-7.739 8.231-8.23a22.635 22.635 0 01-2.324-5.633h-11.649v-10.937h11.649a22.62 22.62 0 012.324-5.633l-5.524-5.524-2.707-2.707 7.739-7.738 8.23 8.23a22.71 22.71 0 015.633-2.324v-11.648h10.938v11.648c1.973.518 3.868 1.3 5.632 2.324l2.817-2.789 5.414-5.441 7.738 7.738-2.68 2.707-5.55 5.524a22.695 22.695 0 012.324 5.633h11.648v10.937h-11.648z" fill="#FF5023"/><path d="M226.047 151.094v8.203a8.2 8.2 0 01-8.203 8.203 8.202 8.202 0 01-8.203-8.203v-8.203h16.406z" fill="#E0E0E2"/><path d="M209.641 146.937a24.5 24.5 0 01-15.149-30.925 25.033 25.033 0 0122.641-16.871 24.611 24.611 0 0124.063 16.843 24.343 24.343 0 011.257 7.766 24.61 24.61 0 01-16.406 23.187v4.157h-16.406v-4.157z" fill="#FFDA44"/><path d="M152.219 194.844c6.04 0 10.937-4.897 10.937-10.938 0-6.04-4.897-10.937-10.937-10.937-6.041 0-10.938 4.897-10.938 10.937 0 6.041 4.897 10.938 10.938 10.938z" fill="#FF9811"/><path d="M234.25 129.219h-5.469a2.735 2.735 0 01-2.275-1.217l-3.617-5.431-3.112 3.112a2.733 2.733 0 01-3.866 0l-3.112-3.112-3.618 5.431a2.735 2.735 0 01-2.275 1.217h-5.468v-5.469h4.005l4.649-6.986a2.734 2.734 0 012.004-1.204 2.766 2.766 0 012.204.788l3.544 3.535 3.535-3.535a2.731 2.731 0 012.203-.788 2.729 2.729 0 012.006 1.204l4.656 6.986h4.006v5.469z" fill="#FF5023"/><path d="M215.109 85.469h5.469v5.469h-5.469v-5.47zm-18.771 6.509l4.733-2.733 2.733 4.734-4.733 2.733-2.733-4.734zm-13.008 15.006l2.734-4.736 4.736 2.734-2.734 4.736-4.736-2.734zm-3.768 14.032h5.469v5.468h-5.469v-5.468zm3.761 19.496l4.736-2.735 2.735 4.736-4.736 2.735-2.735-4.736zm61.577 2.028l2.735-4.736 4.736 2.734-2.735 4.736-4.736-2.734zm5.756-21.524h5.469v5.468h-5.469v-5.468zm-5.77-16.054l4.736-2.734 2.734 4.735-4.736 2.735-2.734-4.736zm-13.019-11.003l2.733-4.734 4.734 2.733-2.733 4.734-4.734-2.733z" fill="#FFDA44"/><path d="M201.438 148.359h32.812v5.469h-32.812v-5.469z" fill="#3E3D42"/><path d="M86.45 150V72l-19.8 15.3L53.6 69.45 88.55 43.8h23.1V150h-25.2z" fill="#00237C"/></svg>