<svg width="463" height="463" fill="none" xmlns="http://www.w3.org/2000/svg"><circle cx="231.5" cy="231.5" r="231.5" fill="#00237C"/><circle cx="232.5" cy="230.5" r="200" stroke="#fff" stroke-width="5" stroke-dasharray="15 15"/><g clip-path="url(#clip0)"><path d="M319.517 331.051a47.67 47.67 0 01-46.358 26.676h-.157a49.727 49.727 0 01-11.851-.783c-23.595-4.281-29.128-16.914-30.12-25.056a24.437 24.437 0 01-.209-3.187c0 1.067-.068 2.129-.209 3.187-.992 8.142-6.526 20.775-30.121 25.056a49.718 49.718 0 01-11.85.783h-.158a47.665 47.665 0 01-46.355-26.676 42.817 42.817 0 0013.624 6.213c2.785.672 5.692.637 8.457-.106 7.363-1.931 14.41-8.612 25.424-19.106a22.603 22.603 0 0117.748-7.151c12.79-1.201 23.076 13.625 23.076 13.625.044.206.079.416.103.627.047.205.063.416.052.625.054.315.105.679.157 1.098.052.521.052 1.095.052 1.774 0-.679 0-1.253.051-1.774.055-.419.106-.783.158-1.15a1.942 1.942 0 01.052-.573c.023-.211.058-.421.105-.627 0 0 10.283-14.826 23.074-13.625a22.604 22.604 0 0117.748 7.151c11.016 10.494 18.063 17.175 25.423 19.106 2.766.743 5.675.778 8.457.106a42.862 42.862 0 0013.627-6.213z" fill="#805333"/><path d="M361.33 363a5.176 5.176 0 01-3.706-1.513 6.185 6.185 0 01-1.097-1.723 4.385 4.385 0 01-.416-1.985 5.452 5.452 0 011.513-3.706 5.221 5.221 0 014.698-1.41c.347.049.686.155.998.315.32.103.621.263.886.47.299.178.578.39.837.625a5.483 5.483 0 011.508 3.706 5.226 5.226 0 01-.418 1.985 4.693 4.693 0 01-2.82 2.818 5.212 5.212 0 01-1.983.418zm-5.428-15.608a5.221 5.221 0 015.01-5.43 5.221 5.221 0 015.43 5.012 5.217 5.217 0 01-5.012 5.428h-.209a5.188 5.188 0 01-5.219-5.01zm-.679-10.233a5.17 5.17 0 011.158-3.828 5.174 5.174 0 013.539-1.861 5.167 5.167 0 015.691 4.697 5.22 5.22 0 01-4.699 5.696h-.522a5.22 5.22 0 01-5.167-4.704zm-1.304-10.133a5.218 5.218 0 014.33-5.997 5.22 5.22 0 016.004 4.279 5.25 5.25 0 01-4.338 6.004 4.994 4.994 0 01-.834.106 5.256 5.256 0 01-5.162-4.392zm-2.042-9.86a5.129 5.129 0 01.507-3.971 5.123 5.123 0 013.203-2.399 5.222 5.222 0 016.375 3.708 5.22 5.22 0 01-3.706 6.368c-.446.12-.902.19-1.363.209a5.184 5.184 0 01-5.016-3.915zm-3.133-9.345a5.187 5.187 0 012.82-6.787 5.138 5.138 0 013.974-.042 5.139 5.139 0 012.812 2.811 5.22 5.22 0 01-2.772 6.838 5.65 5.65 0 01-2.031.416 5.189 5.189 0 01-4.798-3.236h-.005zm-.308-6.004a5.184 5.184 0 01-3.713-1.513 6.157 6.157 0 01-1.142-1.723 6.323 6.323 0 01-.366-1.983 5.222 5.222 0 0110.443 0 5.244 5.244 0 01-.419 1.983 4.7 4.7 0 01-2.82 2.82 5.237 5.237 0 01-1.983.416z" fill="#95A5A5"/><path d="M335.228 266.423c0 18.74-15.192 33.932-33.932 33.932-18.74 0-33.932-15.192-33.932-33.932 0-18.74 15.192-33.932 33.932-33.932 18.74 0 33.932 15.192 33.932 33.932z" fill="#67B9CC"/><path d="M333.872 153.456c11.172-.47 29.181.522 32.731 11.172 5.222 15.659 0 57.423-135.729 57.423h-.052c-135.728 0-140.95-41.764-135.728-57.423 3.549-10.598 21.509-11.642 32.68-11.226l206.098.054z" fill="#717171"/><path d="M332.619 139.726c-1.186.44-2.897.976-5.136 1.565a66.985 66.985 0 005.136-1.565 543.777 543.777 0 00-7.832-58.624c-4.749-19.055-51.941-25.059-84.987-25.945a268.081 268.081 0 00-8.979-.157c-2.817 0-5.846.052-8.978.157-33.044.886-80.236 6.89-84.988 25.945a544.021 544.021 0 00-7.829 58.624c.813.299 1.894.654 3.231 1.044a46.617 46.617 0 01-3.231-1.044 2108.105 2108.105 0 00-2.611 30.121s.992 3.029 10.546 6.422c12.163 4.333 38.211 9.24 93.86 9.24 55.65 0 81.7-4.907 93.863-9.24 9.552-3.393 10.544-6.422 10.544-6.422s-1.044-13.416-2.609-30.121zm-6.034 1.8l-1.046.256 1.046-.256zm-193.012-.39l-1.077-.294c.325.094.705.196 1.077.294zm2.218.569l-.674-.162.674.162zm2.261.522c.657.145 1.351.291 2.089.444-.64-.132-1.286-.261-1.871-.393l-.218-.051zm56.337 5.935a360.897 360.897 0 01-53.962-5.435 362.755 362.755 0 0053.962 5.44v-.005zm25.929.71c3.059.042 6.213.07 9.46.089-3.254.003-6.408-.026-9.46-.084v-.005zm-25.172-.674c2.047.084 4.176.157 6.354.23a534.68 534.68 0 01-6.354-.223v-.007zm7.83.289c1.75.056 3.597.098 5.425.145-1.811-.042-3.682-.084-5.409-.141l-.016-.004zm8.426.228l4.594.084-4.594-.084zm111.454-6.322l.695-.15-.174.04-.521.11z" fill="#2C3E50"/><path d="M335.228 169.847s-.992 3.029-10.544 6.422c-12.163 4.333-38.213 9.24-93.863 9.24-55.649 0-81.697-4.907-93.86-9.24-9.554-3.393-10.546-6.422-10.546-6.422s1.043-13.416 2.611-30.121a71.373 71.373 0 009.239 2.557c13.103 2.871 39.675 6.422 91.513 6.683h2.089c51.784-.261 78.356-3.812 91.51-6.683a71.371 71.371 0 009.242-2.557c1.565 16.705 2.609 30.121 2.609 30.121z" fill="#2C2F38"/><path d="M332.62 139.726a73.985 73.985 0 01-8.772 2.454c-12.945 2.923-39.569 6.525-91.98 6.786h-2.089c-52.465-.261-79.035-3.915-91.983-6.786a71.19 71.19 0 01-8.77-2.454 544.023 544.023 0 017.83-58.624c4.751-19.055 51.944-25.059 84.987-25.945 3.133-.105 6.162-.157 8.979-.157 2.82 0 5.846.052 8.979.157 33.046.886 80.238 6.89 84.987 25.945a543.777 543.777 0 017.832 58.624z" fill="#35495E"/><path d="M323.848 142.18c-12.945 2.923-39.569 6.525-91.98 6.786h-2.089c-52.466-.261-79.035-3.915-91.983-6.786 1.774-21.769 4.02-45.313 6.265-56.745 4.384-22.03 47.347-29.13 77.782-30.278a270.02 270.02 0 018.979-.157c2.82 0 5.846.052 8.979.157 30.435 1.147 73.397 8.248 77.785 30.278 2.244 11.432 4.488 34.976 6.262 56.745z" fill="#717171"/><path d="M151.373 131.633a5.22 5.22 0 01-5.194-5.773c.736-6.646 1.518-13.249 2.256-19.215a5.145 5.145 0 015.809-4.547 5.22 5.22 0 014.547 5.811 1583.107 1583.107 0 00-2.235 19.095 5.214 5.214 0 01-5.183 4.629z" fill="#95A5A5"/><path d="M207.381 310.901a19.982 19.982 0 00-12.893 7.151c-13.467 14.513-20.202 21.821-30.278 19.107 7.362-1.932 14.409-8.613 25.423-19.107a22.604 22.604 0 0117.748-7.151z" fill="#AF8066"/><path d="M188.484 357.727a47.667 47.667 0 01-46.355-26.676 42.817 42.817 0 0013.624 6.213 41.285 41.285 0 0032.731 20.463zm131.032-26.676a47.672 47.672 0 01-46.358 26.676 41.279 41.279 0 0032.731-20.463 42.852 42.852 0 0013.627-6.213z" fill="#603E26"/><path d="M297.432 337.159c-10.074 2.714-16.808-4.594-30.278-19.107a19.98 19.98 0 00-12.893-7.151 22.604 22.604 0 0117.748 7.151c11.016 10.494 18.064 17.175 25.423 19.107z" fill="#AF8066"/><path d="M161.924 87.94a5.221 5.221 0 11-10.443 0 5.221 5.221 0 0110.443 0z" fill="#95A5A5"/><path d="M270.809 286.47a5.221 5.221 0 01-3.689-8.911l45.312-45.312a5.22 5.22 0 117.381 7.381l-45.312 45.312a5.218 5.218 0 01-3.692 1.53zm15.662 15.662a5.227 5.227 0 01-4.822-3.224 5.22 5.22 0 011.13-5.689l45.315-45.313a5.223 5.223 0 015.075-1.424 5.23 5.23 0 013.73 3.73 5.23 5.23 0 01-1.424 5.078l-45.313 45.312a5.244 5.244 0 01-3.691 1.53z" fill="#B0D3F0"/><path d="M340.449 305.576c-8.65 0-15.662-7.011-15.662-15.661 0-8.65 7.012-15.662 15.662-15.662 8.65 0 15.662 7.012 15.662 15.662 0 8.65-7.012 15.661-15.662 15.661zm0-20.88a5.22 5.22 0 100 10.44 5.22 5.22 0 100-10.44z" fill="#B19046"/><path d="M301.295 305.577c-21.623 0-39.15-17.53-39.15-39.154 0-21.623 17.527-39.153 39.15-39.153 21.624 0 39.154 17.53 39.154 39.153-.024 21.614-17.54 39.13-39.154 39.154zm0-67.864c-15.856 0-28.71 12.853-28.71 28.71 0 15.857 12.854 28.713 28.71 28.713 15.857 0 28.713-12.856 28.713-28.713-.021-15.847-12.863-28.691-28.713-28.71z" fill="#F3D55B"/></g><defs><clipPath id="clip0"><path fill="#fff" transform="translate(77 55)" d="M0 0h308v308H0z"/></clipPath></defs></svg>