<svg width="406" height="625" fill="none" xmlns="http://www.w3.org/2000/svg"><path d="M371.313 486.665c-1.073-10.208-9.77-16.834-19.531-15.808-9.761 1.026-17.971 10.641-15.817 19.524 2.153 8.882 9.002 18.289 19.531 15.808 10.528-2.481 16.89-9.315 15.817-19.524z" fill="#CD142B"/><circle cx="263" cy="526" r="24" fill="#00237C"/><rect y="126" width="406" height="316" rx="100" fill="#00237C"/><path d="M65.774 243v-26.904h18.088v5.51H72.044v5.054h11.172v5.206H72.044v5.586h12.502V243H65.774zm37.826 0v-10.336c0-.532-.051-1.039-.152-1.52a3.655 3.655 0 00-.418-1.254 2.081 2.081 0 00-.874-.874c-.355-.228-.811-.342-1.368-.342s-1.051.114-1.482.342a2.833 2.833 0 00-1.026.874 4.33 4.33 0 00-.646 1.33 5.95 5.95 0 00-.19 1.52V243h-6.27v-18.924h6.042v2.622h.076a6.17 6.17 0 01.874-1.178c.38-.405.81-.747 1.292-1.026a8.487 8.487 0 011.634-.684 6.374 6.374 0 011.862-.266c1.267 0 2.343.228 3.23.684.887.456 1.596 1.051 2.128 1.786a6.39 6.39 0 011.178 2.47c.253.937.38 1.875.38 2.812V243h-6.27zm33.714-1.786c0 1.849-.266 3.458-.798 4.826-.532 1.368-1.279 2.495-2.242 3.382-.963.912-2.141 1.583-3.534 2.014-1.368.456-2.888.684-4.56.684-1.672 0-3.395-.253-5.168-.76-1.748-.507-3.268-1.241-4.56-2.204l3.116-4.446a8.91 8.91 0 003.002 1.786c1.115.405 2.204.608 3.268.608 1.824 0 3.167-.481 4.028-1.444.887-.963 1.33-2.242 1.33-3.838v-1.14h-.114c-.583.76-1.368 1.368-2.356 1.824-.988.456-2.115.684-3.382.684-1.444 0-2.723-.253-3.838-.76a8.84 8.84 0 01-2.85-2.128 9.447 9.447 0 01-1.748-3.078 11.605 11.605 0 01-.608-3.762c0-1.317.203-2.571.608-3.762a9.805 9.805 0 011.748-3.154 8.599 8.599 0 012.85-2.166c1.115-.557 2.381-.836 3.8-.836 1.191 0 2.331.241 3.42.722a5.93 5.93 0 012.622 2.242h.076v-2.432h5.89v17.138zm-5.928-7.79c0-.633-.114-1.241-.342-1.824a4.213 4.213 0 00-.912-1.52 4.276 4.276 0 00-1.444-1.064c-.557-.253-1.191-.38-1.9-.38-.709 0-1.343.127-1.9.38a4.216 4.216 0 00-1.368 1.026c-.38.431-.671.937-.874 1.52a5.62 5.62 0 00-.304 1.862c0 .633.101 1.241.304 1.824.203.583.494 1.102.874 1.558.38.431.836.785 1.368 1.064.557.253 1.191.38 1.9.38.709 0 1.343-.127 1.9-.38a4.459 4.459 0 001.444-1.064c.405-.431.709-.937.912-1.52a5.064 5.064 0 00.342-1.862zM144.998 243v-28.728h6.308V243h-6.308zm20.666-24.966c0 .481-.101.937-.304 1.368-.177.405-.431.76-.76 1.064a3.25 3.25 0 01-1.14.722 3.566 3.566 0 01-1.368.266c-1.013 0-1.862-.329-2.546-.988-.684-.684-1.026-1.495-1.026-2.432 0-.456.089-.887.266-1.292.177-.431.431-.798.76-1.102a3.78 3.78 0 011.14-.722 3.255 3.255 0 011.406-.304c.481 0 .937.089 1.368.266a3.25 3.25 0 011.14.722c.329.304.583.671.76 1.102.203.405.304.849.304 1.33zM158.976 243v-18.924h6.232V243h-6.232zm24.962-13.338a6.93 6.93 0 00-1.786-1.216 4.936 4.936 0 00-2.166-.494c-.582 0-1.127.114-1.634.342-.481.228-.722.621-.722 1.178 0 .532.266.912.798 1.14.558.228 1.444.481 2.66.76.71.152 1.419.367 2.128.646a7.489 7.489 0 011.976 1.102 5.257 5.257 0 011.406 1.672c.355.659.532 1.444.532 2.356 0 1.191-.24 2.204-.722 3.04a5.898 5.898 0 01-1.9 1.976 7.882 7.882 0 01-2.584 1.102c-.962.228-1.925.342-2.888.342-1.545 0-3.065-.241-4.56-.722-1.469-.507-2.698-1.241-3.686-2.204l3.496-3.686a6.997 6.997 0 002.052 1.52 5.706 5.706 0 002.584.608c.507 0 1.001-.114 1.482-.342.507-.253.76-.684.76-1.292 0-.583-.304-1.013-.912-1.292-.608-.279-1.558-.57-2.85-.874a14.82 14.82 0 01-1.976-.608 6.554 6.554 0 01-1.786-1.026 5.265 5.265 0 01-1.254-1.596c-.329-.633-.494-1.393-.494-2.28 0-1.14.241-2.103.722-2.888a6.058 6.058 0 011.862-1.976 7.96 7.96 0 012.508-1.102c.938-.253 1.862-.38 2.774-.38 1.419 0 2.8.228 4.142.684 1.368.431 2.521 1.089 3.458 1.976l-3.42 3.534zM205.852 243v-10.26a9.74 9.74 0 00-.114-1.52 3.223 3.223 0 00-.456-1.254 2.143 2.143 0 00-.836-.874c-.355-.228-.811-.342-1.368-.342-1.089 0-1.925.393-2.508 1.178-.583.76-.874 1.71-.874 2.85V243h-6.232v-28.728h6.232v12.198h.076c.431-.76 1.115-1.431 2.052-2.014.937-.608 2.065-.912 3.382-.912 1.292 0 2.369.228 3.23.684.887.456 1.596 1.051 2.128 1.786a6.39 6.39 0 011.178 2.47c.253.937.38 1.875.38 2.812V243h-6.27zm54.195-13.566c0 2.128-.367 4.079-1.102 5.852-.734 1.748-1.76 3.255-3.078 4.522-1.292 1.241-2.837 2.204-4.636 2.888-1.798.684-3.749 1.026-5.852 1.026-2.102 0-4.053-.342-5.852-1.026-1.773-.684-3.318-1.647-4.636-2.888-1.292-1.267-2.305-2.774-3.04-4.522-.734-1.773-1.102-3.724-1.102-5.852 0-2.153.368-4.091 1.102-5.814.735-1.748 1.748-3.23 3.04-4.446 1.318-1.216 2.863-2.153 4.636-2.812 1.799-.659 3.75-.988 5.852-.988 2.103 0 4.054.329 5.852.988 1.799.659 3.344 1.596 4.636 2.812 1.318 1.216 2.344 2.698 3.078 4.446.735 1.723 1.102 3.661 1.102 5.814zm-6.954 0c0-1.165-.19-2.255-.57-3.268-.38-1.013-.912-1.875-1.596-2.584a6.697 6.697 0 00-2.432-1.71c-.937-.431-1.976-.646-3.116-.646-1.14 0-2.178.215-3.116.646a7.17 7.17 0 00-2.432 1.71c-.684.709-1.216 1.571-1.596 2.584a9.841 9.841 0 00-.532 3.268c0 1.216.19 2.343.57 3.382.38 1.013.9 1.887 1.558 2.622a7.653 7.653 0 002.432 1.748c.938.405 1.976.608 3.116.608 1.14 0 2.179-.203 3.116-.608a7.642 7.642 0 002.432-1.748 7.843 7.843 0 001.596-2.622c.38-1.039.57-2.166.57-3.382zM279.069 243v-10.336c0-.532-.05-1.039-.152-1.52a3.655 3.655 0 00-.418-1.254 2.076 2.076 0 00-.874-.874c-.354-.228-.81-.342-1.368-.342-.557 0-1.051.114-1.482.342a2.838 2.838 0 00-1.026.874c-.278.38-.494.823-.646 1.33-.126.481-.19.988-.19 1.52V243h-6.27v-18.924h6.042v2.622h.076c.228-.405.52-.798.874-1.178.38-.405.811-.747 1.292-1.026a8.522 8.522 0 011.634-.684 6.378 6.378 0 011.862-.266c1.267 0 2.344.228 3.23.684.887.456 1.596 1.051 2.128 1.786.558.709.95 1.533 1.178 2.47.254.937.38 1.875.38 2.812V243h-6.27zm13.727 0v-28.728h6.308V243h-6.308zm24.58 2.85c-.38.988-.811 1.862-1.292 2.622a7.072 7.072 0 01-1.672 1.976c-.633.557-1.393.975-2.28 1.254-.861.279-1.887.418-3.078.418-.583 0-1.191-.038-1.824-.114a11.171 11.171 0 01-1.596-.304l.684-5.244a5.7 5.7 0 00.988.228c.38.076.722.114 1.026.114.963 0 1.659-.228 2.09-.684.431-.431.798-1.051 1.102-1.862l.608-1.558-7.904-18.62h6.916l4.218 12.16h.114l3.762-12.16h6.612l-8.474 21.774zm14.682-11.856v-17.898h6.384v17.898h-6.384zm6.916 5.776c0 .507-.101.988-.304 1.444a3.197 3.197 0 01-.798 1.14 3.674 3.674 0 01-1.178.722 3.51 3.51 0 01-1.444.304c-.506 0-.988-.089-1.444-.266a3.473 3.473 0 01-1.14-.76 4.022 4.022 0 01-.798-1.14 3.27 3.27 0 01-.304-1.406c0-.481.089-.937.266-1.368.203-.456.469-.849.798-1.178.33-.329.722-.583 1.178-.76a3.513 3.513 0 011.444-.304c.507 0 .988.101 1.444.304.456.177.849.431 1.178.76.355.304.621.684.798 1.14.203.431.304.887.304 1.368zM63.612 272.008V289h-2.328v-14.928h-8.136V289H50.82v-16.992h12.792zm8.015 22.752h-2.232v-17.184h2.184v1.824h.072a4.53 4.53 0 011.776-1.56 5.188 5.188 0 012.352-.552c.864 0 1.648.16 2.352.48.72.304 1.328.728 1.824 1.272a5.598 5.598 0 011.176 1.92c.272.72.408 1.496.408 2.328a6.73 6.73 0 01-.408 2.352 5.647 5.647 0 01-1.176 1.896 5.4 5.4 0 01-1.824 1.296c-.704.32-1.496.48-2.376.48a5.227 5.227 0 01-2.28-.528 4.35 4.35 0 01-1.776-1.536h-.072v7.512zm7.656-11.472c0-.56-.088-1.088-.264-1.584a3.457 3.457 0 00-.744-1.32 3.663 3.663 0 00-1.224-.912c-.48-.224-1.032-.336-1.656-.336a3.86 3.86 0 00-1.608.336c-.48.208-.896.504-1.248.888a3.828 3.828 0 00-.816 1.32 4.416 4.416 0 00-.288 1.608c0 .576.096 1.12.288 1.632.192.496.464.936.816 1.32.352.368.768.664 1.248.888a4.116 4.116 0 001.608.312c.624 0 1.176-.112 1.656-.336.48-.224.888-.52 1.224-.888.336-.384.584-.824.744-1.32a4.912 4.912 0 00.264-1.608zm14.223-1.656c0-.864-.248-1.512-.744-1.944-.48-.432-1.16-.648-2.04-.648-.64 0-1.248.12-1.824.36-.56.24-1.032.552-1.416.936l-1.2-1.344c.512-.512 1.176-.928 1.992-1.248a7.234 7.234 0 012.664-.48 6.14 6.14 0 011.848.264c.56.176 1.04.44 1.44.792.416.352.736.8.96 1.344.24.528.368 1.152.384 1.872.016.224.024.44.024.648v4.32c0 .432.008.872.024 1.32.032.448.072.84.12 1.176h-2.016l-.096-.84a15.15 15.15 0 01-.024-.84h-.048c-.464.688-1.016 1.192-1.656 1.512-.64.304-1.392.456-2.256.456-.432 0-.888-.064-1.368-.192a3.926 3.926 0 01-1.296-.576 3.673 3.673 0 01-.96-1.08c-.256-.448-.384-1-.384-1.656 0-.864.224-1.544.672-2.04.448-.512 1.04-.896 1.776-1.152.736-.272 1.576-.44 2.52-.504.944-.08 1.912-.12 2.904-.12v-.336zm-.456 1.848c-.608 0-1.224.024-1.848.072a7.64 7.64 0 00-1.68.312c-.496.16-.904.392-1.224.696-.32.288-.48.672-.48 1.152 0 .352.072.648.216.888.144.24.328.44.552.6.224.144.48.248.768.312.288.064.576.096.864.096.528 0 .992-.088 1.392-.264a3.094 3.094 0 001.056-.72c.288-.32.504-.68.648-1.08.144-.416.216-.856.216-1.32v-.744h-.48zm12.984-.984c.72 0 1.296-.104 1.728-.312.448-.224.672-.664.672-1.32 0-.384-.088-.68-.264-.888-.16-.208-.392-.368-.696-.48a3.522 3.522 0 00-1.08-.192c-.4-.032-.84-.048-1.32-.048h-1.776v3.24h2.736zm-2.736 4.824h1.944c.512 0 .992-.008 1.44-.024.448-.016.84-.072 1.176-.168.336-.112.6-.28.792-.504.192-.24.288-.568.288-.984 0-.416-.096-.736-.288-.96-.176-.224-.432-.392-.768-.504a4.282 4.282 0 00-1.2-.192 41.98 41.98 0 00-1.488-.024h-1.896v3.36zm-2.232 1.68v-11.424h5.304c1.456 0 2.544.28 3.264.84.72.56 1.08 1.304 1.08 2.232 0 .432-.072.792-.216 1.08a1.89 1.89 0 01-.552.72c-.224.176-.488.32-.792.432a11.93 11.93 0 01-.984.312 5.47 5.47 0 011.176.216c.384.112.712.28.984.504.288.224.512.504.672.84.176.336.264.736.264 1.2 0 .912-.392 1.648-1.176 2.208-.784.56-1.928.84-3.432.84h-5.592zm23.635-8.568l-6.48 8.568h-2.256v-11.424h2.256v8.328l6.48-8.328h2.256V289h-2.256v-8.568zM140.329 289l-3.408-8.76-3.576 8.76h-2.376l4.848-11.424h2.28l4.56 11.424h-2.328zm17.987-5.712c0 .88-.16 1.688-.48 2.424a5.656 5.656 0 01-1.296 1.92 5.967 5.967 0 01-1.944 1.248 6.788 6.788 0 01-2.448.432c-.88 0-1.696-.144-2.448-.432a6.326 6.326 0 01-1.944-1.248 6.157 6.157 0 01-1.296-1.92c-.304-.736-.456-1.544-.456-2.424 0-.88.152-1.688.456-2.424a5.787 5.787 0 013.24-3.144 6.47 6.47 0 012.448-.456c.88 0 1.696.152 2.448.456.752.288 1.4.704 1.944 1.248a5.41 5.41 0 011.296 1.896c.32.736.48 1.544.48 2.424zm-2.256 0c0-.576-.096-1.112-.288-1.608a3.727 3.727 0 00-.768-1.32 3.4 3.4 0 00-1.224-.888c-.48-.224-1.024-.336-1.632-.336-.608 0-1.152.112-1.632.336a3.4 3.4 0 00-1.224.888 3.727 3.727 0 00-.768 1.32 4.775 4.775 0 00-.264 1.608c0 .56.088 1.096.264 1.608.176.496.432.936.768 1.32.336.368.744.664 1.224.888.48.224 1.024.336 1.632.336.608 0 1.152-.112 1.632-.336.48-.224.888-.52 1.224-.888a4.03 4.03 0 00.768-1.32 4.542 4.542 0 00.288-1.608zm14.909 9.048h-2.016v-5.16h1.848l3.936-9.6h2.304l3.648 9.6h1.92v5.16h-2.016V289h-9.624v3.336zm4.224-10.704l-2.112 5.544h5.376l-2.544-7.008-.72 1.464zM194.088 289l-3.408-8.76-3.576 8.76h-2.376l4.848-11.424h2.28l4.56 11.424h-2.328zm11.675-4.512c-1.104 0-1.96.368-2.568 1.104-.592.736-.968 1.872-1.128 3.408h-2.472c.16-1.392.528-2.552 1.104-3.48.592-.928 1.352-1.536 2.28-1.824v-.072c-.8-.08-1.472-.336-2.016-.768-.528-.432-.792-1.112-.792-2.04 0-.56.112-1.04.336-1.44.24-.416.56-.752.96-1.008.416-.272.912-.472 1.488-.6a8.745 8.745 0 011.896-.192h4.776V289h-2.208v-4.512h-1.656zm-3.336-3.408c0 .336.072.608.216.816.16.208.368.368.624.48.256.112.56.192.912.24.352.032.728.048 1.128.048h2.112v-3.192h-2.136c-.432 0-.824.016-1.176.048a2.937 2.937 0 00-.912.216c-.24.112-.432.28-.576.504-.128.208-.192.488-.192.84zm28.467-.6c-.256-.4-.632-.72-1.128-.96-.48-.256-1-.384-1.56-.384-.592 0-1.128.112-1.608.336a3.54 3.54 0 00-1.224.864c-.336.368-.6.808-.792 1.32a4.986 4.986 0 00-.264 1.632c0 .576.088 1.12.264 1.632.192.512.456.952.792 1.32.336.368.744.664 1.224.888.48.208 1.016.312 1.608.312.624 0 1.168-.12 1.632-.36.48-.24.872-.56 1.176-.96l1.488 1.344a5.52 5.52 0 01-1.824 1.344c-.704.336-1.536.504-2.496.504-.912 0-1.752-.144-2.52-.432a5.967 5.967 0 01-1.944-1.248 6.03 6.03 0 01-1.248-1.92c-.304-.736-.456-1.544-.456-2.424 0-.88.152-1.688.456-2.424a5.752 5.752 0 011.248-1.896 5.487 5.487 0 011.944-1.248c.768-.304 1.608-.456 2.52-.456.784 0 1.568.16 2.352.48.784.32 1.416.784 1.896 1.392l-1.536 1.344zm3.887-2.904h10.032v1.8h-4.008V289h-2.232v-9.624h-3.792v-1.8zm18.296 9.024h.072l3.192-9.024h2.4l-5.016 12.72a29.008 29.008 0 01-.768 1.8 6.368 6.368 0 01-.84 1.416c-.32.4-.712.704-1.176.912-.448.224-1.016.336-1.704.336-.272 0-.552-.016-.84-.048-.288-.032-.56-.072-.816-.12l.24-1.968c.176.064.368.112.576.144.208.048.424.072.648.072.56 0 .992-.168 1.296-.504.32-.32.592-.784.816-1.392l.792-2.016-4.848-11.352h2.472l3.504 9.024zm9.644 5.736h-2.016v-5.16h1.848l3.936-9.6h2.304l3.648 9.6h1.92v5.16h-2.016V289h-9.624v3.336zm4.224-10.704l-2.112 5.544h5.376l-2.544-7.008-.72 1.464zm19.615.672c-.032-.96-.336-1.752-.912-2.376-.576-.624-1.4-.936-2.472-.936-.496 0-.96.096-1.392.288a3.657 3.657 0 00-1.104.72c-.32.304-.584.656-.792 1.056a3.45 3.45 0 00-.336 1.248h7.008zm2.16.768v.408c0 .128-.008.264-.024.408h-9.144c.016.512.12.992.312 1.44a3.846 3.846 0 001.992 1.896c.464.192.952.288 1.464.288.8 0 1.48-.176 2.04-.528.576-.368 1.016-.784 1.32-1.248l1.608 1.152c-.64.848-1.376 1.464-2.208 1.848-.832.384-1.752.576-2.76.576-.848 0-1.64-.144-2.376-.432a5.712 5.712 0 01-1.92-1.224 5.752 5.752 0 01-1.248-1.896c-.304-.736-.456-1.552-.456-2.448 0-.88.144-1.688.432-2.424a5.696 5.696 0 011.248-1.92 5.394 5.394 0 011.848-1.248 5.923 5.923 0 012.328-.456c.88 0 1.664.152 2.352.456a4.654 4.654 0 011.728 1.224c.48.512.84 1.12 1.08 1.824.256.704.384 1.472.384 2.304zm7.059 5.928h-2.232v-11.424h2.232v4.512h5.784v-4.512h2.232V289h-2.232v-5.112h-5.784V289zm11.926-11.424h10.032v1.8h-4.008V289h-2.232v-9.624h-3.792v-1.8zm25.592 5.712c0 .88-.16 1.688-.48 2.424a5.656 5.656 0 01-1.296 1.92 5.967 5.967 0 01-1.944 1.248 6.788 6.788 0 01-2.448.432c-.88 0-1.696-.144-2.448-.432a6.326 6.326 0 01-1.944-1.248 6.157 6.157 0 01-1.296-1.92c-.304-.736-.456-1.544-.456-2.424 0-.88.152-1.688.456-2.424a5.787 5.787 0 013.24-3.144 6.47 6.47 0 012.448-.456c.88 0 1.696.152 2.448.456.752.288 1.4.704 1.944 1.248a5.41 5.41 0 011.296 1.896c.32.736.48 1.544.48 2.424zm-2.256 0c0-.576-.096-1.112-.288-1.608a3.727 3.727 0 00-.768-1.32 3.4 3.4 0 00-1.224-.888c-.48-.224-1.024-.336-1.632-.336-.608 0-1.152.112-1.632.336a3.4 3.4 0 00-1.224.888 3.727 3.727 0 00-.768 1.32 4.775 4.775 0 00-.264 1.608c0 .56.088 1.096.264 1.608.176.496.432.936.768 1.32.336.368.744.664 1.224.888.48.224 1.024.336 1.632.336.608 0 1.152-.112 1.632-.336.48-.224.888-.52 1.224-.888a4.03 4.03 0 00.768-1.32 4.542 4.542 0 00.288-1.608zm12.076-.792c.72 0 1.296-.104 1.728-.312.448-.224.672-.664.672-1.32 0-.384-.088-.68-.264-.888-.16-.208-.392-.368-.696-.48a3.522 3.522 0 00-1.08-.192c-.4-.032-.84-.048-1.32-.048h-1.776v3.24h2.736zm-2.736 4.824h1.944c.512 0 .992-.008 1.44-.024.448-.016.84-.072 1.176-.168.336-.112.6-.28.792-.504.192-.24.288-.568.288-.984 0-.416-.096-.736-.288-.96-.176-.224-.432-.392-.768-.504a4.282 4.282 0 00-1.2-.192 41.98 41.98 0 00-1.488-.024h-1.896v3.36zm-2.232 1.68v-11.424h5.304c1.456 0 2.544.28 3.264.84.72.56 1.08 1.304 1.08 2.232 0 .432-.072.792-.216 1.08a1.89 1.89 0 01-.552.72c-.224.176-.488.32-.792.432a11.93 11.93 0 01-.984.312 5.47 5.47 0 011.176.216c.384.112.712.28.984.504.288.224.512.504.672.84.176.336.264.736.264 1.2 0 .912-.392 1.648-1.176 2.208-.784.56-1.928.84-3.432.84h-5.592zm15.715 3.192h-1.92l1.656-6h2.256l-1.992 6zM93.489 322h-2.232v-11.424h2.232v4.512h5.784v-4.512h2.232V322h-2.232v-5.112H93.49V322zm20.662-7.368c0-.864-.248-1.512-.744-1.944-.48-.432-1.16-.648-2.04-.648-.64 0-1.248.12-1.824.36-.56.24-1.032.552-1.416.936l-1.2-1.344c.512-.512 1.176-.928 1.992-1.248a7.234 7.234 0 012.664-.48 6.14 6.14 0 011.848.264c.56.176 1.04.44 1.44.792.416.352.736.8.96 1.344.24.528.368 1.152.384 1.872.016.224.024.44.024.648v4.32c0 .432.008.872.024 1.32.032.448.072.84.12 1.176h-2.016l-.096-.84a15.15 15.15 0 01-.024-.84h-.048c-.464.688-1.016 1.192-1.656 1.512-.64.304-1.392.456-2.256.456-.432 0-.888-.064-1.368-.192a3.926 3.926 0 01-1.296-.576 3.673 3.673 0 01-.96-1.08c-.256-.448-.384-1-.384-1.656 0-.864.224-1.544.672-2.04.448-.512 1.04-.896 1.776-1.152.736-.272 1.576-.44 2.52-.504.944-.08 1.912-.12 2.904-.12v-.336zm-.456 1.848c-.608 0-1.224.024-1.848.072a7.64 7.64 0 00-1.68.312c-.496.16-.904.392-1.224.696-.32.288-.48.672-.48 1.152 0 .352.072.648.216.888.144.24.328.44.552.6.224.144.48.248.768.312.288.064.576.096.864.096.528 0 .992-.088 1.392-.264a3.094 3.094 0 001.056-.72c.288-.32.504-.68.648-1.08.144-.416.216-.856.216-1.32v-.744h-.48zm7.248-5.904h2.208v1.632c0 .72.024 1.336.072 1.848.048.512.168.928.36 1.248.208.32.512.56.912.72.416.144.992.216 1.728.216h2.352v-5.664h2.208V322h-2.208v-3.84l-2.52-.024c-1.04 0-1.896-.104-2.568-.312-.656-.224-1.176-.536-1.56-.936a3.354 3.354 0 01-.792-1.512 10.2 10.2 0 01-.192-2.088v-2.712zm24.122 2.856l-6.48 8.568h-2.256v-11.424h2.256v8.328l6.48-8.328h2.256V322h-2.256v-8.568zM155.077 322h-2.232v-11.424h2.232v4.512h5.784v-4.512h2.232V322h-2.232v-5.112h-5.784V322zm20.661-7.368c0-.864-.248-1.512-.744-1.944-.48-.432-1.16-.648-2.04-.648-.64 0-1.248.12-1.824.36-.56.24-1.032.552-1.416.936l-1.2-1.344c.512-.512 1.176-.928 1.992-1.248a7.234 7.234 0 012.664-.48 6.14 6.14 0 011.848.264c.56.176 1.04.44 1.44.792.416.352.736.8.96 1.344.24.528.368 1.152.384 1.872.016.224.024.44.024.648v4.32c0 .432.008.872.024 1.32.032.448.072.84.12 1.176h-2.016l-.096-.84a15.15 15.15 0 01-.024-.84h-.048c-.464.688-1.016 1.192-1.656 1.512-.64.304-1.392.456-2.256.456-.432 0-.888-.064-1.368-.192a3.926 3.926 0 01-1.296-.576 3.673 3.673 0 01-.96-1.08c-.256-.448-.384-1-.384-1.656 0-.864.224-1.544.672-2.04.448-.512 1.04-.896 1.776-1.152.736-.272 1.576-.44 2.52-.504.944-.08 1.912-.12 2.904-.12v-.336zm-.456 1.848c-.608 0-1.224.024-1.848.072a7.64 7.64 0 00-1.68.312c-.496.16-.904.392-1.224.696-.32.288-.48.672-.48 1.152 0 .352.072.648.216.888.144.24.328.44.552.6.224.144.48.248.768.312.288.064.576.096.864.096.528 0 .992-.088 1.392-.264a3.094 3.094 0 001.056-.72c.288-.32.504-.68.648-1.08.144-.416.216-.856.216-1.32v-.744h-.48zm13.344 1.008c-1.104 0-1.96.368-2.568 1.104-.592.736-.968 1.872-1.128 3.408h-2.472c.16-1.392.528-2.552 1.104-3.48.592-.928 1.352-1.536 2.28-1.824v-.072c-.8-.08-1.472-.336-2.016-.768-.528-.432-.792-1.112-.792-2.04 0-.56.112-1.04.336-1.44.24-.416.56-.752.96-1.008.416-.272.912-.472 1.488-.6a8.745 8.745 0 011.896-.192h4.776V322h-2.208v-4.512h-1.656zm-3.336-3.408c0 .336.072.608.216.816.16.208.368.368.624.48.256.112.56.192.912.24.352.032.728.048 1.128.048h2.112v-3.192h-2.136c-.432 0-.824.016-1.176.048a2.937 2.937 0 00-.912.216c-.24.112-.432.28-.576.504-.128.208-.192.488-.192.84zm28.467-.6c-.256-.4-.632-.72-1.128-.96-.48-.256-1-.384-1.56-.384-.592 0-1.128.112-1.608.336a3.54 3.54 0 00-1.224.864c-.336.368-.6.808-.792 1.32a4.986 4.986 0 00-.264 1.632c0 .576.088 1.12.264 1.632.192.512.456.952.792 1.32.336.368.744.664 1.224.888.48.208 1.016.312 1.608.312.624 0 1.168-.12 1.632-.36.48-.24.872-.56 1.176-.96l1.488 1.344a5.52 5.52 0 01-1.824 1.344c-.704.336-1.536.504-2.496.504-.912 0-1.752-.144-2.52-.432a5.967 5.967 0 01-1.944-1.248 6.03 6.03 0 01-1.248-1.92c-.304-.736-.456-1.544-.456-2.424 0-.88.152-1.688.456-2.424a5.752 5.752 0 011.248-1.896 5.487 5.487 0 011.944-1.248c.768-.304 1.608-.456 2.52-.456.784 0 1.568.16 2.352.48.784.32 1.416.784 1.896 1.392l-1.536 1.344zm17.519 6.12h.072l3.192-9.024h2.4l-5.016 12.72a29.008 29.008 0 01-.768 1.8 6.368 6.368 0 01-.84 1.416c-.32.4-.712.704-1.176.912-.448.224-1.016.336-1.704.336-.272 0-.552-.016-.84-.048-.288-.032-.56-.072-.816-.12l.24-1.968c.176.064.368.112.576.144.208.048.424.072.648.072.56 0 .992-.168 1.296-.504.32-.32.592-.784.816-1.392l.792-2.016-4.848-11.352h2.472l3.504 9.024zm11.828 8.16h-2.232v-17.184h2.184v1.824h.072a4.53 4.53 0 011.776-1.56 5.188 5.188 0 012.352-.552c.864 0 1.648.16 2.352.48.72.304 1.328.728 1.824 1.272a5.598 5.598 0 011.176 1.92c.272.72.408 1.496.408 2.328a6.73 6.73 0 01-.408 2.352 5.647 5.647 0 01-1.176 1.896 5.4 5.4 0 01-1.824 1.296c-.704.32-1.496.48-2.376.48a5.227 5.227 0 01-2.28-.528 4.35 4.35 0 01-1.776-1.536h-.072v7.512zm7.656-11.472c0-.56-.088-1.088-.264-1.584a3.457 3.457 0 00-.744-1.32 3.663 3.663 0 00-1.224-.912c-.48-.224-1.032-.336-1.656-.336a3.86 3.86 0 00-1.608.336c-.48.208-.896.504-1.248.888a3.828 3.828 0 00-.816 1.32 4.416 4.416 0 00-.288 1.608c0 .576.096 1.12.288 1.632.192.496.464.936.816 1.32.352.368.768.664 1.248.888a4.116 4.116 0 001.608.312c.624 0 1.176-.112 1.656-.336.48-.224.888-.52 1.224-.888.336-.384.584-.824.744-1.32a4.912 4.912 0 00.264-1.608zm18.735 0c0 .88-.16 1.688-.48 2.424a5.656 5.656 0 01-1.296 1.92 5.967 5.967 0 01-1.944 1.248 6.788 6.788 0 01-2.448.432c-.88 0-1.696-.144-2.448-.432a6.326 6.326 0 01-1.944-1.248 6.157 6.157 0 01-1.296-1.92c-.304-.736-.456-1.544-.456-2.424 0-.88.152-1.688.456-2.424a5.787 5.787 0 013.24-3.144 6.47 6.47 0 012.448-.456c.88 0 1.696.152 2.448.456.752.288 1.4.704 1.944 1.248a5.41 5.41 0 011.296 1.896c.32.736.48 1.544.48 2.424zm-2.256 0c0-.576-.096-1.112-.288-1.608a3.727 3.727 0 00-.768-1.32 3.4 3.4 0 00-1.224-.888c-.48-.224-1.024-.336-1.632-.336-.608 0-1.152.112-1.632.336a3.4 3.4 0 00-1.224.888 3.727 3.727 0 00-.768 1.32 4.775 4.775 0 00-.264 1.608c0 .56.088 1.096.264 1.608.176.496.432.936.768 1.32.336.368.744.664 1.224.888.48.224 1.024.336 1.632.336.608 0 1.152-.112 1.632-.336.48-.224.888-.52 1.224-.888a4.03 4.03 0 00.768-1.32 4.542 4.542 0 00.288-1.608zm12.076-.792c.72 0 1.296-.104 1.728-.312.448-.224.672-.664.672-1.32 0-.384-.088-.68-.264-.888-.16-.208-.392-.368-.696-.48a3.522 3.522 0 00-1.08-.192c-.4-.032-.84-.048-1.32-.048h-1.776v3.24h2.736zm-2.736 4.824h1.944c.512 0 .992-.008 1.44-.024.448-.016.84-.072 1.176-.168.336-.112.6-.28.792-.504.192-.24.288-.568.288-.984 0-.416-.096-.736-.288-.96-.176-.224-.432-.392-.768-.504a4.282 4.282 0 00-1.2-.192 41.98 41.98 0 00-1.488-.024h-1.896v3.36zm-2.232 1.68v-11.424h5.304c1.456 0 2.544.28 3.264.84.72.56 1.08 1.304 1.08 2.232 0 .432-.072.792-.216 1.08a1.89 1.89 0 01-.552.72c-.224.176-.488.32-.792.432a11.93 11.93 0 01-.984.312 5.47 5.47 0 011.176.216c.384.112.712.28.984.504.288.224.512.504.672.84.176.336.264.736.264 1.2 0 .912-.392 1.648-1.176 2.208-.784.56-1.928.84-3.432.84h-5.592zm17.131 0h-2.232v-11.424h2.232v4.512h5.784v-4.512h2.232V322h-2.232v-5.112h-5.784V322zm18.862-4.512c-1.104 0-1.96.368-2.568 1.104-.592.736-.968 1.872-1.128 3.408h-2.472c.16-1.392.528-2.552 1.104-3.48.592-.928 1.352-1.536 2.28-1.824v-.072c-.8-.08-1.472-.336-2.016-.768-.528-.432-.792-1.112-.792-2.04 0-.56.112-1.04.336-1.44.24-.416.56-.752.96-1.008.416-.272.912-.472 1.488-.6a8.745 8.745 0 011.896-.192h4.776V322h-2.208v-4.512h-1.656zm-3.336-3.408c0 .336.072.608.216.816.16.208.368.368.624.48.256.112.56.192.912.24.352.032.728.048 1.128.048h2.112v-3.192h-2.136c-.432 0-.824.016-1.176.048a2.937 2.937 0 00-.912.216c-.24.112-.432.28-.576.504-.128.208-.192.488-.192.84zM68.642 338.008h5.544c.976 0 1.856.088 2.64.264.784.176 1.456.464 2.016.864.56.4.992.912 1.296 1.536.304.624.456 1.376.456 2.256 0 .944-.176 1.736-.528 2.376a4.347 4.347 0 01-1.44 1.56c-.592.384-1.288.664-2.088.84-.8.176-1.648.264-2.544.264h-2.328V355h-3.024v-16.992zm5.136 7.416c.496 0 .968-.032 1.416-.096.448-.08.848-.208 1.2-.384.352-.192.632-.448.84-.768.208-.32.312-.736.312-1.248 0-.496-.104-.896-.312-1.2a2.103 2.103 0 00-.84-.744 3.264 3.264 0 00-1.176-.336 9.163 9.163 0 00-1.344-.096h-2.208v4.872h2.112zm9.947-1.944h2.76v1.92h.048a4.202 4.202 0 011.344-1.632c.576-.416 1.248-.624 2.016-.624.112 0 .232.008.36.024.128 0 .24.016.336.048v2.64a3.888 3.888 0 00-.504-.096 3.093 3.093 0 00-.384-.024c-.656 0-1.184.12-1.584.36-.4.24-.712.528-.936.864-.224.336-.376.68-.456 1.032-.08.352-.12.632-.12.84V355h-2.88v-11.52zm18.112 4.608c0-.368-.056-.72-.168-1.056a2.283 2.283 0 00-.48-.888 2.264 2.264 0 00-.864-.6c-.335-.16-.736-.24-1.2-.24-.864 0-1.6.264-2.207.792-.593.512-.92 1.176-.985 1.992h5.904zm2.88 1.296v.384c0 .128-.008.256-.024.384h-8.76c.032.416.136.8.313 1.152.192.336.44.632.744.888.303.24.648.432 1.032.576a3.39 3.39 0 001.2.216c.72 0 1.327-.128 1.823-.384.496-.272.904-.64 1.224-1.104l1.92 1.536c-1.136 1.536-2.784 2.304-4.943 2.304-.896 0-1.72-.136-2.472-.408a6.135 6.135 0 01-1.969-1.2 5.6 5.6 0 01-1.296-1.872c-.303-.752-.456-1.6-.456-2.544 0-.928.153-1.768.457-2.52a5.752 5.752 0 011.295-1.944 5.534 5.534 0 011.92-1.248 6.406 6.406 0 012.425-.456c.8 0 1.535.136 2.207.408.688.256 1.28.648 1.776 1.176.496.512.88 1.16 1.152 1.944.288.768.432 1.672.432 2.712zm9.462.936h-5.76v-2.448h5.76v2.448zm4.519-12.312h3.024V355h-3.024v-16.992zm8.31 5.472h2.736v1.848h.048c.256-.576.696-1.08 1.32-1.512.64-.448 1.392-.672 2.256-.672.752 0 1.392.136 1.92.408.544.256.984.6 1.32 1.032.352.432.608.928.768 1.488.16.56.24 1.136.24 1.728v7.2h-2.88v-6.384c0-.336-.024-.688-.072-1.056a2.735 2.735 0 00-.312-.984 2.002 2.002 0 00-.672-.744c-.272-.192-.64-.288-1.104-.288-.464 0-.864.096-1.2.288a2.545 2.545 0 00-.84.696 3.268 3.268 0 00-.48 1.008 3.853 3.853 0 00-.168 1.128V355h-2.88v-11.52zM141 345.784v-2.304h2.016v-3.336h2.832v3.336h2.88v2.304h-2.88v5.352c0 .512.088.936.264 1.272.192.336.608.504 1.248.504.192 0 .4-.016.624-.048.224-.048.424-.112.6-.192l.096 2.256c-.256.096-.56.168-.912.216a5.64 5.64 0 01-1.008.096c-.768 0-1.392-.104-1.872-.312a3.09 3.09 0 01-1.152-.888 3.654 3.654 0 01-.576-1.296 8.33 8.33 0 01-.144-1.584v-5.376H141zm19.605 2.304c0-.368-.056-.72-.168-1.056a2.283 2.283 0 00-.48-.888 2.264 2.264 0 00-.864-.6c-.336-.16-.736-.24-1.2-.24-.864 0-1.6.264-2.208.792-.592.512-.92 1.176-.984 1.992h5.904zm2.88 1.296v.384c0 .128-.008.256-.024.384h-8.76c.032.416.136.8.312 1.152.192.336.44.632.744.888.304.24.648.432 1.032.576a3.39 3.39 0 001.2.216c.72 0 1.328-.128 1.824-.384.496-.272.904-.64 1.224-1.104l1.92 1.536c-1.136 1.536-2.784 2.304-4.944 2.304-.896 0-1.72-.136-2.472-.408a6.135 6.135 0 01-1.968-1.2 5.6 5.6 0 01-1.296-1.872c-.304-.752-.456-1.6-.456-2.544 0-.928.152-1.768.456-2.52a5.752 5.752 0 011.296-1.944 5.534 5.534 0 011.92-1.248 6.406 6.406 0 012.424-.456c.8 0 1.536.136 2.208.408.688.256 1.28.648 1.776 1.176.496.512.88 1.16 1.152 1.944.288.768.432 1.672.432 2.712zm4.469-5.904h2.76v1.92h.048a4.202 4.202 0 011.344-1.632c.576-.416 1.248-.624 2.016-.624.112 0 .232.008.36.024.128 0 .24.016.336.048v2.64a3.888 3.888 0 00-.504-.096 3.093 3.093 0 00-.384-.024c-.656 0-1.184.12-1.584.36-.4.24-.712.528-.936.864-.224.336-.376.68-.456 1.032-.08.352-.12.632-.12.84V355h-2.88v-11.52zm24.174-.336c.752 0 1.392.136 1.92.408.544.256.984.6 1.32 1.032.352.432.608.928.768 1.488.16.56.24 1.136.24 1.728v7.2h-2.88v-6.384c0-.336-.024-.688-.072-1.056a2.735 2.735 0 00-.312-.984 2.002 2.002 0 00-.672-.744c-.272-.192-.64-.288-1.104-.288-.448 0-.832.096-1.152.288-.32.192-.584.44-.792.744-.208.304-.36.648-.456 1.032a4.358 4.358 0 00-.144 1.104V355h-2.88v-6.96c0-.72-.176-1.312-.528-1.776-.336-.48-.872-.72-1.608-.72-.432 0-.808.096-1.128.288-.32.176-.584.408-.792.696a3.644 3.644 0 00-.456 1.008 4.45 4.45 0 00-.144 1.128V355h-2.88v-11.52h2.736v1.848h.048c.128-.288.296-.56.504-.816.224-.256.48-.488.768-.696a3.596 3.596 0 011.032-.48 4.004 4.004 0 011.272-.192c.896 0 1.64.2 2.232.6.592.4 1.048.928 1.368 1.584.384-.704.896-1.24 1.536-1.608.64-.384 1.392-.576 2.256-.576zm17.392 4.944c0-.368-.056-.72-.168-1.056a2.283 2.283 0 00-.48-.888 2.264 2.264 0 00-.864-.6c-.336-.16-.736-.24-1.2-.24-.864 0-1.6.264-2.208.792-.592.512-.92 1.176-.984 1.992h5.904zm2.88 1.296v.384c0 .128-.008.256-.024.384h-8.76c.032.416.136.8.312 1.152.192.336.44.632.744.888.304.24.648.432 1.032.576a3.39 3.39 0 001.2.216c.72 0 1.328-.128 1.824-.384.496-.272.904-.64 1.224-1.104l1.92 1.536c-1.136 1.536-2.784 2.304-4.944 2.304-.896 0-1.72-.136-2.472-.408a6.135 6.135 0 01-1.968-1.2 5.6 5.6 0 01-1.296-1.872c-.304-.752-.456-1.6-.456-2.544 0-.928.152-1.768.456-2.52a5.752 5.752 0 011.296-1.944 5.534 5.534 0 011.92-1.248 6.406 6.406 0 012.424-.456c.8 0 1.536.136 2.208.408.688.256 1.28.648 1.776 1.176.496.512.88 1.16 1.152 1.944.288.768.432 1.672.432 2.712zM228.581 355h-2.736v-1.728h-.048c-.4.672-.96 1.184-1.68 1.536a5.027 5.027 0 01-2.28.528c-.88 0-1.672-.16-2.376-.48a5.851 5.851 0 01-1.776-1.32 6.326 6.326 0 01-1.128-1.944 7.397 7.397 0 01-.384-2.4 6.8 6.8 0 01.408-2.376 5.799 5.799 0 011.152-1.92 5.24 5.24 0 011.776-1.272c.688-.32 1.44-.48 2.256-.48.528 0 1 .064 1.416.192.416.112.776.256 1.08.432.32.176.592.368.816.576.224.208.408.408.552.6h.072v-8.088h2.88V355zm-9.48-5.808c0 .448.064.896.192 1.344.144.448.352.848.624 1.2s.616.64 1.032.864c.416.224.904.336 1.464.336.528 0 1-.104 1.416-.312a3.479 3.479 0 001.056-.864c.304-.352.528-.744.672-1.176.16-.448.24-.896.24-1.344 0-.448-.08-.896-.24-1.344a3.416 3.416 0 00-.672-1.2 3.479 3.479 0 00-1.056-.864 2.939 2.939 0 00-1.416-.336c-.56 0-1.048.112-1.464.336-.416.208-.76.488-1.032.84s-.48.752-.624 1.2a4.623 4.623 0 00-.192 1.32zm14.707-5.712h2.88V355h-2.88v-11.52zm-.408-3.912c0-.464.168-.864.504-1.2.352-.352.792-.528 1.32-.528s.968.168 1.32.504c.368.32.552.728.552 1.224s-.184.912-.552 1.248c-.352.32-.792.48-1.32.48s-.968-.168-1.32-.504a1.719 1.719 0 01-.504-1.224zm15.614 13.968h-.072c-.288.512-.752.936-1.392 1.272-.64.32-1.368.48-2.184.48-.464 0-.952-.064-1.464-.192a4.422 4.422 0 01-1.392-.576 3.868 3.868 0 01-1.056-1.104c-.272-.464-.408-1.032-.408-1.704 0-.864.24-1.552.72-2.064.496-.512 1.128-.904 1.896-1.176a10.234 10.234 0 012.544-.528 27.281 27.281 0 012.76-.144v-.288c0-.72-.264-1.248-.792-1.584-.512-.352-1.128-.528-1.848-.528-.608 0-1.192.128-1.752.384s-1.024.568-1.392.936l-1.488-1.752a6.522 6.522 0 012.256-1.368 7.833 7.833 0 012.616-.456c1.024 0 1.864.144 2.52.432.672.288 1.2.664 1.584 1.128.384.464.648.984.792 1.56.16.576.24 1.152.24 1.728V355h-2.688v-1.464zm-.048-3.792h-.648c-.464 0-.952.024-1.464.072-.512.032-.984.12-1.416.264-.432.128-.792.32-1.08.576-.288.24-.432.576-.432 1.008 0 .272.056.504.168.696.128.176.288.32.48.432.192.112.408.192.648.24.24.048.48.072.72.072.992 0 1.744-.264 2.256-.792.512-.528.768-1.248.768-2.16v-.408zm5.881-3.96v-2.304h2.016v-3.336h2.832v3.336h2.88v2.304h-2.88v5.352c0 .512.088.936.264 1.272.192.336.608.504 1.248.504.192 0 .4-.016.624-.048.224-.048.424-.112.6-.192l.096 2.256c-.256.096-.56.168-.912.216a5.64 5.64 0 01-1.008.096c-.768 0-1.392-.104-1.872-.312a3.09 3.09 0 01-1.152-.888 3.654 3.654 0 01-.576-1.296 8.33 8.33 0 01-.144-1.584v-5.376h-2.016zm19.604 2.304c0-.368-.056-.72-.168-1.056a2.283 2.283 0 00-.48-.888 2.264 2.264 0 00-.864-.6c-.336-.16-.736-.24-1.2-.24-.864 0-1.6.264-2.208.792-.592.512-.92 1.176-.984 1.992h5.904zm2.88 1.296v.384c0 .128-.008.256-.024.384h-8.76c.032.416.136.8.312 1.152.192.336.44.632.744.888.304.24.648.432 1.032.576a3.39 3.39 0 001.2.216c.72 0 1.328-.128 1.824-.384.496-.272.904-.64 1.224-1.104l1.92 1.536c-1.136 1.536-2.784 2.304-4.944 2.304-.896 0-1.72-.136-2.472-.408a6.135 6.135 0 01-1.968-1.2 5.6 5.6 0 01-1.296-1.872c-.304-.752-.456-1.6-.456-2.544 0-.928.152-1.768.456-2.52a5.752 5.752 0 011.296-1.944 5.534 5.534 0 011.92-1.248 6.406 6.406 0 012.424-.456c.8 0 1.536.136 2.208.408.688.256 1.28.648 1.776 1.176.496.512.88 1.16 1.152 1.944.288.768.432 1.672.432 2.712zm11.285-1.296c0-1.968.304-3.856.912-5.664a18.98 18.98 0 012.592-4.992l2.016 1.32a16.825 16.825 0 00-2.256 4.44 15.528 15.528 0 00-.792 4.896c0 1.664.264 3.304.792 4.92a16.925 16.925 0 002.256 4.416l-2.016 1.32a18.98 18.98 0 01-2.592-4.992 17.65 17.65 0 01-.912-5.664zm15.938-10.08h2.616L314.49 355h-3.456l-1.584-3.888h-7.368L300.546 355h-3.384l7.392-16.992zm3.84 10.512l-2.616-6.912-2.664 6.912h5.28zm9.241 3.84l6.552-6.432c.528-.512.944-1.024 1.248-1.536.32-.528.48-1.128.48-1.8 0-.8-.264-1.432-.792-1.896-.512-.48-1.152-.72-1.92-.72-.816 0-1.472.28-1.968.84-.496.544-.8 1.232-.912 2.064l-2.808-.432c.08-.704.28-1.352.6-1.944a5.462 5.462 0 011.224-1.536 5.458 5.458 0 011.728-1.008 6.085 6.085 0 012.184-.384c.736 0 1.44.104 2.112.312a5.243 5.243 0 011.824.96 4.42 4.42 0 011.248 1.56c.32.608.48 1.32.48 2.136a5.32 5.32 0 01-.216 1.536 5.775 5.775 0 01-.6 1.32 7.56 7.56 0 01-.864 1.2c-.32.368-.672.728-1.056 1.08l-4.896 4.68h7.656V355h-11.304v-2.64zm21.729-4.272c0 1.968-.312 3.856-.936 5.664a18.446 18.446 0 01-2.568 4.992l-2.016-1.32a16.382 16.382 0 002.232-4.416c.544-1.616.816-3.256.816-4.92 0-1.664-.272-3.296-.816-4.896a16.294 16.294 0 00-2.232-4.44l2.016-1.32a18.446 18.446 0 012.568 4.992c.624 1.808.936 3.696.936 5.664z" fill="#fff"/><g clip-path="url(#clip0)"><path d="M342.959 16.416H222.041C198.859 16.416 180 35.275 180 58.457v67.644c0 23.182 18.859 42.041 42.041 42.041h6.239l14.622 18.551a6.009 6.009 0 009.434 0l14.622-18.551h76.001c23.182 0 42.041-18.859 42.041-42.041V58.457c0-23.182-18.859-42.041-42.041-42.041z" fill="#6787F5"/><path d="M342.959 16.416H282.5v151.726h60.459c23.182 0 42.041-18.859 42.041-42.041V58.457c0-23.182-18.859-42.041-42.041-42.041z" fill="#38478A"/><path d="M259.981 176.994l6.978-8.852-6.978 8.852zM385 65.766h-50.498l37.59-37.59c-7.562-7.277-17.833-11.76-29.133-11.76h-10.068l-23.868 23.869V16.416h-53.044v23.869L232.11 16.416h-10.069c-11.3 0-21.571 4.482-29.133 11.76l37.59 37.59H180v53.044h50.498l-36.179 36.177-1.403 1.403c7.562 7.274 17.83 11.752 29.125 11.752h6.239l1.695 2.151 25.359-25.361-.411 23.21h54.098v-23.786l23.708 23.786h10.23c11.247 0 21.476-4.439 29.027-11.657l-1.414-1.42-36.135-36.255H385V65.766z" fill="#fff"/><path d="M385 65.766h-50.498l37.59-37.59c-7.562-7.277-17.833-11.76-29.133-11.76h-10.068l-23.868 23.869V16.416H282.5v151.726h26.521v-23.786l23.708 23.786h10.23c11.247 0 21.476-4.439 29.027-11.657l-1.414-1.42-36.135-36.255H385V65.766z" fill="#C7D3ED"/><path d="M297.009 77.777V16.416h-29.018v61.361H180v29.021h87.991l-1.033 61.344h30.051v-61.344H385v-29.02h-87.991z" fill="#FF337A"/><path d="M297.009 77.777V16.416H282.5v151.726h14.509v-61.344H385v-29.02h-87.991z" fill="#D1005B"/><path d="M259.981 69.768v-8.493l-44.368-44.368c-4.55.7-8.862 2.135-12.811 4.176l48.686 48.685h8.493z" fill="#FF337A"/><path d="M362.198 21.083a41.704 41.704 0 00-12.811-4.176l-44.368 44.368v8.493h8.492l48.687-48.685z" fill="#D1005B"/><path d="M202.812 163.481a41.76 41.76 0 0012.815 4.173l44.354-44.356v-8.492h-8.493l-48.676 48.675z" fill="#FF337A"/><path d="M305.019 114.806v8.517l44.202 44.353a41.738 41.738 0 0012.842-4.131l-48.575-48.739h-8.469z" fill="#D1005B"/></g><circle cx="333.5" cy="612.5" r="11.5" stroke="#CD142B" stroke-opacity=".53" stroke-width="2"/><defs><clipPath id="clip0"><path fill="#fff" transform="translate(180)" d="M0 0h205v205H0z"/></clipPath></defs></svg>