<svg width="377" height="373" fill="none" xmlns="http://www.w3.org/2000/svg"><circle cx="143.5" cy="143.5" r="143.5" fill="#00237C"/><path d="M29.192 106h-6.696l10.692-25.488h5.976L49.748 106h-6.84l-1.98-5.004h-9.864L29.192 106zm3.636-9.936h6.408l-3.168-8.748-3.24 8.748zM54.375 106V80.512h6.12v9.252c.336 0 .66.012.972.036.336 0 .66.012.972.036l7.812-9.324h6.696l-8.532 10.764a12.497 12.497 0 012.988 2.052c.912.816 1.74 1.824 2.484 3.024s1.392 2.604 1.944 4.212c.552 1.584 1.02 3.396 1.404 5.436h-6.696c-.36-1.944-.816-3.624-1.368-5.04-.528-1.416-1.188-2.568-1.98-3.456a6.874 6.874 0 00-2.844-1.98c-1.104-.432-2.388-.624-3.852-.576V106h-6.12zm28.184 0V80.512h6.12v20.304h9.72V80.512h6.12v20.304h2.736v10.188h-5.04V106H82.559zm30.75 0V80.512h17.136v5.22h-11.196v4.788h10.584v4.932h-10.584v5.292h11.844V106h-17.784zm40.479 0V95.344h-9.936V106h-6.156V80.512h6.156v9.648h9.936v-9.648h6.156V106h-6.156zm24.828-20.232V106h-6.156V85.768h-7.2v-5.256h20.556v5.256h-7.2zM218.758 106V95.344h-9.936V106h-6.156V80.512h6.156v9.648h9.936v-9.648h6.156V106h-6.156zm17.485 0h-6.696l10.692-25.488h5.976L256.799 106h-6.84l-1.98-5.004h-9.864L236.243 106zm3.636-9.936h6.408l-3.168-8.748-3.24 8.748zM47.228 129.512V155h-6.12v-20.304h-9.36V155h-6.12v-25.488h21.6zm27.111 7.848c0 1.488-.276 2.748-.828 3.78a6.845 6.845 0 01-2.232 2.448c-.936.624-2.016 1.08-3.24 1.368a16.608 16.608 0 01-3.816.432h-3.06V155h-6.156v-25.488h9.36c1.392 0 2.688.144 3.888.432 1.224.264 2.28.708 3.168 1.332.912.6 1.62 1.404 2.124 2.412.528.984.792 2.208.792 3.672zm-6.156.036c0-.6-.12-1.092-.36-1.476a2.508 2.508 0 00-.972-.9 4.186 4.186 0 00-1.404-.432 11.198 11.198 0 00-1.584-.108h-2.7v6.012h2.592c.576 0 1.128-.048 1.656-.144a4.241 4.241 0 001.404-.504c.432-.24.768-.552 1.008-.936.24-.408.36-.912.36-1.512zM84.12 155h-6.696l10.692-25.488h5.976L104.675 155h-6.84l-1.98-5.004H85.99L84.119 155zm3.636-9.936h6.408l-3.168-8.748-3.24 8.748zM109.3 155v-25.488h6.12v9.252c.336 0 .66.012.972.036.336 0 .66.012.972.036l7.812-9.324h6.696l-8.532 10.764a12.497 12.497 0 012.988 2.052c.912.816 1.74 1.824 2.484 3.024s1.392 2.604 1.944 4.212c.552 1.584 1.02 3.396 1.404 5.436h-6.696c-.36-1.944-.816-3.624-1.368-5.04-.528-1.416-1.188-2.568-1.98-3.456a6.874 6.874 0 00-2.844-1.98c-1.104-.432-2.388-.624-3.852-.576V155h-6.12zm39.092-20.232V155h-6.156v-20.232h-7.2v-5.256h20.556v5.256h-7.2zm18.758 11.736l10.584-16.992h6.948V155h-6.12v-16.776h-.108L167.835 155h-6.912v-25.488h6.12v16.992h.108zM192.447 155v-25.488h6.12v9.252c.336 0 .66.012.972.036.336 0 .66.012.972.036l7.812-9.324h6.696l-8.532 10.764a12.497 12.497 0 012.988 2.052c.912.816 1.74 1.824 2.484 3.024s1.392 2.604 1.944 4.212c.552 1.584 1.02 3.396 1.404 5.436h-6.696c-.36-1.944-.816-3.624-1.368-5.04-.528-1.416-1.188-2.568-1.98-3.456a6.874 6.874 0 00-2.844-1.98c-1.104-.432-2.388-.624-3.852-.576V155h-6.12zm28.184 0v-25.488h17.136v5.22h-11.196v4.788h10.584v4.932h-10.584v5.292h11.844V155h-17.784zM44.96 186.36c0 1.488-.276 2.748-.828 3.78a6.845 6.845 0 01-2.232 2.448c-.936.624-2.016 1.08-3.24 1.368a16.608 16.608 0 01-3.816.432h-3.06V204h-6.156v-25.488h9.36c1.392 0 2.688.144 3.888.432 1.224.264 2.28.708 3.168 1.332.912.6 1.62 1.404 2.124 2.412.528.984.792 2.208.792 3.672zm-6.156.036c0-.6-.12-1.092-.36-1.476a2.508 2.508 0 00-.972-.9 4.186 4.186 0 00-1.404-.432 11.198 11.198 0 00-1.584-.108h-2.7v6.012h2.592c.576 0 1.128-.048 1.656-.144a4.241 4.241 0 001.404-.504c.432-.24.768-.552 1.008-.936.24-.408.36-.912.36-1.512zM51.175 204v-25.488h17.136v5.22H57.115v4.788H67.7v4.932H57.115v5.292H68.96V204H51.175zm37.24-25.488h6.084V204H88.45v-9.468h-4.608c-3.313 0-5.725-.876-7.237-2.628-1.487-1.776-2.231-4.26-2.231-7.452v-5.94h6.12v4.644c0 1.08.047 2.016.143 2.808.12.768.325 1.404.612 1.908a2.8 2.8 0 001.296 1.116c.576.24 1.32.36 2.232.36h3.636v-10.836zm20.083 16.992l10.584-16.992h6.948V204h-6.12v-16.776h-.108L109.182 204h-6.912v-25.488h6.12v16.992h.108z" fill="#fff"/><circle cx="277" cy="273" r="100" fill="#CD142B"/><g clip-path="url(#clip0)"><path d="M342.345 274.106c0 35.84-29.053 64.894-64.893 64.894-35.839 0-64.893-29.054-64.893-64.894 0-35.839 29.054-64.892 64.893-64.892 35.84 0 64.893 29.053 64.893 64.892z" fill="#CD142B"/><path d="M278.159 256.074h-32.714c-14.929 0-27.032 12.102-27.032 27.032 0 10.799 6.334 20.119 15.489 24.449a10.51 10.51 0 016.034 9.494v5.799c0 2.205 2.849 3.084 4.09 1.262l6.404-9.392a10.494 10.494 0 018.667-4.58h19.062c14.93 0 27.032-12.103 27.032-27.032-.001-14.93-12.103-27.032-27.032-27.032z" fill="#F8FAFD"/><path d="M244.231 307.555c-9.154-4.33-15.488-13.65-15.488-24.449 0-14.93 12.102-27.032 27.032-27.032h-10.33c-14.929 0-27.032 12.102-27.032 27.032 0 10.799 6.333 20.119 15.488 24.449a10.509 10.509 0 016.034 9.494v5.799c0 2.205 2.849 3.084 4.091 1.262l6.069-8.902a10.52 10.52 0 00-5.864-7.653z" fill="#DDD"/><path d="M248.494 283.622a4.99 4.99 0 11-4.989-4.99 4.989 4.989 0 014.989 4.99zm18.299 0a4.99 4.99 0 11-9.981 0 4.99 4.99 0 019.981 0zm18.297 0a4.99 4.99 0 11-9.981 0 4.99 4.99 0 019.981 0z" fill="#7956BA"/><path d="M276.536 206h32.713c14.929 0 27.032 12.102 27.032 27.032 0 10.799-6.333 20.119-15.488 24.449a10.509 10.509 0 00-6.034 9.494v5.799c0 2.204-2.849 3.084-4.091 1.262l-6.404-9.393a10.49 10.49 0 00-8.667-4.579h-19.061c-14.93 0-27.032-12.103-27.032-27.032 0-14.93 12.102-27.032 27.032-27.032z" fill="#00237C"/><path d="M306.722 256.621H287.66c-14.929 0-27.032-12.104-27.032-27.032 0-9.842 5.26-18.454 13.122-23.182-13.62 1.394-24.246 12.901-24.246 26.89 0 14.929 12.102 27.032 27.032 27.032h19.062a10.49 10.49 0 018.666 4.58l6.404 9.392c1.242 1.822 4.091.943 4.091-1.262v-5.799c0-1.804.466-3.533 1.304-5.051l-.675-.988a10.485 10.485 0 00-8.666-4.58z" fill="#1A47B8"/><path d="M316.181 233.548a4.991 4.991 0 11-9.983 0 4.991 4.991 0 019.983 0zm-18.299 0a4.99 4.99 0 11-4.989-4.99 4.989 4.989 0 014.989 4.99zm-18.297 0a4.99 4.99 0 11-9.981 0 4.99 4.99 0 019.981 0z" fill="#F8FAFD"/></g><circle cx="277.5" cy="272.5" r="85" stroke="#fff" stroke-width="5" stroke-dasharray="15 15"/><defs><clipPath id="clip0"><path fill="#fff" transform="translate(211 206)" d="M0 0h133v133H0z"/></clipPath></defs></svg>