<svg width="1440" height="553" fill="none" xmlns="http://www.w3.org/2000/svg"><mask id="a" maskUnits="userSpaceOnUse" x="0" y="0" width="1440" height="553"><path fill="#C4C4C4" d="M0 0h1440v553H0z"/></mask><g mask="url(#a)"><path d="M2129.07-584.27c-77.4 42.129-149.94 92.311-213.49 154.054-41.72 40.541-83.91 86.189-113.46 136.31-49.99 84.764-72.22 187.597-96.99 284.401-27.3 106.743-53.98 215.548-99.58 314.032-24.61 53.154-58.78 98.975-110.53 127.141-48.58 26.472-101.76 38.463-155.7 39.409-113.53 1.974-225.49-32.404-332.96-63.981-57.735-16.97-115.293-34.609-173.522-49.818-52.408-13.689-107.922-29.586-162.534-30.664-152.095-2.963-221.639 6.521-364.005 59.099-50.211 18.548-120.939 41.895-168.726 69.07-100.177 56.967-408.51 182.074-488.92 213.887-412.29 121.94-307.568 66.431-381.51 61.923-15.965-.971-33.023-2.736-47.312-8.587-20.048-8.201-48.525-24.815-44.213-53.336.234-1.635.61-3.247 1.123-4.818 8.773-26.883 40.433-44.524 62.026-57.858a437.172 437.172 0 0142.136-22.537c148.217-70.581 651.053-214.8 809.005-258.558 161.416-44.594 326.233-83.214 490.73-102.406 91.611-10.686 176.781-11.582 265.486 14.298 74.567 21.79 146.398 52.448 218.526 80.663 89.41 34.983 184.69 72.551 282.75 69.723 52.1-1.502 104.82-17.805 149.36-47.558 44.97-29.967 69.92-81.613 83.68-132.132 32.71-120.06 26.49-251.776 39.5-377.346 6.17-59.518 15.23-119.723 35.52-176.374 19.72-55.03 52.42-97.748 90.1-140.223 51.25-57.82 107.97-112.291 170.05-155.518 20.94-14.536 43.28-26.671 66.62-36.189 61.94-25.351 130.26-44.046 196.87-31.411 21.03 3.988 44.82 11.713 60.88 26.569 45.46 42.047-86.9 86.337-110.91 98.735z" fill="#00237C"/><path d="M2011.54-746.076c-88.48 44.23-173.84 95.585-246.56 163.57-43.86 41.02-90.15 89.164-114.65 144.213-42.04 94.433-41.75 209.643-46.03 314.173-4.62 112.727.41 238.817-40.18 342.398-20.06 51.253-51.64 88.36-102.53 111.158-44.83 19.949-93.45 27.825-141.34 22.894-92.45-9.198-178.98-53.264-261.76-92.815-86.847-41.424-176.015-87.171-271.9-102.338-67.977-10.762-140.321-1.564-208.612 6.348-102.929 11.935-205.409 30.336-307.091 51.014-64.923 13.183-130.106 26.819-194.737 41.74-128.491 29.661-255.979 66.071-384.077 98.755-94.602 24.144-526.352 152.834-623.329 147.448-13.46-.754-28.061-2.65-39.973-8.911-25.179-13.249-4.191-46.698 7.831-59.643a67.96 67.96 0 015.608-5.213c33.268-28.496 76.76-45.161 116.502-59.364 18.538-6.648 37.772-12.741 56.724-18.567 180.059-55.375 696.01-198.992 880.658-234.97 170.638-33.254 343.591-63.432 515.932-75.52 85.38-5.984 164.221-6.953 244.934 22.79 65.994 24.321 127.96 58.945 190.21 91.34 77.9 40.539 161.35 84.076 250.99 87.773 48.3 2.022 99.02-10.864 141.45-36.58 47.15-28.563 71.52-78.538 83.69-130.02 28.59-121.082 11.56-255.37 9.75-382.468-.91-62.921 3.18-95.698 17.47-159.472 16.51-58.749 44.65-121.01 71.3-156.397 44.88-59.576 95.41-117.658 157.4-157.442a595.935 595.935 0 0167.37-36.827c74.06-34.795 157.21-60.373 238.66-58.81 20.54.408 47.48 3.191 63.23 17.832 48.86 45.431-113.32 100.543-136.95 111.908" fill="#CD142B"/></g></svg>