<svg width="1440" height="595" fill="none" xmlns="http://www.w3.org/2000/svg"><mask id="a" maskUnits="userSpaceOnUse" x="0" y="0" width="1440" height="595"><path fill="#C4C4C4" d="M0 0h1440v595H0z"/></mask><g mask="url(#a)"><path d="M1589.79 48.968c-120.93 22.809-156.54 54.984-179.63 93.241-28.29 46.731-70.4 92.536-144.3 135.009-48.54 27.944-112.75 62.983-207.86 81.357-109.906 21.228-273.001 10.948-389.057 1.717-172.607-13.73-351.613-35.417-507.315-61.712-61.128-10.32-95.81-15.867-155.565-3.721-8.476 1.698-19.237 4.125-30.892 2.436-8.963-1.296-16.189-4.742-23.212-7.962-15.276-7.121-32.53-13.896-51.605-20.264-17.343-5.728-39.178-12.97-39.184-20.967-.004-5.25 9.198-8.95 16.986-11.714 13.551-4.82 43.302-19.154 71.69-15.943 23.996 2.717 46.053 8.487 68.797 12.666 59.772 11.015 123.63 20.651 187.043 29.486 213.042 29.693 521.015 65.464 736.63 17.321 150.924-33.709 251.404-78.18 286.694-130.477 23.62-35.031 38.53-69.955 105.43-101.02 25.06-11.63 58.66-21.106 100.05-27.559 42.24-6.572 105.54-9.393 150.88-2.699 39.4 5.836 39.21 23.555 4.42 30.805z" fill="#CD142B"/><path d="M1723.3 89.094c29.37.125 48.77 8.12 38.78 15.009-1.94 1.256-4.87 2.387-8.59 3.317-64.83 15.731-118.68 35.907-146.65 57.894-12.31 9.692-22.25 19.705-31.57 29.696-17.61 18.872-35.79 37.854-52.15 56.798-18.18 21.042-35.22 42.343-54.79 63.276a655.504 655.504 0 01-27.4 27.493c-30.08 28.177-67.07 56.157-116.86 82.128-36.71 19.157-80.39 35.681-165.09 40.268-85.46 4.625-179.746-.593-261.555-6.013-226.41-15.013-448.128-42.86-665.027-67.171-38.565-4.32-83.125-10.623-123.018-9.546-33.294.901-64.626 5.496-96.507 9.785-6.697.896-14.06 1.819-21.189 2.033-5.207.215-10.492-.217-14.336-1.173-6.66-1.669-10.11-5.254-12.815-8.813-4.372-5.732-8.508-11.512-12.547-17.27-1.431-2.017-2.823-4.008-4.294-5.957-5.528-7.358-9.92-15.582-1.309-22.94 5.22-4.317 14.157-8.252 26.098-11.49 23.614-6.754 59.074-18.433 99.87-16.153 30.652 1.714 59.836 6.124 88.275 9.722 63.911 8.077 128.84 15.72 193.142 23.489 76.583 9.256 154.478 18.256 233.077 25.852 119.866 11.571 264.626 24.72 394.997 18.482 113.978-5.48 188.338-32.814 245.488-56.871 75.36-31.72 119.17-67.619 150.02-104.474 14.31-17.065 24.64-34.628 39.27-51.553 12.7-14.692 29.59-29.319 55.2-42.478 19.6-10.147 46.85-19.114 80.04-26.337 45.35-9.913 112.19-17.257 171.44-17.003z" fill="#979797"/><path d="M1918.01 129.591c20.16-.525 56.35-.087 56.16 7.719-.19.932-1.37 1.833-3.41 2.602-46.39 20.258-110.59 37.086-146.9 58.853-16.72 10.03-31.37 20.457-44.95 30.826-25.49 19.619-49.81 39.784-71.43 59.58-24.23 22.177-41.53 45.315-59.71 68.112-8.31 10.391-16.58 20.808-25.16 31.179-26.24 31.644-55.76 63.383-97.41 93.722-28.96 21.087-59.32 46.983-132.92 60.85-76.15 14.359-178.69 11.256-264.77 7.8-293.722-11.816-568.629-47.715-858.979-65.351-57.568-3.493-122.687-8.549-180.152-4.722-47.227 3.151-92.313 10.167-137.655 15.15-8.708.957-18.22 1.786-26.987 1.915-6.178.091-11.886-.293-16.005-1.608-5.611-1.783-7.3-5.389-7.343-9.087-.004-6.166 1.305-12.378 3.517-18.551.763-2.156 1.762-4.302 2.682-6.382 3.427-7.818 8.991-16.088 22.578-23.122 8.796-4.365 20.411-8.305 34.335-11.646 38.24-9.121 79.636-19.143 135.319-18.489 39.227.482 77.279 4.138 114.233 7.196 72.907 6.031 144.678 12.573 215.762 19.862 84.206 8.622 168.688 17.715 253.541 25.76 134.714 12.764 288.336 27.195 434.784 25.698 147.63-1.507 207.41-32.844 263.42-63.51 77.25-42.302 122.78-88.249 161.76-134.237 16.38-19.321 33.9-38.659 52.65-57.762 14.86-15.137 31.5-30.408 55.81-44.371 17.8-10.249 41.9-19.676 71.35-27.908 49.91-13.956 125.37-28.305 195.88-30.078z" fill="#00237C"/></g></svg>