<svg width="1440" height="508" fill="none" xmlns="http://www.w3.org/2000/svg"><mask id="a" maskUnits="userSpaceOnUse" x="0" y="0" width="1440" height="508"><path fill="#C4C4C4" d="M0 0h1440v508H0z"/></mask><g mask="url(#a)"><path d="M-688.981-246.237c82.622 24.572 158.919 55.922 223.872 97.22 42.651 27.116 85.28 58.156 113.224 94.013 47.261 60.642 61.371 138.28 78.983 210.96 19.414 80.142 37.904 161.955 78.772 233.735 22.058 38.74 55.649 70.764 110.884 87.192 51.864 15.445 110.427 19.138 171.014 14.159 127.521-10.493 257.131-49.097 381.395-85.047 66.756-19.318 133.385-39.138 200.511-57.139 60.415-16.201 124.56-34.448 186.119-41.073 171.437-18.419 248.677-18.41 403.287 7.407 54.53 9.108 131.63 19.776 182.52 35.853 106.67 33.7 309.01 174.55 396.11 190.778 450.95 51.175 470.33-57.107 554-68.448 18.07-2.446 37.45-5.627 54.14-11.692 23.43-8.504 57.23-24.445 55.4-46.175a13.968 13.968 0 00-.75-3.629c-7.03-19.982-40.78-30.35-63.66-38.436-14.49-5.005-29.52-9.368-45.02-13.067-159.28-39.201-709.75-98.114-882.83-115.418-176.89-17.588-358.24-30.168-541.28-27.669-101.942 1.394-197.673 9.721-300.219 39.25-86.205 24.851-170.272 56.311-254.413 85.901-104.306 36.687-215.482 76.005-325.517 84.195-58.455 4.351-116.048-2.745-163.01-21.171-47.417-18.547-70.021-56.078-80.149-93.919-24.078-89.929-3.13-193.05-4.463-289.352-.631-45.646-4.449-91.52-21.28-133.438-16.354-40.718-48.621-70.484-86.512-99.533-51.533-39.549-109.585-75.912-174.853-102.96-22.021-9.089-45.87-16.162-71.121-21.093-67.005-13.158-141.89-20.463-218.165-3.577-24.092 5.33-51.675 13.86-71.317 27.118-55.603 37.525 88.627 57.954 114.328 65.055z" fill="#00237C"/><path d="M-539.605-384.558c94.86 25.032 185.461 55.937 260.076 101.118 45.01 27.262 91.983 59.81 113.716 100.036 37.293 69.006 24.761 158.658 18.51 239.517-6.748 87.201-25.766 185.82 8.926 262.094 17.137 37.745 48.739 63.264 103.585 75.607 48.32 10.769 102.195 11.744 156.592 2.835 105-16.951 207.015-60.397 304.345-99.934 102.104-41.426 207.275-86.46 316.765-108.416 77.622-15.575 158.043-16.084 234.039-17.165 114.541-1.621 227.901 1.835 340.111 7.147 71.65 3.377 143.54 7.079 214.68 11.838 141.42 9.459 281.01 24.276 421.67 36.129 103.88 8.758 576.01 63.122 685.69 48.658 15.23-2.013 31.86-5.035 45.92-11.167 29.74-12.974 9.67-36.77-2.49-45.567a52.433 52.433 0 00-5.76-3.461c-34.41-18.642-81.58-26.998-124.79-33.836-20.15-3.208-41.14-5.909-61.85-8.434-196.72-23.998-762.01-81.053-965.95-89.476-188.46-7.79-379.86-12.941-572.482-4.085-95.429 4.391-184.031 11.99-277.994 43.679-76.828 25.912-150.215 59.411-223.687 91.206-91.94 39.789-190.447 82.498-291.696 94.871-54.549 6.69-110.26 2.041-155.273-13.469-50.013-17.224-72.146-53.517-80.38-92.276C-96.673 111.732-63.283 5.464-47.78-93.596c7.691-49.043 6.561-74.107-2.764-122.203-12.352-43.951-37.409-89.403-63.648-114.106-44.176-41.591-94.879-81.418-160.408-105.799-22.979-8.397-46.996-15.581-71.903-21.508-79.634-19.221-170.477-30.309-262.29-20.463-23.151 2.493-53.755 7.513-73.023 20.57-59.791 40.518 116.845 66.206 142.225 72.543" fill="#CD142B"/></g></svg>