<svg width="1440" height="585" fill="none" xmlns="http://www.w3.org/2000/svg"><mask id="a" maskUnits="userSpaceOnUse" x="0" y="0" width="1440" height="585"><path fill="#C4C4C4" d="M0 0h1440v585H0z"/></mask><g mask="url(#a)"><path d="M1715.49 243.377c-175.42 30.458-349.03 68.987-521.62 106.634-183.96 40.116-350.152 106.475-521.292 162.314-103.098 33.681-208.315 60.964-322.366 59.409-79.804-1.11-147.091-13.805-206.418-39.225C61.138 497.095 2.462 446.078-84.043 413.552c-20.022-7.528-42.935-14.081-69.35-13.83-21.954.223-44.333 5.094-65.716 7.975-19.038 2.563-31.693-.893-41.707-7.687-30.529-20.727-36.485-60.651-54.903-87.475-3.888-5.668-9.245-12.771-9.008-19.218.18-4.604 5.56-6.622 10.34-8.29 37.122-12.954 73.602-28.725 113.831-38.264 46.112-10.934 88.56-9.181 126.039 1.443C-10.31 266.445 36.08 304.535 86.86 334.118c50.166 29.178 101.658 58.155 161.524 81.415 50.642 19.703 107.439 34.436 171.152 40.436 79.855 7.496 164.302-4.973 242.999-23.354 193.539-45.238 372.014-119.269 566.894-166.504 96.97-23.504 196.41-43.925 294.88-64.22 84.33-17.383 170.12-34.259 255.71-44.935 24.1-3.01 55.89-7.635 77.56-1.55 10.51 2.955 15.25 8.284 18.86 13.749 5.35 8.116 7.12 17.711.12 26.667-23.14 29.642-113.32 40.403-161.02 47.534" fill="#00237C"/><path d="M1770.28 143.322c-95.78 13.955-190.3 32.655-284.15 52.19-61.66 12.838-123.21 26.094-184.74 39.281-93.86 20.107-184.29 45.774-273.68 72.98-97.002 29.523-193.854 60.775-292.646 87.007-112.111 29.768-226.737 51.401-341.059 36.884-90.869-11.565-166.097-40.198-232.955-72.838-41.549-20.293-80.204-42.262-118.396-64.439-35.628-20.683-68.48-44.077-113.142-59.199-60.075-20.337-126.467-14.803-197.841-7.858-26.447 2.574-50.676-.938-72.234-6.704-51.676-13.818-94.276-37.209-133.408-60.518-5.113-3.044-10.352-6.226-15.453-9.644-10.142-6.811-19.193-14.138-27.069-21.914-.612-.54-1.149-1.11-1.687-1.681-5.195-5.587-11.643-12.101-10.968-19.124.4-4.15 6.235-6.357 12.46-8.124 117.672-32.973 244.456-64.273 360.814-42.098C-86.7 70.696-41.794 103.877 6.083 132.9c54.868 33.327 110.237 66.642 168.799 97.683 71.856 38.093 150.388 75.558 244.453 97.782 98.51 23.265 199.574 16.431 308.128-4.109 139.048-26.309 272.867-67.319 407.467-103.957 134.12-36.509 271.51-65.267 409.55-93.562 82.99-17.008 167.73-34.034 251.5-44.087 24.41-2.93 49.53-5.068 73.49-3.052 17.32 1.432 36.12 4.296 48.63 10.641 7.94 4.063 13.11 12.66 8.01 19.317-9.58 12.523-40.9 17.233-61.05 20.657-31.31 5.311-63.22 9.063-94.8 13.092" fill="#CD142B"/><path d="M1814.6 69.938c-88.05 10.277-174.8 26.492-260.79 43.809-59.45 12.003-118.9 24.569-178.24 36.949-96.08 20.048-189.53 44.994-282.87 70.067-101.943 27.375-204.923 54.42-309.555 75.549-61.553 12.426-125.06 23.005-188.53 27.196-64.808 4.272-124.621-4.236-179.291-18.206-111.331-28.461-202.889-75.55-287.959-122.454-45.573-25.133-89.387-51.236-132.988-77.44-40.665-24.435-78.473-51.425-132.877-67.15-86.186-24.98-190.265-17.56-290.587-9.062-34.031 2.888-67.042 2.026-98.948-.989-69.997-6.617-132.698-18.168-189.43-40.048-7.258-2.667-14.117-5.628-20.535-8.864-10.867-5.778-21.194-12.313-26.499-20.644a16.06 16.06 0 01-.822-1.453c-3.18-6.332-.308-10.862 6.231-15.242 4.204-2.82 12.159-4.62 20.797-6.104 158.392-27.237 333.44-61.763 483.864-37.484 77.649 12.535 124.541 46.157 176.026 78.303C-14.51 16.601 49.58 56.607 116.487 94.766c85.612 48.837 176.502 98.272 285.595 131.905 52.1 16.05 111.405 27.224 175.591 25.901 54.958-1.141 111.833-8.079 166.21-16.427 140.016-21.507 276.697-55.286 413.077-87.612 130.58-30.963 262.53-57.195 395.19-82.972 74.36-14.446 150.12-29.227 224.86-37.493 23.1-2.56 46.59-3.971 69.63-3.241 28.18.894 60.27 1.869 82.86 9.054 9.12 2.905 23.23 7.606 23.01 14.34-.46 15.489-116.08 19.526-138.03 21.75" fill="#979797"/></g></svg>