<svg width="327" height="252" fill="none" xmlns="http://www.w3.org/2000/svg"><rect x="-300" width="600" height="180" rx="90" fill="#00237C"/><path d="M240.2 197v-21l41.4-37.5c2.6-2.5 4.7-5.05 6.3-7.65 1.6-2.6 2.4-5.5 2.4-8.7 0-3.8-1.2-6.85-3.6-9.15-2.4-2.4-5.6-3.6-9.6-3.6-4.2 0-7.65 1.5-10.35 4.5-2.6 2.9-4.15 6.75-4.65 11.55l-24.15-3.3c.6-5.4 2.05-10.2 4.35-14.4 2.4-4.2 5.4-7.75 9-10.65 3.6-3 7.7-5.25 12.3-6.75 4.7-1.6 9.65-2.4 14.85-2.4 4.9 0 9.65.65 14.25 1.95 4.6 1.3 8.7 3.3 12.3 6 3.6 2.7 6.45 6.1 8.55 10.2 2.2 4.1 3.3 8.9 3.3 14.4 0 3.8-.5 7.25-1.5 10.35-1 3-2.4 5.8-4.2 8.4-1.7 2.6-3.7 5.05-6 7.35-2.2 2.2-4.5 4.4-6.9 6.6l-24.6 21.9H317V197h-76.8z" fill="#CD142B"/><g clip-path="url(#clip0)"><path d="M142.38 12v113.034h-2.569c-7.094 0-12.845 5.751-12.845 12.845V24.845c0-7.094 5.751-12.845 12.845-12.845h2.569z" fill="#B49ACA"/><path d="M227.155 17.138v102.759a5.153 5.153 0 01-5.138 5.137h-79.638V12h79.638a5.154 5.154 0 015.138 5.138z" fill="#7D6599"/><path d="M219.448 150.724h-79.099a13.222 13.222 0 01-13.333-11.586 10.577 10.577 0 01-.051-1.259c0-7.094 5.751-12.844 12.845-12.844h79.638c-4.265 0-7.707 5.754-7.707 12.844 0 7.091 3.442 12.845 7.707 12.845z" fill="#F5EFCA"/><path d="M222.017 122.466h-79.638c-8.5.029-15.384 6.913-15.413 15.413-.008.503.012 1.006.061 1.506.985 8.005 7.826 13.993 15.892 13.908h81.667a2.569 2.569 0 002.569-2.569v-33.396a5.154 5.154 0 01-5.138 5.138zm-89.88 16.379a8.193 8.193 0 01-.034-.966c.023-5.665 4.61-10.253 10.276-10.276h72.484a18.475 18.475 0 000 20.552h-71.944a10.67 10.67 0 01-10.782-9.31z" fill="#5D4C72"/><path d="M152.655 137.879h25.69v20.552a2.569 2.569 0 01-3.889 2.204l-7.635-4.58a2.57 2.57 0 00-2.641 0l-7.635 4.58a2.569 2.569 0 01-3.89-2.204v-20.552z" fill="#E64C3C"/><path d="M169.636 59.834a40.627 40.627 0 00-1.567 11.252v13.256c-6.166-2.492-10.276-6.91-10.276-11.971 0-5.472 4.804-10.225 11.843-12.537zm31.829 12.537c0 5.06-4.11 9.48-10.276 11.971l.001-13.255a17.7 17.7 0 012.671-9.403c4.65 2.569 7.604 6.397 7.604 10.687z" fill="#3D324C"/><path d="M126.966 114.759v23.12a35.823 35.823 0 01-23.532-8.786 29.627 29.627 0 01-1.901-1.747 29.393 29.393 0 01-1.747-1.901 35.706 35.706 0 01-8.683-20.962 28.249 28.249 0 01-.103-2.569V67.233c0-6.385 5.176-11.56 11.56-11.56 6.385 0 11.561 5.175 11.561 11.56v34.681c-.007.863.08 1.724.257 2.569a13.21 13.21 0 001.849 4.521 13.701 13.701 0 003.648 3.648 13.076 13.076 0 007.091 2.107z" fill="#FF5364"/><path d="M114.378 104.483H91.103a28.249 28.249 0 01-.103-2.569v-2.57h23.121v2.57c-.006.863.08 1.724.257 2.569zM91 78.793h23.121v5.138H91v-5.138zm28.875 33.859l-16.441 16.441a29.897 29.897 0 01-1.901-1.747 29.62 29.62 0 01-1.747-1.901l16.442-16.441a13.683 13.683 0 003.647 3.648z" fill="#FB7B76"/><path d="M188.62 140.448h-43.672a2.569 2.569 0 110-5.137h43.672a2.569 2.569 0 110 5.137z" fill="#CBB292"/><path d="M240 41.543a11.544 11.544 0 01-11.56 11.56h-19.267c-.861-.01-1.721.06-2.569.206-.87.122-1.729.31-2.569.565a17.629 17.629 0 00-7.013 3.982 15.276 15.276 0 00-1.773 1.875c-.522.607-.987 1.26-1.387 1.953a.758.758 0 00-.103.206 17.248 17.248 0 00-2.389 6.627c-.126.85-.186 1.71-.18 2.57v13.255a32.045 32.045 0 01-23.121 0V71.086c0-.873.026-1.72.103-2.569a38.63 38.63 0 011.464-8.683 40.899 40.899 0 017.527-14.54 29.659 29.659 0 011.67-1.978c.437-.463.848-.874 1.259-1.31l.54-.54a40.968 40.968 0 0123.403-11.15 28.032 28.032 0 012.569-.256 42.842 42.842 0 012.569-.077h7.707a10.26 10.26 0 0019.883 3.57 11.412 11.412 0 013.237 7.99z" fill="#FF5364"/><path d="M237.431 29.983a9.715 9.715 0 01-.668 3.57 10.214 10.214 0 11.668-3.57z" fill="#fff"/><path d="M227.155 32.552a2.569 2.569 0 100-5.138 2.569 2.569 0 000 5.138z" fill="#2C2F38"/><path d="M197.021 57.856a15.345 15.345 0 00-1.772 1.876 12.84 12.84 0 00-1.388 1.952.754.754 0 00-.102.206l-16.596-16.596a29.608 29.608 0 011.67-1.978c.437-.463.848-.873 1.259-1.31l.539-.54 16.39 16.39zm-5.651 10.661c-.126.85-.186 1.71-.18 2.57v2.568h-23.121v-2.569c0-.873.026-1.721.103-2.569h23.198zm17.802-38.534v23.12c-.861-.01-1.721.06-2.569.206-.87.122-1.728.31-2.569.565V30.317a28.067 28.067 0 012.569-.257 42.892 42.892 0 012.569-.077z" fill="#FB7B76"/></g><defs><clipPath id="clip0"><path fill="#fff" transform="translate(91 12)" d="M0 0h149v149H0z"/></clipPath></defs></svg>