<svg width="1440" height="580" fill="none" xmlns="http://www.w3.org/2000/svg"><mask id="a" maskUnits="userSpaceOnUse" x="0" y="0" width="1440" height="580"><path fill="#C4C4C4" d="M0 0h1440v580H0z"/></mask><g mask="url(#a)"><path d="M115.7 538.773c143.597-19.101 287.462-28.323 430.354-38.25 152.303-10.595 296.203 14.605 441.771 26.129 87.705 6.992 175.715 5.941 264.605-31.133 62.19-25.968 112.16-61.438 153.24-109.137 57.23-66.452 92.43-143.499 153.28-207.808 14.08-14.885 30.63-29.537 51.34-37.419 17.22-6.533 35.75-7.832 53.08-11.121 15.43-2.931 24.6-10.835 31.01-21.775 19.53-33.373 15.82-81.305 24.61-117.97 1.85-7.746 4.55-17.603 3.02-24.972-1.11-5.26-5.74-5.926-9.83-6.373-31.75-3.472-63.59-10.394-97.06-8.961-38.36 1.641-71.19 16.795-98.28 40.654-46.4 40.917-74.7 99.24-108.22 149.101-33.13 49.202-67.33 98.583-109.28 143.955-35.48 38.412-76.82 72.989-125.4 99.624-60.89 33.356-129.56 45.084-194.967 48.208-160.866 7.643-315.982-22.614-478.319-16.86-80.771 2.859-162.838 10.048-244.114 17.077-69.599 6.016-140.247 13.074-209.433 27.225-19.48 3.98-45.313 8.473-60.986 22.201-7.606 6.664-10.191 14.281-11.87 21.707-2.487 11.025-1.864 22.65 5.492 30.823 24.315 27.062 97.106 11.59 135.911 5.067" fill="#00237C"/><path d="M51.872 440.213c77.843-13.517 155.7-21.169 233.199-27.647 50.923-4.253 101.843-7.989 152.737-11.799 77.634-5.822 153.745-4.163 229.362-.405 82.066 4.075 164.373 10.194 247.145 9.919 93.935-.315 188.125-10.799 274.505-62.921 68.65-41.461 121.49-97.787 166.95-156.149 28.24-36.281 53.88-73.6 79.1-111.017 23.53-34.897 44.33-72.067 76.09-103.34 42.73-42.063 95.82-56.21 153.11-70.272 21.22-5.21 39.44-16.759 55.09-30.084 37.53-31.937 65.95-72.118 91.67-111.133 3.36-5.095 6.79-10.39 10.06-15.913 6.51-11.001 12.05-22.259 16.58-33.672.37-.813.67-1.638.97-2.463 2.89-8.056 6.57-17.572 4.57-25.471-1.18-4.666-6.21-5.41-11.45-5.524-98.95-1.666-204.68 1.419-291.05 63.012-51.34 36.606-79.51 88.802-110.88 137.118-35.93 55.447-72.26 111.036-111.56 164.986-48.22 66.205-101.8 133.749-170.71 188.503-72.18 57.332-152.666 80.705-241.881 90.572-114.276 12.639-227.548 6.691-340.505 6.03-112.557-.662-226.052 8.639-339.959 18.675-68.478 6.037-138.332 12.595-205.956 26.9-19.71 4.169-39.807 9.472-58.13 19.212-13.243 7.009-27.347 16.131-35.801 27.326-5.365 7.148-7.606 18.672-2.22 24.779 10.116 11.494 35.602 7.243 52.08 4.963 25.604-3.554 51.349-9.092 76.895-14.21" fill="#CD142B"/><path d="M1.826 369.205c71.025-15.373 142.276-23.488 213.169-30.096 49.02-4.535 98.156-8.418 147.163-12.482 79.355-6.575 157.682-6.685 235.946-6.612 85.474.069 171.693-.564 257.963-8.537 50.751-4.695 102.643-12.128 153.163-26.922 51.59-15.116 96.59-43.44 136.43-76.479 81.12-67.297 142.86-149.98 199.57-230.444 30.38-43.112 59.18-86.8 87.79-130.539 26.69-40.788 50.61-83.643 89.87-118.625 62.17-55.498 145.14-79.129 225.39-100.351 27.23-7.192 52.87-18.399 77.19-31.749 53.37-29.292 99.99-62.023 139.78-104.831a186.95 186.95 0 0014.2-16.586c7.29-10.031 14-20.77 16.4-32.029.15-.659.25-1.307.34-1.931 1.16-8.295-2.03-12.636-8.07-15.67-3.88-1.954-10.48-1.571-17.54-.613-129.6 17.552-273.76 31.842-386.33 106.403-58.11 38.49-87.75 91.81-121.28 144.848-41.61 65.86-83.35 131.872-127.69 196.621-56.73 82.863-117.46 168.049-195.74 240.623-37.39 34.645-81.44 65.891-131.92 84.218-43.228 15.683-89.17 25.267-133.453 32.45-114.027 18.484-228.016 21.767-341.469 26.635-108.625 4.648-217.338 15.182-326.506 26.46-61.189 6.324-123.55 12.696-183.741 26.273-18.608 4.191-37.275 9.827-55.143 17.797-21.856 9.75-46.746 20.8-62.915 36.084-6.525 6.176-16.575 15.967-14.992 23.674 3.61 17.736 94.893-13.368 112.525-17.59" fill="#979797"/></g></svg>