<svg width="85" height="81" viewBox="0 0 85 81" fill="none" xmlns="http://www.w3.org/2000/svg">
<path d="M78.256 40.5002C78.256 20.702 62.2505 4.65771 42.5001 4.65771C22.7496 4.65771 6.74414 20.702 6.74414 40.5002H78.256Z" fill="#CD142B"/>
<path d="M6.74414 40.0483C6.74414 59.8466 22.7496 75.8908 42.5001 75.8908C62.2505 75.8908 78.256 59.8466 78.256 40.0483H6.74414Z" fill="#00237C"/>
<path d="M78.256 40.5002C78.256 60.2985 62.2505 76.3427 42.5001 76.3427C22.7496 76.3427 6.74414 60.2985 6.74414 40.5002C6.74414 20.7019 22.7496 4.65771 42.5001 4.65771C62.2505 4.65771 78.256 20.7019 78.256 40.5002Z" stroke="white" stroke-width="4" stroke-miterlimit="10"/>
<path d="M6.74414 40.5H26.9142" stroke="white" stroke-width="3" stroke-miterlimit="10"/>
<path d="M57.9922 40.0015H78.2554" stroke="white" stroke-width="3" stroke-miterlimit="10"/>
<path d="M24.1786 20.7485C24.5826 21.0912 24.8934 21.4806 25.1265 21.9167C25.3596 22.3529 25.4994 22.8202 25.5461 23.3342C25.5927 23.8483 25.5305 24.3312 25.3907 24.814C25.2508 25.2969 25.0022 25.7175 24.6914 26.1069C24.3651 26.4963 23.9766 26.7923 23.5415 27.026C23.1064 27.2596 22.6247 27.3842 22.1274 27.4154C21.6146 27.4621 21.1329 27.3998 20.6512 27.244C20.185 27.0883 19.7499 26.839 19.3459 26.5119C18.9419 26.1692 18.6311 25.7798 18.398 25.3437C18.1649 24.9075 18.025 24.4246 17.9784 23.9106C17.9318 23.4121 17.9784 22.9292 18.1183 22.4463C18.2581 21.9635 18.5068 21.5429 18.8175 21.1535C19.1439 20.764 19.5168 20.4681 19.9675 20.2344C20.4181 20.0008 20.8843 19.8762 21.3815 19.8294C21.8788 19.7983 22.376 19.845 22.8422 20.0008C23.3395 20.1721 23.7746 20.4213 24.1786 20.7485ZM23.3861 25.0165C23.728 24.6115 23.8523 24.1442 23.7746 23.6146C23.6813 23.085 23.4172 22.6177 22.9355 22.2283C22.4693 21.8388 21.972 21.6363 21.4281 21.6519C20.8843 21.6519 20.4492 21.8544 20.1228 22.2594C19.781 22.6644 19.6567 23.1317 19.7344 23.6613C19.8276 24.191 20.1073 24.6583 20.5735 25.0477C21.0552 25.4527 21.5525 25.6552 22.0808 25.6552C22.6091 25.6396 23.0442 25.4215 23.3861 25.0165Z" fill="white"/>
<path d="M28.2188 15.6858L28.2344 15.7014C28.4364 15.8416 28.5918 15.9662 28.7161 16.0908C28.6695 15.935 28.6539 15.7481 28.6384 15.5145C28.6384 15.4833 28.6384 15.4677 28.6384 15.4521L28.5452 13.5518L30.5186 12.4458L30.1923 16.6671L34.3102 18.7077L32.4144 19.767L30.3166 18.4585C30.2234 18.3962 30.1302 18.3339 30.0525 18.2716C29.9592 18.2093 29.8815 18.1314 29.8194 18.0535C29.8505 18.1625 29.8815 18.2871 29.8971 18.3806C29.9126 18.4741 29.9126 18.5831 29.9126 18.6921L29.9282 21.1689L28.0324 22.2281L28.4364 17.6018L24.6914 15.7325L26.6804 14.611L28.2188 15.6858Z" fill="white"/>
<path d="M36.3305 18.2405L34.9941 11.0596L39.2208 10.2651L39.5161 11.8384L37.123 12.2901L37.3561 13.5363L39.6093 13.1157L39.9045 14.6578L37.6514 15.0784L38.1797 17.8978L36.3305 18.2405Z" fill="white"/>
<path d="M50.7347 14.8603C50.6415 15.3743 50.4705 15.8416 50.2064 16.2622C49.9422 16.6828 49.6159 17.041 49.1963 17.337C48.7768 17.633 48.3261 17.8355 47.8444 17.9445C47.3627 18.0535 46.8654 18.0691 46.3837 17.9912C45.8864 17.9133 45.4358 17.7264 45.0162 17.4616C44.5967 17.1968 44.2393 16.8541 43.9596 16.4335C43.6643 16.013 43.4623 15.5612 43.3535 15.0783C43.2448 14.5955 43.2448 14.097 43.3225 13.583C43.4157 13.0689 43.5866 12.6016 43.8508 12.181C44.115 11.7605 44.4568 11.4022 44.8764 11.1062C45.2804 10.8103 45.731 10.6078 46.2128 10.4987C46.6945 10.3897 47.1917 10.3741 47.689 10.452C48.1863 10.5299 48.6369 10.7168 49.0565 10.9816C49.476 11.2464 49.8334 11.5891 50.1131 12.0097C50.3928 12.4303 50.5949 12.882 50.7036 13.3649C50.8124 13.8478 50.8124 14.3462 50.7347 14.8603ZM46.6634 16.3401C47.1917 16.4335 47.6579 16.3089 48.0619 15.9662C48.466 15.6235 48.7301 15.1562 48.8389 14.5332C48.9477 13.9257 48.8545 13.396 48.5747 12.9287C48.295 12.4614 47.9066 12.1966 47.3938 12.1032C46.8654 12.0097 46.3992 12.1343 45.9952 12.477C45.5912 12.8197 45.327 13.3026 45.2183 13.8945C45.1095 14.5176 45.2027 15.0472 45.4669 15.4989C45.731 15.9818 46.1351 16.2622 46.6634 16.3401Z" fill="white"/>
<path d="M52.4297 19.5959L56.2057 13.334L57.9151 14.3776C58.5833 14.7826 59.0339 15.0942 59.267 15.3278C59.5001 15.5459 59.6555 15.7951 59.7642 16.0599C59.873 16.3559 59.9196 16.683 59.873 17.0101C59.8264 17.3373 59.7176 17.6799 59.5156 17.9915C59.2204 18.4744 58.8785 18.8015 58.4589 18.9573C58.0549 19.1286 57.5887 19.1286 57.0915 18.9573L57.2158 22.4776L55.3666 21.3561L55.4599 18.0694L53.9836 20.5149L52.4297 19.5959ZM55.9571 17.2282L56.2679 17.4151C56.6253 17.6332 56.9205 17.7267 57.1536 17.6955C57.3867 17.6644 57.5887 17.5242 57.7597 17.2594C57.9461 16.9478 58.0083 16.683 57.9306 16.4494C57.8529 16.2313 57.6354 15.9976 57.278 15.7796L56.9516 15.5771L55.9571 17.2282Z" fill="white"/>
<path d="M58.8008 23.9261L64.4415 19.2998L65.3739 20.4369C66.0576 21.2781 66.5083 21.9167 66.7103 22.3373C66.9123 22.7579 67.0211 23.1785 67.0521 23.599C67.0832 24.1442 66.9745 24.6738 66.7414 25.1723C66.4927 25.6708 66.1198 26.1225 65.6225 26.5275C65.1253 26.9325 64.6125 27.2129 64.0686 27.3531C63.5403 27.4933 62.9964 27.4933 62.4681 27.3531C62.064 27.244 61.6756 27.0571 61.3337 26.7767C60.9763 26.5119 60.5101 26.0135 59.9352 25.2969L59.7331 25.0477L58.8008 23.9261ZM61.2715 24.3623L61.4735 24.6115C61.9553 25.1879 62.4214 25.515 62.8876 25.5929C63.3538 25.6552 63.8511 25.4683 64.3949 25.0321C64.9388 24.596 65.2185 24.1286 65.2496 23.6613C65.2807 23.194 65.0631 22.6644 64.5814 22.0725L64.3794 21.8233L61.2715 24.3623Z" fill="white"/>
<path d="M15.6641 54.0366L21.9886 50.4072L24.2418 54.3638L22.8588 55.1582L21.5845 52.9151L20.4812 53.5382L21.6778 55.6411L20.3259 56.4199L19.1293 54.317L18.0571 54.9245L19.3313 57.1676L17.9173 57.9776L15.6641 54.0366Z" fill="white"/>
<path d="M21.0879 62.0585L25.6254 56.3418L27.1482 57.5568L26.9928 62.2454C26.9928 62.3389 26.9617 62.5103 26.9151 62.7751C26.8685 63.0399 26.8064 63.3358 26.7131 63.6785C26.8685 63.4137 27.0084 63.1801 27.1482 62.9931C27.2881 62.7906 27.3969 62.6349 27.5212 62.4791L29.7588 59.6597L31.2817 60.8747L26.7442 66.5914L25.2213 65.3764L25.3767 60.6722C25.3767 60.5787 25.4078 60.4074 25.4544 60.1426C25.5011 59.8778 25.5632 59.5818 25.6409 59.2547C25.4855 59.5195 25.3301 59.7531 25.2058 59.9401C25.066 60.1426 24.9572 60.3139 24.8329 60.4541L22.5952 63.2735L21.0879 62.0585Z" fill="white"/>
<path d="M35.8802 67.308L36.2531 65.8126L40.1068 66.7628C40.0913 66.8096 40.0913 66.8719 40.0758 66.9186C40.0602 66.9809 40.0447 67.0588 40.0136 67.1834C39.7184 68.3984 39.159 69.2707 38.3354 69.7848C37.5118 70.2988 36.5173 70.4078 35.3363 70.1119C34.7458 69.9717 34.2641 69.7536 33.8445 69.4732C33.4405 69.1928 33.0986 68.819 32.8189 68.3828C32.5547 67.9623 32.3994 67.4949 32.3217 66.9809C32.244 66.4669 32.275 65.9684 32.3994 65.4544C32.5237 64.9248 32.7412 64.4574 33.0365 64.068C33.3317 63.663 33.7047 63.3359 34.1553 63.0711C34.6059 62.8219 35.0721 62.6505 35.5849 62.5882C36.0977 62.5259 36.626 62.5571 37.1544 62.6973C37.8537 62.8686 38.4441 63.1646 38.9259 63.5696C39.4076 63.9746 39.7494 64.5042 39.9981 65.1273L38.1023 65.5167C37.9624 65.1896 37.7915 64.9248 37.5739 64.7378C37.3564 64.5353 37.0922 64.4107 36.7659 64.3328C36.1754 64.1926 35.6781 64.2705 35.243 64.5665C34.8079 64.8624 34.5127 65.3609 34.3418 66.0307C34.1708 66.7005 34.2175 67.2769 34.4505 67.7442C34.6992 68.2115 35.1032 68.523 35.6937 68.6632C36.1909 68.7878 36.6416 68.7723 37.0301 68.6165C37.4185 68.4607 37.6983 68.1803 37.8537 67.7909L35.8802 67.308Z" fill="white"/>
<path d="M44.054 70.8284L43.2148 63.5696L45.2194 63.3359L45.8721 68.8969L48.3584 68.6009L48.5604 70.2988L44.054 70.8284Z" fill="white"/>
<path d="M52.6628 69.0528L49.959 62.2613L51.8548 61.498L54.5586 68.2896L52.6628 69.0528Z" fill="white"/>
<path d="M57.7599 63.9122C58.195 63.9901 58.5835 64.0057 58.9254 63.9589C59.2517 63.9122 59.5314 63.8032 59.7645 63.6162C59.982 63.4449 60.1063 63.258 60.1685 63.0399C60.2151 62.8218 60.184 62.6193 60.0442 62.448C59.8888 62.2611 59.7179 62.152 59.5314 62.1364C59.3294 62.1209 58.9875 62.2299 58.4747 62.4324C57.7755 62.7284 57.216 62.8374 56.7965 62.7751C56.3769 62.7128 55.9884 62.4636 55.6621 62.043C55.2426 61.4822 55.0716 60.8903 55.1804 60.2516C55.2892 59.613 55.6466 59.0678 56.2371 58.6005C56.5634 58.3513 56.9053 58.1643 57.2627 58.0241C57.6201 57.8839 57.993 57.8061 58.3815 57.7749L58.7544 59.3014C58.4592 59.2859 58.1795 59.317 57.9308 59.3793C57.6822 59.4416 57.4647 59.5507 57.2782 59.7064C57.0917 59.8622 56.9674 60.018 56.9208 60.2049C56.8742 60.3918 56.9053 60.5476 57.014 60.6878C57.1228 60.828 57.2627 60.9059 57.4336 60.9214C57.6045 60.937 57.8687 60.8591 58.2416 60.7034L58.3349 60.6722C59.1274 60.3451 59.7023 60.2049 60.0597 60.2516C60.3084 60.2828 60.5414 60.3762 60.7745 60.5164C60.9921 60.6566 61.2096 60.8591 61.3961 61.0928C61.8623 61.7003 62.0488 62.3545 61.9244 63.0399C61.8001 63.7253 61.3961 64.3328 60.7124 64.8624C60.3084 65.1739 59.8733 65.392 59.4382 65.5166C59.0031 65.6412 58.5058 65.6724 57.9775 65.6257L57.7599 63.9122Z" fill="white"/>
<path d="M66.1667 59.4261L59.9199 55.6409L60.9611 53.9119L63.3852 55.3761L64.7837 53.0707L62.3596 51.6065L63.4007 49.8774L69.6475 53.6626L68.6064 55.3917L66.0735 53.8496L64.6749 56.1549L67.2079 57.697L66.1667 59.4261Z" fill="white"/>
<mask id="mask0" mask-type="alpha" maskUnits="userSpaceOnUse" x="24" y="22" width="37" height="37">
<path d="M42.6701 58.6316C52.6254 58.6316 60.6957 50.5418 60.6957 40.5624C60.6957 30.583 52.6254 22.4932 42.6701 22.4932C32.7149 22.4932 24.6445 30.583 24.6445 40.5624C24.6445 50.5418 32.7149 58.6316 42.6701 58.6316Z" fill="white"/>
</mask>
<g mask="url(#mask0)">
<path d="M38.2567 22.9604H16.8125V34.4562H38.2567V22.9604Z" fill="#00237C"/>
<path d="M22.7019 22.9604H16.8125V26.5743L45.5291 45.5781L52.5218 42.6964L22.7019 22.9604Z" fill="white"/>
<path d="M16.8125 23.2563V25.7487L45.9176 45.0017L47.052 43.2727L16.8125 23.2563Z" fill="#CD142B"/>
<path d="M68.4657 22.9604H47.0215V34.4562H68.4657V22.9604Z" fill="#00237C"/>
<path d="M62.5914 22.9604H68.4808V26.5743L39.7486 45.5781L32.7715 42.6964L62.5914 22.9604Z" fill="white"/>
<path d="M68.4817 23.2563V25.7487L39.3766 45.0017L38.2422 43.2727L68.4817 23.2563Z" fill="#CD142B"/>
<path d="M68.4657 46.1235H47.0215V57.6193H68.4657V46.1235Z" fill="#00237C"/>
<path d="M62.5914 57.6347H68.4808V54.0053L39.7486 35.0015L32.7715 37.8832L62.5914 57.6347Z" fill="white"/>
<path d="M68.4817 57.323V54.8463L39.3766 35.5776L38.2422 37.3067L68.4817 57.323Z" fill="#CD142B"/>
<path d="M38.2567 46.1235H16.8125V57.6193H38.2567V46.1235Z" fill="#00237C"/>
<path d="M22.7019 57.6347H16.8125V54.0053L45.5291 35.0015L52.5218 37.8832L22.7019 57.6347Z" fill="white"/>
<path d="M16.8125 57.323V54.8463L45.9176 35.5776L47.052 37.3067L16.8125 57.323Z" fill="#CD142B"/>
<path d="M68.4807 34.4562H47.0675V22.9604H38.1324V34.4562H16.8125V45.8741H38.1324V57.6347H47.0675V45.8741H68.4807V34.4562Z" fill="white"/>
<path d="M68.4807 36.7928H45.1717V22.9604H40.0282V36.7928H16.8125V43.5376H40.0282V57.6347H45.1717V43.5376H68.4807V36.7928Z" fill="#CD142B"/>
</g>
<path d="M59.1957 40.5624C59.1957 49.7167 51.7936 57.1316 42.6701 57.1316C33.5467 57.1316 26.1445 49.7167 26.1445 40.5624C26.1445 31.408 33.5467 23.9932 42.6701 23.9932C51.7936 23.9932 59.1957 31.408 59.1957 40.5624Z" stroke="white" stroke-width="3"/>
</svg>
