<svg width="481" height="458" fill="none" xmlns="http://www.w3.org/2000/svg"><g opacity=".1"><path d="M442.837 229c0-111.946-90.572-202.665-202.336-202.665-111.765 0-202.337 90.719-202.337 202.665h404.673z" fill="#CD142B"/><path d="M38.164 226.446c0 111.946 90.572 202.665 202.337 202.665 111.764 0 202.336-90.719 202.336-202.665H38.164z" fill="#00237C"/><path d="M442.837 229c0 111.946-90.572 202.665-202.336 202.665-111.765 0-202.337-90.719-202.337-202.665S128.736 26.335 240.501 26.335c111.764 0 202.336 90.719 202.336 202.665z" stroke="#fff" stroke-width="4" stroke-miterlimit="10"/><path d="M38.164 229h114.139m175.865-2.819h114.666" stroke="#fff" stroke-width="3" stroke-miterlimit="10"/><path d="M136.823 117.318c2.287 1.938 4.045 4.14 5.364 6.606s2.111 5.109 2.375 8.015c.263 2.907-.088 5.637-.88 8.367-.791 2.731-2.198 5.109-3.957 7.311-1.846 2.202-4.045 3.875-6.507 5.196-2.462 1.322-5.188 2.026-8.002 2.202-2.902.265-5.628-.088-8.354-.969-2.638-.88-5.1-2.29-7.386-4.139-2.286-1.938-4.045-4.14-5.364-6.606s-2.111-5.196-2.374-8.103c-.264-2.818 0-5.549.791-8.279.791-2.731 2.198-5.109 3.957-7.311 1.847-2.202 3.957-3.875 6.507-5.196 2.55-1.321 5.188-2.026 8.002-2.29 2.814-.176 5.628.088 8.266.969 2.814.969 5.276 2.378 7.562 4.227zm-4.484 24.133c1.934-2.29 2.638-4.932 2.198-7.926-.528-2.995-2.022-5.637-4.748-7.839-2.638-2.202-5.452-3.347-8.53-3.259-3.078 0-5.54 1.145-7.386 3.435-1.935 2.29-2.639 4.932-2.199 7.927.528 2.994 2.111 5.637 4.749 7.839 2.726 2.29 5.539 3.435 8.529 3.435 2.99-.088 5.452-1.322 7.387-3.612zm27.347-52.758l.088.088c1.143.792 2.022 1.497 2.726 2.202-.264-.881-.352-1.938-.44-3.26v-.352l-.528-10.745 11.168-6.253-1.847 23.868 23.303 11.538-10.728 5.99-11.871-7.399c-.528-.352-1.055-.704-1.495-1.057a5.898 5.898 0 01-1.319-1.233c.176.617.352 1.321.44 1.85.088.528.088 1.145.088 1.761l.087 14.005-10.728 5.989 2.287-26.159-21.192-10.57 11.255-6.34 8.706 6.077zm45.904 14.445l-7.563-40.604 23.918-4.492 1.671 8.896-13.542 2.555 1.319 7.046 12.751-2.378 1.67 8.72-12.75 2.377 2.99 15.942-10.464 1.938zm81.511-19.113c-.528 2.906-1.495 5.549-2.99 7.927-1.495 2.378-3.341 4.404-5.716 6.077-2.374 1.673-4.924 2.818-7.65 3.435s-5.54.705-8.266.264c-2.814-.44-5.364-1.497-7.738-2.994a19.806 19.806 0 01-5.979-5.813c-1.671-2.379-2.814-4.933-3.43-7.663-.615-2.73-.615-5.549-.176-8.456.528-2.906 1.495-5.548 2.99-7.927 1.495-2.378 3.429-4.403 5.804-6.077a20.308 20.308 0 017.562-3.435 22.184 22.184 0 018.354-.264c2.814.44 5.364 1.497 7.738 2.995a19.806 19.806 0 015.979 5.813c1.583 2.378 2.726 4.932 3.342 7.662.616 2.73.616 5.55.176 8.456zm-23.039 8.367c2.99.529 5.628-.176 7.914-2.114 2.286-1.938 3.781-4.58 4.397-8.103.615-3.435.088-6.43-1.495-9.072-1.583-2.642-3.781-4.14-6.683-4.668-2.99-.528-5.628.176-7.914 2.114-2.286 1.938-3.781 4.668-4.397 8.015-.615 3.523-.088 6.518 1.407 9.072 1.495 2.73 3.781 4.316 6.771 4.756zm32.629 18.408l21.368-35.406 9.673 5.9c3.781 2.29 6.331 4.052 7.65 5.373 1.32 1.233 2.199 2.643 2.814 4.14.616 1.674.88 3.523.616 5.373s-.879 3.787-2.023 5.549c-1.67 2.73-3.605 4.58-5.979 5.46-2.286.969-4.924.969-7.738 0l.703 19.906-10.464-6.342.528-18.584-8.354 13.828-8.794-5.197zm19.962-13.387l1.758 1.057c2.023 1.233 3.693 1.761 5.012 1.585 1.319-.176 2.463-.969 3.43-2.466 1.055-1.762 1.407-3.259.967-4.58-.44-1.233-1.671-2.554-3.693-3.787l-1.847-1.145-5.627 9.336zm16.091 37.873l31.92-26.159 5.276 6.43c3.869 4.756 6.42 8.367 7.563 10.745 1.143 2.378 1.758 4.757 1.934 7.135.176 3.082-.439 6.077-1.758 8.895-1.407 2.819-3.518 5.373-6.332 7.663s-5.715 3.875-8.793 4.668c-2.99.793-6.068.793-9.057 0-2.287-.616-4.485-1.673-6.42-3.259-2.022-1.497-4.66-4.315-7.914-8.367l-1.143-1.409-5.276-6.342zm13.982 2.466l1.143 1.41c2.726 3.258 5.364 5.108 8.002 5.548 2.638.353 5.452-.704 8.529-3.17 3.078-2.466 4.661-5.109 4.837-7.751.176-2.642-1.055-5.637-3.781-8.984l-1.143-1.409-17.587 14.356zM88.64 305.538l35.79-20.522 12.75 22.372-7.826 4.492-7.21-12.683-6.244 3.523 6.771 11.89-7.65 4.404-6.771-11.891-6.068 3.435 7.211 12.684-8.002 4.58-12.75-22.284zm30.692 45.36l25.677-32.324 8.617 6.87-.879 26.511c0 .528-.176 1.497-.44 2.994a55.964 55.964 0 01-1.143 5.109c.88-1.497 1.671-2.819 2.462-3.875.792-1.145 1.407-2.026 2.111-2.907l12.662-15.942 8.618 6.87-25.677 32.324-8.617-6.87.879-26.599c0-.528.176-1.497.44-2.995.263-1.497.615-3.17 1.055-5.02-.88 1.497-1.759 2.819-2.462 3.875-.792 1.145-1.407 2.114-2.111 2.907l-12.662 15.942-8.53-6.87zm83.709 29.682l2.11-8.455 21.808 5.372c-.088.265-.088.617-.176.881-.088.352-.176.793-.352 1.497-1.671 6.87-4.836 11.803-9.497 14.709-4.66 2.907-10.288 3.523-16.971 1.85-3.342-.793-6.067-2.026-8.442-3.611-2.286-1.586-4.221-3.699-5.803-6.166-1.495-2.378-2.375-5.02-2.814-7.927-.44-2.906-.264-5.725.439-8.631.704-2.995 1.935-5.637 3.606-7.839 1.67-2.29 3.781-4.14 6.331-5.637 2.55-1.409 5.188-2.378 8.09-2.73a23.458 23.458 0 018.881.616c3.957.969 7.299 2.643 10.025 4.933s4.66 5.284 6.067 8.807l-10.728 2.202c-.791-1.849-1.758-3.347-2.989-4.404-1.232-1.145-2.726-1.849-4.573-2.29-3.342-.792-6.155-.352-8.618 1.322-2.462 1.673-4.133 4.491-5.1 8.279-.967 3.787-.703 7.046.616 9.688 1.407 2.643 3.693 4.404 7.034 5.197 2.814.704 5.364.616 7.563-.264 2.198-.881 3.781-2.467 4.66-4.669l-11.167-2.73zm46.254 19.906l-4.748-41.044 11.343-1.321 3.694 31.443 14.069-1.673 1.143 9.6-25.501 2.995zm48.715-10.042l-15.301-38.401 10.728-4.316 15.301 38.402-10.728 4.315zm28.844-29.065c2.462.44 4.661.528 6.595.264 1.847-.264 3.43-.881 4.749-1.937 1.231-.969 1.934-2.026 2.286-3.259.264-1.233.088-2.378-.704-3.347-.879-1.057-1.846-1.674-2.901-1.762-1.144-.088-3.078.529-5.98 1.674-3.957 1.673-7.123 2.29-9.497 1.937-2.374-.352-4.572-1.761-6.419-4.139-2.374-3.171-3.342-6.518-2.726-10.129.616-3.611 2.638-6.694 5.98-9.336a23.8 23.8 0 015.803-3.259c2.023-.793 4.133-1.233 6.331-1.409l2.111 8.631a15.817 15.817 0 00-4.661.441c-1.407.352-2.638.969-3.693 1.849-1.055.881-1.759 1.762-2.022 2.819-.264 1.057-.088 1.937.527 2.73.616.793 1.407 1.233 2.374 1.321.968.088 2.463-.352 4.573-1.233l.528-.176c4.484-1.85 7.738-2.642 9.76-2.378 1.407.176 2.726.705 4.045 1.497 1.231.793 2.462 1.938 3.518 3.259 2.638 3.435 3.693 7.134 2.989 11.01-.703 3.875-2.989 7.31-6.859 10.305-2.286 1.761-4.748 2.994-7.21 3.699-2.462.705-5.276.881-8.266.616l-1.231-9.688zm47.572-25.366l-35.35-21.403 5.892-9.776 13.717 8.279 7.915-13.035-13.718-8.28 5.891-9.776 35.35 21.403-5.892 9.776-14.333-8.719-7.914 13.035 14.333 8.72-5.891 9.776z" fill="#fff"/><mask id="a" maskUnits="userSpaceOnUse" x="139" y="127" width="205" height="205"><path d="M241.463 331.522c56.335 0 102.003-45.743 102.003-102.169 0-56.427-45.668-102.169-102.003-102.169s-102.004 45.742-102.004 102.169c0 56.426 45.669 102.169 102.004 102.169z" fill="#fff"/></mask><g mask="url(#a)"><path d="M216.488 129.826H95.138v65h121.35v-65z" fill="#00237C"/><path d="M128.466 129.826H95.139v20.434L257.64 257.713l39.57-16.294-168.745-111.593z" fill="#fff"/><path d="M95.139 131.499v14.092l164.7 108.863 6.42-9.776-171.12-113.179z" fill="#CD142B"/><path d="M387.435 129.826H266.086v65h121.349v-65z" fill="#00237C"/><path d="M354.193 129.826h33.327v20.434L224.93 257.713l-39.483-16.294 168.746-111.593z" fill="#fff"/><path d="M387.524 131.499v14.092L222.823 254.454l-6.419-9.776 171.12-113.179z" fill="#CD142B"/><path d="M387.435 260.796H266.086v65.001h121.349v-65.001z" fill="#00237C"/><path d="M354.193 325.885h33.327v-20.522L224.93 197.909l-39.483 16.294 168.746 111.682z" fill="#fff"/><path d="M387.524 324.124V310.12L222.823 201.168l-6.419 9.777 171.12 113.179z" fill="#CD142B"/><path d="M216.488 260.796H95.138v65.001h121.35v-65.001z" fill="#00237C"/><path d="M128.466 325.885H95.139v-20.522L257.64 197.909l39.57 16.294-168.745 111.682z" fill="#fff"/><path d="M95.139 324.124V310.12l164.7-108.952 6.42 9.777-171.12 113.179z" fill="#CD142B"/><path d="M387.52 194.826H266.347v-65h-50.563v65H95.139v64.561h120.645v66.498h50.563v-66.498H387.52v-64.561z" fill="#fff"/><path d="M387.52 208.038H255.619v-78.212h-29.107v78.212H95.139v38.137h131.373v79.71h29.107v-79.71H387.52v-38.137z" fill="#CD142B"/></g><path d="M341.966 229.353c0 55.6-44.999 100.669-100.503 100.669-55.505 0-100.504-45.069-100.504-100.669 0-55.601 44.999-100.669 100.504-100.669 55.504 0 100.503 45.068 100.503 100.669z" stroke="#fff" stroke-width="3"/></g></svg>