<svg width="21" height="21" fill="none" xmlns="http://www.w3.org/2000/svg"><g clip-path="url(#clip0)" fill="#CD142B"><path d="M10.35 10.116c1.39 0 2.594-.499 3.577-1.482.983-.983 1.482-2.186 1.482-3.576 0-1.39-.499-2.593-1.482-3.576C12.943.498 11.74 0 10.35 0 8.96 0 7.758.498 6.774 1.482c-.983.983-1.482 2.186-1.482 3.576 0 1.39.5 2.593 1.482 3.576.984.983 2.187 1.482 3.577 1.482zm8.85 6.032a12.49 12.49 0 00-.17-1.327 10.447 10.447 0 00-.326-1.334 6.59 6.59 0 00-.548-1.244 4.695 4.695 0 00-.827-1.078 3.644 3.644 0 00-1.188-.746 4.105 4.105 0 00-1.517-.275c-.214 0-.422.088-.822.349-.246.16-.535.346-.856.552-.275.175-.648.34-1.108.488a4.4 4.4 0 01-1.356.22c-.45 0-.905-.075-1.355-.22-.46-.148-.833-.313-1.107-.488-.319-.204-.607-.39-.857-.552-.4-.261-.608-.349-.822-.349-.546 0-1.056.092-1.517.275a3.643 3.643 0 00-1.188.746c-.312.299-.59.662-.827 1.078-.228.401-.412.82-.548 1.244a12.237 12.237 0 00-.496 2.662c-.028.401-.042.819-.042 1.24 0 1.096.348 1.983 1.035 2.638.679.646 1.577.973 2.669.973h10.112c1.092 0 1.99-.327 2.668-.973.688-.654 1.036-1.542 1.036-2.638 0-.424-.014-.84-.042-1.24z"/></g><defs><clipPath id="clip0"><path fill="#fff" d="M0 0h21v21H0z"/></clipPath></defs></svg>