<svg width="18" height="22" fill="none" xmlns="http://www.w3.org/2000/svg"><path d="M11 0H7a.6.6 0 00-.6.6v1.2a.6.6 0 00.6.6h4a.6.6 0 00.6-.6V.6A.6.6 0 0011 0zM9 13V6.2c-3.75 0-6.8 3.05-6.8 6.8s3.05 6.8 6.8 6.8 6.8-3.05 6.8-6.8H9z" fill="#00237C"/><path d="M15.58 6.868l.644-.644a.602.602 0 00-.423-1.027.6.6 0 00-.425.179l-.67.67A8.963 8.963 0 0010.2 4.08V3H7.8v1.08a8.963 8.963 0 00-4.506 1.965l-.67-.67a.6.6 0 10-.848.849l.643.643A8.966 8.966 0 000 13c0 4.963 4.037 9 9 9s9-4.037 9-9a8.966 8.966 0 00-2.42-6.132zM9 20.4A7.4 7.4 0 119 5.6a7.4 7.4 0 010 14.8z" fill="#00237C"/></svg>