<svg width="85" height="81" fill="none" xmlns="http://www.w3.org/2000/svg"><path d="M78.256 40.5c0-19.798-16.005-35.842-35.756-35.842-19.75 0-35.756 16.044-35.756 35.842h71.512z" fill="#CD142B"/><path d="M6.744 40.048c0 19.799 16.006 35.843 35.756 35.843s35.756-16.044 35.756-35.843H6.744z" fill="#00237C"/><path d="M78.256 40.5c0 19.798-16.005 35.843-35.756 35.843-19.75 0-35.756-16.045-35.756-35.843C6.744 20.702 22.75 4.658 42.5 4.658S78.256 20.702 78.256 40.5z" stroke="#fff" stroke-width="4" stroke-miterlimit="10"/><path d="M6.744 40.5h20.17m31.079-.498h20.263" stroke="#fff" stroke-width="3" stroke-miterlimit="10"/><path d="M24.18 20.748c.403.343.714.733.947 1.169.233.436.373.903.42 1.417.046.514-.016.997-.156 1.48s-.388.904-.7 1.293c-.325.39-.714.685-1.149.919a3.428 3.428 0 01-1.414.39 3.634 3.634 0 01-1.476-.172 4.182 4.182 0 01-1.306-.732 3.971 3.971 0 01-.948-1.168 3.738 3.738 0 01-.42-1.433 3.89 3.89 0 01.14-1.465c.14-.483.39-.903.7-1.293.326-.389.7-.685 1.15-.919.45-.233.917-.358 1.414-.405a3.86 3.86 0 011.46.172c.498.171.933.42 1.337.747zm-.793 4.268c.341-.404.466-.872.388-1.401-.093-.53-.357-.997-.84-1.387-.465-.39-.962-.592-1.506-.576-.544 0-.98.202-1.306.607-.341.405-.466.873-.388 1.402.093.53.373.997.839 1.387.482.405.979.607 1.507.607a1.712 1.712 0 001.306-.639zm4.833-9.33l.015.015c.202.14.357.265.482.39a2.665 2.665 0 01-.078-.577v-.062l-.093-1.9 1.973-1.106-.326 4.221 4.118 2.04-1.896 1.06-2.098-1.308c-.093-.063-.186-.125-.264-.187a1.044 1.044 0 01-.233-.218c.03.109.062.233.078.327.015.093.015.202.015.311l.016 2.477-1.896 1.06.404-4.627-3.745-1.87 1.989-1.121 1.538 1.075zm8.111 2.554l-1.336-7.18 4.226-.795.296 1.573-2.394.452.234 1.246 2.253-.42.295 1.542-2.253.42.528 2.82-1.849.343zm14.405-3.38a3.915 3.915 0 01-.529 1.402 3.772 3.772 0 01-2.362 1.682 3.846 3.846 0 01-1.46.047 3.58 3.58 0 01-1.368-.53 3.503 3.503 0 01-1.056-1.027 3.791 3.791 0 01-.606-1.356 4.02 4.02 0 01-.032-1.495c.094-.514.265-.981.529-1.402.264-.42.606-.779 1.025-1.075a3.59 3.59 0 011.337-.607 3.918 3.918 0 011.476-.047 3.58 3.58 0 011.367.53c.42.264.777.607 1.057 1.028.28.42.482.872.59 1.355.11.483.11.981.032 1.495zm-4.072 1.48c.529.093.995-.031 1.399-.374.404-.342.668-.81.777-1.433.109-.607.015-1.137-.264-1.604a1.658 1.658 0 00-1.181-.826 1.625 1.625 0 00-1.399.374c-.404.343-.668.826-.777 1.418-.108.623-.015 1.152.249 1.604.264.483.668.763 1.196.841zm5.766 3.256l3.776-6.262 1.71 1.044c.667.405 1.118.716 1.351.95.233.218.389.467.497.732.109.296.156.623.109.95a2.43 2.43 0 01-.357.981c-.296.483-.637.81-1.057.966-.404.172-.87.172-1.367 0l.124 3.52-1.85-1.12.094-3.288-1.476 2.446-1.554-.92zm3.527-2.368l.31.187c.358.218.653.312.887.28.233-.03.435-.17.606-.436.186-.311.248-.576.17-.81-.077-.218-.295-.451-.652-.67l-.326-.202-.995 1.651zm2.843 6.698l5.642-4.626.932 1.137c.684.841 1.134 1.48 1.336 1.9.202.42.311.841.342 1.262a3.246 3.246 0 01-.31 1.573c-.25.499-.622.95-1.12 1.355-.497.405-1.01.686-1.553.826a3.098 3.098 0 01-2.735-.576c-.358-.265-.824-.764-1.399-1.48l-.202-.25-.932-1.12zm2.472.436l.202.25c.481.576.947.903 1.414.98.466.063.963-.124 1.507-.56.544-.436.824-.903.855-1.37.03-.468-.187-.998-.669-1.59l-.202-.249-3.108 2.54zM15.664 54.037l6.324-3.63 2.253 3.957-1.383.794-1.274-2.243-1.103.623 1.196 2.103-1.352.779-1.196-2.103-1.072.608 1.274 2.243-1.414.81-2.253-3.941zm5.423 8.022l4.537-5.717 1.523 1.215-.155 4.688c0 .094-.031.265-.078.53a9.99 9.99 0 01-.202.904 7.67 7.67 0 01.435-.686 9.53 9.53 0 01.373-.514l2.238-2.82 1.523 1.216-4.538 5.716-1.523-1.215.156-4.704c0-.093.03-.265.077-.53.047-.264.11-.56.187-.887-.155.264-.31.498-.435.685-.14.203-.249.374-.373.514l-2.238 2.82-1.507-1.215zm14.793 5.249l.373-1.495 3.854.95c-.016.047-.016.109-.031.156-.016.062-.031.14-.062.264-.296 1.215-.855 2.088-1.679 2.602-.823.514-1.818.623-2.999.327a4.502 4.502 0 01-1.492-.639 3.822 3.822 0 01-1.025-1.09 3.6 3.6 0 01-.497-1.402 3.896 3.896 0 01.077-1.527c.125-.53.342-.997.637-1.386a3.636 3.636 0 011.12-.997c.45-.25.916-.42 1.429-.483a4.143 4.143 0 011.57.11c.699.17 1.29.467 1.77.872.483.405.824.934 1.073 1.557l-1.896.39c-.14-.327-.31-.592-.528-.78-.218-.202-.482-.326-.808-.404-.59-.14-1.088-.063-1.523.234-.435.295-.73.794-.901 1.464-.171.67-.124 1.246.108 1.713.25.468.653.779 1.244.92.497.124.948.108 1.336-.047.389-.156.668-.437.824-.826l-1.974-.483zm8.174 3.52l-.84-7.258 2.005-.234.653 5.56 2.486-.295.202 1.698-4.506.53zm8.609-1.775l-2.704-6.792 1.896-.763 2.704 6.792-1.896.763zm5.097-5.141a3.76 3.76 0 001.165.047c.326-.047.606-.156.839-.343.217-.171.342-.358.404-.576.047-.218.016-.42-.124-.592-.156-.187-.327-.296-.513-.312-.202-.015-.544.094-1.057.296-.699.296-1.258.405-1.678.343-.42-.062-.808-.311-1.134-.732-.42-.56-.59-1.153-.482-1.791.109-.639.466-1.184 1.057-1.652a4.2 4.2 0 011.025-.576c.358-.14.73-.218 1.119-.25l.373 1.527a2.799 2.799 0 00-.824.078 1.616 1.616 0 00-.652.327c-.187.156-.311.312-.358.499a.53.53 0 00.093.483c.11.14.25.218.42.233.171.016.435-.062.808-.218l.093-.03c.793-.328 1.368-.468 1.725-.421a1.8 1.8 0 01.715.264c.218.14.435.343.622.577.466.607.652 1.261.528 1.947-.124.685-.528 1.293-1.212 1.822a3.82 3.82 0 01-1.274.655c-.435.124-.933.155-1.461.109l-.218-1.714zm8.406-4.486l-6.247-3.785 1.042-1.73 2.424 1.465 1.398-2.305-2.424-1.465 1.041-1.729 6.247 3.786-1.041 1.729-2.533-1.542-1.398 2.305 2.532 1.542-1.04 1.73z" fill="#fff"/><mask id="a" maskUnits="userSpaceOnUse" x="24" y="22" width="37" height="37"><path d="M42.671 58.632c9.955 0 18.026-8.09 18.026-18.07 0-9.979-8.07-18.069-18.026-18.069-9.955 0-18.026 8.09-18.026 18.07 0 9.979 8.07 18.069 18.026 18.069z" fill="#fff"/></mask><g mask="url(#a)"><path d="M38.258 22.96H16.813v11.496h21.445V22.96z" fill="#00237C"/><path d="M22.703 22.96h-5.89v3.614L45.53 45.578l6.993-2.882-29.82-19.736z" fill="#fff"/><path d="M16.814 23.256v2.493l29.105 19.253 1.134-1.73-30.24-20.016z" fill="#CD142B"/><path d="M68.466 22.96H47.022v11.496h21.444V22.96z" fill="#00237C"/><path d="M62.592 22.96h5.89v3.614L39.75 45.578l-6.977-2.882 29.82-19.736z" fill="#fff"/><path d="M68.482 23.256v2.493L39.377 45.002l-1.135-1.73 30.24-20.016z" fill="#CD142B"/><path d="M68.466 46.123H47.022V57.62h21.444V46.124z" fill="#00237C"/><path d="M62.592 57.635h5.89v-3.63L39.75 35.001l-6.977 2.882 29.82 19.752z" fill="#fff"/><path d="M68.482 57.323v-2.477L39.377 35.578l-1.135 1.729 30.24 20.016z" fill="#CD142B"/><path d="M38.258 46.123H16.813V57.62h21.445V46.124z" fill="#00237C"/><path d="M22.703 57.635h-5.89v-3.63L45.53 35.001l6.993 2.882-29.82 19.752z" fill="#fff"/><path d="M16.814 57.323v-2.477l29.105-19.268 1.134 1.729-30.24 20.016z" fill="#CD142B"/><path d="M68.482 34.456H47.069V22.96h-8.936v11.496h-21.32v11.418h21.32v11.76h8.935v-11.76h21.414V34.456z" fill="#fff"/><path d="M68.482 36.793h-23.31V22.96H40.03v13.833H16.813v6.745H40.03v14.097h5.144V43.538h23.309v-6.745z" fill="#CD142B"/></g><path d="M59.197 40.562c0 9.155-7.403 16.57-16.526 16.57-9.123 0-16.526-7.415-16.526-16.57 0-9.154 7.403-16.569 16.526-16.569 9.123 0 16.526 7.415 16.526 16.57z" stroke="#fff" stroke-width="3"/></svg>