<svg width="91" height="91" fill="none" xmlns="http://www.w3.org/2000/svg"><path d="M45.5 0C20.41 0 0 20.412 0 45.5S20.41 91 45.5 91 91 70.588 91 45.5 70.59 0 45.5 0zm0 87.208c-22.998 0-41.708-18.71-41.708-41.708 0-22.998 18.71-41.708 41.708-41.708 22.998 0 41.708 18.71 41.708 41.708 0 22.998-18.71 41.708-41.708 41.708z" fill="#fff"/><path d="M63.588 43.906L37.047 26.843a1.891 1.891 0 00-1.933-.07c-.611.333-.989.97-.989 1.664v34.125a1.893 1.893 0 001.896 1.896c.355 0 .715-.1 1.026-.302l26.541-17.062a1.9 1.9 0 00.87-1.594 1.9 1.9 0 00-.87-1.594zM37.917 59.089V31.911L59.056 45.5l-21.14 13.589z" fill="#fff"/></svg>