<svg width="1440" height="1580" fill="none" xmlns="http://www.w3.org/2000/svg"><path d="M-225.168 1021.22c214.084-28.763 424.856-71.431 634.49-112.736 223.445-44.007 421.38-134.779 626.838-207.089 123.77-43.633 251-76.152 392.97-58.674 99.34 12.269 184.63 42.53 261.68 93.312 107.35 70.746 186.93 164.802 298.69 231.157 25.86 15.358 55.2 29.44 88 32.453 27.26 2.477 54.44-2.858 80.65-4.954 23.33-1.863 39.51 5.641 52.84 18.451 40.64 39.08 53.24 107.48 79.63 155.32 5.57 10.11 13.15 22.83 13.7 33.72.37 7.78-6.05 10.5-11.78 12.7-44.45 17.11-87.74 39.08-136.51 50-55.89 12.52-108.88 4.02-156.85-18.85-82.18-39.25-144.81-109.81-211.78-166.53-66.15-55.96-133.93-111.743-211.37-158.936-65.51-39.966-138.03-72.315-218-90.771-100.24-23.092-203.58-12.963-299.01 7.929-234.682 51.437-446.888 153.607-682.981 208.248-117.467 27.2-238.422 48.84-358.178 70.4-102.549 18.47-207 35.89-312 42.83-29.563 1.97-68.47 5.66-96.196-7.47-13.456-6.37-20.032-16.01-25.231-25.74-7.712-14.44-11.166-30.93-3.626-45.19 24.909-47.19 135.597-53.68 193.96-59.55" fill="#979797"/><path d="M-280.256 1183.57c117.238-11.17 232.3-30.55 346.406-51.42 74.975-13.72 149.754-28.16 224.522-42.49 114.055-21.84 223.115-53.55 330.678-88 116.736-37.383 233.055-77.714 352.439-109.289 135.481-35.831 275.141-57.555 419.131-18.085 114.46 31.419 211.69 89.712 299.05 153.704 54.28 39.78 105.19 82.03 155.55 124.56 46.98 39.67 90.86 83.58 148.34 115.01 77.32 42.27 159.13 41.53 246.94 39.06 32.54-.92 63.11 8.18 90.66 20.76 66.03 30.13 122.03 75.3 173.71 119.87 6.75 5.82 13.67 11.9 20.46 18.35 13.49 12.86 25.69 26.45 36.5 40.64.83 1 1.57 2.03 2.31 3.07 7.19 10.14 16.05 22.02 16.13 33.82.04 6.98-6.93 9.96-14.44 12.14-141.97 40.54-295.49 77.05-443.01 24.35-87.7-31.32-147.83-93.37-211.12-148.76-72.54-63.6-145.7-127.24-222.53-187.44-94.28-73.88-196.77-147.56-316.58-197.45-125.48-52.234-250.21-53.813-382.474-33.15-169.412 26.47-330.416 78.51-492.948 123.06-161.954 44.38-328.991 75.21-496.895 105.17-100.942 18.01-204.061 35.82-306.869 41.95-29.962 1.78-60.91 2.13-90.961-4.4-21.708-4.68-45.448-11.98-61.822-24.36-10.406-7.91-17.95-23.15-12.475-33.76 10.274-19.96 48.593-23.87 73.193-27.04 38.226-4.92 77.401-7.13 116.13-9.84" fill="#00237C"/></svg>