<svg width="1440" height="1580" viewBox="0 0 1440 1580" fill="none" xmlns="http://www.w3.org/2000/svg">
<path d="M-225.168 1021.22C-11.0839 992.457 199.688 949.789 409.322 908.484C632.767 864.477 830.702 773.705 1036.16 701.395C1159.93 657.762 1287.16 625.243 1429.13 642.721C1528.47 654.99 1613.76 685.251 1690.81 736.033C1798.16 806.779 1877.74 900.835 1989.5 967.19C2015.36 982.548 2044.7 996.63 2077.5 999.643C2104.76 1002.12 2131.94 996.785 2158.15 994.689C2181.48 992.826 2197.66 1000.33 2210.99 1013.14C2251.63 1052.22 2264.23 1120.62 2290.62 1168.46C2296.19 1178.57 2303.77 1191.29 2304.32 1202.18C2304.69 1209.96 2298.27 1212.68 2292.54 1214.88C2248.09 1231.99 2204.8 1253.96 2156.03 1264.88C2100.14 1277.4 2047.15 1268.9 1999.18 1246.03C1917 1206.78 1854.37 1136.22 1787.4 1079.5C1721.25 1023.54 1653.47 967.757 1576.03 920.564C1510.52 880.598 1438 848.249 1358.03 829.793C1257.79 806.701 1154.45 816.83 1059.02 837.722C824.338 889.159 612.132 991.329 376.039 1045.97C258.572 1073.17 137.617 1094.81 17.8612 1116.37C-84.6879 1134.84 -189.139 1152.26 -294.139 1159.2C-323.702 1161.17 -362.609 1164.86 -390.335 1151.73C-403.791 1145.36 -410.367 1135.72 -415.566 1125.99C-423.278 1111.55 -426.732 1095.06 -419.192 1080.8C-394.283 1033.61 -283.595 1027.12 -225.232 1021.25" fill="#979797"/>
<path d="M-280.256 1183.57C-163.018 1172.4 -47.9563 1153.02 66.1497 1132.15C141.125 1118.43 215.904 1103.99 290.672 1089.66C404.727 1067.82 513.787 1036.11 621.35 1001.66C738.086 964.277 854.405 923.946 973.789 892.371C1109.27 856.54 1248.93 834.816 1392.92 874.286C1507.38 905.705 1604.61 963.998 1691.97 1027.99C1746.25 1067.77 1797.16 1110.02 1847.52 1152.55C1894.5 1192.22 1938.38 1236.13 1995.86 1267.56C2073.18 1309.83 2154.99 1309.09 2242.8 1306.62C2275.34 1305.7 2305.91 1314.8 2333.46 1327.38C2399.49 1357.51 2455.49 1402.68 2507.17 1447.25C2513.92 1453.07 2520.84 1459.15 2527.63 1465.6C2541.12 1478.46 2553.32 1492.05 2564.13 1506.24C2564.96 1507.24 2565.7 1508.27 2566.44 1509.31C2573.63 1519.45 2582.49 1531.33 2582.57 1543.13C2582.61 1550.11 2575.64 1553.09 2568.13 1555.27C2426.16 1595.81 2272.64 1632.32 2125.12 1579.62C2037.42 1548.3 1977.29 1486.25 1914 1430.86C1841.46 1367.26 1768.3 1303.62 1691.47 1243.42C1597.19 1169.54 1494.7 1095.86 1374.89 1045.97C1249.41 993.736 1124.68 992.157 992.416 1012.82C823.004 1039.29 662 1091.33 499.468 1135.88C337.514 1180.26 170.477 1211.09 2.57264 1241.05C-98.3695 1259.06 -201.488 1276.87 -304.296 1283C-334.258 1284.78 -365.206 1285.13 -395.257 1278.6C-416.965 1273.92 -440.705 1266.62 -457.079 1254.24C-467.485 1246.33 -475.029 1231.09 -469.554 1220.48C-459.28 1200.52 -420.961 1196.61 -396.361 1193.44C-358.135 1188.52 -318.96 1186.31 -280.231 1183.6" fill="#00237C"/>
</svg>
