<svg width="1440" height="449" viewBox="0 0 1440 449" fill="none" xmlns="http://www.w3.org/2000/svg">
<mask id="mask0" mask-type="alpha" maskUnits="userSpaceOnUse" x="0" y="0" width="1440" height="449">
<path d="M0 0H1440V449H0V0Z" fill="#C4C4C4"/>
</mask>
<g mask="url(#mask0)">
<path d="M-225.168 383.216C-11.0839 354.457 199.688 311.789 409.322 270.484C632.767 226.477 830.702 135.705 1036.16 63.3951C1159.93 19.7617 1287.16 -12.7573 1429.13 4.72111C1528.47 16.9896 1613.76 47.2514 1690.81 98.0331C1798.16 168.779 1877.74 262.835 1989.5 329.19C2015.36 344.548 2044.7 358.63 2077.5 361.643C2104.76 364.123 2131.94 358.785 2158.15 356.689C2181.48 354.826 2197.66 362.327 2210.99 375.138C2251.63 414.221 2264.23 482.624 2290.62 530.459C2296.19 540.566 2303.77 553.295 2304.32 564.184C2304.69 571.959 2298.27 574.677 2292.54 576.881C2248.09 593.992 2204.8 615.958 2156.03 626.879C2100.14 639.398 2047.15 630.904 1999.18 608.029C1917 568.777 1854.37 498.219 1787.4 441.498C1721.25 385.544 1653.47 329.757 1576.03 282.564C1510.52 242.598 1438 210.249 1358.03 191.793C1257.79 168.701 1154.45 178.83 1059.02 199.722C824.338 251.159 612.132 353.329 376.039 407.973C258.572 435.167 137.617 456.812 17.8612 478.373C-84.6879 496.843 -189.139 514.261 -294.139 521.205C-323.702 523.167 -362.609 526.864 -390.335 513.735C-403.791 507.362 -410.367 497.718 -415.566 487.991C-423.278 473.547 -426.732 457.064 -419.192 442.804C-394.283 395.606 -283.595 389.115 -225.232 383.245" fill="#979797"/>
<path d="M-280.256 545.568C-163.018 534.396 -47.9563 515.024 66.1497 494.15C141.125 480.429 215.904 465.986 290.672 451.658C404.727 429.816 513.787 398.108 621.35 363.66C738.086 326.277 854.405 285.946 973.789 254.371C1109.27 218.54 1248.93 196.816 1392.92 236.286C1507.38 267.705 1604.61 325.998 1691.97 389.988C1746.25 429.771 1797.16 472.016 1847.52 514.553C1894.5 554.224 1938.38 598.127 1995.86 629.556C2073.18 671.825 2154.99 671.093 2242.8 668.619C2275.34 667.702 2305.91 676.805 2333.46 689.378C2399.49 719.509 2455.49 764.676 2507.17 809.253C2513.92 815.075 2520.84 821.147 2527.63 827.6C2541.12 840.458 2553.32 854.046 2564.13 868.243C2564.96 869.238 2565.7 870.274 2566.44 871.311C2573.63 881.45 2582.49 893.325 2582.57 905.133C2582.61 912.11 2575.64 915.09 2568.13 917.272C2426.16 957.808 2272.64 994.325 2125.12 941.617C2037.42 910.299 1977.29 848.25 1914 792.855C1841.46 729.261 1768.3 665.622 1691.47 605.419C1597.19 531.54 1494.7 457.856 1374.89 407.967C1249.41 355.736 1124.68 354.157 992.416 374.82C823.004 401.287 662 453.335 499.468 497.876C337.514 542.262 170.477 573.091 2.57264 603.052C-98.3695 621.06 -201.488 638.87 -304.296 644.996C-334.258 646.781 -365.206 647.132 -395.257 640.598C-416.965 635.919 -440.705 628.621 -457.079 616.244C-467.485 608.328 -475.029 593.093 -469.554 582.48C-459.28 562.516 -420.961 558.613 -396.361 555.436C-358.135 550.515 -318.96 548.312 -280.231 545.598" fill="#00237C"/>
</g>
</svg>
