<svg width="174" height="174" viewBox="0 0 174 174" fill="none" xmlns="http://www.w3.org/2000/svg">
<circle cx="87" cy="87" r="87" fill="#CD142B"/>
<circle cx="87" cy="87" r="73.5" stroke="white" stroke-width="5" stroke-dasharray="15 15"/>
<path d="M58.2781 136.572C57.7059 135.999 57.7059 135.072 58.2781 134.499C60.4235 132.354 60.4235 128.864 58.2781 126.718C54.9906 123.43 54.9906 118.081 58.2781 114.793C60.4235 112.647 60.4235 109.157 58.2781 107.011C57.7059 106.439 57.7059 105.512 58.2781 104.939C58.8503 104.368 59.7781 104.368 60.3495 104.939C63.6378 108.228 63.6378 113.577 60.3495 116.865C58.2041 119.01 58.2041 122.501 60.3495 124.646C63.6378 127.934 63.6378 133.284 60.3495 136.572C59.7781 137.143 58.8503 137.143 58.2781 136.572Z" fill="#BDBDBD"/>
<path d="M75.3354 84.2458C69.8224 78.3383 65.9642 68.5468 66.3236 59.94C66.3495 59.2999 65.9574 58.717 65.3539 58.5004C63.4381 57.8137 61.4064 57.4658 59.3145 57.4658C49.4069 57.4658 41.4922 65.2234 41.4922 76.8117C41.4922 88.2436 49.719 101.912 59.3145 101.912C66.9362 101.912 73.1298 93.5071 75.6589 85.6969C75.8222 85.1903 75.6986 84.6349 75.3354 84.2458Z" fill="#FFCA28"/>
<path d="M75.3349 84.2459C69.8219 78.3385 65.9637 68.5469 66.3231 59.9402C66.349 59.3001 65.9568 58.7172 65.3534 58.5005C62.8746 57.6125 60.2005 57.2959 57.5416 57.5514C57.8026 63.0522 59.6664 69.0062 62.5671 73.9569C65.7539 79.3959 65.3251 86.2746 61.2671 91.0987C58.242 94.6936 54.1275 97.4784 49.4453 96.9687C52.4658 100.149 55.9265 101.913 59.3139 101.913C66.9357 101.913 73.1292 93.5065 75.6576 85.697C75.8217 85.1905 75.6981 84.635 75.3349 84.2459Z" fill="#FFA000"/>
<path d="M85.2364 136.571C84.6642 135.999 84.6642 135.072 85.2364 134.499C87.2376 132.498 87.2376 129.26 85.2364 127.259C82.1106 124.133 82.0977 119.056 85.1967 115.914C83.0735 115.687 81.4141 113.884 81.4141 111.702C81.4141 109.366 83.3153 107.465 85.6514 107.465C86.6516 107.465 87.5725 107.813 88.2981 108.395C88.2798 106.851 87.6694 105.402 86.5761 104.308C84.9114 102.644 83.9951 100.432 83.9951 98.0781C83.9951 97.2686 84.6512 96.6133 85.4599 96.6133C86.2686 96.6133 86.9248 97.2686 86.9248 98.0781C86.9248 99.649 87.5367 101.126 88.6475 102.237C91.697 105.286 92.0288 109.982 89.7324 113.383C89.4051 115.101 88.5727 116.682 87.3078 117.946C85.3112 119.942 85.3112 123.191 87.3078 125.187C90.4465 128.326 90.4465 133.433 87.3078 136.571C86.7356 137.143 85.8078 137.143 85.2364 136.571ZM85.6514 110.394C84.8458 110.394 84.2087 111.127 84.3689 111.961C84.4712 112.489 84.9068 112.908 85.4386 112.992C86.2641 113.122 86.9599 112.482 86.9583 111.71C86.9583 111.708 86.9583 111.706 86.9583 111.704C86.9583 110.981 86.3724 110.394 85.6514 110.394Z" fill="#BDBDBD"/>
<path d="M113.578 137C112.77 137 112.113 136.344 112.113 135.535C112.113 134.22 111.602 132.984 110.672 132.054C107.959 129.341 107.666 125.176 109.684 122.154C109.98 120.639 110.719 119.245 111.837 118.127C113.497 116.466 113.497 113.764 111.837 112.103C109.027 109.293 109.027 104.745 111.837 101.935C112.409 101.363 113.336 101.363 113.908 101.935C114.48 102.507 114.48 103.434 113.908 104.006C112.243 105.671 112.243 108.366 113.908 110.031C116.642 112.764 116.693 117.097 114.194 119.895C115.957 120.259 117.286 121.822 117.286 123.691C117.286 126.75 113.887 128.601 111.322 126.953C111.425 128.098 111.92 129.16 112.744 129.983C114.226 131.466 115.043 133.438 115.043 135.535C115.043 136.344 114.387 137 113.578 137ZM112.467 123.635C112.461 124.333 113.043 124.735 113.615 124.615C113.98 124.539 114.271 124.239 114.34 123.873C114.462 123.225 113.916 122.663 113.272 122.756C112.895 122.811 112.471 123.155 112.467 123.635Z" fill="#BDBDBD"/>
<path d="M112.832 49.6816C109.844 49.6816 107.012 50.3172 104.413 51.5714C103.754 51.8888 103.431 52.6441 103.655 53.3399C104.431 55.747 104.825 58.3654 104.825 61.1227C104.825 68.6216 101.666 77.2566 96.7768 83.122C96.4144 83.5569 96.335 84.1627 96.5738 84.6769C100.49 93.1089 106.719 98.3473 112.831 98.3473C123.313 98.3473 132.316 83.357 132.316 70.8441C132.316 58.209 123.708 49.6816 112.832 49.6816Z" fill="#42A5F5"/>
<path d="M117.457 50.2227C117.588 50.3531 117.718 50.4843 117.846 50.6194C121.509 54.4722 123.527 59.9211 123.527 65.9613C123.527 72.0282 121.387 78.8741 117.803 84.2742C113.927 90.1145 108.912 93.4645 104.042 93.4645C103.508 93.4645 102.972 93.4218 102.438 93.3432C105.615 96.5399 109.243 98.3474 112.831 98.3474C123.312 98.3474 132.316 83.3571 132.316 70.8441C132.316 60.0157 126.028 52.2773 117.457 50.2227Z" fill="#1976D2"/>
<path d="M85.5615 37C73.0638 37 63.3691 46.8312 63.3691 61.1226C63.3691 75.4415 73.6734 92.5382 85.5615 92.5382C97.471 92.5382 107.754 75.4109 107.754 61.1226C107.754 46.8412 98.0692 37 85.5615 37V37Z" fill="#EF5350"/>
<path d="M91.5286 37.7949C96.5655 42.4633 98.9657 49.223 98.9657 56.2397C98.9657 71.4352 87.3042 89.9533 74.3594 87.415C90.951 103.104 107.755 79.2088 107.755 61.1226C107.755 48.9842 100.858 40.3592 91.5286 37.7949Z" fill="#D32F2F"/>
<path d="M57.5573 106.561C56.6647 106.561 56.0116 105.72 56.2328 104.854L57.0644 101.608C57.3276 100.579 58.2531 99.8613 59.3143 99.8613C60.3756 99.8613 61.301 100.579 61.5642 101.608L62.3959 104.854C62.6171 105.719 61.9648 106.561 61.0714 106.561H57.5573Z" fill="#FFA000"/>
<path d="M83.0673 98.6637C82.1739 98.6637 81.5208 97.8222 81.7429 96.957L82.8636 92.5823C83.1795 91.3494 84.2888 90.4873 85.5621 90.4873C86.8355 90.4873 87.9455 91.3487 88.2614 92.5823L89.3822 96.957C89.6034 97.8222 88.9503 98.6637 88.0577 98.6637H83.0673Z" fill="#D32F2F"/>
<path d="M110.792 103.557C109.899 103.557 109.246 102.716 109.467 101.851L110.409 98.1747C110.692 97.0685 111.688 96.2964 112.83 96.2964C113.972 96.2964 114.967 97.0685 115.25 98.1747L116.192 101.85C116.414 102.715 115.761 103.557 114.867 103.557H110.792Z" fill="#1976D2"/>
</svg>
