<svg width="1440" height="1733" fill="none" xmlns="http://www.w3.org/2000/svg"><mask id="a" maskUnits="userSpaceOnUse" x="-864" y="0" width="3072" height="1733"><path fill="#C4C4C4" d="M-864 0h3072v1733H-864z"/></mask><g mask="url(#a)"><path d="M-505.847 135.991c47.717 45.893 85.812 95.792 117.718 147.918 22.883 37.407 42.019 76.72 62.4 114.533 34.267 63.517 51.159 132.615 71.082 199.799 22.449 75.712 46.742 152.517 85.132 224.427 21.344 39.948 45.814 78.896 86.142 111.4 43.91 35.383 99.357 59.486 160.653 76.032 126.165 34 263.806 45.01 396.866 55.51 69.742 5.53 139.614 10.24 209.345 15.85 58.736 4.74 122.852 6.51 178.803 21.17 110.717 28.98 198.246 99.84 272.696 162.51 25.13 21.17 50.96 41.98 76.72 62.67C1272.94 1376.93 1333 1429 1362 1503c13.79 35.19 75.97 198.92 86 199 41.5 34.5 98.96-36.09 107-61.5 37-117 11-180.5 0-197.5-17-18-19.33-18.66-34-34-14.67-15.34-15.76-11.87-22-18-68.3-67.2-173.23-127.79-260.96-183-92.48-58.28-192.17-113.23-299.812-154.59-36.698-14.08-75.511-27.39-116.297-34.92-37.978-6.99-78.941-8.13-117.929-9.98-89.196-4.23-178.85-4.44-267.988-6.78-112.314-2.883-230.244-6.355-337.283-33.871-53.673-13.796-103.175-36.12-141.072-67.048-35.041-28.608-51.182-66.558-60.709-103.262-22.272-85.663-12.84-174.528-19.512-261.588-3.324-43.42-9.973-87.061-25.996-129.083-14.731-38.644-39.682-74.756-64.774-110.156-31.717-44.783-67.205-89.33-110.517-127.991-14.571-12.878-31.034-24.58-49.103-34.9-40.939-23.578-85.296-46.3-134.763-59.562-17.879-4.793-37.72-8.706-56.022-10.205-26.56-2.185-2.585 19.919 3.313 25.237 17.62 15.897 37.062 30.7 54.577 46.664" fill="#979797"/><path d="M-349.988 111.15c63.228 42.147 119.583 88.706 164.131 141.224 29.252 34.485 57.565 72.424 72.485 110.973 25.234 65.193 18.796 137.16 16.447 205.622-2.597 75.488-6.356 152.222 10.925 225.653 9.328 39.633 29.864 76.2 72.133 104.377 39.684 26.475 87.722 44.247 139.483 54.873 108.951 22.352 226.242 20.43 338.447 19.524 60.279-.491 120.569-1.456 180.848-.694 54.252.685 112.099.491 165.059 9.906 147.484 26.242 284.61 94.982 407.65 156.062 43.4 21.55 87.28 42.97 130.29 64.85 69.31 35.25 135.1 74.38 204.03 110.28 59.57 31.04 124.23 58.92 196.76 69.65 15.66 2.32 32.59 4.32 47.96 3.11 21.55-1.69 53.52-7.37 57.09-26.99.22-1.12.29-2.26.23-3.39-1.18-19.36-26.93-36.87-44.14-49.67-10.93-8.01-22.46-15.58-34.53-22.68-123.81-74.05-264.67-136.58-405.14-194.74-143.58-59.35-292.07-115.389-445.505-158.552-85.455-24.037-167.349-40.42-259.912-39.794-77.818.551-155.401 7.459-232.609 12.7-95.711 6.503-197.777 13.623-291.584-6.426-49.835-10.651-96.263-31.183-131.154-59.072-35.244-28.109-45.312-66.81-44.89-102.692 1-85.276 42.693-171.027 64.18-256.286 10.185-40.412 17.762-81.814 13.545-122.953-4.1-39.963-24.06-74.21-48.883-109.22-33.752-47.651-73.695-94.107-121.85-134.138-16.256-13.473-34.511-25.622-54.44-36.228-52.866-28.211-113.685-53.214-181.341-57.227-21.37-1.27-46.405-.584-65.918 6.24-55.239 19.313 60.408 73.076 80.203 85.708z" fill="#00237C"/><path d="M-192.789 26.186C-119.45 71.773-51.046 121.484.659 179.822c31.188 35.198 62.775 75.543 71.483 116.406 14.947 70.099-16.558 146.057-40.753 215.817-26.1 75.231-65.126 157.488-54.056 233.354 5.453 37.534 25.853 67.872 68.756 92.35 37.822 21.473 82.583 35.686 130.098 41.311 91.659 11.075 187.044-1.956 277.599-12.701 94.985-11.227 193.378-24.876 289.961-17.103 68.474 5.504 135.75 24.986 199.465 42.869 96.028 26.959 189.878 58.101 282.338 90.598 59.03 20.737 118.2 41.817 176.49 63.647 115.88 43.39 228.96 91.06 343.64 136.37 84.69 33.47 174.56 69.9 269.55 84.32 13.18 2 27.78 3.46 40.96 1.54 27.88-4.08 16.7-30.04 8.62-40.81a49.046 49.046 0 00-4-4.47c-24.36-24.97-61.79-44.03-96.27-60.77-16.07-7.83-32.97-15.41-49.67-22.77-158.64-69.92-325.67-131.81-494-189.783-155.55-53.579-314.16-105.559-477.094-145.49-80.719-19.779-156.491-35.037-242.392-30.38-70.237 3.811-139.381 15.165-208.197 24.995-86.112 12.303-178.395 25.554-265.847 11.372-47.122-7.621-92.553-25.529-126.502-50.363-37.721-27.586-47.686-65.078-45.465-101.3 5.24-85.188 58.062-170.629 94.256-254.148C167.561 363.338 172.5 340.954 176 296.228c0-41.822-10.257-88.117-26.371-116.406C122.5 132.194 89.507 84.504 40.508 46.762 23.29 33.662 4.92 21.372-14.489 9.972c-61.988-36.688-135.245-68.981-214.225-83.054-19.918-3.539-46.652-6.697-65.806.043-59.438 20.913 82.035 87.346 101.742 99.225" fill="#CD142B"/></g></svg>