<svg width="29" height="28" fill="none" xmlns="http://www.w3.org/2000/svg"><mask id="a" maskUnits="userSpaceOnUse" x="0" y="0" width="29" height="28"><g clip-path="url(#clip0)"><path d="M6.88 17.431c.044 1.204 0 2.41.03 3.614 0 .232-.136.173-.254.173s-.261.063-.261-.173v-4.662c0-.144.029-.2.19-.2.446 0 .446 0 .6.417l.983 2.73c.214-.589.412-1.104.604-1.656.14-.39.29-.776.416-1.174a.368.368 0 01.445-.323c.239 0 .316.047.313.309v4.511c0 .225-.092.228-.258.225-.166-.004-.269 0-.265-.221.018-1.071 0-2.146 0-3.216a1.328 1.328 0 000-.468c0-.059-.033.022-.055 0-.287.784-.578 1.568-.858 2.355-.055.155-.132.218-.287.188-.154-.03-.334.088-.423-.17-.28-.812-.592-1.618-.89-2.424-.118.022-.03.11-.03.165zm4.108 1.281v-2.319c0-.161.04-.213.206-.21h1.796c.225 0 .18.122.184.251.004.129.026.254-.191.243-.412-.018-.828 0-1.244 0-.15 0-.217.022-.214.199v1.42c0 .129.034.17.166.17h1.104c.228 0 .173.132.177.257.003.125.018.235-.18.224h-1.104c-.137 0-.166.04-.163.17v1.472c0 .165.056.19.2.187h1.273c.231 0 .172.136.176.254.004.118.037.24-.176.232-.608-.052-1.196-.052-1.822-.052-.155 0-.195-.04-.191-.195.007-.761.003-1.534.003-2.303zm-8.776-1.954a3.158 3.158 0 00-1.181-.088.512.512 0 00-.493.574v2.944a.5.5 0 00.464.552c.336.054.68.044 1.012-.03.073 0 .202-.11.21.044.007.155.117.368-.093.413a2.388 2.388 0 01-1.63-.067.825.825 0 01-.475-.787v-3.209a.912.912 0 01.836-.905c.41-.07.83-.058 1.236.037.096.022.144.062.136.169-.007.107-.022.213-.022.353zm22.836-.003a3.313 3.313 0 00-1.177-.085.512.512 0 00-.497.57v2.944a.5.5 0 00.46.552c.336.055.68.045 1.012-.03.073 0 .202-.11.21.041.007.151.121.368-.089.412a2.348 2.348 0 01-1.652-.077.806.806 0 01-.475-.765v-3.213a.909.909 0 01.832-.905c.41-.07.831-.058 1.236.037.096.018.144.058.137.165-.008.107.003.228.003.354zm3.68-.567c-.301.717-.577 1.417-.89 2.1a.846.846 0 000 .807c.302.622.566 1.266.846 1.902.03.067.055.136.081.206-.56.052-.56.052-.773-.434-.265-.614-.53-1.229-.806-1.84a.475.475 0 010-.423 69.39 69.39 0 00.858-2.06c.08-.207.18-.295.397-.262.096.008.192.01.287.004zm-1.995 2.539v2.289c0 .257-.14.202-.28.202s-.275.044-.275-.21c.014-1.535.014-3.07 0-4.603 0-.265.143-.21.294-.221.151-.011.261 0 .258.232-.008.769.003 1.542.003 2.31zm-2.634 4.953c-.18-.03-.1.136-.114.21a5.807 5.807 0 01-.869 2.03c-.033-.117-.051-.194-.073-.272a8.361 8.361 0 00-.519-1.471c-.121-.25-.283-.313-.5-.229-.218.085-.24.144-.081.298a.251.251 0 010 .368c-.248.364-.53.703-.843 1.012a1.84 1.84 0 01-.736.442.702.702 0 01-.913-.504 1.449 1.449 0 01.515-1.509c.416-.294.762-.158.847.368.195-.08.423-.147.39-.412-.033-.265-.265-.287-.471-.331a.446.446 0 00-.1 0 1.726 1.726 0 00-1.626 1.104 2.717 2.717 0 01-.736 1.026c-.254.214-.416.133-.467-.195-.052-.327-.019-.765-.052-1.144-.026-.298-.044-.63-.368-.736-.323-.107-.581.051-.798.272a4.97 4.97 0 00-.832 1.292c-.121 0-.055-.088-.051-.144 0-.132.025-.265.033-.397 0-.232.037-.464.033-.696a.18.18 0 00-.269-.184c-.114.045-.368 0-.243.273a.25.25 0 01-.022.261 4.128 4.128 0 01-1.564 1.391c-.207.11-.44.16-.673.147a.504.504 0 01-.497-.368c-.077-.246-.051-.287.203-.305a1.957 1.957 0 001.254-.538.592.592 0 00-.43-1.067 1.549 1.549 0 00-1.31.688 5.153 5.153 0 01-1.413 1.105c.053-.693.176-1.379.368-2.046-.188.021-.427 0-.486.154-.107.305-.28.17-.456.133a1.335 1.335 0 00-.32-.041 1.613 1.613 0 00-1.391.946 2.944 2.944 0 01-.836.905c-.147.11-.316.261-.519.15-.202-.11-.143-.32-.147-.496a3.382 3.382 0 01.287-1.472c-.268-.077-.46.147-.659.144-.198-.004-.43-.155-.67-.166-1.103-.059-1.887 1.509-1.471 2.392a.497.497 0 00.692.25 2.13 2.13 0 00.839-.692c.165-.21.309-.441.489-.699a4.45 4.45 0 000 .67c.055.497.368.688.817.511.15-.06.29-.144.412-.25.166-.132.328-.272.497-.412.129.648.556.835 1.126.5.336-.202.623-.477.839-.805.033-.052.044-.136.132-.151 0 .202-.036.394-.04.585a.412.412 0 01-.258.368c-.415.224-.831.452-1.229.71-.688.445-.662.957.055 1.336h.597c0-.037.044-.044.077-.052a1.541 1.541 0 001.148-1.247c.04-.22.059-.445.085-.666 0-.074 0-.155.062-.206l1.104-.758v.298a.917.917 0 001.045 1.004 2.734 2.734 0 001.527-.736c.266-.235.512-.49.736-.765-.037.434-.073.828-.099 1.225a.223.223 0 00.13.247c.031.013.065.02.098.018.166.022.247-.022.236-.202a.369.369 0 01.07-.184 10.81 10.81 0 01.93-1.53c.073-.092.156-.175.247-.247.18-.137.306-.092.368.128.034.188.047.38.037.57-.01.349.02.697.092 1.038a.489.489 0 00.784.335c.124-.068.236-.156.33-.261.14-.155.273-.31.41-.471.224 1.06 1.133 1.178 1.861.736.344-.22.65-.491.91-.806.19-.235.367-.478.57-.736.238.473.41.975.511 1.494a.32.32 0 01-.066.28c-.162.212-.354.4-.57.555-.233.18-.524.266-.817.243-.125 0-.262-.106-.287.118a.277.277 0 00.276.335.885.885 0 00.5-.121c.257-.13.492-.301.695-.505a8.985 8.985 0 001.877-2.826.954.954 0 00.089-.309c.003-.22-.177-.276-.339-.305zm-11.591 1.21a1.313 1.313 0 01.736-.956.368.368 0 01.393.047.342.342 0 01.022.42 1.258 1.258 0 01-.964.596c-.136.018-.202.033-.188-.107zm-6.076-.33c-.216.332-.454.65-.71.952-.04.04-.074.089-.118.125-.15.125-.272.313-.511.229-.148-.052-.203-.218-.203-.52.002-.282.068-.562.192-.816.272-.57.636-.703 1.21-.45.357.17.357.17.14.49v-.01zm3.584 2.796a.765.765 0 01-.828.368.368.368 0 01-.239-.626 1.85 1.85 0 01.56-.485c.231-.144.467-.276.754-.446a2.44 2.44 0 01-.247 1.2v-.011zm.423-3.032c-.27.498-.658.924-1.13 1.24-.301.18-.507.055-.51-.273a1.646 1.646 0 01.595-1.232.736.736 0 011.016.092c.055.07.074.11.03.184v-.011zm7.481-4.754a.893.893 0 00-.57-.887.905.905 0 00.526-.876v-.674a.942.942 0 00-.839-.905 10.994 10.994 0 00-1.516-.04c-.121 0-.132.055-.132.15v4.736c0 .103.022.148.136.148h1.42a.99.99 0 00.986-1.038 17.485 17.485 0 01-.01-.615zm-1.84-2.911h.674a.541.541 0 01.567.53 2.38 2.38 0 010 .79.53.53 0 01-.464.453 6.126 6.126 0 01-.82.03c-.126 0-.126-.07-.126-.159v-1.468c-.007-.147.044-.184.18-.176h-.01zm1.281 3.599a.548.548 0 01-.475.47 6.22 6.22 0 01-.868.03c-.11 0-.118-.059-.118-.14v-1.509c0-.117 0-.184.158-.176h.696a.587.587 0 01.622.607c.028.238.027.48-.004.718h-.01zm-11.883-2.97a1.074 1.074 0 00-.67-1.067 1.653 1.653 0 00-.735-.096 1.105 1.105 0 00-1.13 1.16v2.78c0 .806.416 1.222 1.225 1.24.81.019 1.295-.397 1.31-1.163.015-.96.011-1.91 0-2.855zm-.537 2.819a.644.644 0 01-.718.736.641.641 0 01-.736-.736v-2.79c0-.478.25-.703.736-.695a.632.632 0 01.736.717v1.395c0 .464-.014.898-.018 1.373zm16.92.913c-.346-1.495-.677-2.989-1.015-4.483-.078-.35-.074-.35-.442-.35s-.368 0-.467.368c-.339 1.487-.676 2.974-1.012 4.46 0 .063-.055.17 0 .18.139.023.28.03.42.023.12 0 .103-.11.117-.184.081-.346.162-.696.228-1.045.026-.122.06-.18.203-.177h1.023c.117 0 .173.033.195.158.055.31.15.615.191.928.04.313.144.368.412.327.155-.015.188-.015.147-.206zm-1.074-1.671a7.225 7.225 0 00-.736 0c-.191 0-.217-.06-.18-.229.173-.765.338-1.534.504-2.303h.037c.114.515.231 1.03.342 1.542.062.276.11.555.18.824.03.14-.015.188-.147.166z" fill="#fff"/><path d="M17.633 10.907s-4.519-2.778-4.817-4.725c-.096-.647-.736-3.047 2.499-5.42-.026-.06-6.208 1.567-7.643 3.775a2.142 2.142 0 00-.148 2.856c.373.485.865.866 1.428 1.104 1.531.673 5.332 2.112 8.681 2.41z" fill="url(#paint0_linear)"/><path d="M13.092 5.24s.666-1.748 3.54-2.373a9.405 9.405 0 002.322-.736A1.255 1.255 0 0019.56.688c-.143-.452-.563-.865-1.788-.607-.43.093-.845.246-1.233.453-1.093.57-3.455 2.06-3.448 4.706z" fill="url(#paint1_linear)"/><path d="M9.152 9.115s2.856 2.462 4.446 3.213c.121.062 3.989 2.495 5.542 2.281a1.878 1.878 0 001.324-.736 1.197 1.197 0 00.302-1.041c-.077-.346-.335-.736-1.023-1.012a13.173 13.173 0 00-3.04-.684 8.262 8.262 0 01-.993-.13c-1.524-.305-5.204-1.129-6.558-1.89z" fill="url(#paint2_linear)"/></g></mask><g mask="url(#a)"><path fill="#fff" d="M4.416-2.944h19.871v18.399H4.416z"/></g><defs><linearGradient id="paint0_linear" x1="12.04" y1="10.616" x2="13.412" y2=".331" gradientUnits="userSpaceOnUse"><stop stop-color="#6DBDD7"/><stop offset=".09" stop-color="#77BED4"/><stop offset=".2" stop-color="#7CBED3"/><stop offset=".26" stop-color="#75B1D1"/><stop offset=".5" stop-color="#5B84CB"/><stop offset=".71" stop-color="#4863C7"/><stop offset=".88" stop-color="#3C4EC4"/><stop offset="1" stop-color="#3847C3"/></linearGradient><linearGradient id="paint1_linear" x1="13.092" y1="2.62" x2="19.613" y2="2.62" gradientUnits="userSpaceOnUse"><stop stop-color="#6DBDD7"/><stop offset=".14" stop-color="#77BED4"/><stop offset=".3" stop-color="#7CBED3"/><stop offset=".56" stop-color="#608CCC"/><stop offset=".86" stop-color="#435AC6"/><stop offset="1" stop-color="#3847C3"/></linearGradient><linearGradient id="paint2_linear" x1="9.748" y1="8.081" x2="20.324" y2="14.19" gradientUnits="userSpaceOnUse"><stop stop-color="#6DBDD7"/><stop offset=".46" stop-color="#7CBED3"/><stop offset="1" stop-color="#3847C3"/></linearGradient><clipPath id="clip0"><path fill="#fff" d="M0 0h28.78v28H0z"/></clipPath></defs></svg>