<svg width="348" height="332" viewBox="0 0 348 332" fill="none" xmlns="http://www.w3.org/2000/svg">
<g style="mix-blend-mode:multiply" opacity="0.2">
<path d="M320.389 166.001C320.389 84.8524 254.861 19.0908 174 19.0908C93.1397 19.0908 27.6113 84.8524 27.6113 166.001H320.389Z" fill="#CD142B"/>
<path d="M27.6113 164.148C27.6113 245.297 93.1397 311.058 174 311.058C254.861 311.058 320.389 245.297 320.389 164.148H27.6113Z" fill="#00237C"/>
<path d="M320.389 166.001C320.389 247.149 254.861 312.911 174 312.911C93.1397 312.911 27.6113 247.149 27.6113 166.001C27.6113 84.8524 93.1397 19.0908 174 19.0908C254.861 19.0908 320.389 84.8524 320.389 166.001Z" stroke="white" stroke-width="9" stroke-miterlimit="10"/>
<path d="M27.6113 166H110.19" stroke="white" stroke-width="8" stroke-miterlimit="10"/>
<path d="M237.43 163.957H320.39" stroke="white" stroke-width="8" stroke-miterlimit="10"/>
<path d="M98.992 85.043C100.646 86.4476 101.919 88.0438 102.873 89.8315C103.827 91.6192 104.4 93.5346 104.591 95.6415C104.781 97.7484 104.527 99.7276 103.954 101.707C103.382 103.686 102.364 105.41 101.091 107.006C99.7554 108.602 98.1649 109.815 96.3836 110.773C94.6022 111.731 92.63 112.241 90.5942 112.369C88.4947 112.561 86.5225 112.305 84.5503 111.667C82.6417 111.028 80.8604 110.007 79.2062 108.666C77.5521 107.261 76.2797 105.665 75.3254 103.878C74.3711 102.09 73.7986 100.111 73.6077 98.0038C73.4168 95.9607 73.6077 93.9815 74.1803 92.0023C74.7529 90.023 75.7708 88.2992 77.0432 86.703C78.3792 85.1069 79.9061 83.8938 81.751 82.9361C83.596 81.9784 85.5046 81.4677 87.5404 81.2761C89.5763 81.1484 91.6121 81.34 93.5207 81.9784C95.5565 82.6807 97.3379 83.7023 98.992 85.043ZM95.7474 102.537C97.147 100.877 97.656 98.9615 97.3379 96.7907C96.9562 94.62 95.8746 92.7046 93.9024 91.1084C91.9938 89.5123 89.958 88.6823 87.7313 88.7461C85.5046 88.7461 83.7233 89.5761 82.3872 91.2361C80.9876 92.8961 80.4786 94.8115 80.7967 96.9823C81.1785 99.153 82.3236 101.068 84.2322 102.665C86.2044 104.325 88.2403 105.155 90.4033 105.155C92.5664 105.091 94.3478 104.197 95.7474 102.537Z" fill="white"/>
<path d="M115.533 64.2922L115.597 64.3561C116.424 64.9307 117.06 65.4414 117.569 65.9522C117.378 65.3137 117.315 64.5476 117.251 63.5899C117.251 63.4622 117.251 63.3984 117.251 63.3345L116.869 55.5453L124.949 51.0122L123.613 68.3145L140.472 76.6784L132.711 81.0199L124.122 75.6568C123.74 75.4014 123.359 75.1461 123.041 74.8907C122.659 74.6353 122.341 74.3161 122.086 73.9968C122.214 74.4437 122.341 74.9545 122.404 75.3376C122.468 75.7207 122.468 76.1676 122.468 76.6145L122.532 86.766L114.77 91.1076L116.424 72.1453L101.092 64.4837L109.235 59.8868L115.533 64.2922Z" fill="white"/>
<path d="M148.743 74.7634L143.271 45.3304L160.576 42.0742L161.785 48.5227L151.987 50.3742L152.942 55.4819L162.167 53.7581L163.375 60.0788L154.15 61.8027L156.314 73.3588L148.743 74.7634Z" fill="white"/>
<path d="M207.718 60.9086C207.336 63.0155 206.636 64.9309 205.555 66.6548C204.473 68.3786 203.137 69.8471 201.419 71.0601C199.702 72.2732 197.857 73.1032 195.884 73.5501C193.912 73.9971 191.876 74.0609 189.904 73.7417C187.868 73.4224 186.023 72.6563 184.306 71.5709C182.588 70.4855 181.125 69.0809 179.98 67.3571C178.771 65.6332 177.944 63.7817 177.498 61.8024C177.053 59.8232 177.053 57.7801 177.371 55.6732C177.753 53.5663 178.453 51.6509 179.534 49.9271C180.616 48.2032 182.015 46.7348 183.733 45.5217C185.387 44.3086 187.232 43.4786 189.204 43.0317C191.177 42.5848 193.212 42.5209 195.248 42.8401C197.284 43.1594 199.129 43.9255 200.847 45.0109C202.565 46.0963 204.028 47.5009 205.173 49.2248C206.318 50.9486 207.145 52.8001 207.591 54.7794C208.036 56.7586 208.036 58.8017 207.718 60.9086ZM191.049 66.974C193.212 67.3571 195.121 66.8463 196.775 65.4417C198.429 64.0371 199.511 62.1217 199.956 59.5678C200.401 57.0778 200.02 54.9071 198.875 52.9917C197.729 51.0763 196.139 49.9909 194.04 49.6078C191.876 49.2248 189.968 49.7355 188.314 51.1401C186.66 52.5448 185.578 54.524 185.133 56.9501C184.687 59.504 185.069 61.6748 186.151 63.5263C187.232 65.5055 188.886 66.6548 191.049 66.974Z" fill="white"/>
<path d="M214.652 80.3185L230.112 54.6523L237.11 58.93C239.846 60.59 241.691 61.867 242.645 62.8246C243.599 63.7185 244.236 64.74 244.681 65.8254C245.126 67.0385 245.317 68.3793 245.126 69.72C244.935 71.0608 244.49 72.4654 243.663 73.7423C242.454 75.7216 241.055 77.0623 239.337 77.7008C237.683 78.4031 235.774 78.4031 233.738 77.7008L234.247 92.13L226.676 87.5331L227.058 74.0616L221.014 84.0854L214.652 80.3185ZM229.094 70.6139L230.366 71.38C231.83 72.2739 233.038 72.657 233.993 72.5293C234.947 72.4016 235.774 71.827 236.474 70.7416C237.237 69.4646 237.492 68.3793 237.174 67.4216C236.856 66.5277 235.965 65.57 234.502 64.6762L233.166 63.8462L229.094 70.6139Z" fill="white"/>
<path d="M240.736 98.0673L263.83 79.105L267.647 83.7657C270.447 87.2134 272.292 89.8311 273.119 91.555C273.946 93.2788 274.391 95.0027 274.518 96.7265C274.646 98.9611 274.2 101.132 273.246 103.175C272.228 105.218 270.701 107.07 268.665 108.73C266.63 110.39 264.53 111.539 262.303 112.113C260.14 112.688 257.914 112.688 255.751 112.113C254.096 111.666 252.506 110.9 251.106 109.751C249.643 108.666 247.735 106.623 245.381 103.686L244.554 102.664L240.736 98.0673ZM250.852 99.855L251.679 100.877C253.651 103.239 255.56 104.58 257.468 104.899C259.377 105.154 261.413 104.388 263.639 102.6C265.866 100.813 267.011 98.8973 267.139 96.9819C267.266 95.0665 266.375 92.8957 264.403 90.4696L263.576 89.4481L250.852 99.855Z" fill="white"/>
<path d="M64.1289 221.483L90.0221 206.607L99.247 222.824L93.5848 226.08L88.368 216.886L83.851 219.44L88.7497 228.059L83.2148 231.252L78.3161 222.632L73.9263 225.122L79.1432 234.316L73.3538 237.636L64.1289 221.483Z" fill="white"/>
<path d="M86.332 254.363L104.909 230.932L111.144 235.912L110.508 255.129C110.508 255.512 110.38 256.215 110.189 257.3C109.999 258.385 109.744 259.599 109.362 261.003C109.999 259.918 110.571 258.96 111.144 258.194C111.716 257.364 112.162 256.725 112.671 256.087L121.832 244.531L128.067 249.511L109.49 272.942L103.255 267.962L103.891 248.681C103.891 248.298 104.018 247.595 104.209 246.51C104.4 245.425 104.655 244.212 104.973 242.871C104.336 243.956 103.7 244.914 103.191 245.68C102.619 246.51 102.173 247.212 101.664 247.787L92.5031 259.343L86.332 254.363Z" fill="white"/>
<path d="M146.899 275.88L148.425 269.75L164.203 273.645C164.14 273.836 164.14 274.092 164.076 274.283C164.012 274.539 163.949 274.858 163.821 275.369C162.613 280.349 160.322 283.924 156.951 286.031C153.579 288.138 149.507 288.585 144.672 287.372C142.254 286.797 140.282 285.903 138.564 284.754C136.91 283.605 135.511 282.073 134.366 280.285C133.284 278.561 132.648 276.646 132.33 274.539C132.012 272.432 132.139 270.389 132.648 268.282C133.157 266.111 134.047 264.196 135.256 262.6C136.465 260.94 137.992 259.599 139.837 258.513C141.682 257.492 143.59 256.789 145.69 256.534C147.789 256.279 149.952 256.406 152.115 256.981C154.978 257.683 157.396 258.896 159.368 260.556C161.34 262.216 162.74 264.387 163.758 266.941L155.996 268.537C155.424 267.196 154.724 266.111 153.833 265.345C152.942 264.515 151.861 264.004 150.525 263.685C148.107 263.11 146.072 263.43 144.29 264.643C142.509 265.856 141.3 267.899 140.6 270.644C139.9 273.39 140.091 275.752 141.046 277.667C142.063 279.583 143.718 280.86 146.135 281.434C148.171 281.945 150.016 281.881 151.606 281.243C153.197 280.604 154.342 279.455 154.978 277.859L146.899 275.88Z" fill="white"/>
<path d="M180.362 290.309L176.927 260.556L185.134 259.599L187.806 282.392L197.985 281.179L198.812 288.138L180.362 290.309Z" fill="white"/>
<path d="M215.607 283.031L204.537 255.194L212.299 252.065L223.369 279.902L215.607 283.031Z" fill="white"/>
<path d="M236.475 261.961C238.256 262.28 239.847 262.344 241.246 262.153C242.582 261.961 243.728 261.514 244.682 260.748C245.573 260.046 246.081 259.28 246.336 258.386C246.527 257.492 246.4 256.662 245.827 255.96C245.191 255.193 244.491 254.746 243.728 254.683C242.9 254.619 241.501 255.066 239.401 255.896C236.539 257.109 234.248 257.556 232.53 257.3C230.813 257.045 229.222 256.023 227.886 254.3C226.169 252.001 225.469 249.575 225.914 246.957C226.359 244.34 227.823 242.105 230.24 240.19C231.576 239.168 232.976 238.402 234.439 237.827C235.902 237.253 237.429 236.933 239.02 236.806L240.547 243.063C239.338 242.999 238.193 243.126 237.175 243.382C236.157 243.637 235.266 244.084 234.503 244.723C233.739 245.361 233.23 246 233.039 246.766C232.849 247.532 232.976 248.17 233.421 248.745C233.866 249.32 234.439 249.639 235.139 249.703C235.839 249.766 236.92 249.447 238.447 248.809L238.829 248.681C242.073 247.34 244.427 246.766 245.891 246.957C246.909 247.085 247.863 247.468 248.817 248.043C249.708 248.617 250.598 249.447 251.362 250.405C253.271 252.895 254.034 255.576 253.525 258.386C253.016 261.195 251.362 263.685 248.563 265.856C246.909 267.133 245.127 268.026 243.346 268.537C241.564 269.048 239.529 269.176 237.366 268.984L236.475 261.961Z" fill="white"/>
<path d="M270.893 243.573L245.318 228.059L249.581 220.972L259.506 226.973L265.231 217.524L255.307 211.522L259.569 204.436L285.144 219.95L280.882 227.037L270.512 220.716L264.786 230.166L275.156 236.486L270.893 243.573Z" fill="white"/>
<mask id="mask0" mask-type="alpha" maskUnits="userSpaceOnUse" x="100" y="92" width="149" height="149">
<path d="M174.7 240.317C215.458 240.317 248.499 207.159 248.499 166.256C248.499 125.353 215.458 92.1943 174.7 92.1943C133.942 92.1943 100.901 125.353 100.901 166.256C100.901 207.159 133.942 240.317 174.7 240.317Z" fill="white"/>
</mask>
<g mask="url(#mask0)">
<path d="M156.632 94.1099H68.8369V141.228H156.632V94.1099Z" fill="#00237C"/>
<path d="M92.9488 94.1099H68.8369V108.922L186.406 186.814L215.035 175.003L92.9488 94.1099Z" fill="white"/>
<path d="M68.8369 95.3228V105.538L187.997 184.452L192.641 177.365L68.8369 95.3228Z" fill="#CD142B"/>
<path d="M280.31 94.1099H192.515V141.228H280.31V94.1099Z" fill="#00237C"/>
<path d="M256.261 94.1099H280.373V108.922L162.74 186.814L134.175 175.003L256.261 94.1099Z" fill="white"/>
<path d="M280.373 95.3228V105.538L161.214 184.452L156.569 177.365L280.373 95.3228Z" fill="#CD142B"/>
<path d="M280.31 189.049H192.515V236.168H280.31V189.049Z" fill="#00237C"/>
<path d="M256.261 236.231H280.373V221.355L162.74 143.463L134.175 155.274L256.261 236.231Z" fill="white"/>
<path d="M280.373 234.954V224.802L161.214 145.825L156.569 152.912L280.373 234.954Z" fill="#CD142B"/>
<path d="M156.632 189.049H68.8369V236.168H156.632V189.049Z" fill="#00237C"/>
<path d="M92.9488 236.231H68.8369V221.355L186.406 143.463L215.035 155.274L92.9488 236.231Z" fill="white"/>
<path d="M68.8369 234.954V224.802L187.997 145.825L192.641 152.912L68.8369 234.954Z" fill="#CD142B"/>
<path d="M280.373 141.228H192.705V94.1099H156.123V141.228H68.8369V188.028H156.123V236.231H192.705V188.028H280.373V141.228Z" fill="white"/>
<path d="M280.373 150.805H184.943V94.1099H163.885V150.805H68.8369V178.451H163.885V236.231H184.943V178.451H280.373V150.805Z" fill="#CD142B"/>
</g>
<path d="M244.499 166.256C244.499 204.963 213.236 236.317 174.7 236.317C136.165 236.317 104.901 204.963 104.901 166.256C104.901 127.549 136.165 96.1943 174.7 96.1943C213.236 96.1943 244.499 127.549 244.499 166.256Z" stroke="white" stroke-width="8"/>
</g>
</svg>
