<svg width="412" height="413" fill="none" xmlns="http://www.w3.org/2000/svg"><path d="M360.576 141.87a169.66 169.66 0 014.995 13.785l-2.862.9a168.888 168.888 0 013.731 13.924l2.929-.652a169.903 169.903 0 012.566 14.436l-2.973.397a165.471 165.471 0 011.281 14.337l2.997-.136c.224 4.91.23 9.799.026 14.654l-2.998-.126a164.096 164.096 0 01-1.234 14.344l2.975.388a167.824 167.824 0 01-2.53 14.44l-2.929-.646a165.44 165.44 0 01-3.712 13.91l2.863.899a169.113 169.113 0 01-4.995 13.78l-2.774-1.144a165.719 165.719 0 01-6.062 13.06l2.664 1.38a168.737 168.737 0 01-7.3 12.712l-2.534-1.606a165.53 165.53 0 01-8.226 11.817l2.386 1.819a168.309 168.309 0 01-9.388 11.257l-2.218-2.02a164.25 164.25 0 01-10.15 10.209l2.033 2.206a166.272 166.272 0 01-11.207 9.45l-1.831-2.376a163.168 163.168 0 01-11.779 8.275l1.615 2.529a166.43 166.43 0 01-12.687 7.334l-1.385-2.661a163.766 163.766 0 01-13.046 6.078l1.146 2.773a168.375 168.375 0 01-13.781 5.006l-.9-2.862a167.284 167.284 0 01-13.922 3.731l.651 2.928a167.921 167.921 0 01-14.438 2.555l-.394-2.974a163.79 163.79 0 01-14.337 1.259l.131 2.997c-4.91.214-9.799.209-14.655-.008l.135-2.997a163.61 163.61 0 01-14.338-1.277l-.398 2.973a166.627 166.627 0 01-14.431-2.58l.658-2.927a164.54 164.54 0 01-13.895-3.767l-.91 2.859a168.226 168.226 0 01-13.759-5.055l1.156-2.768a166.226 166.226 0 01-13.032-6.121l-1.392 2.657a168.939 168.939 0 01-12.678-7.359l1.617-2.526a165.766 165.766 0 01-11.779-8.28l-1.83 2.378a168.693 168.693 0 01-11.216-9.437l2.03-2.209a165.41 165.41 0 01-10.17-10.191l-2.214 2.024a167.62 167.62 0 01-9.41-11.241l2.382-1.823a164.309 164.309 0 01-8.241-11.805l-2.533 1.608a167.512 167.512 0 01-7.305-12.704l2.664-1.38a165.28 165.28 0 01-6.06-13.057l-2.773 1.143a169.91 169.91 0 01-4.995-13.785l2.862-.9a168.73 168.73 0 01-3.731-13.924l-2.928.652a169.789 169.789 0 01-2.567-14.436l2.974-.397a165.107 165.107 0 01-1.282-14.338l-2.997.137c-.223-4.91-.23-9.799-.025-14.654l2.997.126a164.33 164.33 0 011.235-14.344l-2.975-.388c.634-4.864 1.48-9.682 2.53-14.44l2.929.646a165.321 165.321 0 013.71-13.91l-2.861-.899a168.642 168.642 0 014.995-13.78l2.773 1.144a165.97 165.97 0 016.062-13.06l-2.664-1.38a169.118 169.118 0 017.3-12.712l2.534 1.606a165.752 165.752 0 018.226-11.817l-2.385-1.819A168.168 168.168 0 0181.7 92.437l2.218 2.02a164.433 164.433 0 0110.149-10.21l-2.033-2.205a166.807 166.807 0 0111.207-9.45l1.831 2.376a163.137 163.137 0 0111.779-8.275l-1.615-2.529a166.226 166.226 0 0112.687-7.334l1.386 2.66a163.714 163.714 0 0113.045-6.078l-1.146-2.772a168.264 168.264 0 0113.781-5.006l.901 2.862a167.394 167.394 0 0113.921-3.73l-.65-2.93a168.166 168.166 0 0114.438-2.554l.393 2.974a163.712 163.712 0 0114.337-1.26l-.13-2.996c4.91-.214 9.799-.21 14.655.008l-.134 2.997c4.816.215 9.6.643 14.338 1.277l.397-2.973c4.862.65 9.676 1.512 14.431 2.58l-.657 2.927a164.504 164.504 0 0113.894 3.767l.911-2.859a168.154 168.154 0 0113.758 5.055l-1.156 2.768a165.757 165.757 0 0113.032 6.121l1.392-2.657a169.01 169.01 0 0112.678 7.358l-1.617 2.527a166.035 166.035 0 0111.78 8.28l1.829-2.378a168.599 168.599 0 0111.217 9.437l-2.03 2.21a165.114 165.114 0 0110.169 10.19l2.214-2.024a167.989 167.989 0 019.411 11.24l-2.383 1.824a164.125 164.125 0 018.242 11.805l2.532-1.608a167.21 167.21 0 017.305 12.704l-2.663 1.38a165.072 165.072 0 016.058 13.057l2.774-1.143z" stroke="#fff" stroke-width="6" stroke-dasharray="15 15"/></svg>