<svg width="34" height="34" fill="none" xmlns="http://www.w3.org/2000/svg"><path d="M27.957 11.447V7.17L21.45.664H3.787c-.733 0-1.328.595-1.328 1.328v30.016c0 .733.595 1.328 1.328 1.328H26.63c.734 0 1.328-.595 1.328-1.328V11.447z" fill="#fff"/><path d="M22.777 7.171h5.18L21.448.664v5.179c0 .733.595 1.328 1.328 1.328z" fill="#CD142B"/><path d="M26.63 34H3.786a1.994 1.994 0 01-1.992-1.992v-12.02a.664.664 0 111.328 0v12.02c0 .366.298.664.664.664H26.63a.665.665 0 00.664-.664V25.5a.664.664 0 111.328 0v6.508A1.994 1.994 0 0126.63 34z" fill="#000"/><path d="M30.564 12.428a5.58 5.58 0 00-1.943-1.264V7.171h-.001a.662.662 0 00-.193-.47L21.92.196a.662.662 0 00-.47-.193V0H3.787a1.994 1.994 0 00-1.992 1.992v12.374a.664.664 0 101.328 0V1.992c0-.366.298-.664.664-.664h17v4.515c0 1.099.893 1.992 1.992 1.992h4.514v2.996a5.605 5.605 0 00-4.668 1.597l-9.464 9.464a.664.664 0 00.94.94l9.464-9.465a4.29 4.29 0 016.06 0 4.29 4.29 0 010 6.06l-8.876 8.877a2.675 2.675 0 01-3.78 0 2.655 2.655 0 01-.782-1.89c0-.714.278-1.385.783-1.89l8.92-8.919a1.03 1.03 0 01.735-.305c.278 0 .54.108.736.305.197.197.305.458.305.736 0 .278-.108.54-.305.736l-8.039 8.038a.664.664 0 00.94.94l8.038-8.039a2.353 2.353 0 00.694-1.675c0-.633-.247-1.228-.694-1.675a2.353 2.353 0 00-1.675-.694c-.633 0-1.227.247-1.675.694l-8.92 8.92a4.005 4.005 0 000 5.657 3.99 3.99 0 002.83 1.17c1.024 0 2.048-.39 2.828-1.17l8.876-8.877a5.62 5.62 0 000-7.938zm-7.785-5.92a.665.665 0 01-.665-.665V2.267l4.24 4.24H22.78zM2.459 17.877a.668.668 0 01-.47-.194.669.669 0 010-.94.67.67 0 01.47-.194.67.67 0 01.47.195.669.669 0 01.194.47.667.667 0 01-.664.664z" fill="#000"/><path d="M11.517 25.065a.664.664 0 01-.631-.46l-.013-.04a.664.664 0 111.263-.41l.013.04a.664.664 0 01-.632.87z" fill="#000"/></svg>