<svg width="274" height="274" fill="none" xmlns="http://www.w3.org/2000/svg"><g clip-path="url(#clip0)"><path d="M253.217 141.409l7.961 29.71-77.991 20.898a115.29 115.29 0 01.625-16.09l8.171-2.189c4.482-1.201 6.379-8.874 4.189-17.044l57.045-15.285z" fill="#C03A2B"/><path d="M252.221 137.695l2.985 11.141-51.993 13.932-3.981-14.855 48.28-12.937a3.846 3.846 0 014.709 2.719z" fill="#393F4A"/><path d="M178.529 26.085l25.997-6.966 11.941 44.566-25.996 6.966-11.942-44.566z" fill="#F5EFCA"/><path d="M159.961 31.06l22.283-5.97 11.941 44.566-22.283 5.97-11.941-44.566z" fill="#285680"/><path d="M220.377 18.852l9.951 37.139a3.845 3.845 0 01-2.719 4.709l-14.855 3.98-11.942-44.566 14.856-3.98a3.845 3.845 0 014.709 2.718z" fill="#C03A2B"/><path d="M175.883 90.481l55.707-14.926a3.845 3.845 0 014.709 2.718l9.951 37.139a3.844 3.844 0 01-2.719 4.709l-55.707 14.926-11.941-44.566z" fill="#F5EFCA"/><path d="M217.267 111.236a7.69 7.69 0 10-3.98-14.856 7.69 7.69 0 003.98 14.856zM18.659 53.359l56.65 152a22.423 22.423 0 00-10.37 9.426c-2.974 5.096-18.825 15.314-17.173 21.479L5.97 80.284c-2.917-10.87 2.448-22.256 12.688-26.925z" fill="#C03A2B"/><path d="M211.174 192.479l2.985 11.141c1.629 6.151-2.015 12.462-8.156 14.127l-3.714.995c-.813-.658-12.064-2.539-12.813-3.254a45.62 45.62 0 01-4.744-5.376 37.245 37.245 0 01-6.306-12.839l32.748-4.794z" fill="#B19046"/><path d="M165.398 21.643l37.814 141.125c1.094 4.085-.357 12.037-4.442 13.131l-133.787 35.49a19.746 19.746 0 00-3.588 1.32l-.037.01-42.7-159.36a21.034 21.034 0 013.624-1.33L155.98 16.205a7.713 7.713 0 019.418 5.438z" fill="#F0C419"/><path d="M201.917 217.349C70.187 252.646 77.509 250.807 75.22 251.074c-10.918 2.464-21.894-3.885-25.2-14.578-3.308-10.693 2.167-22.13 12.57-26.26 14.465-3.876-49.924 13.042 128.139-34.67-6.493 14.831-1.848 32.182 11.188 41.783z" fill="#F5EFCA"/><path d="M130.464 218.085l-63.135 16.917a3.846 3.846 0 01-1.99-7.428l63.135-16.917a3.846 3.846 0 011.99 7.428z" fill="#CBB292"/><path d="M159.827 105.73a52.15 52.15 0 01-11.609 26.197l-.01-.037a48.554 48.554 0 00-11.944.733 51.337 51.337 0 00-15.144 5.132 37.386 37.386 0 00-13.141 12.756 51.666 51.666 0 01-14.904-2.295l-.01-.037a48.47 48.47 0 00-.265-7.97 45.625 45.625 0 00-3.958-10.761c-2.904-7.422.777-14.777-.572-22.337a6.248 6.248 0 00-5.601-5.306c-4.105-.611-8.321.439-12.359-.072a18.015 18.015 0 01-13.248-10.82 51.61 51.61 0 015.024-15.715 95.197 95.197 0 0022.032-8.69 25.45 25.45 0 0014.186-18.807 51.714 51.714 0 0120.304.013l.01.037-.028.047a39.915 39.915 0 01-12.531 15.18 16.467 16.467 0 00-6.62 12.879c.596 7.125 8.237 9.496 14.295 9.226 7.204-.299 14.31 1.858 16.397 9.498a28.14 28.14 0 01.428 9.916 37.233 37.233 0 00-.32 12.027 7.382 7.382 0 0010.776 4.715 21.492 21.492 0 007.688-5.921c.248-.265.495-.53.732-.833a36.427 36.427 0 0110.392-8.755z" fill="#2FA8CC"/><path d="M88.842 129.447a45.636 45.636 0 013.958 10.762c.307 2.644.396 5.31.265 7.969l.01.037c-24.505-7.59-39.801-31.93-36.013-57.302a18.017 18.017 0 0013.249 10.82c4.037.51 8.254-.54 12.358.072a6.248 6.248 0 015.602 5.306c1.349 7.559-2.333 14.915.571 22.336z" fill="#4FBA6F"/><path d="M98.304 47.7a25.449 25.449 0 01-14.187 18.808 95.195 95.195 0 01-22.032 8.69 51.76 51.76 0 0136.219-27.497zm49.905 84.19l.01.037a51.906 51.906 0 01-40.239 18.584 37.378 37.378 0 0113.141-12.756 51.337 51.337 0 0115.144-5.132 48.457 48.457 0 0111.944-.733z" fill="#B0D3F0"/><path d="M158.54 85.178a52.002 52.002 0 011.288 20.552 36.41 36.41 0 00-10.392 8.755c-.237.303-.484.568-.732.833a21.492 21.492 0 01-7.688 5.921 7.382 7.382 0 01-10.776-4.715c-.546-4-.438-8.062.319-12.027a28.164 28.164 0 00-.427-9.916c-2.088-7.64-9.193-9.797-16.398-9.498-6.057.27-13.698-2.101-14.293-9.226a16.467 16.467 0 016.619-12.88 39.933 39.933 0 0012.531-15.179l.027-.047-.01-.037a51.906 51.906 0 0139.932 37.464z" fill="#4FBA6F"/><path d="M158.38 158.859l-63.135 16.917a3.846 3.846 0 01-1.99-7.428l63.135-16.917a3.846 3.846 0 011.99 7.428z" fill="#F29C1F"/><path d="M63.713 216.307c1.582-.782-7.183 1.686 132.338-35.699 6.141-1.665 9.784-7.976 8.156-14.127l-.995-3.713a7.714 7.714 0 01-5.438 9.418L64.077 208.01a22.837 22.837 0 00-6.033 41.66 24.551 24.551 0 0018.531 2.756l129.427-34.68c6.141-1.665 9.784-7.976 8.156-14.126l-2.985-11.142a3.844 3.844 0 00-7.428 1.99l2.985 11.142a3.844 3.844 0 01-2.718 4.709l-129.093 34.59a16.081 16.081 0 01-19.876-11.193 15.356 15.356 0 018.67-17.409zm135.552-.338a17.516 17.516 0 01-.608-.633c.204.212.396.423.608.633z" fill="#E64C3C"/><path d="M115.371 257.527l-8.869-1.814a3.845 3.845 0 00-3.321.889l-6.773 6.007a3.845 3.845 0 01-6.263-1.877l-8.956-33.424 29.711-7.961 8.956 33.424a3.844 3.844 0 01-4.485 4.756z" fill="#C03A2B"/><path d="M259.187 163.691l2.985 11.142a3.846 3.846 0 01-2.719 4.709l-70.562 18.907a36.983 36.983 0 01-.75-15.721l71.046-19.037z" fill="#F0C419"/></g><defs><clipPath id="clip0"><path fill="#fff" transform="rotate(-15 220.277 29)" d="M0 0h223v223H0z"/></clipPath></defs></svg>