<svg width="490" height="468" fill="none" xmlns="http://www.w3.org/2000/svg"><circle cx="256.353" cy="233.726" r="190.532" transform="rotate(-15 256.353 233.726)" fill="#00237C"/><circle cx="14.5" cy="135.5" r="11.5" stroke="#CD142B" stroke-opacity=".53" stroke-width="2"/><circle cx="5.5" cy="80.5" r="5" stroke="#00237C" stroke-opacity=".54"/><path d="M411.576 168.87a169.66 169.66 0 014.995 13.785l-2.862.9a168.888 168.888 0 013.731 13.924l2.929-.652a169.903 169.903 0 012.566 14.436l-2.973.397a165.471 165.471 0 011.281 14.337l2.997-.136c.224 4.91.23 9.799.026 14.654l-2.998-.126a164.096 164.096 0 01-1.234 14.344l2.975.388a167.824 167.824 0 01-2.53 14.44l-2.929-.646a165.44 165.44 0 01-3.712 13.91l2.863.899a169.113 169.113 0 01-4.995 13.78l-2.774-1.144a165.719 165.719 0 01-6.062 13.06l2.664 1.38a168.737 168.737 0 01-7.3 12.712l-2.534-1.606a165.53 165.53 0 01-8.226 11.817l2.386 1.819a168.309 168.309 0 01-9.388 11.257l-2.218-2.02a164.25 164.25 0 01-10.15 10.209l2.033 2.206a166.272 166.272 0 01-11.207 9.45l-1.831-2.376a163.168 163.168 0 01-11.779 8.275l1.615 2.529a166.43 166.43 0 01-12.687 7.334l-1.385-2.661a163.766 163.766 0 01-13.046 6.078l1.146 2.773a168.375 168.375 0 01-13.781 5.006l-.9-2.862a167.737 167.737 0 01-13.922 3.731l.651 2.928a167.921 167.921 0 01-14.438 2.555l-.394-2.974a163.79 163.79 0 01-14.337 1.259l.131 2.997c-4.91.214-9.799.209-14.655-.008l.135-2.997a163.61 163.61 0 01-14.338-1.277l-.398 2.973a166.627 166.627 0 01-14.431-2.58l.658-2.927a164.54 164.54 0 01-13.895-3.767l-.91 2.859a168.226 168.226 0 01-13.759-5.055l1.156-2.768a166.226 166.226 0 01-13.032-6.121l-1.392 2.657a168.939 168.939 0 01-12.678-7.359l1.617-2.526a165.766 165.766 0 01-11.779-8.28l-1.83 2.378a168.843 168.843 0 01-11.216-9.437l2.029-2.209a165.69 165.69 0 01-10.169-10.191l-2.214 2.024a167.464 167.464 0 01-9.41-11.241l2.382-1.823a164.433 164.433 0 01-8.241-11.805l-2.533 1.608a167.21 167.21 0 01-7.305-12.704l2.664-1.38a164.888 164.888 0 01-6.059-13.057l-2.774 1.143a169.948 169.948 0 01-4.995-13.785l2.862-.9a168.73 168.73 0 01-3.731-13.924l-2.928.652a169.789 169.789 0 01-2.567-14.436l2.974-.397a165.107 165.107 0 01-1.282-14.338l-2.997.137c-.223-4.91-.23-9.799-.025-14.654l2.997.126a164.33 164.33 0 011.235-14.344l-2.975-.388c.634-4.864 1.48-9.682 2.53-14.44l2.929.646a165.321 165.321 0 013.71-13.91l-2.861-.899a168.532 168.532 0 014.995-13.78l2.773 1.144c1.832-4.443 3.855-8.8 6.062-13.06l-2.664-1.38a169.428 169.428 0 017.3-12.712l2.535 1.606a165.517 165.517 0 018.225-11.817l-2.385-1.819a167.755 167.755 0 019.388-11.257l2.217 2.02a164.528 164.528 0 0110.15-10.209l-2.033-2.206a166.457 166.457 0 0111.207-9.45l1.831 2.376a163.076 163.076 0 0111.779-8.275l-1.615-2.529a166.226 166.226 0 0112.687-7.334l1.386 2.66a163.714 163.714 0 0113.045-6.078l-1.146-2.772a168.264 168.264 0 0113.781-5.006l.901 2.862a167.394 167.394 0 0113.921-3.73l-.65-2.93a168.166 168.166 0 0114.438-2.554l.393 2.974a163.712 163.712 0 0114.337-1.26L249.199 65c4.91-.214 9.799-.21 14.655.008l-.134 2.997c4.816.216 9.6.644 14.338 1.277l.397-2.973c4.862.65 9.676 1.512 14.431 2.58l-.657 2.927a164.504 164.504 0 0113.894 3.767l.911-2.859a168.191 168.191 0 0113.758 5.055l-1.156 2.768a165.757 165.757 0 0113.032 6.121l1.392-2.657a169.01 169.01 0 0112.678 7.358l-1.617 2.527a166.19 166.19 0 0111.78 8.279l1.829-2.377a168.541 168.541 0 0111.217 9.437l-2.03 2.209a165.13 165.13 0 0110.169 10.191l2.214-2.024a168.012 168.012 0 019.411 11.24l-2.383 1.824a164.125 164.125 0 018.242 11.805l2.532-1.608a167.21 167.21 0 017.305 12.704l-2.663 1.38a165.072 165.072 0 016.058 13.057l2.774-1.143z" stroke="#fff" stroke-width="6" stroke-dasharray="15 15"/><circle cx="77" cy="81" r="8" stroke="#00237C" stroke-opacity=".54" stroke-width="2"/><g clip-path="url(#clip0)"><path d="M373.217 237.409l7.961 29.71-77.991 20.898a115.29 115.29 0 01.625-16.09l8.171-2.189c4.482-1.201 6.379-8.874 4.189-17.044l57.045-15.285z" fill="#C03A2B"/><path d="M372.221 233.695l2.985 11.141-51.993 13.932-3.981-14.855 48.28-12.937a3.846 3.846 0 014.709 2.719z" fill="#393F4A"/><path d="M298.529 122.085l25.997-6.966 11.941 44.566-25.996 6.966-11.942-44.566z" fill="#F5EFCA"/><path d="M279.961 127.061l22.283-5.971 11.941 44.566-22.283 5.97-11.941-44.565z" fill="#285680"/><path d="M340.377 114.853l9.951 37.138a3.846 3.846 0 01-2.719 4.709l-14.855 3.98-11.942-44.566 14.856-3.98a3.844 3.844 0 014.709 2.719z" fill="#C03A2B"/><path d="M295.883 186.481l55.707-14.926a3.844 3.844 0 014.709 2.718l9.951 37.139a3.844 3.844 0 01-2.719 4.709l-55.707 14.926-11.941-44.566z" fill="#F5EFCA"/><path d="M337.267 207.236a7.69 7.69 0 10-3.98-14.856 7.69 7.69 0 003.98 14.856zm-198.608-57.877l56.65 152a22.425 22.425 0 00-10.371 9.426c-2.973 5.096-18.824 15.314-17.172 21.479l-41.795-155.981c-2.917-10.869 2.448-22.255 12.688-26.924z" fill="#C03A2B"/><path d="M331.174 288.479l2.985 11.141c1.629 6.151-2.015 12.462-8.156 14.127l-3.714.995c-.813-.658-12.064-2.539-12.813-3.254a45.62 45.62 0 01-4.744-5.376 37.245 37.245 0 01-6.306-12.839l32.748-4.794z" fill="#B19046"/><path d="M285.398 117.643l37.814 141.125c1.094 4.085-.357 12.037-4.442 13.131l-133.787 35.49a19.765 19.765 0 00-3.588 1.32l-.037.01-42.7-159.36a20.982 20.982 0 013.624-1.33l133.698-35.824a7.714 7.714 0 019.418 5.438z" fill="#F0C419"/><path d="M321.917 313.349c-131.729 35.297-124.408 33.458-126.697 33.725-10.918 2.464-21.894-3.885-25.201-14.578-3.307-10.693 2.168-22.13 12.57-26.26 14.466-3.876-49.923 13.042 128.14-34.67-6.493 14.831-1.848 32.182 11.188 41.783z" fill="#F5EFCA"/><path d="M250.464 314.085l-63.135 16.917a3.846 3.846 0 01-1.99-7.428l63.135-16.917a3.846 3.846 0 011.99 7.428z" fill="#CBB292"/><path d="M279.827 201.73a52.15 52.15 0 01-11.609 26.197l-.01-.037a48.554 48.554 0 00-11.944.733 51.337 51.337 0 00-15.144 5.132 37.386 37.386 0 00-13.141 12.756 51.662 51.662 0 01-14.904-2.295l-.01-.037a48.56 48.56 0 00-.265-7.97 45.668 45.668 0 00-3.958-10.761c-2.904-7.422.777-14.777-.572-22.337a6.249 6.249 0 00-5.601-5.306c-4.105-.611-8.321.439-12.359-.072a18.016 18.016 0 01-13.248-10.819 51.607 51.607 0 015.024-15.716 95.212 95.212 0 0022.032-8.689 25.453 25.453 0 0014.186-18.808 51.72 51.72 0 0120.304.013l.01.037-.028.047a39.919 39.919 0 01-12.531 15.18 16.465 16.465 0 00-6.619 12.879c.595 7.125 8.236 9.496 14.294 9.226 7.204-.299 14.31 1.858 16.397 9.498.729 3.254.874 6.612.428 9.916a37.233 37.233 0 00-.32 12.027 7.382 7.382 0 0010.776 4.715 21.492 21.492 0 007.688-5.921c.248-.265.495-.53.732-.833a36.427 36.427 0 0110.392-8.755z" fill="#2FA8CC"/><path d="M208.842 225.447a45.587 45.587 0 013.958 10.762c.307 2.644.396 5.31.265 7.969l.01.037c-24.505-7.59-39.801-31.93-36.013-57.301a18.02 18.02 0 0013.249 10.819c4.037.51 8.254-.54 12.358.072a6.249 6.249 0 015.602 5.306c1.349 7.559-2.333 14.915.571 22.336z" fill="#4FBA6F"/><path d="M218.304 143.701a25.448 25.448 0 01-14.187 18.807 95.135 95.135 0 01-22.032 8.69 51.757 51.757 0 0136.219-27.497zm49.905 84.189l.01.037a51.906 51.906 0 01-40.239 18.584 37.378 37.378 0 0113.141-12.756 51.337 51.337 0 0115.144-5.132 48.457 48.457 0 0111.944-.733z" fill="#B0D3F0"/><path d="M278.54 181.178a52 52 0 011.288 20.552 36.41 36.41 0 00-10.392 8.755c-.237.303-.484.568-.732.833a21.492 21.492 0 01-7.688 5.921 7.382 7.382 0 01-10.776-4.715c-.546-4-.438-8.062.319-12.027a28.164 28.164 0 00-.427-9.916c-2.088-7.641-9.193-9.797-16.398-9.498-6.057.27-13.698-2.101-14.294-9.226a16.469 16.469 0 016.62-12.879 39.937 39.937 0 0012.531-15.18l.027-.047-.01-.037a51.906 51.906 0 0139.932 37.464z" fill="#4FBA6F"/><path d="M278.38 254.859l-63.135 16.917a3.846 3.846 0 01-1.99-7.428l63.135-16.917a3.846 3.846 0 011.99 7.428z" fill="#F29C1F"/><path d="M183.713 312.307c1.582-.782-7.183 1.686 132.338-35.699 6.141-1.665 9.784-7.976 8.156-14.127l-.995-3.713a7.714 7.714 0 01-5.438 9.418L184.077 304.01a22.837 22.837 0 00-6.033 41.66 24.551 24.551 0 0018.531 2.756l129.427-34.68c6.141-1.665 9.784-7.976 8.156-14.126l-2.985-11.142a3.844 3.844 0 00-7.428 1.99l2.985 11.142a3.844 3.844 0 01-2.718 4.709l-129.093 34.59a16.082 16.082 0 01-19.876-11.193 15.356 15.356 0 018.67-17.409zm135.552-.338a17.516 17.516 0 01-.608-.633c.204.212.396.423.608.633z" fill="#E64C3C"/><path d="M235.371 353.527l-8.869-1.814a3.845 3.845 0 00-3.321.889l-6.773 6.007a3.845 3.845 0 01-6.263-1.877l-8.956-33.424 29.711-7.961 8.956 33.424a3.844 3.844 0 01-4.485 4.756z" fill="#C03A2B"/><path d="M379.187 259.691l2.985 11.142a3.846 3.846 0 01-2.719 4.709l-70.562 18.907a36.983 36.983 0 01-.75-15.721l71.046-19.037z" fill="#F0C419"/></g><path d="M8.391 304.018c5.577 9.175 15.452 15.394 25.711 11.456 10.26-3.938 15.382-15.452 11.442-25.718-3.94-10.265-15.89-13.359-25.711-11.455-9.821 1.903-17.018 16.542-11.442 25.717z" fill="#CD142B"/><defs><clipPath id="clip0"><path fill="#fff" transform="rotate(-15 644.873 -378.745)" d="M0 0h223v223H0z"/></clipPath></defs></svg>