<svg width="121" height="300" fill="none" xmlns="http://www.w3.org/2000/svg"><circle cx="104.861" cy="94.86" r="11.5" transform="rotate(-165 104.861 94.86)" stroke="#CD142B" stroke-opacity=".53" stroke-width="2"/><circle cx="65" cy="291" r="8" stroke="#00237C" stroke-opacity=".54" stroke-width="2"/><path d="M50.32 165.319c-3.758 11.905-16.041 16.861-29.091 13.001-13.05-3.859-19.14-18.168-12.919-29.127 6.222-10.96 16.714-16.756 29.091-13.002 12.377 3.753 16.677 17.222 12.919 29.128z" fill="#CD142B"/><path d="M38.096 20.095c-2.024 6.41-8.638 9.079-15.665 7-7.026-2.077-10.306-9.782-6.956-15.684 3.35-5.9 9-9.022 15.664-7 6.665 2.02 8.98 9.273 6.957 15.684z" fill="#00237C"/></svg>