<svg width="149" height="149" viewBox="0 0 149 149" fill="none" xmlns="http://www.w3.org/2000/svg">
<path d="M51.3796 0V113.034H48.8106C41.7166 113.034 35.9658 118.785 35.9658 125.879V12.8448C35.9658 5.75082 41.7166 0 48.8106 0H51.3796Z" fill="#B49ACA"/>
<path d="M136.155 5.13793V107.897C136.146 110.731 133.851 113.026 131.017 113.034H51.3789V0H131.017C133.851 0.00846423 136.146 2.30384 136.155 5.13793Z" fill="#7D6599"/>
<path d="M128.448 138.724H49.3491C42.5987 138.833 36.8509 133.838 36.0162 127.138C35.974 126.72 35.9568 126.3 35.9648 125.879C35.9648 118.785 41.7156 113.035 48.8096 113.035H128.448C124.183 113.035 120.741 118.789 120.741 125.879C120.741 132.97 124.183 138.724 128.448 138.724Z" fill="#F5EFCA"/>
<path d="M131.017 110.466H51.3793C42.8788 110.495 35.9951 117.379 35.9655 125.879C35.9576 126.382 35.9782 126.885 36.0272 127.385C37.0116 135.39 43.8534 141.378 51.9188 141.293H133.586C135.005 141.293 136.155 140.143 136.155 138.724V105.328C136.147 108.162 133.851 110.457 131.017 110.466ZM41.1369 126.845C41.1066 126.524 41.0955 126.202 41.1035 125.879C41.126 120.214 45.7135 115.626 51.3793 115.603H123.863C119.701 121.822 119.701 129.937 123.863 136.155H51.9188C46.4764 136.256 41.8304 132.244 41.1369 126.845Z" fill="#5D4C72"/>
<path d="M61.6553 125.879H87.3449V146.431C87.3451 147.356 86.8476 148.21 86.0426 148.667C85.2375 149.123 84.2493 149.111 83.4555 148.635L75.8205 144.055C75.0076 143.568 73.9926 143.568 73.1797 144.055L65.5447 148.635C64.7509 149.111 63.7627 149.123 62.9576 148.667C62.1526 148.21 61.6551 147.356 61.6553 146.431V125.879Z" fill="#E64C3C"/>
<path d="M78.6359 47.834C77.5892 51.4928 77.0617 55.2805 77.0688 59.0861V72.3419C70.9033 69.85 66.793 65.4314 66.793 60.3705C66.793 54.8986 71.5969 50.1461 78.6359 47.834Z" fill="#3D324C"/>
<path d="M110.465 60.371C110.465 65.4318 106.355 69.8504 100.189 72.3423L100.19 59.0865C100.18 55.7637 101.106 52.5053 102.861 49.6841C107.511 52.253 110.465 56.0808 110.465 60.371Z" fill="#3D324C"/>
<path d="M35.9655 102.759V125.879C27.3184 125.886 18.9604 122.766 12.4338 117.093C11.7916 116.554 11.1493 115.963 10.5328 115.346C9.91621 114.73 9.32535 114.088 8.78586 113.445C3.68941 107.588 0.641086 100.228 0.102759 92.4827C0.0256897 91.6349 0 90.7872 0 89.9137V55.2327C0 48.8481 5.17574 43.6724 11.5603 43.6724C17.9449 43.6724 23.1207 48.8481 23.1207 55.2327V89.9137C23.1145 90.7768 23.2006 91.638 23.3776 92.4827C23.7082 94.0916 24.3354 95.6248 25.2272 97.0041C26.201 98.4403 27.439 99.6782 28.8752 100.652C30.9864 102.022 33.4485 102.754 35.9655 102.759Z" fill="#FF5364"/>
<path d="M23.3776 92.4826H0.102759C0.0256897 91.6349 0 90.7871 0 89.9137V87.3447H23.1207V89.9137C23.1145 90.7767 23.2006 91.6379 23.3776 92.4826Z" fill="#FB7B76"/>
<path d="M0 66.793H23.1207V71.9309H0V66.793Z" fill="#FB7B76"/>
<path d="M28.8754 100.652L12.4341 117.093C11.7918 116.554 11.1496 115.963 10.533 115.346C9.91648 114.73 9.32562 114.088 8.78613 113.445L25.2275 97.0039C26.2013 98.4401 27.4393 99.678 28.8754 100.652Z" fill="#FB7B76"/>
<path d="M97.6203 128.448H53.9479C52.5291 128.448 51.3789 127.298 51.3789 125.88C51.3789 124.461 52.5291 123.311 53.9479 123.311H97.6203C99.0391 123.311 100.189 124.461 100.189 125.88C100.189 127.298 99.0391 128.448 97.6203 128.448Z" fill="#CBB292"/>
<path d="M149 29.5433C149.004 32.6105 147.788 35.5533 145.619 37.7222C143.45 39.8911 140.507 41.1077 137.44 41.1036H118.173C117.312 41.0933 116.452 41.1621 115.604 41.3091C114.734 41.4306 113.875 41.6195 113.035 41.8743C110.421 42.6421 108.02 44.005 106.022 45.8562C105.379 46.4303 104.786 47.0576 104.249 47.7315C103.727 48.3377 103.262 48.9914 102.862 49.6839C102.817 49.7469 102.783 49.8162 102.759 49.8895C101.515 51.9108 100.702 54.1672 100.37 56.5174C100.244 57.3679 100.184 58.2267 100.19 59.0864V72.3422C92.7517 75.2194 84.5077 75.2194 77.0693 72.3422V59.0864C77.0693 58.2129 77.095 57.3652 77.1721 56.5174C77.3274 53.5766 77.8187 50.6633 78.6364 47.8343C80.1393 42.5296 82.6997 37.5836 86.1635 33.2939C86.6773 32.626 87.2424 31.9581 87.8333 31.3158C88.27 30.8534 88.6811 30.4424 89.0921 30.0057L89.6316 29.4662C96.0203 23.3146 104.233 19.4023 113.035 18.3169C113.883 18.1884 114.73 18.1114 115.604 18.06C116.477 18.0086 117.299 17.9829 118.173 17.9829H125.88C125.874 22.9544 129.433 27.2147 134.326 28.0935C139.22 28.9722 144.039 26.2166 145.763 21.5538C147.845 23.6914 149.007 26.5594 149 29.5433Z" fill="#FF5364"/>
<path d="M146.431 17.983C146.435 19.2047 146.208 20.4162 145.763 21.5538C143.882 26.4957 138.54 29.185 133.45 27.7527C128.36 26.3203 125.204 21.24 126.176 16.0423C127.149 10.8447 131.927 7.24835 137.191 7.75269C142.454 8.25702 146.463 12.6953 146.431 17.983Z" fill="white"/>
<path d="M136.155 20.552C137.574 20.552 138.724 19.4018 138.724 17.983C138.724 16.5642 137.574 15.4141 136.155 15.4141C134.736 15.4141 133.586 16.5642 133.586 17.983C133.586 19.4018 134.736 20.552 136.155 20.552Z" fill="#2C2F38"/>
<path d="M106.021 45.8563C105.379 46.4304 104.786 47.0578 104.249 47.7317C103.726 48.3378 103.262 48.9915 102.861 49.6841C102.817 49.7471 102.782 49.8163 102.759 49.8896L86.1631 33.2941C86.6769 32.6261 87.242 31.9582 87.8329 31.316C88.2696 30.8535 88.6807 30.4425 89.0917 30.0058L89.6312 29.4663L106.021 45.8563Z" fill="#FB7B76"/>
<path d="M100.37 56.5171C100.244 57.3676 100.184 58.2264 100.19 59.0861V61.655H77.0693V59.0861C77.0693 58.2126 77.095 57.3649 77.1721 56.5171H100.37Z" fill="#FB7B76"/>
<path d="M118.172 17.9829V41.1036C117.311 41.0933 116.451 41.1621 115.603 41.3091C114.733 41.4306 113.875 41.6195 113.034 41.8743V18.3169C113.882 18.1884 114.73 18.1114 115.603 18.06C116.477 18.0086 117.299 17.9829 118.172 17.9829Z" fill="#FB7B76"/>
</svg>
