<svg width="1440" height="2993" viewBox="0 0 1440 2993" fill="none" xmlns="http://www.w3.org/2000/svg">
<path d="M2129.07 997.73C2051.67 1039.86 1979.13 1090.04 1915.58 1151.78C1873.86 1192.33 1831.67 1237.97 1802.12 1288.09C1752.13 1372.86 1729.9 1475.69 1705.13 1572.5C1677.83 1679.24 1651.15 1788.04 1605.55 1886.53C1580.94 1939.68 1546.77 1985.5 1495.02 2013.67C1446.44 2040.14 1393.26 2052.13 1339.32 2053.08C1225.79 2055.05 1113.83 2020.67 1006.36 1989.1C948.625 1972.13 891.067 1954.49 832.838 1939.28C780.43 1925.59 724.916 1909.69 670.304 1908.61C518.209 1905.65 448.665 1915.13 306.299 1967.71C256.088 1986.26 185.36 2009.61 137.573 2036.78C37.3962 2093.75 -270.937 2218.86 -351.347 2250.67C-763.637 2372.61 -658.915 2317.1 -732.857 2312.59C-748.822 2311.62 -765.88 2309.86 -780.169 2304.01C-800.217 2295.8 -828.694 2279.19 -824.382 2250.67C-824.148 2249.04 -823.772 2247.42 -823.259 2245.85C-814.486 2218.97 -782.826 2201.33 -761.233 2187.99C-747.569 2179.7 -733.503 2172.17 -719.097 2165.46C-570.88 2094.88 -68.0443 1950.66 89.9082 1906.9C251.324 1862.31 416.141 1823.68 580.638 1804.49C672.249 1793.81 757.419 1792.91 846.124 1818.79C920.691 1840.58 992.522 1871.24 1064.65 1899.45C1154.06 1934.44 1249.34 1972.01 1347.4 1969.18C1399.5 1967.67 1452.22 1951.37 1496.76 1921.62C1541.73 1891.65 1566.68 1840.01 1580.44 1789.49C1613.15 1669.43 1606.93 1537.71 1619.94 1412.14C1626.11 1352.62 1635.17 1292.42 1655.46 1235.77C1675.18 1180.74 1707.88 1138.02 1745.56 1095.54C1796.81 1037.72 1853.53 983.253 1915.61 940.026C1936.55 925.49 1958.89 913.355 1982.23 903.837C2044.17 878.486 2112.49 859.791 2179.1 872.426C2200.13 876.414 2223.92 884.139 2239.98 898.995C2285.44 941.042 2153.08 985.332 2129.07 997.73Z" fill="#00237C"/>
<path d="M2011.54 835.924C1923.06 880.154 1837.7 931.509 1764.98 999.494C1721.12 1040.51 1674.83 1088.66 1650.33 1143.71C1608.29 1238.14 1608.58 1353.35 1604.3 1457.88C1599.68 1570.61 1604.71 1696.7 1564.12 1800.28C1544.06 1851.53 1512.48 1888.64 1461.59 1911.44C1416.76 1931.38 1368.14 1939.26 1320.25 1934.33C1227.8 1925.13 1141.27 1881.07 1058.49 1841.52C971.643 1800.09 882.475 1754.34 786.59 1739.18C718.613 1728.41 646.269 1737.61 577.978 1745.53C475.049 1757.46 372.569 1775.86 270.887 1796.54C205.964 1809.72 140.781 1823.36 76.1503 1838.28C-52.341 1867.94 -179.829 1904.35 -307.927 1937.03C-402.529 1961.18 -834.279 2089.87 -931.256 2084.48C-944.716 2083.73 -959.317 2081.83 -971.229 2075.57C-996.408 2062.32 -975.42 2028.87 -963.398 2015.93C-961.623 2014.08 -959.751 2012.34 -957.79 2010.71C-924.522 1982.22 -881.03 1965.55 -841.288 1951.35C-822.75 1944.7 -803.516 1938.61 -784.564 1932.78C-604.505 1877.41 -88.5543 1733.79 96.0937 1697.81C266.732 1664.56 439.685 1634.38 612.026 1622.29C697.406 1616.31 776.247 1615.34 856.96 1645.08C922.954 1669.4 984.92 1704.03 1047.17 1736.42C1125.07 1776.96 1208.52 1820.5 1298.16 1824.2C1346.46 1826.22 1397.18 1813.33 1439.61 1787.62C1486.76 1759.05 1511.13 1709.08 1523.3 1657.6C1551.89 1536.52 1534.86 1402.23 1533.05 1275.13C1532.14 1212.21 1536.23 1179.43 1550.52 1115.66C1567.03 1056.91 1595.17 994.647 1621.82 959.26C1666.7 899.684 1717.23 841.602 1779.22 801.818C1800.94 788.065 1823.44 775.764 1846.59 764.991C1920.65 730.196 2003.8 704.618 2085.25 706.181C2105.79 706.589 2132.73 709.372 2148.48 724.013C2197.34 769.444 2035.16 824.556 2011.53 835.921" fill="#CD142B"/>
</svg>
