<svg width="1440" height="2562" viewBox="0 0 1440 2562" fill="none" xmlns="http://www.w3.org/2000/svg">
<path d="M-688.981 1044.76C-606.359 1069.33 -530.062 1100.69 -465.109 1141.98C-422.458 1169.1 -379.829 1200.14 -351.885 1236C-304.624 1296.64 -290.514 1374.28 -272.902 1446.96C-253.488 1527.1 -234.998 1608.91 -194.13 1680.69C-172.072 1719.43 -138.481 1751.46 -83.2459 1767.88C-31.3822 1783.33 27.1814 1787.02 87.7678 1782.04C215.289 1771.55 344.899 1732.94 469.163 1696.99C535.919 1677.68 602.548 1657.86 669.674 1639.86C730.089 1623.66 794.234 1605.41 855.793 1598.78C1027.23 1580.36 1104.47 1580.37 1259.08 1606.19C1313.61 1615.3 1390.71 1625.97 1441.6 1642.04C1548.27 1675.74 1750.61 1816.59 1837.71 1832.82C2288.66 1884 2308.04 1775.71 2391.71 1764.37C2409.78 1761.93 2429.16 1758.75 2445.85 1752.68C2469.28 1744.18 2503.08 1728.24 2501.25 1706.51C2501.16 1705.26 2500.91 1704.05 2500.5 1702.88C2493.47 1682.89 2459.72 1672.53 2436.84 1664.44C2422.35 1659.44 2407.32 1655.07 2391.82 1651.37C2232.54 1612.17 1682.07 1553.26 1508.99 1535.96C1332.1 1518.37 1150.75 1505.79 967.71 1508.29C865.768 1509.68 770.037 1518.01 667.491 1547.54C581.286 1572.39 497.219 1603.85 413.078 1633.44C308.772 1670.12 197.596 1709.44 87.5614 1717.63C29.1059 1721.98 -28.4865 1714.89 -75.4481 1696.46C-122.866 1677.91 -145.47 1640.38 -155.598 1602.54C-179.676 1512.61 -158.728 1409.49 -160.061 1313.19C-160.692 1267.55 -164.51 1221.67 -181.341 1179.75C-197.695 1139.03 -229.962 1109.27 -267.853 1080.22C-319.386 1040.67 -377.438 1004.31 -442.706 977.26C-464.727 968.171 -488.576 961.098 -513.827 956.167C-580.832 943.009 -655.717 935.704 -731.992 952.59C-756.084 957.92 -783.667 966.45 -803.309 979.708C-858.912 1017.23 -714.682 1037.66 -688.981 1044.76Z" fill="#00237C"/>
<path d="M-539.605 906.442C-444.745 931.474 -354.144 962.38 -279.529 1007.56C-234.519 1034.82 -187.546 1067.37 -165.813 1107.6C-128.52 1176.6 -141.052 1266.25 -147.303 1347.11C-154.051 1434.31 -173.069 1532.93 -138.377 1609.21C-121.24 1646.95 -89.6385 1672.47 -34.7918 1684.81C13.5274 1695.58 67.4029 1696.56 121.8 1687.65C226.8 1670.7 328.815 1627.25 426.145 1587.72C528.249 1546.29 633.42 1501.26 742.91 1479.3C820.532 1463.72 900.953 1463.22 976.949 1462.13C1091.49 1460.51 1204.85 1463.97 1317.06 1469.28C1388.71 1472.66 1460.6 1476.36 1531.74 1481.12C1673.16 1490.58 1812.75 1505.39 1953.41 1517.25C2057.29 1526.01 2529.42 1580.37 2639.1 1565.91C2654.33 1563.89 2670.96 1560.87 2685.02 1554.74C2714.76 1541.76 2694.69 1517.97 2682.53 1509.17C2680.73 1507.92 2678.81 1506.77 2676.77 1505.71C2642.36 1487.07 2595.19 1478.71 2551.98 1471.88C2531.83 1468.67 2510.84 1465.97 2490.13 1463.44C2293.41 1439.44 1728.12 1382.39 1524.18 1373.96C1335.72 1366.18 1144.32 1361.02 951.698 1369.88C856.269 1374.27 767.667 1381.87 673.704 1413.56C596.876 1439.47 523.489 1472.97 450.017 1504.77C358.077 1544.55 259.57 1587.26 158.321 1599.64C103.772 1606.33 48.0613 1601.68 3.04778 1586.17C-46.9651 1568.94 -69.098 1532.65 -77.3311 1493.89C-96.674 1402.73 -63.284 1296.46 -47.781 1197.4C-40.0897 1148.36 -41.2196 1123.3 -50.5448 1075.2C-62.8967 1031.25 -87.9536 985.798 -114.193 961.095C-158.369 919.504 -209.072 879.677 -274.601 855.296C-297.58 846.899 -321.597 839.715 -346.504 833.788C-426.138 814.567 -516.981 803.479 -608.794 813.325C-631.945 815.818 -662.549 820.838 -681.817 833.895C-741.608 874.413 -564.972 900.101 -539.592 906.438" fill="#CD142B"/>
</svg>
