<svg width="476" height="512" viewBox="0 0 476 512" fill="none" xmlns="http://www.w3.org/2000/svg">
<g clip-path="url(#clip0)">
<path d="M255.992 53.326C250.102 53.326 245.336 48.545 245.336 42.654V10.655C245.336 4.764 250.102 0 255.992 0C261.883 0 266.648 4.765 266.648 10.655V42.654C266.648 48.545 261.883 53.326 255.992 53.326Z" fill="#434A54"/>
<path d="M296.521 78.919L264.523 36.264C262.507 33.577 259.351 31.999 255.992 31.999C252.633 31.999 249.477 33.577 247.461 36.264L215.462 78.919C213.04 82.153 212.65 86.481 214.462 90.091C216.259 93.7 219.962 95.997 223.993 95.997H287.99C292.021 95.997 295.724 93.7 297.521 90.091C299.334 86.481 298.959 82.153 296.521 78.919Z" fill="#656D78"/>
<path d="M287.99 74.653H223.993C218.103 74.653 213.337 79.434 213.337 85.325V127.996C213.337 133.887 218.103 138.651 223.993 138.651H287.99C293.881 138.651 298.646 133.886 298.646 127.996V85.325C298.646 79.434 293.881 74.653 287.99 74.653Z" fill="#CD142B"/>
<path d="M328.521 164.261L296.521 121.59C294.505 118.902 291.349 117.324 287.99 117.324H223.993C220.634 117.324 217.478 118.902 215.462 121.59L183.463 164.261C181.041 167.48 180.651 171.807 182.463 175.416C184.26 179.041 187.963 181.322 191.994 181.322H319.99C324.021 181.322 327.724 179.041 329.521 175.416C331.334 171.806 330.959 167.479 328.521 164.261Z" fill="#FC6E51"/>
<path d="M319.99 319.99H191.994C186.103 319.99 181.338 324.756 181.338 330.646V501.312C181.338 507.203 186.103 511.984 191.994 511.984H319.99C325.881 511.984 330.646 507.203 330.646 501.312V330.646C330.646 324.756 325.881 319.99 319.99 319.99Z" fill="#CD142B"/>
<path d="M319.99 159.995H191.994C186.103 159.995 181.338 164.761 181.338 170.651V202.65C181.338 208.54 186.103 213.321 191.994 213.321H319.99C325.881 213.321 330.646 208.54 330.646 202.65V170.651C330.646 164.761 325.881 159.995 319.99 159.995Z" fill="#CD142B"/>
<path d="M234.649 373.316C228.774 373.316 223.993 378.082 223.993 383.988V511.984H245.336V383.988C245.336 378.082 240.555 373.316 234.649 373.316Z" fill="#FC6E51"/>
<path d="M277.336 373.316C271.43 373.316 266.648 378.082 266.648 383.988V511.984H287.99V383.988C287.99 378.082 283.211 373.316 277.336 373.316Z" fill="#FC6E51"/>
<path d="M331.334 181.322H180.651C174.776 181.322 169.995 186.088 169.995 191.994V341.317C169.995 347.208 174.776 351.989 180.651 351.989H331.334C337.209 351.989 341.99 347.208 341.99 341.317V191.994C341.99 186.088 337.209 181.322 331.334 181.322Z" fill="#FC6E51"/>
<path d="M255.992 202.65C220.712 202.65 191.994 231.368 191.994 266.648C191.994 301.943 220.712 330.646 255.992 330.646C291.271 330.646 319.99 301.943 319.99 266.648C319.99 231.368 291.271 202.65 255.992 202.65Z" fill="#E6E9ED"/>
<path d="M255.992 277.319C250.102 277.319 245.336 272.538 245.336 266.648V223.993C245.336 218.087 250.102 213.321 255.992 213.321C261.883 213.321 266.648 218.087 266.648 223.993V266.648C266.648 272.538 261.883 277.319 255.992 277.319Z" fill="#424953"/>
<path d="M286.164 307.49C283.43 307.49 280.711 306.443 278.617 304.365L248.461 274.194C244.273 270.023 244.273 263.273 248.461 259.101C252.617 254.945 259.367 254.945 263.523 259.101L293.709 289.272C297.865 293.444 297.865 300.193 293.709 304.365C291.615 306.443 288.896 307.49 286.164 307.49Z" fill="#424953"/>
</g>
<defs>
<clipPath id="clip0">
<rect width="511.984" height="511.984" fill="white"/>
</clipPath>
</defs>
</svg>
