<svg width="205" height="205" viewBox="0 0 205 205" fill="none" xmlns="http://www.w3.org/2000/svg">
<g clip-path="url(#clip0)">
<path d="M162.959 16.416H42.041C18.859 16.416 0 35.275 0 58.457V126.101C0 149.283 18.859 168.142 42.041 168.142H48.2799L62.902 186.693C64.0422 188.138 65.7798 188.981 67.6191 188.981C69.4584 188.981 71.1976 188.138 72.3362 186.693L86.9583 168.142H162.959C186.141 168.142 205 149.283 205 126.101V58.457C205 35.275 186.141 16.416 162.959 16.416V16.416Z" fill="#6787F5"/>
<path d="M162.959 16.416H102.5V168.142H162.959C186.141 168.142 205 149.283 205 126.101V58.457C205 35.275 186.141 16.416 162.959 16.416Z" fill="#38478A"/>
<path d="M79.9814 176.994L86.9586 168.142L79.9814 176.994Z" fill="white"/>
<path d="M205 65.7657H154.502L192.092 28.1759C184.53 20.8985 174.259 16.416 162.959 16.416H152.891L129.023 40.2846V16.416H75.9788V40.2846L52.1102 16.416H42.041C30.7409 16.416 20.47 20.8985 12.9079 28.1759L50.4977 65.7657H0V118.81H50.4977L14.3187 154.987L12.9157 156.39C20.4778 163.664 30.7456 168.142 42.041 168.142H48.2799L49.9753 170.293L75.3344 144.932L74.9231 168.142H129.021V144.356L152.729 168.142H162.959C174.206 168.142 184.435 163.703 191.986 156.485L190.572 155.065L154.437 118.81H205V65.7657Z" fill="white"/>
<path d="M205 65.7657H154.502L192.092 28.1759C184.53 20.8985 174.259 16.416 162.959 16.416H152.891L129.023 40.2846V16.416H102.5V168.142H129.021V144.356L152.729 168.142H162.959C174.206 168.142 184.435 163.703 191.986 156.485L190.572 155.065L154.437 118.81H205V65.7657Z" fill="#C7D3ED"/>
<path d="M117.009 77.7774V16.416H87.9905V77.7774H0V106.798H87.9905L86.9583 168.142H117.009V106.798H205V77.7774H117.009Z" fill="#FF337A"/>
<path d="M117.009 77.7774V16.416H102.5V168.142H117.009V106.798H205V77.7774H117.009Z" fill="#D1005B"/>
<path d="M79.981 69.7677V61.275L35.6127 16.9067C31.0629 17.6074 26.7509 19.0416 22.8018 21.0827L71.4883 69.7677H79.981Z" fill="#FF337A"/>
<path d="M182.198 21.0827C178.249 19.0416 173.937 17.6074 169.387 16.9067L125.019 61.275V69.7677H133.511L182.198 21.0827Z" fill="#D1005B"/>
<path d="M22.8125 163.481C26.7632 165.521 31.0752 166.953 35.6266 167.654L79.9808 123.298V114.806H71.4881L22.8125 163.481Z" fill="#FF337A"/>
<path d="M125.019 114.806V123.323L169.221 167.676C173.78 166.991 178.103 165.574 182.063 163.545L133.488 114.806H125.019Z" fill="#D1005B"/>
</g>
<defs>
<clipPath id="clip0">
<rect width="205" height="205" fill="white"/>
</clipPath>
</defs>
</svg>
