<svg width="257" height="257" viewBox="0 0 257 257" fill="none" xmlns="http://www.w3.org/2000/svg">
<g clip-path="url(#clip0)">
<path d="M118.04 0.419137C56.3685 5.29327 6.19584 54.8056 0.550704 116.41C-2.263 147.109 5.7616 175.804 21.1949 199.186L3.16501 248.362C1.88888 251.849 5.20329 255.266 8.72596 254.091L59.7936 237.067C83.1142 251.854 111.491 259.382 141.781 256.329C202.898 250.174 251.733 200.206 256.58 138.973C262.855 59.7684 197.244 -5.84635 118.04 0.419137Z" fill="#CD142B"/>
<path d="M128.5 199.397C123.608 199.397 119.638 195.427 119.638 190.535V177.242C119.638 172.35 123.608 168.38 128.5 168.38C133.392 168.38 137.362 172.35 137.362 177.242V190.535C137.362 195.427 133.392 199.397 128.5 199.397Z" fill="white"/>
<path d="M128.501 150.788C123.609 150.788 119.639 146.818 119.639 141.926V132.931C119.639 120.338 125.638 106.921 135.692 100.438C139.578 97.9347 141.856 93.6809 141.794 89.0637C141.696 81.9697 135.453 75.4206 128.696 75.3275C128.638 75.3275 128.58 75.3275 128.523 75.3275C125.195 75.3275 121.991 76.6834 119.488 79.1515C116.767 81.8323 115.208 85.5145 115.208 89.2587C115.208 94.1506 111.237 98.1208 106.345 98.1208C101.454 98.1208 97.4834 94.1506 97.4834 89.2587C97.4834 80.8043 100.966 72.5227 107.041 66.5364C112.89 60.7627 120.503 57.6034 128.514 57.6034H128.939C145.277 57.8338 159.279 72.1239 159.513 88.8156C159.664 99.5786 154.347 109.491 145.299 115.331C140.402 118.49 137.363 126.484 137.363 132.931V141.926C137.363 146.818 133.393 150.788 128.501 150.788Z" fill="white"/>
<path d="M128.5 243.707C126.054 243.707 124.069 241.722 124.069 239.276C124.069 236.83 126.054 234.845 128.5 234.845C187.14 234.845 234.845 187.136 234.845 128.5C234.845 69.8642 187.14 22.1553 128.5 22.1553C69.8596 22.1553 22.155 69.8642 22.155 128.5C22.155 130.946 20.1699 132.931 17.724 132.931C15.2781 132.931 13.293 130.946 13.293 128.5C13.293 64.9768 64.9765 13.2932 128.5 13.2932C192.023 13.2932 243.707 64.9768 243.707 128.5C243.707 192.023 192.023 243.707 128.5 243.707Z" fill="#FD003A"/>
</g>
<defs>
<clipPath id="clip0">
<rect width="257" height="257" fill="white"/>
</clipPath>
</defs>
</svg>
