<svg width="175" height="175" viewBox="0 0 175 175" fill="none" xmlns="http://www.w3.org/2000/svg">
<path d="M166.797 35.5469V106.641H153.125V133.984L125.781 106.641H62.8906V35.5469H166.797Z" fill="#57A4FF"/>
<path d="M8.20312 87.5V147.656H16.4062V164.062L41.0156 147.656H90.2344V106.641V87.5H8.20312Z" fill="#00EED1"/>
<path d="M70.3828 109.375C69.8653 111.349 69.0835 113.243 68.0586 115.008L76.2891 123.238L68.5508 130.977L60.3203 122.746C58.5559 123.771 56.6612 124.553 54.6875 125.07V136.719H43.75V125.07C41.7763 124.553 39.8816 123.771 38.1172 122.746L29.8867 130.977L22.1484 123.238L30.3789 115.008C29.354 113.243 28.5722 111.349 28.0547 109.375H16.4062V98.4375H28.0547C28.5722 96.4638 29.354 94.5691 30.3789 92.8047L24.8555 87.2812L22.1484 84.5742L29.8867 76.8359L38.1172 85.0664C39.8816 84.0415 41.7763 83.2597 43.75 82.7422V71.0938H54.6875V82.7422C56.6612 83.2597 58.5559 84.0415 60.3203 85.0664L63.1367 82.2773L68.5508 76.8359L76.2891 84.5742L73.6094 87.2812L68.0586 92.8047C69.0835 94.5691 69.8653 96.4638 70.3828 98.4375H82.0312V109.375H70.3828Z" fill="#FF5023"/>
<path d="M123.047 71.0938V79.2969C123.047 81.4725 122.183 83.559 120.644 85.0974C119.106 86.6357 117.019 87.5 114.844 87.5C112.668 87.5 110.582 86.6357 109.043 85.0974C107.505 83.559 106.641 81.4725 106.641 79.2969V71.0938H123.047Z" fill="#E0E0E2"/>
<path d="M106.641 66.9374C100.556 64.8114 95.5533 60.3731 92.7178 54.5844C89.8823 48.7957 89.442 42.1227 91.4924 36.0116C93.13 31.2476 96.167 27.0886 100.206 24.0785C104.246 21.0685 109.1 19.3474 114.133 19.1405C119.422 18.9885 124.618 20.5449 128.953 23.579C133.287 26.613 136.528 30.9631 138.196 35.9843C139.033 38.4875 139.458 41.1103 139.453 43.7499C139.45 48.8365 137.871 53.7973 134.933 57.9496C131.995 62.1019 127.843 65.2419 123.047 66.9374V71.0937H106.641V66.9374Z" fill="#FFDA44"/>
<path d="M49.2188 114.844C55.2594 114.844 60.1562 109.947 60.1562 103.906C60.1562 97.8656 55.2594 92.9688 49.2188 92.9688C43.1781 92.9688 38.2812 97.8656 38.2812 103.906C38.2812 109.947 43.1781 114.844 49.2188 114.844Z" fill="#FF9811"/>
<path d="M131.25 49.2186H125.781C125.331 49.2187 124.888 49.1077 124.491 48.8954C124.094 48.6832 123.756 48.3762 123.506 48.0019L119.889 42.5714L116.777 45.6831C116.264 46.1957 115.569 46.4837 114.844 46.4837C114.119 46.4837 113.423 46.1957 112.911 45.6831L109.799 42.5714L106.181 48.0019C105.931 48.3762 105.593 48.6832 105.196 48.8954C104.799 49.1077 104.356 49.2187 103.906 49.2186H98.4375V43.7499H102.443L107.092 36.7636C107.316 36.4273 107.612 36.1451 107.959 35.937C108.305 35.729 108.694 35.6004 109.096 35.5604C109.499 35.5223 109.905 35.5731 110.286 35.7092C110.666 35.8453 111.013 36.0633 111.3 36.3479L114.844 39.8835L118.379 36.3479C118.665 36.0619 119.011 35.8429 119.392 35.7066C119.773 35.5704 120.179 35.5204 120.582 35.5601C120.984 35.5999 121.373 35.7284 121.72 35.9365C122.067 36.1446 122.363 36.4271 122.588 36.7636L127.244 43.7499H131.25V49.2186Z" fill="#FF5023"/>
<path d="M112.109 5.46875H117.578V10.9375H112.109V5.46875Z" fill="#FFDA44"/>
<path d="M93.3379 11.978L98.0715 9.24502L100.804 13.9786L96.0709 16.7116L93.3379 11.978Z" fill="#FFDA44"/>
<path d="M80.3301 26.9839L83.0645 22.248L87.8004 24.9823L85.066 29.7183L80.3301 26.9839Z" fill="#FFDA44"/>
<path d="M76.5625 41.0156H82.0312V46.4844H76.5625V41.0156Z" fill="#FFDA44"/>
<path d="M80.3232 60.5117L85.0592 57.7773L87.7936 62.5133L83.0576 65.2477L80.3232 60.5117Z" fill="#FFDA44"/>
<path d="M141.9 62.5396L144.635 57.8036L149.371 60.538L146.636 65.2739L141.9 62.5396Z" fill="#FFDA44"/>
<path d="M147.656 41.0156H153.125V46.4844H147.656V41.0156Z" fill="#FFDA44"/>
<path d="M141.886 24.9619L146.622 22.2275L149.356 26.9635L144.62 29.6979L141.886 24.9619Z" fill="#FFDA44"/>
<path d="M128.867 13.959L131.6 9.22541L136.334 11.9584L133.601 16.692L128.867 13.959Z" fill="#FFDA44"/>
<path d="M98.4375 68.3594H131.25V73.8281H98.4375V68.3594Z" fill="#3E3D42"/>
</svg>
