<svg width="133" height="133" viewBox="0 0 133 133" fill="none" xmlns="http://www.w3.org/2000/svg">
<g clip-path="url(#clip0)">
<path d="M131.345 68.1063C131.345 103.946 102.292 133 66.4523 133C30.6128 133 1.55859 103.946 1.55859 68.1063C1.55859 32.2668 30.6128 3.21362 66.4523 3.21362C102.292 3.21362 131.345 32.2668 131.345 68.1063Z" fill="#CD142B"/>
<path d="M67.1592 50.074H34.4449C19.5155 50.074 7.41309 62.1764 7.41309 77.1058C7.41309 87.9054 13.7469 97.2255 22.9016 101.555C26.5779 103.294 28.9361 106.982 28.9361 111.049V116.848C28.9361 119.053 31.7854 119.932 33.0264 118.11L39.4302 108.718C41.3845 105.853 44.6286 104.138 48.0968 104.138H67.1592C82.0886 104.138 94.191 92.0353 94.191 77.1058C94.19 62.1764 82.0876 50.074 67.1592 50.074Z" fill="#F8FAFD"/>
<path d="M33.2314 101.555C24.0766 97.2255 17.7428 87.9054 17.7428 77.1058C17.7428 62.1764 29.8453 50.074 44.7747 50.074H34.4449C19.5155 50.074 7.41309 62.1764 7.41309 77.1058C7.41309 87.9054 13.7459 97.2255 22.9006 101.555C26.5779 103.294 28.9351 106.982 28.9351 111.049V116.848C28.9351 119.053 31.7844 119.932 33.0264 118.11L39.0954 109.208C38.5028 105.896 36.3425 103.027 33.2314 101.555Z" fill="#DDDDDD"/>
<path d="M37.4943 77.6222C37.4943 80.3781 35.2609 82.6125 32.505 82.6125C29.749 82.6125 27.5146 80.3781 27.5146 77.6222C27.5146 74.8662 29.749 72.6318 32.505 72.6318C35.2609 72.6318 37.4943 74.8662 37.4943 77.6222Z" fill="#7956BA"/>
<path d="M55.7932 77.6222C55.7932 80.3781 53.5588 82.6125 50.8028 82.6125C48.0469 82.6125 45.8125 80.3781 45.8125 77.6222C45.8125 74.8662 48.0469 72.6318 50.8028 72.6318C53.5588 72.6318 55.7932 74.8662 55.7932 77.6222Z" fill="#7956BA"/>
<path d="M74.0901 77.6222C74.0901 80.3781 71.8557 82.6125 69.0997 82.6125C66.3438 82.6125 64.1094 80.3781 64.1094 77.6222C64.1094 74.8662 66.3438 72.6318 69.0997 72.6318C71.8557 72.6318 74.0901 74.8662 74.0901 77.6222Z" fill="#7956BA"/>
<path d="M65.5358 0H98.249C113.178 0 125.281 12.1024 125.281 27.0319C125.281 37.8314 118.948 47.1505 109.793 51.4813C106.116 53.2205 103.759 56.908 103.759 60.9749V66.774C103.759 68.9779 100.91 69.8577 99.6675 68.0363L93.2637 58.6431C91.3104 55.7776 88.0664 54.0637 84.5971 54.0637H65.5358C50.6063 54.0637 38.5039 41.9613 38.5039 27.0319C38.5039 12.1024 50.6063 0 65.5358 0Z" fill="#00237C"/>
<path d="M95.7224 50.6209H76.66C61.7306 50.6209 49.6282 38.5174 49.6282 23.589C49.6282 13.7474 54.8884 5.13451 62.7504 0.406982C49.1299 1.80119 38.5039 13.308 38.5039 27.2968C38.5039 42.2262 50.6063 54.3286 65.5358 54.3286H84.5981C88.0664 54.3286 91.3104 56.0435 93.2637 58.909L99.6675 68.3012C100.91 70.1226 103.759 69.2439 103.759 67.0389V61.2398C103.759 59.4357 104.225 57.7066 105.063 56.1886L104.388 55.2013C102.435 52.3347 99.1906 50.6209 95.7224 50.6209Z" fill="#1A47B8"/>
<path d="M105.181 27.5484C105.181 30.3044 102.946 32.5388 100.191 32.5388C97.4346 32.5388 95.2002 30.3044 95.2002 27.5484C95.2002 24.7925 97.4346 22.5581 100.191 22.5581C102.946 22.5581 105.181 24.7925 105.181 27.5484Z" fill="#F8FAFD"/>
<path d="M86.882 27.5484C86.882 30.3044 84.6486 32.5388 81.8927 32.5388C79.1367 32.5388 76.9023 30.3044 76.9023 27.5484C76.9023 24.7925 79.1367 22.5581 81.8927 22.5581C84.6486 22.5581 86.882 24.7925 86.882 27.5484Z" fill="#F8FAFD"/>
<path d="M68.5852 27.5484C68.5852 30.3044 66.3508 32.5388 63.5948 32.5388C60.8389 32.5388 58.6045 30.3044 58.6045 27.5484C58.6045 24.7925 60.8389 22.5581 63.5948 22.5581C66.3508 22.5581 68.5852 24.7925 68.5852 27.5484Z" fill="#F8FAFD"/>
</g>
<defs>
<clipPath id="clip0">
<rect width="133" height="133" fill="white"/>
</clipPath>
</defs>
</svg>
