<svg width="149" height="149" fill="none" xmlns="http://www.w3.org/2000/svg"><path d="M51.38 0v113.034h-2.57c-7.093 0-12.844 5.751-12.844 12.845V12.845C35.966 5.75 41.716 0 48.81 0h2.569z" fill="#B49ACA"/><path d="M136.155 5.138v102.759a5.153 5.153 0 01-5.138 5.137H51.379V0h79.638a5.154 5.154 0 015.138 5.138z" fill="#7D6599"/><path d="M128.448 138.724H49.349a13.221 13.221 0 01-13.333-11.586 10.37 10.37 0 01-.051-1.259c0-7.094 5.75-12.844 12.845-12.844h79.638c-4.265 0-7.707 5.754-7.707 12.844 0 7.091 3.442 12.845 7.707 12.845z" fill="#F5EFCA"/><path d="M131.017 110.466H51.379c-8.5.029-15.384 6.913-15.413 15.413-.008.503.012 1.006.061 1.506.985 8.005 7.826 13.993 15.892 13.908h81.667a2.569 2.569 0 002.569-2.569v-33.396a5.154 5.154 0 01-5.138 5.138zm-89.88 16.379a8.129 8.129 0 01-.034-.966c.023-5.665 4.61-10.253 10.276-10.276h72.484a18.475 18.475 0 000 20.552H51.919a10.671 10.671 0 01-10.782-9.31z" fill="#5D4C72"/><path d="M61.655 125.879h25.69v20.552a2.569 2.569 0 01-3.89 2.204l-7.635-4.58a2.57 2.57 0 00-2.64 0l-7.635 4.58a2.569 2.569 0 01-3.89-2.204v-20.552z" fill="#E64C3C"/><path d="M78.636 47.834a40.634 40.634 0 00-1.567 11.252v13.256c-6.166-2.492-10.276-6.91-10.276-11.971 0-5.472 4.804-10.225 11.843-12.537zm31.829 12.537c0 5.06-4.11 9.48-10.276 11.971l.001-13.255a17.7 17.7 0 012.671-9.403c4.65 2.569 7.604 6.397 7.604 10.687z" fill="#3D324C"/><path d="M35.965 102.759v23.12a35.825 35.825 0 01-23.531-8.786 29.708 29.708 0 01-1.901-1.747 29.62 29.62 0 01-1.747-1.901A35.707 35.707 0 01.103 92.483 28.25 28.25 0 010 89.913v-34.68c0-6.385 5.176-11.56 11.56-11.56 6.385 0 11.56 5.175 11.56 11.56v34.68c-.006.864.08 1.725.258 2.57.33 1.609.957 3.142 1.85 4.521a13.69 13.69 0 003.647 3.648 13.074 13.074 0 007.09 2.107z" fill="#FF5364"/><path d="M23.378 92.483H.103A28.248 28.248 0 010 89.913v-2.568h23.12v2.569c-.006.863.08 1.724.258 2.569zM0 66.793h23.12v5.138H0v-5.138zm28.875 33.859l-16.44 16.441a29.709 29.709 0 01-1.902-1.747 29.64 29.64 0 01-1.747-1.901l16.441-16.441a13.694 13.694 0 003.648 3.648z" fill="#FB7B76"/><path d="M97.62 128.448H53.948a2.569 2.569 0 110-5.137H97.62a2.569 2.569 0 110 5.137z" fill="#CBB292"/><path d="M149 29.543a11.544 11.544 0 01-11.56 11.56h-19.267c-.861-.01-1.721.06-2.569.206-.87.122-1.729.31-2.569.565a17.629 17.629 0 00-7.013 3.982 15.276 15.276 0 00-1.773 1.875c-.522.607-.987 1.26-1.387 1.953a.758.758 0 00-.103.206 17.248 17.248 0 00-2.389 6.627c-.126.85-.186 1.71-.18 2.57v13.255a32.045 32.045 0 01-23.12 0V59.086c0-.873.025-1.72.102-2.569a38.63 38.63 0 011.464-8.683 40.885 40.885 0 017.528-14.54 29.625 29.625 0 011.67-1.978c.436-.463.847-.874 1.258-1.31l.54-.54a40.97 40.97 0 0123.403-11.15 28.032 28.032 0 012.569-.256 42.842 42.842 0 012.569-.077h7.707a10.26 10.26 0 0019.883 3.57 11.412 11.412 0 013.237 7.99z" fill="#FF5364"/><path d="M146.431 17.983a9.715 9.715 0 01-.668 3.57 10.214 10.214 0 11.668-3.57z" fill="#fff"/><path d="M136.155 20.552a2.569 2.569 0 100-5.138 2.569 2.569 0 000 5.138z" fill="#2C2F38"/><path d="M106.021 45.856a15.345 15.345 0 00-1.772 1.876 12.84 12.84 0 00-1.388 1.952.754.754 0 00-.102.206L86.163 33.294a29.575 29.575 0 011.67-1.978c.437-.462.848-.873 1.259-1.31l.54-.54 16.389 16.39zm-5.651 10.661c-.126.85-.186 1.71-.18 2.57v2.568H77.07v-2.569c0-.873.025-1.721.102-2.569h23.198zm17.802-38.534v23.12c-.861-.01-1.721.06-2.569.206-.87.122-1.728.31-2.569.565V18.317a28.067 28.067 0 012.569-.257 42.892 42.892 0 012.569-.077z" fill="#FB7B76"/></svg>