<svg width="1440" height="2993" fill="none" xmlns="http://www.w3.org/2000/svg"><path d="M2129.07 997.73c-77.4 42.13-149.94 92.31-213.49 154.05-41.72 40.55-83.91 86.19-113.46 136.31-49.99 84.77-72.22 187.6-96.99 284.41-27.3 106.74-53.98 215.54-99.58 314.03-24.61 53.15-58.78 98.97-110.53 127.14-48.58 26.47-101.76 38.46-155.7 39.41-113.53 1.97-225.49-32.41-332.96-63.98-57.735-16.97-115.293-34.61-173.522-49.82-52.408-13.69-107.922-29.59-162.534-30.67-152.095-2.96-221.639 6.52-364.005 59.1-50.211 18.55-120.939 41.9-168.726 69.07-100.177 56.97-408.51 182.08-488.92 213.89-412.29 121.94-307.568 66.43-381.51 61.92-15.965-.97-33.023-2.73-47.312-8.58-20.048-8.21-48.525-24.82-44.213-53.34.234-1.63.61-3.25 1.123-4.82 8.773-26.88 40.433-44.52 62.026-57.86a436.888 436.888 0 0142.136-22.53c148.217-70.58 651.053-214.8 809.005-258.56 161.416-44.59 326.233-83.22 490.73-102.41 91.611-10.68 176.781-11.58 265.486 14.3 74.567 21.79 146.398 52.45 218.526 80.66 89.41 34.99 184.69 72.56 282.75 69.73 52.1-1.51 104.82-17.81 149.36-47.56 44.97-29.97 69.92-81.61 83.68-132.13 32.71-120.06 26.49-251.78 39.5-377.35 6.17-59.52 15.23-119.72 35.52-176.37 19.72-55.03 52.42-97.75 90.1-140.23 51.25-57.82 107.97-112.287 170.05-155.514 20.94-14.536 43.28-26.671 66.62-36.189 61.94-25.351 130.26-44.046 196.87-31.411 21.03 3.988 44.82 11.713 60.88 26.569 45.46 42.047-86.9 86.337-110.91 98.735z" fill="#00237C"/><path d="M2011.54 835.924c-88.48 44.23-173.84 95.585-246.56 163.57-43.86 41.016-90.15 89.166-114.65 144.216-42.04 94.43-41.75 209.64-46.03 314.17-4.62 112.73.41 238.82-40.18 342.4-20.06 51.25-51.64 88.36-102.53 111.16-44.83 19.94-93.45 27.82-141.34 22.89-92.45-9.2-178.98-53.26-261.76-92.81-86.847-41.43-176.015-87.18-271.9-102.34-67.977-10.77-140.321-1.57-208.612 6.35-102.929 11.93-205.409 30.33-307.091 51.01-64.923 13.18-130.106 26.82-194.737 41.74-128.491 29.66-255.979 66.07-384.077 98.75-94.602 24.15-526.352 152.84-623.329 147.45-13.46-.75-28.061-2.65-39.973-8.91-25.179-13.25-4.191-46.7 7.831-59.64a68.048 68.048 0 015.608-5.22c33.268-28.49 76.76-45.16 116.502-59.36 18.538-6.65 37.772-12.74 56.724-18.57 180.059-55.37 696.01-198.99 880.658-234.97 170.638-33.25 343.591-63.43 515.932-75.52 85.38-5.98 164.221-6.95 244.934 22.79 65.994 24.32 127.96 58.95 190.21 91.34 77.9 40.54 161.35 84.08 250.99 87.78 48.3 2.02 99.02-10.87 141.45-36.58 47.15-28.57 71.52-78.54 83.69-130.02 28.59-121.08 11.56-255.37 9.75-382.47-.91-62.92 3.18-95.7 17.47-159.47 16.51-58.75 44.65-121.013 71.3-156.4 44.88-59.576 95.41-117.658 157.4-157.442a595.935 595.935 0 0167.37-36.827c74.06-34.795 157.21-60.373 238.66-58.81 20.54.408 47.48 3.191 63.23 17.832 48.86 45.431-113.32 100.543-136.95 111.908" fill="#CD142B"/></svg>