<svg width="1440" height="2562" fill="none" xmlns="http://www.w3.org/2000/svg"><path d="M-688.981 1044.76c82.622 24.57 158.919 55.93 223.872 97.22 42.651 27.12 85.28 58.16 113.224 94.02 47.261 60.64 61.371 138.28 78.983 210.96 19.414 80.14 37.904 161.95 78.772 233.73 22.058 38.74 55.649 70.77 110.884 87.19 51.864 15.45 110.427 19.14 171.014 14.16 127.521-10.49 257.131-49.1 381.395-85.05 66.756-19.31 133.385-39.13 200.511-57.13 60.415-16.2 124.56-34.45 186.119-41.08 171.437-18.42 248.677-18.41 403.287 7.41 54.53 9.11 131.63 19.78 182.52 35.85 106.67 33.7 309.01 174.55 396.11 190.78 450.95 51.18 470.33-57.11 554-68.45 18.07-2.44 37.45-5.62 54.14-11.69 23.43-8.5 57.23-24.44 55.4-46.17-.09-1.25-.34-2.46-.75-3.63-7.03-19.99-40.78-30.35-63.66-38.44-14.49-5-29.52-9.37-45.02-13.07-159.28-39.2-709.75-98.11-882.83-115.41-176.89-17.59-358.24-30.17-541.28-27.67-101.942 1.39-197.673 9.72-300.219 39.25-86.205 24.85-170.272 56.31-254.413 85.9-104.306 36.68-215.482 76-325.517 84.19-58.455 4.35-116.048-2.74-163.01-21.17-47.417-18.55-70.021-56.08-80.149-93.92-24.078-89.93-3.13-193.05-4.463-289.35-.631-45.64-4.449-91.52-21.28-133.44-16.354-40.72-48.621-70.48-86.512-99.53-51.533-39.55-109.585-75.91-174.853-102.96-22.021-9.089-45.87-16.162-71.121-21.093-67.005-13.158-141.89-20.463-218.165-3.577-24.092 5.33-51.675 13.86-71.317 27.118-55.603 37.522 88.627 57.952 114.328 65.052z" fill="#00237C"/><path d="M-539.605 906.442c94.86 25.032 185.461 55.938 260.076 101.118 45.01 27.26 91.983 59.81 113.716 100.04 37.293 69 24.761 158.65 18.51 239.51-6.748 87.2-25.766 185.82 8.926 262.1 17.137 37.74 48.739 63.26 103.585 75.6 48.32 10.77 102.195 11.75 156.592 2.84 105-16.95 207.015-60.4 304.345-99.93 102.104-41.43 207.275-86.46 316.765-108.42 77.622-15.58 158.043-16.08 234.039-17.17 114.541-1.62 227.901 1.84 340.111 7.15 71.65 3.38 143.54 7.08 214.68 11.84 141.42 9.46 281.01 24.27 421.67 36.13 103.88 8.76 576.01 63.12 685.69 48.66 15.23-2.02 31.86-5.04 45.92-11.17 29.74-12.98 9.67-36.77-2.49-45.57-1.8-1.25-3.72-2.4-5.76-3.46-34.41-18.64-81.58-27-124.79-33.83-20.15-3.21-41.14-5.91-61.85-8.44-196.72-24-762.01-81.05-965.95-89.48-188.46-7.78-379.86-12.94-572.482-4.08-95.429 4.39-184.031 11.99-277.994 43.68-76.828 25.91-150.215 59.41-223.687 91.21-91.94 39.78-190.447 82.49-291.696 94.87-54.549 6.69-110.26 2.04-155.273-13.47-50.013-17.23-72.146-53.52-80.38-92.28-19.342-91.16 14.048-197.43 29.551-296.49 7.691-49.04 6.561-74.1-2.764-122.2-12.352-43.95-37.409-89.402-63.648-114.105-44.176-41.591-94.879-81.418-160.408-105.799-22.979-8.397-46.996-15.581-71.903-21.508-79.634-19.221-170.477-30.309-262.29-20.463-23.151 2.493-53.755 7.513-73.023 20.57-59.791 40.518 116.845 66.206 142.225 72.543" fill="#CD142B"/></svg>