<svg width="476" height="512" fill="none" xmlns="http://www.w3.org/2000/svg"><g clip-path="url(#clip0)"><path d="M255.992 53.326c-5.89 0-10.656-4.781-10.656-10.672V10.655A10.648 10.648 0 01255.992 0a10.648 10.648 0 0110.656 10.655v31.999c0 5.891-4.765 10.672-10.656 10.672z" fill="#434A54"/><path d="M296.521 78.919l-31.998-42.655a10.658 10.658 0 00-8.531-4.265 10.658 10.658 0 00-8.531 4.265l-31.999 42.655a10.663 10.663 0 00-1 11.172 10.67 10.67 0 009.531 5.906h63.997a10.67 10.67 0 009.531-5.906 10.627 10.627 0 00-1-11.172z" fill="#656D78"/><path d="M287.99 74.653h-63.997c-5.89 0-10.656 4.781-10.656 10.672v42.671a10.648 10.648 0 0010.656 10.655h63.997a10.648 10.648 0 0010.656-10.655V85.325c0-5.891-4.765-10.672-10.656-10.672z" fill="#CD142B"/><path d="M328.521 164.261l-32-42.671a10.656 10.656 0 00-8.531-4.266h-63.997a10.656 10.656 0 00-8.531 4.266l-31.999 42.671a10.63 10.63 0 00-1 11.155 10.64 10.64 0 009.531 5.906H319.99a10.64 10.64 0 009.531-5.906c1.813-3.61 1.438-7.937-1-11.155z" fill="#FC6E51"/><path d="M319.99 319.99H191.994a10.65 10.65 0 00-10.656 10.656v170.666c0 5.891 4.765 10.672 10.656 10.672H319.99c5.891 0 10.656-4.781 10.656-10.672V330.646a10.65 10.65 0 00-10.656-10.656zm0-159.995H191.994a10.65 10.65 0 00-10.656 10.656v31.999c0 5.89 4.765 10.671 10.656 10.671H319.99c5.891 0 10.656-4.781 10.656-10.671v-31.999a10.65 10.65 0 00-10.656-10.656z" fill="#CD142B"/><path d="M234.649 373.316c-5.875 0-10.656 4.766-10.656 10.672v127.996h21.343V383.988c0-5.906-4.781-10.672-10.687-10.672zm42.687 0c-5.906 0-10.688 4.766-10.688 10.672v127.996h21.342V383.988c0-5.906-4.779-10.672-10.654-10.672zm53.998-191.994H180.651c-5.875 0-10.656 4.766-10.656 10.672v149.323c0 5.891 4.781 10.672 10.656 10.672h150.683c5.875 0 10.656-4.781 10.656-10.672V191.994c0-5.906-4.781-10.672-10.656-10.672z" fill="#FC6E51"/><path d="M255.992 202.65c-35.28 0-63.998 28.718-63.998 63.998 0 35.295 28.718 63.998 63.998 63.998 35.279 0 63.998-28.703 63.998-63.998 0-35.28-28.719-63.998-63.998-63.998z" fill="#E6E9ED"/><path d="M255.992 277.319c-5.89 0-10.656-4.781-10.656-10.671v-42.655c0-5.906 4.766-10.672 10.656-10.672 5.891 0 10.656 4.766 10.656 10.672v42.655c0 5.89-4.765 10.671-10.656 10.671z" fill="#424953"/><path d="M286.164 307.49a10.677 10.677 0 01-7.547-3.125l-30.156-30.171a10.636 10.636 0 010-15.093c4.156-4.156 10.906-4.156 15.062 0l30.186 30.171c4.156 4.172 4.156 10.921 0 15.093a10.676 10.676 0 01-7.545 3.125z" fill="#424953"/></g><defs><clipPath id="clip0"><path fill="#fff" d="M0 0h511.984v511.984H0z"/></clipPath></defs></svg>