<svg width="205" height="205" fill="none" xmlns="http://www.w3.org/2000/svg"><g clip-path="url(#clip0)"><path d="M162.959 16.416H42.041C18.859 16.416 0 35.275 0 58.457v67.644c0 23.182 18.859 42.041 42.041 42.041h6.239l14.622 18.551a6.009 6.009 0 009.434 0l14.622-18.551h76.001c23.182 0 42.041-18.859 42.041-42.041V58.457c0-23.182-18.859-42.041-42.041-42.041z" fill="#6787F5"/><path d="M162.959 16.416H102.5v151.726h60.459c23.182 0 42.041-18.859 42.041-42.041V58.457c0-23.182-18.859-42.041-42.041-42.041z" fill="#38478A"/><path d="M79.981 176.994l6.978-8.852-6.978 8.852zM205 65.766h-50.498l37.59-37.59c-7.562-7.277-17.833-11.76-29.133-11.76h-10.068l-23.868 23.869V16.416H75.979v23.869L52.11 16.416H42.041c-11.3 0-21.571 4.482-29.133 11.76l37.59 37.59H0v53.044h50.498l-36.18 36.177-1.402 1.403c7.562 7.274 17.83 11.752 29.125 11.752h6.239l1.695 2.151 25.36-25.361-.412 23.21h54.098v-23.786l23.708 23.786h10.23c11.247 0 21.476-4.439 29.027-11.657l-1.414-1.42-36.135-36.255H205V65.766z" fill="#fff"/><path d="M205 65.766h-50.498l37.59-37.59c-7.562-7.277-17.833-11.76-29.133-11.76h-10.068l-23.868 23.869V16.416H102.5v151.726h26.521v-23.786l23.708 23.786h10.23c11.247 0 21.476-4.439 29.027-11.657l-1.414-1.42-36.135-36.255H205V65.766z" fill="#C7D3ED"/><path d="M117.009 77.777V16.416H87.99v61.361H0v29.021h87.99l-1.032 61.344h30.051v-61.344H205v-29.02h-87.991z" fill="#FF337A"/><path d="M117.009 77.777V16.416H102.5v151.726h14.509v-61.344H205v-29.02h-87.991z" fill="#D1005B"/><path d="M79.981 69.768v-8.493L35.613 16.907c-4.55.7-8.862 2.135-12.811 4.176l48.686 48.685h8.493z" fill="#FF337A"/><path d="M182.198 21.083a41.704 41.704 0 00-12.811-4.176l-44.368 44.368v8.493h8.492l48.687-48.685z" fill="#D1005B"/><path d="M22.813 163.481a41.758 41.758 0 0012.814 4.173l44.354-44.356v-8.492h-8.493l-48.675 48.675z" fill="#FF337A"/><path d="M125.019 114.806v8.517l44.202 44.353a41.738 41.738 0 0012.842-4.131l-48.575-48.739h-8.469z" fill="#D1005B"/></g><defs><clipPath id="clip0"><path fill="#fff" d="M0 0h205v205H0z"/></clipPath></defs></svg>