<svg width="257" height="257" fill="none" xmlns="http://www.w3.org/2000/svg"><g clip-path="url(#clip0)"><path d="M118.04.42C56.368 5.292 6.196 54.805.55 116.41c-2.813 30.699 5.212 59.394 20.645 82.776l-18.03 49.176c-1.276 3.487 2.038 6.904 5.561 5.729l51.068-17.024c23.32 14.787 51.697 22.315 81.987 19.262 61.117-6.155 109.952-56.123 114.799-117.356C262.855 59.768 197.244-5.847 118.04.419z" fill="#CD142B"/><path d="M128.5 199.397c-4.892 0-8.862-3.97-8.862-8.862v-13.293c0-4.892 3.97-8.862 8.862-8.862 4.892 0 8.862 3.97 8.862 8.862v13.293c0 4.892-3.97 8.862-8.862 8.862zm.001-48.609c-4.892 0-8.862-3.97-8.862-8.862v-8.995c0-12.593 5.999-26.01 16.053-32.493a13.24 13.24 0 006.102-11.374c-.098-7.094-6.341-13.643-13.098-13.736h-.173c-3.328 0-6.532 1.355-9.035 3.823-2.721 2.681-4.28 6.364-4.28 10.108 0 4.892-3.971 8.862-8.863 8.862-4.891 0-8.862-3.97-8.862-8.862 0-8.455 3.483-16.736 9.558-22.723 5.849-5.773 13.462-8.933 21.473-8.933h.425c16.338.23 30.34 14.52 30.574 31.213.151 10.763-5.166 20.675-14.214 26.515-4.897 3.159-7.936 11.153-7.936 17.6v8.995c0 4.892-3.97 8.862-8.862 8.862z" fill="#fff"/><path d="M128.5 243.707a4.433 4.433 0 01-4.431-4.431 4.433 4.433 0 014.431-4.431c58.64 0 106.345-47.709 106.345-106.345 0-58.636-47.705-106.345-106.345-106.345S22.155 69.865 22.155 128.5a4.433 4.433 0 01-4.431 4.431 4.433 4.433 0 01-4.431-4.431c0-63.523 51.684-115.207 115.207-115.207 63.523 0 115.207 51.684 115.207 115.207 0 63.523-51.684 115.207-115.207 115.207z" fill="#FD003A"/></g><defs><clipPath id="clip0"><path fill="#fff" d="M0 0h257v257H0z"/></clipPath></defs></svg>