<svg width="175" height="175" fill="none" xmlns="http://www.w3.org/2000/svg"><path d="M166.797 35.547v71.094h-13.672v27.343l-27.344-27.343h-62.89V35.547h103.906z" fill="#57A4FF"/><path d="M8.203 87.5v60.156h8.203v16.406l24.61-16.406h49.218V87.5H8.204z" fill="#00EED1"/><path d="M70.383 109.375a22.658 22.658 0 01-2.324 5.633l8.23 8.23-7.738 7.739-8.23-8.231a22.63 22.63 0 01-5.633 2.324v11.649H43.75V125.07a22.63 22.63 0 01-5.633-2.324l-8.23 8.231-7.739-7.739 8.23-8.23a22.658 22.658 0 01-2.323-5.633H16.406V98.437h11.649a22.652 22.652 0 012.324-5.632l-5.524-5.524-2.707-2.707 7.739-7.738 8.23 8.23a22.652 22.652 0 015.633-2.324V71.094h10.938v11.648c1.973.518 3.868 1.3 5.632 2.324l2.817-2.789 5.414-5.441 7.738 7.738-2.68 2.707-5.55 5.524a22.652 22.652 0 012.324 5.632H82.03v10.938H70.383z" fill="#FF5023"/><path d="M123.047 71.094v8.203a8.201 8.201 0 01-8.203 8.203 8.205 8.205 0 01-8.203-8.203v-8.203h16.406z" fill="#E0E0E2"/><path d="M106.641 66.937a24.504 24.504 0 01-15.149-30.925 25.03 25.03 0 0122.641-16.872 24.61 24.61 0 0124.063 16.844 24.344 24.344 0 011.257 7.766 24.61 24.61 0 01-16.406 23.187v4.157h-16.406v-4.157z" fill="#FFDA44"/><path d="M49.219 114.844c6.04 0 10.937-4.897 10.937-10.938 0-6.04-4.897-10.937-10.937-10.937-6.04 0-10.938 4.897-10.938 10.937 0 6.041 4.897 10.938 10.938 10.938z" fill="#FF9811"/><path d="M131.25 49.219h-5.469a2.734 2.734 0 01-2.275-1.217l-3.617-5.43-3.112 3.111a2.734 2.734 0 01-3.866 0l-3.112-3.112-3.618 5.43a2.735 2.735 0 01-2.275 1.218h-5.469v-5.47h4.006l4.649-6.985a2.726 2.726 0 013.194-1.055c.38.136.727.354 1.014.639l3.544 3.535 3.535-3.535a2.736 2.736 0 014.209.416l4.656 6.986h4.006v5.469z" fill="#FF5023"/><path d="M112.109 5.469h5.469v5.468h-5.469V5.47zm-18.771 6.509l4.734-2.733 2.732 4.734-4.733 2.733-2.733-4.734zM80.33 26.984l2.734-4.736 4.736 2.734-2.734 4.736-4.736-2.734zm-3.767 14.032h5.468v5.468h-5.469v-5.468zm3.76 19.496l4.736-2.735 2.735 4.736-4.736 2.735-2.735-4.736zM141.9 62.54l2.735-4.736 4.736 2.734-2.735 4.736-4.736-2.734zm5.756-21.524h5.469v5.468h-5.469v-5.468zm-5.77-16.054l4.736-2.735 2.734 4.736-4.736 2.735-2.734-4.736zm-13.019-11.003l2.733-4.734 4.734 2.733-2.733 4.734-4.734-2.733z" fill="#FFDA44"/><path d="M98.438 68.36h32.812v5.468H98.437V68.36z" fill="#3E3D42"/></svg>