<svg width="133" height="133" fill="none" xmlns="http://www.w3.org/2000/svg"><g clip-path="url(#clip0)"><path d="M131.345 68.106c0 35.84-29.053 64.894-64.893 64.894S1.56 103.946 1.56 68.106 30.613 3.214 66.452 3.214c35.84 0 64.893 29.053 64.893 64.892z" fill="#CD142B"/><path d="M67.16 50.074H34.444c-14.93 0-27.032 12.102-27.032 27.032 0 10.8 6.334 20.12 15.489 24.449a10.51 10.51 0 016.034 9.494v5.799c0 2.205 2.85 3.084 4.09 1.262l6.404-9.392a10.492 10.492 0 018.667-4.58h19.062c14.93 0 27.032-12.103 27.032-27.032-.001-14.93-12.103-27.032-27.032-27.032z" fill="#F8FAFD"/><path d="M33.231 101.555c-9.154-4.33-15.488-13.65-15.488-24.45 0-14.929 12.102-27.031 27.032-27.031h-10.33c-14.93 0-27.032 12.102-27.032 27.032 0 10.8 6.333 20.12 15.488 24.449a10.508 10.508 0 016.034 9.494v5.799c0 2.205 2.85 3.084 4.091 1.262l6.07-8.902a10.521 10.521 0 00-5.865-7.653z" fill="#DDD"/><path d="M37.494 77.622a4.99 4.99 0 11-4.989-4.99 4.99 4.99 0 014.99 4.99zm18.299 0a4.99 4.99 0 11-9.98 0 4.99 4.99 0 019.98 0zm18.297 0a4.99 4.99 0 11-9.981 0 4.99 4.99 0 019.981 0z" fill="#7956BA"/><path d="M65.536 0h32.713c14.929 0 27.032 12.102 27.032 27.032 0 10.8-6.333 20.119-15.488 24.45a10.508 10.508 0 00-6.034 9.493v5.799c0 2.204-2.849 3.084-4.091 1.262l-6.404-9.393a10.487 10.487 0 00-8.667-4.58H65.536c-14.93 0-27.032-12.102-27.032-27.031C38.504 12.102 50.606 0 65.536 0z" fill="#00237C"/><path d="M95.722 50.62H76.66c-14.93 0-27.032-12.103-27.032-27.031 0-9.842 5.26-18.454 13.122-23.182-13.62 1.394-24.246 12.901-24.246 26.89 0 14.93 12.102 27.032 27.032 27.032h19.062a10.49 10.49 0 018.666 4.58l6.404 9.392c1.242 1.822 4.091.943 4.091-1.262v-5.8c0-1.803.466-3.532 1.304-5.05l-.675-.988a10.485 10.485 0 00-8.666-4.58z" fill="#1A47B8"/><path d="M105.181 27.548a4.99 4.99 0 11-9.982 0 4.99 4.99 0 019.982 0zm-18.299 0a4.99 4.99 0 11-4.99-4.99 4.99 4.99 0 014.99 4.99zm-18.297 0a4.99 4.99 0 11-9.98 0 4.99 4.99 0 019.98 0z" fill="#F8FAFD"/></g><defs><clipPath id="clip0"><path fill="#fff" d="M0 0h133v133H0z"/></clipPath></defs></svg>