<svg width="481" height="458" viewBox="0 0 481 458" fill="none" xmlns="http://www.w3.org/2000/svg">
<g opacity="0.1">
<path d="M442.837 229C442.837 117.054 352.265 26.335 240.501 26.335C128.736 26.335 38.1641 117.054 38.1641 229H442.837Z" fill="#CD142B"/>
<path d="M38.1641 226.446C38.1641 338.392 128.736 429.111 240.501 429.111C352.265 429.111 442.837 338.392 442.837 226.446H38.1641Z" fill="#00237C"/>
<path d="M442.837 229C442.837 340.946 352.265 431.665 240.501 431.665C128.736 431.665 38.1641 340.946 38.1641 229C38.1641 117.054 128.736 26.335 240.501 26.335C352.265 26.335 442.837 117.054 442.837 229Z" stroke="white" stroke-width="4" stroke-miterlimit="10"/>
<path d="M38.1641 229H152.303" stroke="white" stroke-width="3" stroke-miterlimit="10"/>
<path d="M328.168 226.181H442.834" stroke="white" stroke-width="3" stroke-miterlimit="10"/>
<path d="M136.823 117.318C139.11 119.256 140.868 121.458 142.187 123.924C143.506 126.39 144.298 129.033 144.562 131.939C144.825 134.846 144.474 137.576 143.682 140.306C142.891 143.037 141.484 145.415 139.725 147.617C137.879 149.819 135.68 151.492 133.218 152.813C130.756 154.135 128.03 154.839 125.216 155.015C122.314 155.28 119.588 154.927 116.862 154.046C114.224 153.166 111.762 151.756 109.476 149.907C107.19 147.969 105.431 145.767 104.112 143.301C102.793 140.835 102.001 138.105 101.738 135.198C101.474 132.38 101.738 129.649 102.529 126.919C103.32 124.188 104.727 121.81 106.486 119.608C108.333 117.406 110.443 115.733 112.993 114.412C115.543 113.091 118.181 112.386 120.995 112.122C123.809 111.946 126.623 112.21 129.261 113.091C132.075 114.06 134.537 115.469 136.823 117.318ZM132.339 141.451C134.273 139.161 134.977 136.519 134.537 133.525C134.009 130.53 132.515 127.888 129.789 125.686C127.151 123.484 124.337 122.339 121.259 122.427C118.181 122.427 115.719 123.572 113.873 125.862C111.938 128.152 111.234 130.794 111.674 133.789C112.202 136.783 113.785 139.426 116.423 141.628C119.149 143.918 121.962 145.063 124.952 145.063C127.942 144.975 130.404 143.741 132.339 141.451Z" fill="white"/>
<path d="M159.686 88.6926L159.774 88.7806C160.917 89.5733 161.796 90.2779 162.5 90.9826C162.236 90.1018 162.148 89.0449 162.06 87.7237C162.06 87.5476 162.06 87.4595 162.06 87.3714L161.532 76.626L172.7 70.3726L170.853 94.2414L194.156 105.779L183.428 111.769L171.557 104.37C171.029 104.018 170.502 103.666 170.062 103.313C169.534 102.961 169.095 102.521 168.743 102.08C168.919 102.697 169.095 103.401 169.183 103.93C169.271 104.458 169.271 105.075 169.271 105.691L169.358 119.696L158.63 125.685L160.917 99.526L139.725 88.9568L150.98 82.6153L159.686 88.6926Z" fill="white"/>
<path d="M205.59 103.138L198.027 62.5344L221.945 58.0425L223.616 66.9382L210.074 69.4925L211.393 76.5386L224.144 74.1606L225.814 82.8802L213.064 85.2582L216.054 101.2L205.59 103.138Z" fill="white"/>
<path d="M287.101 84.0247C286.573 86.9313 285.606 89.5736 284.111 91.9517C282.616 94.3297 280.77 96.3555 278.395 98.029C276.021 99.7024 273.471 100.847 270.745 101.464C268.019 102.081 265.205 102.169 262.479 101.728C259.665 101.288 257.115 100.231 254.741 98.7336C252.367 97.2363 250.344 95.2986 248.762 92.9205C247.091 90.5424 245.948 87.9882 245.332 85.2578C244.717 82.5274 244.717 79.709 245.156 76.8024C245.684 73.8959 246.651 71.2536 248.146 68.8755C249.641 66.4974 251.575 64.4717 253.95 62.7982C256.236 61.1247 258.786 59.9797 261.512 59.3632C264.238 58.7467 267.052 58.6586 269.866 59.099C272.68 59.5394 275.23 60.5963 277.604 62.0936C279.978 63.5909 282.001 65.5286 283.583 67.9067C285.166 70.2847 286.309 72.839 286.925 75.5694C287.541 78.2997 287.541 81.1182 287.101 84.0247ZM264.062 92.392C267.052 92.9205 269.69 92.2159 271.976 90.2782C274.262 88.3405 275.757 85.6982 276.373 82.1751C276.988 78.7401 276.461 75.7455 274.878 73.1032C273.295 70.4609 271.097 68.9636 268.195 68.4351C265.205 67.9067 262.567 68.6113 260.281 70.549C257.995 72.4867 256.5 75.217 255.884 78.564C255.269 82.087 255.796 85.0817 257.291 87.6359C258.786 90.3663 261.072 91.9517 264.062 92.392Z" fill="white"/>
<path d="M296.691 110.8L318.059 75.3936L327.732 81.2947C331.513 83.5847 334.063 85.3462 335.382 86.6674C336.702 87.9005 337.581 89.3097 338.196 90.807C338.812 92.4805 339.076 94.3301 338.812 96.1797C338.548 98.0293 337.933 99.967 336.789 101.729C335.119 104.459 333.184 106.309 330.81 107.189C328.524 108.158 325.886 108.158 323.072 107.189L323.775 127.095L313.311 120.753L313.839 102.169L305.485 115.997L296.691 110.8ZM316.653 97.4128L318.411 98.4697C320.434 99.7028 322.104 100.231 323.423 100.055C324.742 99.8789 325.886 99.0862 326.853 97.5889C327.908 95.8274 328.26 94.3301 327.82 93.0089C327.38 91.7759 326.149 90.4547 324.127 89.2216L322.28 88.0766L316.653 97.4128Z" fill="white"/>
<path d="M332.744 135.286L364.664 109.127L369.94 115.557C373.809 120.313 376.36 123.924 377.503 126.302C378.646 128.68 379.261 131.059 379.437 133.437C379.613 136.519 378.998 139.514 377.679 142.332C376.272 145.151 374.161 147.705 371.347 149.995C368.533 152.285 365.632 153.87 362.554 154.663C359.564 155.456 356.486 155.456 353.497 154.663C351.21 154.047 349.012 152.99 347.077 151.404C345.055 149.907 342.417 147.089 339.163 143.037L338.02 141.628L332.744 135.286ZM346.726 137.752L347.869 139.162C350.595 142.42 353.233 144.27 355.871 144.71C358.509 145.063 361.323 144.006 364.4 141.54C367.478 139.074 369.061 136.431 369.237 133.789C369.413 131.147 368.182 128.152 365.456 124.805L364.313 123.396L346.726 137.752Z" fill="white"/>
<path d="M88.6406 305.538L124.43 285.016L137.18 307.388L129.354 311.88L122.144 299.197L115.9 302.72L122.671 314.61L115.021 319.014L108.25 307.123L102.182 310.558L109.393 323.242L101.391 327.822L88.6406 305.538Z" fill="white"/>
<path d="M119.332 350.898L145.009 318.574L153.626 325.444L152.747 351.955C152.747 352.483 152.571 353.452 152.307 354.949C152.044 356.447 151.692 358.12 151.164 360.058C152.044 358.561 152.835 357.239 153.626 356.183C154.418 355.038 155.033 354.157 155.737 353.276L168.399 337.334L177.017 344.204L151.34 376.528L142.723 369.658L143.602 343.059C143.602 342.531 143.778 341.562 144.042 340.064C144.305 338.567 144.657 336.894 145.097 335.044C144.217 336.541 143.338 337.863 142.635 338.919C141.843 340.064 141.228 341.033 140.524 341.826L127.862 357.768L119.332 350.898Z" fill="white"/>
<path d="M203.041 380.58L205.151 372.125L226.959 377.497C226.871 377.762 226.871 378.114 226.783 378.378C226.695 378.73 226.607 379.171 226.431 379.875C224.76 386.745 221.595 391.678 216.934 394.584C212.274 397.491 206.646 398.107 199.963 396.434C196.621 395.641 193.896 394.408 191.521 392.823C189.235 391.237 187.3 389.124 185.718 386.657C184.223 384.279 183.343 381.637 182.904 378.73C182.464 375.824 182.64 373.005 183.343 370.099C184.047 367.104 185.278 364.462 186.949 362.26C188.619 359.97 190.73 358.12 193.28 356.623C195.83 355.214 198.468 354.245 201.37 353.893C204.272 353.54 207.262 353.717 210.251 354.509C214.208 355.478 217.55 357.152 220.276 359.442C223.002 361.732 224.936 364.726 226.343 368.249L215.615 370.451C214.824 368.602 213.857 367.104 212.626 366.047C211.394 364.902 209.9 364.198 208.053 363.757C204.711 362.965 201.898 363.405 199.435 365.079C196.973 366.752 195.302 369.57 194.335 373.358C193.368 377.145 193.632 380.404 194.951 383.046C196.358 385.689 198.644 387.45 201.985 388.243C204.799 388.947 207.349 388.859 209.548 387.979C211.746 387.098 213.329 385.512 214.208 383.31L203.041 380.58Z" fill="white"/>
<path d="M249.295 400.486L244.547 359.442L255.89 358.121L259.584 389.564L273.653 387.891L274.796 397.491L249.295 400.486Z" fill="white"/>
<path d="M298.01 390.444L282.709 352.043L293.437 347.727L308.738 386.129L298.01 390.444Z" fill="white"/>
<path d="M326.854 361.379C329.316 361.819 331.515 361.907 333.449 361.643C335.296 361.379 336.879 360.762 338.198 359.706C339.429 358.737 340.132 357.68 340.484 356.447C340.748 355.214 340.572 354.069 339.78 353.1C338.901 352.043 337.934 351.426 336.879 351.338C335.735 351.25 333.801 351.867 330.899 353.012C326.942 354.685 323.776 355.302 321.402 354.949C319.028 354.597 316.83 353.188 314.983 350.81C312.609 347.639 311.641 344.292 312.257 340.681C312.873 337.07 314.895 333.987 318.237 331.345C320.083 329.936 322.018 328.879 324.04 328.086C326.063 327.293 328.173 326.853 330.371 326.677L332.482 335.308C330.811 335.22 329.228 335.396 327.821 335.749C326.414 336.101 325.183 336.718 324.128 337.598C323.073 338.479 322.369 339.36 322.106 340.417C321.842 341.474 322.018 342.354 322.633 343.147C323.249 343.94 324.04 344.38 325.007 344.468C325.975 344.556 327.47 344.116 329.58 343.235L330.108 343.059C334.592 341.209 337.846 340.417 339.868 340.681C341.275 340.857 342.594 341.386 343.913 342.178C345.144 342.971 346.375 344.116 347.431 345.437C350.069 348.872 351.124 352.571 350.42 356.447C349.717 360.322 347.431 363.757 343.561 366.752C341.275 368.513 338.813 369.746 336.351 370.451C333.889 371.156 331.075 371.332 328.085 371.067L326.854 361.379Z" fill="white"/>
<path d="M374.426 336.013L339.076 314.61L344.968 304.834L358.685 313.113L366.6 300.078L352.882 291.798L358.773 282.022L394.123 303.425L388.231 313.201L373.898 304.482L365.984 317.517L380.317 326.237L374.426 336.013Z" fill="white"/>
<mask id="mask0" mask-type="alpha" maskUnits="userSpaceOnUse" x="139" y="127" width="205" height="205">
<path d="M241.463 331.522C297.798 331.522 343.466 285.779 343.466 229.353C343.466 172.926 297.798 127.184 241.463 127.184C185.128 127.184 139.459 172.926 139.459 229.353C139.459 285.779 185.128 331.522 241.463 331.522Z" fill="white"/>
</mask>
<g mask="url(#mask0)">
<path d="M216.488 129.826H95.1387V194.826H216.488V129.826Z" fill="#00237C"/>
<path d="M128.466 129.826H95.1387V150.26L257.641 257.713L297.211 241.419L128.466 129.826Z" fill="white"/>
<path d="M95.1387 131.499V145.591L259.839 254.454L266.259 244.678L95.1387 131.499Z" fill="#CD142B"/>
<path d="M387.435 129.826H266.086V194.826H387.435V129.826Z" fill="#00237C"/>
<path d="M354.193 129.826H387.52V150.26L224.93 257.713L185.447 241.419L354.193 129.826Z" fill="white"/>
<path d="M387.524 131.499V145.591L222.823 254.454L216.404 244.678L387.524 131.499Z" fill="#CD142B"/>
<path d="M387.435 260.796H266.086V325.797H387.435V260.796Z" fill="#00237C"/>
<path d="M354.193 325.885H387.52V305.363L224.93 197.909L185.447 214.203L354.193 325.885Z" fill="white"/>
<path d="M387.524 324.124V310.12L222.823 201.168L216.404 210.945L387.524 324.124Z" fill="#CD142B"/>
<path d="M216.488 260.796H95.1387V325.797H216.488V260.796Z" fill="#00237C"/>
<path d="M128.466 325.885H95.1387V305.363L257.641 197.909L297.211 214.203L128.466 325.885Z" fill="white"/>
<path d="M95.1387 324.124V310.12L259.839 201.168L266.259 210.945L95.1387 324.124Z" fill="#CD142B"/>
<path d="M387.52 194.826H266.347V129.826H215.784V194.826H95.1387V259.387H215.784V325.885H266.347V259.387H387.52V194.826Z" fill="white"/>
<path d="M387.52 208.038H255.619V129.826H226.512V208.038H95.1387V246.175H226.512V325.885H255.619V246.175H387.52V208.038Z" fill="#CD142B"/>
</g>
<path d="M341.966 229.353C341.966 284.953 296.967 330.022 241.463 330.022C185.958 330.022 140.959 284.953 140.959 229.353C140.959 173.752 185.958 128.684 241.463 128.684C296.967 128.684 341.966 173.752 341.966 229.353Z" stroke="white" stroke-width="3"/>
</g>
</svg>
