<svg width="35" height="35" viewBox="0 0 35 35" fill="none" xmlns="http://www.w3.org/2000/svg">
<path d="M19.4336 17.5001L34.5996 2.33401C35.1335 1.80005 35.1335 0.934351 34.5996 0.400466C34.0656 -0.13342 33.1999 -0.133489 32.666 0.400466L17.5 15.5665L2.33401 0.400466C1.80005 -0.133489 0.934351 -0.133489 0.400466 0.400466C-0.13342 0.93442 -0.133489 1.80012 0.400466 2.33401L15.5664 17.5L0.400466 32.666C-0.133489 33.2 -0.133489 34.0657 0.400466 34.5996C0.667408 34.8665 1.01734 35 1.36727 35C1.7172 35 2.06706 34.8665 2.33408 34.5996L17.5 19.4336L32.666 34.5996C32.9329 34.8665 33.2828 35 33.6328 35C33.9827 35 34.3326 34.8665 34.5996 34.5996C35.1335 34.0656 35.1335 33.1999 34.5996 32.666L19.4336 17.5001Z" fill="white"/>
</svg>
