<svg width="481" height="458" viewBox="0 0 481 458" fill="none" xmlns="http://www.w3.org/2000/svg">
<g style="mix-blend-mode:lighten" opacity="0.2">
<path d="M442.837 229C442.837 117.054 352.265 26.3348 240.501 26.3348C128.736 26.3348 38.1641 117.054 38.1641 229H442.837Z" fill="#CD142B"/>
<path d="M38.1641 226.446C38.1641 338.392 128.736 429.111 240.501 429.111C352.265 429.111 442.837 338.392 442.837 226.446H38.1641Z" fill="#00237C"/>
<path d="M442.837 229C442.837 340.946 352.265 431.665 240.501 431.665C128.736 431.665 38.1641 340.946 38.1641 229C38.1641 117.054 128.736 26.3348 240.501 26.3348C352.265 26.3348 442.837 117.054 442.837 229Z" stroke="white" stroke-width="8" stroke-miterlimit="10"/>
<path d="M38.1641 229H152.303" stroke="white" stroke-width="8" stroke-miterlimit="10"/>
<path d="M328.17 226.181H442.837" stroke="white" stroke-width="8" stroke-miterlimit="10"/>
<path d="M136.825 117.318C139.112 119.256 140.87 121.458 142.189 123.924C143.508 126.39 144.3 129.033 144.563 131.939C144.827 134.846 144.476 137.576 143.684 140.307C142.893 143.037 141.486 145.415 139.727 147.617C137.88 149.819 135.682 151.492 133.22 152.813C130.758 154.135 128.032 154.839 125.218 155.015C122.316 155.28 119.59 154.927 116.864 154.047C114.226 153.166 111.764 151.757 109.478 149.907C107.191 147.969 105.433 145.767 104.114 143.301C102.795 140.835 102.003 138.105 101.74 135.198C101.476 132.38 101.74 129.649 102.531 126.919C103.322 124.188 104.729 121.81 106.488 119.608C108.335 117.407 110.445 115.733 112.995 114.412C115.545 113.091 118.183 112.386 120.997 112.122C123.811 111.946 126.625 112.21 129.263 113.091C132.077 114.06 134.539 115.469 136.825 117.318ZM132.341 141.452C134.275 139.162 134.979 136.519 134.539 133.525C134.011 130.53 132.517 127.888 129.791 125.686C127.153 123.484 124.339 122.339 121.261 122.427C118.183 122.427 115.721 123.572 113.874 125.862C111.94 128.152 111.236 130.794 111.676 133.789C112.204 136.783 113.787 139.426 116.425 141.628C119.151 143.918 121.964 145.063 124.954 145.063C127.944 144.975 130.406 143.742 132.341 141.452Z" fill="white"/>
<path d="M159.688 88.6927L159.776 88.7808C160.919 89.5735 161.799 90.2781 162.502 90.9827C162.238 90.102 162.15 89.045 162.062 87.7239C162.062 87.5477 162.062 87.4597 162.062 87.3716L161.535 76.6262L172.702 70.3727L170.856 94.2416L194.158 105.78L183.43 111.769L171.559 104.37C171.032 104.018 170.504 103.666 170.064 103.314C169.537 102.961 169.097 102.521 168.745 102.08C168.921 102.697 169.097 103.402 169.185 103.93C169.273 104.459 169.273 105.075 169.273 105.692L169.361 119.696L158.633 125.685L160.919 99.5262L139.727 88.957L150.983 82.6154L159.688 88.6927Z" fill="white"/>
<path d="M205.591 103.138L198.028 62.5343L221.946 58.0424L223.617 66.9382L210.075 69.4924L211.394 76.5386L224.145 74.1605L225.815 82.8801L213.065 85.2582L216.055 101.2L205.591 103.138Z" fill="white"/>
<path d="M287.104 84.0249C286.577 86.9314 285.609 89.5737 284.115 91.9518C282.62 94.3298 280.773 96.3556 278.399 98.0291C276.025 99.7025 273.474 100.848 270.749 101.464C268.023 102.081 265.209 102.169 262.483 101.728C259.669 101.288 257.119 100.231 254.744 98.7337C252.37 97.2364 250.348 95.2987 248.765 92.9206C247.094 90.5425 245.951 87.9883 245.336 85.2579C244.72 82.5275 244.72 79.7091 245.16 76.8025C245.687 73.896 246.655 71.2537 248.149 68.8756C249.644 66.4975 251.579 64.4718 253.953 62.7983C256.239 61.1249 258.789 59.9799 261.515 59.3633C264.241 58.7468 267.055 58.6587 269.869 59.0991C272.683 59.5395 275.233 60.5964 277.607 62.0937C279.982 63.591 282.004 65.5287 283.587 67.9068C285.17 70.2849 286.313 72.8391 286.928 75.5695C287.544 78.2999 287.544 81.1183 287.104 84.0249ZM264.065 92.3922C267.055 92.9206 269.693 92.216 271.98 90.2783C274.266 88.3406 275.761 85.6983 276.376 82.1752C276.992 78.7402 276.464 75.7456 274.881 73.1033C273.299 70.461 271.1 68.9637 268.198 68.4352C265.209 67.9068 262.571 68.6114 260.284 70.5491C257.998 72.4868 256.503 75.2172 255.888 78.5641C255.272 82.0872 255.8 85.0818 257.295 87.636C258.789 90.3664 261.076 91.9518 264.065 92.3922Z" fill="white"/>
<path d="M296.69 110.8L318.058 75.3934L327.731 81.2946C331.512 83.5846 334.062 85.3461 335.381 86.6673C336.7 87.9004 337.58 89.3096 338.195 90.8069C338.811 92.4804 339.075 94.33 338.811 96.1796C338.547 98.0292 337.932 99.9669 336.788 101.728C335.118 104.459 333.183 106.308 330.809 107.189C328.523 108.158 325.885 108.158 323.071 107.189L323.774 127.095L313.31 120.753L313.838 102.169L305.484 115.997L296.69 110.8ZM316.651 97.4127L318.41 98.4696C320.433 99.7027 322.103 100.231 323.422 100.055C324.741 99.8788 325.885 99.0861 326.852 97.5888C327.907 95.8273 328.259 94.33 327.819 93.0088C327.379 91.7757 326.148 90.4546 324.126 89.2215L322.279 88.0765L316.651 97.4127Z" fill="white"/>
<path d="M332.743 135.286L364.663 109.127L369.939 115.557C373.808 120.313 376.359 123.924 377.502 126.302C378.645 128.68 379.26 131.058 379.436 133.436C379.612 136.519 378.997 139.514 377.678 142.332C376.271 145.151 374.16 147.705 371.346 149.995C368.532 152.285 365.631 153.87 362.553 154.663C359.563 155.456 356.485 155.456 353.496 154.663C351.209 154.046 349.011 152.99 347.076 151.404C345.054 149.907 342.416 147.088 339.162 143.037L338.019 141.628L332.743 135.286ZM346.725 137.752L347.868 139.161C350.594 142.42 353.232 144.27 355.87 144.71C358.508 145.063 361.322 144.006 364.399 141.54C367.477 139.073 369.06 136.431 369.236 133.789C369.412 131.146 368.181 128.152 365.455 124.805L364.312 123.396L346.725 137.752Z" fill="white"/>
<path d="M88.6377 305.538L124.427 285.016L137.177 307.388L129.351 311.88L122.141 299.196L115.897 302.72L122.668 314.61L115.018 319.014L108.247 307.123L102.18 310.558L109.39 323.241L101.388 327.821L88.6377 305.538Z" fill="white"/>
<path d="M119.327 350.898L145.004 318.573L153.621 325.443L152.742 351.955C152.742 352.483 152.566 353.452 152.302 354.949C152.039 356.447 151.687 358.12 151.159 360.058C152.039 358.56 152.83 357.239 153.621 356.182C154.413 355.037 155.028 354.157 155.732 353.276L168.394 337.334L177.012 344.204L151.335 376.528L142.718 369.658L143.597 343.059C143.597 342.53 143.773 341.562 144.037 340.064C144.3 338.567 144.652 336.893 145.092 335.044C144.213 336.541 143.333 337.862 142.63 338.919C141.838 340.064 141.223 341.033 140.519 341.826L127.857 357.768L119.327 350.898Z" fill="white"/>
<path d="M203.04 380.58L205.15 372.125L226.958 377.497C226.87 377.762 226.87 378.114 226.782 378.378C226.694 378.73 226.606 379.171 226.43 379.875C224.759 386.745 221.594 391.678 216.933 394.584C212.273 397.491 206.645 398.107 199.962 396.434C196.621 395.641 193.895 394.408 191.52 392.823C189.234 391.237 187.299 389.123 185.717 386.657C184.222 384.279 183.342 381.637 182.903 378.73C182.463 375.824 182.639 373.005 183.342 370.099C184.046 367.104 185.277 364.462 186.948 362.26C188.619 359.97 190.729 358.12 193.279 356.623C195.829 355.214 198.467 354.245 201.369 353.893C204.271 353.54 207.261 353.717 210.25 354.509C214.207 355.478 217.549 357.152 220.275 359.442C223.001 361.732 224.935 364.726 226.342 368.249L215.614 370.451C214.823 368.602 213.856 367.104 212.625 366.047C211.393 364.902 209.899 364.198 208.052 363.757C204.71 362.965 201.897 363.405 199.434 365.079C196.972 366.752 195.302 369.57 194.334 373.358C193.367 377.145 193.631 380.404 194.95 383.046C196.357 385.688 198.643 387.45 201.985 388.243C204.798 388.947 207.349 388.859 209.547 387.978C211.745 387.098 213.328 385.512 214.207 383.31L203.04 380.58Z" fill="white"/>
<path d="M249.294 400.485L244.545 359.442L255.889 358.12L259.582 389.564L273.652 387.89L274.795 397.491L249.294 400.485Z" fill="white"/>
<path d="M298.01 390.444L282.709 352.043L293.437 347.727L308.738 386.129L298.01 390.444Z" fill="white"/>
<path d="M326.851 361.379C329.313 361.819 331.511 361.908 333.446 361.643C335.292 361.379 336.875 360.762 338.194 359.706C339.425 358.737 340.129 357.68 340.48 356.447C340.744 355.214 340.568 354.069 339.777 353.1C338.898 352.043 337.93 351.426 336.875 351.338C335.732 351.25 333.797 351.867 330.896 353.012C326.939 354.685 323.773 355.302 321.399 354.949C319.025 354.597 316.826 353.188 314.98 350.81C312.605 347.639 311.638 344.292 312.254 340.681C312.869 337.07 314.892 333.987 318.233 331.345C320.08 329.936 322.014 328.879 324.037 328.086C326.059 327.293 328.17 326.853 330.368 326.677L332.478 335.308C330.808 335.22 329.225 335.396 327.818 335.749C326.411 336.101 325.18 336.718 324.125 337.598C323.069 338.479 322.366 339.36 322.102 340.417C321.838 341.474 322.014 342.354 322.63 343.147C323.245 343.94 324.037 344.38 325.004 344.468C325.971 344.556 327.466 344.116 329.577 343.235L330.104 343.059C334.589 341.209 337.842 340.417 339.865 340.681C341.272 340.857 342.591 341.386 343.91 342.178C345.141 342.971 346.372 344.116 347.427 345.437C350.065 348.872 351.12 352.571 350.417 356.447C349.713 360.322 347.427 363.757 343.558 366.752C341.272 368.513 338.81 369.746 336.347 370.451C333.885 371.156 331.071 371.332 328.082 371.067L326.851 361.379Z" fill="white"/>
<path d="M374.423 336.013L339.074 314.61L344.965 304.834L358.683 313.113L366.597 300.078L352.879 291.798L358.771 282.022L394.12 303.425L388.229 313.201L373.896 304.481L365.982 317.517L380.315 326.236L374.423 336.013Z" fill="white"/>
<mask id="mask0" mask-type="alpha" maskUnits="userSpaceOnUse" x="139" y="127" width="205" height="205">
<path d="M241.468 331.522C297.803 331.522 343.472 285.779 343.472 229.353C343.472 172.926 297.803 127.183 241.468 127.183C185.133 127.183 139.464 172.926 139.464 229.353C139.464 285.779 185.133 331.522 241.468 331.522Z" fill="white"/>
</mask>
<g mask="url(#mask0)">
<path d="M216.494 129.826H95.1445V194.826H216.494V129.826Z" fill="#00237C"/>
<path d="M128.472 129.826H95.1445V150.26L257.647 257.713L297.217 241.419L128.472 129.826Z" fill="white"/>
<path d="M95.1445 131.499V145.591L259.845 254.454L266.265 244.678L95.1445 131.499Z" fill="#CD142B"/>
<path d="M387.439 129.826H266.089V194.826H387.439V129.826Z" fill="#00237C"/>
<path d="M354.199 129.826H387.526V150.26L224.936 257.713L185.454 241.419L354.199 129.826Z" fill="white"/>
<path d="M387.526 131.499V145.591L222.825 254.454L216.406 244.678L387.526 131.499Z" fill="#CD142B"/>
<path d="M387.439 260.796H266.089V325.797H387.439V260.796Z" fill="#00237C"/>
<path d="M354.199 325.885H387.526V305.363L224.936 197.909L185.454 214.204L354.199 325.885Z" fill="white"/>
<path d="M387.526 324.124V310.12L222.825 201.168L216.406 210.945L387.526 324.124Z" fill="#CD142B"/>
<path d="M216.494 260.796H95.1445V325.797H216.494V260.796Z" fill="#00237C"/>
<path d="M128.472 325.885H95.1445V305.363L257.647 197.909L297.217 214.204L128.472 325.885Z" fill="white"/>
<path d="M95.1445 324.124V310.12L259.845 201.168L266.265 210.945L95.1445 324.124Z" fill="#CD142B"/>
<path d="M387.526 194.826H266.352V129.826H215.79V194.826H95.1445V259.387H215.79V325.885H266.352V259.387H387.526V194.826Z" fill="white"/>
<path d="M387.526 208.038H255.624V129.826H226.518V208.038H95.1445V246.175H226.518V325.885H255.624V246.175H387.526V208.038Z" fill="#CD142B"/>
</g>
<path d="M339.472 229.353C339.472 283.576 295.588 327.522 241.468 327.522C187.348 327.522 143.464 283.576 143.464 229.353C143.464 175.129 187.348 131.183 241.468 131.183C295.588 131.183 339.472 175.129 339.472 229.353Z" stroke="white" stroke-width="8"/>
</g>
</svg>
