<svg width="21" height="21" viewBox="0 0 21 21" fill="none" xmlns="http://www.w3.org/2000/svg">
<g clip-path="url(#clip0)">
<path d="M10.3505 10.1158C11.7403 10.1158 12.9437 9.61732 13.9269 8.63391C14.9102 7.65067 15.4086 6.4476 15.4086 5.05772C15.4086 3.66832 14.9102 2.46509 13.9268 1.48152C12.9433 0.498434 11.7401 0 10.3505 0C8.96066 0 7.75758 0.498434 6.77433 1.48168C5.79108 2.46493 5.29248 3.66816 5.29248 5.05772C5.29248 6.4476 5.79108 7.65083 6.77449 8.63408C7.7579 9.61716 8.96114 10.1158 10.3505 10.1158Z" fill="#00237C"/>
<path d="M19.2006 16.1482C19.1722 15.739 19.1149 15.2926 19.0304 14.8212C18.9452 14.3464 18.8355 13.8974 18.7041 13.4871C18.5684 13.063 18.3838 12.6442 18.1557 12.2429C17.9189 11.8263 17.6407 11.4636 17.3286 11.1651C17.0023 10.8528 16.6027 10.6018 16.1406 10.4187C15.6801 10.2365 15.1699 10.1442 14.624 10.1442C14.4096 10.1442 14.2023 10.2322 13.8019 10.4928C13.5555 10.6535 13.2673 10.8394 12.9456 11.0449C12.6705 11.2202 12.2978 11.3844 11.8375 11.5331C11.3884 11.6784 10.9324 11.7521 10.4824 11.7521C10.0323 11.7521 9.57651 11.6784 9.12694 11.5331C8.66711 11.3846 8.29445 11.2204 8.01968 11.0451C7.701 10.8415 7.41261 10.6556 7.16251 10.4927C6.76261 10.232 6.55513 10.144 6.34076 10.144C5.79474 10.144 5.28461 10.2365 4.8243 10.4188C4.36256 10.6016 3.96281 10.8527 3.63613 11.1653C3.32419 11.4639 3.04589 11.8265 2.80941 12.2429C2.58142 12.6442 2.39685 13.0629 2.26099 13.4873C2.12977 13.8976 2.02002 14.3464 1.93478 14.8212C1.85035 15.292 1.79299 15.7385 1.76463 16.1486C1.73676 16.5505 1.72266 16.9675 1.72266 17.3887C1.72266 18.4849 2.07113 19.3724 2.7583 20.0268C3.43698 20.6727 4.335 21.0003 5.42704 21.0003H15.5387C16.6307 21.0003 17.5284 20.6728 18.2073 20.0268C18.8946 19.3728 19.2431 18.4852 19.2431 17.3886C19.2429 16.9654 19.2286 16.5481 19.2006 16.1482Z" fill="#00237C"/>
</g>
<defs>
<clipPath id="clip0">
<rect width="21" height="21" fill="white"/>
</clipPath>
</defs>
</svg>
