<svg width="85" height="81" viewBox="0 0 85 81" fill="none" xmlns="http://www.w3.org/2000/svg">
<path d="M78.256 40.5002C78.256 20.702 62.2505 4.65771 42.5001 4.65771C22.7496 4.65771 6.74414 20.702 6.74414 40.5002H78.256Z" fill="#CD142B"/>
<path d="M6.74414 40.0483C6.74414 59.8466 22.7496 75.8908 42.5001 75.8908C62.2505 75.8908 78.256 59.8466 78.256 40.0483H6.74414Z" fill="#00237C"/>
<path d="M78.256 40.5002C78.256 60.2985 62.2505 76.3427 42.5001 76.3427C22.7496 76.3427 6.74414 60.2985 6.74414 40.5002C6.74414 20.7019 22.7496 4.65771 42.5001 4.65771C62.2505 4.65771 78.256 20.7019 78.256 40.5002Z" stroke="white" stroke-width="4" stroke-miterlimit="10"/>
<path d="M6.74414 40.5H26.9142" stroke="white" stroke-width="3" stroke-miterlimit="10"/>
<path d="M57.9927 40.0015H78.2559" stroke="white" stroke-width="3" stroke-miterlimit="10"/>
<path d="M24.1791 20.7485C24.5831 21.0912 24.8939 21.4806 25.127 21.9167C25.3601 22.3529 25.4999 22.8202 25.5466 23.3342C25.5932 23.8483 25.531 24.3312 25.3912 24.814C25.2513 25.2969 25.0027 25.7175 24.6919 26.1069C24.3656 26.4963 23.9771 26.7923 23.542 27.026C23.1069 27.2596 22.6252 27.3842 22.1279 27.4154C21.6151 27.4621 21.1334 27.3998 20.6517 27.244C20.1855 27.0883 19.7504 26.839 19.3464 26.5119C18.9423 26.1692 18.6316 25.7798 18.3985 25.3437C18.1654 24.9075 18.0255 24.4246 17.9789 23.9106C17.9323 23.4121 17.9789 22.9292 18.1188 22.4463C18.2586 21.9635 18.5072 21.5429 18.818 21.1535C19.1444 20.764 19.5173 20.4681 19.9679 20.2344C20.4186 20.0008 20.8848 19.8762 21.382 19.8294C21.8793 19.7983 22.3765 19.845 22.8427 20.0008C23.34 20.1721 23.7751 20.4213 24.1791 20.7485ZM23.3866 25.0165C23.7285 24.6115 23.8528 24.1442 23.7751 23.6146C23.6818 23.085 23.4177 22.6177 22.9359 22.2283C22.4698 21.8388 21.9725 21.6363 21.4286 21.6519C20.8848 21.6519 20.4497 21.8544 20.1233 22.2594C19.7815 22.6644 19.6572 23.1317 19.7348 23.6613C19.8281 24.191 20.1078 24.6583 20.574 25.0477C21.0557 25.4527 21.5529 25.6552 22.0813 25.6552C22.6096 25.6396 23.0447 25.4215 23.3866 25.0165Z" fill="white"/>
<path d="M28.2193 15.6858L28.2349 15.7014C28.4369 15.8416 28.5923 15.9662 28.7166 16.0908C28.67 15.935 28.6544 15.7481 28.6389 15.5145C28.6389 15.4833 28.6389 15.4677 28.6389 15.4521L28.5456 13.5518L30.5191 12.4458L30.1928 16.6671L34.3107 18.7077L32.4149 19.767L30.3171 18.4585C30.2239 18.3962 30.1307 18.3339 30.053 18.2716C29.9597 18.2093 29.882 18.1314 29.8199 18.0535C29.8509 18.1625 29.882 18.2871 29.8976 18.3806C29.9131 18.4741 29.9131 18.5831 29.9131 18.6921L29.9286 21.1689L28.0328 22.2281L28.4369 17.6018L24.6919 15.7325L26.6809 14.611L28.2193 15.6858Z" fill="white"/>
<path d="M36.331 18.2405L34.9946 11.0596L39.2213 10.2651L39.5166 11.8384L37.1235 12.2901L37.3566 13.5363L39.6098 13.1157L39.905 14.6578L37.6518 15.0784L38.1802 17.8978L36.331 18.2405Z" fill="white"/>
<path d="M50.7357 14.8603C50.6424 15.3743 50.4715 15.8416 50.2073 16.2622C49.9432 16.6828 49.6169 17.041 49.1973 17.337C48.7777 17.633 48.3271 17.8355 47.8454 17.9445C47.3637 18.0535 46.8664 18.0691 46.3847 17.9912C45.8874 17.9133 45.4368 17.7264 45.0172 17.4616C44.5977 17.1968 44.2402 16.8541 43.9605 16.4335C43.6653 16.013 43.4633 15.5612 43.3545 15.0783C43.2457 14.5955 43.2457 14.097 43.3234 13.583C43.4167 13.0689 43.5876 12.6016 43.8518 12.181C44.1159 11.7605 44.4578 11.4022 44.8774 11.1062C45.2814 10.8103 45.732 10.6078 46.2137 10.4987C46.6955 10.3897 47.1927 10.3741 47.69 10.452C48.1872 10.5299 48.6379 10.7168 49.0574 10.9816C49.477 11.2464 49.8344 11.5891 50.1141 12.0097C50.3938 12.4303 50.5958 12.882 50.7046 13.3649C50.8134 13.8478 50.8134 14.3462 50.7357 14.8603ZM46.6644 16.3401C47.1927 16.4335 47.6589 16.3089 48.0629 15.9662C48.4669 15.6235 48.7311 15.1562 48.8399 14.5332C48.9487 13.9257 48.8554 13.396 48.5757 12.9287C48.296 12.4614 47.9075 12.1966 47.3947 12.1032C46.8664 12.0097 46.4002 12.1343 45.9962 12.477C45.5922 12.8197 45.328 13.3026 45.2192 13.8945C45.1105 14.5176 45.2037 15.0472 45.4679 15.4989C45.732 15.9818 46.136 16.2622 46.6644 16.3401Z" fill="white"/>
<path d="M52.4297 19.5959L56.2057 13.334L57.9151 14.3776C58.5833 14.7826 59.0339 15.0942 59.267 15.3278C59.5001 15.5459 59.6555 15.7951 59.7642 16.0599C59.873 16.3559 59.9196 16.683 59.873 17.0101C59.8264 17.3373 59.7176 17.6799 59.5156 17.9915C59.2204 18.4744 58.8785 18.8015 58.4589 18.9573C58.0549 19.1286 57.5887 19.1286 57.0915 18.9573L57.2158 22.4776L55.3666 21.3561L55.4599 18.0694L53.9836 20.5149L52.4297 19.5959ZM55.9571 17.2282L56.2679 17.4151C56.6253 17.6332 56.9205 17.7267 57.1536 17.6955C57.3867 17.6644 57.5887 17.5242 57.7597 17.2594C57.9461 16.9478 58.0083 16.683 57.9306 16.4494C57.8529 16.2313 57.6354 15.9976 57.278 15.7796L56.9516 15.5771L55.9571 17.2282Z" fill="white"/>
<path d="M58.8008 23.9261L64.4415 19.2998L65.3739 20.4369C66.0576 21.2781 66.5083 21.9167 66.7103 22.3373C66.9123 22.7579 67.0211 23.1785 67.0521 23.599C67.0832 24.1442 66.9745 24.6738 66.7414 25.1723C66.4927 25.6708 66.1198 26.1225 65.6225 26.5275C65.1253 26.9325 64.6125 27.2129 64.0686 27.3531C63.5403 27.4933 62.9964 27.4933 62.4681 27.3531C62.064 27.244 61.6756 27.0571 61.3337 26.7767C60.9763 26.5119 60.5101 26.0135 59.9352 25.2969L59.7331 25.0477L58.8008 23.9261ZM61.2715 24.3623L61.4735 24.6115C61.9553 25.1879 62.4214 25.515 62.8876 25.5929C63.3538 25.6552 63.8511 25.4683 64.3949 25.0321C64.9388 24.596 65.2185 24.1286 65.2496 23.6613C65.2807 23.194 65.0631 22.6644 64.5814 22.0725L64.3794 21.8233L61.2715 24.3623Z" fill="white"/>
<path d="M15.6636 54.0366L21.9881 50.4072L24.2413 54.3638L22.8583 55.1582L21.584 52.9151L20.4808 53.5382L21.6773 55.6411L20.3254 56.4199L19.1288 54.317L18.0566 54.9245L19.3308 57.1676L17.9168 57.9776L15.6636 54.0366Z" fill="white"/>
<path d="M21.0869 62.0585L25.6244 56.3418L27.1472 57.5568L26.9919 62.2454C26.9919 62.3389 26.9608 62.5103 26.9142 62.7751C26.8675 63.0399 26.8054 63.3358 26.7121 63.6785C26.8675 63.4137 27.0074 63.1801 27.1472 62.9931C27.2871 62.7906 27.3959 62.6349 27.5202 62.4791L29.7578 59.6597L31.2807 60.8747L26.7432 66.5914L25.2204 65.3764L25.3758 60.6722C25.3758 60.5787 25.4068 60.4074 25.4535 60.1426C25.5001 59.8778 25.5622 59.5818 25.6399 59.2547C25.4845 59.5195 25.3291 59.7531 25.2048 59.9401C25.065 60.1426 24.9562 60.3139 24.8319 60.4541L22.5942 63.2735L21.0869 62.0585Z" fill="white"/>
<path d="M35.8802 67.308L36.2531 65.8126L40.1068 66.7628C40.0913 66.8096 40.0913 66.8719 40.0758 66.9186C40.0602 66.9809 40.0447 67.0588 40.0136 67.1834C39.7184 68.3984 39.159 69.2707 38.3354 69.7848C37.5118 70.2988 36.5173 70.4078 35.3363 70.1119C34.7458 69.9717 34.2641 69.7536 33.8445 69.4732C33.4405 69.1928 33.0986 68.819 32.8189 68.3828C32.5547 67.9623 32.3994 67.4949 32.3217 66.9809C32.244 66.4669 32.275 65.9684 32.3994 65.4544C32.5237 64.9248 32.7412 64.4574 33.0365 64.068C33.3317 63.663 33.7047 63.3359 34.1553 63.0711C34.6059 62.8219 35.0721 62.6505 35.5849 62.5882C36.0977 62.5259 36.626 62.5571 37.1544 62.6973C37.8537 62.8686 38.4441 63.1646 38.9259 63.5696C39.4076 63.9746 39.7494 64.5042 39.9981 65.1273L38.1023 65.5167C37.9624 65.1896 37.7915 64.9248 37.5739 64.7378C37.3564 64.5353 37.0922 64.4107 36.7659 64.3328C36.1754 64.1926 35.6781 64.2705 35.243 64.5665C34.8079 64.8624 34.5127 65.3609 34.3418 66.0307C34.1708 66.7005 34.2175 67.2769 34.4505 67.7442C34.6992 68.2115 35.1032 68.523 35.6937 68.6632C36.1909 68.7878 36.6416 68.7723 37.0301 68.6165C37.4185 68.4607 37.6983 68.1803 37.8537 67.7909L35.8802 67.308Z" fill="white"/>
<path d="M44.054 70.8284L43.2148 63.5696L45.2194 63.3359L45.8721 68.8969L48.3584 68.6009L48.5604 70.2988L44.054 70.8284Z" fill="white"/>
<path d="M52.6628 69.0528L49.959 62.2613L51.8548 61.498L54.5586 68.2896L52.6628 69.0528Z" fill="white"/>
<path d="M57.7594 63.9122C58.1945 63.9901 58.583 64.0057 58.9249 63.9589C59.2512 63.9122 59.5309 63.8032 59.764 63.6162C59.9815 63.4449 60.1059 63.258 60.168 63.0399C60.2146 62.8218 60.1835 62.6193 60.0437 62.448C59.8883 62.2611 59.7174 62.152 59.5309 62.1364C59.3289 62.1209 58.987 62.2299 58.4742 62.4324C57.775 62.7284 57.2156 62.8374 56.796 62.7751C56.3764 62.7128 55.988 62.4636 55.6616 62.043C55.2421 61.4822 55.0711 60.8903 55.1799 60.2516C55.2887 59.613 55.6461 59.0678 56.2366 58.6005C56.5629 58.3513 56.9048 58.1643 57.2622 58.0241C57.6196 57.8839 57.9925 57.8061 58.381 57.7749L58.7539 59.3014C58.4587 59.2859 58.179 59.317 57.9304 59.3793C57.6817 59.4416 57.4642 59.5507 57.2777 59.7064C57.0912 59.8622 56.9669 60.018 56.9203 60.2049C56.8737 60.3918 56.9048 60.5476 57.0135 60.6878C57.1223 60.828 57.2622 60.9059 57.4331 60.9214C57.604 60.937 57.8682 60.8591 58.2411 60.7034L58.3344 60.6722C59.1269 60.3451 59.7018 60.2049 60.0592 60.2516C60.3079 60.2828 60.541 60.3762 60.774 60.5164C60.9916 60.6566 61.2091 60.8591 61.3956 61.0928C61.8618 61.7003 62.0483 62.3545 61.9239 63.0399C61.7996 63.7253 61.3956 64.3328 60.7119 64.8624C60.3079 65.1739 59.8728 65.392 59.4377 65.5166C59.0026 65.6412 58.5053 65.6724 57.977 65.6257L57.7594 63.9122Z" fill="white"/>
<path d="M66.1662 59.4261L59.9194 55.6409L60.9606 53.9119L63.3847 55.3761L64.7832 53.0707L62.3591 51.6065L63.4002 49.8774L69.647 53.6626L68.6059 55.3917L66.073 53.8496L64.6745 56.1549L67.2074 57.697L66.1662 59.4261Z" fill="white"/>
<mask id="mask0" mask-type="alpha" maskUnits="userSpaceOnUse" x="24" y="22" width="37" height="37">
<path d="M42.6711 58.6316C52.6264 58.6316 60.6967 50.5418 60.6967 40.5624C60.6967 30.583 52.6264 22.4932 42.6711 22.4932C32.7158 22.4932 24.6455 30.583 24.6455 40.5624C24.6455 50.5418 32.7158 58.6316 42.6711 58.6316Z" fill="white"/>
</mask>
<g mask="url(#mask0)">
<path d="M38.2577 22.9604H16.8135V34.4562H38.2577V22.9604Z" fill="#00237C"/>
<path d="M22.7029 22.9604H16.8135V26.5743L45.5301 45.5781L52.5228 42.6964L22.7029 22.9604Z" fill="white"/>
<path d="M16.8135 23.2563V25.7487L45.9186 45.0017L47.053 43.2727L16.8135 23.2563Z" fill="#CD142B"/>
<path d="M68.4662 22.9604H47.022V34.4562H68.4662V22.9604Z" fill="#00237C"/>
<path d="M62.5924 22.9604H68.4818V26.5743L39.7496 45.5781L32.7725 42.6964L62.5924 22.9604Z" fill="white"/>
<path d="M68.4817 23.2563V25.7487L39.3766 45.0017L38.2422 43.2727L68.4817 23.2563Z" fill="#CD142B"/>
<path d="M68.4662 46.1235H47.022V57.6193H68.4662V46.1235Z" fill="#00237C"/>
<path d="M62.5924 57.6347H68.4818V54.0053L39.7496 35.0015L32.7725 37.8832L62.5924 57.6347Z" fill="white"/>
<path d="M68.4817 57.323V54.8463L39.3766 35.5776L38.2422 37.3067L68.4817 57.323Z" fill="#CD142B"/>
<path d="M38.2577 46.1235H16.8135V57.6193H38.2577V46.1235Z" fill="#00237C"/>
<path d="M22.7029 57.6347H16.8135V54.0053L45.5301 35.0015L52.5228 37.8832L22.7029 57.6347Z" fill="white"/>
<path d="M16.8135 57.323V54.8463L45.9186 35.5776L47.053 37.3067L16.8135 57.323Z" fill="#CD142B"/>
<path d="M68.4817 34.4562H47.0685V22.9604H38.1334V34.4562H16.8135V45.8741H38.1334V57.6347H47.0685V45.8741H68.4817V34.4562Z" fill="white"/>
<path d="M68.4817 36.7928H45.1727V22.9604H40.0292V36.7928H16.8135V43.5376H40.0292V57.6347H45.1727V43.5376H68.4817V36.7928Z" fill="#CD142B"/>
</g>
<path d="M59.1967 40.5624C59.1967 49.7167 51.7945 57.1316 42.6711 57.1316C33.5477 57.1316 26.1455 49.7167 26.1455 40.5624C26.1455 31.408 33.5477 23.9932 42.6711 23.9932C51.7945 23.9932 59.1967 31.408 59.1967 40.5624Z" stroke="white" stroke-width="3"/>
</svg>
