<svg width="91" height="91" viewBox="0 0 91 91" fill="none" xmlns="http://www.w3.org/2000/svg">
<path d="M45.5 0C20.4098 0 0 20.4117 0 45.5C0 70.5883 20.4098 91 45.5 91C70.5902 91 91 70.5883 91 45.5C91 20.4117 70.5902 0 45.5 0ZM45.5 87.2084C22.5019 87.2084 3.79161 68.4981 3.79161 45.5C3.79161 22.5019 22.5019 3.79161 45.5 3.79161C68.4981 3.79161 87.2084 22.5019 87.2084 45.5C87.2084 68.4981 68.4981 87.2084 45.5 87.2084Z" fill="white"/>
<path d="M63.5882 43.9057L37.0466 26.8432C36.4652 26.4637 35.7136 26.4433 35.1137 26.7728C34.5027 27.106 34.125 27.743 34.125 28.4373V62.5623C34.125 63.2565 34.5027 63.8935 35.1137 64.2267C35.3951 64.3805 35.7099 64.4582 36.0209 64.4582C36.3764 64.4582 36.7356 64.3581 37.0466 64.1564L63.5882 47.0939C64.1289 46.7459 64.4584 46.1441 64.4584 45.4998C64.4584 44.8555 64.1289 44.2538 63.5882 43.9057ZM37.9166 59.089V31.9106L59.056 45.4998L37.9166 59.089Z" fill="white"/>
</svg>
