<svg width="1440" height="266" fill="none" xmlns="http://www.w3.org/2000/svg"><mask id="a" maskUnits="userSpaceOnUse" x="0" y="0" width="1440" height="266"><path fill="#C4C4C4" d="M0 0h1440v266H0z"/></mask><g mask="url(#a)"><path d="M-481.379-787.2c70.443 55.136 136.146 115.259 185.809 185.817 29.956 42.57 60.296 91.367 68.659 140.788 14.358 84.783-15.903 176.651-39.143 261.024-25.069 90.988-62.554 190.476-51.921 282.232 5.237 45.397 24.832 82.089 66.041 111.695 36.328 25.971 79.321 43.161 124.96 49.964 88.04 13.395 179.657-2.366 266.635-15.361 91.234-13.579 185.741-30.087 278.51-20.686 65.77 6.656 130.389 30.22 191.587 51.848 92.239 32.607 182.378 70.272 271.185 109.575 56.706 25.08 113.537 50.579 169.517 76.979 111.31 52.484 219.92 110.128 330.07 164.936 81.35 40.482 447.78 239.996 539.02 257.446 12.66 2.417 26.68 4.178 39.35 1.853 26.77-4.926 16.03-36.323 8.27-49.349a55.494 55.494 0 00-3.84-5.418c-23.4-30.199-59.35-53.251-92.46-73.497-15.44-9.462-31.67-18.638-47.71-27.537C1670.78 630.542 1316.68 381.118 1155 311c-154-50.879-320-102.727-534-163.362-77.531-23.922-161.01-35.863-243.519-30.23-67.463 4.608-133.877 18.341-199.974 30.23-82.712 14.88-171.35 30.906-255.349 13.753-45.261-9.216-88.897-30.875-121.505-60.911-36.232-33.364-45.804-78.71-43.67-122.52 5.034-103.03 55.769-206.369 90.534-307.382 17.224-50.005 21.967-77.078 25.329-131.173 0-50.582-9.852-106.574-25.329-140.788-26.058-57.604-57.748-115.284-104.813-160.932-16.537-15.844-34.182-30.707-52.823-44.496-59.54-44.372-129.904-83.43-205.764-100.45-19.132-4.281-44.81-8.1-63.208.051-57.091 25.295 78.795 105.643 97.724 120.01" fill="#00237C"/><path d="M-682.631-702.043c65.462 51.03 123.808 107.401 169.93 170.988 30.286 41.753 59.599 87.688 75.046 134.361 26.127 78.934 19.461 166.068 17.029 248.958-2.688 91.4-6.581 184.305 11.311 273.213 9.658 47.985 30.919 92.259 74.681 126.375 41.087 32.055 90.822 53.572 144.412 66.437 112.8 27.063 234.237 24.736 350.406 23.639 62.409-.595 124.829-1.763 187.238-.84 56.169.83 116.06.594 170.891 11.993C671.008 384.86 812.975 468.078 940.371 542.04c44.93 26.089 90.359 52.024 134.889 78.513 71.76 42.675 139.87 90.056 211.24 133.52 377.44 189.968 444.39 223.725 519.48 236.723 16.21 2.809 33.74 5.228 49.65 3.762 22.32-2.05 55.42-8.928 59.11-32.68.23-1.358.31-2.731.23-4.101-1.21-23.444-27.87-44.643-45.69-60.143a427.306 427.306 0 00-35.75-27.463c-128.19-89.656-589.79-317.747-735.22-388.162C949.651 410.149 795.862 351.26 637 299c-88.474-29.103-193.745-66.759-289.578-66-80.568.666-140.349 17.888-220.285 24.234-99.093 7.873-220.237 24.274-317.359 0-51.595-12.896-84.192-45.536-120.317-79.303-36.489-34.033-46.912-80.891-46.475-124.335 1.034-103.25 44.201-207.072 66.447-310.301 10.546-48.928 18.391-99.056 14.024-148.866-4.245-48.385-24.91-89.851-50.61-132.239-34.945-57.693-76.299-113.941-126.155-162.408-16.831-16.313-35.731-31.022-56.364-43.864-54.734-34.157-117.702-64.429-187.749-69.288-22.125-1.537-48.044-.707-68.247 7.555-57.191 23.383 62.542 88.478 83.037 103.772z" fill="#C4C4C4"/></g></svg>