<svg width="489" height="337" viewBox="0 0 489 337" fill="none" xmlns="http://www.w3.org/2000/svg">
<rect y="51" width="757" height="286" rx="143" fill="#00237C"/>
<rect x="32.5" y="83.5" width="685" height="221" rx="110.5" stroke="white" stroke-width="7" stroke-dasharray="15 15"/>
<path d="M427 104.5C427 123.628 421.861 141.553 412.884 156.975C410.937 160.326 408.806 163.559 406.508 166.661C404.508 169.363 402.377 171.964 400.132 174.454C381.004 195.664 353.307 209 322.5 209C264.788 209 218 162.212 218 104.5C218 46.7882 264.788 0 322.5 0C353.826 0 381.93 13.785 401.079 35.6157C402.981 37.7792 404.79 40.0202 406.508 42.3388C408.806 45.4412 410.937 48.6741 412.884 52.0255C421.861 67.4474 427 85.3716 427 104.5Z" fill="#00237C"/>
<path d="M380.632 191.349C375.595 194.729 370.247 197.685 364.638 200.154C360.291 202.073 355.789 203.706 351.155 205.02C350.31 205.261 349.457 205.489 348.604 205.706C340.265 207.857 331.517 209 322.5 209C319.136 209 315.809 208.841 312.527 208.526C306.114 207.922 299.869 206.734 293.844 205.024C290.888 204.183 287.982 203.212 285.137 202.118C284.961 202.052 284.786 201.987 284.61 201.918C283.177 201.362 281.761 200.771 280.361 200.154C274.752 197.68 269.405 194.729 264.363 191.345C268.605 185.479 274.062 180.556 280.361 176.927C284.524 174.531 289.055 172.707 293.844 171.56C294.583 171.38 295.33 171.217 296.081 171.074C297.497 170.796 298.938 170.584 300.395 170.433C300.816 170.388 301.232 170.347 301.657 170.315C303.036 170.2 304.433 170.143 305.845 170.143H339.15C340.995 170.143 342.812 170.241 344.6 170.429C346.057 170.58 347.494 170.796 348.914 171.066C349.482 171.176 350.045 171.294 350.604 171.421C350.788 171.47 350.976 171.506 351.155 171.555C352.437 171.862 353.703 172.221 354.944 172.625C358.344 173.723 361.589 175.172 364.638 176.927C366.32 177.899 367.941 178.96 369.492 180.107C373.762 183.255 377.521 187.051 380.632 191.349Z" fill="#BC95E2"/>
<path d="M305.845 170.143C293.86 170.143 285.737 187.463 285.137 202.118C284.961 202.052 284.786 201.987 284.61 201.918C283.177 201.362 281.761 200.771 280.361 200.154C274.752 197.68 269.405 194.729 264.363 191.345C268.605 185.479 274.062 180.556 280.361 176.927C284.524 174.531 289.055 172.707 293.844 171.56C294.583 171.38 295.33 171.217 296.081 171.074C297.497 170.796 298.938 170.584 300.395 170.433C300.816 170.388 301.232 170.347 301.657 170.315C303.036 170.2 304.433 170.143 305.845 170.143Z" fill="#9373B9"/>
<path d="M322.496 191.084L300.864 203.106L294.283 170.456L307.725 164.581" fill="#F6F1F1"/>
<path d="M322.496 191.084L344.128 203.106L350.709 170.456L337.268 164.581" fill="#F6F1F1"/>
<path d="M340.75 150.438V172.836C340.75 181.036 335.344 187.967 327.896 190.269C326.192 190.798 324.375 191.084 322.496 191.084C312.417 191.084 304.248 182.916 304.248 172.837V150.439H340.75V150.438Z" fill="#EAAC9D"/>
<path d="M340.75 171.417V172.836C340.75 181.036 335.343 187.967 327.896 190.269C321.176 188.204 316.125 182.361 315.191 175.213C316.411 175.288 317.637 175.325 318.869 175.325C322.321 175.325 325.706 175.051 329.003 174.51C333.066 173.856 336.992 172.811 340.75 171.417Z" fill="#FFCBBE"/>
<path d="M272.104 113.543C272.104 121.91 265.992 128.847 257.989 130.135C257.114 130.277 256.214 130.35 255.296 130.35C246.011 130.35 238.488 122.828 238.488 113.543C238.488 104.258 246.011 96.7349 255.296 96.7349C256.214 96.7349 257.114 96.8087 257.989 96.9504C265.992 98.2387 272.104 105.177 272.104 113.543Z" fill="#FFCBBE"/>
<path d="M272.103 113.543C272.103 121.91 265.991 128.847 257.988 130.135C256.534 124.849 255.758 119.285 255.758 113.543C255.758 107.801 256.534 102.237 257.988 96.9512C265.991 98.2386 272.103 105.176 272.103 113.543Z" fill="#EAAC9D"/>
<path d="M255.296 119.55C258.614 119.55 261.303 116.861 261.303 113.543C261.303 110.226 258.614 107.536 255.296 107.536C251.979 107.536 249.289 110.226 249.289 113.543C249.289 116.861 251.979 119.55 255.296 119.55Z" fill="#EAAC9D"/>
<path d="M372.893 113.543C372.893 121.91 379.005 128.847 387.008 130.135C387.883 130.277 388.782 130.35 389.7 130.35C398.985 130.35 406.508 122.828 406.508 113.543C406.508 104.258 398.985 96.7349 389.7 96.7349C388.782 96.7349 387.883 96.8087 387.008 96.9504C379.005 98.2387 372.893 105.177 372.893 113.543Z" fill="#FFCBBE"/>
<path d="M372.893 113.543C372.893 121.91 379.005 128.847 387.008 130.135C388.462 124.849 389.238 119.285 389.238 113.543C389.238 107.801 388.462 102.237 387.008 96.9512C379.005 98.2386 372.893 105.176 372.893 113.543Z" fill="#EAAC9D"/>
<path d="M389.7 119.55C393.018 119.55 395.708 116.86 395.708 113.543C395.708 110.225 393.018 107.536 389.7 107.536C386.383 107.536 383.693 110.225 383.693 113.543C383.693 116.86 386.383 119.55 389.7 119.55Z" fill="#EAAC9D"/>
<path d="M385.648 104.709C385.648 136.134 362.691 162.203 332.634 167.043C329.336 167.585 325.952 167.858 322.499 167.858C287.621 167.858 259.35 139.587 259.35 104.709V40.417H385.649V104.709H385.648Z" fill="#FFCBBE"/>
<path d="M333.62 166.877C333.294 166.935 332.963 166.992 332.632 167.045C329.334 167.584 325.95 167.857 322.497 167.857C287.62 167.857 259.348 139.589 259.348 104.708V40.416H281.615V104.708C281.615 135.789 304.058 161.616 333.62 166.877Z" fill="#EAAC9D"/>
<path d="M288.495 11.9458C296.784 11.9458 303.503 18.6652 303.503 26.9542V38.9893C303.503 48.7482 295.592 56.6591 285.834 56.6591H259.348V41.0927C259.348 24.9952 272.398 11.9458 288.495 11.9458Z" fill="#BD5423"/>
<path d="M270.382 110.413H259.348V56.6588L271.739 50.4146L276.898 56.6588L270.382 110.413Z" fill="#BD5423"/>
<path d="M374.614 110.414H385.648V28.9673L367.672 53.1427L374.614 110.414Z" fill="#D9723E"/>
<path d="M401.783 0H323.663C312.53 0 303.504 9.02578 303.504 20.1595V39.7827C303.504 49.1032 311.06 56.659 320.38 56.659H355.74C381.169 56.659 401.783 36.0452 401.783 10.6161V0Z" fill="#D9723E"/>
<path d="M338.707 56.6586H320.383C311.06 56.6586 303.504 49.1028 303.504 39.7835V20.1612C303.504 9.02537 312.529 0 323.665 0H341.989C330.858 0 321.832 9.02537 321.832 20.1612V39.7835C321.832 49.1028 329.388 56.6586 338.707 56.6586Z" fill="#BD5423"/>
<path d="M322.499 137.944C317.211 137.944 311.923 136.619 307.103 133.97C305.743 133.222 305.247 131.514 305.995 130.155C306.742 128.795 308.45 128.299 309.81 129.046C317.755 133.414 327.243 133.414 335.188 129.046C336.546 128.299 338.255 128.795 339.003 130.155C339.75 131.514 339.254 133.222 337.894 133.97C333.074 136.62 327.786 137.944 322.499 137.944Z" fill="#DF9380"/>
<path d="M308.076 86.1719H276.366C272.784 86.1719 269.879 89.0762 269.879 92.6594V109.297C269.879 112.879 272.783 115.784 276.366 115.784H308.076C311.658 115.784 314.563 112.88 314.563 109.297V92.6594C314.563 89.0767 311.659 86.1719 308.076 86.1719Z" fill="#F6F1F1"/>
<path d="M368.628 86.1719H336.919C333.336 86.1719 330.432 89.0762 330.432 92.6594V109.297C330.432 112.879 333.336 115.784 336.919 115.784H368.628C372.211 115.784 375.116 112.88 375.116 109.297V92.6594C375.116 89.0767 372.212 86.1719 368.628 86.1719Z" fill="#F6F1F1"/>
<path d="M329.663 119.07H315.336C313.629 119.07 312.246 117.687 312.246 115.98C312.246 114.274 313.629 112.89 315.336 112.89H329.663C331.37 112.89 332.753 114.274 332.753 115.98C332.753 117.687 331.37 119.07 329.663 119.07Z" fill="#EAAC9D"/>
<path d="M332.844 101.708C332.844 108.715 338.524 114.395 345.531 114.395C352.538 114.395 358.218 108.715 358.218 101.708" fill="#DFEAEF"/>
<path d="M345.531 110.806C350.556 110.806 354.629 106.732 354.629 101.708C354.629 96.6835 350.556 92.6104 345.531 92.6104C340.507 92.6104 336.434 96.6835 336.434 101.708C336.434 106.732 340.507 110.806 345.531 110.806Z" fill="#2F373B"/>
<path d="M349.322 104.001C351.475 104.001 353.221 102.256 353.221 100.103C353.221 97.9499 351.475 96.2046 349.322 96.2046C347.169 96.2046 345.424 97.9499 345.424 100.103C345.424 102.256 347.169 104.001 349.322 104.001Z" fill="white"/>
<path d="M286.777 101.708C286.777 108.715 292.457 114.395 299.464 114.395C306.471 114.395 312.151 108.715 312.151 101.708" fill="#DFEAEF"/>
<path d="M299.465 110.806C304.489 110.806 308.562 106.732 308.562 101.708C308.562 96.6835 304.489 92.6104 299.465 92.6104C294.44 92.6104 290.367 96.6835 290.367 101.708C290.367 106.732 294.44 110.806 299.465 110.806Z" fill="#2F373B"/>
<path d="M301.593 110.554C300.911 110.721 300.197 110.807 299.466 110.807C294.441 110.807 290.367 106.733 290.367 101.708C290.367 96.6832 294.441 92.6094 299.466 92.6094C300.197 92.6094 300.911 92.6951 301.593 92.8625C297.592 93.8177 294.625 97.418 294.625 101.708C294.625 105.998 297.592 109.599 301.593 110.554Z" fill="#181E21"/>
<path d="M347.657 110.554C346.976 110.721 346.261 110.807 345.53 110.807C340.506 110.807 336.432 106.733 336.432 101.708C336.432 96.6832 340.506 92.6094 345.53 92.6094C346.261 92.6094 346.976 92.6951 347.657 92.8625C343.657 93.8177 340.689 97.418 340.689 101.708C340.689 105.998 343.657 109.599 347.657 110.554Z" fill="#181E21"/>
<path d="M303.256 104.001C305.409 104.001 307.154 102.256 307.154 100.103C307.154 97.9499 305.409 96.2046 303.256 96.2046C301.103 96.2046 299.357 97.9499 299.357 100.103C299.357 102.256 301.103 104.001 303.256 104.001Z" fill="white"/>
<path d="M388.732 88.5774H378.377C376.777 84.7705 373.01 82.0898 368.629 82.0898H336.919C331.091 82.0898 326.35 86.8311 326.35 92.6594V95.5418H318.646V92.6594C318.646 86.8315 313.904 82.0898 308.076 82.0898H276.366C271.985 82.0898 268.218 84.7701 266.618 88.5774H256.264V96.7415H265.797V109.297C265.797 115.125 270.539 119.867 276.367 119.867H308.076C313.904 119.867 318.646 115.125 318.646 109.297V103.706H326.35V109.297C326.35 115.125 331.092 119.867 336.92 119.867H368.629C374.457 119.867 379.199 115.125 379.199 109.297V96.7415H388.732V88.5774H388.732ZM310.482 109.297C310.482 110.623 309.402 111.702 308.076 111.702H276.366C275.04 111.702 273.961 110.623 273.961 109.297V92.659C273.961 91.3328 275.04 90.2535 276.366 90.2535H308.076C309.402 90.2535 310.482 91.3324 310.482 92.659V109.297ZM371.034 109.297C371.034 110.623 369.955 111.702 368.629 111.702H336.919C335.593 111.702 334.514 110.623 334.514 109.297V92.659C334.514 91.3328 335.593 90.2535 336.919 90.2535H368.629C369.955 90.2535 371.034 91.3324 371.034 92.659V109.297Z" fill="#181E21"/>
<path d="M322.499 123.789C322.499 123.789 312.828 116.491 303.097 120.141C297.712 122.16 294.016 126.973 290.338 130.869C287.982 133.366 289.798 137.463 293.23 137.369C303.148 137.098 316.284 134.526 322.499 123.789Z" fill="#BD5423"/>
<path d="M322.498 123.789C322.498 123.789 332.169 116.491 341.9 120.141C347.285 122.16 350.981 126.973 354.659 130.869C357.015 133.366 355.199 137.463 351.767 137.369C341.849 137.098 328.713 134.526 322.498 123.789Z" fill="#D9723E"/>
<path d="M424.021 106.86L362.762 200.959C357.072 203.338 351.124 205.228 344.973 206.576L419.38 103.676C420.274 102.439 421.992 102.141 423.254 103.002C423.895 103.443 424.295 104.1 424.429 104.81C424.556 105.496 424.429 106.231 424.021 106.86Z" fill="#F9BD5D"/>
<path d="M423.253 103.002C423.017 102.839 422.131 103.708 421.257 104.965L352.075 204.755C349.744 205.441 347.377 206.049 344.98 206.575L419.38 103.675C420.274 102.439 421.992 102.137 423.253 103.002Z" fill="#FFA31D"/>
<path d="M119.99 129.2L114.04 133.3L108.44 124.6L120.99 116.6H131.99V152H119.99V129.2ZM161.6 153C159.433 153 157.533 152.717 155.9 152.15C154.266 151.583 152.866 150.817 151.7 149.85C150.533 148.883 149.55 147.767 148.75 146.5C147.983 145.233 147.366 143.9 146.9 142.5C146.466 141.1 146.15 139.683 145.95 138.25C145.783 136.817 145.7 135.433 145.7 134.1C145.7 132.8 145.783 131.433 145.95 130C146.15 128.567 146.466 127.167 146.9 125.8C147.366 124.433 147.983 123.133 148.75 121.9C149.55 120.667 150.533 119.583 151.7 118.65C152.866 117.717 154.266 116.983 155.9 116.45C157.533 115.883 159.433 115.6 161.6 115.6C164.866 115.6 167.533 116.2 169.6 117.4C171.666 118.567 173.283 120.067 174.45 121.9C175.616 123.7 176.416 125.7 176.85 127.9C177.283 130.067 177.5 132.133 177.5 134.1C177.5 135.4 177.4 136.783 177.2 138.25C177.033 139.683 176.716 141.1 176.25 142.5C175.816 143.9 175.216 145.233 174.45 146.5C173.683 147.767 172.7 148.883 171.5 149.85C170.333 150.817 168.933 151.583 167.3 152.15C165.666 152.717 163.766 153 161.6 153ZM161.6 125.85C160.866 125.85 160.266 126.1 159.8 126.6C159.333 127.1 158.966 127.75 158.7 128.55C158.433 129.35 158.25 130.25 158.15 131.25C158.05 132.217 158 133.167 158 134.1C158 135.067 158.05 136.067 158.15 137.1C158.25 138.1 158.433 139.017 158.7 139.85C158.966 140.683 159.333 141.367 159.8 141.9C160.266 142.4 160.866 142.65 161.6 142.65C162.333 142.65 162.933 142.4 163.4 141.9C163.9 141.367 164.266 140.683 164.5 139.85C164.766 139.017 164.95 138.1 165.05 137.1C165.15 136.067 165.2 135.067 165.2 134.1C165.2 133.167 165.15 132.217 165.05 131.25C164.95 130.25 164.766 129.35 164.5 128.55C164.266 127.75 163.9 127.1 163.4 126.6C162.933 126.1 162.333 125.85 161.6 125.85ZM195.259 133.1V123.2H203.159V133.1H213.459V140.6H203.259V150.5H195.359V140.6H185.059V133.1H195.259ZM129.455 207H122.135L133.135 178.68H140.135L151.375 207H143.895L136.695 188.12L129.455 207ZM169.9 194.76C169.9 193.72 169.566 192.827 168.9 192.08C168.26 191.333 167.286 190.96 165.98 190.96C165.34 190.96 164.753 191.067 164.22 191.28C163.686 191.467 163.22 191.733 162.82 192.08C162.42 192.427 162.1 192.84 161.86 193.32C161.62 193.773 161.486 194.253 161.46 194.76H169.9ZM175.94 197.28C175.94 197.547 175.94 197.813 175.94 198.08C175.94 198.347 175.926 198.6 175.9 198.84H161.46C161.513 199.4 161.673 199.907 161.94 200.36C162.233 200.813 162.593 201.213 163.02 201.56C163.473 201.88 163.966 202.133 164.5 202.32C165.06 202.507 165.633 202.6 166.22 202.6C167.26 202.6 168.14 202.413 168.86 202.04C169.58 201.64 170.166 201.133 170.62 200.52L175.18 203.4C174.246 204.76 173.006 205.813 171.46 206.56C169.94 207.28 168.166 207.64 166.14 207.64C164.646 207.64 163.233 207.413 161.9 206.96C160.566 206.48 159.393 205.8 158.38 204.92C157.393 204.013 156.606 202.907 156.02 201.6C155.46 200.293 155.18 198.8 155.18 197.12C155.18 195.493 155.46 194.027 156.02 192.72C156.58 191.387 157.34 190.267 158.3 189.36C159.26 188.427 160.393 187.707 161.7 187.2C163.006 186.693 164.42 186.44 165.94 186.44C167.406 186.44 168.753 186.693 169.98 187.2C171.206 187.68 172.26 188.387 173.14 189.32C174.02 190.253 174.7 191.387 175.18 192.72C175.686 194.053 175.94 195.573 175.94 197.28ZM181.048 187.08H198.688V192.16H193.128V207H186.568V192.16H181.048V187.08ZM118.413 251.96C118.413 253.587 118.12 255.067 117.533 256.4C116.946 257.707 116.146 258.827 115.133 259.76C114.12 260.667 112.946 261.373 111.613 261.88C110.28 262.387 108.853 262.64 107.333 262.64C105.84 262.64 104.413 262.387 103.053 261.88C101.72 261.373 100.546 260.667 99.533 259.76C98.5463 258.827 97.7596 257.707 97.173 256.4C96.5863 255.067 96.293 253.587 96.293 251.96C96.293 250.333 96.5863 248.867 97.173 247.56C97.7596 246.253 98.5463 245.147 99.533 244.24C100.546 243.333 101.72 242.64 103.053 242.16C104.413 241.68 105.84 241.44 107.333 241.44C108.853 241.44 110.28 241.68 111.613 242.16C112.946 242.64 114.12 243.333 115.133 244.24C116.146 245.147 116.946 246.253 117.533 247.56C118.12 248.867 118.413 250.333 118.413 251.96ZM112.093 251.96C112.093 251.32 111.986 250.693 111.773 250.08C111.56 249.467 111.253 248.933 110.853 248.48C110.453 248 109.96 247.613 109.373 247.32C108.786 247.027 108.106 246.88 107.333 246.88C106.56 246.88 105.88 247.027 105.293 247.32C104.706 247.613 104.213 248 103.813 248.48C103.44 248.933 103.146 249.467 102.933 250.08C102.746 250.693 102.653 251.32 102.653 251.96C102.653 252.6 102.746 253.227 102.933 253.84C103.146 254.453 103.453 255.013 103.853 255.52C104.253 256 104.746 256.387 105.333 256.68C105.92 256.973 106.6 257.12 107.373 257.12C108.146 257.12 108.826 256.973 109.413 256.68C110 256.387 110.493 256 110.893 255.52C111.293 255.013 111.586 254.453 111.773 253.84C111.986 253.227 112.093 252.6 112.093 251.96ZM131.925 262H125.365V242.08H144.845V262H138.285V247.16H131.925V262ZM159.335 242.08V248.12H163.775C165.268 248.12 166.535 248.293 167.575 248.64C168.615 248.987 169.455 249.48 170.095 250.12C170.735 250.733 171.202 251.467 171.495 252.32C171.788 253.147 171.935 254.04 171.935 255C171.935 255.987 171.762 256.907 171.415 257.76C171.068 258.613 170.562 259.36 169.895 260C169.228 260.613 168.388 261.107 167.375 261.48C166.388 261.827 165.242 262 163.935 262H152.775V242.08H159.335ZM159.335 257.4H162.535C163.442 257.4 164.175 257.24 164.735 256.92C165.322 256.573 165.615 255.947 165.615 255.04C165.615 254.133 165.308 253.52 164.695 253.2C164.108 252.88 163.362 252.72 162.455 252.72H159.335V257.4ZM180.215 242.08V262H173.655V242.08H180.215ZM186.393 242.08H204.033V247.16H198.473V262H191.913V247.16H186.393V242.08ZM221.971 253.32H221.131C220.411 253.32 219.677 253.36 218.931 253.44C218.211 253.493 217.557 253.613 216.971 253.8C216.411 253.987 215.944 254.267 215.571 254.64C215.197 254.987 215.011 255.453 215.011 256.04C215.011 256.413 215.091 256.733 215.251 257C215.437 257.267 215.664 257.48 215.931 257.64C216.197 257.8 216.504 257.92 216.851 258C217.197 258.053 217.531 258.08 217.851 258.08C219.184 258.08 220.197 257.72 220.891 257C221.611 256.253 221.971 255.253 221.971 254V253.32ZM209.931 244.8C211.104 243.68 212.464 242.84 214.011 242.28C215.584 241.72 217.184 241.44 218.811 241.44C220.491 241.44 221.904 241.653 223.051 242.08C224.224 242.48 225.171 243.12 225.891 244C226.611 244.853 227.131 245.947 227.451 247.28C227.797 248.587 227.971 250.147 227.971 251.96V262H221.971V259.88H221.851C221.344 260.707 220.571 261.347 219.531 261.8C218.517 262.253 217.411 262.48 216.211 262.48C215.411 262.48 214.584 262.373 213.731 262.16C212.877 261.947 212.091 261.6 211.371 261.12C210.677 260.64 210.104 260 209.651 259.2C209.197 258.4 208.971 257.413 208.971 256.24C208.971 254.8 209.357 253.64 210.131 252.76C210.931 251.88 211.944 251.2 213.171 250.72C214.424 250.24 215.811 249.92 217.331 249.76C218.851 249.6 220.331 249.52 221.771 249.52V249.2C221.771 248.213 221.424 247.493 220.731 247.04C220.037 246.56 219.184 246.32 218.171 246.32C217.237 246.32 216.331 246.52 215.451 246.92C214.597 247.32 213.864 247.8 213.251 248.36L209.931 244.8Z" fill="white"/>
</svg>
