<svg width="489" height="337" fill="none" xmlns="http://www.w3.org/2000/svg"><rect y="51" width="757" height="286" rx="143" fill="#00237C"/><rect x="32.5" y="83.5" width="685" height="221" rx="110.5" stroke="#fff" stroke-width="7" stroke-dasharray="15 15"/><path d="M427 104.5c0 19.128-5.139 37.053-14.116 52.475a104.3 104.3 0 01-6.376 9.686c-2 2.702-4.131 5.303-6.376 7.793C381.004 195.664 353.307 209 322.5 209 264.788 209 218 162.212 218 104.5S264.788 0 322.5 0c31.326 0 59.43 13.785 78.579 35.616a104.311 104.311 0 0111.805 16.41C421.861 67.447 427 85.371 427 104.5z" fill="#00237C"/><path d="M380.632 191.349a103.665 103.665 0 01-15.994 8.805 102.884 102.884 0 01-13.483 4.866c-.845.241-1.698.469-2.551.686A104.396 104.396 0 01322.5 209c-3.364 0-6.691-.159-9.973-.474a104.17 104.17 0 01-18.683-3.502 102.133 102.133 0 01-8.707-2.906c-.176-.066-.351-.131-.527-.2a104.044 104.044 0 01-20.247-10.573 51.446 51.446 0 0115.998-14.418 50.69 50.69 0 0113.483-5.367c.739-.18 1.486-.343 2.237-.486a48.187 48.187 0 014.314-.641 40.22 40.22 0 011.262-.118 50.394 50.394 0 014.188-.172h33.305a52.087 52.087 0 019.764.923c.568.11 1.131.228 1.69.355.184.049.372.085.551.134a49.47 49.47 0 013.789 1.07 50.608 50.608 0 0114.548 7.482 51.444 51.444 0 0111.14 11.242z" fill="#BC95E2"/><path d="M305.845 170.143c-11.985 0-20.108 17.32-20.708 31.975-.176-.066-.351-.131-.527-.2a104.044 104.044 0 01-20.247-10.573 51.446 51.446 0 0115.998-14.418 50.69 50.69 0 0113.483-5.367c.739-.18 1.486-.343 2.237-.486a48.187 48.187 0 014.314-.641 40.22 40.22 0 011.262-.118 50.394 50.394 0 014.188-.172z" fill="#9373B9"/><path d="M322.496 191.084l-21.632 12.022-6.581-32.65 13.442-5.875m14.771 26.503l21.632 12.022 6.581-32.65-13.441-5.875" fill="#F6F1F1"/><path d="M340.75 150.438v22.398c0 8.2-5.406 15.131-12.854 17.433a18.202 18.202 0 01-5.4.815c-10.079 0-18.248-8.168-18.248-18.247v-22.398h36.502v-.001z" fill="#EAAC9D"/><path d="M340.75 171.417v1.419c0 8.2-5.407 15.131-12.854 17.433a18.244 18.244 0 01-12.705-15.056 62.552 62.552 0 0013.812-.703 62.15 62.15 0 0011.747-3.093zm-68.646-57.874c0 8.367-6.112 15.304-14.115 16.592-.875.142-1.775.215-2.693.215-9.285 0-16.808-7.522-16.808-16.807 0-9.285 7.523-16.808 16.808-16.808.918 0 1.818.074 2.693.215 8.003 1.289 14.115 8.227 14.115 16.593z" fill="#FFCBBE"/><path d="M272.103 113.543c0 8.367-6.112 15.304-14.115 16.592a62.481 62.481 0 01-2.23-16.592c0-5.742.776-11.306 2.23-16.592 8.003 1.288 14.115 8.225 14.115 16.592z" fill="#EAAC9D"/><path d="M255.296 119.55a6.006 6.006 0 100-12.014 6.008 6.008 0 000 12.014z" fill="#EAAC9D"/><path d="M372.893 113.543c0 8.367 6.112 15.304 14.115 16.592.875.142 1.774.215 2.692.215 9.285 0 16.808-7.522 16.808-16.807 0-9.285-7.523-16.808-16.808-16.808-.918 0-1.817.074-2.692.215-8.003 1.289-14.115 8.227-14.115 16.593z" fill="#FFCBBE"/><path d="M372.893 113.543c0 8.367 6.112 15.304 14.115 16.592a62.481 62.481 0 002.23-16.592c0-5.742-.776-11.306-2.23-16.592-8.003 1.288-14.115 8.225-14.115 16.592z" fill="#EAAC9D"/><path d="M389.7 119.55a6.008 6.008 0 100-12.016 6.008 6.008 0 000 12.016z" fill="#EAAC9D"/><path d="M385.648 104.709c0 31.425-22.957 57.494-53.014 62.334a62.452 62.452 0 01-10.135.815c-34.878 0-63.149-28.271-63.149-63.149V40.417h126.299v64.292h-.001z" fill="#FFCBBE"/><path d="M333.62 166.877a62.791 62.791 0 01-11.123.98c-34.877 0-63.149-28.268-63.149-63.149V40.416h22.267v64.292c0 31.081 22.443 56.908 52.005 62.169z" fill="#EAAC9D"/><path d="M288.495 11.946c8.289 0 15.008 6.72 15.008 15.008V38.99c0 9.76-7.911 17.67-17.669 17.67h-26.486V41.093c0-16.098 13.05-29.147 29.147-29.147z" fill="#BD5423"/><path d="M270.382 110.413h-11.034V56.659l12.391-6.244 5.159 6.244-6.516 53.754z" fill="#BD5423"/><path d="M374.614 110.414h11.034V28.967l-17.976 24.176 6.942 57.271z" fill="#D9723E"/><path d="M401.783 0h-78.12c-11.133 0-20.159 9.026-20.159 20.16v19.623c0 9.32 7.556 16.876 16.876 16.876h35.36c25.429 0 46.043-20.614 46.043-46.043V0z" fill="#D9723E"/><path d="M338.707 56.659h-18.324c-9.323 0-16.879-7.556-16.879-16.876V20.161C303.504 9.025 312.529 0 323.665 0h18.324c-11.131 0-20.157 9.025-20.157 20.161v19.622c0 9.32 7.556 16.876 16.875 16.876z" fill="#BD5423"/><path d="M322.499 137.944a31.924 31.924 0 01-15.396-3.974 2.808 2.808 0 112.707-4.924c7.945 4.368 17.433 4.368 25.378 0a2.81 2.81 0 012.706 4.924 31.912 31.912 0 01-15.395 3.974z" fill="#DF9380"/><path d="M308.076 86.172h-31.71a6.488 6.488 0 00-6.487 6.487v16.638a6.487 6.487 0 006.487 6.487h31.71a6.487 6.487 0 006.487-6.487V92.659a6.487 6.487 0 00-6.487-6.487zm60.552 0h-31.709a6.487 6.487 0 00-6.487 6.487v16.638a6.487 6.487 0 006.487 6.487h31.709a6.487 6.487 0 006.488-6.487V92.659a6.487 6.487 0 00-6.488-6.487z" fill="#F6F1F1"/><path d="M329.663 119.07h-14.327a3.09 3.09 0 110-6.18h14.327a3.09 3.09 0 010 6.18z" fill="#EAAC9D"/><path d="M332.844 101.708c0 7.007 5.68 12.687 12.687 12.687s12.687-5.68 12.687-12.687" fill="#DFEAEF"/><path d="M345.531 110.806a9.098 9.098 0 100-18.196 9.098 9.098 0 000 18.196z" fill="#2F373B"/><path d="M349.322 104.001a3.899 3.899 0 100-7.797 3.899 3.899 0 000 7.797z" fill="#fff"/><path d="M286.777 101.708c0 7.007 5.68 12.687 12.687 12.687s12.687-5.68 12.687-12.687" fill="#DFEAEF"/><path d="M299.465 110.806a9.098 9.098 0 10-.002-18.196 9.098 9.098 0 00.002 18.196z" fill="#2F373B"/><path d="M301.593 110.554a9.1 9.1 0 110-17.692 9.093 9.093 0 00-6.968 8.846 9.094 9.094 0 006.968 8.846zm46.064 0a9.1 9.1 0 110-17.692 9.094 9.094 0 00-6.968 8.846 9.095 9.095 0 006.968 8.846z" fill="#181E21"/><path d="M303.256 104.001a3.898 3.898 0 100-7.796 3.898 3.898 0 000 7.796z" fill="#fff"/><path d="M388.732 88.577h-10.355c-1.6-3.806-5.367-6.487-9.748-6.487h-31.71c-5.828 0-10.569 4.741-10.569 10.57v2.882h-7.704v-2.883c0-5.828-4.742-10.57-10.57-10.57h-31.71c-4.381 0-8.148 2.681-9.748 6.488h-10.354v8.165h9.533v12.555c0 5.828 4.742 10.57 10.57 10.57h31.709c5.828 0 10.57-4.742 10.57-10.57v-5.591h7.704v5.591c0 5.828 4.742 10.57 10.57 10.57h31.709c5.828 0 10.57-4.742 10.57-10.57V96.742h9.533v-8.165zm-78.25 20.72a2.409 2.409 0 01-2.406 2.405h-31.71a2.408 2.408 0 01-2.405-2.405V92.659a2.408 2.408 0 012.405-2.406h31.71a2.409 2.409 0 012.406 2.406v16.638zm60.552 0a2.408 2.408 0 01-2.405 2.405h-31.71a2.408 2.408 0 01-2.405-2.405V92.659a2.408 2.408 0 012.405-2.406h31.71a2.408 2.408 0 012.405 2.406v16.638z" fill="#181E21"/><path d="M322.499 123.789s-9.671-7.298-19.402-3.648c-5.385 2.019-9.081 6.832-12.759 10.728-2.356 2.497-.54 6.594 2.892 6.5 9.918-.271 23.054-2.843 29.269-13.58z" fill="#BD5423"/><path d="M322.498 123.789s9.671-7.298 19.402-3.648c5.385 2.019 9.081 6.832 12.759 10.728 2.356 2.497.54 6.594-2.892 6.5-9.918-.271-23.054-2.843-29.269-13.58z" fill="#D9723E"/><path d="M424.021 106.86l-61.259 94.099a103.598 103.598 0 01-17.789 5.617l74.407-102.9a2.82 2.82 0 013.874-.674 2.817 2.817 0 01.767 3.858z" fill="#F9BD5D"/><path d="M423.253 103.002c-.236-.163-1.122.706-1.996 1.963l-69.182 99.79a104.382 104.382 0 01-7.095 1.82l74.4-102.9a2.815 2.815 0 013.873-.673z" fill="#FFA31D"/><path d="M119.99 129.2l-5.95 4.1-5.6-8.7 12.55-8h11V152h-12v-22.8zM161.6 153c-2.167 0-4.067-.283-5.7-.85-1.634-.567-3.034-1.333-4.2-2.3a14.11 14.11 0 01-2.95-3.35 19.738 19.738 0 01-1.85-4 26.88 26.88 0 01-.95-4.25 35.873 35.873 0 01-.25-4.15c0-1.3.083-2.667.25-4.1.2-1.433.516-2.833.95-4.2a18.918 18.918 0 011.85-3.9 13.654 13.654 0 012.95-3.25c1.166-.933 2.566-1.667 4.2-2.2 1.633-.567 3.533-.85 5.7-.85 3.266 0 5.933.6 8 1.8 2.066 1.167 3.683 2.667 4.85 4.5 1.166 1.8 1.966 3.8 2.4 6 .433 2.167.65 4.233.65 6.2 0 1.3-.1 2.683-.3 4.15a21.198 21.198 0 01-.95 4.25 18.014 18.014 0 01-1.8 4 12.79 12.79 0 01-2.95 3.35c-1.167.967-2.567 1.733-4.2 2.3-1.634.567-3.534.85-5.7.85zm0-27.15c-.734 0-1.334.25-1.8.75-.467.5-.834 1.15-1.1 1.95-.267.8-.45 1.7-.55 2.7-.1.967-.15 1.917-.15 2.85 0 .967.05 1.967.15 3 .1 1 .283 1.917.55 2.75.266.833.633 1.517 1.1 2.05.466.5 1.066.75 1.8.75.733 0 1.333-.25 1.8-.75.5-.533.866-1.217 1.1-2.05.266-.833.45-1.75.55-2.75.1-1.033.15-2.033.15-3 0-.933-.05-1.883-.15-2.85-.1-1-.284-1.9-.55-2.7-.234-.8-.6-1.45-1.1-1.95-.467-.5-1.067-.75-1.8-.75zm33.659 7.25v-9.9h7.9v9.9h10.3v7.5h-10.2v9.9h-7.9v-9.9h-10.3v-7.5h10.2zM129.455 207h-7.32l11-28.32h7l11.24 28.32h-7.48l-7.2-18.88-7.24 18.88zm40.445-12.24c0-1.04-.334-1.933-1-2.68-.64-.747-1.614-1.12-2.92-1.12-.64 0-1.227.107-1.76.32-.534.187-1 .453-1.4.8-.4.347-.72.76-.96 1.24-.24.453-.374.933-.4 1.44h8.44zm6.04 2.52v.8c0 .267-.014.52-.04.76h-14.44c.053.56.213 1.067.48 1.52.293.453.653.853 1.08 1.2.453.32.946.573 1.48.76.56.187 1.133.28 1.72.28 1.04 0 1.92-.187 2.64-.56a5.44 5.44 0 001.76-1.52l4.56 2.88c-.934 1.36-2.174 2.413-3.72 3.16-1.52.72-3.294 1.08-5.32 1.08-1.494 0-2.907-.227-4.24-.68a10.974 10.974 0 01-3.52-2.04c-.987-.907-1.774-2.013-2.36-3.32-.56-1.307-.84-2.8-.84-4.48 0-1.627.28-3.093.84-4.4.56-1.333 1.32-2.453 2.28-3.36a10.013 10.013 0 013.4-2.16c1.306-.507 2.72-.76 4.24-.76 1.466 0 2.813.253 4.04.76a8.59 8.59 0 013.16 2.12c.88.933 1.56 2.067 2.04 3.4.506 1.333.76 2.853.76 4.56zm5.108-10.2h17.64v5.08h-5.56V207h-6.56v-14.84h-5.52v-5.08zm-62.635 64.88c0 1.627-.293 3.107-.88 4.44a10.18 10.18 0 01-2.4 3.36 11.178 11.178 0 01-3.52 2.12c-1.333.507-2.76.76-4.28.76-1.493 0-2.92-.253-4.28-.76a11.178 11.178 0 01-3.52-2.12 10.461 10.461 0 01-2.36-3.36c-.587-1.333-.88-2.813-.88-4.44 0-1.627.293-3.093.88-4.4.587-1.307 1.373-2.413 2.36-3.32a10.604 10.604 0 013.52-2.08c1.36-.48 2.787-.72 4.28-.72 1.52 0 2.947.24 4.28.72a10.604 10.604 0 013.52 2.08c1.013.907 1.813 2.013 2.4 3.32s.88 2.773.88 4.4zm-6.32 0c0-.64-.107-1.267-.32-1.88a4.738 4.738 0 00-.92-1.6c-.4-.48-.893-.867-1.48-1.16-.587-.293-1.267-.44-2.04-.44-.773 0-1.453.147-2.04.44-.587.293-1.08.68-1.48 1.16a5.152 5.152 0 00-.88 1.6 6.41 6.41 0 00-.28 1.88c0 .64.093 1.267.28 1.88a5.73 5.73 0 00.92 1.68c.4.48.893.867 1.48 1.16.587.293 1.267.44 2.04.44.773 0 1.453-.147 2.04-.44a4.538 4.538 0 001.48-1.16c.4-.507.693-1.067.88-1.68.213-.613.32-1.24.32-1.88zM131.925 262h-6.56v-19.92h19.48V262h-6.56v-14.84h-6.36V262zm27.41-19.92v6.04h4.44c1.493 0 2.76.173 3.8.52 1.04.347 1.88.84 2.52 1.48a5.455 5.455 0 011.4 2.2c.293.827.44 1.72.44 2.68 0 .987-.173 1.907-.52 2.76a6.427 6.427 0 01-1.52 2.24c-.667.613-1.507 1.107-2.52 1.48-.987.347-2.133.52-3.44.52h-11.16v-19.92h6.56zm0 15.32h3.2c.907 0 1.64-.16 2.2-.48.587-.347.88-.973.88-1.88 0-.907-.307-1.52-.92-1.84-.587-.32-1.333-.48-2.24-.48h-3.12v4.68zm20.88-15.32V262h-6.56v-19.92h6.56zm6.178 0h17.64v5.08h-5.56V262h-6.56v-14.84h-5.52v-5.08zm35.578 11.24h-.84c-.72 0-1.454.04-2.2.12a8.5 8.5 0 00-1.96.36 3.52 3.52 0 00-1.4.84c-.374.347-.56.813-.56 1.4 0 .373.08.693.24.96.186.267.413.48.68.64.266.16.573.28.92.36.346.053.68.08 1 .08 1.333 0 2.346-.36 3.04-1.08.72-.747 1.08-1.747 1.08-3v-.68zm-12.04-8.52a11.517 11.517 0 014.08-2.52c1.573-.56 3.173-.84 4.8-.84 1.68 0 3.093.213 4.24.64 1.173.4 2.12 1.04 2.84 1.92.72.853 1.24 1.947 1.56 3.28.346 1.307.52 2.867.52 4.68V262h-6v-2.12h-.12c-.507.827-1.28 1.467-2.32 1.92-1.014.453-2.12.68-3.32.68-.8 0-1.627-.107-2.48-.32a7.487 7.487 0 01-2.36-1.04c-.694-.48-1.267-1.12-1.72-1.92-.454-.8-.68-1.787-.68-2.96 0-1.44.386-2.6 1.16-3.48.8-.88 1.813-1.56 3.04-2.04 1.253-.48 2.64-.8 4.16-.96 1.52-.16 3-.24 4.44-.24v-.32c0-.987-.347-1.707-1.04-2.16-.694-.48-1.547-.72-2.56-.72-.934 0-1.84.2-2.72.6-.854.4-1.587.88-2.2 1.44l-3.32-3.56z" fill="#fff"/></svg>