<svg width="398" height="538" fill="none" xmlns="http://www.w3.org/2000/svg"><circle cx="199" cy="276" r="199" fill="#CD142B"/><circle cx="200" cy="275" r="177" stroke="#fff" stroke-width="4" stroke-dasharray="15 15"/><circle cx="276.86" cy="29.86" r="11.5" transform="rotate(-165 276.86 29.86)" stroke="#CD142B" stroke-opacity=".53" stroke-width="2"/><circle cx="293.186" cy="528.185" r="8.5" transform="rotate(-165 293.186 528.185)" stroke="#00237C" stroke-opacity=".54" stroke-width="2"/><circle cx="350.027" cy="6.027" r="4.921" transform="rotate(-165 350.027 6.027)" fill="#00237C"/><g clip-path="url(#clip0)"><path d="M260.685 414.602L96.267 370.547a8.959 8.959 0 01-6.334-10.972l61.446-229.319a8.957 8.957 0 0110.972-6.335l164.417 44.055a8.958 8.958 0 016.335 10.972l-61.446 229.32a8.958 8.958 0 01-10.972 6.334z" fill="#8CD2FF"/><path d="M257.806 268.349l-7.005-58.721a9.724 9.724 0 00-7.173-8.28 9.732 9.732 0 00-10.356 3.583l-35.424 47.353a4.481 4.481 0 00.903 6.272 4.493 4.493 0 006.272-.903l6.853-9.162 35.677 9.559 1.354 11.362a4.487 4.487 0 003.292 3.798 4.483 4.483 0 005.607-4.861zm-40.15-27.584l22.79-30.466c.091-.12.331-.441.864-.298.532.142.579.54.596.69l4.504 37.779-28.754-7.705zm29.892 17.248l.002.007c-.018-.007-.022-.01-.002-.007z" fill="#E15050"/><path d="M199.683 298.461a17.825 17.825 0 006.617-9.727c2.557-9.543-3.126-19.387-12.669-21.944l-12.981-3.478c-7.157-1.918-14.54 2.344-16.458 9.502l-13.912 51.921a4.48 4.48 0 003.167 5.487l25.961 6.956c11.929 3.196 24.234-3.909 27.431-15.837 2.311-8.626-.767-17.447-7.156-22.88zm-26.838-23.329a4.485 4.485 0 015.487-3.167l12.98 3.478c4.773 1.278 7.614 6.199 6.335 10.972-1.279 4.772-6.2 7.613-10.972 6.335l-17.307-4.638 3.478-12.98h-.001zm8.881 53.391l-21.633-5.797 6.956-25.96 17.307 4.637 4.327 1.159c7.157 1.918 11.42 9.301 9.502 16.459-1.918 7.157-9.301 11.42-16.459 9.502z" fill="#FFE6A1"/><path d="M244.32 354.57a37.413 37.413 0 01-6.837-2.574c-12.763-6.273-20.677-20.024-19.694-34.216.758-10.905 6.213-20.741 14.962-26.985 8.755-6.248 19.729-8.237 30.108-5.456a35.804 35.804 0 0116.23 9.435c2.15 2.177 2.976 5.432 2.156 8.494l-1.387 5.176a4.48 4.48 0 01-8.654-2.319l1.387-5.176c-3.218-3.271-7.424-5.716-12.05-6.956a26.805 26.805 0 00-22.583 4.093c-6.566 4.685-10.66 12.088-11.231 20.313-.734 10.6 5.177 20.872 14.709 25.557 6.787 3.327 14.344 3.789 21.273 1.278a4.483 4.483 0 015.739 2.687 4.485 4.485 0 01-2.688 5.739 35.596 35.596 0 01-21.44.91z" fill="#00BEA9"/><path d="M276.743 209.292l12.469-5.005 8.299 10.571c2.28 2.904 6.895 1.959 7.851-1.606l12.753-47.595a4.48 4.48 0 00-3.168-5.486l-25.961-6.956a4.48 4.48 0 00-5.486 3.167l-12.753 47.594c-.955 3.566 2.57 6.692 5.996 5.316z" fill="#FFC855"/><path d="M162.351 123.921a8.958 8.958 0 00-10.972 6.335L89.933 359.575a8.96 8.96 0 006.334 10.972l17.307 4.637 66.084-246.626-17.307-4.637z" fill="#69BEFF"/><path d="M117.052 362.204a4.48 4.48 0 01-3.167-5.487l56.808-212.012a4.48 4.48 0 018.654 2.319l-56.808 212.012a4.48 4.48 0 01-5.487 3.168z" fill="#55AAF5"/><path d="M301.967 156.693l-12.981-3.478a4.48 4.48 0 00-5.486 3.168l-12.753 47.593c-.955 3.566 2.57 6.692 5.995 5.317l12.47-5.006.001.001 12.753-47.595h.001z" fill="#FFAA4B"/></g><circle cx="343" cy="87" r="24" fill="#00237C"/><circle cx="378.5" cy="454.5" r="11.5" stroke="#CD142B" stroke-opacity=".53" stroke-width="2"/><defs><clipPath id="clip0"><path fill="#fff" transform="rotate(15 -350.05 510.664)" d="M0 0h259.806v259.806H0z"/></clipPath></defs></svg>