<svg width="338" height="517" fill="none" xmlns="http://www.w3.org/2000/svg"><circle cx="216" cy="425" r="8" stroke="#00237C" stroke-opacity=".54" stroke-width="2"/><circle cx="126.5" cy="368.5" r="11.5" stroke="#CD142B" stroke-opacity=".53" stroke-width="2"/><path fill-rule="evenodd" clip-rule="evenodd" d="M146 469l16-16 16 16-16 16-16-16z" fill="#CD142B" fill-opacity=".53"/><path fill-rule="evenodd" clip-rule="evenodd" d="M18 482.5L52.5 448 87 482.5 52.5 517 18 482.5z" fill="#00237C"/><path d="M338 218.512l-10.694 10.892L338 238.316v9.903c0 16.437-13.268 29.707-29.707 29.707H29.707C13.267 277.926 0 264.656 0 248.219v-29.707l14.854-10.3L0 198.707V69.977c0-16.44 13.268-29.708 29.707-29.708h29.707c0 1.584 10.101 11.092 19.805 20.2v19.41h210.657l25.547 19.805 6.535 19.804-26.935 45.352L338 198.707v19.805z" fill="#E63950"/><path d="M338 218.512l-10.694 10.892L338 238.316v9.903c0 16.437-13.268 29.707-29.707 29.707H128.73V79.879h161.146l25.547 19.805 6.535 19.804-26.935 45.352L338 198.707v19.805z" fill="#CC2E43"/><path d="M315.423 99.684H69.316c-5.547 0-9.902-4.358-9.902-9.903V40.27h229.074c4.16 0 8.121 2.773 9.307 6.734l4.358 13.071-11.684 10.297 18.42 9.508 6.534 19.805zM338 178.902v19.805h-69.316c-2.574 0-5.15-.99-6.932-2.971l-17.033-16.834H0v-59.414h321.958l6.537 19.805-22.183 23.964L338 178.902z" fill="#CC2E43"/><path d="M315.423 99.684H128.73V40.27h159.758c4.16 0 8.121 2.772 9.307 6.733l4.358 13.071-11.684 10.297 18.42 9.508 6.534 19.805zM338 178.902v19.805h-69.316c-2.574 0-5.15-.99-6.932-2.971l-17.033-16.834H128.73v-59.414h193.228l6.537 19.805-22.183 23.964L338 178.902z" fill="#AE2538"/><path d="M338 218.512v19.804h-29.707c-5.547 0-9.902-4.358-9.902-9.902 0-5.547 4.355-9.902 9.902-9.902H338z" fill="#C6E2E7"/><path d="M219.172 208.609c0 5.545-4.356 9.903-9.902 9.903H0v-19.805h209.27c5.546 0 9.902 4.356 9.902 9.902z" fill="#FFA78F"/><path d="M69.316 238.316c-16.439 0-29.707 13.268-29.707 29.707 0 16.197 13.23 29.707 29.707 29.707 12.964 0 24.194-8.605 27.925-19.804 1.187-3.169 1.782-6.339 1.782-9.903 0-16.697-13.773-29.707-29.707-29.707z" fill="#4A696F"/><path d="M69.316 277.926c-5.557 0-9.902-4.663-9.902-9.903 0-5.464 4.438-9.902 9.902-9.902 5.444 0 9.903 4.729 9.903 9.902 0 5.204-4.52 9.903-9.903 9.903z" fill="#DEECF1"/><path d="M128.73 238.316c-15.843 0-29.707 13.072-29.707 29.707 0 3.564.596 6.734 1.782 9.903 3.765 11.289 15.052 19.804 27.925 19.804 16.44 0 29.708-13.466 29.708-29.707 0-16.439-13.268-29.707-29.708-29.707z" fill="#4A696F"/><path d="M268.684 238.316c-16.44 0-29.707 13.268-29.707 29.707 0 16.197 13.228 29.707 29.707 29.707 16.478 0 29.707-13.51 29.707-29.707 0-16.439-13.268-29.707-29.707-29.707z" fill="#384949"/><path d="M268.684 277.926c-5.558 0-9.903-4.663-9.903-9.903 0-5.464 4.438-9.902 9.903-9.902 5.464 0 9.902 4.438 9.902 9.902 0 5.019-4.294 9.903-9.902 9.903z" fill="#C6E2E7"/><path d="M79.219 60.074h39.609V79.88h-39.61V60.074z" fill="#A8EBFA"/><path d="M138.633 60.074h40.269V79.88h-40.269V60.074zm60.074 0h40.27V79.88h-40.27V60.074zm110.182 19.805h-50.108V60.074h43.372l6.736 19.805z" fill="#76E2F8"/><path d="M19.805 139.293h39.61v19.805h-39.61v-19.805zm59.414 0h39.609v19.805h-39.61v-19.805z" fill="#A8EBFA"/><path d="M138.633 139.293h40.269v19.805h-40.269v-19.805zm60.074 0h40.27v19.805h-40.27v-19.805zM338 169v9.902h-65.157l-14.062-14.062v-25.547h69.714l8.909 26.538c.397.99.596 2.179.596 3.169z" fill="#76E2F8"/><path d="M219.172 208.609c0 5.545-4.356 9.903-9.902 9.903h-80.54v-19.805h80.54c5.546 0 9.902 4.356 9.902 9.902z" fill="#F89580"/><path d="M158.438 268.023c0 16.241-13.268 29.707-29.708 29.707v-59.414c16.44 0 29.708 13.268 29.708 29.707z" fill="#384949"/><path d="M138.633 268.024c0 4.933-4.08 9.902-9.903 9.902-5.025 0-9.902-4.211-9.902-9.902 0-12.737 19.805-13.456 19.805 0z" fill="#DEECF1"/><path d="M138.633 268.023c0 4.934-4.08 9.903-9.903 9.903v-19.805c5.547 0 9.903 4.356 9.903 9.902z" fill="#C6E2E7"/></svg>