<svg width="599" height="323" fill="none" xmlns="http://www.w3.org/2000/svg"><circle cx="281.5" cy="176.5" r="143.5" fill="#CD142B"/><path d="M169.856 130.504l10.584-16.992h6.948V139h-6.12v-16.776h-.108L170.54 139h-6.912v-25.488h6.12v16.992h.108zm41.352-16.992v5.364h-9.864V139h-6.192v-25.488h16.056zm25.554 7.848c0 1.488-.276 2.748-.828 3.78a6.845 6.845 0 01-2.232 2.448c-.936.624-2.016 1.08-3.24 1.368a16.608 16.608 0 01-3.816.432h-3.06V139h-6.156v-25.488h9.36c1.392 0 2.688.144 3.888.432 1.224.264 2.28.708 3.168 1.332.912.6 1.62 1.404 2.124 2.412.528.984.792 2.208.792 3.672zm-6.156.036c0-.6-.12-1.092-.36-1.476a2.508 2.508 0 00-.972-.9 4.186 4.186 0 00-1.404-.432 11.198 11.198 0 00-1.584-.108h-2.7v6.012h2.592c.576 0 1.128-.048 1.656-.144a4.241 4.241 0 001.404-.504c.432-.24.768-.552 1.008-.936.24-.408.36-.912.36-1.512zm38.939 4.752c0 2.016-.348 3.864-1.044 5.544a12.69 12.69 0 01-2.916 4.284c-1.224 1.176-2.688 2.088-4.392 2.736-1.704.648-3.552.972-5.544.972-1.992 0-3.84-.324-5.544-.972-1.68-.648-3.144-1.56-4.392-2.736-1.224-1.2-2.184-2.628-2.88-4.284-.696-1.68-1.044-3.528-1.044-5.544 0-2.04.348-3.876 1.044-5.508.696-1.656 1.656-3.06 2.88-4.212 1.248-1.152 2.712-2.04 4.392-2.664 1.704-.624 3.552-.936 5.544-.936 1.992 0 3.84.312 5.544.936 1.704.624 3.168 1.512 4.392 2.664 1.248 1.152 2.22 2.556 2.916 4.212.696 1.632 1.044 3.468 1.044 5.508zm-6.588 0c0-1.104-.18-2.136-.54-3.096-.36-.96-.864-1.776-1.512-2.448a6.36 6.36 0 00-2.304-1.62c-.888-.408-1.872-.612-2.952-.612-1.08 0-2.064.204-2.952.612a6.797 6.797 0 00-2.304 1.62c-.648.672-1.152 1.488-1.512 2.448a9.307 9.307 0 00-.504 3.096c0 1.152.18 2.22.54 3.204.36.96.852 1.788 1.476 2.484a7.246 7.246 0 002.304 1.656c.888.384 1.872.576 2.952.576 1.08 0 2.064-.192 2.952-.576a7.246 7.246 0 002.304-1.656 7.424 7.424 0 001.512-2.484c.36-.984.54-2.052.54-3.204zm33.033 5.436c0 1.392-.276 2.568-.828 3.528a6.621 6.621 0 01-2.196 2.268c-.912.576-1.956.996-3.132 1.26-1.152.24-2.34.36-3.564.36h-10.152v-25.488h10.152c.984 0 1.992.108 3.024.324a8.39 8.39 0 012.808 1.044c.84.48 1.524 1.14 2.052 1.98.528.84.792 1.908.792 3.204 0 1.416-.384 2.592-1.152 3.528-.768.912-1.776 1.572-3.024 1.98v.072c.72.12 1.392.348 2.016.684.648.312 1.2.72 1.656 1.224.48.504.852 1.092 1.116 1.764.288.672.432 1.428.432 2.268zm-6.984-10.692c0-.864-.336-1.488-1.008-1.872-.648-.408-1.62-.612-2.916-.612h-3.024v5.256h3.312c1.152 0 2.04-.228 2.664-.684.648-.48.972-1.176.972-2.088zm.828 10.116c0-1.056-.396-1.788-1.188-2.196-.792-.408-1.848-.612-3.168-.612h-3.42v5.832h3.456c.48 0 .972-.036 1.476-.108a4.831 4.831 0 001.404-.468c.432-.216.78-.516 1.044-.9.264-.408.396-.924.396-1.548zm16.31 7.992h-6.696l10.692-25.488h5.976L326.7 139h-6.84l-1.98-5.004h-9.864L306.144 139zm3.636-9.936h6.408l-3.168-8.748-3.24 8.748zm26.118-1.62c-1.728-.288-3.12-.936-4.176-1.944-1.056-1.032-1.584-2.4-1.584-4.104 0-2.496.96-4.428 2.88-5.796 1.944-1.392 4.812-2.088 8.604-2.088h9.324V139h-6.12v-9.252h-2.196c-1.8 0-3.324.792-4.572 2.376-1.248 1.584-2.076 3.876-2.484 6.876h-6.696c.096-1.512.36-2.88.792-4.104.432-1.224.96-2.304 1.584-3.24a11.507 11.507 0 012.124-2.412 13.861 13.861 0 012.52-1.728v-.072zm8.928-8.748h-2.664c-1.92 0-3.312.252-4.176.756-.84.504-1.26 1.26-1.26 2.268 0 .384.084.756.252 1.116.192.336.492.636.9.9.432.24.996.444 1.692.612.72.144 1.608.216 2.664.216h2.592v-5.868zm-163.81 43.744c1.848.264 3.552.756 5.112 1.476 1.56.696 2.904 1.608 4.032 2.736a11.821 11.821 0 012.628 3.852c.648 1.44.972 3.024.972 4.752 0 1.728-.324 3.324-.972 4.788a12.233 12.233 0 01-2.628 3.888c-1.128 1.104-2.472 2.028-4.032 2.772-1.56.72-3.264 1.2-5.112 1.44v2.412h-5.76v-2.412c-1.872-.24-3.588-.72-5.148-1.44-1.56-.72-2.916-1.632-4.068-2.736a12.748 12.748 0 01-2.664-3.888c-.624-1.488-.936-3.096-.936-4.824 0-1.728.312-3.324.936-4.788a12.307 12.307 0 012.664-3.852c1.152-1.104 2.508-2.016 4.068-2.736 1.56-.72 3.276-1.2 5.148-1.44v-2.232h5.76v2.232zm-11.988 12.816c0 1.776.516 3.324 1.548 4.644 1.032 1.296 2.592 2.16 4.68 2.592v-14.436c-1.056.216-1.968.552-2.736 1.008a7.03 7.03 0 00-1.944 1.584 6.378 6.378 0 00-1.188 2.124 8.286 8.286 0 00-.36 2.484zm18.144 0c0-1.752-.516-3.276-1.548-4.572-1.008-1.296-2.544-2.172-4.608-2.628v14.4c2.064-.432 3.6-1.296 4.608-2.592 1.032-1.32 1.548-2.856 1.548-4.608zm39.751-.108c0 2.016-.348 3.864-1.044 5.544a12.69 12.69 0 01-2.916 4.284c-1.224 1.176-2.688 2.088-4.392 2.736-1.704.648-3.552.972-5.544.972-1.992 0-3.84-.324-5.544-.972-1.68-.648-3.144-1.56-4.392-2.736-1.224-1.2-2.184-2.628-2.88-4.284-.696-1.68-1.044-3.528-1.044-5.544 0-2.04.348-3.876 1.044-5.508.696-1.656 1.656-3.06 2.88-4.212 1.248-1.152 2.712-2.04 4.392-2.664 1.704-.624 3.552-.936 5.544-.936 1.992 0 3.84.312 5.544.936 1.704.624 3.168 1.512 4.392 2.664 1.248 1.152 2.22 2.556 2.916 4.212.696 1.632 1.044 3.468 1.044 5.508zm-6.588 0c0-1.104-.18-2.136-.54-3.096-.36-.96-.864-1.776-1.512-2.448a6.36 6.36 0 00-2.304-1.62c-.888-.408-1.872-.612-2.952-.612-1.08 0-2.064.204-2.952.612a6.797 6.797 0 00-2.304 1.62c-.648.672-1.152 1.488-1.512 2.448a9.307 9.307 0 00-.504 3.096c0 1.152.18 2.22.54 3.204.36.96.852 1.788 1.476 2.484a7.246 7.246 0 002.304 1.656c.888.384 1.872.576 2.952.576 1.08 0 2.064-.192 2.952-.576a7.246 7.246 0 002.304-1.656 7.424 7.424 0 001.512-2.484c.36-.984.54-2.052.54-3.204zm32.493-4.788c0 1.488-.276 2.748-.828 3.78a6.845 6.845 0 01-2.232 2.448c-.936.624-2.016 1.08-3.24 1.368a16.608 16.608 0 01-3.816.432h-3.06V188h-6.156v-25.488h9.36c1.392 0 2.688.144 3.888.432 1.224.264 2.28.708 3.168 1.332.912.6 1.62 1.404 2.124 2.412.528.984.792 2.208.792 3.672zm-6.156.036c0-.6-.12-1.092-.36-1.476a2.508 2.508 0 00-.972-.9 4.186 4.186 0 00-1.404-.432 11.198 11.198 0 00-1.584-.108h-2.7v6.012h2.592c.576 0 1.128-.048 1.656-.144a4.241 4.241 0 001.404-.504c.432-.24.768-.552 1.008-.936.24-.408.36-.912.36-1.512zM282.155 188l.144-18.036h-.108L275.567 188h-4.32l-6.444-18.036h-.108l.144 18.036h-5.796v-25.488h8.748l5.796 16.344h.144l5.544-16.344h8.892V188h-6.012zm17.355 0h-6.696l10.692-25.488h5.976L320.066 188h-6.84l-1.98-5.004h-9.864L299.51 188zm3.636-9.936h6.408l-3.168-8.748-3.24 8.748zm-112.95 46.084c0 2.016-.348 3.864-1.044 5.544a12.69 12.69 0 01-2.916 4.284c-1.224 1.176-2.688 2.088-4.392 2.736-1.704.648-3.552.972-5.544.972-1.992 0-3.84-.324-5.544-.972-1.68-.648-3.144-1.56-4.392-2.736-1.224-1.2-2.184-2.628-2.88-4.284-.696-1.68-1.044-3.528-1.044-5.544 0-2.04.348-3.876 1.044-5.508.696-1.656 1.656-3.06 2.88-4.212 1.248-1.152 2.712-2.04 4.392-2.664 1.704-.624 3.552-.936 5.544-.936 1.992 0 3.84.312 5.544.936 1.704.624 3.168 1.512 4.392 2.664 1.248 1.152 2.22 2.556 2.916 4.212.696 1.632 1.044 3.468 1.044 5.508zm-6.588 0c0-1.104-.18-2.136-.54-3.096-.36-.96-.864-1.776-1.512-2.448a6.36 6.36 0 00-2.304-1.62c-.888-.408-1.872-.612-2.952-.612-1.08 0-2.064.204-2.952.612a6.797 6.797 0 00-2.304 1.62c-.648.672-1.152 1.488-1.512 2.448a9.307 9.307 0 00-.504 3.096c0 1.152.18 2.22.54 3.204.36.96.852 1.788 1.476 2.484a7.246 7.246 0 002.304 1.656c.888.384 1.872.576 2.952.576 1.08 0 2.064-.192 2.952-.576a7.246 7.246 0 002.304-1.656 7.424 7.424 0 001.512-2.484c.36-.984.54-2.052.54-3.204zM196.769 237v-25.488h18.216v5.184h-12.096v4.14h3.492c1.392 0 2.688.144 3.888.432 1.224.288 2.28.756 3.168 1.404a6.36 6.36 0 012.124 2.448c.528 1.008.792 2.244.792 3.708 0 1.488-.276 2.748-.828 3.78a7.07 7.07 0 01-2.232 2.52c-.936.648-2.016 1.128-3.24 1.44a16.608 16.608 0 01-3.816.432h-9.468zm9-5.184c.576 0 1.128-.048 1.656-.144.528-.12.996-.3 1.404-.54.408-.24.732-.54.972-.9.24-.384.36-.84.36-1.368 0-.552-.12-1.008-.36-1.368a2.508 2.508 0 00-.972-.9c-.384-.216-.84-.36-1.368-.432a8.453 8.453 0 00-1.584-.144h-2.988v5.796h2.88zm21.812-20.304l5.328 12.672 5.112-12.672h6.588l-8.676 19.944a16.328 16.328 0 01-1.332 2.484 7.743 7.743 0 01-1.764 1.98c-.672.552-1.476.984-2.412 1.296-.936.336-2.04.504-3.312.504-1.128 0-2.064-.096-2.808-.288-.72-.168-1.32-.372-1.8-.612a5.392 5.392 0 01-1.116-.828 24.3 24.3 0 00-.72-.756l3.816-4.284c.312.336.708.696 1.188 1.08.48.36 1.032.54 1.656.54.48 0 .912-.084 1.296-.252.384-.192.744-.504 1.08-.936l-8.964-19.872h6.84zm34.682 0h6.084V237h-6.048v-9.468h-4.608c-3.312 0-5.724-.876-7.236-2.628-1.488-1.776-2.232-4.26-2.232-7.452v-5.94h6.12v4.644c0 1.08.048 2.016.144 2.808.12.768.324 1.404.612 1.908a2.8 2.8 0 001.296 1.116c.576.24 1.32.36 2.232.36h3.636v-10.836zM276.118 237v-25.488h17.136v5.22h-11.196v4.788h10.584v4.932h-10.584v5.292h11.844V237h-17.784zm40.479 0v-10.656h-9.936V237h-6.156v-25.488h6.156v9.648h9.936v-9.648h6.156V237h-6.156zm20.149-8.496l10.584-16.992h6.948V237h-6.12v-16.776h-.108L337.43 237h-6.912v-25.488h6.12v16.992h.108zm29.867-3.06c-1.728-.288-3.12-.936-4.176-1.944-1.056-1.032-1.584-2.4-1.584-4.104 0-2.496.96-4.428 2.88-5.796 1.944-1.392 4.812-2.088 8.604-2.088h9.324V237h-6.12v-9.252h-2.196c-1.8 0-3.324.792-4.572 2.376-1.248 1.584-2.076 3.876-2.484 6.876h-6.696c.096-1.512.36-2.88.792-4.104.432-1.224.96-2.304 1.584-3.24a11.507 11.507 0 012.124-2.412 13.861 13.861 0 012.52-1.728v-.072zm8.928-8.748h-2.664c-1.92 0-3.312.252-4.176.756-.84.504-1.26 1.26-1.26 2.268 0 .384.084.756.252 1.116.192.336.492.636.9.9.432.24.996.444 1.692.612.72.144 1.608.216 2.664.216h2.592v-5.868z" fill="#fff"/><circle cx="485" cy="114" r="114" fill="#00237C"/><circle cx="485.5" cy="113.5" r="97" stroke="#fff" stroke-width="5" stroke-dasharray="15 15"/><g clip-path="url(#clip0)"><path d="M476.118 60.041c-5.806-1.555-11.775 1.89-13.331 7.697l-6.914 25.806a2.968 2.968 0 002.099 3.636l9.558 2.56-1.153 4.302a7.421 7.421 0 1014.337 3.841l1.152-4.301 12.425 3.33 7.153-11.401 3.841-14.337-.493-13.45-28.674-7.683z" fill="#FDD33A"/><path d="M533.465 75.408l-28.673-7.683-3.33 12.425-4.301-1.153a7.421 7.421 0 10-3.841 14.337l4.301 1.153-3.329 12.425 11.4 7.152 14.337 3.842 13.45-.494 7.683-28.674c1.555-5.806-1.89-11.775-7.697-13.33z" fill="#FF9B21"/><path d="M430.395 152.689l25.806 6.915a2.97 2.97 0 003.636-2.099l2.561-9.558 4.301 1.152a7.42 7.42 0 009.089-5.247 7.42 7.42 0 00-5.247-9.089l-4.301-1.153 2.561-9.558a2.969 2.969 0 00-2.099-3.635l-6.691-1.793a2.97 2.97 0 00-3.636 2.099l-.384 1.434a7.42 7.42 0 11-14.336-3.842l.384-1.434a2.969 2.969 0 00-2.099-3.635l-6.691-1.793a2.969 2.969 0 00-3.635 2.099l-6.915 25.806c-1.556 5.807 1.89 11.775 7.696 13.331z" fill="#FD003A"/><path d="M507.87 105.94l-1.153 4.301-12.425-3.329-2.561 9.557a2.97 2.97 0 002.099 3.636l1.434.384a7.42 7.42 0 015.247 9.089 7.42 7.42 0 01-9.089 5.248l-1.433-.384a2.968 2.968 0 00-3.636 2.099l-1.793 6.69a2.97 2.97 0 002.099 3.636l25.806 6.915c5.807 1.555 11.775-1.89 13.331-7.697l7.683-28.673-12.425-3.33 1.152-4.301a7.42 7.42 0 10-14.336-3.841z" fill="#76E2F8"/></g><path d="M9.731 218.975c-2.703-7.645.019-14.059 5.91-16.263 6.978-2.611 14.028-.205 16.212 5.835 1.249 3.457 1.092 6.551-.014 9.235-1.127 2.733-3.34 5.275-6.563 7.334-5.315 3.397-13.063.878-15.545-6.141z" stroke="#00237C" stroke-opacity=".52" stroke-width="7"/><path fill-rule="evenodd" clip-rule="evenodd" d="M104.901 321.009c-9.99-8.11-19.946-16.25-28.886-25.475 9.094-8.401 18.111-16.89 27.284-25.206 8.137 9.038 17.707 16.6 27.008 24.43-8.711 8.519-17.039 17.413-25.406 26.251z" fill="#CD142B"/><defs><clipPath id="clip0"><path fill="#fff" transform="rotate(15 25.563 1720.256)" d="M0 0h101.325v101.325H0z"/></clipPath></defs></svg>