<svg width="476" height="344" fill="none" xmlns="http://www.w3.org/2000/svg"><circle cx="143.5" cy="143.5" r="143.5" fill="#00237C"/><path d="M29.192 106h-6.696l10.692-25.488h5.976L49.748 106h-6.84l-1.98-5.004h-9.864L29.192 106zm3.636-9.936h6.408l-3.168-8.748-3.24 8.748zM54.375 106V80.512h6.12v9.252c.336 0 .66.012.972.036.336 0 .66.012.972.036l7.812-9.324h6.696l-8.532 10.764a12.497 12.497 0 012.988 2.052c.912.816 1.74 1.824 2.484 3.024s1.392 2.604 1.944 4.212c.552 1.584 1.02 3.396 1.404 5.436h-6.696c-.36-1.944-.816-3.624-1.368-5.04-.528-1.416-1.188-2.568-1.98-3.456a6.874 6.874 0 00-2.844-1.98c-1.104-.432-2.388-.624-3.852-.576V106h-6.12zm28.184 0V80.512h6.12v20.304h9.72V80.512h6.12v20.304h2.736v10.188h-5.04V106H82.559zm30.75 0V80.512h17.136v5.22h-11.196v4.788h10.584v4.932h-10.584v5.292h11.844V106h-17.784zm40.479 0V95.344h-9.936V106h-6.156V80.512h6.156v9.648h9.936v-9.648h6.156V106h-6.156zm24.828-20.232V106h-6.156V85.768h-7.2v-5.256h20.556v5.256h-7.2zM218.758 106V95.344h-9.936V106h-6.156V80.512h6.156v9.648h9.936v-9.648h6.156V106h-6.156zm17.485 0h-6.696l10.692-25.488h5.976L256.799 106h-6.84l-1.98-5.004h-9.864L236.243 106zm3.636-9.936h6.408l-3.168-8.748-3.24 8.748zM47.228 129.512V155h-6.12v-20.304h-9.36V155h-6.12v-25.488h21.6zm27.111 7.848c0 1.488-.276 2.748-.828 3.78a6.845 6.845 0 01-2.232 2.448c-.936.624-2.016 1.08-3.24 1.368a16.608 16.608 0 01-3.816.432h-3.06V155h-6.156v-25.488h9.36c1.392 0 2.688.144 3.888.432 1.224.264 2.28.708 3.168 1.332.912.6 1.62 1.404 2.124 2.412.528.984.792 2.208.792 3.672zm-6.156.036c0-.6-.12-1.092-.36-1.476a2.508 2.508 0 00-.972-.9 4.186 4.186 0 00-1.404-.432 11.198 11.198 0 00-1.584-.108h-2.7v6.012h2.592c.576 0 1.128-.048 1.656-.144a4.241 4.241 0 001.404-.504c.432-.24.768-.552 1.008-.936.24-.408.36-.912.36-1.512zM84.12 155h-6.696l10.692-25.488h5.976L104.675 155h-6.84l-1.98-5.004H85.99L84.119 155zm3.636-9.936h6.408l-3.168-8.748-3.24 8.748zM109.3 155v-25.488h6.12v9.252c.336 0 .66.012.972.036.336 0 .66.012.972.036l7.812-9.324h6.696l-8.532 10.764a12.497 12.497 0 012.988 2.052c.912.816 1.74 1.824 2.484 3.024s1.392 2.604 1.944 4.212c.552 1.584 1.02 3.396 1.404 5.436h-6.696c-.36-1.944-.816-3.624-1.368-5.04-.528-1.416-1.188-2.568-1.98-3.456a6.874 6.874 0 00-2.844-1.98c-1.104-.432-2.388-.624-3.852-.576V155h-6.12zm39.092-20.232V155h-6.156v-20.232h-7.2v-5.256h20.556v5.256h-7.2zm18.758 11.736l10.584-16.992h6.948V155h-6.12v-16.776h-.108L167.835 155h-6.912v-25.488h6.12v16.992h.108zM192.447 155v-25.488h6.12v9.252c.336 0 .66.012.972.036.336 0 .66.012.972.036l7.812-9.324h6.696l-8.532 10.764a12.497 12.497 0 012.988 2.052c.912.816 1.74 1.824 2.484 3.024s1.392 2.604 1.944 4.212c.552 1.584 1.02 3.396 1.404 5.436h-6.696c-.36-1.944-.816-3.624-1.368-5.04-.528-1.416-1.188-2.568-1.98-3.456a6.874 6.874 0 00-2.844-1.98c-1.104-.432-2.388-.624-3.852-.576V155h-6.12zm28.184 0v-25.488h17.136v5.22h-11.196v4.788h10.584v4.932h-10.584v5.292h11.844V155h-17.784zM44.96 186.36c0 1.488-.276 2.748-.828 3.78a6.845 6.845 0 01-2.232 2.448c-.936.624-2.016 1.08-3.24 1.368a16.608 16.608 0 01-3.816.432h-3.06V204h-6.156v-25.488h9.36c1.392 0 2.688.144 3.888.432 1.224.264 2.28.708 3.168 1.332.912.6 1.62 1.404 2.124 2.412.528.984.792 2.208.792 3.672zm-6.156.036c0-.6-.12-1.092-.36-1.476a2.508 2.508 0 00-.972-.9 4.186 4.186 0 00-1.404-.432 11.198 11.198 0 00-1.584-.108h-2.7v6.012h2.592c.576 0 1.128-.048 1.656-.144a4.241 4.241 0 001.404-.504c.432-.24.768-.552 1.008-.936.24-.408.36-.912.36-1.512zM51.175 204v-25.488h17.136v5.22H57.115v4.788H67.7v4.932H57.115v5.292H68.96V204H51.175zm37.24-25.488h6.084V204H88.45v-9.468h-4.608c-3.313 0-5.725-.876-7.237-2.628-1.487-1.776-2.231-4.26-2.231-7.452v-5.94h6.12v4.644c0 1.08.047 2.016.143 2.808.12.768.325 1.404.612 1.908a2.8 2.8 0 001.296 1.116c.576.24 1.32.36 2.232.36h3.636v-10.836zm20.083 16.992l10.584-16.992h6.948V204h-6.12v-16.776h-.108L109.182 204h-6.912v-25.488h6.12v16.992h.108z" fill="#fff"/><circle cx="343" cy="230" r="114" fill="#fff"/><g clip-path="url(#clip0)"><path d="M417.121 231.324c0 40.69-32.985 73.676-73.675 73.676s-73.676-32.986-73.676-73.676c0-40.69 32.986-73.676 73.676-73.676 40.69 0 73.675 32.986 73.675 73.676z" fill="#CD142B"/><path d="M344.249 210.851h-37.142c-16.95 0-30.69 13.74-30.69 30.69 0 12.261 7.191 22.843 17.585 27.758 4.174 1.975 6.851 6.161 6.851 10.779v6.584c0 2.503 3.235 3.501 4.644 1.433l7.27-10.663a11.91 11.91 0 019.84-5.201h21.642c16.95 0 30.69-13.74 30.69-30.69-.001-16.95-13.741-30.69-30.69-30.69z" fill="#F8FAFD"/><path d="M305.729 269.299c-10.393-4.915-17.584-15.497-17.584-27.758 0-16.95 13.74-30.69 30.69-30.69h-11.728c-16.95 0-30.69 13.74-30.69 30.69 0 12.261 7.19 22.843 17.584 27.758 4.175 1.975 6.851 6.161 6.851 10.779v6.584c0 2.503 3.235 3.501 4.645 1.433l6.89-10.107a11.944 11.944 0 00-6.658-8.689z" fill="#DDD"/><path d="M310.569 242.128a5.665 5.665 0 11-11.331 0 5.665 5.665 0 0111.331 0zm20.774 0a5.665 5.665 0 11-11.33 0 5.665 5.665 0 0111.33 0zm20.775 0a5.665 5.665 0 01-5.666 5.665 5.665 5.665 0 115.666-5.665z" fill="#7956BA"/><path d="M342.405 154h37.141c16.95 0 30.69 13.74 30.69 30.69 0 12.261-7.19 22.842-17.584 27.759-4.175 1.974-6.851 6.161-6.851 10.778v6.584c0 2.502-3.235 3.501-4.645 1.433l-7.27-10.664a11.906 11.906 0 00-9.84-5.199h-21.641c-16.95 0-30.69-13.741-30.69-30.691s13.74-30.69 30.69-30.69z" fill="#00237C"/><path d="M376.677 211.472h-21.642c-16.95 0-30.69-13.742-30.69-30.691 0-11.173 5.972-20.952 14.898-26.319-15.464 1.583-27.528 14.647-27.528 30.529 0 16.95 13.74 30.69 30.69 30.69h21.642c3.938 0 7.621 1.947 9.839 5.201l7.27 10.663c1.41 2.068 4.645 1.07 4.645-1.433v-6.584c0-2.049.529-4.012 1.481-5.735l-.766-1.121a11.904 11.904 0 00-9.839-5.2z" fill="#1A47B8"/><path d="M387.415 185.277a5.665 5.665 0 11-11.331 0 5.665 5.665 0 0111.331 0zm-20.774 0a5.665 5.665 0 11-11.33 0 5.665 5.665 0 1111.33 0zm-20.773 0a5.665 5.665 0 01-5.666 5.665 5.665 5.665 0 115.666-5.665z" fill="#F8FAFD"/></g><circle cx="343.5" cy="229.5" r="97" stroke="#00237C" stroke-width="5" stroke-dasharray="15 15"/><path d="M473.313 63.666c-1.073-10.209-9.77-16.835-19.531-15.809-9.761 1.026-17.971 10.641-15.817 19.524 2.153 8.882 9.002 18.29 19.531 15.808 10.528-2.481 16.89-9.315 15.817-19.523z" fill="#00237C"/><defs><clipPath id="clip0"><path fill="#fff" transform="translate(268 154)" d="M0 0h151v151H0z"/></clipPath></defs></svg>