<svg width="3072" height="1733" fill="none" xmlns="http://www.w3.org/2000/svg"><mask id="a" maskUnits="userSpaceOnUse" x="0" y="0" width="3072" height="1733"><path fill="#C4C4C4" d="M0 0h3072v1733H0z"/></mask><g mask="url(#a)"><path d="M358.153 156.676c47.717 45.893 85.813 95.792 117.718 147.918 22.883 37.407 42.019 76.72 62.401 114.534 34.266 63.516 51.158 132.614 71.082 199.798 22.448 75.713 46.741 152.517 85.131 224.427 21.344 39.948 45.814 78.896 86.142 111.4 43.91 35.383 99.357 59.487 160.654 76.037 126.159 33.99 263.809 45 396.869 55.5 69.74 5.53 139.61 10.24 209.34 15.86 58.74 4.73 122.85 6.5 178.8 21.17 110.72 28.98 198.25 99.83 272.7 162.5 25.13 21.17 50.96 41.98 76.72 62.67 61.23 49.12 121.29 101.2 150.29 175.2 13.79 35.18 75.97 198.92 86 199 41.5 34.5 98.96-36.09 107-61.5 37-117 11-180.5 0-197.5-17-18-19.33-18.67-34-34-14.67-15.34-15.76-11.87-22-18-68.3-67.21-173.23-127.79-260.96-183.01-92.48-58.27-192.17-113.23-299.81-154.58-36.7-14.09-75.51-27.4-116.3-34.92-37.98-7-78.94-8.13-117.93-9.99-89.19-4.23-178.85-4.43-267.99-6.77-112.31-2.89-230.24-6.36-337.279-33.876-53.673-13.796-103.175-36.12-141.072-67.048-35.041-28.608-51.182-66.558-60.709-103.262-22.272-85.663-12.839-174.528-19.512-261.588-3.324-43.42-9.973-87.061-25.996-129.083-14.731-38.644-39.682-74.756-64.774-110.156-31.717-44.783-67.205-89.33-110.517-127.991-14.57-12.878-31.034-24.58-49.103-34.9-40.939-23.577-85.296-46.3-134.763-59.562-17.879-4.793-37.72-8.706-56.022-10.205-26.56-2.185-2.584 19.919 3.313 25.237 17.62 15.897 37.062 30.7 54.577 46.664" fill="#979797"/><path d="M514.012 131.835c63.227 42.147 119.582 88.706 164.131 141.224 29.252 34.485 57.564 72.424 72.484 110.973 25.235 65.193 18.797 137.16 16.448 205.622-2.597 75.488-6.356 152.222 10.925 225.653 9.328 39.633 29.863 76.2 72.133 104.377 39.684 26.476 87.722 44.247 139.483 54.873 108.954 22.352 226.244 20.43 338.444 19.524 60.28-.491 120.57-1.456 180.85-.694 54.25.685 112.1.491 165.06 9.903 147.48 26.25 284.61 94.98 407.65 156.07 43.4 21.55 87.28 42.97 130.29 64.85 69.31 35.24 135.1 74.37 204.03 110.27 59.57 31.04 124.23 58.92 196.76 69.66 15.66 2.32 32.59 4.32 47.96 3.11 21.55-1.7 53.52-7.38 57.09-27 .22-1.12.29-2.25.23-3.38-1.18-19.37-26.93-36.87-44.14-49.68-10.93-8-22.46-15.58-34.53-22.68-123.81-74.05-264.67-136.57-405.14-194.73-143.58-59.35-292.07-115.394-445.51-158.557-85.45-24.037-167.34-40.42-259.91-39.794-77.82.551-155.4 7.459-232.61 12.7-95.71 6.503-197.77 13.623-291.58-6.426-49.835-10.651-96.263-31.183-131.155-59.072-35.244-28.109-45.312-66.81-44.889-102.692.999-85.276 42.692-171.027 64.179-256.286 10.186-40.412 17.763-81.814 13.546-122.953-4.1-39.963-24.06-74.21-48.883-109.22-33.752-47.651-73.695-94.107-121.85-134.138-16.256-13.473-34.512-25.622-54.44-36.228C628.202 68.903 567.383 43.9 499.726 39.887c-21.369-1.27-46.404-.584-65.917 6.24-55.239 19.313 60.408 73.076 80.203 85.708z" fill="#00237C"/><path d="M671.211 46.872c73.339 45.586 141.743 95.297 193.448 153.635 31.188 35.198 62.775 75.543 71.483 116.406 14.947 70.099-16.558 146.057-40.753 215.817-26.1 75.231-65.126 157.489-54.056 233.354 5.453 37.534 25.853 67.872 68.756 92.35 37.822 21.473 82.583 35.686 130.101 41.311 91.66 11.075 187.04-1.956 277.6-12.7 94.98-11.228 193.37-24.877 289.96-17.104 68.47 5.504 135.75 24.986 199.46 42.869 96.03 26.959 189.88 58.101 282.34 90.6 59.03 20.73 118.2 41.82 176.49 63.65 115.88 43.39 228.96 91.05 343.64 136.37 84.69 33.47 174.56 69.89 269.55 84.32 13.18 2 27.78 3.45 40.96 1.53 27.88-4.07 16.7-30.03 8.62-40.8a49.152 49.152 0 00-4-4.48c-24.36-24.97-61.79-44.03-96.27-60.77-16.07-7.82-32.97-15.41-49.67-22.77-158.64-69.92-325.67-131.8-494-189.777-155.55-53.58-314.16-105.56-477.09-145.491-80.72-19.779-156.5-35.036-242.4-30.38-70.23 3.811-139.38 15.165-208.19 24.995-86.12 12.303-178.4 25.554-265.85 11.372-47.12-7.621-92.553-25.529-126.502-50.363-37.721-27.585-47.686-65.078-45.465-101.3 5.241-85.187 58.062-170.629 94.257-254.148 17.93-41.345 22.87-63.729 26.37-108.455 0-41.822-10.26-88.117-26.37-116.406-27.13-47.628-60.123-95.318-109.122-133.06-17.218-13.1-35.588-25.39-54.996-36.79C787.524-6.03 714.267-38.324 635.287-52.397c-19.918-3.539-46.652-6.697-65.806.043-59.438 20.913 82.035 87.346 101.742 99.226" fill="#CD142B"/></g></svg>