<svg width="1440" height="746" fill="none" xmlns="http://www.w3.org/2000/svg"><mask id="a" maskUnits="userSpaceOnUse" x="0" y="0" width="1440" height="746"><path fill="#C4C4C4" d="M0 0h1440v746H0z"/></mask><g mask="url(#a)"><path d="M1360.25 542.236c-149.45 4.44-297.18 20.09-444.062 34.766-156.56 15.628-297.371 70.172-442.636 109.568-87.51 23.791-176.963 38.553-274.569 12.773-68.297-18.07-126.123-49.088-177.403-95.533-71.444-64.706-122.692-145.374-197.37-207.003-17.284-14.264-37.021-27.82-59.615-32.971-18.777-4.261-37.823-2.372-56.057-2.948-16.235-.515-27.133-7.782-35.84-18.982-26.545-34.163-32.462-88.988-48.773-128.82-3.442-8.415-8.172-19.062-8.101-27.666.059-6.142 4.62-7.733 8.675-8.98 31.492-9.675 62.377-23.265 96.598-27.711 39.225-5.096 75.576 6.074 107.858 28.121 55.306 37.82 95.78 98.584 139.832 148.841 43.519 49.586 88.169 99.178 139.864 142.836 43.732 36.967 92.626 68.542 147.258 89.831 68.472 26.652 140.461 27.458 207.41 19.136 164.646-20.514 315.81-82.805 481.565-105.719 82.476-11.405 167.126-18.155 250.956-24.94 71.78-5.814 144.84-10.642 217.84-7.191 20.56.967 47.65 1.362 66.32 14.032 9.06 6.15 13.21 14.287 16.42 22.372 4.74 12.006 6.46 25.253.65 35.819-19.19 34.98-96.11 30.69-136.78 30.352" fill="#00237C"/><path d="M1405.06 419.32c-81.65-1.166-162.13 4.296-242.02 11.021-52.49 4.422-104.87 9.428-157.24 14.345-79.89 7.489-156.724 23.155-232.634 41.103-82.384 19.475-164.599 41.302-248.578 55.988-95.301 16.665-192.92 21.889-291.024-21.346-77.979-34.402-142.928-88.463-200.8-146.162-35.963-35.871-69.486-73.389-102.617-111.091-30.906-35.162-59.493-73.388-98.015-102.964-51.814-39.779-108.5-46.143-169.419-51.649-22.573-2.04-43.374-11.787-61.936-24.005-44.494-29.282-81.421-69.529-115.38-108.945-4.437-5.148-8.985-10.508-13.419-16.155-8.817-11.25-16.711-22.964-23.609-35.037-.535-.853-1.007-1.73-1.478-2.607-4.559-8.579-10.21-18.663-9.778-27.949.257-5.486 5.204-7.237 10.493-8.315 99.992-19.812 207.814-35.486 307.818 18.451 59.452 32.053 98.552 85.918 140.11 134.822 47.628 56.131 95.683 112.35 146.424 166.181 62.259 66.058 130.216 132.661 211.148 182.033 84.757 51.693 171.08 63.515 263.527 58.497 118.417-6.427 232.062-33.671 346.456-54.886 113.988-21.143 230.941-31.201 348.461-40.502 70.64-5.588 142.79-10.836 214.25-6.929 20.82 1.14 42.27 3.489 62.81 11.173 14.85 5.519 30.99 13.269 41.82 24.385 6.88 7.104 11.48 19.717 7.25 27.593-7.93 14.818-34.63 14.634-51.8 15.044-26.68.624-53.9-.968-80.83-2.121" fill="#CD142B"/><path d="M1441.47 330.028c-75.12-4.498-149-.756-222.21 4.624-50.62 3.759-101.22 8.276-151.73 12.565-81.786 6.95-161.224 21.019-240.562 35.283-86.648 15.566-174.193 30.473-263.273 37.097-52.404 3.892-106.518 4.897-160.731-2.662-55.357-7.73-106.704-31.576-153.763-61.684C153.368 293.919 74.069 211.694.323 131.064-39.183 87.861-77.204 43.722-115.046-.508c-35.293-41.247-68.194-85.329-115.062-117.737-74.249-51.434-163.138-63.098-248.791-72.533-29.055-3.193-57.315-11.208-84.673-21.883-60.02-23.424-113.9-51.954-162.886-93.108a211.115 211.115 0 01-17.751-16.164c-9.416-10.013-18.385-20.93-23.095-33.215a33.308 33.308 0 01-.734-2.12c-2.851-9.16-.487-14.645 5.017-19.166 3.539-2.91 10.307-3.673 17.667-3.871 134.947-3.654 283.994-13.631 413.185 50.208 66.689 32.956 107.499 87.827 152.207 141.671 55.484 66.869 111.138 133.882 169.165 199 74.249 83.339 153.025 168.574 247.05 236.383 44.903 32.366 95.87 59.685 150.755 71.243 46.994 9.886 95.51 12.389 141.859 12.481 119.344.221 235.581-16.725 351.594-31.782 111.073-14.433 223.429-22.23 336.389-29.269 63.32-3.943 127.83-8.044 191.6-3.612 19.71 1.363 39.78 4.349 59.5 10.115 24.13 7.055 51.6 15.028 71.08 29.367 7.86 5.794 20.03 15.036 19.98 24.029-.08 20.692-98.91 2.092-117.64.517" fill="#979797"/></g></svg>