<svg width="1440" height="242" fill="none" xmlns="http://www.w3.org/2000/svg"><mask id="a" maskUnits="userSpaceOnUse" x="0" y="0" width="1440" height="242"><path fill="#C4C4C4" d="M0 0h1440v242H0z"/></mask><g mask="url(#a)"><path d="M1245.86 372.639c-17.87 3.583-49.13 13.055-44.35 30.189.72 2.006 2.28 3.711 4.51 4.925 52.36 33.676 118.21 55.615 162.68 94.984 20.49 18.14 39.4 37.644 57.35 57.271 33.78 37.185 66.87 75.843 97.38 114.324 34.19 43.111 62.92 89.964 92.22 135.857 13.37 20.915 26.72 41.895 40.32 62.701 41.53 63.472 85.97 126.382 140.16 183.35 37.67 39.61 79.4 89.46 151.69 102.67 74.8 13.7 162.27-17.23 235.2-45.08 248.84-95.05 467.07-238.685 709.54-345.756 48.07-21.22 101.8-47.655 154.11-52.742 42.99-4.169 86.4.672 128.83.979 8.15.058 16.93-.353 24.64-2.13 5.43-1.252 10.18-3.439 12.99-7.301 3.83-5.245 3.17-13.576 1.03-21.725-3.64-13.57-8.45-26.934-14.02-39.998-1.93-4.566-4.07-9.055-6.1-13.415-7.6-16.4-17.33-33.29-33.31-45.576-10.24-7.539-22.68-13.479-36.78-17.559-38.69-11.082-80.66-23.406-128.77-8.876-33.88 10.283-64.87 27.273-95.24 42.691-59.94 30.412-118.59 61.682-176.19 94.434-68.25 38.772-136.46 78.642-205.61 116.295-109.8 59.76-235.07 127.634-363.5 158.77-129.47 31.389-200.03-23.522-266.92-77.839-92.25-74.935-159.03-165.348-220.12-257.391-25.68-38.669-52.35-77.106-79.97-114.738-21.87-29.819-45.38-59.513-74.8-84.528-21.55-18.37-48.1-33.449-78.62-44.642-51.7-18.982-125.89-32.818-188.35-20.144z" fill="#979797"/><path d="M-715.869-189.079C-658.926-160.926-610.328-126.747-567.183-89c30.95 27.091 58.731 56.834 87.36 84.932 48.119 47.188 80.776 103.8 115.908 157.937 39.589 61.01 81.217 122.507 135.303 176.035 30.065 29.732 62.911 57.774 109.551 76.022 50.782 19.863 110.039 26.784 173.16 25.525 129.904-2.652 265.459-28.56 396.468-53.73 68.674-13.17 137.279-27.099 205.962-40.191 57.854-11.024 120.203-26.056 177.717-27.592 113.798-3.078 215.094 36.798 301.834 72.838 29.28 12.183 59.15 23.861 88.93 35.453 70.75 27.505 141.45 71.256 235.25 66.277 9.6-.504 19.79-1.424 29.49-3.951 16.69-4.361 35.82-14.463 42.23-26.969.44-.834.82-1.676 1.12-2.52 4.36-12.751-5.85-22.554-14.38-31.395-5.2-5.383-13.19-10.214-20.66-14.011-81.86-41.632-178.16-73.956-275.96-99.983-103.1-27.497-212.4-50.194-326.147-58.832-38.779-2.932-79.417-4.636-120.592-.717-38.338 3.656-78.173 13.256-116.272 21.71-87.158 19.348-173.805 42.373-260.458 63.381-109.17 26.52-223.903 53.978-333.802 57.398-55.106 1.716-108.201-5.174-152.12-22.662-40.613-16.179-65.178-45.494-83.06-75.422-41.771-69.838-53.675-150.708-80.708-225.817-13.479-37.46-30.221-74.254-55.636-107.195-23.368-30.292-56.008-55.705-88.616-80.454-41.227-31.315-86.041-61.445-137.019-84.355-17.12-7.595-35.79-13.661-55.683-18.093-45.12-10.213-93.339-18.786-144.257-17.687-18.403.397-38.493 2.079-56.526 5.493-26.172 4.946 2.214 18.248 9.168 21.416 20.779 9.468 43.059 17.502 63.753 27.058" fill="#979797"/><path d="M-571.196-251.342c71.04 20.833 136.485 47.338 191.935 82.158 36.411 22.864 72.73 49.02 96.258 79.18C-243.211-39-232.411 26.183-218.491 87.212c15.344 67.295 29.859 135.99 63.916 196.324 18.383 32.564 46.866 59.522 94.358 73.45 44.593 13.095 95.197 16.346 147.707 12.327 110.524-8.471 223.364-40.525 331.532-70.365 58.108-16.035 116.116-32.491 174.521-47.42 52.566-13.436 108.396-28.58 161.777-33.977 148.665-15.008 297.37 10.163 430.67 32.228 47.01 7.785 94.46 15.334 141.18 23.511 75.29 13.167 148.09 30.677 223.15 44.521 64.89 11.974 133.94 19.845 206.54 10.548 15.67-2.006 32.5-4.624 47.05-9.67 20.43-7.074 49.96-20.361 48.77-38.599a11.22 11.22 0 00-.58-3.047c-5.72-16.785-34.73-25.572-54.38-32.416-12.45-4.238-25.38-7.938-38.72-11.082-137.1-33.308-287.95-52.035-437.39-67.006-152.72-15.219-309.4-26.248-467.816-24.629-88.227.904-171.206 7.641-260.466 32.151-75.037 20.626-148.343 46.804-221.68 71.412-90.912 30.51-187.816 63.211-283.169 69.796-50.655 3.498-100.356-2.606-140.654-18.189-40.69-15.687-59.567-47.237-67.644-79.014-19.202-75.52.793-161.99 1.385-242.798.282-38.302-2.189-76.803-15.992-112.019-13.411-34.208-40.789-59.268-73.046-83.741-43.87-33.319-93.438-63.981-149.419-86.847-18.888-7.684-39.394-13.681-61.152-17.884-57.736-11.215-122.395-17.54-188.695-3.571-20.942 4.41-44.962 11.495-62.196 22.568-48.79 31.341 75.63 48.859 97.738 54.884z" fill="#00237C"/><path d="M-439.446-367.012c81.621 21.251 159.45 47.419 223.189 85.524 38.449 22.992 78.501 50.424 96.575 84.233 31.015 57.998 18.546 133.19 11.672 201.02-7.42 73.15-25.663 155.848 2.97 219.938 14.143 31.715 41.022 53.21 88.252 63.709 41.611 9.162 88.208 10.122 135.434 2.788 91.155-13.949 180.208-50.137 265.136-83.057 89.094-34.493 180.906-72.005 276.037-90.142 67.442-12.865 137.033-13.083 202.806-13.791 99.134-1.062 197.145 2.134 294.135 6.884 61.93 3.021 124.07 6.314 185.53 10.493 122.19 8.306 242.69 21.102 364.18 31.415 89.72 7.62 185.15 16.506 280.31 4.656 13.21-1.649 27.65-4.141 39.93-9.25 25.96-10.809 9.03-30.827-1.33-38.24a45.558 45.558 0 00-4.92-2.919c-29.43-15.732-70.09-22.866-107.35-28.716-17.38-2.745-35.5-5.066-53.37-7.238-169.77-20.65-345.74-32.038-522.04-39.638-162.92-7.027-328.43-11.85-495.25-4.92-82.646 3.435-159.444 9.58-241.317 35.923-66.943 21.541-131.046 49.458-195.192 75.944-80.269 33.146-166.273 68.725-254.099 78.843-47.319 5.47-95.436 1.424-134.102-11.707-42.96-14.583-61.45-45.093-67.871-77.636-15.083-76.54 15.733-165.618 30.943-248.696 7.544-41.13 7.021-62.164-.175-102.543-9.89-36.91-30.745-75.113-53-95.91-37.468-35.012-80.614-68.562-136.87-89.19-19.729-7.106-40.379-13.197-61.821-18.235-68.552-16.336-146.949-25.877-226.566-17.855-20.076 2.032-46.646 6.164-63.554 17.07-52.467 33.841 99.895 55.856 121.74 61.24" fill="#CD142B"/></g></svg>