<svg width="1440" height="553" fill="none" xmlns="http://www.w3.org/2000/svg"><mask id="a" maskUnits="userSpaceOnUse" x="0" y="0" width="1440" height="553"><path fill="#C4C4C4" d="M0 0h1440v553H0z"/></mask><g mask="url(#a)"><path d="M1538.94 105.268c-125.25 10.544-174.49 59.753-214.89 123.155-49.41 77.427-111.42 149.662-201.82 207.777-59.4 38.257-137.042 85.374-235.762 94.454-114.065 10.484-263.033-49.616-368.105-95.854-156.27-68.767-314.714-153.573-448.92-240.794-52.69-34.237-82.734-53.103-145.046-46.309-8.827.919-20.165 2.577-30.346-3.446-7.832-4.627-12.978-12.705-18.043-20.323-10.96-16.78-23.956-33.438-38.869-49.821-13.588-14.785-30.681-33.453-26.801-47.934 2.548-9.509 13.033-13.869 21.727-16.892 15.136-5.282 50.186-23.671 75.424-10.637C-71.178 9.67-53.16 25.728-33.72 39.081 17.352 74.23 72.952 107.924 128.52 140.054c186.684 107.959 460.031 251.072 686.968 218.739 158.855-22.653 275.322-77.626 334.042-163.351 39.33-57.428 70.37-116.878 148.62-156.114 29.31-14.685 65.63-23.299 107.84-24.457 43.07-1.158 104.2 9.836 143.75 33.493 34.35 20.59 25.56 52.627-10.8 56.904z" fill="#CD142B"/><path d="M1752.11 184.11c28.56 7.96 43.26 28.713 29.91 39.587-2.56 1.949-6.01 3.395-10.12 4.24-71.45 13.786-134.52 39.164-173.34 74.885-17.09 15.75-32.04 32.752-46.37 49.877-27.08 32.34-54.77 64.746-80.67 97.556-28.77 36.441-56.58 73.689-86.65 109.552-13.21 15.695-27.01 31.385-41.15 46.656-44.12 47.293-94.88 92.382-157.05 130.177-45.84 27.883-97.09 48.777-182.04 35.517-85.71-13.388-174.845-48.372-251.717-80.476C540.174 602.81 338.752 490.03 140.168 385.444c-35.31-18.592-75.42-42.64-114.86-51.008-32.917-6.981-65.865-6.208-99.186-6.182-6.998-.003-14.658-.128-21.717-1.582-5.188-.946-10.11-3.181-13.354-6.063-5.613-5.018-7.09-12.946-7.856-20.628-1.247-12.376-2.24-24.783-3.149-37.124-.335-4.326-.645-8.591-1.053-12.795-1.52-15.865-1.478-33.128 10.782-45.279 7.356-7.085 18.133-12.445 31.47-15.652 26.562-7.027 67.255-20.59 105.812-5.409 28.968 11.407 55.089 27.711 80.911 42.228 58.035 32.606 117.289 64.631 175.866 96.737 69.763 38.244 140.939 76.332 213.538 111.855 110.725 54.147 244.879 117.922 375.2 139.945 113.95 19.203 200.778-14.808 269.118-46.921 90.11-42.339 151.66-101.152 201.1-165.237 22.91-29.67 42.21-61.36 65.37-90.668 20.09-25.442 44.24-49.657 76.11-68.705 24.44-14.73 55.7-25.135 91.85-30.566 49.4-7.508 118.39-4.337 175.99 11.72z" fill="#979797"/><path d="M1975.54 297.069c19.93 4.247 54.96 14.627 50.59 30.161-.69 1.811-2.32 3.299-4.72 4.3-56.06 28.257-127.63 44.988-174.68 78.907-21.67 15.631-41.52 32.6-60.31 49.734-35.35 32.474-69.85 66.342-101.52 100.182-35.49 37.912-64.75 79.56-94.68 120.294-13.66 18.563-27.3 37.187-41.22 55.637-42.52 56.284-88.28 111.895-145.13 161.52-39.51 34.495-82.97 78.218-162.12 86.569-81.89 8.664-180.15-24.464-262.189-53.977-279.889-100.74-528.546-244.62-802.034-356.096-54.226-22.094-114.975-49.293-173.022-56.746-47.709-6.115-95.402-3.951-142.257-5.913-8.997-.378-18.711-1.221-27.323-3.266-6.069-1.44-11.426-3.706-14.736-7.414-4.512-5.035-4.227-12.676-2.286-20.07 3.298-12.311 7.903-24.37 13.365-36.112 1.898-4.104 4.021-8.126 6.032-12.037 7.528-14.708 17.38-29.755 34.388-40.229 10.91-6.404 24.338-11.219 39.697-14.232 42.148-8.164 87.857-17.299 141.767-1.367 37.968 11.266 73.09 28.559 107.462 44.372 67.815 31.19 134.248 63.103 199.613 96.326 77.437 39.333 154.89 79.676 233.267 118.025C717.931 696.505 859.9 765.668 1003.41 801.149c144.67 35.768 219.71-11.092 290.72-57.599 97.93-64.162 166.91-143.931 229.53-225.504 26.32-34.27 53.75-68.273 82.26-101.485 22.58-26.316 46.98-52.432 78.15-73.923 22.83-15.785 51.37-28.274 84.48-36.972 56.11-14.755 137.33-23.578 206.99-8.597z" fill="#00237C"/></g></svg>