<svg width="1440" height="2419" viewBox="0 0 1440 2419" fill="none" xmlns="http://www.w3.org/2000/svg">
<path d="M1243.66 1362.52C1225.47 1361.24 1192.82 1362.4 1193 1381.87C1193.17 1384.19 1194.24 1386.44 1196.08 1388.35C1237.94 1438.78 1295.87 1480.63 1328.64 1534.85C1343.73 1559.83 1356.95 1585.8 1369.21 1611.64C1392.21 1660.52 1414.17 1710.76 1433.68 1760.08C1455.55 1815.34 1471.18 1873.01 1487.6 1929.83C1495.1 1955.73 1502.56 1981.69 1510.31 2007.54C1534 2086.4 1560.65 2165.5 1598.25 2241.08C1624.38 2293.61 1651.79 2358.13 1718.19 2392.58C1786.9 2428.25 1879.4 2420.33 1957.05 2411.55C2222.01 2381.55 2469.98 2291.52 2731.9 2247.01C2783.83 2238.2 2842.57 2225.47 2894.41 2234.91C2937.01 2242.68 2977.69 2260.1 3018.6 2272.44C3026.45 2274.81 3035.04 2276.86 3042.95 2277.17C3048.52 2277.38 3053.67 2276.41 3057.38 2273.13C3062.44 2268.67 3063.96 2259.68 3064 2250.45C3064 2235.08 3062.81 2219.59 3060.82 2204.2C3060.13 2198.82 3059.22 2193.47 3058.39 2188.29C3055.3 2168.8 3050.27 2148.19 3038.01 2130.67C3030.07 2119.8 3019.59 2110 3007.03 2101.69C2972.53 2079.01 2935.17 2054.1 2884.94 2055.83C2849.56 2057.1 2815.23 2066.29 2781.9 2073.98C2716.13 2089.15 2651.39 2105.6 2587.27 2123.9C2511.31 2145.56 2435.11 2168.39 2358.57 2188.61C2237.05 2220.68 2098.48 2256.95 1966.36 2253.48C1833.18 2249.99 1779.23 2171.96 1728.68 2095.59C1658.97 1990.24 1617.87 1875.74 1582.68 1761.13C1567.89 1712.97 1552.07 1664.78 1535.14 1617.18C1521.73 1579.46 1506.7 1541.41 1484.76 1506.63C1468.7 1481.11 1446.95 1457.64 1420.38 1437.17C1375.35 1402.45 1307.26 1366.81 1243.66 1362.52Z" fill="#979797"/>
<path d="M-505.847 212.991C-458.13 258.884 -420.035 308.783 -388.129 360.909C-365.246 398.316 -346.11 437.629 -325.729 475.442C-291.462 538.959 -274.57 608.057 -254.647 675.241C-232.198 750.953 -207.905 827.758 -169.515 899.668C-148.171 939.616 -123.701 978.564 -83.3734 1011.07C-39.4626 1046.45 15.9838 1070.55 77.2804 1087.1C203.445 1121.1 341.086 1132.11 474.146 1142.61C543.888 1148.14 613.76 1152.85 683.491 1158.46C742.227 1163.2 806.343 1164.97 862.294 1179.63C973.011 1208.61 1060.54 1279.47 1134.99 1342.14C1160.12 1363.31 1185.95 1384.12 1211.71 1404.81C1272.94 1453.93 1329.9 1520.2 1421.8 1541.51C1431.2 1543.7 1441.28 1545.61 1451.31 1545.69C1468.55 1545.8 1489.65 1540.55 1499.07 1529.14C1499.72 1528.38 1500.3 1527.6 1500.81 1526.79C1508.32 1514.55 1501 1501.29 1495.04 1489.53C1491.41 1482.36 1484.95 1475 1478.71 1468.86C1410.42 1401.66 1325.77 1340.21 1238.04 1285C1145.56 1226.72 1045.87 1171.77 938.228 1130.41C901.53 1116.33 862.717 1103.02 821.931 1095.49C783.953 1088.5 742.99 1087.36 704.002 1085.51C614.806 1081.28 525.152 1081.07 436.014 1078.73C323.7 1075.85 205.77 1072.37 98.7306 1044.86C45.0579 1031.06 -4.4444 1008.74 -42.3406 977.811C-77.3824 949.203 -93.5229 911.253 -103.05 874.549C-125.322 788.886 -115.889 700.021 -122.562 612.961C-125.886 569.541 -132.535 525.9 -148.558 483.878C-163.289 445.234 -188.24 409.122 -213.332 373.722C-245.049 328.939 -280.537 284.392 -323.849 245.731C-338.42 232.853 -354.883 221.151 -372.952 210.831C-413.891 187.253 -458.248 164.531 -507.715 151.269C-525.594 146.476 -545.435 142.563 -563.737 141.064C-590.297 138.879 -566.322 160.983 -560.424 166.301C-542.804 182.198 -523.362 197.001 -505.847 212.965" fill="#979797"/>
<path d="M-349.988 188.15C-286.76 230.297 -230.405 276.856 -185.857 329.374C-156.605 363.859 -128.292 401.798 -113.372 440.347C-88.1378 505.54 -94.5757 577.507 -96.9253 645.969C-99.5215 721.457 -103.281 798.191 -85.9996 871.622C-76.6717 911.255 -56.1363 947.822 -13.8672 975.999C25.8174 1002.47 73.8548 1020.25 125.616 1030.87C234.567 1053.22 351.858 1051.3 464.063 1050.4C524.342 1049.9 584.632 1048.94 644.911 1049.7C699.163 1050.39 757.01 1050.19 809.97 1059.61C957.454 1085.85 1094.58 1154.59 1217.62 1215.67C1261.02 1237.22 1304.9 1258.64 1347.91 1280.52C1417.22 1315.77 1483.01 1354.9 1551.94 1390.8C1611.51 1421.84 1676.17 1449.72 1748.7 1460.45C1764.36 1462.77 1781.29 1464.77 1796.66 1463.56C1818.21 1461.87 1850.18 1456.19 1853.75 1436.57C1853.97 1435.45 1854.04 1434.31 1853.98 1433.18C1852.8 1413.82 1827.05 1396.31 1809.84 1383.51C1798.91 1375.5 1787.38 1367.93 1775.31 1360.83C1651.5 1286.78 1510.64 1224.25 1370.17 1166.09C1226.59 1106.74 1078.1 1050.7 924.665 1007.54C839.21 983.501 757.316 967.118 664.753 967.744C586.935 968.295 509.352 975.203 432.144 980.444C336.433 986.947 234.367 994.067 140.56 974.018C90.7248 963.367 44.2969 942.835 9.40552 914.946C-25.8383 886.837 -35.9064 848.136 -35.4835 812.254C-34.4849 726.978 7.20865 641.227 28.6956 555.968C38.8811 515.556 46.4585 474.154 42.241 433.015C38.141 393.052 18.1812 358.805 -6.64221 323.795C-40.3941 276.144 -80.3371 229.688 -128.492 189.657C-144.748 176.184 -163.003 164.035 -182.932 153.429C-235.798 125.218 -296.617 100.216 -364.273 96.2023C-385.643 94.9323 -410.678 95.6181 -430.191 102.442C-485.43 121.755 -369.783 175.518 -349.988 188.15Z" fill="#00237C"/>
<path d="M-192.789 103.187C-119.45 148.773 -51.0462 198.484 0.659119 256.822C31.8468 292.02 63.4341 332.365 72.1417 373.228C87.0892 443.327 55.5843 519.285 31.3885 589.045C5.28909 664.276 -33.7366 746.533 -22.667 822.399C-17.2144 859.933 3.18567 890.271 46.0893 914.749C83.9113 936.222 128.672 950.435 176.187 956.06C267.846 967.135 363.231 954.104 453.786 943.359C548.771 932.132 647.164 918.483 743.747 926.256C812.221 931.76 879.497 951.242 943.212 969.125C1039.24 996.084 1133.09 1027.23 1225.55 1059.72C1284.58 1080.46 1343.75 1101.54 1402.04 1123.37C1517.92 1166.76 1631 1214.43 1745.68 1259.74C1830.37 1293.21 1920.24 1329.64 2015.23 1344.06C2028.41 1346.06 2043.01 1347.52 2056.19 1345.6C2084.07 1341.52 2072.89 1315.56 2064.81 1304.79C2063.59 1303.25 2062.26 1301.75 2060.81 1300.32C2036.45 1275.35 1999.02 1256.29 1964.54 1239.55C1948.47 1231.72 1931.57 1224.14 1914.87 1216.78C1756.23 1146.86 1589.2 1084.97 1420.87 1027C1265.32 973.418 1106.71 921.438 943.776 881.507C863.057 861.728 787.285 846.47 701.384 851.127C631.147 854.938 562.003 866.292 493.187 876.122C407.075 888.425 314.792 901.676 227.34 887.494C180.218 879.873 134.787 861.965 100.838 837.131C63.1168 809.545 53.1518 772.053 55.3728 735.831C60.6138 650.643 113.435 565.202 149.629 481.683C167.561 440.338 172.5 417.954 176 373.228C176 331.406 165.743 285.111 149.629 256.822C122.5 209.194 89.5069 161.504 40.5075 123.762C23.2898 110.661 4.91992 98.3725 -14.4882 86.972C-76.4758 50.2841 -149.733 17.9906 -228.713 3.91826C-248.631 0.379017 -275.365 -2.7792 -294.519 3.96061C-353.957 24.8743 -212.484 91.3072 -192.777 103.187" fill="#CD142B"/>
</svg>
