<svg width="1440" height="2234" viewBox="0 0 1440 2234" fill="none" xmlns="http://www.w3.org/2000/svg">
<path d="M1313.37 1607.24C1163.92 1611.68 1016.19 1627.33 869.311 1642C712.752 1657.63 571.94 1712.17 426.675 1751.57C339.165 1775.36 249.712 1790.12 152.106 1764.34C83.8093 1746.27 25.9827 1715.26 -25.2972 1668.81C-96.7405 1604.1 -147.989 1523.44 -222.667 1461.81C-239.951 1447.54 -259.688 1433.99 -282.282 1428.84C-301.059 1424.58 -320.105 1426.46 -338.339 1425.89C-354.574 1425.37 -365.472 1418.11 -374.179 1406.91C-400.724 1372.74 -406.641 1317.92 -422.951 1278.09C-426.394 1269.67 -431.124 1259.02 -431.053 1250.42C-430.994 1244.28 -426.433 1242.69 -422.377 1241.44C-390.886 1231.76 -360.001 1218.17 -325.78 1213.73C-286.555 1208.63 -250.204 1219.8 -217.922 1241.85C-162.616 1279.67 -122.142 1340.43 -78.0895 1390.69C-34.571 1440.28 10.0786 1489.87 61.7745 1533.53C105.506 1570.49 154.4 1602.07 209.032 1623.36C277.504 1650.01 349.493 1650.82 416.442 1642.49C581.088 1621.98 732.252 1559.69 898.007 1536.77C980.478 1525.37 1065.14 1518.62 1148.96 1511.84C1220.74 1506.02 1293.8 1501.19 1366.8 1504.64C1387.36 1505.61 1414.46 1506.01 1433.12 1518.68C1442.18 1524.83 1446.34 1532.96 1449.54 1541.05C1454.29 1553.05 1456 1566.3 1450.19 1576.87C1431 1611.85 1354.08 1607.56 1313.42 1607.22" fill="#00237C"/>
<path d="M1358.19 1484.32C1276.53 1483.15 1196.05 1488.62 1116.16 1495.34C1063.67 1499.76 1011.29 1504.77 958.921 1509.69C879.033 1517.18 802.199 1532.84 726.289 1550.79C643.906 1570.26 561.69 1592.09 477.711 1606.78C382.41 1623.44 284.791 1628.67 186.687 1585.43C108.708 1551.03 43.7587 1496.97 -14.1125 1439.27C-50.0758 1403.4 -83.5989 1365.88 -116.73 1328.18C-147.636 1293.02 -176.223 1254.79 -214.745 1225.21C-266.559 1185.44 -323.245 1179.07 -384.164 1173.57C-406.737 1171.53 -427.538 1161.78 -446.1 1149.56C-490.594 1120.28 -527.521 1080.03 -561.48 1040.61C-565.917 1035.47 -570.464 1030.11 -574.899 1024.46C-583.716 1013.21 -591.61 1001.5 -598.508 989.423C-599.043 988.57 -599.515 987.693 -599.986 986.816C-604.545 978.237 -610.196 968.153 -609.764 958.867C-609.507 953.381 -604.56 951.63 -599.271 950.552C-499.279 930.74 -391.457 915.066 -291.452 969.004C-232.001 1001.06 -192.901 1054.92 -151.343 1103.82C-103.715 1159.96 -55.6597 1216.18 -4.91927 1270.01C57.3398 1336.07 125.297 1402.67 206.229 1452.04C290.986 1503.73 377.309 1515.56 469.756 1510.54C588.173 1504.11 701.818 1476.87 816.212 1455.65C930.2 1434.51 1047.15 1424.45 1164.67 1415.15C1235.32 1409.56 1307.47 1404.31 1378.92 1408.22C1399.74 1409.36 1421.19 1411.71 1441.74 1419.39C1456.58 1424.91 1472.72 1432.66 1483.55 1443.78C1490.43 1450.88 1495.03 1463.49 1490.81 1471.37C1482.87 1486.19 1456.17 1486.01 1439 1486.42C1412.33 1487.04 1385.11 1485.45 1358.17 1484.29" fill="#CD142B"/>
<path d="M1394.59 1395.03C1319.47 1390.53 1245.59 1394.27 1172.38 1399.65C1121.77 1403.41 1071.16 1407.93 1020.65 1412.22C938.867 1419.17 859.429 1433.24 780.091 1447.5C693.443 1463.07 605.898 1477.97 516.818 1484.6C464.414 1488.49 410.3 1489.49 356.087 1481.93C300.73 1474.2 249.383 1450.36 202.324 1420.25C106.491 1358.92 27.1917 1276.69 -46.5535 1196.06C-86.0603 1152.86 -124.081 1108.72 -161.923 1064.49C-197.216 1023.25 -230.117 979.163 -276.985 946.755C-351.234 895.321 -440.123 883.657 -525.776 874.222C-554.831 871.029 -583.09 863.014 -610.449 852.339C-670.469 828.915 -724.349 800.385 -773.335 759.231C-779.599 754.143 -785.529 748.743 -791.086 743.067C-800.502 733.054 -809.471 722.137 -814.181 709.852C-814.462 709.135 -814.696 708.421 -814.915 707.732C-817.766 698.572 -815.402 693.087 -809.898 688.566C-806.359 685.656 -799.591 684.893 -792.231 684.695C-657.284 681.041 -508.237 671.064 -379.046 734.903C-312.357 767.859 -271.547 822.73 -226.839 876.574C-171.355 943.443 -115.701 1010.46 -57.6743 1075.57C16.575 1158.91 95.3514 1244.15 189.376 1311.96C234.279 1344.32 285.246 1371.64 340.131 1383.2C387.125 1393.09 435.641 1395.59 481.99 1395.68C601.334 1395.9 717.571 1378.96 833.584 1363.9C944.657 1349.47 1057.01 1341.67 1169.97 1334.63C1233.29 1330.69 1297.8 1326.59 1361.57 1331.02C1381.28 1332.38 1401.35 1335.37 1421.07 1341.13C1445.2 1348.19 1472.67 1356.16 1492.15 1370.5C1500.01 1376.29 1512.18 1385.54 1512.13 1394.53C1512.05 1415.22 1413.22 1396.62 1394.49 1395.05" fill="#979797"/>
</svg>
