<svg width="338" height="517" viewBox="0 0 338 517" fill="none" xmlns="http://www.w3.org/2000/svg">
<circle cx="216" cy="425" r="8" stroke="#00237C" stroke-opacity="0.54" stroke-width="2"/>
<circle cx="126.5" cy="368.5" r="11.5" stroke="#CD142B" stroke-opacity="0.53" stroke-width="2"/>
<path fill-rule="evenodd" clip-rule="evenodd" d="M146 469L162 453L178 469L162 485L146 469Z" fill="#CD142B" fill-opacity="0.53"/>
<path fill-rule="evenodd" clip-rule="evenodd" d="M18 482.5L52.5 448L87 482.5L52.5 517L18 482.5Z" fill="#00237C"/>
<path d="M338 218.512L327.306 229.404L338 238.316V248.219C338 264.656 324.732 277.926 308.293 277.926H29.707C13.2676 277.926 0 264.656 0 248.219V218.512L14.8535 208.212L0 198.707V69.9766C0 53.5371 13.2676 40.2695 29.707 40.2695H59.4141C59.4141 41.8529 69.515 51.3607 79.2188 60.4688V79.8789H289.876L315.423 99.6836L321.958 119.488L295.023 164.84L338 198.707V218.512Z" fill="#E63950"/>
<path d="M338 218.512L327.306 229.404L338 238.316V248.219C338 264.656 324.732 277.926 308.293 277.926H128.73V79.8789H289.876L315.423 99.6836L321.958 119.488L295.023 164.84L338 198.707V218.512Z" fill="#CC2E43"/>
<path d="M315.423 99.6836H69.3164C63.7695 99.6836 59.4141 95.3255 59.4141 89.7812V40.2695H288.488C292.648 40.2695 296.609 43.0417 297.795 47.0026L302.153 60.0742L290.469 70.3711L308.889 79.8789L315.423 99.6836Z" fill="#CC2E43"/>
<path d="M338 178.902V198.707H268.684C266.11 198.707 263.534 197.717 261.752 195.736L244.719 178.902H0V119.488H321.958L328.495 139.293L306.312 163.257L338 178.902Z" fill="#CC2E43"/>
<path d="M315.423 99.6836H128.73V40.2695H288.488C292.648 40.2695 296.609 43.0417 297.795 47.0026L302.153 60.0742L290.469 70.3711L308.889 79.8789L315.423 99.6836Z" fill="#AE2538"/>
<path d="M338 178.902V198.707H268.684C266.11 198.707 263.534 197.717 261.752 195.736L244.719 178.902H128.73V119.488H321.958L328.495 139.293L306.312 163.257L338 178.902Z" fill="#AE2538"/>
<path d="M338 218.512V238.316H308.293C302.746 238.316 298.391 233.958 298.391 228.414C298.391 222.867 302.746 218.512 308.293 218.512H338Z" fill="#C6E2E7"/>
<path d="M219.172 208.609C219.172 214.154 214.816 218.512 209.27 218.512H0V198.707H209.27C214.816 198.707 219.172 203.063 219.172 208.609Z" fill="#FFA78F"/>
<path d="M69.3164 238.316C52.877 238.316 39.6094 251.584 39.6094 268.023C39.6094 284.22 52.8383 297.73 69.3164 297.73C82.2797 297.73 93.5101 289.125 97.2415 277.926C98.4277 274.757 99.0234 271.587 99.0234 268.023C99.0234 251.326 85.2504 238.316 69.3164 238.316Z" fill="#4A696F"/>
<path d="M69.3164 277.926C63.7592 277.926 59.4141 273.263 59.4141 268.023C59.4141 262.559 63.8521 258.121 69.3164 258.121C74.7601 258.121 79.2188 262.85 79.2188 268.023C79.2188 273.227 74.6982 277.926 69.3164 277.926Z" fill="#DEECF1"/>
<path d="M128.73 238.316C112.887 238.316 99.0234 251.388 99.0234 268.023C99.0234 271.587 99.6191 274.757 100.805 277.926C104.57 289.215 115.857 297.73 128.73 297.73C145.17 297.73 158.438 284.264 158.438 268.023C158.438 251.584 145.17 238.316 128.73 238.316Z" fill="#4A696F"/>
<path d="M268.684 238.316C252.244 238.316 238.977 251.584 238.977 268.023C238.977 284.22 252.205 297.73 268.684 297.73C285.162 297.73 298.391 284.22 298.391 268.023C298.391 251.584 285.123 238.316 268.684 238.316Z" fill="#384949"/>
<path d="M268.684 277.926C263.126 277.926 258.781 273.263 258.781 268.023C258.781 262.559 263.219 258.121 268.684 258.121C274.148 258.121 278.586 262.559 278.586 268.023C278.586 273.042 274.292 277.926 268.684 277.926Z" fill="#C6E2E7"/>
<path d="M79.2188 60.0742H118.828V79.8789H79.2188V60.0742Z" fill="#A8EBFA"/>
<path d="M138.633 60.0742H178.902V79.8789H138.633V60.0742Z" fill="#76E2F8"/>
<path d="M198.707 60.0742H238.977V79.8789H198.707V60.0742Z" fill="#76E2F8"/>
<path d="M308.889 79.8789H258.781V60.0742H302.153L308.889 79.8789Z" fill="#76E2F8"/>
<path d="M19.8047 139.293H59.4141V159.098H19.8047V139.293Z" fill="#A8EBFA"/>
<path d="M79.2188 139.293H118.828V159.098H79.2188V139.293Z" fill="#A8EBFA"/>
<path d="M138.633 139.293H178.902V159.098H138.633V139.293Z" fill="#76E2F8"/>
<path d="M198.707 139.293H238.977V159.098H198.707V139.293Z" fill="#76E2F8"/>
<path d="M338 169V178.902H272.843L258.781 164.84V139.293H328.495L337.404 165.831C337.801 166.821 338 168.01 338 169Z" fill="#76E2F8"/>
<path d="M219.172 208.609C219.172 214.154 214.816 218.512 209.27 218.512H128.73V198.707H209.27C214.816 198.707 219.172 203.063 219.172 208.609Z" fill="#F89580"/>
<path d="M158.438 268.023C158.438 284.264 145.17 297.73 128.73 297.73V238.316C145.17 238.316 158.438 251.584 158.438 268.023Z" fill="#384949"/>
<path d="M138.633 268.024C138.633 272.957 134.553 277.926 128.73 277.926C123.705 277.926 118.828 273.715 118.828 268.024C118.828 255.287 138.633 254.568 138.633 268.024Z" fill="#DEECF1"/>
<path d="M138.633 268.023C138.633 272.957 134.553 277.926 128.73 277.926V258.121C134.277 258.121 138.633 262.477 138.633 268.023Z" fill="#C6E2E7"/>
</svg>
