<svg width="1440" height="1445" viewBox="0 0 1440 1445" fill="none" xmlns="http://www.w3.org/2000/svg">
<path d="M1538.93 500.267C1413.69 510.811 1364.44 560.019 1324.05 623.422C1274.63 700.848 1212.62 773.083 1122.22 831.198C1062.82 869.456 985.182 916.573 886.463 925.652C772.397 936.137 623.429 876.036 518.358 829.799C362.087 761.032 203.643 676.226 69.4372 589.004C16.7475 554.767 -13.2969 535.902 -75.609 542.696C-84.4354 543.615 -95.7736 545.273 -105.955 539.25C-113.787 534.623 -118.933 526.545 -123.998 518.926C-134.958 502.146 -147.954 485.488 -162.867 469.105C-176.455 454.321 -193.548 435.653 -189.668 421.171C-187.12 411.663 -176.634 407.303 -167.941 404.279C-152.805 398.998 -117.754 380.608 -92.5166 393.643C-71.1841 404.668 -53.1661 420.726 -33.7269 434.079C17.3461 469.23 72.9461 502.922 128.515 535.052C315.198 643.012 588.545 786.125 815.482 753.791C974.337 731.139 1090.8 676.166 1149.53 590.44C1188.85 533.013 1219.89 473.563 1298.15 434.327C1327.45 419.641 1363.78 411.028 1405.98 409.87C1449.05 408.712 1510.18 419.706 1549.73 443.363C1584.09 463.952 1575.3 495.99 1538.93 500.267Z" fill="#CD142B"/>
<path d="M1752.1 579.109C1780.66 587.069 1795.36 607.822 1782.01 618.696C1779.46 620.645 1776.01 622.091 1771.89 622.936C1700.45 636.721 1637.37 662.099 1598.56 697.821C1581.47 713.57 1566.52 730.572 1552.19 747.697C1525.11 780.037 1497.41 812.444 1471.51 845.254C1442.74 881.695 1414.94 918.943 1384.86 954.806C1371.65 970.501 1357.85 986.191 1343.71 1001.46C1299.59 1048.75 1248.83 1093.84 1186.67 1131.64C1140.83 1159.52 1089.58 1180.42 1004.63 1167.16C918.914 1153.77 829.779 1118.78 752.907 1086.68C540.168 997.809 338.746 885.029 140.162 780.442C104.852 761.851 64.7425 737.802 25.3014 729.435C-7.61526 722.454 -40.5631 723.226 -73.884 723.253C-80.8815 723.25 -88.5421 723.124 -95.6011 721.67C-100.789 720.725 -105.711 718.49 -108.955 715.607C-114.568 710.589 -116.045 702.661 -116.811 694.979C-118.058 682.603 -119.051 670.196 -119.96 657.856C-120.295 653.53 -120.605 649.265 -121.013 645.061C-122.533 629.196 -122.491 611.932 -110.231 599.781C-102.875 592.696 -92.0977 587.336 -78.76 584.13C-52.1987 577.103 -11.5055 563.539 27.0512 578.72C56.0192 590.128 82.1401 606.432 107.963 620.949C165.997 653.555 225.251 685.579 283.828 717.685C353.591 755.93 424.767 794.017 497.366 829.541C608.091 883.688 742.245 947.463 872.566 969.486C986.516 988.688 1073.35 954.678 1141.68 922.565C1231.79 880.225 1293.35 821.412 1342.79 757.328C1365.7 727.657 1384.99 695.968 1408.15 666.66C1428.25 641.217 1452.4 617.002 1484.27 597.954C1508.7 583.225 1539.97 572.819 1576.11 567.389C1625.51 559.881 1694.5 563.052 1752.1 579.109Z" fill="#979797"/>
<path d="M1975.53 692.068C1995.46 696.314 2030.49 706.695 2026.12 722.228C2025.44 724.039 2023.8 725.528 2021.4 726.528C1965.35 754.785 1893.77 771.516 1846.73 805.436C1825.06 821.066 1805.2 838.035 1786.41 855.169C1751.07 887.643 1716.56 921.511 1684.89 955.352C1649.4 993.263 1620.15 1034.91 1590.22 1075.65C1576.55 1094.21 1562.91 1112.83 1549 1131.28C1506.47 1187.57 1460.71 1243.18 1403.87 1292.8C1364.35 1327.3 1320.9 1371.02 1241.75 1379.37C1159.85 1388.04 1061.59 1354.91 979.556 1325.39C699.666 1224.65 451.009 1080.77 177.521 969.299C123.295 947.204 62.546 920.006 4.49867 912.552C-43.2099 906.437 -90.9033 908.601 -137.757 906.639C-146.755 906.262 -156.469 905.419 -165.081 903.373C-171.15 901.933 -176.506 899.667 -179.817 895.96C-184.328 890.925 -184.043 883.284 -182.103 875.889C-178.804 863.579 -174.2 851.52 -168.738 839.778C-166.839 835.674 -164.716 831.651 -162.706 827.741C-155.178 813.033 -145.326 797.985 -128.318 787.512C-117.408 781.107 -103.979 776.293 -88.6213 773.279C-46.4723 765.115 -0.764053 755.981 53.1465 771.913C91.1138 783.179 126.237 800.472 160.608 816.284C228.423 847.475 294.856 879.388 360.221 912.611C437.658 951.944 515.112 992.286 593.489 1030.64C717.925 1091.5 859.894 1160.67 1003.41 1196.15C1148.07 1231.92 1223.11 1185.06 1294.12 1138.55C1392.06 1074.39 1461.04 994.617 1523.66 913.045C1549.97 878.775 1577.4 844.772 1605.91 811.56C1628.5 785.243 1652.89 759.128 1684.06 737.637C1706.9 721.852 1735.44 709.363 1768.55 700.664C1824.65 685.91 1905.87 677.087 1975.53 692.068Z" fill="#00237C"/>
</svg>
