<svg width="415" height="415" viewBox="0 0 415 415" fill="none" xmlns="http://www.w3.org/2000/svg">
<path d="M288.832 136.04C249.19 136.04 220.395 111.419 220.395 71.7772C220.395 55.8694 225.578 41.1774 234.336 29.2786H108.816L54.3906 83.7052V402.728C54.3906 409.506 59.8845 415 66.6623 415H297.307C304.085 415 309.579 409.505 309.579 402.728V132.982C303.009 134.963 296.047 136.04 288.832 136.04Z" fill="#DFEBFA"/>
<path d="M81.6031 56.4919L54.3906 83.7052V402.728C54.3906 409.506 59.8845 415 66.6623 415H81.6039V56.4919H81.6031Z" fill="#B1DBFC"/>
<path d="M54.3906 83.7052H96.5455C103.323 83.7052 108.817 78.2113 108.817 71.4335V29.2786L54.3906 83.7052Z" fill="#DFEBFA"/>
<path d="M54.3906 83.7052H96.5455C103.323 83.7052 108.817 78.2113 108.817 71.4335V29.2786L54.3906 83.7052Z" fill="#B1DBFC"/>
<path d="M54.3906 83.7052H81.6031L108.816 56.4919V29.2786L54.3906 83.7052Z" fill="#8BCAFF"/>
<path d="M288.832 143.554C328.473 143.554 360.609 111.419 360.609 71.7772C360.609 32.1357 328.473 0 288.832 0C249.19 0 217.055 32.1357 217.055 71.7772C217.055 111.419 249.19 143.554 288.832 143.554Z" fill="#FF656F"/>
<path d="M250.852 71.7772C250.852 37.9587 274.247 9.62038 305.731 2.01988C300.309 0.71085 294.655 0 288.832 0C249.19 0 217.055 32.1357 217.055 71.7772C217.055 111.419 249.19 143.554 288.832 143.554C294.655 143.554 300.309 142.843 305.73 141.534C274.247 133.934 250.852 105.596 250.852 71.7772Z" fill="#FF4756"/>
<path d="M102.236 180.519L89.4583 167.741C84.8707 163.153 84.8707 155.715 89.4583 151.127C94.046 146.538 101.485 146.538 106.073 151.127L110.544 155.597L121.451 144.689C126.039 140.101 133.478 140.101 138.066 144.689C142.654 149.277 142.654 156.715 138.066 161.304L118.851 180.519C114.264 185.106 106.824 185.106 102.236 180.519Z" fill="#43CB8E"/>
<path d="M102.236 242.605L89.4583 229.827C84.8707 225.24 84.8707 217.801 89.4583 213.213C94.046 208.624 101.485 208.624 106.073 213.213L110.544 217.683L121.451 206.775C126.039 202.187 133.478 202.187 138.066 206.775C142.654 211.363 142.654 218.801 138.066 223.39L118.85 242.605C114.264 247.192 106.824 247.193 102.236 242.605Z" fill="#43CB8E"/>
<path d="M102.236 304.691L89.4583 291.914C84.8707 287.326 84.8707 279.887 89.4583 275.299C94.046 270.71 101.485 270.71 106.073 275.299L110.544 279.769L121.451 268.862C126.039 264.273 133.478 264.273 138.066 268.862C142.654 273.449 142.654 280.888 138.066 285.476L118.851 304.691C114.264 309.279 106.824 309.279 102.236 304.691Z" fill="#43CB8E"/>
<path d="M270.148 150.245H175.615C171.305 150.245 167.811 153.74 167.811 158.05V167.157C167.811 171.468 171.305 174.962 175.615 174.962H270.148C274.458 174.962 277.953 171.468 277.953 167.157V158.05C277.953 153.74 274.458 150.245 270.148 150.245Z" fill="#8479C2"/>
<path d="M270.148 212.332H175.615C171.305 212.332 167.811 215.826 167.811 220.137V229.244C167.811 233.554 171.305 237.049 175.615 237.049H270.148C274.458 237.049 277.953 233.554 277.953 229.244V220.137C277.953 215.826 274.458 212.332 270.148 212.332Z" fill="#8479C2"/>
<path d="M270.148 274.418H175.615C171.305 274.418 167.811 277.912 167.811 282.223V291.33C167.811 295.641 171.305 299.135 175.615 299.135H270.148C274.458 299.135 277.953 295.641 277.953 291.33V282.223C277.953 277.912 274.458 274.418 270.148 274.418Z" fill="#8479C2"/>
<path d="M102.236 366.777L89.4583 354C84.8707 349.412 84.8707 341.974 89.4583 337.385C94.046 332.797 101.485 332.797 106.073 337.385L110.544 341.855L121.451 330.948C126.039 326.359 133.478 326.359 138.066 330.948C142.654 335.536 142.654 342.974 138.066 347.563L118.851 366.777C114.264 371.366 106.824 371.366 102.236 366.777Z" fill="#43CB8E"/>
<path d="M270.148 336.504H175.615C171.305 336.504 167.811 339.998 167.811 344.309V353.416C167.811 357.727 171.305 361.221 175.615 361.221H270.148C274.458 361.221 277.953 357.727 277.953 353.416V344.309C277.953 339.998 274.458 336.504 270.148 336.504Z" fill="#8479C2"/>
<path d="M211.109 167.157V158.049C211.109 153.739 214.603 150.245 218.914 150.245H175.615C171.305 150.245 167.811 153.739 167.811 158.049V167.157C167.811 171.467 171.305 174.961 175.615 174.961H218.914C214.603 174.961 211.109 171.467 211.109 167.157Z" fill="#6E60B8"/>
<path d="M211.109 229.243V220.137C211.109 215.826 214.603 212.332 218.914 212.332H175.615C171.305 212.332 167.811 215.826 167.811 220.137V229.244C167.811 233.554 171.305 237.049 175.615 237.049H218.914C214.603 237.048 211.109 233.554 211.109 229.243Z" fill="#6E60B8"/>
<path d="M211.109 291.33V282.223C211.109 277.912 214.603 274.418 218.914 274.418H175.615C171.305 274.418 167.811 277.912 167.811 282.223V291.33C167.811 295.641 171.305 299.135 175.615 299.135H218.914C214.603 299.134 211.109 295.641 211.109 291.33Z" fill="#6E60B8"/>
<path d="M211.109 353.416V344.309C211.109 339.998 214.603 336.504 218.914 336.504H175.615C171.305 336.504 167.811 339.998 167.811 344.309V353.416C167.811 357.727 171.305 361.221 175.615 361.221H218.914C214.603 361.221 211.109 357.727 211.109 353.416Z" fill="#6E60B8"/>
<path d="M289.119 44.6717C288.065 42.6113 285.927 41.2633 283.545 41.2593C281.138 41.2593 278.995 42.6469 277.962 44.6717L247.525 104.335C245.954 107.416 247.177 111.188 250.258 112.76C253.339 114.331 257.11 113.109 258.682 110.027L268.078 91.6072H299.001L308.397 110.027C309.97 113.111 313.744 114.329 316.822 112.76C319.903 111.188 321.126 107.417 319.555 104.335L289.119 44.6717ZM274.469 79.0826L283.54 61.3L292.612 79.0826H274.469Z" fill="#DFEBFA"/>
<path d="M324.559 32.0839H318.828V26.3534C318.828 22.8947 316.024 20.0911 312.566 20.0911C309.107 20.0911 306.303 22.8947 306.303 26.3534V32.0839H300.573C297.114 32.0839 294.311 34.8876 294.311 38.3462C294.311 41.8048 297.114 44.6085 300.573 44.6085H306.303V50.3391C306.303 53.7977 309.107 56.6013 312.566 56.6013C316.024 56.6013 318.828 53.7977 318.828 50.3391V44.6085H324.559C328.017 44.6085 330.821 41.8048 330.821 38.3462C330.821 34.8876 328.018 32.0839 324.559 32.0839Z" fill="#DFEBFA"/>
</svg>
