<svg width="228" height="228" viewBox="0 0 228 228" fill="none" xmlns="http://www.w3.org/2000/svg">
<circle cx="114" cy="114" r="114" fill="#00237C"/>
<circle cx="114.5" cy="113.5" r="97" stroke="white" stroke-width="5" stroke-dasharray="15 15"/>
<g clip-path="url(#clip0)">
<path d="M105.118 60.0415C99.3115 58.4856 93.3432 61.9314 91.7874 67.738L84.8726 93.5441C84.4483 95.1276 85.3882 96.7554 86.9717 97.1797L96.5295 99.7408L95.3771 104.042C94.3162 108.001 96.6656 112.07 100.625 113.131C104.584 114.192 108.653 111.842 109.714 107.883L110.866 103.582L123.291 106.912L130.444 95.5108L134.285 81.1741L133.792 67.7245L105.118 60.0415Z" fill="#FDD33A"/>
<path d="M162.465 75.4076L133.792 67.7246L130.462 80.1497L126.161 78.9973C122.202 77.9365 118.133 80.2859 117.072 84.2449C116.011 88.2039 118.361 92.2732 122.32 93.334L126.621 94.4865L123.292 106.912L134.692 114.064L149.029 117.906L162.479 117.412L170.162 88.7383C171.717 82.9318 168.272 76.9635 162.465 75.4076Z" fill="#FF9B21"/>
<path d="M59.3953 152.689L85.2014 159.604C86.785 160.028 88.4128 159.088 88.8371 157.505L91.3981 147.947L95.6991 149.099C99.6581 150.16 103.727 147.811 104.788 143.852C105.849 139.893 103.5 135.823 99.5406 134.763L95.2396 133.61L97.8006 124.052C98.2249 122.469 97.2851 120.841 95.7016 120.417L89.0111 118.624C87.4275 118.2 85.7997 119.139 85.3754 120.723L84.9913 122.157C83.9305 126.116 79.8612 128.465 75.9022 127.404C71.9431 126.343 69.5937 122.274 70.6546 118.315L71.0387 116.881C71.463 115.298 70.5232 113.67 68.9397 113.246L62.2492 111.453C60.6656 111.029 59.0378 111.969 58.6135 113.552L51.6988 139.358C50.1429 145.165 53.5887 151.133 59.3953 152.689Z" fill="#FD003A"/>
<path d="M136.87 105.94L135.717 110.241L123.292 106.912L120.731 116.469C120.307 118.053 121.247 119.681 122.83 120.105L124.264 120.489C128.223 121.55 130.572 125.619 129.511 129.578C128.451 133.537 124.381 135.887 120.422 134.826L118.989 134.442C117.405 134.017 115.777 134.957 115.353 136.541L113.56 143.231C113.136 144.815 114.076 146.443 115.659 146.867L141.465 153.782C147.272 155.337 153.24 151.892 154.796 146.085L162.479 117.412L150.054 114.082L151.206 109.781C152.267 105.822 149.918 101.753 145.959 100.692C142 99.6314 137.93 101.981 136.87 105.94Z" fill="#76E2F8"/>
</g>
<defs>
<clipPath id="clip0">
<rect width="101.325" height="101.325" fill="white" transform="translate(75.1064 52) rotate(15)"/>
</clipPath>
</defs>
</svg>
