<svg width="228" height="228" viewBox="0 0 228 228" fill="none" xmlns="http://www.w3.org/2000/svg">
<circle cx="114" cy="114" r="114" fill="white"/>
<g clip-path="url(#clip0)">
<path d="M188.121 115.324C188.121 156.014 155.136 189 114.446 189C73.7558 189 40.7695 156.014 40.7695 115.324C40.7695 74.6336 73.7558 41.6484 114.446 41.6484C155.136 41.6484 188.121 74.6336 188.121 115.324Z" fill="#CD142B"/>
<path d="M115.249 94.8506H78.1073C61.1574 94.8506 47.417 108.591 47.417 125.541C47.417 137.802 54.608 148.384 65.0017 153.299C69.1755 155.274 71.8529 159.46 71.8529 164.078V170.662C71.8529 173.165 75.0878 174.163 76.4967 172.095L83.7673 161.432C85.9861 158.178 89.6692 156.231 93.6068 156.231H115.249C132.199 156.231 145.939 142.491 145.939 125.541C145.938 108.591 132.198 94.8506 115.249 94.8506Z" fill="#F8FAFD"/>
<path d="M76.7295 153.299C66.3358 148.384 59.1447 137.802 59.1447 125.541C59.1447 108.591 72.8851 94.8506 89.8351 94.8506H78.1073C61.1574 94.8506 47.417 108.591 47.417 125.541C47.417 137.802 54.6069 148.384 65.0006 153.299C69.1755 155.274 71.8517 159.46 71.8517 164.078V170.662C71.8517 173.165 75.0867 174.163 76.4967 172.095L83.3871 161.988C82.7143 158.228 80.2616 154.97 76.7295 153.299Z" fill="#DDDDDD"/>
<path d="M81.5686 126.128C81.5686 129.257 79.0329 131.793 75.904 131.793C72.7751 131.793 70.2383 129.257 70.2383 126.128C70.2383 122.999 72.7751 120.462 75.904 120.462C79.0329 120.462 81.5686 122.999 81.5686 126.128Z" fill="#7956BA"/>
<path d="M102.343 126.128C102.343 129.257 99.8064 131.793 96.6774 131.793C93.5485 131.793 91.0117 129.257 91.0117 126.128C91.0117 122.999 93.5485 120.462 96.6774 120.462C99.8064 120.462 102.343 122.999 102.343 126.128Z" fill="#7956BA"/>
<path d="M123.118 126.128C123.118 129.257 120.581 131.793 117.452 131.793C114.323 131.793 111.786 129.257 111.786 126.128C111.786 122.999 114.323 120.462 117.452 120.462C120.581 120.462 123.118 122.999 123.118 126.128Z" fill="#7956BA"/>
<path d="M113.405 38H150.546C167.496 38 181.236 51.7404 181.236 68.6903C181.236 80.9515 174.046 91.5318 163.652 96.4487C159.477 98.4233 156.801 102.61 156.801 107.227V113.811C156.801 116.313 153.566 117.312 152.156 115.244L144.886 104.58C142.668 101.326 138.985 99.3806 135.046 99.3806H113.405C96.4552 99.3806 82.7148 85.6403 82.7148 68.6903C82.7148 51.7404 96.4552 38 113.405 38Z" fill="#00237C"/>
<path d="M147.677 95.4717H126.035C109.085 95.4717 95.3446 81.7302 95.3446 64.7814C95.3446 53.6078 101.317 43.8293 110.243 38.4619C94.779 40.0448 82.7148 53.1089 82.7148 68.9909C82.7148 85.9409 96.4552 99.6812 113.405 99.6812H135.047C138.985 99.6812 142.668 101.628 144.886 104.882L152.156 115.545C153.566 117.613 156.801 116.615 156.801 114.112V107.528C156.801 105.479 157.33 103.516 158.282 101.793L157.516 100.672C155.298 97.4175 151.615 95.4717 147.677 95.4717Z" fill="#1A47B8"/>
<path d="M158.415 69.2766C158.415 72.4055 155.879 74.9423 152.75 74.9423C149.621 74.9423 147.084 72.4055 147.084 69.2766C147.084 66.1476 149.621 63.6108 152.75 63.6108C155.879 63.6108 158.415 66.1476 158.415 69.2766Z" fill="#F8FAFD"/>
<path d="M137.641 69.2766C137.641 72.4055 135.105 74.9423 131.976 74.9423C128.847 74.9423 126.311 72.4055 126.311 69.2766C126.311 66.1476 128.847 63.6108 131.976 63.6108C135.105 63.6108 137.641 66.1476 137.641 69.2766Z" fill="#F8FAFD"/>
<path d="M116.868 69.2766C116.868 72.4055 114.331 74.9423 111.202 74.9423C108.073 74.9423 105.536 72.4055 105.536 69.2766C105.536 66.1476 108.073 63.6108 111.202 63.6108C114.331 63.6108 116.868 66.1476 116.868 69.2766Z" fill="#F8FAFD"/>
</g>
<circle cx="114.5" cy="113.5" r="97" stroke="#00237C" stroke-width="5" stroke-dasharray="15 15"/>
<defs>
<clipPath id="clip0">
<rect width="151" height="151" fill="white" transform="translate(39 38)"/>
</clipPath>
</defs>
</svg>
