<svg width="476" height="344" viewBox="0 0 476 344" fill="none" xmlns="http://www.w3.org/2000/svg">
<circle cx="143.5" cy="143.5" r="143.5" fill="#00237C"/>
<path d="M29.192 106H22.496L33.188 80.512H39.164L49.748 106H42.908L40.928 100.996H31.064L29.192 106ZM32.828 96.064H39.236L36.068 87.316L32.828 96.064ZM54.3746 106V80.512H60.4946V89.764C60.8306 89.764 61.1546 89.776 61.4666 89.8C61.8026 89.8 62.1266 89.812 62.4386 89.836L70.2506 80.512H76.9466L68.4146 91.276C69.4946 91.804 70.4906 92.488 71.4026 93.328C72.3146 94.144 73.1426 95.152 73.8866 96.352C74.6306 97.552 75.2786 98.956 75.8306 100.564C76.3826 102.148 76.8506 103.96 77.2346 106H70.5386C70.1786 104.056 69.7226 102.376 69.1706 100.96C68.6426 99.544 67.9826 98.392 67.1906 97.504C66.3986 96.592 65.4506 95.932 64.3466 95.524C63.2426 95.092 61.9586 94.9 60.4946 94.948V106H54.3746ZM82.5586 106V80.512H88.6786V100.816H98.3986V80.512H104.519V100.816H107.255V111.004H102.215V106H82.5586ZM113.309 106V80.512H130.445V85.732H119.249V90.52H129.833V95.452H119.249V100.744H131.093V106H113.309ZM153.788 106V95.344H143.852V106H137.696V80.512H143.852V90.16H153.788V80.512H159.944V106H153.788ZM178.616 85.768V106H172.46V85.768H165.26V80.512H185.816V85.768H178.616ZM218.758 106V95.344H208.822V106H202.666V80.512H208.822V90.16H218.758V80.512H224.914V106H218.758ZM236.243 106H229.547L240.239 80.512H246.215L256.799 106H249.959L247.979 100.996H238.115L236.243 106ZM239.879 96.064H246.287L243.119 87.316L239.879 96.064ZM47.228 129.512V155H41.108V134.696H31.748V155H25.628V129.512H47.228ZM74.3394 137.36C74.3394 138.848 74.0634 140.108 73.5114 141.14C72.9594 142.148 72.2154 142.964 71.2794 143.588C70.3434 144.212 69.2634 144.668 68.0394 144.956C66.8154 145.244 65.5434 145.388 64.2234 145.388H61.1634V155H55.0074V129.512H64.3674C65.7594 129.512 67.0554 129.656 68.2554 129.944C69.4794 130.208 70.5354 130.652 71.4234 131.276C72.3354 131.876 73.0434 132.68 73.5474 133.688C74.0754 134.672 74.3394 135.896 74.3394 137.36ZM68.1834 137.396C68.1834 136.796 68.0634 136.304 67.8234 135.92C67.5834 135.536 67.2594 135.236 66.8514 135.02C66.4434 134.804 65.9754 134.66 65.4474 134.588C64.9434 134.516 64.4154 134.48 63.8634 134.48H61.1634V140.492H63.7554C64.3314 140.492 64.8834 140.444 65.4114 140.348C65.9394 140.252 66.4074 140.084 66.8154 139.844C67.2474 139.604 67.5834 139.292 67.8234 138.908C68.0634 138.5 68.1834 137.996 68.1834 137.396ZM84.1187 155H77.4227L88.1147 129.512H94.0907L104.675 155H97.8347L95.8547 149.996H85.9907L84.1187 155ZM87.7547 145.064H94.1627L90.9947 136.316L87.7547 145.064ZM109.301 155V129.512H115.421V138.764C115.757 138.764 116.081 138.776 116.393 138.8C116.729 138.8 117.053 138.812 117.365 138.836L125.177 129.512H131.873L123.341 140.276C124.421 140.804 125.417 141.488 126.329 142.328C127.241 143.144 128.069 144.152 128.813 145.352C129.557 146.552 130.205 147.956 130.757 149.564C131.309 151.148 131.777 152.96 132.161 155H125.465C125.105 153.056 124.649 151.376 124.097 149.96C123.569 148.544 122.909 147.392 122.117 146.504C121.325 145.592 120.377 144.932 119.273 144.524C118.169 144.092 116.885 143.9 115.421 143.948V155H109.301ZM148.393 134.768V155H142.237V134.768H135.037V129.512H155.593V134.768H148.393ZM167.151 146.504L177.735 129.512H184.683V155H178.563V138.224H178.455L167.835 155H160.923V129.512H167.043V146.504H167.151ZM192.447 155V129.512H198.567V138.764C198.903 138.764 199.227 138.776 199.539 138.8C199.875 138.8 200.199 138.812 200.511 138.836L208.323 129.512H215.019L206.487 140.276C207.567 140.804 208.563 141.488 209.475 142.328C210.387 143.144 211.215 144.152 211.959 145.352C212.703 146.552 213.351 147.956 213.903 149.564C214.455 151.148 214.923 152.96 215.307 155H208.611C208.251 153.056 207.795 151.376 207.243 149.96C206.715 148.544 206.055 147.392 205.263 146.504C204.471 145.592 203.523 144.932 202.419 144.524C201.315 144.092 200.031 143.9 198.567 143.948V155H192.447ZM220.631 155V129.512H237.767V134.732H226.571V139.52H237.155V144.452H226.571V149.744H238.415V155H220.631ZM44.96 186.36C44.96 187.848 44.684 189.108 44.132 190.14C43.58 191.148 42.836 191.964 41.9 192.588C40.964 193.212 39.884 193.668 38.66 193.956C37.436 194.244 36.164 194.388 34.844 194.388H31.784V204H25.628V178.512H34.988C36.38 178.512 37.676 178.656 38.876 178.944C40.1 179.208 41.156 179.652 42.044 180.276C42.956 180.876 43.664 181.68 44.168 182.688C44.696 183.672 44.96 184.896 44.96 186.36ZM38.804 186.396C38.804 185.796 38.684 185.304 38.444 184.92C38.204 184.536 37.88 184.236 37.472 184.02C37.064 183.804 36.596 183.66 36.068 183.588C35.564 183.516 35.036 183.48 34.484 183.48H31.784V189.492H34.376C34.952 189.492 35.504 189.444 36.032 189.348C36.56 189.252 37.028 189.084 37.436 188.844C37.868 188.604 38.204 188.292 38.444 187.908C38.684 187.5 38.804 186.996 38.804 186.396ZM51.1753 204V178.512H68.3113V183.732H57.1153V188.52H67.6993V193.452H57.1153V198.744H68.9593V204H51.1753ZM88.4145 178.512H94.4985V204H88.4505V194.532H83.8425C80.5305 194.532 78.1185 193.656 76.6065 191.904C75.1185 190.128 74.3745 187.644 74.3745 184.452V178.512H80.4945V183.156C80.4945 184.236 80.5425 185.172 80.6385 185.964C80.7585 186.732 80.9625 187.368 81.2505 187.872C81.5625 188.376 81.9945 188.748 82.5465 188.988C83.1225 189.228 83.8665 189.348 84.7785 189.348H88.4145V178.512ZM108.498 195.504L119.082 178.512H126.03V204H119.91V187.224H119.802L109.182 204H102.27V178.512H108.39V195.504H108.498Z" fill="white"/>
<circle cx="343" cy="230" r="114" fill="white"/>
<g clip-path="url(#clip0)">
<path d="M417.121 231.324C417.121 272.014 384.136 305 343.446 305C302.756 305 269.77 272.014 269.77 231.324C269.77 190.634 302.756 157.648 343.446 157.648C384.136 157.648 417.121 190.634 417.121 231.324Z" fill="#CD142B"/>
<path d="M344.249 210.851H307.107C290.157 210.851 276.417 224.591 276.417 241.541C276.417 253.802 283.608 264.384 294.002 269.299C298.176 271.274 300.853 275.46 300.853 280.078V286.662C300.853 289.165 304.088 290.163 305.497 288.095L312.767 277.432C314.986 274.178 318.669 272.231 322.607 272.231H344.249C361.199 272.231 374.939 258.491 374.939 241.541C374.938 224.591 361.198 210.851 344.249 210.851Z" fill="#F8FAFD"/>
<path d="M305.729 269.299C295.336 264.384 288.145 253.802 288.145 241.541C288.145 224.591 301.885 210.851 318.835 210.851H307.107C290.157 210.851 276.417 224.591 276.417 241.541C276.417 253.802 283.607 264.384 294.001 269.299C298.176 271.274 300.852 275.46 300.852 280.078V286.662C300.852 289.165 304.087 290.163 305.497 288.095L312.387 277.988C311.714 274.228 309.262 270.97 305.729 269.299Z" fill="#DDDDDD"/>
<path d="M310.569 242.128C310.569 245.257 308.033 247.793 304.904 247.793C301.775 247.793 299.238 245.257 299.238 242.128C299.238 238.999 301.775 236.462 304.904 236.462C308.033 236.462 310.569 238.999 310.569 242.128Z" fill="#7956BA"/>
<path d="M331.343 242.128C331.343 245.257 328.806 247.793 325.677 247.793C322.549 247.793 320.012 245.257 320.012 242.128C320.012 238.999 322.549 236.462 325.677 236.462C328.806 236.462 331.343 238.999 331.343 242.128Z" fill="#7956BA"/>
<path d="M352.118 242.128C352.118 245.257 349.581 247.793 346.452 247.793C343.323 247.793 340.786 245.257 340.786 242.128C340.786 238.999 343.323 236.462 346.452 236.462C349.581 236.462 352.118 238.999 352.118 242.128Z" fill="#7956BA"/>
<path d="M342.405 154H379.546C396.496 154 410.236 167.74 410.236 184.69C410.236 196.951 403.046 207.532 392.652 212.449C388.477 214.423 385.801 218.61 385.801 223.227V229.811C385.801 232.313 382.566 233.312 381.156 231.244L373.886 220.58C371.668 217.326 367.985 215.381 364.046 215.381H342.405C325.455 215.381 311.715 201.64 311.715 184.69C311.715 167.74 325.455 154 342.405 154Z" fill="#00237C"/>
<path d="M376.677 211.472H355.035C338.085 211.472 324.345 197.73 324.345 180.781C324.345 169.608 330.317 159.829 339.243 154.462C323.779 156.045 311.715 169.109 311.715 184.991C311.715 201.941 325.455 215.681 342.405 215.681H364.047C367.985 215.681 371.668 217.628 373.886 220.882L381.156 231.545C382.566 233.613 385.801 232.615 385.801 230.112V223.528C385.801 221.479 386.33 219.516 387.282 217.793L386.516 216.672C384.298 213.417 380.615 211.472 376.677 211.472Z" fill="#1A47B8"/>
<path d="M387.415 185.277C387.415 188.406 384.879 190.942 381.75 190.942C378.621 190.942 376.084 188.406 376.084 185.277C376.084 182.148 378.621 179.611 381.75 179.611C384.879 179.611 387.415 182.148 387.415 185.277Z" fill="#F8FAFD"/>
<path d="M366.641 185.277C366.641 188.406 364.105 190.942 360.976 190.942C357.847 190.942 355.311 188.406 355.311 185.277C355.311 182.148 357.847 179.611 360.976 179.611C364.105 179.611 366.641 182.148 366.641 185.277Z" fill="#F8FAFD"/>
<path d="M345.868 185.277C345.868 188.406 343.331 190.942 340.202 190.942C337.073 190.942 334.536 188.406 334.536 185.277C334.536 182.148 337.073 179.611 340.202 179.611C343.331 179.611 345.868 182.148 345.868 185.277Z" fill="#F8FAFD"/>
</g>
<circle cx="343.5" cy="229.5" r="97" stroke="#00237C" stroke-width="5" stroke-dasharray="15 15"/>
<path d="M473.313 63.6655C472.24 53.457 463.543 46.8314 453.782 47.8573C444.021 48.8833 435.811 58.4983 437.965 67.3808C440.118 76.2632 446.967 85.6704 457.496 83.189C468.024 80.7076 474.386 73.8739 473.313 63.6655Z" fill="#00237C"/>
<defs>
<clipPath id="clip0">
<rect width="151" height="151" fill="white" transform="translate(268 154)"/>
</clipPath>
</defs>
</svg>
