<svg width="398" height="538" viewBox="0 0 398 538" fill="none" xmlns="http://www.w3.org/2000/svg">
<circle cx="199" cy="276" r="199" fill="#CD142B"/>
<circle cx="200" cy="275" r="177" stroke="white" stroke-width="4" stroke-dasharray="15 15"/>
<circle cx="276.86" cy="29.8599" r="11.5" transform="rotate(-165 276.86 29.8599)" stroke="#CD142B" stroke-opacity="0.53" stroke-width="2"/>
<circle cx="293.186" cy="528.185" r="8.5" transform="rotate(-165 293.186 528.185)" stroke="#00237C" stroke-opacity="0.54" stroke-width="2"/>
<circle cx="350.027" cy="6.02676" r="4.92099" transform="rotate(-165 350.027 6.02676)" fill="#00237C"/>
<g clip-path="url(#clip0)">
<path d="M260.685 414.602L96.2675 370.547C91.4881 369.266 88.6521 364.354 89.9327 359.575L151.379 130.256C152.659 125.476 157.571 122.64 162.351 123.921L326.768 167.976C331.548 169.257 334.384 174.169 333.103 178.948L271.657 408.268C270.376 413.047 265.464 415.883 260.685 414.602Z" fill="#8CD2FF"/>
<path d="M257.806 268.349L250.801 209.628C250.324 205.638 247.509 202.387 243.628 201.348C239.747 200.308 235.683 201.714 233.272 204.931L197.848 252.284C196.365 254.267 196.771 257.072 198.751 258.556C200.74 260.029 203.54 259.629 205.023 257.653L211.876 248.491L247.553 258.05L248.907 269.412C249.133 271.284 250.481 272.75 252.199 273.21C252.733 273.353 253.304 273.397 253.888 273.33C256.344 273.035 258.098 270.808 257.806 268.349ZM217.656 240.765L240.446 210.299C240.537 210.179 240.777 209.858 241.31 210.001C241.842 210.143 241.889 210.541 241.906 210.691L246.41 248.47L217.656 240.765ZM247.548 258.013L247.55 258.02C247.532 258.013 247.528 258.01 247.548 258.013Z" fill="#E15050"/>
<path d="M199.683 298.461C202.814 296.136 205.215 292.784 206.3 288.734C208.857 279.191 203.174 269.347 193.631 266.79L180.65 263.312C173.493 261.394 166.11 265.656 164.192 272.814L150.28 324.735C149.639 327.125 151.058 329.581 153.447 330.222L179.408 337.178C191.337 340.374 203.642 333.269 206.839 321.341C209.15 312.715 206.072 303.894 199.683 298.461ZM172.845 275.132C173.484 272.747 175.946 271.325 178.332 271.965L191.312 275.443C196.085 276.721 198.926 281.642 197.647 286.415C196.368 291.187 191.447 294.028 186.675 292.75L169.368 288.112L172.846 275.132L172.845 275.132ZM181.726 328.523L160.093 322.726L167.049 296.766L184.356 301.403L188.683 302.562C195.84 304.48 200.103 311.863 198.185 319.021C196.267 326.178 188.884 330.441 181.726 328.523Z" fill="#FFE6A1"/>
<path d="M244.32 354.57C241.996 353.948 239.708 353.09 237.483 351.996C224.72 345.723 216.806 331.972 217.789 317.78C218.547 306.875 224.002 297.039 232.751 290.795C241.506 284.547 252.48 282.558 262.859 285.339C269.024 286.991 274.637 290.255 279.089 294.774C281.239 296.951 282.065 300.206 281.245 303.268L279.858 308.444C279.218 310.833 276.761 312.252 274.372 311.611C271.982 310.971 270.564 308.514 271.204 306.125L272.591 300.949C269.373 297.678 265.167 295.233 260.541 293.993C252.755 291.907 244.526 293.399 237.958 298.086C231.392 302.771 227.298 310.174 226.727 318.399C225.993 328.999 231.904 339.271 241.436 343.956C248.223 347.283 255.78 347.745 262.709 345.234C265.042 344.394 267.603 345.596 268.448 347.921C269.289 350.248 268.085 352.815 265.76 353.66C258.802 356.178 251.393 356.466 244.32 354.57Z" fill="#00BEA9"/>
<path d="M276.743 209.292L289.212 204.287L297.511 214.858C299.791 217.762 304.406 216.817 305.362 213.252L318.115 165.657C318.755 163.268 317.337 160.811 314.947 160.171L288.986 153.215C286.597 152.574 284.14 153.993 283.5 156.382L270.747 203.976C269.792 207.542 273.317 210.668 276.743 209.292Z" fill="#FFC855"/>
<path d="M162.351 123.921C157.572 122.64 152.659 125.476 151.379 130.256L89.9327 359.575C88.6522 364.354 91.4886 369.266 96.2675 370.547L113.574 375.184L179.658 128.558L162.351 123.921Z" fill="#69BEFF"/>
<path d="M117.052 362.204C114.663 361.563 113.245 359.107 113.885 356.717L170.693 144.705C171.333 142.316 173.79 140.898 176.18 141.538C178.569 142.178 179.987 144.635 179.347 147.024L122.539 359.036C121.898 361.426 119.442 362.844 117.052 362.204Z" fill="#55AAF5"/>
<path d="M301.967 156.693L288.986 153.215C286.597 152.575 284.14 153.993 283.5 156.383L270.747 203.976C269.792 207.542 273.317 210.668 276.742 209.293L289.212 204.287L289.213 204.288L301.966 156.693L301.967 156.693Z" fill="#FFAA4B"/>
</g>
<circle cx="343" cy="87" r="24" fill="#00237C"/>
<circle cx="378.5" cy="454.5" r="11.5" stroke="#CD142B" stroke-opacity="0.53" stroke-width="2"/>
<defs>
<clipPath id="clip0">
<rect width="259.806" height="259.806" fill="white" transform="translate(120.242 108) rotate(15)"/>
</clipPath>
</defs>
</svg>
