<svg width="599" height="323" viewBox="0 0 599 323" fill="none" xmlns="http://www.w3.org/2000/svg">
<circle cx="281.5" cy="176.5" r="143.5" fill="#CD142B"/>
<path d="M169.856 130.504L180.44 113.512H187.388V139H181.268V122.224H181.16L170.54 139H163.628V113.512H169.748V130.504H169.856ZM211.208 113.512V118.876H201.344V139H195.152V113.512H211.208ZM236.762 121.36C236.762 122.848 236.486 124.108 235.934 125.14C235.382 126.148 234.638 126.964 233.702 127.588C232.766 128.212 231.686 128.668 230.462 128.956C229.238 129.244 227.966 129.388 226.646 129.388H223.586V139H217.43V113.512H226.79C228.182 113.512 229.478 113.656 230.678 113.944C231.902 114.208 232.958 114.652 233.846 115.276C234.758 115.876 235.466 116.68 235.97 117.688C236.498 118.672 236.762 119.896 236.762 121.36ZM230.606 121.396C230.606 120.796 230.486 120.304 230.246 119.92C230.006 119.536 229.682 119.236 229.274 119.02C228.866 118.804 228.398 118.66 227.87 118.588C227.366 118.516 226.838 118.48 226.286 118.48H223.586V124.492H226.178C226.754 124.492 227.306 124.444 227.834 124.348C228.362 124.252 228.83 124.084 229.238 123.844C229.67 123.604 230.006 123.292 230.246 122.908C230.486 122.5 230.606 121.996 230.606 121.396ZM269.545 126.148C269.545 128.164 269.197 130.012 268.501 131.692C267.805 133.348 266.833 134.776 265.585 135.976C264.361 137.152 262.897 138.064 261.193 138.712C259.489 139.36 257.641 139.684 255.649 139.684C253.657 139.684 251.809 139.36 250.105 138.712C248.425 138.064 246.961 137.152 245.713 135.976C244.489 134.776 243.529 133.348 242.833 131.692C242.137 130.012 241.789 128.164 241.789 126.148C241.789 124.108 242.137 122.272 242.833 120.64C243.529 118.984 244.489 117.58 245.713 116.428C246.961 115.276 248.425 114.388 250.105 113.764C251.809 113.14 253.657 112.828 255.649 112.828C257.641 112.828 259.489 113.14 261.193 113.764C262.897 114.388 264.361 115.276 265.585 116.428C266.833 117.58 267.805 118.984 268.501 120.64C269.197 122.272 269.545 124.108 269.545 126.148ZM262.957 126.148C262.957 125.044 262.777 124.012 262.417 123.052C262.057 122.092 261.553 121.276 260.905 120.604C260.281 119.908 259.513 119.368 258.601 118.984C257.713 118.576 256.729 118.372 255.649 118.372C254.569 118.372 253.585 118.576 252.697 118.984C251.809 119.368 251.041 119.908 250.393 120.604C249.745 121.276 249.241 122.092 248.881 123.052C248.545 124.012 248.377 125.044 248.377 126.148C248.377 127.3 248.557 128.368 248.917 129.352C249.277 130.312 249.769 131.14 250.393 131.836C251.041 132.532 251.809 133.084 252.697 133.492C253.585 133.876 254.569 134.068 255.649 134.068C256.729 134.068 257.713 133.876 258.601 133.492C259.489 133.084 260.257 132.532 260.905 131.836C261.553 131.14 262.057 130.312 262.417 129.352C262.777 128.368 262.957 127.3 262.957 126.148ZM295.99 131.584C295.99 132.976 295.714 134.152 295.162 135.112C294.61 136.048 293.878 136.804 292.966 137.38C292.054 137.956 291.01 138.376 289.834 138.64C288.682 138.88 287.494 139 286.27 139H276.118V113.512H286.27C287.254 113.512 288.262 113.62 289.294 113.836C290.326 114.028 291.262 114.376 292.102 114.88C292.942 115.36 293.626 116.02 294.154 116.86C294.682 117.7 294.946 118.768 294.946 120.064C294.946 121.48 294.562 122.656 293.794 123.592C293.026 124.504 292.018 125.164 290.77 125.572V125.644C291.49 125.764 292.162 125.992 292.786 126.328C293.434 126.64 293.986 127.048 294.442 127.552C294.922 128.056 295.294 128.644 295.558 129.316C295.846 129.988 295.99 130.744 295.99 131.584ZM289.006 120.892C289.006 120.028 288.67 119.404 287.998 119.02C287.35 118.612 286.378 118.408 285.082 118.408H282.058V123.664H285.37C286.522 123.664 287.41 123.436 288.034 122.98C288.682 122.5 289.006 121.804 289.006 120.892ZM289.834 131.008C289.834 129.952 289.438 129.22 288.646 128.812C287.854 128.404 286.798 128.2 285.478 128.2H282.058V134.032H285.514C285.994 134.032 286.486 133.996 286.99 133.924C287.518 133.828 287.986 133.672 288.394 133.456C288.826 133.24 289.174 132.94 289.438 132.556C289.702 132.148 289.834 131.632 289.834 131.008ZM306.144 139H299.448L310.14 113.512H316.116L326.7 139H319.86L317.88 133.996H308.016L306.144 139ZM309.78 129.064H316.188L313.02 120.316L309.78 129.064ZM335.898 127.444C334.17 127.156 332.778 126.508 331.722 125.5C330.666 124.468 330.138 123.1 330.138 121.396C330.138 118.9 331.098 116.968 333.018 115.6C334.962 114.208 337.83 113.512 341.622 113.512H350.946V139H344.826V129.748H342.63C340.83 129.748 339.306 130.54 338.058 132.124C336.81 133.708 335.982 136 335.574 139H328.878C328.974 137.488 329.238 136.12 329.67 134.896C330.102 133.672 330.63 132.592 331.254 131.656C331.878 130.72 332.586 129.916 333.378 129.244C334.194 128.548 335.034 127.972 335.898 127.516V127.444ZM344.826 118.696H342.162C340.242 118.696 338.85 118.948 337.986 119.452C337.146 119.956 336.726 120.712 336.726 121.72C336.726 122.104 336.81 122.476 336.978 122.836C337.17 123.172 337.47 123.472 337.878 123.736C338.31 123.976 338.874 124.18 339.57 124.348C340.29 124.492 341.178 124.564 342.234 124.564H344.826V118.696ZM181.016 162.44C182.864 162.704 184.568 163.196 186.128 163.916C187.688 164.612 189.032 165.524 190.16 166.652C191.288 167.756 192.164 169.04 192.788 170.504C193.436 171.944 193.76 173.528 193.76 175.256C193.76 176.984 193.436 178.58 192.788 180.044C192.164 181.508 191.288 182.804 190.16 183.932C189.032 185.036 187.688 185.96 186.128 186.704C184.568 187.424 182.864 187.904 181.016 188.144V190.556H175.256V188.144C173.384 187.904 171.668 187.424 170.108 186.704C168.548 185.984 167.192 185.072 166.04 183.968C164.912 182.84 164.024 181.544 163.376 180.08C162.752 178.592 162.44 176.984 162.44 175.256C162.44 173.528 162.752 171.932 163.376 170.468C164.024 169.004 164.912 167.72 166.04 166.616C167.192 165.512 168.548 164.6 170.108 163.88C171.668 163.16 173.384 162.68 175.256 162.44V160.208H181.016V162.44ZM169.028 175.256C169.028 177.032 169.544 178.58 170.576 179.9C171.608 181.196 173.168 182.06 175.256 182.492V168.056C174.2 168.272 173.288 168.608 172.52 169.064C171.752 169.496 171.104 170.024 170.576 170.648C170.048 171.272 169.652 171.98 169.388 172.772C169.148 173.54 169.028 174.368 169.028 175.256ZM187.172 175.256C187.172 173.504 186.656 171.98 185.624 170.684C184.616 169.388 183.08 168.512 181.016 168.056V182.456C183.08 182.024 184.616 181.16 185.624 179.864C186.656 178.544 187.172 177.008 187.172 175.256ZM226.923 175.148C226.923 177.164 226.575 179.012 225.879 180.692C225.183 182.348 224.211 183.776 222.963 184.976C221.739 186.152 220.275 187.064 218.571 187.712C216.867 188.36 215.019 188.684 213.027 188.684C211.035 188.684 209.187 188.36 207.483 187.712C205.803 187.064 204.339 186.152 203.091 184.976C201.867 183.776 200.907 182.348 200.211 180.692C199.515 179.012 199.167 177.164 199.167 175.148C199.167 173.108 199.515 171.272 200.211 169.64C200.907 167.984 201.867 166.58 203.091 165.428C204.339 164.276 205.803 163.388 207.483 162.764C209.187 162.14 211.035 161.828 213.027 161.828C215.019 161.828 216.867 162.14 218.571 162.764C220.275 163.388 221.739 164.276 222.963 165.428C224.211 166.58 225.183 167.984 225.879 169.64C226.575 171.272 226.923 173.108 226.923 175.148ZM220.335 175.148C220.335 174.044 220.155 173.012 219.795 172.052C219.435 171.092 218.931 170.276 218.283 169.604C217.659 168.908 216.891 168.368 215.979 167.984C215.091 167.576 214.107 167.372 213.027 167.372C211.947 167.372 210.963 167.576 210.075 167.984C209.187 168.368 208.419 168.908 207.771 169.604C207.123 170.276 206.619 171.092 206.259 172.052C205.923 173.012 205.755 174.044 205.755 175.148C205.755 176.3 205.935 177.368 206.295 178.352C206.655 179.312 207.147 180.14 207.771 180.836C208.419 181.532 209.187 182.084 210.075 182.492C210.963 182.876 211.947 183.068 213.027 183.068C214.107 183.068 215.091 182.876 215.979 182.492C216.867 182.084 217.635 181.532 218.283 180.836C218.931 180.14 219.435 179.312 219.795 178.352C220.155 177.368 220.335 176.3 220.335 175.148ZM252.828 170.36C252.828 171.848 252.552 173.108 252 174.14C251.448 175.148 250.704 175.964 249.768 176.588C248.832 177.212 247.752 177.668 246.528 177.956C245.304 178.244 244.032 178.388 242.712 178.388H239.652V188H233.496V162.512H242.856C244.248 162.512 245.544 162.656 246.744 162.944C247.968 163.208 249.024 163.652 249.912 164.276C250.824 164.876 251.532 165.68 252.036 166.688C252.564 167.672 252.828 168.896 252.828 170.36ZM246.672 170.396C246.672 169.796 246.552 169.304 246.312 168.92C246.072 168.536 245.748 168.236 245.34 168.02C244.932 167.804 244.464 167.66 243.936 167.588C243.432 167.516 242.904 167.48 242.352 167.48H239.652V173.492H242.244C242.82 173.492 243.372 173.444 243.9 173.348C244.428 173.252 244.896 173.084 245.304 172.844C245.736 172.604 246.072 172.292 246.312 171.908C246.552 171.5 246.672 170.996 246.672 170.396ZM282.155 188L282.299 169.964H282.191L275.567 188H271.247L264.803 169.964H264.695L264.839 188H259.043V162.512H267.791L273.587 178.856H273.731L279.275 162.512H288.167V188H282.155ZM299.51 188H292.814L303.506 162.512H309.482L320.066 188H313.226L311.246 182.996H301.382L299.51 188ZM303.146 178.064H309.554L306.386 169.316L303.146 178.064ZM190.196 224.148C190.196 226.164 189.848 228.012 189.152 229.692C188.456 231.348 187.484 232.776 186.236 233.976C185.012 235.152 183.548 236.064 181.844 236.712C180.14 237.36 178.292 237.684 176.3 237.684C174.308 237.684 172.46 237.36 170.756 236.712C169.076 236.064 167.612 235.152 166.364 233.976C165.14 232.776 164.18 231.348 163.484 229.692C162.788 228.012 162.44 226.164 162.44 224.148C162.44 222.108 162.788 220.272 163.484 218.64C164.18 216.984 165.14 215.58 166.364 214.428C167.612 213.276 169.076 212.388 170.756 211.764C172.46 211.14 174.308 210.828 176.3 210.828C178.292 210.828 180.14 211.14 181.844 211.764C183.548 212.388 185.012 213.276 186.236 214.428C187.484 215.58 188.456 216.984 189.152 218.64C189.848 220.272 190.196 222.108 190.196 224.148ZM183.608 224.148C183.608 223.044 183.428 222.012 183.068 221.052C182.708 220.092 182.204 219.276 181.556 218.604C180.932 217.908 180.164 217.368 179.252 216.984C178.364 216.576 177.38 216.372 176.3 216.372C175.22 216.372 174.236 216.576 173.348 216.984C172.46 217.368 171.692 217.908 171.044 218.604C170.396 219.276 169.892 220.092 169.532 221.052C169.196 222.012 169.028 223.044 169.028 224.148C169.028 225.3 169.208 226.368 169.568 227.352C169.928 228.312 170.42 229.14 171.044 229.836C171.692 230.532 172.46 231.084 173.348 231.492C174.236 231.876 175.22 232.068 176.3 232.068C177.38 232.068 178.364 231.876 179.252 231.492C180.14 231.084 180.908 230.532 181.556 229.836C182.204 229.14 182.708 228.312 183.068 227.352C183.428 226.368 183.608 225.3 183.608 224.148ZM196.769 237V211.512H214.985V216.696H202.889V220.836H206.381C207.773 220.836 209.069 220.98 210.269 221.268C211.493 221.556 212.549 222.024 213.437 222.672C214.349 223.296 215.057 224.112 215.561 225.12C216.089 226.128 216.353 227.364 216.353 228.828C216.353 230.316 216.077 231.576 215.525 232.608C214.973 233.64 214.229 234.48 213.293 235.128C212.357 235.776 211.277 236.256 210.053 236.568C208.829 236.856 207.557 237 206.237 237H196.769ZM205.769 231.816C206.345 231.816 206.897 231.768 207.425 231.672C207.953 231.552 208.421 231.372 208.829 231.132C209.237 230.892 209.561 230.592 209.801 230.232C210.041 229.848 210.161 229.392 210.161 228.864C210.161 228.312 210.041 227.856 209.801 227.496C209.561 227.112 209.237 226.812 208.829 226.596C208.445 226.38 207.989 226.236 207.461 226.164C206.957 226.068 206.429 226.02 205.877 226.02H202.889V231.816H205.769ZM227.581 211.512L232.909 224.184L238.021 211.512H244.609L235.933 231.456C235.549 232.344 235.105 233.172 234.601 233.94C234.121 234.708 233.533 235.368 232.837 235.92C232.165 236.472 231.361 236.904 230.425 237.216C229.489 237.552 228.385 237.72 227.113 237.72C225.985 237.72 225.049 237.624 224.305 237.432C223.585 237.264 222.985 237.06 222.505 236.82C222.049 236.556 221.677 236.28 221.389 235.992C221.125 235.704 220.885 235.452 220.669 235.236L224.485 230.952C224.797 231.288 225.193 231.648 225.673 232.032C226.153 232.392 226.705 232.572 227.329 232.572C227.809 232.572 228.241 232.488 228.625 232.32C229.009 232.128 229.369 231.816 229.705 231.384L220.741 211.512H227.581ZM262.263 211.512H268.347V237H262.299V227.532H257.691C254.379 227.532 251.967 226.656 250.455 224.904C248.967 223.128 248.223 220.644 248.223 217.452V211.512H254.343V216.156C254.343 217.236 254.391 218.172 254.487 218.964C254.607 219.732 254.811 220.368 255.099 220.872C255.411 221.376 255.843 221.748 256.395 221.988C256.971 222.228 257.715 222.348 258.627 222.348H262.263V211.512ZM276.118 237V211.512H293.254V216.732H282.058V221.52H292.642V226.452H282.058V231.744H293.902V237H276.118ZM316.597 237V226.344H306.661V237H300.505V211.512H306.661V221.16H316.597V211.512H322.753V237H316.597ZM336.746 228.504L347.33 211.512H354.278V237H348.158V220.224H348.05L337.43 237H330.518V211.512H336.638V228.504H336.746ZM366.613 225.444C364.885 225.156 363.493 224.508 362.437 223.5C361.381 222.468 360.853 221.1 360.853 219.396C360.853 216.9 361.813 214.968 363.733 213.6C365.677 212.208 368.545 211.512 372.337 211.512H381.661V237H375.541V227.748H373.345C371.545 227.748 370.021 228.54 368.773 230.124C367.525 231.708 366.697 234 366.289 237H359.593C359.689 235.488 359.953 234.12 360.385 232.896C360.817 231.672 361.345 230.592 361.969 229.656C362.593 228.72 363.301 227.916 364.093 227.244C364.909 226.548 365.749 225.972 366.613 225.516V225.444ZM375.541 216.696H372.877C370.957 216.696 369.565 216.948 368.701 217.452C367.861 217.956 367.441 218.712 367.441 219.72C367.441 220.104 367.525 220.476 367.693 220.836C367.885 221.172 368.185 221.472 368.593 221.736C369.025 221.976 369.589 222.18 370.285 222.348C371.005 222.492 371.893 222.564 372.949 222.564H375.541V216.696Z" fill="white"/>
<circle cx="485" cy="114" r="114" fill="#00237C"/>
<circle cx="485.5" cy="113.5" r="97" stroke="white" stroke-width="5" stroke-dasharray="15 15"/>
<g clip-path="url(#clip0)">
<path d="M476.118 60.0415C470.312 58.4856 464.343 61.9314 462.787 67.738L455.873 93.5441C455.448 95.1276 456.388 96.7554 457.972 97.1797L467.53 99.7408L466.377 104.042C465.316 108.001 467.666 112.07 471.625 113.131C475.584 114.192 479.653 111.842 480.714 107.883L481.866 103.582L494.291 106.912L501.444 95.5108L505.285 81.1741L504.792 67.7245L476.118 60.0415Z" fill="#FDD33A"/>
<path d="M533.465 75.4076L504.792 67.7246L501.462 80.1497L497.161 78.9973C493.202 77.9365 489.133 80.2859 488.072 84.2449C487.011 88.2039 489.361 92.2732 493.32 93.334L497.621 94.4865L494.292 106.912L505.692 114.064L520.029 117.906L533.479 117.412L541.162 88.7383C542.717 82.9318 539.272 76.9635 533.465 75.4076Z" fill="#FF9B21"/>
<path d="M430.395 152.689L456.201 159.604C457.785 160.028 459.413 159.088 459.837 157.505L462.398 147.947L466.699 149.099C470.658 150.16 474.727 147.811 475.788 143.852C476.849 139.893 474.5 135.823 470.541 134.763L466.24 133.61L468.801 124.052C469.225 122.469 468.285 120.841 466.702 120.417L460.011 118.624C458.428 118.2 456.8 119.139 456.375 120.723L455.991 122.157C454.93 126.116 450.861 128.465 446.902 127.404C442.943 126.343 440.594 122.274 441.655 118.315L442.039 116.881C442.463 115.298 441.523 113.67 439.94 113.246L433.249 111.453C431.666 111.029 430.038 111.969 429.614 113.552L422.699 139.358C421.143 145.165 424.589 151.133 430.395 152.689Z" fill="#FD003A"/>
<path d="M507.87 105.94L506.717 110.241L494.292 106.912L491.731 116.469C491.307 118.053 492.247 119.681 493.83 120.105L495.264 120.489C499.223 121.55 501.572 125.619 500.511 129.578C499.451 133.537 495.381 135.887 491.422 134.826L489.989 134.442C488.405 134.017 486.777 134.957 486.353 136.541L484.56 143.231C484.136 144.815 485.076 146.443 486.659 146.867L512.465 153.782C518.272 155.337 524.24 151.892 525.796 146.085L533.479 117.412L521.054 114.082L522.206 109.781C523.267 105.822 520.918 101.753 516.959 100.692C513 99.6314 508.93 101.981 507.87 105.94Z" fill="#76E2F8"/>
</g>
<path d="M9.73096 218.975C7.0276 211.33 9.7496 204.916 15.6406 202.712C22.6188 200.101 29.6694 202.507 31.8525 208.547C33.1019 212.004 32.9449 215.098 31.8386 217.782C30.712 220.515 28.499 223.057 25.2765 225.116C19.9613 228.513 12.213 225.994 9.73096 218.975Z" stroke="#00237C" stroke-opacity="0.52" stroke-width="7"/>
<path fill-rule="evenodd" clip-rule="evenodd" d="M104.901 321.009C94.9111 312.899 84.9553 304.759 76.0146 295.534C85.1087 287.133 94.1262 278.644 103.299 270.328C111.436 279.366 121.006 286.928 130.307 294.758C121.596 303.277 113.268 312.171 104.901 321.009Z" fill="#CD142B"/>
<defs>
<clipPath id="clip0">
<rect width="101.325" height="101.325" fill="white" transform="translate(446.106 52) rotate(15)"/>
</clipPath>
</defs>
</svg>
