<svg width="1440" height="553" viewBox="0 0 1440 553" fill="none" xmlns="http://www.w3.org/2000/svg">
<mask id="mask0" mask-type="alpha" maskUnits="userSpaceOnUse" x="0" y="0" width="1440" height="553">
<rect width="1440" height="553" fill="#C4C4C4"/>
</mask>
<g mask="url(#mask0)">
<path d="M1538.94 105.268C1413.69 115.812 1364.45 165.021 1324.05 228.423C1274.64 305.85 1212.63 378.085 1122.23 436.2C1062.83 474.457 985.188 521.574 886.468 530.654C772.403 541.138 623.435 481.038 518.363 434.8C362.093 366.033 203.649 281.227 69.443 194.006C16.7533 159.769 -13.291 140.903 -75.6031 147.697C-84.4295 148.616 -95.7678 150.274 -105.949 144.251C-113.781 139.624 -118.927 131.546 -123.992 123.928C-134.952 107.148 -147.948 90.4897 -162.861 74.1066C-176.449 59.3225 -193.542 40.6545 -189.662 26.1725C-187.114 16.6642 -176.629 12.3041 -167.935 9.28095C-152.799 3.99933 -117.749 -14.3903 -92.5108 -1.35569C-71.1782 9.66926 -53.1603 25.728 -33.721 39.0806C17.3519 74.2311 72.9519 107.924 128.52 140.054C315.204 248.013 588.551 391.126 815.488 358.793C974.343 336.14 1090.81 281.167 1149.53 195.442C1188.86 138.014 1219.9 78.5641 1298.15 39.328C1327.46 24.6426 1363.78 16.0291 1405.99 14.871C1449.06 13.7134 1510.19 24.7075 1549.74 48.3642C1584.09 68.9533 1575.3 100.991 1538.94 105.268Z" fill="#CD142B"/>
<path d="M1752.11 184.11C1780.67 192.07 1795.37 212.823 1782.02 223.697C1779.46 225.646 1776.01 227.092 1771.9 227.937C1700.45 241.723 1637.38 267.101 1598.56 302.822C1581.47 318.572 1566.52 335.574 1552.19 352.699C1525.11 385.039 1497.42 417.445 1471.52 450.255C1442.75 486.696 1414.94 523.944 1384.87 559.807C1371.66 575.502 1357.86 591.192 1343.72 606.463C1299.6 653.756 1248.84 698.845 1186.67 736.64C1140.83 764.523 1089.58 785.417 1004.63 772.157C918.92 758.769 829.785 723.785 752.913 691.681C540.174 602.81 338.752 490.03 140.168 385.444C104.858 366.852 64.7484 342.804 25.3072 334.436C-7.6094 327.455 -40.5573 328.228 -73.8781 328.254C-80.8757 328.251 -88.5363 328.126 -95.5953 326.672C-100.783 325.726 -105.705 323.491 -108.949 320.609C-114.562 315.591 -116.039 307.663 -116.805 299.981C-118.052 287.605 -119.045 275.198 -119.954 262.857C-120.289 258.531 -120.599 254.266 -121.007 250.062C-122.527 234.197 -122.485 216.934 -110.225 204.783C-102.869 197.698 -92.0918 192.338 -78.7541 189.131C-52.1928 182.104 -11.4997 168.541 27.057 183.722C56.0251 195.129 82.1459 211.433 107.968 225.95C166.003 258.556 225.257 290.581 283.834 322.687C353.597 360.931 424.773 399.019 497.372 434.542C608.097 488.689 742.251 552.464 872.572 574.487C986.522 593.69 1073.35 559.679 1141.69 527.566C1231.8 485.227 1293.35 426.414 1342.79 362.329C1365.7 332.659 1385 300.969 1408.16 271.661C1428.25 246.219 1452.4 222.004 1484.27 202.956C1508.71 188.226 1539.97 177.821 1576.12 172.39C1625.52 164.882 1694.51 168.053 1752.11 184.11Z" fill="#979797"/>
<path d="M1975.54 297.069C1995.47 301.316 2030.5 311.696 2026.13 327.23C2025.44 329.041 2023.81 330.529 2021.41 331.53C1965.35 359.787 1893.78 376.518 1846.73 410.437C1825.06 426.068 1805.21 443.037 1786.42 460.171C1751.07 492.645 1716.57 526.513 1684.9 560.353C1649.41 598.265 1620.15 639.913 1590.22 680.647C1576.56 699.21 1562.92 717.834 1549 736.284C1506.48 792.568 1460.72 848.179 1403.87 897.804C1364.36 932.299 1320.9 976.022 1241.75 984.373C1159.86 993.037 1061.6 959.909 979.561 930.396C699.672 829.656 451.015 685.776 177.527 574.3C123.301 552.206 62.5519 525.007 4.50453 517.554C-43.204 511.439 -90.8975 513.603 -137.752 511.641C-146.749 511.263 -156.463 510.42 -165.075 508.375C-171.144 506.935 -176.501 504.669 -179.811 500.961C-184.323 495.926 -184.038 488.285 -182.097 480.891C-178.799 468.58 -174.194 456.521 -168.732 444.779C-166.834 440.675 -164.711 436.653 -162.7 432.742C-155.172 418.034 -145.32 402.987 -128.312 392.513C-117.402 386.109 -103.974 381.294 -88.6155 378.281C-46.4665 370.117 -0.758194 360.982 53.1524 376.914C91.1196 388.18 126.242 405.473 160.614 421.286C228.429 452.476 294.862 484.389 360.227 517.612C437.664 556.945 515.117 597.288 593.494 635.637C717.931 696.505 859.9 765.668 1003.41 801.149C1148.08 836.917 1223.12 790.057 1294.13 743.55C1392.06 679.388 1461.04 599.619 1523.66 518.046C1549.98 483.776 1577.41 449.773 1605.92 416.561C1628.5 390.245 1652.9 364.129 1684.07 342.638C1706.9 326.853 1735.44 314.364 1768.55 305.666C1824.66 290.911 1905.88 282.088 1975.54 297.069Z" fill="#00237C"/>
</g>
</svg>
