<svg width="1440" height="746" viewBox="0 0 1440 746" fill="none" xmlns="http://www.w3.org/2000/svg">
<mask id="mask0" mask-type="alpha" maskUnits="userSpaceOnUse" x="0" y="0" width="1440" height="746">
<rect width="1440" height="746" fill="#C4C4C4"/>
</mask>
<g mask="url(#mask0)">
<path d="M1360.25 542.236C1210.8 546.676 1063.07 562.326 916.188 577.002C759.628 592.63 618.817 647.174 473.552 686.57C386.042 710.361 296.589 725.123 198.983 699.343C130.686 681.273 72.8597 650.255 21.5798 603.81C-49.8635 539.104 -101.112 458.436 -175.79 396.807C-193.074 382.543 -212.811 368.987 -235.405 363.836C-254.182 359.575 -273.228 361.464 -291.462 360.888C-307.697 360.373 -318.595 353.106 -327.302 341.906C-353.847 307.743 -359.764 252.918 -376.075 213.086C-379.517 204.671 -384.247 194.024 -384.176 185.42C-384.117 179.278 -379.556 177.687 -375.501 176.44C-344.009 166.765 -313.124 153.175 -278.903 148.729C-239.678 143.633 -203.327 154.803 -171.045 176.85C-115.739 214.67 -75.2652 275.434 -31.2126 325.691C12.306 375.277 56.9556 424.869 108.651 468.527C152.383 505.494 201.277 537.069 255.909 558.358C324.381 585.01 396.37 585.816 463.319 577.494C627.965 556.98 779.129 494.689 944.884 471.775C1027.36 460.37 1112.01 453.62 1195.84 446.835C1267.62 441.021 1340.68 436.193 1413.68 439.644C1434.24 440.611 1461.33 441.006 1480 453.676C1489.06 459.826 1493.21 467.963 1496.42 476.048C1501.16 488.054 1502.88 501.301 1497.07 511.867C1477.88 546.847 1400.96 542.557 1360.29 542.219" fill="#00237C"/>
<path d="M1405.06 419.32C1323.41 418.154 1242.93 423.616 1163.04 430.341C1110.55 434.763 1058.17 439.769 1005.8 444.686C925.91 452.175 849.076 467.841 773.166 485.789C690.782 505.264 608.567 527.091 524.588 541.777C429.287 558.442 331.668 563.666 233.564 520.431C155.585 486.029 90.6356 431.968 32.7644 374.269C-3.19883 338.398 -36.7219 300.88 -69.8529 263.178C-100.759 228.016 -129.346 189.79 -167.868 160.214C-219.682 120.435 -276.368 114.071 -337.287 108.565C-359.86 106.525 -380.661 96.7777 -399.223 84.5598C-443.717 55.2778 -480.644 15.0312 -514.603 -24.3851C-519.04 -29.5331 -523.588 -34.8928 -528.022 -40.5401C-536.839 -51.7894 -544.733 -63.5037 -551.631 -75.5772C-552.166 -76.4297 -552.638 -77.3071 -553.109 -78.1843C-557.668 -86.7626 -563.319 -96.8467 -562.887 -106.133C-562.63 -111.619 -557.683 -113.37 -552.394 -114.448C-452.402 -134.26 -344.58 -149.934 -244.576 -95.9965C-185.124 -63.9439 -146.024 -10.0785 -104.466 38.8245C-56.8381 94.9561 -8.78272 151.176 41.9577 205.007C104.217 271.065 172.174 337.668 253.106 387.04C337.863 438.733 424.186 450.555 516.633 445.537C635.05 439.11 748.695 411.866 863.089 390.651C977.077 369.508 1094.03 359.45 1211.55 350.149C1282.19 344.561 1354.34 339.313 1425.8 343.22C1446.62 344.36 1468.07 346.709 1488.61 354.393C1503.46 359.912 1519.6 367.662 1530.43 378.778C1537.31 385.882 1541.91 398.495 1537.68 406.371C1529.75 421.189 1503.05 421.005 1485.88 421.415C1459.2 422.039 1431.98 420.447 1405.05 419.294" fill="#CD142B"/>
<path d="M1441.47 330.028C1366.35 325.53 1292.47 329.272 1219.26 334.652C1168.64 338.411 1118.04 342.928 1067.53 347.217C985.744 354.167 906.306 368.236 826.968 382.5C740.32 398.066 652.775 412.973 563.695 419.597C511.291 423.489 457.177 424.494 402.964 416.935C347.607 409.205 296.26 385.359 249.201 355.251C153.368 293.919 74.0686 211.694 0.323409 131.064C-39.1834 87.8613 -77.2044 43.7219 -115.046 -0.50833C-150.339 -41.7548 -183.24 -85.8369 -230.108 -118.245C-304.357 -169.679 -393.246 -181.343 -478.899 -190.778C-507.954 -193.971 -536.214 -201.986 -563.572 -212.661C-623.592 -236.085 -677.472 -264.615 -726.458 -305.769C-732.722 -310.857 -738.652 -316.257 -744.209 -321.933C-753.625 -331.946 -762.594 -342.863 -767.304 -355.148C-767.586 -355.865 -767.819 -356.579 -768.038 -357.268C-770.889 -366.428 -768.525 -371.913 -763.021 -376.434C-759.482 -379.344 -752.714 -380.107 -745.354 -380.305C-610.407 -383.959 -461.36 -393.936 -332.169 -330.097C-265.48 -297.141 -224.67 -242.27 -179.962 -188.426C-124.478 -121.557 -68.8237 -54.5435 -10.7973 10.5747C63.4519 93.9126 142.228 179.148 236.253 246.957C281.156 279.323 332.123 306.642 387.008 318.2C434.002 328.086 482.518 330.589 528.867 330.681C648.211 330.902 764.448 313.956 880.461 298.899C991.534 284.466 1103.89 276.669 1216.85 269.63C1280.17 265.687 1344.68 261.586 1408.45 266.018C1428.16 267.381 1448.23 270.367 1467.95 276.133C1492.08 283.188 1519.55 291.161 1539.03 305.5C1546.89 311.294 1559.06 320.536 1559.01 329.529C1558.93 350.221 1460.1 331.621 1441.37 330.046" fill="#979797"/>
</g>
</svg>
