<svg width="1434" height="1733" viewBox="0 0 1434 1733" fill="none" xmlns="http://www.w3.org/2000/svg">
<mask id="mask0" mask-type="alpha" maskUnits="userSpaceOnUse" x="0" y="0" width="1434" height="1733">
<rect width="1434" height="1733" fill="#C4C4C4"/>
</mask>
<g mask="url(#mask0)">
<path d="M1243.66 1285.52C1225.47 1284.24 1192.82 1285.4 1193 1304.87C1193.17 1307.19 1194.24 1309.44 1196.08 1311.35C1237.94 1361.78 1295.87 1403.63 1328.64 1457.85C1343.73 1482.83 1356.95 1508.8 1369.21 1534.64C1392.21 1583.52 1414.17 1633.76 1433.68 1683.08C1455.55 1738.34 1471.18 1796.01 1487.6 1852.83C1495.1 1878.73 1502.56 1904.69 1510.31 1930.54C1534 2009.4 1560.65 2088.5 1598.25 2164.08C1624.38 2216.61 1651.79 2281.13 1718.19 2315.58C1786.9 2351.25 1879.4 2343.33 1957.05 2334.55C2222.01 2304.55 2469.98 2214.52 2731.9 2170.01C2783.83 2161.2 2842.57 2148.47 2894.41 2157.91C2937.01 2165.68 2977.69 2183.1 3018.6 2195.44C3026.45 2197.81 3035.04 2199.86 3042.95 2200.17C3048.52 2200.38 3053.67 2199.41 3057.38 2196.13C3062.44 2191.67 3063.96 2182.68 3064 2173.45C3064 2158.08 3062.81 2142.59 3060.82 2127.2C3060.13 2121.82 3059.22 2116.47 3058.39 2111.29C3055.3 2091.8 3050.27 2071.19 3038.01 2053.67C3030.07 2042.8 3019.59 2033 3007.03 2024.69C2972.53 2002.01 2935.17 1977.1 2884.94 1978.83C2849.56 1980.1 2815.23 1989.29 2781.9 1996.98C2716.13 2012.15 2651.39 2028.6 2587.27 2046.9C2511.31 2068.56 2435.11 2091.39 2358.57 2111.61C2237.05 2143.68 2098.48 2179.95 1966.36 2176.48C1833.18 2172.99 1779.23 2094.96 1728.68 2018.59C1658.97 1913.24 1617.87 1798.74 1582.68 1684.13C1567.89 1635.97 1552.07 1587.78 1535.14 1540.18C1521.73 1502.46 1506.7 1464.41 1484.76 1429.63C1468.7 1404.11 1446.95 1380.64 1420.38 1360.17C1375.35 1325.45 1307.26 1289.81 1243.66 1285.52Z" fill="#979797"/>
<path d="M-505.847 135.991C-458.13 181.884 -420.035 231.783 -388.129 283.909C-365.246 321.316 -346.11 360.629 -325.729 398.442C-291.462 461.959 -274.57 531.057 -254.647 598.241C-232.198 673.953 -207.905 750.758 -169.515 822.668C-148.171 862.616 -123.701 901.564 -83.3734 934.068C-39.4626 969.451 15.9838 993.554 77.2804 1010.1C203.445 1044.1 341.086 1055.11 474.146 1065.61C543.888 1071.14 613.76 1075.85 683.491 1081.46C742.227 1086.2 806.343 1087.97 862.294 1102.63C973.011 1131.61 1060.54 1202.47 1134.99 1265.14C1160.12 1286.31 1185.95 1307.12 1211.71 1327.81C1272.94 1376.93 1329.9 1443.2 1421.8 1464.51C1431.2 1466.7 1441.28 1468.61 1451.31 1468.69C1468.55 1468.8 1489.65 1463.55 1499.07 1452.14C1499.72 1451.38 1500.3 1450.6 1500.81 1449.79C1508.32 1437.55 1501 1424.29 1495.04 1412.53C1491.41 1405.36 1484.95 1398 1478.71 1391.86C1410.42 1324.66 1325.77 1263.21 1238.04 1208C1145.56 1149.72 1045.87 1094.77 938.228 1053.41C901.53 1039.33 862.717 1026.02 821.931 1018.49C783.953 1011.5 742.99 1010.36 704.002 1008.51C614.806 1004.28 525.152 1004.07 436.014 1001.73C323.7 998.847 205.77 995.375 98.7306 967.859C45.0579 954.063 -4.4444 931.739 -42.3406 900.811C-77.3824 872.203 -93.5229 834.253 -103.05 797.549C-125.322 711.886 -115.889 623.021 -122.562 535.961C-125.886 492.541 -132.535 448.9 -148.558 406.878C-163.289 368.234 -188.24 332.122 -213.332 296.722C-245.049 251.939 -280.537 207.392 -323.849 168.731C-338.42 155.853 -354.883 144.151 -372.952 133.831C-413.891 110.253 -458.248 87.5314 -507.715 74.269C-525.594 69.4756 -545.435 65.563 -563.737 64.064C-590.297 61.879 -566.322 83.9829 -560.424 89.3014C-542.804 105.198 -523.362 120.001 -505.847 135.965" fill="#979797"/>
<path d="M-349.988 111.15C-286.76 153.297 -230.405 199.856 -185.857 252.374C-156.605 286.859 -128.292 324.798 -113.372 363.347C-88.1378 428.54 -94.5757 500.507 -96.9253 568.969C-99.5215 644.457 -103.281 721.191 -85.9996 794.622C-76.6717 834.255 -56.1363 870.822 -13.8672 898.999C25.8174 925.474 73.8548 943.246 125.616 953.872C234.567 976.224 351.858 974.302 464.063 973.396C524.342 972.905 584.632 971.94 644.911 972.702C699.163 973.387 757.01 973.193 809.97 982.608C957.454 1008.85 1094.58 1077.59 1217.62 1138.67C1261.02 1160.22 1304.9 1181.64 1347.91 1203.52C1417.22 1238.77 1483.01 1277.9 1551.94 1313.8C1611.51 1344.84 1676.17 1372.72 1748.7 1383.45C1764.36 1385.77 1781.29 1387.77 1796.66 1386.56C1818.21 1384.87 1850.18 1379.19 1853.75 1359.57C1853.97 1358.45 1854.04 1357.31 1853.98 1356.18C1852.8 1336.82 1827.05 1319.31 1809.84 1306.51C1798.91 1298.5 1787.38 1290.93 1775.31 1283.83C1651.5 1209.78 1510.64 1147.25 1370.17 1089.09C1226.59 1029.74 1078.1 973.701 924.665 930.538C839.21 906.501 757.316 890.118 664.753 890.744C586.935 891.295 509.352 898.203 432.144 903.444C336.433 909.947 234.367 917.067 140.56 897.018C90.7248 886.367 44.2969 865.835 9.40552 837.946C-25.8383 809.837 -35.9064 771.136 -35.4835 735.254C-34.4849 649.978 7.20865 564.227 28.6956 478.968C38.8811 438.556 46.4585 397.154 42.241 356.015C38.141 316.052 18.1812 281.805 -6.64221 246.795C-40.3941 199.144 -80.3371 152.688 -128.492 112.657C-144.748 99.1841 -163.003 87.0353 -182.932 76.4285C-235.798 48.2176 -296.617 23.2155 -364.273 19.2023C-385.643 17.9323 -410.678 18.6181 -430.191 25.4422C-485.43 44.7547 -369.783 98.5181 -349.988 111.15Z" fill="#00237C"/>
<path d="M-192.789 26.1865C-119.45 71.7734 -51.0462 121.484 0.659119 179.822C31.8468 215.02 63.4341 255.365 72.1417 296.228C87.0892 366.327 55.5843 442.285 31.3885 512.045C5.28909 587.276 -33.7366 669.533 -22.667 745.399C-17.2144 782.933 3.18567 813.271 46.0893 837.749C83.9113 859.222 128.672 873.435 176.187 879.06C267.846 890.135 363.231 877.104 453.786 866.359C548.771 855.132 647.164 841.483 743.747 849.256C812.221 854.76 879.497 874.242 943.212 892.125C1039.24 919.084 1133.09 950.226 1225.55 982.723C1284.58 1003.46 1343.75 1024.54 1402.04 1046.37C1517.92 1089.76 1631 1137.43 1745.68 1182.74C1830.37 1216.21 1920.24 1252.64 2015.23 1267.06C2028.41 1269.06 2043.01 1270.52 2056.19 1268.6C2084.07 1264.52 2072.89 1238.56 2064.81 1227.79C2063.59 1226.25 2062.26 1224.75 2060.81 1223.32C2036.45 1198.35 1999.02 1179.29 1964.54 1162.55C1948.47 1154.72 1931.57 1147.14 1914.87 1139.78C1756.23 1069.86 1589.2 1007.97 1420.87 949.997C1265.32 896.418 1106.71 844.438 943.776 804.507C863.057 784.728 787.285 769.47 701.384 774.127C631.147 777.938 562.003 789.292 493.187 799.122C407.075 811.425 314.792 824.676 227.34 810.494C180.218 802.873 134.787 784.965 100.838 760.131C63.1168 732.545 53.1518 695.053 55.3728 658.831C60.6138 573.643 113.435 488.202 149.629 404.683C167.561 363.338 172.5 340.954 176 296.228C176 254.406 165.743 208.111 149.629 179.822C122.5 132.194 89.5069 84.504 40.5075 46.7616C23.2898 33.6611 4.91992 21.3725 -14.4882 9.97202C-76.4758 -26.7159 -149.733 -59.0094 -228.713 -73.0817C-248.631 -76.621 -275.365 -79.7792 -294.519 -73.0394C-353.957 -52.1257 -212.484 14.3072 -192.777 26.1865" fill="#CD142B"/>
</g>
</svg>
