<svg width="1440" height="242" viewBox="0 0 1440 242" fill="none" xmlns="http://www.w3.org/2000/svg">
<mask id="mask0" mask-type="alpha" maskUnits="userSpaceOnUse" x="0" y="0" width="1440" height="242">
<rect width="1440" height="242" fill="#C4C4C4"/>
</mask>
<g mask="url(#mask0)">
<path d="M1245.86 372.639C1227.99 376.222 1196.73 385.694 1201.51 402.828C1202.23 404.834 1203.79 406.539 1206.02 407.753C1258.38 441.429 1324.23 463.368 1368.7 502.737C1389.19 520.877 1408.1 540.381 1426.05 560.008C1459.83 597.193 1492.92 635.851 1523.43 674.332C1557.62 717.443 1586.35 764.296 1615.65 810.189C1629.02 831.104 1642.37 852.084 1655.97 872.89C1697.5 936.362 1741.94 999.272 1796.13 1056.24C1833.8 1095.85 1875.53 1145.7 1947.82 1158.91C2022.62 1172.61 2110.09 1141.68 2183.02 1113.83C2431.86 1018.78 2650.09 875.145 2892.56 768.074C2940.63 746.854 2994.36 720.419 3046.67 715.332C3089.66 711.163 3133.07 716.004 3175.5 716.311C3183.65 716.369 3192.43 715.958 3200.14 714.181C3205.57 712.929 3210.32 710.742 3213.13 706.88C3216.96 701.635 3216.3 693.304 3214.16 685.155C3210.52 671.585 3205.71 658.221 3200.14 645.157C3198.21 640.591 3196.07 636.102 3194.04 631.742C3186.44 615.342 3176.71 598.452 3160.73 586.166C3150.49 578.627 3138.05 572.687 3123.95 568.607C3085.26 557.525 3043.29 545.201 2995.18 559.731C2961.3 570.014 2930.31 587.004 2899.94 602.422C2840 632.834 2781.35 664.104 2723.75 696.856C2655.5 735.628 2587.29 775.498 2518.14 813.151C2408.34 872.911 2283.07 940.785 2154.64 971.921C2025.17 1003.31 1954.61 948.399 1887.72 894.082C1795.47 819.147 1728.69 728.734 1667.6 636.691C1641.92 598.022 1615.25 559.585 1587.63 521.953C1565.76 492.134 1542.25 462.44 1512.83 437.425C1491.28 419.055 1464.73 403.976 1434.21 392.783C1382.51 373.801 1308.32 359.965 1245.86 372.639Z" fill="#979797"/>
<path d="M-715.869 -189.079C-658.926 -160.926 -610.328 -126.747 -567.183 -89.0003C-536.233 -61.9089 -508.452 -32.1659 -479.823 -4.06816C-431.704 43.1204 -399.047 99.7313 -363.915 153.869C-324.326 214.879 -282.698 276.376 -228.612 329.904C-198.547 359.636 -165.701 387.678 -119.061 405.926C-68.2791 425.789 -9.0221 432.71 54.0992 431.451C184.003 428.799 319.558 402.891 450.567 377.721C519.241 364.551 587.846 350.622 656.529 337.53C714.383 326.506 776.732 311.474 834.246 309.938C948.044 306.86 1049.34 346.736 1136.08 382.776C1165.36 394.959 1195.23 406.637 1225.01 418.229C1295.76 445.734 1366.46 489.485 1460.26 484.506C1469.86 484.002 1480.05 483.082 1489.75 480.555C1506.44 476.194 1525.57 466.092 1531.98 453.586C1532.42 452.752 1532.8 451.91 1533.1 451.066C1537.46 438.315 1527.25 428.512 1518.72 419.671C1513.52 414.288 1505.53 409.457 1498.06 405.66C1416.2 364.028 1319.9 331.704 1222.1 305.677C1119 278.18 1009.7 255.483 895.953 246.845C857.174 243.913 816.536 242.209 775.361 246.128C737.023 249.784 697.188 259.384 659.089 267.838C571.931 287.186 485.284 310.211 398.631 331.219C289.461 357.739 174.728 385.197 64.8288 388.617C9.72257 390.333 -43.3722 383.443 -87.2912 365.955C-127.904 349.776 -152.469 320.461 -170.351 290.533C-212.122 220.695 -224.026 139.825 -251.059 64.7164C-264.538 27.256 -281.28 -9.53829 -306.695 -42.4787C-330.063 -72.7714 -362.703 -98.1841 -395.311 -122.933C-436.538 -154.248 -481.352 -184.378 -532.33 -207.288C-549.45 -214.883 -568.12 -220.949 -588.013 -225.381C-633.133 -235.594 -681.352 -244.167 -732.27 -243.068C-750.673 -242.671 -770.763 -240.989 -788.796 -237.575C-814.968 -232.629 -786.582 -219.327 -779.628 -216.159C-758.849 -206.691 -736.569 -198.657 -715.875 -189.101" fill="#979797"/>
<path d="M-571.196 -251.342C-500.156 -230.509 -434.711 -204.004 -379.261 -169.184C-342.85 -146.32 -306.531 -120.164 -283.003 -90.0043C-243.211 -38.9986 -232.411 26.1825 -218.491 87.2118C-203.147 154.507 -188.632 223.202 -154.575 283.536C-136.192 316.1 -107.709 343.058 -60.217 356.986C-15.6237 370.081 34.9795 373.332 87.49 369.313C198.014 360.842 310.854 328.788 419.022 298.948C477.13 282.913 535.138 266.457 593.543 251.528C646.109 238.092 701.939 222.948 755.32 217.551C903.985 202.543 1052.69 227.714 1185.99 249.779C1233 257.564 1280.45 265.113 1327.17 273.29C1402.46 286.457 1475.26 303.967 1550.32 317.811C1615.21 329.785 1684.26 337.656 1756.86 328.359C1772.53 326.353 1789.36 323.735 1803.91 318.689C1824.34 311.615 1853.87 298.328 1852.68 280.09C1852.63 279.044 1852.43 278.024 1852.1 277.043C1846.38 260.258 1817.37 251.471 1797.72 244.627C1785.27 240.389 1772.34 236.689 1759 233.545C1621.9 200.237 1471.05 181.51 1321.61 166.539C1168.89 151.32 1012.21 140.291 853.794 141.91C765.567 142.814 682.588 149.551 593.328 174.061C518.291 194.687 444.985 220.865 371.648 245.473C280.736 275.983 183.832 308.684 88.4794 315.269C37.8238 318.767 -11.8774 312.663 -52.1752 297.08C-92.8654 281.393 -111.742 249.843 -119.819 218.066C-139.021 142.546 -119.026 56.0754 -118.434 -24.7321C-118.152 -63.0337 -120.623 -101.535 -134.426 -136.751C-147.837 -170.959 -175.215 -196.019 -207.472 -220.492C-251.342 -253.811 -300.91 -284.473 -356.891 -307.339C-375.779 -315.023 -396.285 -321.02 -418.043 -325.223C-475.779 -336.438 -540.438 -342.763 -606.738 -328.794C-627.68 -324.384 -651.7 -317.299 -668.934 -306.226C-717.724 -274.885 -593.304 -257.367 -571.196 -251.342Z" fill="#00237C"/>
<path d="M-439.446 -367.012C-357.825 -345.761 -279.996 -319.593 -216.257 -281.488C-177.808 -258.496 -137.756 -231.064 -119.682 -197.255C-88.6671 -139.257 -101.136 -64.0652 -108.01 3.76475C-115.43 76.9147 -133.673 159.613 -105.04 223.703C-90.8973 255.418 -64.0181 276.913 -16.7877 287.412C24.8235 296.574 71.4198 297.534 118.646 290.2C209.801 276.251 298.854 240.063 383.782 207.143C472.876 172.65 564.688 135.138 659.819 117.001C727.261 104.136 796.852 103.918 862.625 103.21C961.759 102.148 1059.77 105.344 1156.76 110.094C1218.69 113.115 1280.83 116.408 1342.29 120.587C1464.48 128.893 1584.98 141.689 1706.47 152.002C1796.19 159.622 1891.62 168.508 1986.78 156.658C1999.99 155.009 2014.43 152.517 2026.71 147.408C2052.67 136.599 2035.74 116.581 2025.38 109.168C2023.84 108.116 2022.2 107.141 2020.46 106.249C1991.03 90.5168 1950.37 83.3826 1913.11 77.5326C1895.73 74.7885 1877.61 72.4666 1859.74 70.2947C1689.97 49.6445 1514 38.2574 1337.7 30.6573C1174.78 23.6296 1009.27 18.8079 842.45 25.7362C759.804 29.1715 683.006 35.3169 601.133 61.6598C534.19 83.2012 470.087 111.118 405.941 137.604C325.672 170.75 239.668 206.329 151.842 216.447C104.523 221.917 56.4057 217.871 17.7405 204.74C-25.2191 190.157 -43.7107 159.647 -50.1313 127.104C-65.214 50.5646 -34.3975 -38.5137 -19.1878 -121.592C-11.6437 -162.722 -12.1669 -183.756 -19.363 -224.135C-29.2531 -261.045 -50.1085 -299.248 -72.363 -320.045C-109.831 -355.057 -152.977 -388.607 -209.233 -409.235C-228.962 -416.341 -249.612 -422.432 -271.054 -427.47C-339.606 -443.806 -418.003 -453.347 -497.62 -445.325C-517.696 -443.293 -544.266 -439.161 -561.174 -428.255C-613.641 -394.414 -461.279 -372.399 -439.434 -367.015" fill="#CD142B"/>
</g>
</svg>
