<svg width="412" height="413" viewBox="0 0 412 413" fill="none" xmlns="http://www.w3.org/2000/svg">
<path d="M360.576 141.87C362.424 146.353 364.092 150.95 365.571 155.655L362.709 156.555C363.426 158.837 364.098 161.144 364.723 163.477C365.348 165.81 365.921 168.145 366.44 170.479L369.369 169.827C370.44 174.641 371.294 179.457 371.935 184.263L368.962 184.66C369.601 189.453 370.026 194.235 370.243 198.997L373.24 198.861C373.464 203.771 373.47 208.66 373.266 213.515L370.268 213.389C370.066 218.208 369.652 222.993 369.034 227.733L372.009 228.121C371.374 232.985 370.529 237.803 369.479 242.561L366.55 241.915C365.513 246.614 364.273 251.255 362.838 255.825L365.701 256.724C364.234 261.395 362.566 265.992 360.706 270.504L357.932 269.36C356.1 273.803 354.077 278.16 351.87 282.42L354.534 283.8C352.286 288.141 349.85 292.383 347.234 296.512L344.7 294.906C342.132 298.96 339.388 302.903 336.474 306.723L338.86 308.542C335.899 312.424 332.768 316.18 329.472 319.799L327.254 317.779C324.028 321.321 320.643 324.728 317.104 327.988L319.137 330.194C315.553 333.497 311.815 336.651 307.93 339.644L306.099 337.268C302.312 340.186 298.384 342.948 294.32 345.543L295.935 348.072C291.839 350.687 287.607 353.136 283.248 355.406L281.863 352.745C277.635 354.946 273.284 356.976 268.817 358.823L269.963 361.596C265.482 363.449 260.886 365.121 256.182 366.602L255.282 363.74C253.001 364.458 250.693 365.13 248.361 365.755C246.028 366.38 243.694 366.952 241.36 367.471L242.011 370.399C237.196 371.469 232.38 372.319 227.573 372.954L227.179 369.98C222.387 370.614 217.604 371.031 212.842 371.239L212.973 374.236C208.063 374.45 203.174 374.445 198.318 374.228L198.453 371.231C193.636 371.015 188.853 370.587 184.115 369.954L183.717 372.927C178.856 372.277 174.041 371.415 169.286 370.347L169.944 367.42C165.249 366.365 160.614 365.108 156.049 363.653L155.139 366.512C150.475 365.026 145.884 363.338 141.38 361.457L142.536 358.689C138.103 356.837 133.755 354.794 129.504 352.568L128.112 355.225C123.783 352.957 119.552 350.502 115.434 347.866L117.051 345.34C113.01 342.754 109.08 339.992 105.272 337.06L103.442 339.438C99.5746 336.461 95.8316 333.313 92.2258 330.001L94.2551 327.792C90.7275 324.552 87.3337 321.152 84.0861 317.601L81.8721 319.625C78.5841 316.029 75.4432 312.28 72.4617 308.384L74.844 306.561C71.9387 302.765 69.1876 298.828 66.6027 294.756L64.0699 296.364C61.4654 292.261 59.0265 288.024 56.7651 283.66L59.4287 282.28C57.2355 278.047 55.2121 273.693 53.3698 269.223L50.5961 270.366C48.7485 265.883 47.0799 261.285 45.601 256.581L48.463 255.681C47.7458 253.399 47.074 251.092 46.4489 248.759C45.8238 246.426 45.2518 244.091 44.732 241.757L41.8037 242.409C40.7319 237.595 39.8785 232.779 39.237 227.973L42.2106 227.576C41.5709 222.783 41.1459 218.001 40.9291 213.238L37.9322 213.375C37.7086 208.465 37.7023 203.576 37.9066 198.721L40.9039 198.847C41.1066 194.028 41.5205 189.243 42.1386 184.503L39.1638 184.115C39.798 179.251 40.6436 174.433 41.6931 169.675L44.6227 170.321C45.6594 165.622 46.8988 160.981 48.3338 156.411L45.4716 155.512C46.9385 150.841 48.6059 146.243 50.4667 141.732L53.2401 142.876C55.0723 138.433 57.0954 134.076 59.3019 129.816L56.6381 128.436C58.8868 124.095 61.3226 119.853 63.9382 115.724L66.4725 117.33C69.0405 113.276 71.7847 109.333 74.698 105.513L72.3125 103.694C75.2729 99.8121 78.4047 96.0555 81.7005 92.4367L83.9185 94.4568C87.1442 90.915 90.5297 87.5079 94.0679 84.2479L92.0351 82.0416C95.6193 78.7393 99.3574 75.585 103.242 72.5914L105.073 74.9678C108.86 72.0499 112.788 69.2876 116.852 66.6928L115.237 64.1643C119.334 61.5484 123.565 59.0997 127.924 56.83L129.31 59.4909C133.538 57.2896 137.888 55.2596 142.355 53.4124L141.209 50.6401C145.69 48.7871 150.286 47.1148 154.99 45.6341L155.891 48.4957C158.172 47.7778 160.479 47.1056 162.811 46.4806C165.144 45.8556 167.478 45.2841 169.812 44.7654L169.162 41.8368C173.976 40.767 178.792 39.9174 183.6 39.2816L183.993 42.2557C188.785 41.6219 193.568 41.2045 198.33 40.9969L198.199 37.9998C203.109 37.7858 207.998 37.7909 212.854 38.0081L212.72 41.0051C217.536 41.2205 222.32 41.6485 227.058 42.2822L227.455 39.3086C232.317 39.9587 237.131 40.8213 241.886 41.8892L241.229 44.8163C245.923 45.8704 250.558 47.1283 255.123 48.5827L256.034 45.7243C260.697 47.2103 265.288 48.8977 269.792 50.7792L268.636 53.5474C273.069 55.3988 277.417 57.4416 281.668 59.6683L283.06 57.0108C287.39 59.2788 291.62 61.7342 295.738 64.3694L294.121 66.8963C298.162 69.4822 302.093 72.2444 305.901 75.1755L307.73 72.7982C311.598 75.775 315.341 78.923 318.947 82.2348L316.917 84.4443C320.445 87.6843 323.839 91.0837 327.086 94.6354L329.3 92.6109C332.588 96.2068 335.729 99.956 338.711 103.851L336.328 105.675C339.234 109.471 341.985 113.408 344.57 117.48L347.102 115.872C349.707 119.975 352.146 124.212 354.407 128.576L351.744 129.956C353.937 134.188 355.96 138.543 357.802 143.013L360.576 141.87Z" stroke="white" stroke-width="6" stroke-dasharray="15 15"/>
</svg>
