<svg width="34" height="34" viewBox="0 0 34 34" fill="none" xmlns="http://www.w3.org/2000/svg">
<path d="M27.9574 11.4469V7.17122L21.4504 0.664062H3.78711C3.05359 0.664062 2.45898 1.25867 2.45898 1.99219V32.0079C2.45898 32.7414 3.05359 33.336 3.78711 33.336H26.6292C27.3628 33.336 27.9574 32.7414 27.9574 32.0079V25.5V11.4469Z" fill="white"/>
<path d="M22.7773 7.17109H27.9562L21.4492 0.664062V5.84296C21.4492 6.57649 22.0438 7.17109 22.7773 7.17109Z" fill="#CD142B"/>
<path d="M26.6292 34H3.78711C2.68862 34 1.79492 33.1063 1.79492 32.0078V19.9883C1.79492 19.6215 2.09222 19.3242 2.45899 19.3242C2.82575 19.3242 3.12305 19.6215 3.12305 19.9883V32.0078C3.12305 32.374 3.42095 32.6719 3.78711 32.6719H26.6292C26.9953 32.6719 27.2932 32.374 27.2932 32.0078V25.5C27.2932 25.1332 27.5905 24.8359 27.9573 24.8359C28.3241 24.8359 28.6214 25.1332 28.6214 25.5V32.0078C28.6214 33.1063 27.7277 34 26.6292 34Z" fill="black"/>
<path d="M30.5642 12.4278C29.9937 11.8574 29.3297 11.4371 28.6214 11.164V7.17116C28.6209 7.17109 28.6204 7.17103 28.6198 7.17103C28.6198 6.9983 28.5539 6.82857 28.4269 6.7016L21.9199 0.194571C21.7929 0.0676017 21.6231 0.00179297 21.4504 0.00172657C21.4504 0.00112891 21.4503 0.000597657 21.4503 0H3.78711C2.68862 0 1.79492 0.893697 1.79492 1.99219V14.3659C1.79492 14.7327 2.09222 15.03 2.45899 15.03C2.82575 15.03 3.12305 14.7327 3.12305 14.3659V1.99213C3.12305 1.62596 3.42095 1.32806 3.78711 1.32806H20.7863V5.84303C20.7863 6.94153 21.68 7.83522 22.7785 7.83522H27.2932V10.8311C25.6329 10.6246 23.8975 11.1558 22.6255 12.4278L13.1612 21.8921C12.9019 22.1514 12.9019 22.5719 13.1612 22.8312C13.4205 23.0906 13.841 23.0906 14.1004 22.8312L23.5647 13.3669C25.2354 11.6962 27.9542 11.6961 29.625 13.3669C31.2959 15.0378 31.2959 17.7565 29.625 19.4273L20.7488 28.3035C19.7068 29.3454 18.0116 29.3454 16.9697 28.3035C16.465 27.7988 16.187 27.1278 16.187 26.414C16.187 25.7003 16.465 25.0292 16.9697 24.5245L25.8891 15.605C26.0857 15.4085 26.3471 15.3002 26.6251 15.3002C26.903 15.3002 27.1644 15.4084 27.361 15.605C27.5575 15.8016 27.6658 16.063 27.6658 16.341C27.6658 16.6189 27.5575 16.8803 27.3609 17.0769L19.3222 25.1155C19.0629 25.3748 19.0629 25.7953 19.3222 26.0547C19.5815 26.3139 20.002 26.3139 20.2614 26.0547L28.3 18.016C28.7475 17.5686 28.9939 16.9737 28.9939 16.341C28.9939 15.7082 28.7475 15.1133 28.3001 14.6659C27.8527 14.2185 27.2578 13.972 26.6251 13.972C25.9923 13.972 25.3975 14.2185 24.95 14.6659L16.0306 23.5853C14.4709 25.145 14.4709 27.6829 16.0306 29.2426C16.8105 30.0226 17.8347 30.4125 18.8592 30.4124C19.8835 30.4123 20.9081 30.0224 21.6879 29.2426L30.5642 20.3664C32.7528 18.1778 32.7528 14.6164 30.5642 12.4278ZM22.7785 6.50709C22.4123 6.50709 22.1144 6.2092 22.1144 5.84303V2.26731L26.3541 6.50709H22.7785Z" fill="black"/>
<path d="M2.45899 17.8774C2.28367 17.8774 2.11301 17.807 1.98883 17.6829C1.86531 17.5593 1.79492 17.388 1.79492 17.2134C1.79492 17.0387 1.86531 16.8674 1.98883 16.7439C2.11301 16.6204 2.28367 16.5493 2.45899 16.5493C2.63363 16.5493 2.80496 16.6204 2.92848 16.7439C3.05199 16.8674 3.12305 17.0387 3.12305 17.2134C3.12305 17.388 3.05199 17.5593 2.92848 17.6829C2.80496 17.807 2.63363 17.8774 2.45899 17.8774Z" fill="black"/>
<path d="M11.5171 25.0649C11.2371 25.0649 10.9767 24.8864 10.8856 24.6056L10.8725 24.5651C10.7592 24.2162 10.9503 23.8416 11.2991 23.7284C11.648 23.6152 12.0226 23.8062 12.1358 24.1551L12.1489 24.1956C12.2621 24.5445 12.0711 24.9191 11.7223 25.0323C11.6542 25.0544 11.5851 25.0649 11.5171 25.0649Z" fill="black"/>
</svg>
