<svg width="274" height="274" viewBox="0 0 274 274" fill="none" xmlns="http://www.w3.org/2000/svg">
<g clip-path="url(#clip0)">
<path d="M253.217 141.409L261.178 171.119L183.187 192.017C183.02 186.646 183.229 181.269 183.812 175.927L191.983 173.738C196.465 172.537 198.362 164.864 196.172 156.694L253.217 141.409Z" fill="#C03A2B"/>
<path d="M252.221 137.695L255.206 148.836L203.213 162.768L199.232 147.913L247.512 134.976C249.563 134.427 251.671 135.644 252.221 137.695Z" fill="#393F4A"/>
<path d="M178.529 26.085L204.526 19.1192L216.467 63.685L190.471 70.6508L178.529 26.085Z" fill="#F5EFCA"/>
<path d="M159.961 31.0605L182.244 25.0899L194.185 69.6557L171.902 75.6264L159.961 31.0605Z" fill="#285680"/>
<path d="M220.377 18.8525L230.328 55.9907C230.877 58.0418 229.66 60.15 227.609 60.6996L212.754 64.6801L200.812 20.1143L215.668 16.1338C217.719 15.5842 219.827 16.8014 220.377 18.8525Z" fill="#C03A2B"/>
<path d="M175.883 90.4814L231.59 75.5547C233.641 75.0051 235.749 76.2224 236.299 78.2734L246.25 115.412C246.8 117.463 245.583 119.571 243.531 120.121L187.824 135.047L175.883 90.4814Z" fill="#F5EFCA"/>
<path d="M217.267 111.236C221.37 110.137 223.804 105.92 222.705 101.818C221.606 97.7161 217.389 95.2817 213.287 96.3809C209.185 97.48 206.75 101.697 207.85 105.799C208.949 109.901 213.165 112.335 217.267 111.236Z" fill="#C03A2B"/>
<path d="M18.6589 53.3589L75.309 205.359C70.9337 207.312 67.2991 210.616 64.9381 214.785C61.9648 219.881 46.1139 230.099 47.7658 236.264L5.97097 80.2831C3.05392 69.4138 8.41937 58.0282 18.6589 53.3589Z" fill="#C03A2B"/>
<path d="M211.174 192.479L214.159 203.62C215.788 209.771 212.144 216.082 206.003 217.747L202.289 218.742C201.476 218.084 190.225 216.203 189.476 215.488C187.756 213.823 186.17 212.026 184.732 210.112C181.82 206.28 179.679 201.92 178.426 197.273L211.174 192.479Z" fill="#B19046"/>
<path d="M165.398 21.6426L203.212 162.768C204.306 166.853 202.855 174.805 198.77 175.899L64.9826 211.389C63.747 211.712 62.5456 212.154 61.3954 212.709L61.3583 212.719L18.6579 53.3587C19.8227 52.8054 21.0359 52.3604 22.2822 52.0293L155.98 16.2052C160.08 15.1196 164.287 17.5488 165.398 21.6426Z" fill="#F0C419"/>
<path d="M201.917 217.349C70.1876 252.646 77.5087 250.807 75.2198 251.074C64.302 253.538 53.3261 247.189 50.0191 236.496C46.7122 225.803 52.187 214.366 62.5895 210.236C77.0548 206.36 12.6664 223.278 190.729 175.566C184.236 190.397 188.881 207.748 201.917 217.349Z" fill="#F5EFCA"/>
<path d="M130.464 218.085L67.329 235.002C65.278 235.551 63.1697 234.334 62.6201 232.283C62.0705 230.232 63.2877 228.124 65.3388 227.574L128.474 210.657C130.525 210.108 132.633 211.325 133.183 213.376C133.732 215.427 132.515 217.535 130.464 218.085Z" fill="#CBB292"/>
<path d="M159.827 105.73C158.479 115.375 154.458 124.45 148.218 131.927L148.208 131.89C144.212 131.641 140.2 131.887 136.264 132.623C130.979 133.532 125.869 135.264 121.12 137.755C115.75 140.852 111.234 145.235 107.979 150.511C102.926 150.479 97.9038 149.706 93.0746 148.216L93.0646 148.179C93.1955 145.519 93.1069 142.854 92.8 140.209C91.9383 136.47 90.6084 132.854 88.8417 129.448C85.9376 122.026 89.6191 114.671 88.2701 107.111C87.8485 104.263 85.5354 102.072 82.669 101.805C78.5644 101.194 74.3479 102.244 70.3103 101.733C64.3546 100.587 59.3755 96.5205 57.062 90.9139C57.883 85.4399 59.5792 80.1336 62.0857 75.1984C69.7628 73.2302 77.1641 70.311 84.1177 66.5086C91.6381 62.9372 96.9361 55.9133 98.3039 47.7011C105.006 46.3636 111.907 46.368 118.608 47.7139L118.618 47.7511L118.59 47.7982C115.746 53.8245 111.438 59.0429 106.059 62.9778C101.982 66.0183 99.539 70.7721 99.4397 75.857C100.035 82.9817 107.676 85.3526 113.734 85.0828C120.938 84.7845 128.044 86.9406 130.131 94.5811C130.86 97.835 131.005 101.193 130.559 104.497C129.801 108.462 129.693 112.524 130.239 116.524C130.78 118.769 132.34 120.632 134.456 121.558C136.572 122.483 138.999 122.366 141.015 121.239C143.996 119.877 146.625 117.852 148.703 115.318C148.951 115.053 149.198 114.788 149.435 114.485C152.319 110.941 155.844 107.971 159.827 105.73Z" fill="#2FA8CC"/>
<path d="M88.8422 129.447C90.6088 132.854 91.9387 136.469 92.8004 140.209C93.1074 142.853 93.1959 145.519 93.065 148.178L93.075 148.215C68.5704 140.625 53.2738 116.285 57.0624 90.9135C59.3759 96.5201 64.355 100.586 70.3107 101.733C74.3483 102.243 78.5648 101.193 82.6694 101.805C85.5359 102.072 87.8489 104.263 88.2706 107.111C89.6195 114.67 85.9381 122.026 88.8422 129.447Z" fill="#4FBA6F"/>
<path d="M98.3036 47.7008C96.9359 55.913 91.6378 62.9369 84.1174 66.5083C77.1638 70.3107 69.7626 73.2299 62.0854 75.1981C68.7312 62.0063 80.6964 52.2825 94.9684 48.475C96.0826 48.1765 97.1695 47.925 98.3036 47.7008Z" fill="#B0D3F0"/>
<path d="M148.209 131.89L148.219 131.927C138.258 143.825 123.497 150.642 107.98 150.511C111.235 145.235 115.751 140.851 121.121 137.755C125.87 135.264 130.98 133.532 136.265 132.623C140.201 131.886 144.213 131.64 148.209 131.89Z" fill="#B0D3F0"/>
<path d="M158.54 85.1777C160.335 91.8742 160.773 98.862 159.828 105.73C155.845 107.97 152.32 110.941 149.436 114.485C149.199 114.788 148.952 115.053 148.704 115.318C146.626 117.852 143.997 119.877 141.016 121.239C139 122.366 136.573 122.483 134.457 121.558C132.341 120.632 130.781 118.769 130.24 116.524C129.694 112.524 129.802 108.462 130.559 104.497C131.005 101.192 130.86 97.8349 130.132 94.581C128.044 86.9405 120.939 84.7844 113.734 85.0828C107.677 85.3525 100.036 82.9816 99.4405 75.8569C99.5398 70.772 101.983 66.0182 106.06 62.9777C111.438 59.0428 115.746 53.8244 118.591 47.7981L118.618 47.751L118.608 47.7138C137.959 51.5947 153.434 66.1137 158.54 85.1777Z" fill="#4FBA6F"/>
<path d="M158.38 158.859L95.2451 175.776C93.194 176.325 91.0857 175.108 90.5361 173.057C89.9865 171.006 91.2037 168.898 93.2548 168.348L156.39 151.431C158.441 150.882 160.549 152.099 161.099 154.15C161.648 156.201 160.431 158.309 158.38 158.859Z" fill="#F29C1F"/>
<path d="M63.7129 216.307C65.2946 215.525 56.5301 217.993 196.051 180.608C202.192 178.943 205.835 172.632 204.207 166.481L203.212 162.768C204.297 166.868 201.868 171.075 197.774 172.186L64.077 208.01C55.1862 210.326 48.549 217.744 47.2322 226.837C45.9155 235.93 50.1756 244.926 58.0441 249.67C63.6139 253.002 70.2768 253.993 76.5754 252.426L206.002 217.746C212.143 216.081 215.786 209.77 214.158 203.62L211.173 192.478C210.623 190.427 208.515 189.21 206.464 189.76C204.413 190.309 203.196 192.417 203.745 194.468L206.73 205.61C207.28 207.661 206.063 209.769 204.012 210.319L74.9194 244.909C70.7991 246.074 66.3844 245.547 62.6535 243.446C58.9226 241.345 56.1835 237.843 55.0431 233.716C53.4219 226.589 57.0483 219.307 63.7129 216.307ZM199.265 215.969C199.059 215.766 198.859 215.556 198.657 215.336C198.861 215.548 199.053 215.759 199.265 215.969Z" fill="#E64C3C"/>
<path d="M115.371 257.527L106.502 255.713C105.317 255.47 104.087 255.8 103.181 256.602L96.408 262.609C95.4117 263.492 94.0295 263.796 92.7542 263.414C91.4789 263.032 90.492 262.017 90.1455 260.732L81.1895 227.308L110.9 219.347L119.856 252.771C120.199 254.058 119.851 255.43 118.938 256.398C118.025 257.367 116.675 257.794 115.371 257.527Z" fill="#C03A2B"/>
<path d="M259.187 163.691L262.172 174.833C262.721 176.884 261.504 178.992 259.453 179.542L188.891 198.449C187.516 193.323 187.26 187.961 188.141 182.728L259.187 163.691Z" fill="#F0C419"/>
</g>
<defs>
<clipPath id="clip0">
<rect width="223" height="223" fill="white" transform="translate(0 58) rotate(-15)"/>
</clipPath>
</defs>
</svg>
