<svg width="490" height="468" viewBox="0 0 490 468" fill="none" xmlns="http://www.w3.org/2000/svg">
<circle cx="256.353" cy="233.726" r="190.532" transform="rotate(-15 256.353 233.726)" fill="#00237C"/>
<circle cx="14.5" cy="135.5" r="11.5" stroke="#CD142B" stroke-opacity="0.53" stroke-width="2"/>
<circle cx="5.5" cy="80.5" r="5" stroke="#00237C" stroke-opacity="0.54"/>
<path d="M411.576 168.87C413.424 173.353 415.092 177.95 416.571 182.655L413.709 183.555C414.426 185.837 415.098 188.144 415.723 190.477C416.348 192.81 416.921 195.145 417.44 197.479L420.369 196.827C421.44 201.641 422.294 206.457 422.935 211.263L419.962 211.66C420.601 216.453 421.026 221.235 421.243 225.997L424.24 225.861C424.464 230.771 424.47 235.66 424.266 240.515L421.268 240.389C421.066 245.208 420.652 249.993 420.034 254.733L423.009 255.121C422.374 259.985 421.529 264.803 420.479 269.561L417.55 268.915C416.513 273.614 415.273 278.255 413.838 282.825L416.701 283.724C415.234 288.395 413.566 292.992 411.706 297.504L408.932 296.36C407.1 300.803 405.077 305.16 402.87 309.42L405.534 310.8C403.286 315.141 400.85 319.383 398.234 323.512L395.7 321.906C393.132 325.96 390.388 329.903 387.474 333.723L389.86 335.542C386.899 339.424 383.768 343.18 380.472 346.799L378.254 344.779C375.028 348.321 371.643 351.728 368.104 354.988L370.137 357.194C366.553 360.497 362.815 363.651 358.93 366.644L357.099 364.268C353.312 367.186 349.384 369.948 345.32 372.543L346.935 375.072C342.839 377.687 338.607 380.136 334.248 382.406L332.863 379.745C328.635 381.946 324.284 383.976 319.817 385.823L320.963 388.596C316.482 390.449 311.886 392.121 307.182 393.602L306.282 390.74C304 391.458 301.693 392.13 299.361 392.755C297.028 393.38 294.694 393.952 292.36 394.471L293.011 397.399C288.196 398.469 283.38 399.319 278.573 399.954L278.179 396.98C273.387 397.614 268.604 398.031 263.842 398.239L263.973 401.236C259.063 401.45 254.174 401.445 249.318 401.228L249.453 398.231C244.636 398.015 239.853 397.587 235.115 396.954L234.717 399.927C229.856 399.277 225.041 398.415 220.286 397.347L220.944 394.42C216.249 393.365 211.614 392.108 207.049 390.653L206.139 393.512C201.475 392.026 196.884 390.338 192.38 388.457L193.536 385.689C189.103 383.837 184.755 381.794 180.504 379.568L179.112 382.225C174.783 379.957 170.552 377.502 166.434 374.866L168.051 372.34C164.01 369.754 160.08 366.992 156.272 364.06L154.442 366.438C150.575 363.461 146.832 360.313 143.226 357.001L145.255 354.792C141.728 351.552 138.334 348.152 135.086 344.601L132.872 346.625C129.584 343.029 126.443 339.28 123.462 335.384L125.844 333.561C122.939 329.765 120.188 325.828 117.603 321.756L115.07 323.364C112.465 319.261 110.026 315.024 107.765 310.66L110.429 309.28C108.235 305.047 106.212 300.693 104.37 296.223L101.596 297.366C99.7485 292.883 98.0799 288.285 96.601 283.581L99.463 282.681C98.7458 280.399 98.074 278.092 97.4489 275.759C96.8238 273.426 96.2518 271.091 95.732 268.757L92.8037 269.409C91.7319 264.595 90.8785 259.779 90.237 254.973L93.2106 254.576C92.5709 249.783 92.1459 245.001 91.9291 240.238L88.9322 240.375C88.7086 235.465 88.7023 230.576 88.9066 225.721L91.9039 225.847C92.1066 221.028 92.5205 216.243 93.1386 211.503L90.1638 211.115C90.798 206.251 91.6436 201.433 92.6931 196.675L95.6227 197.321C96.6594 192.622 97.8988 187.981 99.3338 183.411L96.4716 182.512C97.9385 177.841 99.6059 173.243 101.467 168.732L104.24 169.876C106.072 165.433 108.095 161.076 110.302 156.816L107.638 155.436C109.887 151.095 112.323 146.853 114.938 142.724L117.473 144.33C120.04 140.276 122.785 136.333 125.698 132.513L123.313 130.694C126.273 126.812 129.405 123.055 132.701 119.437L134.918 121.457C138.144 117.915 141.53 114.508 145.068 111.248L143.035 109.042C146.619 105.739 150.357 102.585 154.242 99.5914L156.073 101.968C159.86 99.0499 163.788 96.2876 167.852 93.6928L166.237 91.1643C170.334 88.5484 174.565 86.0997 178.924 83.83L180.31 86.4909C184.538 84.2896 188.888 82.2596 193.355 80.4124L192.209 77.6401C196.69 75.7871 201.286 74.1148 205.99 72.6341L206.891 75.4957C209.172 74.7778 211.479 74.1056 213.811 73.4806C216.144 72.8556 218.478 72.2841 220.812 71.7654L220.162 68.8368C224.976 67.767 229.792 66.9174 234.6 66.2816L234.993 69.2557C239.785 68.6219 244.568 68.2045 249.33 67.9969L249.199 64.9998C254.109 64.7858 258.998 64.7909 263.854 65.0081L263.72 68.0051C268.536 68.2205 273.32 68.6485 278.058 69.2822L278.455 66.3086C283.317 66.9587 288.131 67.8213 292.886 68.8892L292.229 71.8163C296.923 72.8704 301.558 74.1283 306.123 75.5827L307.034 72.7243C311.697 74.2103 316.288 75.8978 320.792 77.7792L319.636 80.5474C324.069 82.3988 328.417 84.4416 332.668 86.6683L334.06 84.0108C338.39 86.2788 342.62 88.7342 346.738 91.3694L345.121 93.8963C349.162 96.4822 353.093 99.2444 356.901 102.175L358.73 99.7982C362.598 102.775 366.341 105.923 369.947 109.235L367.917 111.444C371.445 114.684 374.839 118.084 378.086 121.635L380.3 119.611C383.588 123.207 386.729 126.956 389.711 130.851L387.328 132.675C390.234 136.471 392.985 140.408 395.57 144.48L398.102 142.872C400.707 146.975 403.146 151.212 405.407 155.576L402.744 156.956C404.937 161.188 406.96 165.543 408.802 170.013L411.576 168.87Z" stroke="white" stroke-width="6" stroke-dasharray="15 15"/>
<circle cx="77" cy="81" r="8" stroke="#00237C" stroke-opacity="0.54" stroke-width="2"/>
<g clip-path="url(#clip0)">
<path d="M373.217 237.409L381.178 267.119L303.187 288.017C303.02 282.646 303.229 277.269 303.812 271.927L311.983 269.738C316.465 268.537 318.362 260.864 316.172 252.694L373.217 237.409Z" fill="#C03A2B"/>
<path d="M372.221 233.695L375.206 244.836L323.213 258.768L319.232 243.913L367.512 230.976C369.563 230.427 371.671 231.644 372.221 233.695Z" fill="#393F4A"/>
<path d="M298.529 122.085L324.526 115.119L336.467 159.685L310.471 166.651L298.529 122.085Z" fill="#F5EFCA"/>
<path d="M279.961 127.061L302.244 121.09L314.185 165.656L291.902 171.626L279.961 127.061Z" fill="#285680"/>
<path d="M340.377 114.853L350.328 151.991C350.877 154.042 349.66 156.15 347.609 156.7L332.754 160.68L320.812 116.114L335.668 112.134C337.719 111.584 339.827 112.801 340.377 114.853Z" fill="#C03A2B"/>
<path d="M295.883 186.481L351.59 171.555C353.641 171.005 355.749 172.222 356.299 174.273L366.25 211.412C366.8 213.463 365.583 215.571 363.531 216.121L307.824 231.047L295.883 186.481Z" fill="#F5EFCA"/>
<path d="M337.267 207.236C341.37 206.137 343.804 201.92 342.705 197.818C341.606 193.716 337.389 191.282 333.287 192.381C329.185 193.48 326.75 197.697 327.85 201.799C328.949 205.901 333.165 208.335 337.267 207.236Z" fill="#C03A2B"/>
<path d="M138.659 149.359L195.309 301.359C190.934 303.312 187.299 306.616 184.938 310.785C181.965 315.881 166.114 326.099 167.766 332.264L125.971 176.283C123.054 165.414 128.419 154.028 138.659 149.359V149.359Z" fill="#C03A2B"/>
<path d="M331.174 288.479L334.159 299.62C335.788 305.771 332.144 312.082 326.003 313.747L322.289 314.742C321.476 314.084 310.225 312.203 309.476 311.488C307.756 309.823 306.17 308.026 304.732 306.112C301.82 302.28 299.679 297.92 298.426 293.273L331.174 288.479Z" fill="#B19046"/>
<path d="M285.398 117.643L323.212 258.768C324.306 262.853 322.855 270.805 318.77 271.899L184.983 307.389C183.747 307.712 182.546 308.154 181.395 308.709L181.358 308.719L138.658 149.359C139.823 148.805 141.036 148.36 142.282 148.029L275.98 112.205C280.08 111.12 284.287 113.549 285.398 117.643V117.643Z" fill="#F0C419"/>
<path d="M321.917 313.349C190.188 348.646 197.509 346.807 195.22 347.074C184.302 349.538 173.326 343.189 170.019 332.496C166.712 321.803 172.187 310.366 182.589 306.236C197.055 302.36 132.666 319.278 310.729 271.566C304.236 286.397 308.881 303.748 321.917 313.349Z" fill="#F5EFCA"/>
<path d="M250.464 314.085L187.329 331.002C185.278 331.551 183.17 330.334 182.62 328.283C182.071 326.232 183.288 324.124 185.339 323.574L248.474 306.657C250.525 306.108 252.633 307.325 253.183 309.376C253.732 311.427 252.515 313.535 250.464 314.085Z" fill="#CBB292"/>
<path d="M279.827 201.73C278.479 211.375 274.458 220.45 268.218 227.927L268.208 227.89C264.212 227.641 260.2 227.887 256.264 228.623C250.979 229.532 245.869 231.264 241.12 233.755C235.75 236.852 231.234 241.235 227.979 246.511C222.926 246.479 217.904 245.706 213.075 244.216L213.065 244.179C213.195 241.519 213.107 238.854 212.8 236.209C211.938 232.47 210.608 228.854 208.842 225.448C205.938 218.026 209.619 210.671 208.27 203.111C207.848 200.263 205.535 198.072 202.669 197.805C198.564 197.194 194.348 198.244 190.31 197.733C184.355 196.587 179.375 192.52 177.062 186.914C177.883 181.44 179.579 176.134 182.086 171.198C189.763 169.23 197.164 166.311 204.118 162.509C211.638 158.937 216.936 151.913 218.304 143.701C225.006 142.364 231.907 142.368 238.608 143.714L238.618 143.751L238.59 143.798C235.746 149.824 231.438 155.043 226.059 158.978C221.982 162.018 219.539 166.772 219.44 171.857C220.035 178.982 227.676 181.353 233.734 181.083C240.938 180.784 248.044 182.941 250.131 190.581C250.86 193.835 251.005 197.193 250.559 200.497C249.801 204.462 249.693 208.524 250.239 212.524C250.78 214.769 252.34 216.632 254.456 217.558C256.572 218.483 258.999 218.366 261.015 217.239C263.996 215.877 266.625 213.852 268.703 211.318C268.951 211.053 269.198 210.788 269.435 210.485C272.319 206.941 275.844 203.971 279.827 201.73Z" fill="#2FA8CC"/>
<path d="M208.842 225.447C210.609 228.854 211.939 232.469 212.8 236.209C213.107 238.853 213.196 241.519 213.065 244.178L213.075 244.215C188.57 236.625 173.274 212.285 177.062 186.914C179.376 192.52 184.355 196.586 190.311 197.733C194.348 198.243 198.565 197.193 202.669 197.805C205.536 198.072 207.849 200.263 208.271 203.111C209.62 210.67 205.938 218.026 208.842 225.447Z" fill="#4FBA6F"/>
<path d="M218.304 143.701C216.936 151.913 211.638 158.937 204.117 162.508C197.164 166.311 189.763 169.23 182.085 171.198C188.731 158.006 200.696 148.282 214.968 144.475C216.083 144.176 217.17 143.925 218.304 143.701Z" fill="#B0D3F0"/>
<path d="M268.209 227.89L268.219 227.927C258.258 239.825 243.497 246.642 227.98 246.511C231.235 241.235 235.751 236.851 241.121 233.755C245.87 231.264 250.98 229.532 256.265 228.623C260.201 227.886 264.213 227.64 268.209 227.89V227.89Z" fill="#B0D3F0"/>
<path d="M278.54 181.178C280.335 187.874 280.773 194.862 279.828 201.73C275.845 203.97 272.32 206.941 269.436 210.485C269.199 210.788 268.952 211.053 268.704 211.318C266.626 213.852 263.997 215.877 261.016 217.239C259 218.366 256.573 218.483 254.457 217.558C252.341 216.632 250.781 214.769 250.24 212.524C249.694 208.524 249.802 204.462 250.559 200.497C251.005 197.192 250.86 193.835 250.132 190.581C248.044 182.94 240.939 180.784 233.734 181.083C227.677 181.353 220.036 178.982 219.44 171.857C219.54 166.772 221.983 162.018 226.06 158.978C231.438 155.043 235.746 149.824 238.591 143.798L238.618 143.751L238.608 143.714C257.959 147.595 273.434 162.114 278.54 181.178Z" fill="#4FBA6F"/>
<path d="M278.38 254.859L215.245 271.776C213.194 272.325 211.086 271.108 210.536 269.057C209.987 267.006 211.204 264.898 213.255 264.348L276.39 247.431C278.441 246.882 280.549 248.099 281.099 250.15C281.648 252.201 280.431 254.309 278.38 254.859Z" fill="#F29C1F"/>
<path d="M183.713 312.307C185.295 311.525 176.53 313.993 316.051 276.608C322.192 274.943 325.835 268.632 324.207 262.481L323.212 258.768C324.297 262.868 321.868 267.075 317.774 268.186L184.077 304.01C175.186 306.326 168.549 313.744 167.232 322.837C165.915 331.93 170.176 340.926 178.044 345.67C183.614 349.002 190.277 349.993 196.575 348.426L326.002 313.746C332.143 312.081 335.786 305.77 334.158 299.62L331.173 288.478C330.623 286.427 328.515 285.21 326.464 285.76C324.413 286.309 323.196 288.417 323.745 290.468L326.73 301.61C327.28 303.661 326.063 305.769 324.012 306.319L194.919 340.909C190.799 342.074 186.384 341.547 182.653 339.446C178.923 337.345 176.184 333.843 175.043 329.716C173.422 322.589 177.048 315.307 183.713 312.307V312.307ZM319.265 311.969C319.059 311.766 318.859 311.556 318.657 311.336C318.861 311.548 319.053 311.759 319.265 311.969Z" fill="#E64C3C"/>
<path d="M235.371 353.527L226.502 351.713C225.317 351.47 224.087 351.8 223.181 352.602L216.408 358.609C215.412 359.492 214.029 359.796 212.754 359.414C211.479 359.032 210.492 358.017 210.145 356.732L201.189 323.308L230.9 315.347L239.856 348.771C240.199 350.058 239.851 351.43 238.938 352.398C238.025 353.367 236.675 353.794 235.371 353.527Z" fill="#C03A2B"/>
<path d="M379.187 259.691L382.172 270.833C382.721 272.884 381.504 274.992 379.453 275.542L308.891 294.449C307.516 289.323 307.26 283.961 308.141 278.728L379.187 259.691Z" fill="#F0C419"/>
</g>
<path d="M8.39125 304.018C13.9678 313.193 23.8429 319.412 34.1022 315.474C44.3616 311.536 49.4841 300.022 45.5437 289.756C41.6033 279.491 29.6535 276.397 19.8327 278.301C10.0119 280.204 2.81471 294.843 8.39125 304.018Z" fill="#CD142B"/>
<defs>
<clipPath id="clip0">
<rect width="223" height="223" fill="white" transform="translate(120 154) rotate(-15)"/>
</clipPath>
</defs>
</svg>
