<svg width="121" height="300" viewBox="0 0 121 300" fill="none" xmlns="http://www.w3.org/2000/svg">
<circle cx="104.861" cy="94.8599" r="11.5" transform="rotate(-165 104.861 94.8599)" stroke="#CD142B" stroke-opacity="0.53" stroke-width="2"/>
<circle cx="65" cy="291" r="8" stroke="#00237C" stroke-opacity="0.54" stroke-width="2"/>
<path d="M50.3199 165.319C46.5623 177.224 34.2785 182.18 21.229 178.32C8.17962 174.461 2.08822 160.152 8.31016 149.193C14.5321 138.233 25.0241 132.437 37.4011 136.191C49.778 139.944 54.0776 153.413 50.3199 165.319Z" fill="#CD142B"/>
<path d="M38.0957 20.0947C36.0724 26.5054 29.458 29.1737 22.4313 27.0957C15.4047 25.0177 12.1247 17.3128 15.475 11.4114C18.8253 5.51006 24.4748 2.38933 31.1394 4.41045C37.8039 6.43157 40.1191 13.684 38.0957 20.0947Z" fill="#00237C"/>
</svg>
