<svg width="8" height="28" viewBox="0 0 8 28" fill="none" xmlns="http://www.w3.org/2000/svg">
<path d="M3.65121 27.8017L0.0512152 21.5794C-0.0183846 21.4589 -0.0167846 21.3119 0.0544152 21.1929C0.126415 21.0731 0.257615 21 0.400015 21L7.6 21C7.7424 21 7.8736 21.0731 7.9456 21.1929C7.9816 21.2536 8 21.3212 8 21.3889C8 21.4542 7.9832 21.5203 7.9488 21.5794L4.34881 27.8017C4.27761 27.9238 4.14481 28 4.00001 28C3.85521 28 3.72241 27.9238 3.65121 27.8017Z" fill="#00237C"/>
<path d="M3.65121 0.198334L0.0512152 6.42056C-0.0183846 6.54111 -0.0167846 6.68811 0.0544152 6.80711C0.126415 6.92689 0.257615 7 0.400015 7L7.6 7C7.7424 7 7.8736 6.92689 7.9456 6.80711C7.9816 6.74644 8 6.67878 8 6.61111C8 6.54578 7.9832 6.47967 7.9488 6.42056L4.34881 0.198334C4.27761 0.0762227 4.14481 2.88432e-07 4.00001 2.95014e-07C3.85521 3.01596e-07 3.72241 0.0762227 3.65121 0.198334Z" fill="#00237C"/>
</svg>
