<svg width="1440" height="1944" fill="none" xmlns="http://www.w3.org/2000/svg"><path d="M2082.09 1150.54c-71.04-20.84-136.49-47.34-191.94-82.16-36.41-22.87-72.73-49.02-96.25-79.181-39.8-51.006-50.6-116.187-64.52-177.216-15.34-67.295-29.85-135.99-63.91-196.325-18.38-32.563-46.87-59.521-94.36-73.449-44.59-13.095-95.2-16.346-147.71-12.327-110.52 8.471-223.36 40.525-331.53 70.365-58.11 16.035-116.115 32.491-174.52 47.42-52.566 13.436-108.395 28.58-161.777 33.977-148.665 15.008-297.369-10.163-430.67-32.228-47.014-7.785-94.463-15.334-141.181-23.511-75.286-13.168-148.087-30.677-223.153-44.521-64.884-11.974-133.935-19.845-206.534-10.548-15.675 2.006-32.5 4.624-47.056 9.67-20.423 7.074-49.956 20.361-48.767 38.599.056 1.046.252 2.066.586 3.047 5.714 16.785 34.728 25.572 54.38 32.416 12.45 4.238 25.374 7.938 38.715 11.082 137.104 33.308 287.948 52.035 437.385 67.006 152.727 15.218 309.402 26.248 467.821 24.628 88.227-.903 171.206-7.64 260.466-32.15 75.037-20.626 148.345-46.804 221.685-71.412 90.91-30.51 187.81-63.211 283.16-69.796 50.66-3.498 100.36 2.606 140.66 18.189 40.69 15.686 59.57 47.237 67.64 79.014 19.2 75.52-.79 161.99-1.38 242.798-.29 38.302 2.19 76.803 15.99 112.023 13.41 34.2 40.79 59.26 73.04 83.74 43.88 33.32 93.44 63.98 149.42 86.84 18.89 7.69 39.4 13.68 61.16 17.89 57.73 11.21 122.39 17.54 188.69 3.57 20.94-4.41 44.96-11.5 62.2-22.57 48.79-31.34-75.63-48.86-97.74-54.88z" fill="#00237C"/><path d="M1950.34 1266.21c-81.62-21.25-159.45-47.42-223.19-85.53-38.45-22.99-78.5-50.42-96.57-84.23-31.02-58-18.55-133.19-11.68-201.02 7.42-73.15 25.67-155.848-2.97-219.938-14.14-31.716-41.02-53.21-88.25-63.71-41.61-9.162-88.21-10.121-135.43-2.787-91.16 13.949-180.21 50.137-265.14 83.057-89.09 34.493-180.905 72.004-276.036 90.142-67.442 12.865-137.033 13.083-202.806 13.791-99.134 1.062-197.146-2.134-294.139-6.884-61.93-3.021-124.066-6.314-185.528-10.493-122.192-8.306-242.692-21.102-364.181-31.415-89.72-7.62-185.145-16.507-280.305-4.656-13.208 1.649-27.65 4.141-39.932 9.25-25.96 10.808-9.027 30.827 1.33 38.24a45.049 45.049 0 004.918 2.919c29.435 15.732 70.094 22.866 107.356 28.716 17.378 2.744 35.495 5.066 53.364 7.238 169.771 20.65 345.746 32.037 522.045 39.638 162.921 7.027 328.426 11.849 495.247 4.921 82.646-3.436 159.444-9.581 241.317-35.924 66.943-21.541 131.05-49.458 195.19-75.945 80.27-33.145 166.28-68.724 254.1-78.842 47.32-5.471 95.44-1.424 134.1 11.707 42.96 14.583 61.45 45.093 67.87 77.636 15.09 76.539-15.73 165.618-30.94 248.699-7.54 41.13-7.02 62.16.18 102.54 9.89 36.91 30.74 75.11 53 95.91 37.46 35.01 80.61 68.56 136.87 89.19 19.72 7.11 40.37 13.2 61.82 18.24 68.55 16.33 146.95 25.87 226.56 17.85 20.08-2.03 46.65-6.16 63.56-17.07 52.46-33.84-99.9-55.86-121.74-61.24" fill="#CD142B"/></svg>