<svg width="1440" height="627" fill="none" xmlns="http://www.w3.org/2000/svg"><path d="M1764.43.012c29.65.2 49.22 11.186 39.14 20.627-1.97 1.72-4.93 3.27-8.68 4.542-65.45 21.513-119.8 49.135-148.05 79.267-12.43 13.282-22.47 27.007-31.88 40.703-17.79 25.87-36.15 51.889-52.67 77.859-18.37 28.845-35.58 58.047-55.35 86.742a834.198 834.198 0 01-27.67 37.685c-30.38 38.621-67.74 76.964-118 112.539-37.06 26.242-81.16 48.864-166.65 55.072-86.25 6.258-181.41-.994-263.969-8.511-228.492-20.82-452.24-59.242-671.126-92.807-38.919-5.965-83.886-14.655-124.149-13.217-33.602 1.202-65.227 7.474-97.406 13.325-6.76 1.223-14.192 2.481-21.387 2.767-5.255.291-10.588-.308-14.468-1.623-6.72-2.296-10.2-7.217-12.927-12.102-4.408-7.867-8.578-15.799-12.65-23.702-1.443-2.768-2.846-5.5-4.329-8.175-5.574-10.099-10.001-21.385-1.304-31.47 5.271-5.916 14.294-11.305 26.348-15.734 23.837-9.241 59.633-25.226 100.805-22.058 30.934 2.382 60.384 8.461 89.084 13.425 64.496 11.143 130.019 21.693 194.91 32.414 77.285 12.773 155.893 25.197 235.213 35.696 120.966 15.993 267.055 34.173 398.635 25.748 115.04-7.402 190.11-44.823 247.8-77.766 76.08-43.435 120.32-92.635 151.49-143.158 14.45-23.395 24.88-47.476 39.67-70.678 12.83-20.14 29.88-40.188 55.74-58.211 19.79-13.9 47.3-26.173 80.8-36.047C1637.18 9.61 1704.64-.396 1764.43.012z" fill="#CD142B"/><path d="M2009.48 34.697c20.35-.714 56.87-.064 56.68 10.849-.2 1.303-1.39 2.562-3.45 3.635-46.83 28.274-111.64 51.735-148.3 82.131-16.89 14.005-31.67 28.567-45.39 43.051-25.73 27.403-50.3 55.57-72.13 83.223-24.47 30.981-41.95 63.312-60.32 95.165-8.39 14.519-16.74 29.074-25.41 43.565-26.51 44.215-56.32 88.558-98.38 130.93-29.24 29.453-59.9 65.627-134.19 84.938-76.86 19.997-180.35 15.555-267.23 10.634-296.426-16.819-573.849-67.29-866.87-92.243-58.098-4.943-123.816-12.077-181.814-6.785-47.666 4.356-93.174 14.119-138.94 21.04-8.789 1.328-18.39 2.478-27.237 2.649-6.236.122-11.996-.421-16.153-2.264-5.66-2.499-7.363-7.541-7.403-12.712 0-8.62 1.326-17.305 3.563-25.932.772-3.014 1.782-6.013 2.712-8.92 3.464-10.927 9.086-22.483 22.803-32.303 8.881-6.094 20.606-11.59 34.661-16.247 38.6-12.713 80.386-26.682 136.584-25.711 39.589.714 77.991 5.864 115.284 10.177 73.577 8.506 146.006 17.726 217.742 27.989 84.979 12.141 170.234 24.939 255.866 36.273 135.951 17.983 290.982 38.316 438.792 36.374 148.99-1.957 209.35-45.708 265.9-88.523 77.99-59.063 123.97-123.253 163.35-187.508 16.54-26.996 34.24-54.014 53.18-80.703 15.01-21.147 31.81-42.479 56.36-61.976 17.97-14.311 42.3-27.465 72.03-38.945 50.38-19.461 126.55-39.444 197.71-41.85z" fill="#979797"/></svg>