<svg width="406" height="581" fill="none" xmlns="http://www.w3.org/2000/svg"><circle cx="375.027" cy="58.027" r="5.921" transform="rotate(-165 375.027 58.027)" stroke="#00237C" stroke-opacity=".54" stroke-width="2"/><circle cx="187.027" cy="534.027" r="5.921" transform="rotate(-165 187.027 534.027)" stroke="#00237C" stroke-opacity=".54" stroke-width="2"/><path d="M350.049 477.996c12.078 9.781 28.483 7.563 37.835-3.986 9.353-11.549 7.848-30.633-3.967-37.837-11.816-7.204-29.221-9.943-37.836 3.986-8.615 13.928-8.111 28.056 3.968 37.837z" fill="#CD142B"/><path d="M268.993 119.859c6.207 5.027 14.638 3.887 19.445-2.049 4.807-5.935 4.034-15.744-2.039-19.446-6.073-3.702-15.018-5.11-19.446 2.048-4.427 7.159-4.168 14.42 2.04 19.447z" fill="#00237C"/><path d="M295.499 572.446c5.492 5.029 13.314 3.925 18.904-1.96 5.589-5.885 4.468-15.092-2.014-18.897-6.482-3.806-13.63-3.671-18.903 1.959-5.274 5.63-3.478 13.869 2.013 18.898z" fill="#00237C" fill-opacity=".54"/><path d="M11.116 269.852c5.49 5.029 13.313 3.925 18.903-1.96 5.59-5.884 4.468-15.092-2.014-18.897-6.482-3.806-13.63-3.67-18.903 1.959-5.274 5.63-3.478 13.869 2.014 18.898z" fill="#797979"/><path d="M301.151 12.031c-3.777 6.417-1.071 13.84 5.847 18.083 6.918 4.244 15.691 1.233 18.066-5.899 2.375-7.131.756-14.094-5.847-18.082-6.603-3.988-14.289-.519-18.066 5.898z" fill="#979797"/><circle cx="207" cy="250" r="199" fill="#00237C"/><circle cx="208" cy="249" r="177" stroke="#fff" stroke-width="4" stroke-dasharray="15 15"/><g clip-path="url(#clip0)"><path d="M128.23 200.133h-.046a125.135 125.135 0 01-2.356-25.367c0-38.26 41.586-51.013 83.172-51.013 37.428 0 33.269-12.753 33.269-12.753s49.904 21.255 49.904 63.766c.09 8.516-.715 17.019-2.403 25.367H128.23z" fill="#A56A43"/><path d="M246.044 318.806c-9.916-6.621-12.684-19.693-13.571-26.998h-46.946c-.832 6.875-3.336 18.861-11.903 25.769L209 346.655l37.044-27.849zm31.25-83.047h5.638a18.484 18.484 0 006.838-35.626 17.858 17.858 0 00-6.838-1.34H135.069a17.858 17.858 0 00-6.838 1.34 18.483 18.483 0 006.838 35.626h142.225z" fill="#F9C795"/><path d="M183.988 291.281a71.073 71.073 0 0050.024 0 91.407 91.407 0 0012.841-5.841c24.138-13.936 33.306-44.289 30.959-69.68-.134-1.455-.925-14.079-1.807-23.154a10.821 10.821 0 00-10.004-9.703c-13.922-1.022-41.448-4.917-54.15-19.749a3.696 3.696 0 00-5.683 0c-12.703 14.832-40.228 18.727-54.15 19.749a10.821 10.821 0 00-10.004 9.703c-.896 9.075-1.673 21.717-1.807 23.154-2.356 25.414 6.811 55.744 30.959 69.68a91.412 91.412 0 0012.822 5.841z" fill="#FDD7AD"/><path d="M208.201 364.805c1.936-31.397 2.726-43.254-26.925-55.115-.324-.139-.601-.231-.924-.37-19.536-7.837-59.894-24.582-73.238-30.127a4.62 4.62 0 00-6.072 2.657l-9.962 26.546 117.121 56.409z" fill="#F9EAB0"/><path d="M209.813 365.087c-1.94-31.606-2.828-43.504 26.911-55.398.324-.138.601-.231.924-.369 19.537-7.855 59.894-24.596 73.238-30.15a4.62 4.62 0 016.072 2.657l9.962 26.569-117.107 56.691z" fill="#F5EFCA"/><path d="M174.298 361.857c-21.994 12.522-39.876 12.522-57.712 12.522v-41.586l57.712 29.064zm69.403 0c21.995 12.522 39.877 12.522 57.713 12.522v-36.965l-57.713 24.443z" fill="#F9C795"/><path d="M181.276 240.379c7.656 0 13.862-6.206 13.862-13.862 0-7.655-6.206-13.862-13.862-13.862s-13.862 6.207-13.862 13.862c0 7.656 6.206 13.862 13.862 13.862zm69.31-13.862c0 7.656-6.206 13.862-13.862 13.862s-13.862-6.206-13.862-13.862c-.009-.995.099-1.988.323-2.957a13.862 13.862 0 0115.026-10.805 13.862 13.862 0 0112.375 13.762z" fill="#ECF0F1"/><path d="M209 277.345a24.544 24.544 0 01-17.129-5.975 4.62 4.62 0 016.469-6.58 16.034 16.034 0 0010.66 3.313c3.825.2 7.595-.977 10.628-3.317a4.646 4.646 0 016.505.134 4.589 4.589 0 01-.027 6.469A24.543 24.543 0 01209 277.345z" fill="#802D40"/><path d="M213.621 254.241h-9.242a4.62 4.62 0 010-9.241h9.242a4.621 4.621 0 010 9.241z" fill="#F9C795"/><path d="M162.793 212.655a4.62 4.62 0 01-4.131-6.686c5.827-11.663 21.935-11.797 22.614-11.797a4.62 4.62 0 014.62 4.621 4.62 4.62 0 01-4.62 4.621c-.213 0-11.164.286-14.361 6.686a4.621 4.621 0 01-4.122 2.555zm92.414 0a4.62 4.62 0 01-4.159-2.555c-3.234-6.501-14.218-6.686-14.324-6.686a4.62 4.62 0 01-4.62-4.621 4.62 4.62 0 014.62-4.621c.679 0 16.787.134 22.642 11.797a4.623 4.623 0 01-4.159 6.686z" fill="#A56A43"/><path d="M183.586 238.069a8.087 8.087 0 10-.001-16.173 8.087 8.087 0 00.001 16.173zm50.827 0a8.087 8.087 0 100-16.173 8.087 8.087 0 000 16.173z" fill="#3F5C6C"/><path d="M190.518 245h-18.483a4.621 4.621 0 010-9.241h18.483a4.62 4.62 0 010 9.241zm55.448 0h-18.483a4.621 4.621 0 010-9.241h18.483a4.62 4.62 0 010 9.241z" fill="#F9C795"/><path d="M176.655 231.138a4.621 4.621 0 100-9.242 4.621 4.621 0 000 9.242zm50.828 0a4.621 4.621 0 100-9.242 4.621 4.621 0 000 9.242z" fill="#ECF0F1"/><path d="M97.226 332.701L77.957 325.4a4.65 4.65 0 01-2.449-6.423l5.037-10.119a4.62 4.62 0 015.822-2.264l4.713 1.802 99.437 38.259h36.966l99.437-38.259 4.713-1.802a4.62 4.62 0 015.822 2.264l5.037 10.119a4.65 4.65 0 01-2.449 6.423l-19.269 7.301-39.414 14.924-37.659 14.232-14.647 5.545h-40.108l-14.647-5.545-37.659-14.232-39.414-14.924z" fill="#A56A43"/><path d="M215.742 379h-13.484c-8.562 0-15.082-8.973-13.672-18.829l1.931-13.516h36.966l1.931 13.516c1.409 9.856-5.11 18.829-13.672 18.829z" fill="#805333"/><path d="M105.601 331.811l25.784 10.147a9.237 9.237 0 015.212 11.977l-3.382 8.594c-3.736 9.494-14.461 14.161-23.954 10.425l-8.595-3.383c-9.493-3.736-14.16-14.46-10.424-23.953l3.382-8.595c1.869-4.746 7.231-7.08 11.977-5.212zm212.019 37.902l-8.595 3.383c-9.493 3.736-20.217-.931-23.954-10.425l-3.382-8.594a9.237 9.237 0 015.212-11.977l25.784-10.147a9.237 9.237 0 0111.977 5.212l3.382 8.595c3.736 9.493-.931 20.217-10.424 23.953z" fill="#FDD7AD"/></g><defs><clipPath id="clip0"><path fill="#fff" transform="translate(75 111)" d="M0 0h268v268H0z"/></clipPath></defs></svg>