<svg width="201" height="201" fill="none" xmlns="http://www.w3.org/2000/svg"><path d="M160.799 142.376c12.951 0 23.45-10.499 23.45-23.45 0-12.951-10.499-23.45-23.45-23.45-12.951 0-23.449 10.499-23.449 23.45 0 12.951 10.498 23.45 23.449 23.45z" fill="#FDB62F"/><path d="M103.851 25.126h-6.7v63.65h6.7v-63.65z" fill="#6B962A"/><path d="M100.5 25.126h-6.7c-12.952 0-23.45-10.499-23.45-23.45h6.7c12.95 0 23.45 10.499 23.45 23.45z" fill="#88B337"/><path d="M117.25 102.176h-46.9v13.4h46.9v-13.4z" fill="#FFA83D"/><path d="M123.95 115.576h-46.9v13.4h46.9v-13.4z" fill="#FDB62F"/><path d="M117.25 128.976h-46.9v13.399h46.9v-13.399z" fill="#FFA83D"/><path d="M123.95 142.376h-46.9v13.4h46.9v-13.4z" fill="#FDB62F"/><path d="M123.95 155.776h-46.9v13.4h46.9v-13.4z" fill="#FFA83D"/><path d="M130.65 169.176h-46.9v13.4h46.9v-13.4z" fill="#FDB62F"/><path d="M123.95 182.576h-46.9v13.4h46.9v-13.4z" fill="#FFA83D"/><path d="M60.3 35.176H67c18.502 0 33.5 14.998 33.5 33.5h-6.7c-18.502 0-33.5-14.998-33.5-33.5z" fill="#88B337"/><path d="M130.65 1.676h-6.7c-12.951 0-23.45 10.499-23.45 23.45h6.7c12.951 0 23.45-10.499 23.45-23.45zm-23.45 67h-6.7c0-18.502 14.998-33.5 33.5-33.5h6.7c0 18.502-14.998 33.5-33.5 33.5z" fill="#6B962A"/><path d="M56.95 128.976h-46.9v13.399h46.9v-13.399z" fill="#FDB62F"/><path d="M56.95 142.376h-46.9v13.4h46.9v-13.4z" fill="#FFA83D"/><path d="M63.65 155.776h-46.9v13.4h46.9v-13.4z" fill="#FDB62F"/><path d="M56.95 169.176h-46.9v13.4h46.9v-13.4z" fill="#FFA83D"/><path d="M63.65 182.576h-46.9v13.4h46.9v-13.4zm120.6-40.2h-46.9v13.4h46.9v-13.4z" fill="#FDB62F"/><path d="M190.95 155.776h-46.9v13.4h46.9v-13.4z" fill="#FFA83D"/><path d="M190.95 169.176h-46.9v13.4h46.9v-13.4z" fill="#FDB62F"/><path d="M190.95 182.576h-46.9v13.4h46.9v-13.4zm-30.15-50.25c7.401 0 13.4-6 13.4-13.4 0-7.401-5.999-13.4-13.4-13.4-7.4 0-13.4 5.999-13.4 13.4 0 7.4 6 13.4 13.4 13.4z" fill="#FFA83D"/><path d="M160.8 132.326v-6.7c3.701 0 6.7-2.998 6.7-6.7h6.7c0 7.4-6 13.4-13.4 13.4zm-6.7-13.4h-6.701c0-7.4 6-13.4 13.4-13.4v6.7a6.698 6.698 0 00-6.699 6.7z" fill="#FD7B2F"/><path d="M167.499 35.176a16.278 16.278 0 00-13.399-13.4 16.277 16.277 0 0013.399-13.4 16.28 16.28 0 0013.4 13.4 16.28 16.28 0 00-13.4 13.4zM33.5 108.876a16.28 16.28 0 00-13.4-13.4 16.28 16.28 0 0013.4-13.4 16.28 16.28 0 0013.4 13.4 16.28 16.28 0 00-13.4 13.4zm90.45-20.1h-46.9v13.4h46.9v-13.4zm77.049-10.05h-10.05v-10.05h-6.7v10.05h-10.05v6.7h10.05v10.05h6.7v-10.05h10.05v-6.7z" fill="#FDB62F"/><path d="M201 192.626H0v6.7h201v-6.7zM67 78.726c-11.101 0-20.1-8.998-20.1-20.1v-3.35h6.7v3.35c0 7.4 6 13.4 13.4 13.4v6.7z" fill="#DBDBDB"/></svg>