<svg width="312" height="312" fill="none" xmlns="http://www.w3.org/2000/svg"><g clip-path="url(#clip0)"><path d="M194.012 285.864c7.92 0 13.924-7.124 12.614-14.935-7.11-42.376-43.964-74.665-88.36-74.665s-81.252 32.289-88.362 74.665c-1.31 7.811 4.694 14.935 12.614 14.935h151.494z" fill="#2152CD"/><path d="M73.315 208.344c-22.593 13.128-38.924 35.847-43.411 62.585-1.31 7.811 4.694 14.935 12.614 14.935h45.815c-21.095-22.436-21.095-61.287-15.018-77.52z" fill="#00237C"/><path d="M122.509 254.627c14.238-5.792 31.292-23.133 38.929-47.289-12.806-7.055-27.519-11.074-43.173-11.074-15.653 0-30.367 4.019-43.172 11.074 7.636 24.156 24.69 41.497 38.928 47.289a11.253 11.253 0 008.488 0z" fill="#FBF1CF"/><path d="M236.529 151.489c0-16.384-16.037-29.667-32.139-29.667-16.102 0-29.156 13.282-29.156 29.667 0 16.384 12.308 29.667 28.41 29.667 16.102-.001 32.885-13.283 32.885-29.667zM0 151.489c0-16.384 16.037-29.667 32.139-29.667 16.102 0 29.156 13.282 29.156 29.667 0 16.384-12.308 29.667-28.41 29.667S0 167.873 0 151.489z" fill="#FFBE9D"/><path d="M210.422 151.489c0 46.3-41.26 78.612-92.157 78.612-50.896 0-92.157-32.312-92.157-78.612s41.26-83.834 92.157-83.834c50.896 0 92.157 37.534 92.157 83.834z" fill="#FFD3BD"/><path d="M149.815 82.264c0 11.855 17.146 48.624 49.878 50.021 6.599.281 11.906-5.34 11.305-11.917-1.447-15.826-10.564-42.771-43.205-50.614l-17.978 12.51zm-63.101 0c0 11.855-17.145 48.624-49.877 50.021-6.599.281-11.907-5.34-11.305-11.917 1.447-15.826 10.564-42.771 43.205-50.614l17.977 12.51z" fill="#4E5660"/><path d="M34.343 93.76c6.301 12.591 18.29 21.162 31.279 26.454 13.92-12.2 21.092-30.284 21.092-37.95l-17.978-12.51C51.472 73.902 40.79 83.395 34.343 93.76zm133.451-24.007l-17.979 12.51c0 5.987 4.376 18.328 12.922 29.259 11.212-6.57 18.379-12.124 30.222-14.623a25.719 25.719 0 008.862-3.708c-6.484-10.141-17.079-19.365-34.027-23.438z" fill="#404656"/><path d="M48.745 74.864c0-32.258 93.554-54.779 143.626-8.014 4.02 3.755 2.084 10.487-3.299 11.622-27.92 5.889-35.806 24.163-71.145 29.617-28.307 4.368-69.182-7.432-69.182-33.225z" fill="#4E5660"/><path d="M246.069 26.136c-36.412 0-65.93 22.033-65.93 49.21 0 11.48 5.267 22.043 14.095 30.414.619.587.907 1.438.753 2.278-1.033 5.588-2.825 12.227-5.453 17.581-2.232 4.549 1.49 9.771 6.514 9.119 9.828-1.276 18.907-4.654 26.635-12.099a2.51 2.51 0 012.362-.638c6.604 1.657 13.673 2.557 21.024 2.557 36.413 0 65.931-22.033 65.931-49.211 0-27.178-29.518-49.21-65.931-49.21z" fill="#FBF1CF"/><path d="M266.988 91.875h-41.839a4.57 4.57 0 010-9.14h41.839a4.57 4.57 0 110 9.14zm9.947-23.915h-61.732a4.57 4.57 0 010-9.14h61.732a4.571 4.571 0 010 9.14z" fill="#89D47F"/><path d="M68.267 181.718c10.188 0 18.448-6.578 18.448-14.692s-8.26-14.691-18.448-14.691c-10.19 0-18.449 6.577-18.449 14.691s8.26 14.692 18.449 14.692zm99.997 0c10.188 0 18.448-6.578 18.448-14.692s-8.26-14.691-18.448-14.691c-10.189 0-18.449 6.577-18.449 14.691s8.26 14.692 18.449 14.692z" fill="#E8899E"/><path d="M133.139 155.738c0-9.192-6.659-10.056-14.874-10.056s-14.874.864-14.874 10.056c0 9.192 6.659 16.644 14.874 16.644s14.874-7.452 14.874-16.644zm-61.789-1.681a4.571 4.571 0 01-4.57-4.571v-7.533a4.57 4.57 0 019.14 0v7.533a4.571 4.571 0 01-4.57 4.571zm93.829 0a4.572 4.572 0 01-4.571-4.571v-7.533a4.57 4.57 0 019.141 0v7.533a4.57 4.57 0 01-4.57 4.571z" fill="#4E5660"/></g><defs><clipPath id="clip0"><path fill="#fff" d="M0 0h312v312H0z"/></clipPath></defs></svg>