<svg width="512" height="512" fill="none" xmlns="http://www.w3.org/2000/svg"><path d="M256 125.333a8 8 0 01-8-8V112a24.028 24.028 0 00-24-24 8 8 0 110-16 40.045 40.045 0 0140 40v5.333a8 8 0 01-8 8z" fill="#353744"/><path d="M388 232H228a36 36 0 110 72h160a36 36 0 100-72z" fill="#4B55A5"/><path d="M80 240h148a28 28 0 010 56H80v-56z" fill="#D7E6F0"/><path d="M228 304H64a8.001 8.001 0 01-5.657-13.657A8.001 8.001 0 0164 288h164a20 20 0 000-40H64a8.001 8.001 0 01-5.657-13.657A8.001 8.001 0 0164 232h164a36 36 0 110 72z" fill="#6478B9"/><path d="M333.333 232h1.334a36 36 0 110 72h32a36.004 36.004 0 0025.456-10.544A36.004 36.004 0 00402.667 268a36 36 0 00-36-36h-33.334z" fill="#353744"/><path d="M400 368H72a47.999 47.999 0 100 96h328v-96z" fill="#A5C3DC"/><path d="M272 368H72a47.999 47.999 0 100 96h200v-96z" fill="#D7E6F0"/><path d="M416 472H72a56 56 0 010-112h344a8 8 0 110 16H72a39.998 39.998 0 00-40 40 39.998 39.998 0 0040 40h344a8 8 0 110 16z" fill="#4B55A5"/><path d="M288 472H72a56 56 0 010-112h216a8 8 0 110 16H72a39.998 39.998 0 00-40 40 39.998 39.998 0 0040 40h216a8 8 0 110 16z" fill="#6478B9"/><path d="M166.141 472a6.145 6.145 0 003.406-1.031L192 456l22.453 14.969a6.145 6.145 0 007.749-.767 6.153 6.153 0 001.798-4.343V400h-64v65.859a6.153 6.153 0 001.798 4.343 6.153 6.153 0 004.343 1.798z" fill="#F04B37"/><path d="M488 304H104a8 8 0 00-8 8v40a8 8 0 008 8h384a8 8 0 008-8v-40a8 8 0 00-8-8z" fill="#FABE19"/><path d="M128 304h32v56h-32v-56zm304 0h32v56h-32v-56z" fill="#F5871E"/><path d="M288 104a47.815 47.815 0 00-32 12.232 47.994 47.994 0 00-72.279 9.657A47.989 47.989 0 00176 152c0 45.333 32 80 56 80h48c24 0 56-34.667 56-80a48 48 0 00-48-48z" fill="#D7322D"/><path d="M216 152c8.837 0 16-7.163 16-16s-7.163-16-16-16-16 7.163-16 16 7.163 16 16 16z" fill="#F04B37"/><path d="M296 40a8 8 0 018 8 39.998 39.998 0 01-40 40h-8v-8a39.998 39.998 0 0140-40z" fill="#6EA5D7"/></svg>