<svg width="1440" height="1637" fill="none" xmlns="http://www.w3.org/2000/svg"><path d="M115.7 1385.77c143.597-19.1 287.462-28.32 430.354-38.25 152.303-10.59 296.203 14.61 441.771 26.13 87.705 6.99 175.715 5.94 264.605-31.13 62.19-25.97 112.16-61.44 153.24-109.14 57.23-66.45 92.43-143.5 153.28-207.81 14.08-14.88 30.63-29.533 51.34-37.415 17.22-6.533 35.75-7.832 53.08-11.121 15.43-2.931 24.6-10.835 31.01-21.775 19.53-33.373 15.82-81.306 24.61-117.971 1.85-7.745 4.55-17.602 3.02-24.971-1.11-5.26-5.74-5.926-9.83-6.373-31.75-3.471-63.59-10.394-97.06-8.961-38.36 1.641-71.19 16.795-98.28 40.654-46.4 40.917-74.7 99.24-108.22 149.101-33.13 49.202-67.33 98.582-109.28 143.952-35.48 38.41-76.82 72.99-125.4 99.63-60.89 33.35-129.56 45.08-194.967 48.21-160.866 7.64-315.982-22.62-478.319-16.87-80.771 2.86-162.838 10.05-244.114 17.08-69.599 6.02-140.247 13.08-209.433 27.23-19.48 3.98-45.313 8.47-60.986 22.2-7.606 6.66-10.191 14.28-11.87 21.7-2.487 11.03-1.864 22.66 5.492 30.83 24.315 27.06 97.106 11.59 135.911 5.07" fill="#00237C"/><path d="M51.872 1287.21c77.843-13.51 155.7-21.17 233.199-27.64 50.923-4.26 101.843-7.99 152.737-11.8 77.634-5.83 153.745-4.17 229.362-.41 82.066 4.08 164.373 10.2 247.145 9.92 93.935-.31 188.125-10.8 274.505-62.92 68.65-41.46 121.49-97.79 166.95-156.15 28.24-36.28 53.88-73.599 79.1-111.016 23.53-34.897 44.33-72.067 76.09-103.34 42.73-42.062 95.82-56.211 153.11-70.272 21.22-5.21 39.44-16.759 55.09-30.084 37.53-31.937 65.95-72.118 91.67-111.133 3.36-5.095 6.79-10.39 10.06-15.913 6.51-11.001 12.05-22.259 16.58-33.672.37-.813.67-1.638.97-2.463 2.89-8.056 6.57-17.572 4.57-25.471-1.18-4.666-6.21-5.41-11.45-5.524-98.95-1.666-204.68 1.419-291.05 63.012-51.34 36.606-79.51 88.802-110.88 137.118-35.93 55.447-72.26 111.036-111.56 164.986-48.22 66.205-101.8 133.752-170.71 188.502-72.18 57.33-152.666 80.71-241.881 90.57-114.276 12.64-227.548 6.69-340.505 6.03-112.557-.66-226.052 8.64-339.959 18.68-68.478 6.03-138.332 12.59-205.956 26.9-19.71 4.17-39.807 9.47-58.13 19.21-13.243 7.01-27.347 16.13-35.801 27.33-5.365 7.14-7.606 18.67-2.22 24.77 10.116 11.5 35.602 7.25 52.08 4.97 25.604-3.56 51.349-9.09 76.895-14.21" fill="#CD142B"/><path d="M1.826 1216.2c71.025-15.37 142.276-23.48 213.169-30.09 49.02-4.54 98.156-8.42 147.163-12.48 79.355-6.58 157.682-6.69 235.946-6.61 85.474.06 171.693-.57 257.963-8.54 50.751-4.7 102.643-12.13 153.163-26.92 51.59-15.12 96.59-43.44 136.43-76.48 81.12-67.3 142.86-149.983 199.57-230.447 30.38-43.112 59.18-86.8 87.79-130.539 26.69-40.788 50.61-83.643 89.87-118.625 62.17-55.498 145.14-79.129 225.39-100.351 27.23-7.192 52.87-18.399 77.19-31.749 53.37-29.292 99.99-62.023 139.78-104.831a186.95 186.95 0 0014.2-16.586c7.29-10.031 14-20.77 16.4-32.029.15-.659.25-1.307.34-1.931 1.16-8.295-2.03-12.636-8.07-15.67-3.88-1.954-10.48-1.571-17.54-.613-129.6 17.552-273.76 31.842-386.33 106.403-58.11 38.49-87.75 91.81-121.28 144.848-41.61 65.86-83.35 131.872-127.69 196.621-56.73 82.863-117.46 168.049-195.74 240.623-37.39 34.645-81.44 65.886-131.92 84.216-43.228 15.68-89.17 25.27-133.453 32.45-114.027 18.49-228.016 21.77-341.469 26.64-108.625 4.64-217.338 15.18-326.506 26.46-61.189 6.32-123.55 12.69-183.741 26.27-18.608 4.19-37.275 9.83-55.143 17.8-21.856 9.75-46.746 20.8-62.915 36.08-6.525 6.18-16.575 15.97-14.992 23.67 3.61 17.74 94.893-13.36 112.525-17.59" fill="#979797"/></svg>