<svg width="256" height="256" fill="none" xmlns="http://www.w3.org/2000/svg"><circle cx="128" cy="128" r="128" fill="#fff"/><circle cx="128.5" cy="127.5" r="105" stroke="#CD142B" stroke-width="3" stroke-dasharray="15 15"/><path d="M180 84H81.2a2.6 2.6 0 00-2.6 2.6v39c0 4.318 5.408 7.556 16.533 9.898 9.501 2 22.097 3.102 35.467 3.102 13.369 0 25.965-1.102 35.466-3.102 11.126-2.342 16.534-5.58 16.534-9.898v-39A2.6 2.6 0 00180 84z" fill="#524AFF"/><path d="M81.2 84a2.6 2.6 0 00-2.6 2.6v39c0 4.318 5.408 7.556 16.533 9.898 2.959.623 6.218 1.159 9.707 1.601V84H81.2z" fill="#3B35B8"/><path d="M204.495 79.042l-72.8-33.8a2.6 2.6 0 00-2.19 0l-72.8 33.8a2.6 2.6 0 000 4.716l72.8 33.8a2.602 2.602 0 002.19 0l72.8-33.8a2.6 2.6 0 000-4.716z" fill="#9792FF"/><path d="M94.85 75.55c-3.054-3.187-5.565-6.809-7.557-10.71L56.705 79.042a2.6 2.6 0 000 4.716l72.8 33.8a2.602 2.602 0 002.19 0l35.899-16.667c-14.576-.103-29.502-4.009-43.169-8.44C113.7 88.874 103.3 84 94.85 75.55z" fill="#746EFF"/><path d="M57.8 146.4a2.6 2.6 0 01-2.6-2.6V81.4a2.6 2.6 0 012.6-2.6H128a2.6 2.6 0 010 5.2H60.4v59.8a2.6 2.6 0 01-2.6 2.6z" fill="#3B35B8"/><path d="M65.587 143.541l-2.6-26A2.6 2.6 0 0060.4 115.2h-5.2a2.6 2.6 0 00-2.587 2.341l-2.6 26A2.602 2.602 0 0052.6 146.4H63a2.603 2.603 0 002.587-2.859z" fill="#3B35B8"/><path d="M57.8 120.4a7.8 7.8 0 100-15.6 7.8 7.8 0 000 15.6z" fill="#524AFF"/><path d="M177.4 154.2c-15.6 0-31.2 5.2-52 5.2s-39-5.2-52-5.2c-10.051 0-18.2 8.148-18.2 18.2s8.149 18.2 18.2 18.2c15.6 0 31.2-7.8 52-7.8s39 5.2 52 5.2c7.8 0 18.2-5.548 18.2-15.6s-8.148-18.2-18.2-18.2z" fill="#FDE09B"/><path d="M73.4 190.6c10.052 0 18.2-8.148 18.2-18.2s-8.148-18.2-18.2-18.2c-10.051 0-18.2 8.148-18.2 18.2s8.149 18.2 18.2 18.2z" fill="#FCD069"/><path d="M73.4 180.2a7.8 7.8 0 100-15.6 7.8 7.8 0 000 15.6z" fill="#FBC137"/><path d="M204.27 172.4H103.242c-.669 0-1.234.507-1.292 1.173C100.893 185.714 81.2 190.6 73.4 190.6c26 0 28.6-5.2 57.2-5.2 18.86 0 31.852 5.073 46.8 5.073 13 0 27.01-5.745 28.166-16.642a1.3 1.3 0 00-1.296-1.431z" fill="#FEEFCD"/><path d="M184.178 183.695c-14.949 0-27.941-5.072-46.8-5.072-21.301 0-28.181 2.884-41.046 4.356-6.693 5.333-17.595 7.621-22.932 7.621 26 0 28.6-5.2 57.2-5.2 18.86 0 31.852 5.073 46.8 5.073 10.911 0 22.53-4.047 26.668-11.789-5.439 3.309-12.814 5.011-19.89 5.011z" fill="#FDE8B4"/><path d="M143.566 185.4h-15.6a2.6 2.6 0 00-2.6 2.6v20.8a2.6 2.6 0 003.422 2.467l6.978-5.067 6.978 5.066a2.604 2.604 0 002.343-.357 2.598 2.598 0 001.079-2.109V188a2.6 2.6 0 00-2.6-2.6z" fill="#E04D22"/><path d="M135.767 193.2c11.487 0 20.8-9.312 20.8-20.8 0-11.487-9.313-20.8-20.8-20.8-11.488 0-20.8 9.313-20.8 20.8 0 11.488 9.312 20.8 20.8 20.8z" fill="#E7714E"/><path d="M135.766 182.8c5.744 0 10.4-4.656 10.4-10.4 0-5.744-4.656-10.4-10.4-10.4-5.744 0-10.4 4.656-10.4 10.4 0 5.744 4.656 10.4 10.4 10.4z" fill="#EDEAEE"/></svg>