<svg id="Capa_1" enable-background="new 0 0 512.049 512.049" height="512" viewBox="0 0 512.049 512.049" width="512" xmlns="http://www.w3.org/2000/svg"><g><g><path d="m275.024 149.499-38 .11c-68.31 7.44-125.01 53.53-147.77 115.94l-9.73 42c-.66 6.24-1 12.58-1 19 0 98.31 79.69 178 178 178 73.07 0 135.85-44.03 163.28-107l12.37-42c1.55-9.44 2.35-19.12 2.35-29 0-92.06-69.89-167.8-159.5-177.05zm121.59 205.87-15.93 42.18c-24.66 43.02-71.02 72-124.16 72-78.98 0-143-64.02-143-143 0-6.44.43-12.78 1.25-19l12.38-42c20.24-42.86 61.15-74.04 109.87-80.68l38-.13c70.24 9.07 124.5 69.1 124.5 141.81 0 9.87-1 19.51-2.91 28.82z" fill="#365f7e"/><path d="m275.024 149.499-38 .11c-6.79.74-13.46 1.86-20 3.35v36.11c6.49-1.86 13.17-3.27 20-4.2l38-.13c6.83.88 13.51 2.24 20 4.06v-36.07c-6.54-1.45-13.21-2.53-20-3.23z" fill="#2c4d66"/><path d="m97.984 245.549c-3.3 6.45-6.22 13.12-8.73 20l-9.73 42c-.66 6.24-1 12.58-1 19v1h35.01c-.01-.33-.01-.67-.01-1 0-6.44.43-12.78 1.25-19l12.38-42c3.3-7 7.16-13.68 11.51-20zm301.26 90c-.42 6.74-1.31 13.36-2.63 19.82l-15.93 42.18c-4.05 7.07-8.69 13.76-13.85 20h42.7c3.83-6.42 7.26-13.1 10.27-20l12.37-42c1.08-6.55 1.79-13.22 2.12-20z" fill="#365f7e"/><path d="m275.024 48.279v68.27l-19 10-19-10v-68.27z" fill="#e3e0e4"/><path d="m275.024 116.549v199.87l-38 .43v-200.3z" fill="#365f7e"/><path d="m275.024 285.529v30.89l-38 .43v-30.85c5.9-2.85 12.52-4.45 19.5-4.45 6.59 0 12.85 1.43 18.5 3.98z" fill="#2c4d66"/><g><path d="m238.757 328.616c-.752 0-1.517-.114-2.271-.354l-86.263-27.386c-3.948-1.253-6.132-5.47-4.879-9.418 1.254-3.948 5.472-6.13 9.418-4.879l86.263 27.386c3.948 1.253 6.132 5.47 4.879 9.418-1.014 3.194-3.967 5.233-7.147 5.233z" fill="#365f7e"/></g><g><path d="m388.984 372.225c-.695 0-1.401-.098-2.103-.302l-113.957-33.237c-3.977-1.16-6.26-5.323-5.101-9.3s5.322-6.26 9.3-5.101l113.957 33.237c3.977 1.16 6.26 5.324 5.101 9.3-.955 3.276-3.949 5.403-7.197 5.403z" fill="#365f7e"/></g><path d="m275.024 48.279v29.85c-6.33.28-12.66.42-19 .42s-12.67-.14-19-.42v-29.85z" fill="#c8c3ca"/><path d="m256.024 58.549c-32.186 0-64.373-3.777-95.664-11.331-10.74-2.593-17.357-13.449-14.778-24.249 2.578-10.799 13.377-17.453 24.116-14.859 56.474 13.632 116.179 13.632 172.653 0 10.737-2.595 21.536 4.059 24.116 14.859 2.579 10.8-4.038 21.656-14.778 24.249-31.292 7.554-63.478 11.331-95.665 11.331z" fill="#365f7e"/><path d="m366.464 22.969c-.23-.97-.53-1.9-.89-2.8-2.34 5.83-7.35 10.47-13.89 12.05-31.29 7.55-63.47 11.33-95.66 11.33-28.519 0-57.028-2.976-84.919-8.905-5.271-1.12-8.77-6.325-7.545-11.572.008-.034.016-.069.024-.103 1.5-6.3 5.81-11.19 11.27-13.65-1.72-.39-3.44-.8-5.16-1.21-9.773-2.359-19.583 2.961-23.208 12.087-.004-.009-.008-.018-.012-.027-.064.161-.116.329-.177.492-.069.188-.139.374-.203.564-.192.569-.369 1.147-.51 1.744-2.58 10.8 4.04 21.66 14.78 24.25 31.29 7.55 63.47 11.33 95.66 11.33s64.37-3.78 95.66-11.33c10.74-2.59 17.36-13.45 14.78-24.25z" fill="#2c4d66"/><circle cx="256.524" cy="326.549" fill="#365f7e" r="30"/><path d="m283.864 338.889c-4.69 10.42-15.17 17.66-27.34 17.66-16.57 0-30-13.43-30-30 0-12.17 7.24-22.65 17.66-27.34-1.71 3.76-2.66 7.94-2.66 12.34 0 16.57 13.43 30 30 30 4.4 0 8.58-.95 12.34-2.66z" fill="#2c4d66"/><path d="m419.804 397.549c-3.01 6.9-6.44 13.58-10.27 20h-42.7c5.16-6.24 9.8-12.93 13.85-20z" fill="#2c4d66"/><path d="m473.524 397.549h-116c-5.523 0-10-4.477-10-10v-22c0-5.523 4.477-10 10-10h116c5.523 0 10 4.477 10 10v22c0 5.522-4.477 10-10 10z" fill="#e3e0e4"/><path d="m138.664 245.549c-4.35 6.32-8.21 13-11.51 20l-12.38 42c-.82 6.22-1.25 12.56-1.25 19 0 .33 0 .67.01 1h-35.01v-1c0-6.42.34-12.76 1-19l9.73-42c2.51-6.88 5.43-13.55 8.73-20z" fill="#2c4d66"/><path d="m154.524 307.549h-116c-5.523 0-10-4.477-10-10v-22c0-5.523 4.477-10 10-10h116c5.523 0 10 4.477 10 10v22c0 5.522-4.477 10-10 10z" fill="#e3e0e4"/><g fill="#c8c3ca"><path d="m58.524 307.549h-20c-5.52 0-10-4.48-10-10v-22c0-5.52 4.48-10 10-10h20c-5.52 0-10 4.48-10 10v22c0 5.52 4.48 10 10 10z"/><path d="m377.524 397.549h-20c-5.52 0-10-4.48-10-10v-22c0-5.52 4.48-10 10-10h20c-5.52 0-10 4.48-10 10v22c0 5.52 4.48 10 10 10z"/></g></g><path d="m473.524 348.049h-32.743c.82-7.117 1.243-14.316 1.243-21.5 0-41.819-13.584-81.297-39.284-114.167-2.55-3.262-7.265-3.839-10.527-1.289-3.264 2.551-3.841 7.265-1.289 10.528 23.617 30.206 36.101 66.489 36.101 104.928 0 7.191-.456 14.396-1.348 21.5h-20.19c1.014-7.098 1.537-14.296 1.537-21.5 0-73.22-53.073-135.816-124.5-148.257v-20.268c31.475 4.803 60.747 18.25 85.094 39.183 1.416 1.217 3.155 1.813 4.887 1.813 2.109 0 4.207-.885 5.69-2.61 2.7-3.141 2.343-7.876-.798-10.577-27.078-23.28-59.755-38.056-94.873-42.974v-77.659c23.969-1.521 47.73-5.092 70.924-10.692 14.734-3.557 23.847-18.487 20.313-33.282-3.139-14.48-18.839-24.183-33.171-20.407-55.324 13.354-113.81 13.354-169.132 0-14.335-3.772-30.034 5.925-33.172 20.408-3.533 14.794 5.579 29.725 20.313 33.281 4.957 1.197 10.018 2.318 15.04 3.333 4.058.819 8.016-1.806 8.836-5.867.82-4.06-1.807-8.016-5.867-8.836-4.838-.977-9.713-2.058-14.489-3.21-6.713-1.621-10.859-8.446-9.243-15.216 1.428-6.586 8.535-11.026 15.062-9.311 57.628 13.91 118.546 13.911 176.174 0 6.526-1.714 13.632 2.725 15.06 9.312 1.616 6.77-2.53 13.595-9.243 15.216-45.206 10.942-92.985 13.842-139.381 8.55-4.115-.472-7.832 2.489-8.299 6.606-.468 4.116 2.49 7.831 6.605 8.298 6.847.777 13.75 1.376 20.67 1.815v77.806c-32.169 4.696-62.51 17.786-88.123 38.083-25.595 20.283-45.315 46.813-57.3 76.963h-45.577c-9.649 0-17.5 7.851-17.5 17.5v22c0 9.649 7.851 17.5 17.5 17.5h32.866c-.234 3.829-.366 7.673-.366 11.5 0 102.285 83.215 185.5 185.5 185.5 72.215 0 137.657-41.837 168.11-107h48.89c9.649 0 17.5-7.851 17.5-17.5v-22c0-9.651-7.85-17.501-17.5-17.501zm-81.5-21.5c0 7.214-.578 14.421-1.705 21.5h-31.724l-64.675-18.863c.879-11.286-3.716-22.302-11.397-29.621v-30.515c0-4.143-3.357-7.5-7.5-7.5s-7.5 3.357-7.5 7.5v21.649c-7.231-2.298-15.862-2.167-23 .331v-166.981h23v110c0 4.142 3.357 7.5 7.5 7.5s7.5-3.358 7.5-7.5v-40.502c62.996 12.237 109.501 67.962 109.501 133.002zm-237.5-68.5h-14.94c19.503-33.35 52.057-56.686 89.94-64.314v106.83c-2.271 2.359-4.24 5.01-5.837 7.897l-51.663-16.401v-16.512c0-9.65-7.85-17.5-17.5-17.5zm102 46c12.406 0 22.5 10.094 22.5 22.5s-10.094 22.5-22.5 22.5-22.5-10.094-22.5-22.5 10.094-22.5 22.5-22.5zm-.5-238c3.836 0 7.669-.058 11.5-.163v43.163h-23v-43.162c3.838.106 7.674.162 11.5.162zm-26.5 92.156v20.276c-46.188 8.345-85.588 37.584-107.044 79.568h-22.116c23.19-52.673 72.344-90.733 129.16-99.844zm-193.5 139.344v-22c0-1.379 1.121-2.5 2.5-2.5h116c1.379 0 2.5 1.121 2.5 2.5v21.927.072.001c0 1.379-1.121 2.5-2.5 2.5h-116c-1.379 0-2.5-1.122-2.5-2.5zm220.5 199.5c-94.014 0-170.5-76.486-170.5-170.5 0-3.829.143-7.674.397-11.5h20.054c-.289 3.824-.451 7.667-.451 11.5 0 19.385 3.635 38.259 10.805 56.098 1.543 3.883 6.01 5.696 9.756 4.162 3.844-1.545 5.707-5.912 4.162-9.756-6.451-16.052-9.723-33.044-9.723-50.504 0-3.835.18-7.681.5-11.5h33c6.198 0 11.641-3.248 14.751-8.123l49.939 15.854c-2.327 21.875 15.298 41.399 37.311 41.269 14.525 0 27.139-8.307 33.365-20.414l51.549 15.035c-.907 2.113-1.413 4.438-1.413 6.879v22c0 9.649 7.851 17.5 17.5 17.5h9.451c-25.269 35.455-66.47 57-110.451 57-43.248 0-84.262-20.92-109.712-55.962-2.435-3.352-7.124-4.094-10.476-1.661-3.352 2.435-4.096 7.124-1.661 10.476 28.264 38.915 73.814 62.147 121.849 62.147 52.347 0 101.144-27.481 128.418-72h22.976c-29.181 56.249-87.395 92-151.396 92zm219.5-109.5c0 1.379-1.121 2.5-2.5 2.5h-116c-1.379 0-2.5-1.121-2.5-2.5v-22c0-1.375 1.116-2.493 2.49-2.499.004 0 .009.001.013.001.008 0 .016-.002.024-.002h115.973c1.379 0 2.5 1.121 2.5 2.5z"/></g></svg>