<svg width="415" height="415" viewBox="0 0 415 415" fill="none" xmlns="http://www.w3.org/2000/svg">
<circle cx="207.5" cy="207.5" r="207.5" fill="#00237C"/>
<g clip-path="url(#clip0)">
<path d="M353.635 242.742C342 286.166 312.211 319.874 274.613 337.884C268.236 340.945 261.632 343.545 254.857 345.667C251.402 346.753 247.903 347.71 244.369 348.532C239.001 349.788 233.542 350.751 228.021 351.395C209.931 353.537 191.144 352.34 172.471 347.337C156.479 343.052 141.81 336.308 128.758 327.612C126.562 326.154 124.415 324.642 122.317 323.072C117.858 319.753 113.611 316.19 109.592 312.412C105.047 308.149 100.787 303.608 96.8345 298.831C93.9714 295.363 91.2637 291.768 88.7308 288.07C65.1871 253.672 56.2417 209.591 67.8756 166.172C89.0198 87.261 170.129 40.4328 249.04 61.577C327.952 82.7213 374.78 163.83 353.635 242.742Z" fill="#00237C"/>
<path d="M121.085 294.452C119.051 296.776 117.18 299.275 115.458 301.9C113.272 305.229 111.326 308.757 109.592 312.412C105.047 308.149 100.786 303.608 96.8343 298.831C93.9712 295.363 91.2635 291.768 88.7305 288.07C95.6455 274.559 101.874 268.853 101.874 268.853L123.769 273.795L121.085 294.452Z" fill="#E8B391"/>
<path d="M274.613 337.884C268.236 340.944 261.632 343.544 254.857 345.666C251.402 346.753 247.903 347.71 244.369 348.532C244.96 341.313 244.759 334.109 243.402 327.226L254.967 305.385L272.845 314.665C272.845 314.665 273.738 317.516 274.301 323.018C274.692 326.766 274.92 331.741 274.613 337.884Z" fill="#E8B391"/>
<path d="M284.435 309.72L243.402 327.226L236.518 319.683L228.02 351.395C209.93 353.537 191.144 352.34 172.471 347.337C153.797 342.333 136.923 333.975 122.317 323.072L130.814 291.359L121.085 294.452L109.229 278.657L94.3041 258.775L147.321 215.549C150.377 213.055 154.449 212.185 158.256 213.205L251.829 238.278C255.642 239.3 258.728 242.087 260.127 245.776L284.435 309.72Z" fill="#49AAB7"/>
<path d="M188.183 221.226L185.737 224.139C152.191 211.582 136.761 235.949 101.873 268.855L94.3047 258.775L147.324 215.55C150.38 213.057 154.447 212.187 158.256 213.207L188.183 221.226Z" fill="#488089"/>
<path d="M199.215 247.498C189.043 244.772 183.005 234.315 185.731 224.142L191.42 202.909L228.261 212.781L222.571 234.013C219.848 244.187 209.39 250.224 199.215 247.498Z" fill="#E8B391"/>
<path d="M191.043 152.345C188.691 161.12 179.673 166.328 170.898 163.977C162.123 161.626 156.915 152.606 159.267 143.83C161.617 135.057 170.637 129.85 179.413 132.201C188.188 134.552 193.393 143.572 191.043 152.345Z" fill="#E8B391"/>
<path d="M285.38 177.622C283.029 186.398 274.011 191.606 265.236 189.255C256.461 186.903 251.253 177.883 253.604 169.108C255.955 160.335 264.975 155.127 273.75 157.479C282.526 159.83 287.731 168.849 285.38 177.622Z" fill="#E8B391"/>
<path d="M207.016 218.382C180.894 211.383 165.39 184.532 172.39 158.407L188.66 97.6846L283.264 123.034L266.994 183.756C259.994 209.881 233.142 225.382 207.016 218.382Z" fill="#FFCBA7"/>
<path d="M213.913 219.713C211.617 219.439 209.32 218.997 207.02 218.38C180.895 211.38 165.39 184.534 172.39 158.407L188.66 97.6865L202.195 101.313L185.925 162.033C179.54 185.86 191.875 210.289 213.913 219.713Z" fill="#E8B391"/>
<path d="M195.904 110.629L179.288 114.072L170.304 147.601C178.39 149.768 186.702 144.969 188.869 136.883L195.904 110.629Z" fill="#3E4654"/>
<path d="M239.337 79.4044C213.181 72.3961 186.295 87.9187 179.287 114.072L268.546 137.989L263.485 156.876C261.318 164.962 266.117 173.274 274.201 175.441L287.343 126.395C292.055 108.81 281.621 90.7345 264.034 86.022L239.337 79.4044Z" fill="#3E4654"/>
<path d="M261.546 85.3553L239.336 79.4043C213.181 72.396 186.297 87.9192 179.289 114.073L201.498 120.024C208.504 93.8696 235.39 78.347 261.546 85.3553Z" fill="#216E82"/>
<path d="M212.216 152.908C213.525 148.025 210.627 143.005 205.743 141.696C200.859 140.387 195.841 143.286 194.533 148.17" fill="#38435C"/>
<path d="M252.744 163.767C254.052 158.883 251.156 153.864 246.272 152.555C241.389 151.247 236.369 154.145 235.06 159.029" fill="#38435C"/>
<path d="M228.993 166.381L213.985 162.359C211.414 161.671 208.774 163.197 208.085 165.767C207.396 168.338 208.92 170.98 211.49 171.669L226.498 175.69C229.069 176.379 231.712 174.853 232.4 172.283C233.089 169.712 231.563 167.07 228.993 166.381Z" fill="#E8B391"/>
<path d="M195.574 172.667C192.303 184.875 199.546 197.425 211.755 200.696C223.964 203.968 236.515 196.722 239.786 184.513" fill="white"/>
<path d="M139.875 286.118L128.757 327.612C126.561 326.154 124.414 324.642 122.316 323.072L130.813 291.359L139.875 286.118Z" fill="#488089"/>
<path d="M115.458 301.9C113.272 305.228 111.326 308.757 109.592 312.412C105.047 308.149 100.786 303.607 96.8343 298.831C99.8121 293.621 107.065 292.751 111.18 297.242L115.458 301.9Z" fill="#FFCBA7"/>
<path d="M274.613 337.884C268.236 340.944 261.632 343.544 254.857 345.666C255.281 343.361 255.631 341.305 255.92 339.556C256.598 335.412 259.106 331.791 262.744 329.691L274.301 323.018C274.692 326.766 274.92 331.741 274.613 337.884Z" fill="#FFCBA7"/>
<path d="M236.521 319.683L241.33 301.734L253.551 322.901L243.404 327.229L236.521 319.683Z" fill="#488089"/>
<path d="M241.362 124.485L241.337 124.499C236.026 126.556 230.378 128.405 224.475 129.987C185.737 140.371 150.709 135.238 146.229 118.534C141.755 101.828 169.526 79.8717 208.262 69.4939C216.96 67.1628 225.47 65.6109 233.489 64.8013C261.189 62.0004 283.034 67.994 286.51 80.9477C290.298 95.1019 270.937 113.029 241.362 124.485Z" fill="#ED5972"/>
<path d="M241.362 124.485L241.337 124.499C236.026 126.556 230.378 128.405 224.475 129.987C185.737 140.371 150.709 135.238 146.229 118.534C141.755 101.829 169.526 79.8717 208.262 69.4939C216.96 67.1628 225.47 65.6109 233.489 64.8014C208.262 69.4939 192.086 95.5905 195.901 110.628C199.718 125.667 241.362 124.485 241.362 124.485Z" fill="#CD142B"/>
<path d="M212.994 87.0786L212.995 57.634L187.496 72.3555L212.994 87.0786Z" fill="#3E4654"/>
<path d="M229.341 303.052C231.024 296.771 228.209 290.558 223.058 289.178C217.904 287.797 212.362 291.771 210.679 298.052C208.996 304.331 211.809 310.543 216.963 311.924C222.115 313.304 227.659 309.331 229.341 303.052Z" fill="#CD142B"/>
<path d="M175.8 292.923C176.641 289.784 175.235 286.678 172.658 285.987C170.081 285.297 167.31 287.284 166.469 290.423C165.627 293.565 167.034 296.669 169.611 297.359C172.188 298.05 174.958 296.065 175.8 292.923Z" fill="#ED5972"/>
<path d="M156.677 315.303C157.519 312.161 156.112 309.057 153.535 308.367C150.958 307.676 148.187 309.661 147.346 312.803C146.504 315.942 147.911 319.048 150.488 319.739C153.065 320.429 155.836 318.442 156.677 315.303Z" fill="#F7D65E"/>
<path d="M202.799 318.13C204.267 312.653 202.062 307.305 197.873 306.183C193.688 305.061 189.104 308.59 187.636 314.067C186.169 319.541 188.374 324.89 192.56 326.011C196.748 327.133 201.332 323.604 202.799 318.13Z" fill="#F7D65E"/>
<path d="M173.257 280.505C180.104 275.437 182.513 267.084 178.637 261.849C174.762 256.611 166.07 256.477 159.223 261.545C152.376 266.613 149.968 274.964 153.843 280.201C157.719 285.436 166.411 285.571 173.257 280.505Z" fill="#CD142B"/>
</g>
<circle cx="209" cy="208" r="180" stroke="white" stroke-width="6" stroke-dasharray="15 15"/>
<defs>
<clipPath id="clip0">
<rect width="295.84" height="295.84" fill="white" transform="translate(106.568 24) rotate(15)"/>
</clipPath>
</defs>
</svg>
