<svg width="615" height="650" viewBox="0 0 615 650" fill="none" xmlns="http://www.w3.org/2000/svg">
<path d="M432.779 539.619C420.222 555.126 398.378 558.051 382.199 544.949C373.963 538.28 369.921 530.386 369.196 521.967C368.461 513.426 371.102 503.81 377.263 493.849C382.792 484.91 390.995 481.321 400.102 481.116C409.429 480.905 419.619 484.296 428.02 489.419C435.356 493.891 439.824 502.276 440.755 511.955C441.684 521.622 438.992 531.947 432.779 539.619Z" stroke="#00237C" stroke-width="10"/>
<path d="M434.049 74.996C446.127 84.7768 462.532 82.5593 471.884 71.0102C481.237 59.461 479.732 40.3766 467.917 33.1728C456.101 25.969 438.696 23.23 430.081 37.1586C421.466 51.0873 421.97 65.2151 434.049 74.996Z" fill="#00237C"/>
<rect y="230" width="615" height="222" rx="100" fill="#00237C"/>
<path d="M65.774 320V293.096H83.862V298.606H72.044V303.66H83.216V308.866H72.044V314.452H84.546V320H65.774ZM103.6 320V309.664C103.6 309.132 103.549 308.625 103.448 308.144C103.372 307.663 103.233 307.245 103.03 306.89C102.827 306.51 102.536 306.219 102.156 306.016C101.801 305.788 101.345 305.674 100.788 305.674C100.231 305.674 99.7367 305.788 99.306 306.016C98.9007 306.219 98.5587 306.51 98.28 306.89C98.0014 307.27 97.786 307.713 97.634 308.22C97.5074 308.701 97.444 309.208 97.444 309.74V320H91.174V301.076H97.216V303.698H97.292C97.52 303.293 97.8114 302.9 98.166 302.52C98.546 302.115 98.9767 301.773 99.458 301.494C99.9647 301.215 100.509 300.987 101.092 300.81C101.675 300.633 102.295 300.544 102.954 300.544C104.221 300.544 105.297 300.772 106.184 301.228C107.071 301.684 107.78 302.279 108.312 303.014C108.869 303.723 109.262 304.547 109.49 305.484C109.743 306.421 109.87 307.359 109.87 308.296V320H103.6ZM137.314 318.214C137.314 320.063 137.048 321.672 136.516 323.04C135.984 324.408 135.237 325.535 134.274 326.422C133.311 327.334 132.133 328.005 130.74 328.436C129.372 328.892 127.852 329.12 126.18 329.12C124.508 329.12 122.785 328.867 121.012 328.36C119.264 327.853 117.744 327.119 116.452 326.156L119.568 321.71C120.48 322.521 121.481 323.116 122.57 323.496C123.685 323.901 124.774 324.104 125.838 324.104C127.662 324.104 129.005 323.623 129.866 322.66C130.753 321.697 131.196 320.418 131.196 318.822V317.682H131.082C130.499 318.442 129.714 319.05 128.726 319.506C127.738 319.962 126.611 320.19 125.344 320.19C123.9 320.19 122.621 319.937 121.506 319.43C120.391 318.898 119.441 318.189 118.656 317.302C117.896 316.415 117.313 315.389 116.908 314.224C116.503 313.033 116.3 311.779 116.3 310.462C116.3 309.145 116.503 307.891 116.908 306.7C117.313 305.509 117.896 304.458 118.656 303.546C119.441 302.634 120.391 301.912 121.506 301.38C122.621 300.823 123.887 300.544 125.306 300.544C126.497 300.544 127.637 300.785 128.726 301.266C129.815 301.747 130.689 302.495 131.348 303.508H131.424V301.076H137.314V318.214ZM131.386 310.424C131.386 309.791 131.272 309.183 131.044 308.6C130.841 308.017 130.537 307.511 130.132 307.08C129.727 306.624 129.245 306.269 128.688 306.016C128.131 305.763 127.497 305.636 126.788 305.636C126.079 305.636 125.445 305.763 124.888 306.016C124.356 306.269 123.9 306.611 123.52 307.042C123.14 307.473 122.849 307.979 122.646 308.562C122.443 309.145 122.342 309.765 122.342 310.424C122.342 311.057 122.443 311.665 122.646 312.248C122.849 312.831 123.14 313.35 123.52 313.806C123.9 314.237 124.356 314.591 124.888 314.87C125.445 315.123 126.079 315.25 126.788 315.25C127.497 315.25 128.131 315.123 128.688 314.87C129.271 314.591 129.752 314.237 130.132 313.806C130.537 313.375 130.841 312.869 131.044 312.286C131.272 311.703 131.386 311.083 131.386 310.424ZM144.998 320V291.272H151.306V320H144.998ZM165.664 295.034C165.664 295.515 165.563 295.971 165.36 296.402C165.183 296.807 164.929 297.162 164.6 297.466C164.296 297.77 163.916 298.011 163.46 298.188C163.029 298.365 162.573 298.454 162.092 298.454C161.079 298.454 160.23 298.125 159.546 297.466C158.862 296.782 158.52 295.971 158.52 295.034C158.52 294.578 158.609 294.147 158.786 293.742C158.963 293.311 159.217 292.944 159.546 292.64C159.875 292.336 160.255 292.095 160.686 291.918C161.117 291.715 161.585 291.614 162.092 291.614C162.573 291.614 163.029 291.703 163.46 291.88C163.916 292.057 164.296 292.298 164.6 292.602C164.929 292.906 165.183 293.273 165.36 293.704C165.563 294.109 165.664 294.553 165.664 295.034ZM158.976 320V301.076H165.208V320H158.976ZM183.938 306.662C183.432 306.181 182.836 305.775 182.152 305.446C181.468 305.117 180.746 304.952 179.986 304.952C179.404 304.952 178.859 305.066 178.352 305.294C177.871 305.522 177.63 305.915 177.63 306.472C177.63 307.004 177.896 307.384 178.428 307.612C178.986 307.84 179.872 308.093 181.088 308.372C181.798 308.524 182.507 308.739 183.216 309.018C183.951 309.297 184.61 309.664 185.192 310.12C185.775 310.576 186.244 311.133 186.598 311.792C186.953 312.451 187.13 313.236 187.13 314.148C187.13 315.339 186.89 316.352 186.408 317.188C185.927 317.999 185.294 318.657 184.508 319.164C183.748 319.671 182.887 320.038 181.924 320.266C180.962 320.494 179.999 320.608 179.036 320.608C177.491 320.608 175.971 320.367 174.476 319.886C173.007 319.379 171.778 318.645 170.79 317.682L174.286 313.996C174.844 314.604 175.528 315.111 176.338 315.516C177.149 315.921 178.01 316.124 178.922 316.124C179.429 316.124 179.923 316.01 180.404 315.782C180.911 315.529 181.164 315.098 181.164 314.49C181.164 313.907 180.86 313.477 180.252 313.198C179.644 312.919 178.694 312.628 177.402 312.324C176.744 312.172 176.085 311.969 175.426 311.716C174.768 311.463 174.172 311.121 173.64 310.69C173.134 310.259 172.716 309.727 172.386 309.094C172.057 308.461 171.892 307.701 171.892 306.814C171.892 305.674 172.133 304.711 172.614 303.926C173.096 303.115 173.716 302.457 174.476 301.95C175.236 301.443 176.072 301.076 176.984 300.848C177.922 300.595 178.846 300.468 179.758 300.468C181.177 300.468 182.558 300.696 183.9 301.152C185.268 301.583 186.421 302.241 187.358 303.128L183.938 306.662ZM205.852 320V309.74C205.852 309.208 205.814 308.701 205.738 308.22C205.662 307.739 205.51 307.321 205.282 306.966C205.079 306.586 204.801 306.295 204.446 306.092C204.091 305.864 203.635 305.75 203.078 305.75C201.989 305.75 201.153 306.143 200.57 306.928C199.987 307.688 199.696 308.638 199.696 309.778V320H193.464V291.272H199.696V303.47H199.772C200.203 302.71 200.887 302.039 201.824 301.456C202.761 300.848 203.889 300.544 205.206 300.544C206.498 300.544 207.575 300.772 208.436 301.228C209.323 301.684 210.032 302.279 210.564 303.014C211.121 303.723 211.514 304.547 211.742 305.484C211.995 306.421 212.122 307.359 212.122 308.296V320H205.852ZM260.047 306.434C260.047 308.562 259.68 310.513 258.945 312.286C258.211 314.034 257.185 315.541 255.867 316.808C254.575 318.049 253.03 319.012 251.231 319.696C249.433 320.38 247.482 320.722 245.379 320.722C243.277 320.722 241.326 320.38 239.527 319.696C237.754 319.012 236.209 318.049 234.891 316.808C233.599 315.541 232.586 314.034 231.851 312.286C231.117 310.513 230.749 308.562 230.749 306.434C230.749 304.281 231.117 302.343 231.851 300.62C232.586 298.872 233.599 297.39 234.891 296.174C236.209 294.958 237.754 294.021 239.527 293.362C241.326 292.703 243.277 292.374 245.379 292.374C247.482 292.374 249.433 292.703 251.231 293.362C253.03 294.021 254.575 294.958 255.867 296.174C257.185 297.39 258.211 298.872 258.945 300.62C259.68 302.343 260.047 304.281 260.047 306.434ZM253.093 306.434C253.093 305.269 252.903 304.179 252.523 303.166C252.143 302.153 251.611 301.291 250.927 300.582C250.269 299.847 249.458 299.277 248.495 298.872C247.558 298.441 246.519 298.226 245.379 298.226C244.239 298.226 243.201 298.441 242.263 298.872C241.326 299.277 240.515 299.847 239.831 300.582C239.147 301.291 238.615 302.153 238.235 303.166C237.881 304.179 237.703 305.269 237.703 306.434C237.703 307.65 237.893 308.777 238.273 309.816C238.653 310.829 239.173 311.703 239.831 312.438C240.515 313.173 241.326 313.755 242.263 314.186C243.201 314.591 244.239 314.794 245.379 314.794C246.519 314.794 247.558 314.591 248.495 314.186C249.433 313.755 250.243 313.173 250.927 312.438C251.611 311.703 252.143 310.829 252.523 309.816C252.903 308.777 253.093 307.65 253.093 306.434ZM279.069 320V309.664C279.069 309.132 279.019 308.625 278.917 308.144C278.841 307.663 278.702 307.245 278.499 306.89C278.297 306.51 278.005 306.219 277.625 306.016C277.271 305.788 276.815 305.674 276.257 305.674C275.7 305.674 275.206 305.788 274.775 306.016C274.37 306.219 274.028 306.51 273.749 306.89C273.471 307.27 273.255 307.713 273.103 308.22C272.977 308.701 272.913 309.208 272.913 309.74V320H266.643V301.076H272.685V303.698H272.761C272.989 303.293 273.281 302.9 273.635 302.52C274.015 302.115 274.446 301.773 274.927 301.494C275.434 301.215 275.979 300.987 276.561 300.81C277.144 300.633 277.765 300.544 278.423 300.544C279.69 300.544 280.767 300.772 281.653 301.228C282.54 301.684 283.249 302.279 283.781 303.014C284.339 303.723 284.731 304.547 284.959 305.484C285.213 306.421 285.339 307.359 285.339 308.296V320H279.069ZM292.796 320V291.272H299.104V320H292.796ZM317.376 322.85C316.996 323.838 316.565 324.712 316.084 325.472C315.628 326.257 315.071 326.916 314.412 327.448C313.779 328.005 313.019 328.423 312.132 328.702C311.271 328.981 310.245 329.12 309.054 329.12C308.471 329.12 307.863 329.082 307.23 329.006C306.622 328.93 306.09 328.829 305.634 328.702L306.318 323.458C306.622 323.559 306.951 323.635 307.306 323.686C307.686 323.762 308.028 323.8 308.332 323.8C309.295 323.8 309.991 323.572 310.422 323.116C310.853 322.685 311.22 322.065 311.524 321.254L312.132 319.696L304.228 301.076H311.144L315.362 313.236H315.476L319.238 301.076H325.85L317.376 322.85ZM332.058 310.994V293.096H338.442V310.994H332.058ZM338.974 316.77C338.974 317.277 338.873 317.758 338.67 318.214C338.493 318.645 338.227 319.025 337.872 319.354C337.543 319.658 337.15 319.899 336.694 320.076C336.238 320.279 335.757 320.38 335.25 320.38C334.744 320.38 334.262 320.291 333.806 320.114C333.376 319.937 332.996 319.683 332.666 319.354C332.337 319.025 332.071 318.645 331.868 318.214C331.666 317.783 331.564 317.315 331.564 316.808C331.564 316.327 331.653 315.871 331.83 315.44C332.033 314.984 332.299 314.591 332.628 314.262C332.958 313.933 333.35 313.679 333.806 313.502C334.262 313.299 334.744 313.198 335.25 313.198C335.757 313.198 336.238 313.299 336.694 313.502C337.15 313.679 337.543 313.933 337.872 314.262C338.227 314.566 338.493 314.946 338.67 315.402C338.873 315.833 338.974 316.289 338.974 316.77Z" fill="white"/>
<path d="M67.2202 365.192C65.5242 365.192 63.9962 364.824 62.6362 364.088C61.2762 363.336 60.2042 362.304 59.4202 360.992C58.6522 359.68 58.2682 358.216 58.2682 356.6C58.2682 354.984 58.6522 353.52 59.4202 352.208C60.2042 350.896 61.2762 349.872 62.6362 349.136C63.9962 348.384 65.5242 348.008 67.2202 348.008C68.9002 348.008 70.4202 348.384 71.7802 349.136C73.1402 349.872 74.2042 350.896 74.9722 352.208C75.7402 353.504 76.1242 354.968 76.1242 356.6C76.1242 358.232 75.7402 359.704 74.9722 361.016C74.2042 362.312 73.1402 363.336 71.7802 364.088C70.4202 364.824 68.9002 365.192 67.2202 365.192ZM67.2202 363.056C68.4522 363.056 69.5562 362.776 70.5322 362.216C71.5242 361.656 72.3002 360.888 72.8602 359.912C73.4362 358.92 73.7242 357.816 73.7242 356.6C73.7242 355.384 73.4362 354.288 72.8602 353.312C72.3002 352.32 71.5242 351.544 70.5322 350.984C69.5562 350.424 68.4522 350.144 67.2202 350.144C65.9882 350.144 64.8682 350.424 63.8602 350.984C62.8682 351.544 62.0842 352.32 61.5082 353.312C60.9482 354.288 60.6682 355.384 60.6682 356.6C60.6682 357.816 60.9482 358.92 61.5082 359.912C62.0842 360.888 62.8682 361.656 63.8602 362.216C64.8682 362.776 65.9882 363.056 67.2202 363.056ZM87.78 352.712C88.964 352.712 90.02 352.976 90.948 353.504C91.876 354.032 92.596 354.768 93.108 355.712C93.636 356.64 93.9 357.704 93.9 358.904C93.9 360.136 93.62 361.232 93.06 362.192C92.516 363.136 91.74 363.872 90.732 364.4C89.74 364.928 88.604 365.192 87.324 365.192C85.164 365.192 83.492 364.456 82.308 362.984C81.14 361.496 80.556 359.408 80.556 356.72C80.556 354.112 81.092 352.072 82.164 350.6C83.236 349.112 84.876 348.128 87.084 347.648L92.892 346.352L93.228 348.464L87.876 349.616C86.212 349.984 84.972 350.608 84.156 351.488C83.34 352.368 82.876 353.632 82.764 355.28C83.308 354.464 84.012 353.832 84.876 353.384C85.74 352.936 86.708 352.712 87.78 352.712ZM87.372 363.272C88.188 363.272 88.908 363.088 89.532 362.72C90.172 362.352 90.668 361.848 91.02 361.208C91.372 360.552 91.548 359.808 91.548 358.976C91.548 357.712 91.164 356.696 90.396 355.928C89.628 355.16 88.62 354.776 87.372 354.776C86.124 354.776 85.108 355.16 84.324 355.928C83.556 356.696 83.172 357.712 83.172 358.976C83.172 359.808 83.348 360.552 83.7 361.208C84.068 361.848 84.572 362.352 85.212 362.72C85.852 363.088 86.572 363.272 87.372 363.272ZM116.991 352.28V365H98.8706V352.28H101.175V362.984H106.791V352.28H109.095V362.984H114.687V352.28H116.991ZM118.887 362.984V367.712H116.727V365H114.591V362.984H118.887ZM134.736 352.28V365H132.528V363.128C132.064 363.768 131.456 364.264 130.704 364.616C129.952 364.968 129.128 365.144 128.232 365.144C126.536 365.144 125.2 364.68 124.224 363.752C123.248 362.808 122.76 361.424 122.76 359.6V352.28H125.064V359.336C125.064 360.568 125.36 361.504 125.952 362.144C126.544 362.768 127.392 363.08 128.496 363.08C129.712 363.08 130.672 362.712 131.376 361.976C132.08 361.24 132.432 360.2 132.432 358.856V352.28H134.736ZM152.494 352.28V365H150.286V363.128C149.822 363.768 149.214 364.264 148.462 364.616C147.71 364.968 146.886 365.144 145.99 365.144C144.294 365.144 142.958 364.68 141.982 363.752C141.006 362.808 140.518 361.424 140.518 359.6V352.28H142.822V359.336C142.822 360.568 143.118 361.504 143.71 362.144C144.302 362.768 145.15 363.08 146.254 363.08C147.47 363.08 148.43 362.712 149.134 361.976C149.838 361.24 150.19 360.2 150.19 358.856V352.28H152.494ZM146.494 350.624C145.31 350.624 144.39 350.344 143.734 349.784C143.078 349.208 142.742 348.384 142.726 347.312H144.286C144.302 347.904 144.502 348.384 144.886 348.752C145.286 349.104 145.814 349.28 146.47 349.28C147.126 349.28 147.654 349.104 148.054 348.752C148.454 348.384 148.662 347.904 148.678 347.312H150.286C150.27 348.384 149.926 349.208 149.254 349.784C148.582 350.344 147.662 350.624 146.494 350.624ZM176.986 352.28V365H174.922V360.968H171.226H170.962L168.178 365H165.706L168.802 360.656C167.842 360.368 167.106 359.896 166.594 359.24C166.082 358.568 165.826 357.736 165.826 356.744C165.826 355.288 166.322 354.184 167.314 353.432C168.306 352.664 169.674 352.28 171.418 352.28H176.986ZM168.178 356.816C168.178 357.664 168.442 358.296 168.97 358.712C169.514 359.112 170.322 359.312 171.394 359.312H174.922V354.296H171.49C169.282 354.296 168.178 355.136 168.178 356.816ZM189.838 358.376C190.686 358.6 191.342 358.96 191.806 359.456C192.27 359.952 192.502 360.568 192.502 361.304C192.502 362.056 192.246 362.728 191.734 363.32C191.222 363.896 190.51 364.352 189.598 364.688C188.702 365.008 187.694 365.168 186.574 365.168C185.63 365.168 184.702 365.048 183.79 364.808C182.894 364.552 182.094 364.192 181.39 363.728L182.086 361.976C182.694 362.36 183.39 362.664 184.174 362.888C184.958 363.096 185.75 363.2 186.55 363.2C187.638 363.2 188.502 363.016 189.142 362.648C189.798 362.264 190.126 361.752 190.126 361.112C190.126 360.52 189.862 360.064 189.334 359.744C188.822 359.424 188.094 359.264 187.15 359.264H184.822V357.608H186.982C187.846 357.608 188.526 357.456 189.022 357.152C189.518 356.848 189.766 356.432 189.766 355.904C189.766 355.328 189.47 354.88 188.878 354.56C188.302 354.24 187.518 354.08 186.526 354.08C185.262 354.08 183.926 354.408 182.518 355.064L181.894 353.288C183.446 352.504 185.07 352.112 186.766 352.112C187.79 352.112 188.71 352.256 189.526 352.544C190.342 352.832 190.982 353.24 191.446 353.768C191.91 354.296 192.142 354.896 192.142 355.568C192.142 356.192 191.934 356.752 191.518 357.248C191.102 357.744 190.542 358.12 189.838 358.376ZM202.965 365.288C201.141 365.288 199.749 364.856 198.789 363.992C197.845 363.112 197.373 361.856 197.373 360.224V352.28H199.677V357.2C200.045 356.832 200.557 356.52 201.213 356.264C201.885 356.008 202.653 355.88 203.517 355.88C205.069 355.88 206.277 356.28 207.141 357.08C208.021 357.864 208.461 358.968 208.461 360.392C208.461 361.896 207.965 363.088 206.973 363.968C205.981 364.848 204.645 365.288 202.965 365.288ZM210.309 352.28H212.613V365H210.309V352.28ZM202.989 363.536C203.981 363.536 204.749 363.248 205.293 362.672C205.853 362.08 206.133 361.328 206.133 360.416C206.133 359.568 205.853 358.88 205.293 358.352C204.733 357.824 203.933 357.56 202.893 357.56C202.141 357.56 201.485 357.712 200.925 358.016C200.381 358.32 199.965 358.744 199.677 359.288V360.416C199.677 361.392 199.957 362.16 200.517 362.72C201.093 363.264 201.917 363.536 202.989 363.536ZM223.692 359.624H221.052V365H218.748V352.28H221.052V357.656H223.74L227.868 352.28H230.34L225.516 358.4L230.676 365H227.964L223.692 359.624ZM258.809 352.16C260.409 352.16 261.673 352.624 262.601 353.552C263.545 354.48 264.017 355.856 264.017 357.68V365H261.713V357.944C261.713 356.712 261.425 355.784 260.849 355.16C260.289 354.536 259.481 354.224 258.425 354.224C257.257 354.224 256.329 354.592 255.641 355.328C254.953 356.048 254.609 357.088 254.609 358.448V365H252.305V357.944C252.305 356.712 252.017 355.784 251.441 355.16C250.881 354.536 250.073 354.224 249.017 354.224C247.849 354.224 246.921 354.592 246.233 355.328C245.545 356.048 245.201 357.088 245.201 358.448V365H242.897V352.28H245.105V354.176C245.569 353.52 246.177 353.024 246.929 352.688C247.681 352.336 248.537 352.16 249.497 352.16C250.489 352.16 251.369 352.36 252.137 352.76C252.905 353.16 253.497 353.744 253.913 354.512C254.393 353.776 255.057 353.2 255.905 352.784C256.769 352.368 257.737 352.16 258.809 352.16ZM275.244 365.144C273.98 365.144 272.844 364.864 271.836 364.304C270.828 363.744 270.036 362.976 269.46 362C268.9 361.008 268.62 359.888 268.62 358.64C268.62 357.392 268.9 356.28 269.46 355.304C270.036 354.312 270.828 353.544 271.836 353C272.844 352.44 273.98 352.16 275.244 352.16C276.508 352.16 277.636 352.44 278.628 353C279.636 353.544 280.42 354.312 280.98 355.304C281.556 356.28 281.844 357.392 281.844 358.64C281.844 359.888 281.556 361.008 280.98 362C280.42 362.976 279.636 363.744 278.628 364.304C277.636 364.864 276.508 365.144 275.244 365.144ZM275.244 363.128C276.06 363.128 276.788 362.944 277.428 362.576C278.084 362.192 278.596 361.664 278.964 360.992C279.332 360.304 279.516 359.52 279.516 358.64C279.516 357.76 279.332 356.984 278.964 356.312C278.596 355.624 278.084 355.096 277.428 354.728C276.788 354.36 276.06 354.176 275.244 354.176C274.428 354.176 273.692 354.36 273.036 354.728C272.396 355.096 271.884 355.624 271.5 356.312C271.132 356.984 270.948 357.76 270.948 358.64C270.948 359.52 271.132 360.304 271.5 360.992C271.884 361.664 272.396 362.192 273.036 362.576C273.692 362.944 274.428 363.128 275.244 363.128ZM297.677 352.28V365H295.373V354.296H289.901L289.757 357.128C289.677 358.84 289.525 360.272 289.301 361.424C289.077 362.56 288.709 363.472 288.197 364.16C287.685 364.848 286.973 365.192 286.061 365.192C285.645 365.192 285.173 365.12 284.645 364.976L284.789 363.032C284.997 363.08 285.189 363.104 285.365 363.104C286.005 363.104 286.485 362.824 286.805 362.264C287.125 361.704 287.333 361.04 287.429 360.272C287.525 359.504 287.613 358.408 287.693 356.984L287.909 352.28H297.677ZM309.116 365.288C307.308 365.288 305.916 364.848 304.94 363.968C303.98 363.088 303.5 361.84 303.5 360.224V352.28H305.804V357.2C306.22 356.784 306.78 356.464 307.484 356.24C308.204 356 308.98 355.88 309.812 355.88C311.396 355.88 312.628 356.28 313.508 357.08C314.388 357.88 314.828 358.984 314.828 360.392C314.828 361.912 314.324 363.112 313.316 363.992C312.308 364.856 310.908 365.288 309.116 365.288ZM309.14 363.536C310.18 363.536 310.996 363.256 311.588 362.696C312.18 362.136 312.476 361.384 312.476 360.44C312.476 359.544 312.188 358.84 311.612 358.328C311.036 357.816 310.228 357.56 309.188 357.56C308.42 357.56 307.74 357.712 307.148 358.016C306.556 358.32 306.108 358.744 305.804 359.288V360.416C305.804 361.392 306.1 362.16 306.692 362.72C307.284 363.264 308.1 363.536 309.14 363.536ZM324.475 359.624H321.835V365H319.531V352.28H321.835V357.656H324.523L328.651 352.28H331.123L326.299 358.4L331.459 365H328.747L324.475 359.624ZM340.581 365.144C339.317 365.144 338.181 364.864 337.173 364.304C336.165 363.744 335.373 362.976 334.797 362C334.237 361.008 333.957 359.888 333.957 358.64C333.957 357.392 334.237 356.28 334.797 355.304C335.373 354.312 336.165 353.544 337.173 353C338.181 352.44 339.317 352.16 340.581 352.16C341.845 352.16 342.973 352.44 343.965 353C344.973 353.544 345.757 354.312 346.317 355.304C346.893 356.28 347.181 357.392 347.181 358.64C347.181 359.888 346.893 361.008 346.317 362C345.757 362.976 344.973 363.744 343.965 364.304C342.973 364.864 341.845 365.144 340.581 365.144ZM340.581 363.128C341.397 363.128 342.125 362.944 342.765 362.576C343.421 362.192 343.933 361.664 344.301 360.992C344.669 360.304 344.853 359.52 344.853 358.64C344.853 357.76 344.669 356.984 344.301 356.312C343.933 355.624 343.421 355.096 342.765 354.728C342.125 354.36 341.397 354.176 340.581 354.176C339.765 354.176 339.029 354.36 338.373 354.728C337.733 355.096 337.221 355.624 336.837 356.312C336.469 356.984 336.285 357.76 336.285 358.64C336.285 359.52 336.469 360.304 336.837 360.992C337.221 361.664 337.733 362.192 338.373 362.576C339.029 362.944 339.765 363.128 340.581 363.128ZM129.682 381.28V394H127.474V391.984C126.962 392.688 126.314 393.224 125.53 393.592C124.746 393.96 123.882 394.144 122.938 394.144C121.706 394.144 120.602 393.872 119.626 393.328C118.65 392.784 117.882 392.024 117.322 391.048C116.778 390.056 116.506 388.92 116.506 387.64C116.506 386.36 116.778 385.232 117.322 384.256C117.882 383.28 118.65 382.52 119.626 381.976C120.602 381.432 121.706 381.16 122.938 381.16C123.85 381.16 124.69 381.336 125.458 381.688C126.226 382.024 126.866 382.528 127.378 383.2V381.28H129.682ZM123.13 392.128C123.93 392.128 124.658 391.944 125.314 391.576C125.97 391.192 126.482 390.664 126.85 389.992C127.218 389.304 127.402 388.52 127.402 387.64C127.402 386.76 127.218 385.984 126.85 385.312C126.482 384.624 125.97 384.096 125.314 383.728C124.658 383.36 123.93 383.176 123.13 383.176C122.314 383.176 121.578 383.36 120.922 383.728C120.282 384.096 119.77 384.624 119.386 385.312C119.018 385.984 118.834 386.76 118.834 387.64C118.834 388.52 119.018 389.304 119.386 389.992C119.77 390.664 120.282 391.192 120.922 391.576C121.578 391.944 122.314 392.128 123.13 392.128ZM135.77 381.28H138.074V386.68H145.322V381.28H147.626V394H145.322V388.672H138.074V394H135.77V381.28ZM163.146 383.296H156.09V394H153.786V381.28H163.146V383.296ZM177.284 381.28V394H174.98V383.296H169.508L169.364 386.128C169.284 387.84 169.132 389.272 168.908 390.424C168.684 391.56 168.316 392.472 167.804 393.16C167.292 393.848 166.58 394.192 165.668 394.192C165.252 394.192 164.78 394.12 164.252 393.976L164.396 392.032C164.604 392.08 164.796 392.104 164.972 392.104C165.612 392.104 166.092 391.824 166.412 391.264C166.732 390.704 166.94 390.04 167.036 389.272C167.132 388.504 167.22 387.408 167.3 385.984L167.516 381.28H177.284ZM195.011 381.28V394H192.803V392.128C192.339 392.768 191.731 393.264 190.979 393.616C190.227 393.968 189.403 394.144 188.507 394.144C186.811 394.144 185.475 393.68 184.499 392.752C183.523 391.808 183.035 390.424 183.035 388.6V381.28H185.339V388.336C185.339 389.568 185.635 390.504 186.227 391.144C186.819 391.768 187.667 392.08 188.771 392.08C189.987 392.08 190.947 391.712 191.651 390.976C192.355 390.24 192.707 389.2 192.707 387.856V381.28H195.011ZM212.769 381.28V394H210.561V392.128C210.097 392.768 209.489 393.264 208.737 393.616C207.985 393.968 207.161 394.144 206.265 394.144C204.569 394.144 203.233 393.68 202.257 392.752C201.281 391.808 200.793 390.424 200.793 388.6V381.28H203.097V388.336C203.097 389.568 203.393 390.504 203.985 391.144C204.577 391.768 205.425 392.08 206.529 392.08C207.745 392.08 208.705 391.712 209.409 390.976C210.113 390.24 210.465 389.2 210.465 387.856V381.28H212.769ZM206.769 379.624C205.585 379.624 204.665 379.344 204.009 378.784C203.353 378.208 203.017 377.384 203.001 376.312H204.561C204.577 376.904 204.777 377.384 205.161 377.752C205.561 378.104 206.089 378.28 206.745 378.28C207.401 378.28 207.929 378.104 208.329 377.752C208.729 377.384 208.937 376.904 208.953 376.312H210.561C210.545 377.384 210.201 378.208 209.529 378.784C208.857 379.344 207.937 379.624 206.769 379.624ZM224.479 394.144C223.183 394.144 222.023 393.864 220.999 393.304C219.991 392.744 219.199 391.976 218.623 391C218.047 390.008 217.759 388.888 217.759 387.64C217.759 386.392 218.047 385.28 218.623 384.304C219.199 383.312 219.991 382.544 220.999 382C222.023 381.44 223.183 381.16 224.479 381.16C225.631 381.16 226.655 381.392 227.551 381.856C228.463 382.32 229.167 382.992 229.663 383.872L227.911 385C227.511 384.392 227.015 383.936 226.423 383.632C225.831 383.328 225.175 383.176 224.455 383.176C223.623 383.176 222.871 383.36 222.199 383.728C221.543 384.096 221.023 384.624 220.639 385.312C220.271 385.984 220.087 386.76 220.087 387.64C220.087 388.536 220.271 389.328 220.639 390.016C221.023 390.688 221.543 391.208 222.199 391.576C222.871 391.944 223.623 392.128 224.455 392.128C225.175 392.128 225.831 391.976 226.423 391.672C227.015 391.368 227.511 390.912 227.911 390.304L229.663 391.408C229.167 392.288 228.463 392.968 227.551 393.448C226.655 393.912 225.631 394.144 224.479 394.144ZM239.27 388.624H236.63V394H234.326V381.28H236.63V386.656H239.318L243.446 381.28H245.918L241.094 387.4L246.254 394H243.542L239.27 388.624ZM261.708 381.28V394H259.5V392.128C259.036 392.768 258.428 393.264 257.676 393.616C256.924 393.968 256.1 394.144 255.204 394.144C253.508 394.144 252.172 393.68 251.196 392.752C250.22 391.808 249.732 390.424 249.732 388.6V381.28H252.036V388.336C252.036 389.568 252.332 390.504 252.924 391.144C253.516 391.768 254.364 392.08 255.468 392.08C256.684 392.08 257.644 391.712 258.348 390.976C259.052 390.24 259.404 389.2 259.404 387.856V381.28H261.708ZM279.466 381.28V394H277.258V392.128C276.794 392.768 276.186 393.264 275.434 393.616C274.682 393.968 273.858 394.144 272.962 394.144C271.266 394.144 269.93 393.68 268.954 392.752C267.978 391.808 267.49 390.424 267.49 388.6V381.28H269.794V388.336C269.794 389.568 270.09 390.504 270.682 391.144C271.274 391.768 272.122 392.08 273.226 392.08C274.442 392.08 275.402 391.712 276.106 390.976C276.81 390.24 277.162 389.2 277.162 387.856V381.28H279.466ZM273.466 379.624C272.282 379.624 271.362 379.344 270.706 378.784C270.05 378.208 269.714 377.384 269.698 376.312H271.258C271.274 376.904 271.474 377.384 271.858 377.752C272.258 378.104 272.786 378.28 273.442 378.28C274.098 378.28 274.626 378.104 275.026 377.752C275.426 377.384 275.634 376.904 275.65 376.312H277.258C277.242 377.384 276.898 378.208 276.226 378.784C275.554 379.344 274.634 379.624 273.466 379.624ZM285.272 377.2H287.984L287.528 388.696H285.704L285.272 377.2ZM286.64 394.144C286.192 394.144 285.816 394 285.512 393.712C285.208 393.408 285.056 393.04 285.056 392.608C285.056 392.176 285.208 391.816 285.512 391.528C285.816 391.224 286.192 391.072 286.64 391.072C287.088 391.072 287.456 391.224 287.744 391.528C288.032 391.816 288.176 392.176 288.176 392.608C288.176 393.04 288.024 393.408 287.72 393.712C287.432 394 287.072 394.144 286.64 394.144Z" fill="white"/>
<g clip-path="url(#clip0)">
<path d="M342.959 93.416H222.041C198.859 93.416 180 112.275 180 135.457V203.101C180 226.283 198.859 245.142 222.041 245.142H228.28L242.902 263.693C244.042 265.138 245.78 265.981 247.619 265.981C249.458 265.981 251.198 265.138 252.336 263.693L266.958 245.142H342.959C366.141 245.142 385 226.283 385 203.101V135.457C385 112.275 366.141 93.416 342.959 93.416V93.416Z" fill="#6787F5"/>
<path d="M342.959 93.416H282.5V245.142H342.959C366.141 245.142 385 226.283 385 203.101V135.457C385 112.275 366.141 93.416 342.959 93.416Z" fill="#38478A"/>
<path d="M259.98 253.994L266.958 245.142L259.98 253.994Z" fill="white"/>
<path d="M385 142.766H334.502L372.092 105.176C364.53 97.8985 354.259 93.416 342.959 93.416H332.891L309.023 117.285V93.416H255.979V117.285L232.11 93.416H222.041C210.741 93.416 200.47 97.8985 192.908 105.176L230.498 142.766H180V195.81H230.498L194.319 231.987L192.916 233.39C200.478 240.664 210.746 245.142 222.041 245.142H228.28L229.975 247.293L255.334 221.932L254.923 245.142H309.021V221.356L332.729 245.142H342.959C354.206 245.142 364.435 240.703 371.986 233.485L370.572 232.065L334.437 195.81H385V142.766Z" fill="white"/>
<path d="M385 142.766H334.502L372.092 105.176C364.53 97.8985 354.259 93.416 342.959 93.416H332.891L309.023 117.285V93.416H282.5V245.142H309.021V221.356L332.729 245.142H342.959C354.206 245.142 364.435 240.703 371.986 233.485L370.572 232.065L334.437 195.81H385V142.766Z" fill="#C7D3ED"/>
<path d="M297.009 154.777V93.416H267.991V154.777H180V183.798H267.991L266.958 245.142H297.009V183.798H385V154.777H297.009Z" fill="#FF337A"/>
<path d="M297.009 154.777V93.416H282.5V245.142H297.009V183.798H385V154.777H297.009Z" fill="#D1005B"/>
<path d="M259.98 146.768V138.275L215.612 93.9067C211.062 94.6074 206.75 96.0416 202.801 98.0827L251.487 146.768H259.98Z" fill="#FF337A"/>
<path d="M362.199 98.0827C358.25 96.0416 353.938 94.6074 349.388 93.9067L305.02 138.275V146.768H313.512L362.199 98.0827Z" fill="#D1005B"/>
<path d="M202.812 240.481C206.763 242.521 211.075 243.953 215.627 244.654L259.981 200.298V191.806H251.488L202.812 240.481Z" fill="#FF337A"/>
<path d="M305.02 191.806V200.323L349.222 244.676C353.781 243.991 358.104 242.574 362.064 240.545L313.489 191.806H305.02Z" fill="#D1005B"/>
</g>
<path fill-rule="evenodd" clip-rule="evenodd" d="M343 16L359 -6.99382e-07L375 16L359 32L343 16Z" fill="#CD142B"/>
<circle cx="336.5" cy="637.5" r="11.5" stroke="#CD142B" stroke-opacity="0.53" stroke-width="2"/>
<circle cx="210.026" cy="552.027" r="5.92099" transform="rotate(-165 210.026 552.027)" stroke="#00237C" stroke-opacity="0.54" stroke-width="2"/>
<defs>
<clipPath id="clip0">
<rect width="205" height="205" fill="white" transform="translate(180 77)"/>
</clipPath>
</defs>
</svg>
