<svg width="410" height="441" viewBox="0 0 410 441" fill="none" xmlns="http://www.w3.org/2000/svg">
<circle cx="87.8598" cy="15.8597" r="11.5" transform="rotate(-15 87.8598 15.8597)" stroke="#CD142B" stroke-opacity="0.53" stroke-width="2"/>
<circle cx="87.9208" cy="90.9208" r="5.92099" transform="rotate(-180 87.9208 90.9208)" stroke="#00237C" stroke-opacity="0.54" stroke-width="2"/>
<circle cx="212" cy="243.184" r="161" transform="rotate(-15 212 243.184)" fill="#CD142B"/>
<circle cx="209.55" cy="241.77" r="133" transform="rotate(-15 209.55 241.77)" stroke="white" stroke-width="6" stroke-dasharray="15 15"/>
<path d="M37.313 149.665C36.2401 139.457 27.5432 132.831 17.782 133.857C8.0208 134.883 -0.189365 144.498 1.96452 153.381C4.1184 162.263 10.9673 171.67 21.4955 169.189C32.0238 166.708 38.386 159.874 37.313 149.665Z" fill="#00237C"/>
<g clip-path="url(#clip0)">
<path d="M217.669 153.996C214.243 154.522 210.827 155.213 207.441 156.259C181.034 164.365 161.92 186.468 152.837 204.456L172.049 276.179L176.712 275.48C190.772 273.38 201.377 275.188 208.242 280.858C215.829 287.125 216.793 296.601 216.911 299.359C217.297 308.525 224.755 315.962 233.942 315.304C239.133 314.927 244.221 314.065 249.148 312.744C252.618 311.815 255.969 310.58 259.259 309.21C296.451 293.728 317.442 252.934 306.42 213.072C294.69 170.687 252.023 148.716 217.669 153.996Z" fill="#FABE2C"/>
<path d="M306.421 213.073C294.69 170.687 252.023 148.716 217.67 153.996L259.26 309.211C296.452 293.728 317.442 252.935 306.421 213.073Z" fill="#FF9100"/>
<path d="M241.613 211.385C233.893 206.919 231.238 197.008 235.687 189.287C240.156 181.561 250.062 178.907 257.786 183.366C265.509 187.825 268.165 197.736 263.705 205.459L263.707 205.465C259.246 213.178 249.335 215.834 241.613 211.385Z" fill="#00C8C8"/>
<path d="M192.571 205.45C188.149 197.813 190.668 187.877 198.491 183.367C206.194 178.921 216.117 181.56 220.579 189.285C225.047 197.013 222.408 206.903 214.661 211.374C206.897 215.857 197.029 213.181 192.571 205.45Z" fill="#474F54"/>
<path d="M185.012 250.89C176.091 250.888 168.838 243.632 168.842 234.72C168.837 225.829 176.027 218.546 185.007 218.552C193.949 218.547 201.188 225.775 201.182 234.72C201.185 243.691 193.913 250.89 185.012 250.89Z" fill="#FF435B"/>
<path d="M271.262 250.887C262.343 250.889 255.086 243.679 255.092 234.717C255.09 225.753 262.361 218.544 271.262 218.547C280.184 218.549 287.436 225.805 287.432 234.717C287.437 243.659 280.186 250.895 271.262 250.887Z" fill="#99341F"/>
<path d="M136.638 163.992C123.728 167.451 134.009 216.663 144.829 257.041C145.315 258.856 145.784 260.515 146.261 262.238L158.683 264.49L163.24 263.269L170.616 261.293L177.431 253.886C176.981 252.155 176.564 250.514 176.07 248.67C165.25 208.291 149.548 160.532 136.638 163.992Z" fill="#B35324"/>
<path d="M177.429 253.886C176.979 252.155 176.562 250.514 176.068 248.67C165.249 208.292 149.547 160.532 136.637 163.992L163.238 263.269L170.614 261.293L177.429 253.886Z" fill="#99341F"/>
<path d="M161.844 258.063L146.26 262.238C152.616 285.215 157.989 299.988 158.436 301.36L172.44 297.607L186.443 293.855C185.899 291.276 183.695 277.956 177.43 253.886L161.844 258.063Z" fill="#FFF7E6"/>
<path d="M177.43 253.886L161.844 258.062L172.44 297.607L186.443 293.855C185.899 291.276 183.695 277.955 177.43 253.886Z" fill="#FFCCB3"/>
<path d="M170.215 289.304C158.729 292.382 151.891 304.225 154.969 315.712L157.759 326.126C159.297 331.867 155.622 338.232 149.881 339.77L152.672 350.184L173.846 344.51C177.516 343.527 180.785 341.845 183.746 339.801C194.686 332.247 200.256 318.109 196.624 304.551C193.546 293.064 181.702 286.226 170.215 289.304Z" fill="#474F54"/>
<path d="M196.623 304.551C193.545 293.064 181.702 286.226 170.215 289.304L183.745 339.801C194.685 332.247 200.256 318.109 196.623 304.551Z" fill="#32393F"/>
<path d="M253.898 289.204C262.525 286.892 267.645 278.025 265.333 269.397C263.021 260.77 254.154 255.651 245.527 257.962C236.9 260.274 231.78 269.142 234.092 277.769C236.403 286.396 245.271 291.515 253.898 289.204Z" fill="#FFF7E6"/>
<path d="M265.333 269.398C263.022 260.771 254.154 255.651 245.527 257.963L253.898 289.204C262.525 286.892 267.645 278.025 265.333 269.398Z" fill="#FFE6CC"/>
</g>
<path fill-rule="evenodd" clip-rule="evenodd" d="M5.01174 32.9949L15.9719 14.0114L34.9554 24.9716L23.9953 43.9551L5.01174 32.9949Z" fill="#FF9B21" fill-opacity="0.68"/>
<defs>
<clipPath id="clip0">
<rect width="184" height="184" fill="white" transform="translate(105.049 172.455) rotate(-15)"/>
</clipPath>
</defs>
</svg>
