<svg width="625" height="58" fill="none" xmlns="http://www.w3.org/2000/svg"><path d="M21.71 16.568v7.202h-3.9V20H4.498v3.77h-3.9l.026-7.202h2.184V9.756c0-1.75.347-3.241 1.04-4.472A6.853 6.853 0 016.76 2.45c1.265-.641 2.73-.962 4.394-.962 1.664 0 3.12.32 4.368.962a6.818 6.818 0 012.938 2.834c.693 1.23 1.04 2.721 1.04 4.472v6.812h2.21zm-6.448 0V9.392c0-1.421-.364-2.496-1.092-3.224-.71-.728-1.716-1.092-3.016-1.092-1.283 0-2.297.364-3.042 1.092-.728.728-1.092 1.803-1.092 3.224v7.176h8.242zm17.693.39c.728 0 1.37-.104 1.924-.312a4.83 4.83 0 001.586-1.04l2.158 2.34c-1.317 1.508-3.241 2.262-5.772 2.262-1.578 0-2.973-.303-4.186-.91-1.213-.624-2.15-1.482-2.808-2.574-.659-1.092-.988-2.331-.988-3.718 0-1.37.32-2.6.962-3.692a6.826 6.826 0 012.678-2.574c1.144-.624 2.427-.936 3.848-.936 1.334 0 2.548.286 3.64.858a6.302 6.302 0 012.6 2.444c.658 1.057.988 2.314.988 3.77l-10.348 2.002c.295.693.754 1.213 1.378 1.56.641.347 1.421.52 2.34.52zm-.598-8.086c-1.023 0-1.855.33-2.496.988-.642.659-.98 1.569-1.014 2.73l6.812-1.326a3.057 3.057 0 00-1.17-1.742c-.59-.433-1.3-.65-2.132-.65zm29.74-3.068c1.75 0 3.137.52 4.16 1.56 1.04 1.023 1.56 2.565 1.56 4.628V20h-4.056v-7.384c0-1.11-.234-1.933-.702-2.47-.45-.555-1.1-.832-1.95-.832-.953 0-1.707.312-2.262.936-.555.607-.832 1.517-.832 2.73V20H53.96v-7.384c0-2.201-.884-3.302-2.652-3.302-.936 0-1.681.312-2.236.936-.554.607-.832 1.517-.832 2.73V20h-4.056V6.012h3.874v1.612a5.143 5.143 0 011.898-1.352 6.53 6.53 0 012.496-.468c.988 0 1.88.2 2.678.598a4.65 4.65 0 011.924 1.69 5.762 5.762 0 012.158-1.69 6.938 6.938 0 012.886-.598zm17.237 8.892h-2.106V20h-4.056V6.012h4.056v5.434h2.184l3.796-5.434h4.316l-4.888 6.708L87.862 20h-4.784l-3.744-5.304zm25.891-8.684V20h-3.874v-1.638a4.972 4.972 0 01-1.924 1.378 6.132 6.132 0 01-2.392.468c-1.837 0-3.301-.529-4.394-1.586-1.074-1.057-1.612-2.626-1.612-4.706V6.012h4.056v7.306c0 2.253.945 3.38 2.835 3.38.987 0 1.776-.312 2.365-.936.59-.641.884-1.586.884-2.834V6.012h4.056zM126.179 1.8V20h-4.212V5.18h-3.64V1.8h7.852zm5.319 9.256h7.358v3.25h-7.358v-3.25zm28.279 5.122h-2.964V20h-4.108v-3.822h-9.802v-2.834l8.58-11.544h4.42l-7.956 10.946h4.888V9.34h3.978v3.406h2.964v3.432zm19.361-1.482h-2.106V20h-4.056V6.012h4.056v5.434h2.184l3.796-5.434h4.316l-4.888 6.708 5.226 7.28h-4.784l-3.744-5.304zm25.756-8.684V20h-4.056V9.34h-4.42l-.13 2.47c-.07 1.837-.243 3.363-.52 4.576-.278 1.213-.728 2.167-1.352 2.86-.624.693-1.491 1.04-2.6 1.04-.59 0-1.292-.104-2.106-.312l.208-3.328c.277.035.476.052.598.052.606 0 1.057-.217 1.352-.65.312-.45.52-1.014.624-1.69.104-.693.182-1.603.234-2.73l.208-5.616h11.96zm21.56 14.196c-1.491 0-2.834-.303-4.03-.91-1.179-.624-2.106-1.482-2.782-2.574-.659-1.092-.988-2.331-.988-3.718s.329-2.626.988-3.718c.676-1.092 1.603-1.941 2.782-2.548 1.196-.624 2.539-.936 4.03-.936 1.473 0 2.756.312 3.848.936a5.397 5.397 0 012.418 2.626l-3.146 1.69c-.728-1.283-1.777-1.924-3.146-1.924-1.058 0-1.933.347-2.626 1.04-.694.693-1.04 1.638-1.04 2.834 0 1.196.346 2.14 1.04 2.834.693.693 1.568 1.04 2.626 1.04 1.386 0 2.435-.641 3.146-1.924l3.146 1.716c-.503 1.11-1.309 1.976-2.418 2.6-1.092.624-2.375.936-3.848.936zm19.734-14.196h4.03v5.46h6.084v-5.46h4.056V20h-4.056v-5.226h-6.084V20h-4.03V6.012zm33.678 0V20h-3.874v-1.638a4.97 4.97 0 01-1.924 1.378 6.128 6.128 0 01-2.392.468c-1.837 0-3.302-.529-4.394-1.586-1.074-1.057-1.612-2.626-1.612-4.706V6.012h4.056v7.306c0 2.253.945 3.38 2.834 3.38.988 0 1.777-.312 2.366-.936.59-.641.884-1.586.884-2.834V6.012h4.056zm14.633 6.708c.832.26 1.473.659 1.924 1.196.468.537.702 1.179.702 1.924 0 .884-.303 1.664-.91 2.34-.607.659-1.439 1.17-2.496 1.534-1.057.364-2.253.546-3.588.546-1.092 0-2.167-.113-3.224-.338a12.244 12.244 0 01-2.938-1.014l1.092-2.834c1.473.71 3.103 1.066 4.888 1.066.953 0 1.699-.139 2.236-.416.555-.295.832-.702.832-1.222 0-.45-.191-.789-.572-1.014-.381-.243-.936-.364-1.664-.364h-2.86v-2.522h2.496c.711 0 1.257-.113 1.638-.338.381-.225.572-.555.572-.988 0-.45-.243-.797-.728-1.04-.468-.243-1.144-.364-2.028-.364-1.352 0-2.825.32-4.42.962l-.988-2.808c1.941-.85 3.831-1.274 5.668-1.274 1.265 0 2.392.156 3.38.468 1.005.312 1.794.771 2.366 1.378.572.59.858 1.283.858 2.08 0 .659-.199 1.257-.598 1.794-.399.52-.945.936-1.638 1.248zm13.559 1.976h-2.106V20h-4.056V6.012h4.056v5.434h2.184l3.796-5.434h4.316l-4.888 6.708 5.226 7.28h-4.784l-3.744-5.304zm18.46 5.512c-1.474 0-2.8-.303-3.978-.91-1.162-.624-2.072-1.482-2.73-2.574-.659-1.092-.988-2.331-.988-3.718s.329-2.626.988-3.718a6.784 6.784 0 012.73-2.548c1.178-.624 2.504-.936 3.978-.936 1.473 0 2.79.312 3.952.936a6.796 6.796 0 012.73 2.548c.658 1.092.988 2.331.988 3.718s-.33 2.626-.988 3.718c-.659 1.092-1.569 1.95-2.73 2.574-1.162.607-2.479.91-3.952.91zm0-3.328c1.04 0 1.889-.347 2.548-1.04.676-.71 1.014-1.655 1.014-2.834s-.338-2.115-1.014-2.808c-.659-.71-1.508-1.066-2.548-1.066s-1.898.355-2.574 1.066c-.676.693-1.014 1.63-1.014 2.808 0 1.179.338 2.123 1.014 2.834.676.693 1.534 1.04 2.574 1.04zm26.085-10.868V20h-3.874v-1.638a4.97 4.97 0 01-1.924 1.378 6.128 6.128 0 01-2.392.468c-1.837 0-3.302-.529-4.394-1.586-1.074-1.057-1.612-2.626-1.612-4.706V6.012h4.056v7.306c0 2.253.945 3.38 2.834 3.38.988 0 1.777-.312 2.366-.936.59-.641.884-1.586.884-2.834V6.012h4.056zm-7.202-1.508c-3.05 0-4.584-1.343-4.602-4.03h2.652c.018.607.182 1.083.494 1.43.33.33.806.494 1.43.494.624 0 1.101-.165 1.43-.494.347-.347.52-.823.52-1.43h2.704c-.017 2.687-1.56 4.03-4.628 4.03zm36.085 1.508V17.66c0 2.565-.65 4.472-1.95 5.72-1.3 1.248-3.189 1.872-5.668 1.872a13.87 13.87 0 01-3.744-.494c-1.161-.33-2.14-.806-2.938-1.43l1.612-2.912c.59.485 1.309.867 2.158 1.144.85.277 1.708.416 2.574.416 1.352 0 2.34-.312 2.964-.936.624-.624.936-1.577.936-2.86v-.468c-.52.52-1.135.919-1.846 1.196a6.235 6.235 0 01-2.288.416c-1.837 0-3.293-.52-4.368-1.56-1.074-1.057-1.612-2.635-1.612-4.732v-7.02h4.056v6.422c0 2.27.945 3.406 2.834 3.406.971 0 1.751-.312 2.34-.936.59-.641.884-1.586.884-2.834V6.012h4.056zm12.312 14.196c-1.491 0-2.834-.303-4.03-.91-1.179-.624-2.106-1.482-2.782-2.574-.659-1.092-.988-2.331-.988-3.718s.329-2.626.988-3.718c.676-1.092 1.603-1.941 2.782-2.548 1.196-.624 2.539-.936 4.03-.936 1.473 0 2.756.312 3.848.936a5.397 5.397 0 012.418 2.626l-3.146 1.69c-.728-1.283-1.777-1.924-3.146-1.924-1.057 0-1.933.347-2.626 1.04-.693.693-1.04 1.638-1.04 2.834 0 1.196.347 2.14 1.04 2.834.693.693 1.569 1.04 2.626 1.04 1.387 0 2.435-.641 3.146-1.924l3.146 1.716c-.503 1.11-1.309 1.976-2.418 2.6-1.092.624-2.375.936-3.848.936zm24.461-14.196V20h-4.056V9.34h-5.824V20h-4.03V6.012h13.91zm12.677 10.946c.728 0 1.369-.104 1.924-.312a4.838 4.838 0 001.586-1.04l2.158 2.34c-1.318 1.508-3.242 2.262-5.772 2.262-1.578 0-2.973-.303-4.186-.91-1.214-.624-2.15-1.482-2.808-2.574-.659-1.092-.988-2.331-.988-3.718 0-1.37.32-2.6.962-3.692a6.82 6.82 0 012.678-2.574c1.144-.624 2.426-.936 3.848-.936 1.334 0 2.548.286 3.64.858a6.306 6.306 0 012.6 2.444c.658 1.057.988 2.314.988 3.77l-10.348 2.002c.294.693.754 1.213 1.378 1.56.641.347 1.421.52 2.34.52zm-.598-8.086c-1.023 0-1.855.33-2.496.988-.642.659-.98 1.569-1.014 2.73l6.812-1.326a3.06 3.06 0 00-1.17-1.742c-.59-.433-1.3-.65-2.132-.65zm22.538 3.822c1.647.555 2.47 1.664 2.47 3.328 0 1.265-.477 2.245-1.43 2.938-.953.693-2.375 1.04-4.264 1.04h-7.462V6.012h7.15c1.751 0 3.12.32 4.108.962.988.624 1.482 1.508 1.482 2.652 0 .693-.182 1.309-.546 1.846-.347.52-.849.927-1.508 1.222zm-6.968-.936h3.068c1.421 0 2.132-.503 2.132-1.508 0-.988-.711-1.482-2.132-1.482h-3.068v2.99zm3.406 5.486c1.491 0 2.236-.511 2.236-1.534 0-.537-.173-.927-.52-1.17-.347-.26-.893-.39-1.638-.39h-3.484v3.094h3.406zm24.988-11.232V20h-3.874v-1.612c-1.006 1.213-2.462 1.82-4.368 1.82-1.318 0-2.514-.295-3.588-.884a6.35 6.35 0 01-2.496-2.522c-.607-1.092-.91-2.357-.91-3.796 0-1.439.303-2.704.91-3.796a6.345 6.345 0 012.496-2.522c1.074-.59 2.27-.884 3.588-.884 1.785 0 3.18.563 4.186 1.69V6.012h4.056zm-7.54 10.868c1.022 0 1.872-.347 2.548-1.04.676-.71 1.014-1.655 1.014-2.834s-.338-2.115-1.014-2.808c-.676-.71-1.526-1.066-2.548-1.066-1.04 0-1.898.355-2.574 1.066-.676.693-1.014 1.63-1.014 2.808 0 1.179.338 2.123 1.014 2.834.676.693 1.534 1.04 2.574 1.04zm20.161.078c.728 0 1.369-.104 1.924-.312a4.828 4.828 0 001.586-1.04l2.158 2.34c-1.317 1.508-3.241 2.262-5.772 2.262-1.577 0-2.973-.303-4.186-.91-1.213-.624-2.149-1.482-2.808-2.574-.659-1.092-.988-2.331-.988-3.718 0-1.37.321-2.6.962-3.692a6.826 6.826 0 012.678-2.574c1.144-.624 2.427-.936 3.848-.936 1.335 0 2.548.286 3.64.858a6.3 6.3 0 012.6 2.444c.659 1.057.988 2.314.988 3.77l-10.348 2.002c.295.693.754 1.213 1.378 1.56.641.347 1.421.52 2.34.52zm-.598-8.086c-1.023 0-1.855.33-2.496.988-.641.659-.979 1.569-1.014 2.73l6.812-1.326a3.06 3.06 0 00-1.17-1.742c-.589-.433-1.3-.65-2.132-.65zM511.827 20v-8.372l-4.186 7.02h-1.716l-4.082-7.046V20h-3.666V6.012h4.238l4.472 8.086 4.758-8.086h3.796L515.493 20h-3.666zm15.923.208c-1.473 0-2.799-.303-3.978-.91-1.161-.624-2.071-1.482-2.73-2.574-.658-1.092-.988-2.331-.988-3.718s.33-2.626.988-3.718a6.796 6.796 0 012.73-2.548c1.179-.624 2.505-.936 3.978-.936 1.474 0 2.791.312 3.952.936a6.784 6.784 0 012.73 2.548c.659 1.092.988 2.331.988 3.718s-.329 2.626-.988 3.718c-.658 1.092-1.568 1.95-2.73 2.574-1.161.607-2.478.91-3.952.91zm0-3.328c1.04 0 1.89-.347 2.548-1.04.676-.71 1.014-1.655 1.014-2.834s-.338-2.115-1.014-2.808c-.658-.71-1.508-1.066-2.548-1.066s-1.898.355-2.574 1.066c-.676.693-1.014 1.63-1.014 2.808 0 1.179.338 2.123 1.014 2.834.676.693 1.534 1.04 2.574 1.04zm18.936 3.328c-1.491 0-2.834-.303-4.03-.91-1.179-.624-2.106-1.482-2.782-2.574-.659-1.092-.988-2.331-.988-3.718s.329-2.626.988-3.718c.676-1.092 1.603-1.941 2.782-2.548 1.196-.624 2.539-.936 4.03-.936 1.473 0 2.756.312 3.848.936a5.397 5.397 0 012.418 2.626l-3.146 1.69c-.728-1.283-1.777-1.924-3.146-1.924-1.057 0-1.933.347-2.626 1.04-.693.693-1.04 1.638-1.04 2.834 0 1.196.347 2.14 1.04 2.834.693.693 1.569 1.04 2.626 1.04 1.387 0 2.435-.641 3.146-1.924l3.146 1.716c-.503 1.11-1.309 1.976-2.418 2.6-1.092.624-2.375.936-3.848.936zm28.439-14.404c1.751 0 3.137.52 4.16 1.56 1.04 1.023 1.56 2.565 1.56 4.628V20h-4.056v-7.384c0-1.11-.234-1.933-.702-2.47-.451-.555-1.101-.832-1.95-.832-.953 0-1.707.312-2.262.936-.555.607-.832 1.517-.832 2.73V20h-4.056v-7.384c0-2.201-.884-3.302-2.652-3.302-.936 0-1.681.312-2.236.936-.555.607-.832 1.517-.832 2.73V20h-4.056V6.012h3.874v1.612a5.145 5.145 0 011.898-1.352 6.532 6.532 0 012.496-.468c.988 0 1.881.2 2.678.598a4.65 4.65 0 011.924 1.69 5.759 5.759 0 012.158-1.69 6.938 6.938 0 012.886-.598zm17.496 14.586c-2.218 0-3.9-.494-5.044-1.482-1.126-.988-1.69-2.444-1.69-4.368V6.012h4.03v4.732c.434-.312.988-.555 1.664-.728a9.553 9.553 0 012.314-.26c1.751 0 3.12.433 4.108 1.3.988.867 1.482 2.132 1.482 3.796 0 1.785-.615 3.155-1.846 4.108-1.213.953-2.886 1.43-5.018 1.43zm0-2.86c.867 0 1.534-.234 2.002-.702.486-.468.728-1.1.728-1.898 0-.763-.234-1.36-.702-1.794-.45-.433-1.1-.65-1.95-.65-.624 0-1.178.113-1.664.338a2.543 2.543 0 00-1.118.962v1.144c0 .815.234 1.456.702 1.924.486.45 1.153.676 2.002.676zm24.527-11.726c1.421 0 2.695.312 3.822.936a6.694 6.694 0 012.652 2.548c.641 1.092.962 2.331.962 3.718s-.321 2.626-.962 3.718a6.878 6.878 0 01-2.652 2.574c-1.127.607-2.401.91-3.822.91-1.231 0-2.357-.225-3.38-.676a6.957 6.957 0 01-2.548-1.95 6.816 6.816 0 01-1.352-2.912h-1.924V20h-4.03V6.012h4.03v5.148h1.95c.399-1.63 1.248-2.93 2.548-3.9 1.3-.97 2.869-1.456 4.706-1.456zm0 11.076c.988 0 1.803-.347 2.444-1.04.659-.71.988-1.655.988-2.834 0-1.196-.329-2.14-.988-2.834-.641-.693-1.456-1.04-2.444-1.04-1.005 0-1.837.347-2.496 1.04-.641.693-.962 1.638-.962 2.834 0 1.179.321 2.123.962 2.834.659.693 1.491 1.04 2.496 1.04zM15.86 38.012V52h-4.056V41.34H5.98V52H1.95V38.012h13.91zm12.26 14.196c-1.473 0-2.799-.303-3.977-.91-1.162-.624-2.072-1.482-2.73-2.574-.659-1.092-.988-2.331-.988-3.718s.33-2.626.988-3.718a6.793 6.793 0 012.73-2.548c1.178-.624 2.505-.936 3.978-.936 1.473 0 2.79.312 3.952.936a6.792 6.792 0 012.73 2.548c.659 1.092.988 2.331.988 3.718s-.33 2.626-.988 3.718c-.659 1.092-1.569 1.95-2.73 2.574-1.162.607-2.479.91-3.952.91zm0-3.328c1.04 0 1.89-.347 2.549-1.04.676-.71 1.014-1.655 1.014-2.834s-.338-2.115-1.014-2.808c-.659-.71-1.508-1.066-2.548-1.066s-1.898.355-2.574 1.066c-.676.693-1.014 1.63-1.014 2.808 0 1.179.338 2.123 1.014 2.834.676.693 1.534 1.04 2.574 1.04zm28.64-11.076c1.49 0 2.79.295 3.9.884a6.222 6.222 0 012.574 2.522c.606 1.092.91 2.366.91 3.822 0 1.421-.286 2.678-.858 3.77a6.273 6.273 0 01-2.418 2.522c-1.04.59-2.236.884-3.588.884-1.785 0-3.18-.563-4.186-1.69v6.526h-4.056V45.058c0-1.439.32-2.704.962-3.796.641-1.092 1.542-1.941 2.704-2.548 1.161-.607 2.513-.91 4.056-.91zm-.182 11.076c1.057 0 1.915-.355 2.574-1.066.658-.71.988-1.638.988-2.782 0-1.161-.33-2.097-.988-2.808-.659-.728-1.517-1.092-2.574-1.092-1.058 0-1.916.355-2.574 1.066-.642.71-.962 1.647-.962 2.808 0 1.161.32 2.097.962 2.808.641.71 1.5 1.066 2.574 1.066zM82.94 38.012V52h-3.874v-1.612c-1.005 1.213-2.462 1.82-4.368 1.82-1.317 0-2.513-.295-3.588-.884a6.35 6.35 0 01-2.496-2.522c-.607-1.092-.91-2.357-.91-3.796 0-1.439.303-2.704.91-3.796.606-1.092 1.438-1.933 2.496-2.522 1.075-.59 2.27-.884 3.588-.884 1.785 0 3.18.563 4.186 1.69v-1.482h4.056zM75.4 48.88c1.022 0 1.872-.347 2.548-1.04.676-.71 1.014-1.655 1.014-2.834s-.338-2.115-1.014-2.808c-.676-.71-1.525-1.066-2.548-1.066-1.04 0-1.898.355-2.574 1.066-.676.693-1.014 1.63-1.014 2.808 0 1.179.338 2.123 1.014 2.834.676.693 1.534 1.04 2.574 1.04zm22.14-4.16c.832.26 1.473.659 1.924 1.196.468.537.702 1.179.702 1.924 0 .884-.303 1.664-.91 2.34-.607.659-1.439 1.17-2.496 1.534-1.057.364-2.253.546-3.588.546-1.092 0-2.167-.113-3.224-.338a12.244 12.244 0 01-2.938-1.014l1.092-2.834c1.473.71 3.103 1.066 4.888 1.066.953 0 1.699-.139 2.236-.416.555-.295.832-.702.832-1.222 0-.45-.19-.789-.572-1.014-.381-.243-.936-.364-1.664-.364h-2.86v-2.522h2.496c.71 0 1.257-.113 1.638-.338.381-.225.572-.555.572-.988 0-.45-.243-.797-.728-1.04-.468-.243-1.144-.364-2.028-.364-1.352 0-2.825.32-4.42.962l-.988-2.808c1.941-.85 3.83-1.274 5.668-1.274 1.265 0 2.392.156 3.38.468 1.005.312 1.794.771 2.366 1.378.572.59.858 1.283.858 2.08 0 .659-.2 1.257-.598 1.794-.399.52-.945.936-1.638 1.248zm7.396-6.708h4.03v5.46h6.084v-5.46h4.056V52h-4.056v-5.226h-6.084V52h-4.03V38.012zm26.217 14.378c-2.219 0-3.883-.494-4.992-1.482s-1.664-2.444-1.664-4.368v-8.528h4.03v4.732c.399-.277.919-.511 1.56-.702.659-.19 1.404-.286 2.236-.286 1.716 0 3.059.433 4.03 1.3.971.867 1.456 2.132 1.456 3.796 0 1.768-.598 3.137-1.794 4.108-1.196.953-2.817 1.43-4.862 1.43zm8.138-14.378h4.056V52h-4.056V38.012zm-8.138 11.518c.832 0 1.465-.243 1.898-.728.433-.485.65-1.118.65-1.898 0-.728-.225-1.309-.676-1.742-.433-.45-1.066-.676-1.898-.676-.589 0-1.109.121-1.56.364-.433.225-.78.537-1.04.936v1.144c0 .815.225 1.456.676 1.924.451.45 1.101.676 1.95.676zM162.699 52v-8.372l-4.186 7.02h-1.716l-4.082-7.046V52h-3.666V38.012h4.238l4.472 8.086 4.758-8.086h3.796L166.365 52h-3.666zm32.465-13.988V52h-4.056V41.34h-5.824V52h-4.03V38.012h13.91zm12.884-.208c1.491 0 2.791.295 3.9.884a6.215 6.215 0 012.574 2.522c.607 1.092.91 2.366.91 3.822 0 1.421-.286 2.678-.858 3.77a6.273 6.273 0 01-2.418 2.522c-1.04.59-2.236.884-3.588.884-1.785 0-3.18-.563-4.186-1.69v6.526h-4.056V45.058c0-1.439.321-2.704.962-3.796.642-1.092 1.543-1.941 2.704-2.548 1.162-.607 2.514-.91 4.056-.91zm-.182 11.076c1.058 0 1.916-.355 2.574-1.066.659-.71.988-1.638.988-2.782 0-1.161-.329-2.097-.988-2.808-.658-.728-1.516-1.092-2.574-1.092-1.057 0-1.915.355-2.574 1.066-.641.71-.962 1.647-.962 2.808 0 1.161.321 2.097.962 2.808.642.71 1.5 1.066 2.574 1.066zm19.212.078c.728 0 1.37-.104 1.924-.312a4.828 4.828 0 001.586-1.04l2.158 2.34c-1.317 1.508-3.241 2.262-5.772 2.262-1.577 0-2.972-.303-4.186-.91-1.213-.624-2.149-1.482-2.808-2.574-.658-1.092-.988-2.331-.988-3.718 0-1.37.321-2.6.962-3.692a6.833 6.833 0 012.678-2.574c1.144-.624 2.427-.936 3.848-.936 1.335 0 2.548.286 3.64.858a6.3 6.3 0 012.6 2.444c.659 1.057.988 2.314.988 3.77l-10.348 2.002c.295.693.754 1.213 1.378 1.56.642.347 1.422.52 2.34.52zm-.598-8.086c-1.022 0-1.854.33-2.496.988-.641.659-.979 1.569-1.014 2.73l6.812-1.326a3.05 3.05 0 00-1.17-1.742c-.589-.433-1.3-.65-2.132-.65zm26.127-2.86V49.66c0 2.565-.668 4.472-2.002 5.72-1.335 1.248-3.285 1.872-5.85 1.872a14.63 14.63 0 01-3.848-.494c-1.214-.33-2.219-.806-3.016-1.43l1.612-2.912c.589.485 1.334.867 2.236 1.144a8.652 8.652 0 002.704.442c1.404 0 2.435-.32 3.094-.962.676-.624 1.014-1.577 1.014-2.86v-.598c-1.058 1.161-2.531 1.742-4.42 1.742-1.283 0-2.462-.277-3.536-.832a6.554 6.554 0 01-2.522-2.392c-.624-1.023-.936-2.201-.936-3.536s.312-2.513.936-3.536a6.365 6.365 0 012.522-2.366c1.074-.572 2.253-.858 3.536-.858 2.028 0 3.57.667 4.628 2.002v-1.794h3.848zm-7.67 9.984c1.074 0 1.95-.312 2.626-.936.693-.641 1.04-1.473 1.04-2.496s-.347-1.846-1.04-2.47c-.676-.641-1.552-.962-2.626-.962-1.075 0-1.959.32-2.652.962-.694.624-1.04 1.447-1.04 2.47 0 1.023.346 1.855 1.04 2.496.693.624 1.577.936 2.652.936zM271.982 52v-8.372l-4.186 7.02h-1.716l-4.082-7.046V52h-3.666V38.012h4.238l4.472 8.086 4.758-8.086h3.796L275.648 52h-3.666zm16.34-3.042c.728 0 1.369-.104 1.924-.312a4.838 4.838 0 001.586-1.04l2.158 2.34c-1.318 1.508-3.242 2.262-5.772 2.262-1.578 0-2.973-.303-4.186-.91-1.214-.624-2.15-1.482-2.808-2.574-.659-1.092-.988-2.331-.988-3.718 0-1.37.32-2.6.962-3.692a6.82 6.82 0 012.678-2.574c1.144-.624 2.426-.936 3.848-.936 1.334 0 2.548.286 3.64.858a6.306 6.306 0 012.6 2.444c.658 1.057.988 2.314.988 3.77l-10.348 2.002c.294.693.754 1.213 1.378 1.56.641.347 1.421.52 2.34.52zm-.598-8.086c-1.023 0-1.855.33-2.496.988-.642.659-.98 1.569-1.014 2.73l6.812-1.326a3.06 3.06 0 00-1.17-1.742c-.59-.433-1.3-.65-2.132-.65zm29.74-3.068c1.751 0 3.137.52 4.16 1.56 1.04 1.023 1.56 2.565 1.56 4.628V52h-4.056v-7.384c0-1.11-.234-1.933-.702-2.47-.451-.555-1.101-.832-1.95-.832-.953 0-1.707.312-2.262.936-.555.607-.832 1.517-.832 2.73V52h-4.056v-7.384c0-2.201-.884-3.302-2.652-3.302-.936 0-1.681.312-2.236.936-.555.607-.832 1.517-.832 2.73V52h-4.056V38.012h3.874v1.612a5.145 5.145 0 011.898-1.352 6.532 6.532 0 012.496-.468c.988 0 1.881.2 2.678.598a4.65 4.65 0 011.924 1.69 5.76 5.76 0 012.158-1.69c.884-.399 1.846-.598 2.886-.598zm25.192.208V52h-3.874v-1.612c-1.005 1.213-2.461 1.82-4.368 1.82-1.317 0-2.513-.295-3.588-.884a6.362 6.362 0 01-2.496-2.522c-.606-1.092-.91-2.357-.91-3.796 0-1.439.304-2.704.91-3.796.607-1.092 1.439-1.933 2.496-2.522 1.075-.59 2.271-.884 3.588-.884 1.786 0 3.181.563 4.186 1.69v-1.482h4.056zm-7.54 10.868c1.023 0 1.872-.347 2.548-1.04.676-.71 1.014-1.655 1.014-2.834s-.338-2.115-1.014-2.808c-.676-.71-1.525-1.066-2.548-1.066-1.04 0-1.898.355-2.574 1.066-.676.693-1.014 1.63-1.014 2.808 0 1.179.338 2.123 1.014 2.834.676.693 1.534 1.04 2.574 1.04zM361.96 52v-8.372l-4.186 7.02h-1.716l-4.082-7.046V52h-3.666V38.012h4.238l4.472 8.086 4.758-8.086h3.796L365.626 52h-3.666zm29.24-7.306c1.647.555 2.47 1.664 2.47 3.328 0 1.265-.477 2.245-1.43 2.938-.953.693-2.375 1.04-4.264 1.04h-7.462V38.012h7.15c1.751 0 3.12.32 4.108.962.988.624 1.482 1.508 1.482 2.652 0 .693-.182 1.309-.546 1.846-.347.52-.849.927-1.508 1.222zm-6.968-.936h3.068c1.421 0 2.132-.503 2.132-1.508 0-.988-.711-1.482-2.132-1.482h-3.068v2.99zm3.406 5.486c1.491 0 2.236-.511 2.236-1.534 0-.537-.173-.927-.52-1.17-.347-.26-.893-.39-1.638-.39h-3.484v3.094h3.406zm41.399-11.232V52h-21.346V38.012h4.03v10.66h4.654v-10.66h4.03v10.66h4.602v-10.66h4.03zm11.874 8.684h-2.106V52h-4.056V38.012h4.056v5.434h2.184l3.796-5.434h4.316l-4.888 6.708 5.226 7.28h-4.784l-3.744-5.304zm18.46 5.512c-1.473 0-2.799-.303-3.978-.91-1.161-.624-2.071-1.482-2.73-2.574-.658-1.092-.988-2.331-.988-3.718s.33-2.626.988-3.718a6.797 6.797 0 012.73-2.548c1.179-.624 2.505-.936 3.978-.936 1.474 0 2.791.312 3.952.936a6.784 6.784 0 012.73 2.548c.659 1.092.988 2.331.988 3.718s-.329 2.626-.988 3.718c-.658 1.092-1.568 1.95-2.73 2.574-1.161.607-2.478.91-3.952.91zm0-3.328c1.04 0 1.89-.347 2.548-1.04.676-.71 1.014-1.655 1.014-2.834s-.338-2.115-1.014-2.808c-.658-.71-1.508-1.066-2.548-1.066s-1.898.355-2.574 1.066c-.676.693-1.014 1.63-1.014 2.808 0 1.179.338 2.123 1.014 2.834.676.693 1.534 1.04 2.574 1.04zm25.493-10.868V52h-4.056V41.34h-4.42l-.13 2.47c-.069 1.837-.243 3.363-.52 4.576-.277 1.213-.728 2.167-1.352 2.86-.624.693-1.491 1.04-2.6 1.04-.589 0-1.291-.104-2.106-.312l.208-3.328c.277.035.477.052.598.052.607 0 1.057-.217 1.352-.65.312-.45.52-1.014.624-1.69.104-.693.182-1.603.234-2.73l.208-5.616h11.96zm12.688 10.946c.728 0 1.37-.104 1.924-.312a4.828 4.828 0 001.586-1.04l2.158 2.34c-1.317 1.508-3.241 2.262-5.772 2.262-1.577 0-2.972-.303-4.186-.91-1.213-.624-2.149-1.482-2.808-2.574-.658-1.092-.988-2.331-.988-3.718 0-1.37.321-2.6.962-3.692a6.833 6.833 0 012.678-2.574c1.144-.624 2.427-.936 3.848-.936 1.335 0 2.548.286 3.64.858a6.3 6.3 0 012.6 2.444c.659 1.057.988 2.314.988 3.77l-10.348 2.002c.295.693.754 1.213 1.378 1.56.642.347 1.422.52 2.34.52zm-.598-8.086c-1.022 0-1.854.33-2.496.988-.641.659-.979 1.569-1.014 2.73l6.812-1.326a3.05 3.05 0 00-1.17-1.742c-.589-.433-1.3-.65-2.132-.65z" fill="#000"/></svg>