<svg width="1440" height="956" viewBox="0 0 1440 956" fill="none" xmlns="http://www.w3.org/2000/svg">
<mask id="mask0" mask-type="alpha" maskUnits="userSpaceOnUse" x="0" y="0" width="1441" height="948">
<rect width="1441" height="948" fill="#C4C4C4"/>
</mask>
<g mask="url(#mask0)">
<path d="M1868.88 984.954C1692.7 959.244 1515.74 941.77 1340 923.772C1152.7 904.578 974.106 915.858 794.086 915.599C685.626 915.484 577.146 908.629 469.255 871.62C393.769 845.702 333.787 812.676 285.331 770.037C217.822 710.635 177.961 643.876 105.894 586.019C89.2146 572.627 69.4836 559.262 44.3044 551.271C23.3742 544.644 0.591688 542.3 -20.625 538.376C-39.514 534.879 -50.4624 527.653 -57.8618 518.078C-80.414 488.871 -73.6344 449.078 -82.7796 417.851C-84.7075 411.254 -87.5856 402.835 -85.3513 396.784C-83.7465 392.464 -78.0054 392.223 -72.9429 392.127C-33.633 391.383 5.94462 387.762 47.1434 391.232C94.3671 395.208 134.156 410.098 166.46 431.87C221.789 469.205 254.005 519.852 293.041 563.783C331.619 607.138 371.521 650.715 421.161 691.469C463.144 725.969 512.524 757.663 571.197 783.214C644.742 815.216 728.87 829.676 809.377 836.729C1007.38 854.038 1200.03 839.295 1399.93 855.127C1499.39 863.001 1600.25 874.58 1700.15 885.972C1785.69 895.725 1872.47 906.419 1957.13 922.94C1980.97 927.588 2012.61 933.096 2031.31 945.629C2040.38 951.713 2043.21 958.252 2044.94 964.569C2047.5 973.949 2046.2 983.619 2036.75 989.947C2005.53 1010.9 1916.49 993.035 1868.94 984.95" fill="#00237C"/>
<path d="M1952.12 906.949C1856.76 890.37 1761.11 878.69 1665.85 868.015C1603.26 861.004 1540.64 854.425 1478.07 847.785C1382.61 837.649 1288.69 833.866 1195.28 831.87C1093.9 829.702 992.131 829.224 890.083 823.372C774.277 816.73 658.617 801.575 554.507 752.164C471.764 712.864 409.201 662.219 355.838 610.375C322.681 578.147 292.793 545.229 263.411 512.256C236.001 481.504 212.072 449.039 174.344 420.755C123.595 382.713 58.7825 367.288 -11.2022 351.651C-37.1354 345.857 -59.0645 334.971 -77.7525 322.776C-122.552 293.547 -155.744 258.048 -185.667 223.707C-189.578 219.222 -193.564 214.566 -197.346 209.729C-204.862 200.097 -211.179 190.315 -216.241 180.473C-216.654 179.768 -216.987 179.059 -217.32 178.349C-220.516 171.422 -224.614 163.223 -221.785 156.759C-220.112 152.941 -213.879 152.662 -207.413 152.922C-85.3252 158.251 44.9 168.008 148.559 225.33C210.186 259.399 242.519 304.918 278.971 347.413C320.726 396.175 362.96 445.082 408.937 492.823C465.348 551.407 528.3 611.474 610.759 661.898C697.118 714.696 795.282 739.688 904.832 753.99C1045.16 772.31 1185.1 775.034 1324.41 782.152C1463.22 789.244 1602.74 804.722 1742.72 820.842C1826.88 830.536 1912.71 840.759 1995.44 857.301C2019.55 862.123 2044.08 867.919 2066.23 877.3C2082.24 884.055 2099.21 892.633 2109.11 902.56C2115.4 908.896 2117.63 918.675 2110.71 923.412C2097.71 932.327 2066.48 927.045 2046.27 924.022C2014.86 919.314 1983.37 912.938 1952.11 906.928" fill="#CD142B"/>
<path d="M2017.09 851.025C1930.23 833.359 1842.75 821.74 1755.64 811.405C1695.4 804.287 1635 797.707 1574.76 790.984C1477.21 780.101 1380.64 774.69 1284.13 769.436C1178.74 763.689 1072.46 757.305 966.45 744.785C904.089 737.415 840.447 727.682 778.83 711.891C715.917 695.759 661.732 669.04 614.134 638.733C517.211 577.003 444.881 503.734 378.658 432.661C343.182 394.58 309.682 356.126 276.415 317.643C245.387 281.754 217.869 244.328 171.071 212.437C96.9571 161.849 -4.25342 136.474 -102.23 113.294C-135.467 105.436 -166.567 94.3324 -195.946 81.5273C-260.397 53.4321 -316.379 22.9214 -363.47 -15.5438C-369.536 -20.3396 -375.132 -25.2905 -380.222 -30.3646C-388.748 -39.2403 -396.525 -48.6675 -398.97 -58.2368C-399.12 -58.7968 -399.216 -59.3455 -399.299 -59.8732C-400.348 -66.8812 -396.208 -70.2914 -388.63 -72.4165C-383.756 -73.7853 -375.637 -73.0172 -366.966 -71.7366C-207.972 -48.2719 -30.8787 -26.5434 104.495 43.3919C174.374 79.4941 208.457 126.052 247.364 172.638C295.637 230.486 344.073 288.469 395.762 345.573C461.899 418.652 532.864 493.943 626.049 559.89C670.555 591.372 723.428 620.467 784.831 639.207C837.409 655.244 893.616 666.371 947.887 675.38C1087.63 698.565 1228.04 709.049 1367.7 720.821C1501.43 732.081 1634.99 748.264 1769.07 765.101C1844.23 774.539 1920.83 784.098 1994.42 799.528C2017.17 804.293 2039.93 810.27 2061.6 818.141C2088.1 827.771 2118.28 838.692 2137.51 852.559C2145.27 858.162 2157.22 867.024 2154.91 873.355C2149.64 887.928 2038.52 855.743 2016.97 851.018" fill="#979797"/>
</g>
</svg>
