<svg width="1440" height="526" viewBox="0 0 1440 526" fill="none" xmlns="http://www.w3.org/2000/svg">
<path d="M-595.901 -543.046C-525.727 -506.779 -461.765 -464.739 -408.729 -414.532C-373.904 -381.565 -339.48 -344.729 -318.418 -305.273C-282.796 -238.546 -277.936 -159.864 -269.519 -85.5669C-260.245 -3.64265 -251.943 79.7965 -223.016 156.587C-207.403 198.033 -181.01 234.526 -134.097 258.773C-90.0491 281.56 -38.9775 293.721 14.7116 297.619C127.717 305.808 245.284 286.554 357.898 269.142C418.397 259.784 478.832 249.912 539.527 241.907C594.155 234.702 652.256 226.02 706.958 228.434C859.3 235.186 927.131 246.428 1060.4 294.394C1107.4 311.315 1174.08 333.057 1217.21 356.325C1307.62 405.102 1471.64 573.547 1546.56 602.231C1937.62 718.324 1965.14 614.268 2039.72 615.242C2055.82 615.455 2073.15 615.134 2088.4 611.575C2109.8 606.589 2141.03 595.771 2141.53 574.057C2141.57 572.813 2141.47 571.578 2141.22 570.366C2136.99 549.621 2108.36 534.479 2089.05 523.171C2076.8 516.123 2064.03 509.631 2050.78 503.726C1914.7 441.87 1437 303.667 1286.68 261.417C1133.05 218.333 975.012 179.543 814.021 155.389C724.362 141.94 639.485 136.236 546.565 150.469C468.45 162.46 391.573 181.286 314.81 198.254C219.652 219.296 118.204 241.935 20.7782 234.016C-30.9787 229.809 -80.8674 214.43 -120.321 189.414C-160.164 164.211 -176.374 123.88 -181.598 85.0584C-194.019 -7.20443 -165.619 -105.939 -157.448 -201.185C-153.575 -246.329 -152.478 -292.162 -163.192 -335.984C-173.604 -378.552 -199.053 -412.623 -229.51 -446.806C-270.93 -493.335 -318.383 -537.668 -373.077 -573.857C-391.534 -586.031 -411.792 -596.48 -433.488 -605.019C-491.056 -627.751 -556.11 -645.851 -624.731 -640.278C-646.406 -638.52 -671.456 -634.113 -689.991 -623.883C-742.462 -594.932 -617.782 -553.793 -595.901 -543.046Z" fill="#00237C"/>
<path d="M-451.303 -657.847C-370.426 -619.345 -293.86 -575.665 -232.716 -520.22C-195.834 -486.766 -157.739 -447.81 -142.556 -404.945C-116.499 -331.413 -136.202 -244.747 -149.535 -165.848C-163.919 -80.7606 -190.188 13.811 -167.12 94.1404C-155.732 133.887 -130.455 163.671 -83.4871 183.829C-42.0984 201.485 5.11979 210.283 53.7545 209.401C147.609 207.94 241.411 179.894 330.721 155.026C424.406 128.987 521.134 99.8332 619.417 94.0845C689.095 90.0013 759.769 101.194 826.613 111.18C927.36 126.237 1026.57 146.134 1124.6 167.696C1187.19 181.449 1249.97 195.558 1311.98 210.601C1435.26 240.505 1556.4 275.428 1678.78 307.583C1769.16 331.335 2178.51 453.656 2276.23 455.33C2289.8 455.558 2304.69 454.994 2317.64 450.986C2345.01 442.505 2329.69 416.099 2319.87 405.649C2318.41 404.155 2316.83 402.735 2315.15 401.396C2286.74 377.991 2246.13 362.884 2208.84 349.851C2191.46 343.755 2173.28 338.034 2155.34 332.532C1984.91 280.236 1494.02 141.712 1315.74 103.739C1150.99 68.6425 983.405 35.7236 813.386 16.4515C729.156 6.90741 650.609 1.5228 565.018 19.1338C495.035 33.5361 427.338 55.9277 359.732 76.6248C275.131 102.526 184.481 130.355 94.3652 127.842C45.8112 126.512 -2.66183 113.821 -40.6877 91.9671C-82.9376 67.6929 -98.8539 28.6527 -102.324 -10.8004C-110.468 -103.589 -70.8372 -203.62 -47.6134 -299.139C-36.1015 -346.427 -34.6625 -371.329 -38.1863 -420.156C-44.7702 -465.333 -62.3658 -513.838 -83.0123 -542.037C-117.773 -589.512 -158.436 -636.195 -213.618 -669.789C-232.983 -681.419 -253.378 -692.003 -274.677 -701.475C-342.745 -732.028 -421.447 -756.183 -503.031 -759.817C-523.604 -760.723 -550.967 -760.22 -569.155 -750.134C-625.593 -718.838 -472.965 -667.795 -451.291 -657.849" fill="#CD142B"/>
</svg>
