<svg width="18" height="22" viewBox="0 0 18 22" fill="none" xmlns="http://www.w3.org/2000/svg">
<path d="M11.0004 0H7.00039C6.66902 0 6.40039 0.268629 6.40039 0.6V1.8C6.40039 2.13137 6.66902 2.4 7.00039 2.4H11.0004C11.3318 2.4 11.6004 2.13137 11.6004 1.8V0.6C11.6004 0.268629 11.3318 0 11.0004 0Z" fill="#00237C"/>
<path d="M8.99922 13.0002V6.2002C5.24967 6.2002 2.19922 9.25065 2.19922 13.0002C2.19922 16.7497 5.24967 19.8002 8.99922 19.8002C12.7488 19.8002 15.7992 16.7497 15.7992 13.0002H8.99922Z" fill="#00237C"/>
<path d="M15.5809 6.86765L16.2243 6.22425C16.2807 6.1687 16.3256 6.10253 16.3564 6.02954C16.3871 5.95655 16.4031 5.87819 16.4035 5.79899C16.4038 5.71978 16.3884 5.6413 16.3583 5.56806C16.3281 5.49483 16.2837 5.42829 16.2277 5.37228C16.1717 5.31628 16.1052 5.27191 16.0319 5.24175C15.9587 5.21159 15.8802 5.19623 15.801 5.19655C15.7218 5.19687 15.6435 5.21287 15.5705 5.24363C15.4975 5.27439 15.4313 5.31929 15.3758 5.37575L14.7062 6.0453C13.4166 4.98302 11.8559 4.30231 10.2 4.08V3H7.8V4.08C6.14417 4.30222 4.5834 4.98282 3.29385 6.045L2.62425 5.37545C2.5687 5.31899 2.50253 5.27409 2.42954 5.24333C2.35655 5.21257 2.27819 5.19657 2.19899 5.19625C2.11979 5.19593 2.0413 5.21129 1.96807 5.24145C1.89483 5.27161 1.82829 5.31598 1.77228 5.37198C1.71628 5.42799 1.67191 5.49453 1.64175 5.56776C1.61159 5.641 1.59623 5.71948 1.59655 5.79869C1.59687 5.87789 1.61288 5.95625 1.64363 6.02924C1.67439 6.10223 1.71929 6.1684 1.77575 6.22395L2.4191 6.86735C0.863219 8.5302 -0.00166363 10.7228 2.40251e-06 13C2.40251e-06 17.9626 4.0374 22 9 22C13.9626 22 18 17.9626 18 13C18.0016 10.7229 17.1367 8.53042 15.5809 6.86765ZM9 20.4C7.53642 20.4 6.10571 19.966 4.88878 19.1529C3.67186 18.3398 2.72338 17.184 2.16329 15.8319C1.60321 14.4797 1.45666 12.9918 1.74219 11.5563C2.02772 10.1209 2.7325 8.80232 3.76741 7.76741C4.80232 6.7325 6.12087 6.02772 7.55633 5.74219C8.99179 5.45666 10.4797 5.6032 11.8319 6.16329C13.184 6.72338 14.3398 7.67186 15.1529 8.88878C15.966 10.1057 16.4 11.5364 16.4 13C16.4 13.9718 16.2086 14.934 15.8367 15.8319C15.4648 16.7297 14.9197 17.5454 14.2326 18.2326C13.5454 18.9197 12.7297 19.4648 11.8319 19.8367C10.934 20.2086 9.97178 20.4 9 20.4Z" fill="#00237C"/>
</svg>
