<svg width="348" height="332" fill="none" xmlns="http://www.w3.org/2000/svg"><g style="mix-blend-mode:multiply" opacity=".2"><path d="M320.389 166.001c0-81.149-65.528-146.91-146.389-146.91C93.14 19.09 27.611 84.852 27.611 166H320.39z" fill="#CD142B"/><path d="M27.611 164.148c0 81.149 65.529 146.91 146.389 146.91 80.861 0 146.389-65.761 146.389-146.91H27.611z" fill="#00237C"/><path d="M320.389 166.001c0 81.148-65.528 146.91-146.389 146.91-80.86 0-146.389-65.762-146.389-146.91 0-81.149 65.529-146.91 146.389-146.91 80.861 0 146.389 65.761 146.389 146.91z" stroke="#fff" stroke-width="9" stroke-miterlimit="10"/><path d="M27.611 166h82.579m127.24-2.043h82.96" stroke="#fff" stroke-width="8" stroke-miterlimit="10"/><path d="M98.992 85.043c1.654 1.405 2.927 3 3.881 4.788.954 1.788 1.527 3.704 1.718 5.81.19 2.107-.064 4.087-.637 6.066-.572 1.979-1.59 3.703-2.863 5.299-1.336 1.596-2.926 2.809-4.707 3.767-1.782.958-3.754 1.468-5.79 1.596-2.1.192-4.072-.064-6.044-.702-1.908-.639-3.69-1.66-5.344-3.001a16.289 16.289 0 01-3.88-4.788c-.955-1.788-1.527-3.767-1.718-5.874a15.97 15.97 0 01.572-6.002c.573-1.979 1.59-3.703 2.863-5.299a14.996 14.996 0 014.708-3.767c1.845-.958 3.754-1.468 5.79-1.66 2.035-.128 4.071.064 5.98.702 2.035.703 3.817 1.724 5.471 3.065zm-3.245 17.494c1.4-1.66 1.909-3.576 1.59-5.746-.38-2.171-1.462-4.086-3.435-5.683-1.908-1.596-3.944-2.426-6.17-2.362-2.227 0-4.009.83-5.345 2.49-1.4 1.66-1.908 3.575-1.59 5.746.382 2.171 1.527 4.086 3.435 5.683 1.972 1.66 4.008 2.49 6.171 2.49 2.163-.064 3.945-.958 5.344-2.618zm19.786-38.245l.064.064c.827.575 1.463 1.085 1.972 1.596-.191-.638-.254-1.404-.318-2.362v-.256l-.382-7.789 8.08-4.533-1.336 17.302 16.859 8.364-7.761 4.342-8.589-5.363c-.382-.256-.763-.51-1.081-.766a4.296 4.296 0 01-.955-.894c.128.447.255.957.318 1.34.064.384.064.83.064 1.278l.064 10.151-7.762 4.342 1.654-18.963-15.332-7.661 8.143-4.597 6.298 4.405zm33.21 10.471l-5.472-29.433 17.305-3.256 1.209 6.449-9.798 1.851.955 5.108 9.225-1.724 1.208 6.32-9.225 1.725 2.164 11.556-7.571 1.404zm58.975-13.854c-.382 2.107-1.082 4.022-2.163 5.746-1.082 1.724-2.418 3.192-4.136 4.405-1.717 1.213-3.562 2.043-5.535 2.49a15.75 15.75 0 01-5.98.192c-2.036-.32-3.881-1.086-5.598-2.171a14.344 14.344 0 01-4.326-4.214c-1.209-1.724-2.036-3.575-2.482-5.555-.445-1.979-.445-4.022-.127-6.129.382-2.107 1.082-4.022 2.163-5.746a15.341 15.341 0 014.199-4.405 14.682 14.682 0 015.471-2.49 16.02 16.02 0 016.044-.192c2.036.32 3.881 1.085 5.599 2.17a14.343 14.343 0 014.326 4.215c1.145 1.724 1.972 3.575 2.418 5.554.445 1.98.445 4.023.127 6.13zm-16.669 6.065c2.163.383 4.072-.128 5.726-1.532 1.654-1.405 2.736-3.32 3.181-5.874.445-2.49.064-4.66-1.081-6.576-1.146-1.916-2.736-3.001-4.835-3.384-2.164-.383-4.072.128-5.726 1.532-1.654 1.405-2.736 3.384-3.181 5.81-.446 2.554-.064 4.725 1.018 6.576 1.081 1.98 2.735 3.129 4.898 3.448zm23.603 13.345l15.46-25.667 6.998 4.278c2.736 1.66 4.581 2.937 5.535 3.895.954.893 1.591 1.915 2.036 3 .445 1.213.636 2.554.445 3.895-.191 1.34-.636 2.745-1.463 4.022-1.209 1.98-2.608 3.32-4.326 3.959-1.654.702-3.563.702-5.599 0l.509 14.429-7.571-4.597.382-13.471-6.044 10.023-6.362-3.766zm14.442-9.705l1.272.766c1.464.894 2.672 1.277 3.627 1.15.954-.128 1.781-.703 2.481-1.788.763-1.277 1.018-2.363.7-3.32-.318-.894-1.209-1.852-2.672-2.746l-1.336-.83-4.072 6.768zm11.642 27.453l23.094-18.962 3.817 4.66c2.8 3.448 4.645 6.066 5.472 7.79a14.276 14.276 0 011.399 5.171c.128 2.235-.318 4.406-1.272 6.449-1.018 2.043-2.545 3.895-4.581 5.555-2.035 1.66-4.135 2.809-6.362 3.383a12.659 12.659 0 01-6.552 0c-1.655-.447-3.245-1.213-4.645-2.362-1.463-1.085-3.371-3.128-5.725-6.065l-.827-1.022-3.818-4.597zm10.116 1.788l.827 1.022c1.972 2.362 3.881 3.703 5.789 4.022 1.909.255 3.945-.511 6.171-2.299 2.227-1.787 3.372-3.703 3.5-5.618.127-1.915-.764-4.086-2.736-6.512l-.827-1.022-12.724 10.407zM64.129 221.483l25.893-14.876 9.225 16.217-5.662 3.256-5.217-9.194-4.517 2.554 4.899 8.619-5.535 3.193-4.899-8.62-4.39 2.49 5.217 9.194-5.79 3.32-9.224-16.153zm22.203 32.88l18.577-23.431 6.235 4.98-.636 19.217c0 .383-.128 1.086-.319 2.171a40.541 40.541 0 01-.827 3.703c.637-1.085 1.209-2.043 1.782-2.809.572-.83 1.018-1.469 1.527-2.107l9.161-11.556 6.235 4.98-18.577 23.431-6.235-4.98.636-19.281c0-.383.127-1.086.318-2.171a64.1 64.1 0 01.764-3.639 58.408 58.408 0 01-1.782 2.809c-.572.83-1.018 1.532-1.527 2.107l-9.16 11.556-6.172-4.98zm60.567 21.517l1.526-6.13 15.778 3.895c-.063.191-.063.447-.127.638-.064.256-.127.575-.255 1.086-1.208 4.98-3.499 8.555-6.87 10.662-3.372 2.107-7.444 2.554-12.279 1.341-2.418-.575-4.39-1.469-6.108-2.618-1.654-1.149-3.053-2.681-4.198-4.469-1.082-1.724-1.718-3.639-2.036-5.746-.318-2.107-.191-4.15.318-6.257.509-2.171 1.399-4.086 2.608-5.682 1.209-1.66 2.736-3.001 4.581-4.087 1.845-1.021 3.753-1.724 5.853-1.979a16.94 16.94 0 016.425.447c2.863.702 5.281 1.915 7.253 3.575 1.972 1.66 3.372 3.831 4.39 6.385l-7.762 1.596c-.572-1.341-1.272-2.426-2.163-3.192-.891-.83-1.972-1.341-3.308-1.66-2.418-.575-4.453-.255-6.235.958-1.781 1.213-2.99 3.256-3.69 6.001-.7 2.746-.509 5.108.446 7.023 1.017 1.916 2.672 3.193 5.089 3.767 2.036.511 3.881.447 5.471-.191 1.591-.639 2.736-1.788 3.372-3.384l-8.079-1.979zm33.463 14.429l-3.435-29.753 8.207-.957 2.672 22.793 10.179-1.213.827 6.959-18.45 2.171zm35.245-7.278l-11.07-27.837 7.762-3.129 11.07 27.837-7.762 3.129zm20.868-21.07c1.781.319 3.372.383 4.771.192 1.336-.192 2.482-.639 3.436-1.405.891-.702 1.399-1.468 1.654-2.362.191-.894.064-1.724-.509-2.426-.636-.767-1.336-1.214-2.099-1.277-.828-.064-2.227.383-4.327 1.213-2.862 1.213-5.153 1.66-6.871 1.404-1.717-.255-3.308-1.277-4.644-3-1.717-2.299-2.417-4.725-1.972-7.343.445-2.617 1.909-4.852 4.326-6.767a17.207 17.207 0 014.199-2.363c1.463-.574 2.99-.894 4.581-1.021l1.527 6.257a11.41 11.41 0 00-3.372.319 6.595 6.595 0 00-2.672 1.341c-.764.638-1.273 1.277-1.464 2.043-.19.766-.063 1.404.382 1.979.445.575 1.018.894 1.718.958.7.063 1.781-.256 3.308-.894l.382-.128c3.244-1.341 5.598-1.915 7.062-1.724 1.018.128 1.972.511 2.926 1.086.891.574 1.781 1.404 2.545 2.362 1.909 2.49 2.672 5.171 2.163 7.981-.509 2.809-2.163 5.299-4.962 7.47-1.654 1.277-3.436 2.17-5.217 2.681-1.782.511-3.817.639-5.98.447l-.891-7.023zm34.418-18.388l-25.575-15.514 4.263-7.087 9.925 6.001 5.725-9.449-9.924-6.002 4.262-7.086 25.575 15.514-4.262 7.087-10.37-6.321-5.726 9.45 10.37 6.32-4.263 7.087z" fill="#fff"/><mask id="a" maskUnits="userSpaceOnUse" x="100" y="92" width="149" height="149"><path d="M174.7 240.317c40.758 0 73.799-33.158 73.799-74.061 0-40.903-33.041-74.062-73.799-74.062-40.758 0-73.799 33.159-73.799 74.062s33.041 74.061 73.799 74.061z" fill="#fff"/></mask><g mask="url(#a)"><path d="M156.632 94.11H68.837v47.118h87.795V94.11z" fill="#00237C"/><path d="M92.949 94.11H68.837v14.812l117.569 77.892 28.629-11.811L92.949 94.11z" fill="#fff"/><path d="M68.837 95.323v10.215l119.16 78.914 4.644-7.087L68.837 95.323z" fill="#CD142B"/><path d="M280.31 94.11h-87.795v47.118h87.795V94.11z" fill="#00237C"/><path d="M256.261 94.11h24.112v14.812L162.74 186.814l-28.565-11.811L256.261 94.11z" fill="#fff"/><path d="M280.373 95.323v10.215l-119.159 78.914-4.645-7.087 123.804-82.042z" fill="#CD142B"/><path d="M280.31 189.049h-87.795v47.119h87.795v-47.119z" fill="#00237C"/><path d="M256.261 236.231h24.112v-14.876L162.74 143.463l-28.565 11.811 122.086 80.957z" fill="#fff"/><path d="M280.373 234.954v-10.152l-119.159-78.977-4.645 7.087 123.804 82.042z" fill="#CD142B"/><path d="M156.632 189.049H68.837v47.119h87.795v-47.119z" fill="#00237C"/><path d="M92.949 236.231H68.837v-14.876l117.569-77.892 28.629 11.811-122.086 80.957z" fill="#fff"/><path d="M68.837 234.954v-10.152l119.16-78.977 4.644 7.087-123.804 82.042z" fill="#CD142B"/><path d="M280.373 141.228h-87.668V94.11h-36.582v47.118H68.837v46.8h87.286v48.203h36.582v-48.203h87.668v-46.8z" fill="#fff"/><path d="M280.373 150.805h-95.43V94.11h-21.058v56.695H68.837v27.646h95.048v57.78h21.058v-57.78h95.43v-27.646z" fill="#CD142B"/></g><path d="M244.499 166.256c0 38.707-31.263 70.061-69.799 70.061-38.535 0-69.799-31.354-69.799-70.061 0-38.707 31.264-70.062 69.799-70.062 38.536 0 69.799 31.355 69.799 70.062z" stroke="#fff" stroke-width="8"/></g></svg>