<svg width="1440" height="266" viewBox="0 0 1440 266" fill="none" xmlns="http://www.w3.org/2000/svg">
<mask id="mask0" mask-type="alpha" maskUnits="userSpaceOnUse" x="0" y="0" width="1440" height="266">
<rect width="1440" height="266" fill="#C4C4C4"/>
</mask>
<g mask="url(#mask0)">
<path d="M-481.379 -787.2C-410.936 -732.064 -345.233 -671.941 -295.57 -601.383C-265.614 -558.813 -235.274 -510.016 -226.911 -460.595C-212.553 -375.812 -242.814 -283.944 -266.054 -199.571C-291.123 -108.583 -328.608 -9.09485 -317.975 82.6614C-312.738 128.058 -293.143 164.75 -251.934 194.356C-215.606 220.327 -172.613 237.517 -126.974 244.32C-38.9349 257.715 52.6826 241.954 139.661 228.959C230.895 215.38 325.402 198.872 418.171 208.273C483.941 214.929 548.56 238.493 609.758 260.121C701.997 292.728 792.136 330.393 880.943 369.696C937.649 394.776 994.48 420.275 1050.46 446.675C1161.77 499.159 1270.38 556.803 1380.53 611.611C1461.88 652.093 1828.31 851.607 1919.55 869.057C1932.21 871.474 1946.23 873.235 1958.9 870.91C1985.67 865.984 1974.93 834.587 1967.17 821.561C1966.01 819.689 1964.72 817.881 1963.33 816.143C1939.93 785.944 1903.98 762.892 1870.87 742.646C1855.43 733.184 1839.2 724.008 1823.16 715.109C1670.78 630.542 1316.68 381.118 1155 311C1001 260.121 835 208.273 621 147.638C543.469 123.716 459.99 111.775 377.481 117.408C310.018 122.016 243.604 135.749 177.507 147.638C94.7949 162.518 6.1571 178.544 -77.8416 161.391C-123.103 152.175 -166.739 130.516 -199.347 100.48C-235.579 67.116 -245.151 21.7704 -243.017 -22.0391C-237.983 -125.07 -187.248 -228.409 -152.483 -329.422C-135.259 -379.427 -130.516 -406.5 -127.154 -460.595C-127.154 -511.177 -137.006 -567.169 -152.483 -601.383C-178.541 -658.987 -210.231 -716.667 -257.296 -762.315C-273.833 -778.159 -291.478 -793.022 -310.119 -806.811C-369.659 -851.183 -440.023 -890.241 -515.883 -907.261C-535.015 -911.542 -560.693 -915.361 -579.091 -907.21C-636.182 -881.915 -500.296 -801.567 -481.367 -787.2" fill="#00237C"/>
<path d="M-682.631 -702.043C-617.169 -651.013 -558.823 -594.642 -512.701 -531.055C-482.415 -489.302 -453.102 -443.367 -437.655 -396.694C-411.528 -317.76 -418.194 -230.626 -420.626 -147.736C-423.314 -56.3369 -427.207 36.5688 -409.315 125.477C-399.657 173.462 -378.396 217.736 -334.634 251.852C-293.547 283.907 -243.812 305.424 -190.222 318.289C-77.4214 345.352 44.0146 343.025 160.184 341.928C222.593 341.333 285.013 340.165 347.422 341.088C403.591 341.918 463.482 341.682 518.313 353.081C671.008 384.86 812.975 468.078 940.371 542.04C985.301 568.129 1030.73 594.064 1075.26 620.553C1147.02 663.228 1215.13 710.609 1286.5 754.073C1663.94 944.041 1730.89 977.798 1805.98 990.796C1822.19 993.605 1839.72 996.024 1855.63 994.558C1877.95 992.508 1911.05 985.63 1914.74 961.878C1914.97 960.52 1915.05 959.147 1914.97 957.777C1913.76 934.333 1887.1 913.134 1869.28 897.634C1857.96 887.94 1846.03 878.771 1833.53 870.171C1705.34 780.515 1243.74 552.424 1098.31 482.009C949.651 410.149 795.862 351.26 637 299C548.526 269.897 443.255 232.241 347.422 233C266.854 233.666 207.073 250.888 127.137 257.234C28.0445 265.107 -93.0995 281.508 -190.222 257.234C-241.817 244.338 -274.414 211.698 -310.539 177.931C-347.028 143.898 -357.451 97.0399 -357.014 53.5958C-355.98 -49.6532 -312.813 -153.476 -290.567 -256.705C-280.021 -305.633 -272.176 -355.761 -276.543 -405.571C-280.788 -453.956 -301.453 -495.422 -327.153 -537.81C-362.098 -595.503 -403.452 -651.751 -453.308 -700.218C-470.139 -716.531 -489.039 -731.24 -509.672 -744.082C-564.406 -778.239 -627.374 -808.511 -697.421 -813.37C-719.546 -814.907 -745.465 -814.077 -765.668 -805.815C-822.859 -782.432 -703.126 -717.337 -682.631 -702.043Z" fill="#C4C4C4"/>
</g>
</svg>
