<svg width="1440" height="956" fill="none" xmlns="http://www.w3.org/2000/svg"><mask id="a" maskUnits="userSpaceOnUse" x="0" y="0" width="1441" height="948"><path fill="#C4C4C4" d="M0 0h1441v948H0z"/></mask><g mask="url(#a)"><path d="M1868.88 984.954c-176.18-25.71-353.14-43.184-528.88-61.182-187.3-19.194-365.894-7.914-545.914-8.173-108.46-.115-216.94-6.97-324.831-43.979-75.486-25.918-135.468-58.944-183.924-101.583-67.509-59.402-107.37-126.161-179.437-184.018-16.68-13.392-36.41-26.757-61.59-34.748-20.93-6.627-43.712-8.971-64.929-12.895-18.889-3.497-29.837-10.723-37.237-20.298-22.552-29.207-15.772-69-24.918-100.227-1.927-6.597-4.806-15.016-2.571-21.067 1.605-4.32 7.346-4.561 12.408-4.657 39.31-.744 78.888-4.365 120.086-.895 47.224 3.976 87.013 18.866 119.317 40.638 55.329 37.335 87.545 87.982 126.581 131.913 38.578 43.355 78.48 86.932 128.12 127.686 41.983 34.5 91.363 66.194 150.036 91.745 73.545 32.002 157.673 46.462 238.18 53.515 198.003 17.309 390.653 2.566 590.553 18.398 99.46 7.874 200.32 19.453 300.22 30.845 85.54 9.753 172.32 20.447 256.98 36.968 23.84 4.648 55.48 10.156 74.18 22.689 9.07 6.084 11.9 12.623 13.63 18.94 2.56 9.38 1.26 19.05-8.19 25.378-31.22 20.953-120.26 3.088-167.81-4.997" fill="#00237C"/><path d="M1952.12 906.949c-95.36-16.579-191.01-28.259-286.27-38.934-62.59-7.011-125.21-13.59-187.78-20.23-95.46-10.136-189.38-13.919-282.79-15.915-101.38-2.168-203.149-2.646-305.197-8.498-115.806-6.642-231.466-21.797-335.576-71.208-82.743-39.3-145.306-89.945-198.669-141.789-33.157-32.228-63.045-65.146-92.427-98.119-27.41-30.752-51.339-63.217-89.067-91.501-50.749-38.042-115.561-53.467-185.546-69.104-25.933-5.794-47.863-16.68-66.55-28.875-44.8-29.229-77.992-64.728-107.915-99.069-3.911-4.485-7.897-9.141-11.679-13.978-7.516-9.632-13.833-19.414-18.895-29.256-.413-.705-.746-1.414-1.079-2.124-3.196-6.927-7.294-15.126-4.465-21.59 1.673-3.818 7.906-4.097 14.372-3.837 122.088 5.329 252.313 15.086 355.972 72.408 61.627 34.069 93.96 79.588 130.412 122.083 41.755 48.762 83.989 97.669 129.966 145.41 56.411 58.584 119.363 118.651 201.822 169.075 86.359 52.798 184.523 77.79 294.073 92.092 140.328 18.32 280.268 21.044 419.578 28.162 138.81 7.092 278.33 22.57 418.31 38.69 84.16 9.694 169.99 19.917 252.72 36.459 24.11 4.822 48.64 10.618 70.79 19.999 16.01 6.755 32.98 15.333 42.88 25.26 6.29 6.336 8.52 16.115 1.6 20.852-13 8.915-44.23 3.633-64.44.61-31.41-4.708-62.9-11.084-94.16-17.094" fill="#CD142B"/><path d="M2017.09 851.025c-86.86-17.666-174.34-29.285-261.45-39.62-60.24-7.118-120.64-13.698-180.88-20.421-97.55-10.883-194.12-16.294-290.63-21.548-105.39-5.747-211.67-12.131-317.68-24.651-62.361-7.37-126.003-17.103-187.62-32.894-62.913-16.132-117.098-42.851-164.696-73.158-96.923-61.73-169.253-134.999-235.476-206.072-35.476-38.081-68.976-76.535-102.243-115.018-31.028-35.889-58.546-73.315-105.344-105.206-74.114-50.588-175.324-75.963-273.301-99.143-33.237-7.858-64.337-18.962-93.716-31.767-64.451-28.095-120.433-58.606-167.524-97.07-6.066-4.797-11.662-9.748-16.752-14.822-8.526-8.875-16.303-18.302-18.748-27.872a15.66 15.66 0 01-.329-1.636c-1.049-7.008 3.091-10.418 10.669-12.544 4.874-1.368 12.993-.6 21.664.68C-207.972-48.272-30.879-26.543 104.495 43.392c69.879 36.102 103.962 82.66 142.869 129.246 48.273 57.848 96.709 115.831 148.398 172.935 66.137 73.079 137.102 148.37 230.287 214.317 44.506 31.482 97.379 60.577 158.782 79.317 52.578 16.037 108.785 27.164 163.056 36.173 139.743 23.185 280.153 33.669 419.813 45.441 133.73 11.26 267.29 27.443 401.37 44.28 75.16 9.438 151.76 18.997 225.35 34.427 22.75 4.765 45.51 10.742 67.18 18.613 26.5 9.63 56.68 20.551 75.91 34.418 7.76 5.603 19.71 14.465 17.4 20.796-5.27 14.573-116.39-17.612-137.94-22.337" fill="#979797"/></g></svg>