<svg width="1440" height="526" fill="none" xmlns="http://www.w3.org/2000/svg"><path d="M-595.901-543.046c70.174 36.267 134.136 78.307 187.172 128.514 34.825 32.967 69.249 69.803 90.311 109.259 35.622 66.727 40.482 145.409 48.899 219.706 9.274 81.924 17.576 165.363 46.503 242.154 15.613 41.446 42.006 77.939 88.919 102.186 44.048 22.787 95.12 34.948 148.809 38.846 113.005 8.189 230.572-11.065 343.186-28.477 60.499-9.358 120.934-19.23 181.629-27.235 54.628-7.205 112.729-15.887 167.431-13.473 152.342 6.752 220.173 17.994 353.442 65.96 47 16.921 113.68 38.663 156.81 61.931 90.41 48.777 254.43 217.222 329.35 245.906 391.06 116.093 418.58 12.037 493.16 13.011 16.1.213 33.43-.108 48.68-3.667 21.4-4.986 52.63-15.804 53.13-37.518.04-1.244-.06-2.479-.31-3.691-4.23-20.745-32.86-35.887-52.17-47.195a417.54 417.54 0 00-38.27-19.445C1914.7 441.87 1437 303.667 1286.68 261.417c-153.63-43.084-311.668-81.874-472.659-106.028-89.659-13.449-174.536-19.153-267.456-4.92-78.115 11.991-154.992 30.817-231.755 47.785-95.158 21.042-196.606 43.681-294.032 35.762-51.757-4.207-101.645-19.586-141.099-44.602-39.843-25.203-56.053-65.534-61.277-104.356-12.421-92.262 15.979-190.997 24.15-286.243 3.873-45.144 4.97-90.977-5.744-134.799-10.412-42.568-35.861-76.639-66.318-110.822-41.42-46.529-88.873-90.862-143.567-127.051-18.457-12.174-38.715-22.623-60.411-31.162-57.568-22.732-122.622-40.832-191.243-35.259-21.675 1.758-46.725 6.165-65.26 16.395-52.471 28.951 72.209 70.09 94.09 80.837z" fill="#00237C"/><path d="M-451.303-657.847c80.877 38.502 157.443 82.182 218.587 137.627 36.882 33.454 74.977 72.41 90.16 115.275 26.057 73.532 6.354 160.198-6.979 239.097-14.384 85.087-40.653 179.659-17.585 259.988 11.388 39.747 36.665 69.531 83.633 89.689 41.389 17.656 88.607 26.454 137.242 25.572 93.854-1.461 187.656-29.507 276.966-54.375 93.685-26.039 190.413-55.193 288.696-60.942 69.678-4.083 140.352 7.11 207.196 17.096 100.747 15.057 199.957 34.954 297.987 56.516 62.59 13.753 125.37 27.862 187.38 42.905 123.28 29.904 244.42 64.827 366.8 96.982 90.38 23.752 499.73 146.073 597.45 147.747 13.57.228 28.46-.336 41.41-4.344 27.37-8.481 12.05-34.887 2.23-45.337a51.322 51.322 0 00-4.72-4.253c-28.41-23.405-69.02-38.512-106.31-51.545-17.38-6.096-35.56-11.817-53.5-17.319-170.43-52.296-661.32-190.82-839.6-228.793-164.75-35.097-332.335-68.015-502.354-87.288-84.23-9.544-162.777-14.928-248.368 2.683-69.983 14.402-137.68 36.794-205.286 57.49-84.601 25.902-175.251 53.731-265.367 51.218-48.554-1.33-97.027-14.021-135.053-35.875-42.25-24.274-58.166-63.314-61.636-102.767-8.144-92.789 31.487-192.82 54.71-288.339 11.512-47.288 12.951-72.19 9.428-121.017-6.584-45.177-24.18-93.682-44.826-121.881-34.761-47.475-75.424-94.158-130.606-127.752-19.365-11.63-39.76-22.214-61.059-31.686-68.068-30.553-146.77-54.708-228.354-58.342-20.573-.906-47.936-.403-66.124 9.683-56.438 31.296 96.19 82.339 117.864 92.285" fill="#CD142B"/></svg>