<svg width="1440" height="449" fill="none" xmlns="http://www.w3.org/2000/svg"><mask id="a" maskUnits="userSpaceOnUse" x="0" y="0" width="1440" height="449"><path d="M0 0h1440v449H0V0z" fill="#C4C4C4"/></mask><g mask="url(#a)"><path d="M-225.168 383.216c214.084-28.759 424.856-71.427 634.49-112.732 223.445-44.007 421.38-134.779 626.838-207.089 123.77-43.633 251-76.152 392.97-58.674 99.34 12.269 184.63 42.53 261.68 93.312 107.35 70.746 186.93 164.802 298.69 231.157 25.86 15.358 55.2 29.44 88 32.453 27.26 2.48 54.44-2.858 80.65-4.954 23.33-1.863 39.51 5.638 52.84 18.449 40.64 39.083 53.24 107.486 79.63 155.321 5.57 10.107 13.15 22.836 13.7 33.725.37 7.775-6.05 10.493-11.78 12.697-44.45 17.111-87.74 39.077-136.51 49.998-55.89 12.519-108.88 4.025-156.85-18.85-82.18-39.252-144.81-109.81-211.78-166.531-66.15-55.954-133.93-111.741-211.37-158.934-65.51-39.966-138.03-72.315-218-90.771-100.24-23.092-203.58-12.963-299.01 7.929-234.682 51.437-446.888 153.607-682.981 208.251-117.467 27.194-238.422 48.839-358.178 70.4-102.549 18.47-207 35.888-312 42.832-29.563 1.962-68.47 5.659-96.196-7.47-13.456-6.373-20.032-16.017-25.231-25.744-7.712-14.444-11.166-30.927-3.626-45.187 24.909-47.198 135.597-53.689 193.96-59.559" fill="#979797"/><path d="M-280.256 545.568c117.238-11.172 232.3-30.544 346.406-51.418 74.975-13.721 149.754-28.164 224.522-42.492 114.055-21.842 223.115-53.55 330.678-87.998 116.736-37.383 233.055-77.714 352.439-109.289 135.481-35.831 275.141-57.555 419.131-18.085 114.46 31.419 211.69 89.712 299.05 153.702 54.28 39.783 105.19 82.028 155.55 124.565 46.98 39.671 90.86 83.574 148.34 115.003 77.32 42.269 159.13 41.537 246.94 39.063 32.54-.917 63.11 8.186 90.66 20.759 66.03 30.131 122.03 75.298 173.71 119.875 6.75 5.822 13.67 11.894 20.46 18.347 13.49 12.858 25.69 26.446 36.5 40.643.83.995 1.57 2.031 2.31 3.068 7.19 10.139 16.05 22.014 16.13 33.822.04 6.977-6.93 9.957-14.44 12.139-141.97 40.536-295.49 77.053-443.01 24.345-87.7-31.318-147.83-93.367-211.12-148.762-72.54-63.594-145.7-127.233-222.53-187.436-94.28-73.879-196.77-147.563-316.58-197.452-125.48-52.231-250.21-53.81-382.474-33.147C823.004 401.287 662 453.335 499.468 497.876 337.514 542.262 170.477 573.091 2.573 603.052-98.37 621.06-201.488 638.87-304.296 644.996c-29.962 1.785-60.91 2.136-90.961-4.398-21.708-4.679-45.448-11.977-61.822-24.354-10.406-7.916-17.95-23.151-12.475-33.764 10.274-19.964 48.593-23.867 73.193-27.044 38.226-4.921 77.401-7.124 116.13-9.838" fill="#00237C"/></g></svg>