<svg width="174" height="174" fill="none" xmlns="http://www.w3.org/2000/svg"><circle cx="87" cy="87" r="87" fill="#CD142B"/><circle cx="87" cy="87" r="73.5" stroke="#fff" stroke-width="5" stroke-dasharray="15 15"/><path d="M58.278 136.572a1.466 1.466 0 010-2.073 5.508 5.508 0 000-7.781c-3.287-3.288-3.287-8.637 0-11.925a5.51 5.51 0 000-7.782 1.465 1.465 0 012.072-2.072c3.288 3.289 3.288 8.638 0 11.926a5.508 5.508 0 000 7.781c3.288 3.288 3.288 8.638 0 11.926-.572.571-1.5.571-2.072 0z" fill="#BDBDBD"/><path d="M75.335 84.246c-5.513-5.908-9.37-15.7-9.011-24.306a1.466 1.466 0 00-.97-1.44 17.844 17.844 0 00-6.04-1.034c-9.907 0-17.822 7.757-17.822 19.346 0 11.432 8.227 25.1 17.823 25.1 7.621 0 13.815-8.405 16.344-16.215a1.467 1.467 0 00-.324-1.451z" fill="#FFCA28"/><path d="M75.335 84.246c-5.513-5.907-9.371-15.7-9.012-24.306a1.466 1.466 0 00-.97-1.44c-2.478-.888-5.152-1.204-7.811-.949.26 5.501 2.124 11.455 5.025 16.406 3.187 5.439 2.758 12.318-1.3 17.142-3.025 3.595-7.14 6.38-11.822 5.87 3.02 3.18 6.481 4.944 9.869 4.944 7.622 0 13.815-8.406 16.344-16.216a1.465 1.465 0 00-.323-1.451z" fill="#FFA000"/><path d="M85.236 136.571a1.465 1.465 0 010-2.072 5.116 5.116 0 000-7.24c-3.125-3.126-3.138-8.203-.04-11.345a4.243 4.243 0 01-3.782-4.212 4.242 4.242 0 014.237-4.237c1 0 1.922.348 2.647.93a5.844 5.844 0 00-1.722-4.087 8.75 8.75 0 01-2.58-6.23 1.465 1.465 0 112.929 0c0 1.571.612 3.048 1.722 4.159a8.81 8.81 0 011.085 11.146 8.744 8.744 0 01-2.424 4.563 5.126 5.126 0 000 7.241c3.138 3.139 3.138 8.246 0 11.384-.572.572-1.5.572-2.072 0zm.415-26.177a1.307 1.307 0 00-.213 2.598c.826.13 1.522-.51 1.52-1.282v-.006a1.31 1.31 0 00-1.307-1.31zM113.578 137a1.466 1.466 0 01-1.465-1.465 4.89 4.89 0 00-1.441-3.481 7.851 7.851 0 01-.988-9.9 7.791 7.791 0 012.153-4.027 4.266 4.266 0 000-6.024 7.186 7.186 0 010-10.168 1.464 1.464 0 112.071 2.071 4.258 4.258 0 000 6.025c2.734 2.733 2.785 7.066.286 9.864a3.882 3.882 0 013.092 3.796c0 3.059-3.399 4.91-5.964 3.262a4.878 4.878 0 001.422 3.03 7.804 7.804 0 012.299 5.552c0 .809-.656 1.465-1.465 1.465zm-1.111-13.365c-.006.698.576 1.1 1.148.98a.947.947 0 00-.343-1.859c-.377.055-.801.399-.805.879z" fill="#BDBDBD"/><path d="M112.832 49.682c-2.988 0-5.82.635-8.419 1.89a1.465 1.465 0 00-.758 1.768c.776 2.407 1.17 5.025 1.17 7.783 0 7.499-3.159 16.134-8.048 21.999a1.465 1.465 0 00-.203 1.555c3.916 8.432 10.145 13.67 16.257 13.67 10.482 0 19.485-14.99 19.485-27.503 0-12.635-8.608-21.162-19.484-21.162z" fill="#42A5F5"/><path d="M117.457 50.223c.131.13.261.261.389.396 3.663 3.853 5.681 9.302 5.681 15.342 0 6.067-2.14 12.913-5.724 18.313-3.876 5.84-8.891 9.19-13.761 9.19-.534 0-1.07-.042-1.604-.12 3.177 3.196 6.805 5.003 10.393 5.003 10.481 0 19.485-14.99 19.485-27.503 0-10.828-6.288-18.567-14.859-20.621z" fill="#1976D2"/><path d="M85.561 37C73.064 37 63.37 46.831 63.37 61.123c0 14.319 10.304 31.415 22.192 31.415 11.91 0 22.193-17.127 22.193-31.415C107.754 46.84 98.069 37 85.561 37z" fill="#EF5350"/><path d="M91.529 37.795c5.037 4.668 7.437 11.428 7.437 18.445 0 15.195-11.662 33.713-24.607 31.175 16.592 15.689 33.396-8.206 33.396-26.292 0-12.139-6.897-20.764-16.226-23.328z" fill="#D32F2F"/><path d="M57.557 106.561a1.367 1.367 0 01-1.324-1.707l.831-3.246a2.321 2.321 0 014.5 0l.832 3.246a1.367 1.367 0 01-1.325 1.707h-3.514z" fill="#FFA000"/><path d="M83.067 98.664a1.367 1.367 0 01-1.324-1.707l1.12-4.375a2.785 2.785 0 015.398 0l1.121 4.375a1.367 1.367 0 01-1.324 1.707h-4.99z" fill="#D32F2F"/><path d="M110.792 103.557a1.367 1.367 0 01-1.325-1.706l.942-3.676a2.497 2.497 0 014.841 0l.942 3.675a1.367 1.367 0 01-1.325 1.707h-4.075z" fill="#1976D2"/></svg>