<svg width="1440" height="2234" fill="none" xmlns="http://www.w3.org/2000/svg"><path d="M1313.37 1607.24c-149.45 4.44-297.18 20.09-444.059 34.76-156.559 15.63-297.371 70.17-442.636 109.57-87.51 23.79-176.963 38.55-274.569 12.77-68.297-18.07-126.123-49.08-177.403-95.53-71.444-64.71-122.692-145.37-197.37-207-17.284-14.27-37.021-27.82-59.615-32.97-18.777-4.26-37.823-2.38-56.057-2.95-16.235-.52-27.133-7.78-35.84-18.98-26.545-34.17-32.462-88.99-48.772-128.82-3.443-8.42-8.173-19.07-8.102-27.67.059-6.14 4.62-7.73 8.676-8.98 31.491-9.68 62.376-23.27 96.597-27.71 39.225-5.1 75.576 6.07 107.858 28.12 55.306 37.82 95.78 98.58 139.832 148.84 43.519 49.59 88.169 99.18 139.865 142.84 43.731 36.96 92.625 68.54 147.257 89.83 68.472 26.65 140.461 27.46 207.41 19.13 164.646-20.51 315.81-82.8 481.565-105.72 82.471-11.4 167.133-18.15 250.953-24.93 71.78-5.82 144.84-10.65 217.84-7.2 20.56.97 47.66 1.37 66.32 14.04 9.06 6.15 13.22 14.28 16.42 22.37 4.75 12 6.46 25.25.65 35.82-19.19 34.98-96.11 30.69-136.77 30.35" fill="#00237C"/><path d="M1358.19 1484.32c-81.66-1.17-162.14 4.3-242.03 11.02-52.49 4.42-104.87 9.43-157.239 14.35-79.888 7.49-156.722 23.15-232.632 41.1-82.383 19.47-164.599 41.3-248.578 55.99-95.301 16.66-192.92 21.89-291.024-21.35-77.979-34.4-142.928-88.46-200.8-146.16-35.963-35.87-69.486-73.39-102.617-111.09-30.906-35.16-59.493-73.39-98.015-102.97-51.814-39.77-108.5-46.14-169.419-51.64-22.573-2.04-43.374-11.79-61.936-24.01-44.494-29.28-81.421-69.53-115.38-108.95-4.437-5.14-8.984-10.5-13.419-16.15-8.817-11.25-16.711-22.96-23.609-35.037-.535-.853-1.007-1.73-1.478-2.607-4.559-8.579-10.21-18.663-9.778-27.949.257-5.486 5.204-7.237 10.493-8.315 99.992-19.812 207.814-35.486 307.819 18.452 59.451 32.056 98.551 85.916 140.109 134.816 47.628 56.14 95.683 112.36 146.424 166.19 62.259 66.06 130.216 132.66 211.148 182.03 84.757 51.69 171.08 63.52 263.527 58.5 118.417-6.43 232.062-33.67 346.456-54.89 113.988-21.14 230.938-31.2 348.458-40.5 70.65-5.59 142.8-10.84 214.25-6.93 20.82 1.14 42.27 3.49 62.82 11.17 14.84 5.52 30.98 13.27 41.81 24.39 6.88 7.1 11.48 19.71 7.26 27.59-7.94 14.82-34.64 14.64-51.81 15.05-26.67.62-53.89-.97-80.83-2.13" fill="#CD142B"/><path d="M1394.59 1395.03c-75.12-4.5-149-.76-222.21 4.62-50.61 3.76-101.22 8.28-151.73 12.57-81.783 6.95-161.221 21.02-240.559 35.28-86.648 15.57-174.193 30.47-263.273 37.1-52.404 3.89-106.518 4.89-160.731-2.67-55.357-7.73-106.704-31.57-153.763-61.68-95.833-61.33-175.132-143.56-248.877-224.19-39.507-43.2-77.528-87.34-115.37-131.57-35.293-41.24-68.194-85.327-115.062-117.735-74.249-51.434-163.138-63.098-248.791-72.533-29.055-3.193-57.314-11.208-84.673-21.883-60.02-23.424-113.9-51.954-162.886-93.108a211.115 211.115 0 01-17.751-16.164c-9.416-10.013-18.385-20.93-23.095-33.215a33.944 33.944 0 01-.734-2.12c-2.851-9.16-.487-14.645 5.017-19.166 3.539-2.91 10.307-3.673 17.667-3.871 134.947-3.654 283.994-13.631 413.185 50.208 66.689 32.956 107.499 87.827 152.207 141.671 55.484 66.869 111.138 133.886 169.165 198.996 74.249 83.34 153.025 168.58 247.05 236.39 44.903 32.36 95.87 59.68 150.755 71.24 46.994 9.89 95.51 12.39 141.859 12.48 119.344.22 235.581-16.72 351.594-31.78 111.073-14.43 223.426-22.23 336.386-29.27 63.32-3.94 127.83-8.04 191.6-3.61 19.71 1.36 39.78 4.35 59.5 10.11 24.13 7.06 51.6 15.03 71.08 29.37 7.86 5.79 20.03 15.04 19.98 24.03-.08 20.69-98.91 2.09-117.64.52" fill="#979797"/></svg>