<svg width="1440" height="2419" fill="none" xmlns="http://www.w3.org/2000/svg"><path d="M1243.66 1362.52c-18.19-1.28-50.84-.12-50.66 19.35.17 2.32 1.24 4.57 3.08 6.48 41.86 50.43 99.79 92.28 132.56 146.5 15.09 24.98 28.31 50.95 40.57 76.79 23 48.88 44.96 99.12 64.47 148.44 21.87 55.26 37.5 112.93 53.92 169.75 7.5 25.9 14.96 51.86 22.71 77.71 23.69 78.86 50.34 157.96 87.94 233.54 26.13 52.53 53.54 117.05 119.94 151.5 68.71 35.67 161.21 27.75 238.86 18.97 264.96-30 512.93-120.03 774.85-164.54 51.93-8.81 110.67-21.54 162.51-12.1 42.6 7.77 83.28 25.19 124.19 37.53 7.85 2.37 16.44 4.42 24.35 4.73 5.57.21 10.72-.76 14.43-4.04 5.06-4.46 6.58-13.45 6.62-22.68 0-15.37-1.19-30.86-3.18-46.25-.69-5.38-1.6-10.73-2.43-15.91-3.09-19.49-8.12-40.1-20.38-57.62-7.94-10.87-18.42-20.67-30.98-28.98-34.5-22.68-71.86-47.59-122.09-45.86-35.38 1.27-69.71 10.46-103.04 18.15-65.77 15.17-130.51 31.62-194.63 49.92-75.96 21.66-152.16 44.49-228.7 64.71-121.52 32.07-260.09 68.34-392.21 64.87-133.18-3.49-187.13-81.52-237.68-157.89-69.71-105.35-110.81-219.85-146-334.46-14.79-48.16-30.61-96.35-47.54-143.95-13.41-37.72-28.44-75.77-50.38-110.55-16.06-25.52-37.81-48.99-64.38-69.46-45.03-34.72-113.12-70.36-176.72-74.65z" fill="#979797"/><path d="M-505.847 212.991c47.717 45.893 85.812 95.792 117.718 147.918 22.883 37.407 42.019 76.72 62.4 114.533 34.267 63.517 51.159 132.615 71.082 199.799 22.449 75.712 46.742 152.517 85.132 224.427 21.344 39.948 45.814 78.896 86.142 111.402 43.91 35.38 99.357 59.48 160.653 76.03 126.165 34 263.806 45.01 396.866 55.51 69.742 5.53 139.614 10.24 209.345 15.85 58.736 4.74 122.852 6.51 178.803 21.17 110.717 28.98 198.246 99.84 272.696 162.51 25.13 21.17 50.96 41.98 76.72 62.67 61.23 49.12 118.19 115.39 210.09 136.7 9.4 2.19 19.48 4.1 29.51 4.18 17.24.11 38.34-5.14 47.76-16.55.65-.76 1.23-1.54 1.74-2.35 7.51-12.24.19-25.5-5.77-37.26-3.63-7.17-10.09-14.53-16.33-20.67-68.29-67.2-152.94-128.65-240.67-183.86-92.48-58.28-192.17-113.23-299.812-154.59-36.698-14.08-75.511-27.39-116.297-34.92-37.978-6.99-78.941-8.13-117.929-9.98-89.196-4.23-178.85-4.44-267.988-6.78-112.314-2.88-230.244-6.36-337.283-33.87-53.673-13.8-103.175-36.12-141.072-67.049-35.041-28.608-51.182-66.558-60.709-103.262-22.272-85.663-12.839-174.528-19.512-261.588-3.324-43.42-9.973-87.061-25.996-129.083-14.731-38.644-39.682-74.756-64.774-110.156-31.717-44.783-67.205-89.33-110.517-127.991-14.571-12.878-31.034-24.58-49.103-34.9-40.939-23.578-85.296-46.3-134.763-59.562-17.879-4.793-37.72-8.706-56.022-10.205-26.56-2.185-2.585 19.919 3.313 25.237 17.62 15.897 37.062 30.7 54.577 46.664" fill="#979797"/><path d="M-349.988 188.15c63.228 42.147 119.583 88.706 164.131 141.224 29.252 34.485 57.565 72.424 72.485 110.973 25.234 65.193 18.796 137.16 16.447 205.622-2.597 75.488-6.356 152.222 10.925 225.653 9.328 39.633 29.864 76.2 72.133 104.377 39.684 26.471 87.722 44.251 139.483 54.871 108.951 22.35 226.242 20.43 338.447 19.53 60.279-.5 120.569-1.46 180.848-.7 54.252.69 112.099.49 165.059 9.91 147.484 26.24 284.61 94.98 407.65 156.06 43.4 21.55 87.28 42.97 130.29 64.85 69.31 35.25 135.1 74.38 204.03 110.28 59.57 31.04 124.23 58.92 196.76 69.65 15.66 2.32 32.59 4.32 47.96 3.11 21.55-1.69 53.52-7.37 57.09-26.99.22-1.12.29-2.26.23-3.39-1.18-19.36-26.93-36.87-44.14-49.67-10.93-8.01-22.46-15.58-34.53-22.68-123.81-74.05-264.67-136.58-405.14-194.74-143.58-59.35-292.07-115.39-445.505-158.55-85.455-24.039-167.349-40.422-259.912-39.796-77.818.551-155.401 7.459-232.609 12.7-95.711 6.503-197.777 13.623-291.584-6.426-49.835-10.651-96.263-31.183-131.154-59.072-35.244-28.109-45.312-66.81-44.89-102.692 1-85.276 42.693-171.027 64.18-256.286 10.185-40.412 17.762-81.814 13.545-122.953-4.1-39.963-24.06-74.21-48.883-109.22-33.752-47.651-73.695-94.107-121.85-134.138-16.256-13.473-34.511-25.622-54.44-36.228-52.866-28.211-113.685-53.213-181.341-57.227-21.37-1.27-46.405-.584-65.918 6.24-55.239 19.313 60.408 73.076 80.203 85.708z" fill="#00237C"/><path d="M-192.789 103.187C-119.45 148.773-51.046 198.484.659 256.822c31.188 35.198 62.775 75.543 71.483 116.406 14.947 70.099-16.558 146.057-40.753 215.817-26.1 75.231-65.126 157.488-54.056 233.354 5.453 37.534 25.853 67.872 68.756 92.35 37.822 21.473 82.583 35.686 130.098 41.311 91.659 11.075 187.044-1.956 277.599-12.701 94.985-11.227 193.378-24.876 289.961-17.103 68.474 5.504 135.75 24.986 199.465 42.869 96.028 26.959 189.878 58.105 282.338 90.595 59.03 20.74 118.2 41.82 176.49 63.65 115.88 43.39 228.96 91.06 343.64 136.37 84.69 33.47 174.56 69.9 269.55 84.32 13.18 2 27.78 3.46 40.96 1.54 27.88-4.08 16.7-30.04 8.62-40.81a49.046 49.046 0 00-4-4.47c-24.36-24.97-61.79-44.03-96.27-60.77-16.07-7.83-32.97-15.41-49.67-22.77-158.64-69.92-325.67-131.81-494-189.78-155.55-53.582-314.16-105.562-477.094-145.493-80.719-19.779-156.491-35.037-242.392-30.38-70.237 3.811-139.381 15.165-208.197 24.995-86.112 12.303-178.395 25.554-265.847 11.372-47.122-7.621-92.553-25.529-126.502-50.363-37.721-27.586-47.686-65.078-45.465-101.3 5.24-85.188 58.062-170.629 94.256-254.148C167.561 440.338 172.5 417.954 176 373.228c0-41.822-10.257-88.117-26.371-116.406-27.129-47.628-60.122-95.318-109.121-133.06-17.218-13.101-35.588-25.39-54.996-36.79-61.988-36.688-135.245-68.981-214.225-83.054-19.918-3.539-46.652-6.697-65.806.043-59.438 20.913 82.035 87.346 101.742 99.226" fill="#CD142B"/></svg>