<svg width="1440" height="1445" fill="none" xmlns="http://www.w3.org/2000/svg"><path d="M1538.93 500.267c-125.24 10.544-174.49 59.752-214.88 123.155-49.42 77.426-111.43 149.661-201.83 207.776-59.4 38.258-137.038 85.375-235.757 94.454-114.066 10.485-263.034-49.616-368.105-95.853-156.271-68.767-314.715-153.573-448.92-240.795-52.69-34.237-82.735-53.102-145.047-46.308-8.826.919-20.165 2.577-30.346-3.446-7.832-4.627-12.978-12.705-18.043-20.324-10.96-16.78-23.956-33.438-38.869-49.821-13.588-14.784-30.681-33.452-26.801-47.934 2.548-9.508 13.034-13.868 21.727-16.892 15.136-5.281 50.187-23.671 75.424-10.636 21.333 11.025 39.35 27.083 58.79 40.436 51.073 35.151 106.673 68.843 162.242 100.973 186.683 107.96 460.03 251.073 686.967 218.739 158.855-22.652 275.318-77.625 334.048-163.351 39.32-57.427 70.36-116.877 148.62-156.113 29.3-14.686 65.63-23.299 107.83-24.457 43.07-1.158 104.2 9.836 143.75 33.493 34.36 20.589 25.57 52.627-10.8 56.904z" fill="#CD142B"/><path d="M1752.1 579.109c28.56 7.96 43.26 28.713 29.91 39.587-2.55 1.949-6 3.395-10.12 4.24-71.44 13.785-134.52 39.163-173.33 74.885-17.09 15.749-32.04 32.751-46.37 49.876-27.08 32.34-54.78 64.747-80.68 97.557-28.77 36.441-56.57 73.689-86.65 109.552-13.21 15.695-27.01 31.385-41.15 46.654-44.12 47.29-94.88 92.38-157.04 130.18-45.84 27.88-97.09 48.78-182.04 35.52-85.716-13.39-174.851-48.38-251.723-80.48-212.739-88.871-414.161-201.651-612.745-306.238-35.31-18.591-75.42-42.64-114.86-51.007-32.917-6.981-65.865-6.209-99.186-6.182-6.998-.003-14.658-.129-21.717-1.583-5.188-.945-10.11-3.18-13.354-6.063-5.613-5.018-7.09-12.946-7.856-20.628-1.247-12.376-2.24-24.783-3.149-37.123-.335-4.326-.645-8.591-1.053-12.795-1.52-15.865-1.478-33.129 10.782-45.28 7.356-7.085 18.133-12.445 31.471-15.651 26.561-7.027 67.255-20.591 105.811-5.41 28.968 11.408 55.09 27.712 80.912 42.229 58.034 32.606 117.288 64.63 175.865 96.736 69.763 38.245 140.939 76.332 213.538 111.856 110.725 54.147 244.879 117.922 375.2 139.945 113.95 19.202 200.784-14.808 269.114-46.921 90.11-42.34 151.67-101.153 201.11-165.237 22.91-29.671 42.2-61.36 65.36-90.668 20.1-25.443 44.25-49.658 76.12-68.706 24.43-14.729 55.7-25.135 91.84-30.565 49.4-7.508 118.39-4.337 175.99 11.72z" fill="#979797"/><path d="M1975.53 692.068c19.93 4.246 54.96 14.627 50.59 30.16-.68 1.811-2.32 3.3-4.72 4.3-56.05 28.257-127.63 44.988-174.67 78.908-21.67 15.63-41.53 32.599-60.32 49.733-35.34 32.474-69.85 66.342-101.52 100.183-35.49 37.911-64.74 79.558-94.67 120.298-13.67 18.56-27.31 37.18-41.22 55.63-42.53 56.29-88.29 111.9-145.13 161.52-39.52 34.5-82.97 78.22-162.12 86.57-81.9 8.67-180.16-24.46-262.194-53.98-279.89-100.74-528.547-244.62-802.035-356.091-54.226-22.095-114.975-49.293-173.022-56.747-47.709-6.115-95.402-3.951-142.256-5.913-8.998-.377-18.712-1.22-27.324-3.266-6.069-1.44-11.425-3.706-14.736-7.413-4.511-5.035-4.226-12.676-2.286-20.071 3.299-12.31 7.903-24.369 13.365-36.111 1.899-4.104 4.022-8.127 6.032-12.037 7.528-14.708 17.38-29.756 34.388-40.229 10.91-6.405 24.339-11.219 39.697-14.233 42.149-8.164 87.857-17.298 141.768-1.366 37.967 11.266 73.09 28.559 107.461 44.371 67.815 31.191 134.248 63.104 199.613 96.327 77.437 39.333 154.891 79.675 233.268 118.029 124.436 60.86 266.405 130.03 409.921 165.51 144.66 35.77 219.7-11.09 290.71-57.6 97.94-64.16 166.92-143.933 229.54-225.505 26.31-34.27 53.74-68.273 82.25-101.485 22.59-26.317 46.98-52.432 78.15-73.923 22.84-15.785 51.38-28.274 84.49-36.973 56.1-14.754 137.32-23.577 206.98-8.596z" fill="#00237C"/></svg>