<svg width="228" height="228" fill="none" xmlns="http://www.w3.org/2000/svg"><circle cx="114" cy="114" r="114" fill="#00237C"/><circle cx="114.5" cy="113.5" r="97" stroke="#fff" stroke-width="5" stroke-dasharray="15 15"/><g clip-path="url(#clip0)"><path d="M105.118 60.041c-5.806-1.555-11.775 1.89-13.33 7.697l-6.915 25.806a2.969 2.969 0 002.099 3.636l9.558 2.56-1.153 4.302a7.421 7.421 0 1014.337 3.841l1.152-4.301 12.425 3.33 7.153-11.401 3.841-14.337-.493-13.45-28.674-7.683z" fill="#FDD33A"/><path d="M162.465 75.408l-28.673-7.683-3.33 12.425-4.301-1.153a7.421 7.421 0 10-3.841 14.337l4.301 1.153-3.329 12.425 11.4 7.152 14.337 3.842 13.45-.494 7.683-28.674c1.555-5.806-1.89-11.775-7.697-13.33z" fill="#FF9B21"/><path d="M59.395 152.689l25.806 6.915a2.97 2.97 0 003.636-2.099l2.561-9.558 4.301 1.152a7.42 7.42 0 009.089-5.247 7.42 7.42 0 00-5.247-9.089l-4.301-1.153 2.56-9.558a2.968 2.968 0 00-2.098-3.635l-6.69-1.793a2.968 2.968 0 00-3.637 2.099l-.384 1.434a7.42 7.42 0 01-9.089 5.247 7.421 7.421 0 01-5.247-9.089l.384-1.434a2.968 2.968 0 00-2.1-3.635l-6.69-1.793a2.97 2.97 0 00-3.636 2.099L51.7 139.358c-1.556 5.807 1.89 11.775 7.696 13.331z" fill="#FD003A"/><path d="M136.87 105.94l-1.153 4.301-12.425-3.329-2.561 9.557a2.97 2.97 0 002.099 3.636l1.434.384a7.42 7.42 0 015.247 9.089 7.42 7.42 0 01-9.089 5.248l-1.433-.384a2.968 2.968 0 00-3.636 2.099l-1.793 6.69a2.97 2.97 0 002.099 3.636l25.806 6.915c5.807 1.555 11.775-1.89 13.331-7.697l7.683-28.673-12.425-3.33 1.152-4.301a7.42 7.42 0 10-14.336-3.841z" fill="#76E2F8"/></g><defs><clipPath id="clip0"><path fill="#fff" transform="rotate(15 -159.936 311.245)" d="M0 0h101.325v101.325H0z"/></clipPath></defs></svg>