<svg width="228" height="228" fill="none" xmlns="http://www.w3.org/2000/svg"><circle cx="114" cy="114" r="114" fill="#fff"/><g clip-path="url(#clip0)"><path d="M188.121 115.324c0 40.69-32.985 73.676-73.675 73.676s-73.677-32.986-73.677-73.676c0-40.69 32.987-73.676 73.677-73.676 40.69 0 73.675 32.986 73.675 73.676z" fill="#CD142B"/><path d="M115.249 94.85H78.107c-16.95 0-30.69 13.741-30.69 30.691 0 12.261 7.191 22.843 17.585 27.758 4.174 1.975 6.85 6.161 6.85 10.779v6.584c0 2.503 3.236 3.501 4.645 1.433l7.27-10.663a11.91 11.91 0 019.84-5.201h21.642c16.95 0 30.69-13.74 30.69-30.69-.001-16.95-13.741-30.69-30.69-30.69z" fill="#F8FAFD"/><path d="M76.73 153.299c-10.394-4.915-17.585-15.497-17.585-27.758 0-16.95 13.74-30.69 30.69-30.69H78.107c-16.95 0-30.69 13.74-30.69 30.69 0 12.261 7.19 22.843 17.584 27.758 4.174 1.975 6.85 6.161 6.85 10.779v6.584c0 2.503 3.236 3.501 4.646 1.433l6.89-10.107a11.946 11.946 0 00-6.657-8.689z" fill="#DDD"/><path d="M81.569 126.128a5.665 5.665 0 11-11.33 0 5.665 5.665 0 0111.33 0zm20.774 0a5.665 5.665 0 11-11.33 0 5.665 5.665 0 0111.33 0zm20.775 0a5.665 5.665 0 01-5.666 5.665 5.665 5.665 0 115.666-5.665z" fill="#7956BA"/><path d="M113.405 38h37.141c16.95 0 30.69 13.74 30.69 30.69 0 12.261-7.19 22.842-17.584 27.759-4.175 1.974-6.851 6.161-6.851 10.778v6.584c0 2.502-3.235 3.501-4.645 1.433l-7.27-10.664a11.906 11.906 0 00-9.84-5.2h-21.641c-16.95 0-30.69-13.74-30.69-30.69 0-16.95 13.74-30.69 30.69-30.69z" fill="#00237C"/><path d="M147.677 95.472h-21.642c-16.95 0-30.69-13.742-30.69-30.69 0-11.174 5.972-20.953 14.898-26.32-15.464 1.583-27.528 14.647-27.528 30.529 0 16.95 13.74 30.69 30.69 30.69h21.642c3.938 0 7.621 1.947 9.839 5.201l7.27 10.663c1.41 2.068 4.645 1.07 4.645-1.433v-6.584c0-2.049.529-4.012 1.481-5.735l-.766-1.121a11.905 11.905 0 00-9.839-5.2z" fill="#1A47B8"/><path d="M158.415 69.277a5.665 5.665 0 11-11.33 0 5.665 5.665 0 0111.33 0zm-20.774 0a5.665 5.665 0 11-11.33 0 5.665 5.665 0 0111.33 0zm-20.773 0a5.666 5.666 0 11-11.332-.001 5.666 5.666 0 0111.332 0z" fill="#F8FAFD"/></g><circle cx="114.5" cy="113.5" r="97" stroke="#00237C" stroke-width="5" stroke-dasharray="15 15"/><defs><clipPath id="clip0"><path fill="#fff" transform="translate(39 38)" d="M0 0h151v151H0z"/></clipPath></defs></svg>