<svg width="1440" height="2041" fill="none" xmlns="http://www.w3.org/2000/svg"><path d="M1245.86 1673.64c-17.87 3.58-49.13 13.05-44.35 30.19.72 2 2.28 3.71 4.51 4.92 52.36 33.68 118.21 55.62 162.68 94.99 20.49 18.14 39.4 37.64 57.35 57.27 33.78 37.18 66.87 75.84 97.38 114.32 34.19 43.11 62.92 89.97 92.22 135.86 13.37 20.91 26.72 41.89 40.32 62.7 41.53 63.47 85.97 126.38 140.16 183.35 37.67 39.61 79.4 89.46 151.69 102.67 74.8 13.7 162.27-17.23 235.2-45.08 248.84-95.05 467.07-238.68 709.54-345.76 48.07-21.22 101.8-47.65 154.11-52.74 42.99-4.17 86.4.67 128.83.98 8.15.06 16.93-.35 24.64-2.13 5.43-1.25 10.18-3.44 12.99-7.3 3.83-5.24 3.17-13.58 1.03-21.72-3.64-13.57-8.45-26.94-14.02-40-1.93-4.57-4.07-9.06-6.1-13.42-7.6-16.4-17.33-33.29-33.31-45.57-10.24-7.54-22.68-13.48-36.78-17.56-38.69-11.08-80.66-23.41-128.77-8.88-33.88 10.28-64.87 27.27-95.24 42.69-59.94 30.41-118.59 61.68-176.19 94.44-68.25 38.77-136.46 78.64-205.61 116.29-109.8 59.76-235.07 127.64-363.5 158.77-129.47 31.39-200.03-23.52-266.92-77.84-92.25-74.93-159.03-165.35-220.12-257.39-25.68-38.67-52.35-77.11-79.97-114.74-21.87-29.82-45.38-59.51-74.8-84.52-21.55-18.37-48.1-33.45-78.62-44.65-51.7-18.98-125.89-32.82-188.35-20.14z" fill="#979797"/><path d="M-715.869 1111.92c56.943 28.15 105.541 62.33 148.686 100.08 30.95 27.09 58.731 56.83 87.36 84.93 48.119 47.19 80.776 103.8 115.908 157.94 39.589 61.01 81.217 122.51 135.303 176.03 30.065 29.74 62.911 57.78 109.551 76.03 50.782 19.86 110.039 26.78 173.16 25.52 129.904-2.65 265.459-28.56 396.468-53.73 68.674-13.17 137.279-27.1 205.962-40.19 57.854-11.02 120.203-26.06 177.717-27.59 113.798-3.08 215.094 36.8 301.834 72.84 29.28 12.18 59.15 23.86 88.93 35.45 70.75 27.5 141.45 71.26 235.25 66.28 9.6-.51 19.79-1.43 29.49-3.96 16.69-4.36 35.82-14.46 42.23-26.96.44-.84.82-1.68 1.12-2.52 4.36-12.76-5.85-22.56-14.38-31.4-5.2-5.38-13.19-10.21-20.66-14.01-81.86-41.63-178.16-73.96-275.96-99.98-103.1-27.5-212.4-50.2-326.147-58.84-38.779-2.93-79.417-4.63-120.592-.71-38.338 3.65-78.173 13.25-116.272 21.71-87.158 19.35-173.805 42.37-260.458 63.38-109.17 26.52-223.903 53.98-333.802 57.4-55.106 1.71-108.201-5.18-152.12-22.67-40.613-16.17-65.178-45.49-83.06-75.42-41.771-69.84-53.675-150.7-80.708-225.81-13.479-37.46-30.221-74.26-55.636-107.2-23.368-30.29-56.008-55.7-88.616-80.45-41.227-31.32-86.041-61.45-137.019-84.36-17.12-7.59-35.79-13.66-55.683-18.09-45.12-10.21-93.339-18.79-144.257-17.69-18.403.4-38.493 2.08-56.526 5.49-26.172 4.95 2.214 18.25 9.168 21.42 20.779 9.47 43.059 17.5 63.753 27.06" fill="#979797"/><path d="M-571.196 1049.66c71.04 20.83 136.485 47.34 191.935 82.16 36.411 22.86 72.73 49.02 96.258 79.18 39.792 51 50.592 116.18 64.512 177.21 15.344 67.3 29.859 135.99 63.916 196.33 18.383 32.56 46.866 59.52 94.358 73.45 44.593 13.09 95.197 16.34 147.707 12.32 110.524-8.47 223.364-40.52 331.532-70.36 58.108-16.04 116.116-32.49 174.521-47.42 52.566-13.44 108.396-28.58 161.777-33.98 148.665-15.01 297.37 10.16 430.67 32.23 47.01 7.78 94.46 15.33 141.18 23.51 75.29 13.17 148.09 30.68 223.15 44.52 64.89 11.98 133.94 19.85 206.54 10.55 15.67-2.01 32.5-4.63 47.05-9.67 20.43-7.07 49.96-20.36 48.77-38.6-.05-1.05-.25-2.07-.58-3.05-5.72-16.78-34.73-25.57-54.38-32.41-12.45-4.24-25.38-7.94-38.72-11.09-137.1-33.3-287.95-52.03-437.39-67-152.72-15.22-309.4-26.25-467.816-24.63-88.227.9-171.206 7.64-260.466 32.15-75.037 20.63-148.343 46.8-221.68 71.41-90.912 30.51-187.816 63.21-283.169 69.8-50.655 3.5-100.356-2.61-140.654-18.19-40.69-15.69-59.567-47.24-67.644-79.01-19.202-75.52.793-161.99 1.385-242.8.282-38.3-2.189-76.8-15.992-112.02-13.411-34.21-40.789-59.27-73.046-83.74-43.87-33.32-93.438-63.98-149.419-86.849-18.888-7.684-39.394-13.681-61.152-17.884-57.736-11.215-122.395-17.54-188.695-3.571-20.942 4.41-44.962 11.495-62.196 22.568-48.79 31.346 75.63 48.856 97.738 54.886z" fill="#00237C"/><path d="M-439.446 933.988c81.621 21.251 159.45 47.419 223.189 85.522 38.449 22.99 78.501 50.43 96.575 84.24 31.015 57.99 18.546 133.18 11.672 201.01-7.42 73.15-25.663 155.85 2.97 219.94 14.143 31.72 41.022 53.21 88.252 63.71 41.611 9.16 88.208 10.12 135.434 2.79 91.155-13.95 180.208-50.14 265.136-83.06 89.094-34.49 180.906-72 276.037-90.14 67.442-12.86 137.033-13.08 202.806-13.79 99.134-1.06 197.145 2.13 294.135 6.88 61.93 3.02 124.07 6.32 185.53 10.5 122.19 8.3 242.69 21.1 364.18 31.41 89.72 7.62 185.15 16.51 280.31 4.66 13.21-1.65 27.65-4.14 39.93-9.25 25.96-10.81 9.03-30.83-1.33-38.24a45.564 45.564 0 00-4.92-2.92c-29.43-15.73-70.09-22.87-107.35-28.72-17.38-2.74-35.5-5.06-53.37-7.24-169.77-20.65-345.74-32.03-522.04-39.63-162.92-7.03-328.43-11.85-495.25-4.92-82.646 3.43-159.444 9.58-241.317 35.92-66.943 21.54-131.046 49.46-195.192 75.94-80.269 33.15-166.273 68.73-254.099 78.85-47.319 5.47-95.436 1.42-134.102-11.71-42.96-14.58-61.45-45.09-67.871-77.64-15.083-76.54 15.733-165.61 30.943-248.69 7.544-41.13 7.021-62.17-.175-102.55-9.89-36.91-30.745-75.11-53-95.905-37.468-35.012-80.614-68.562-136.87-89.19-19.729-7.106-40.379-13.197-61.821-18.235-68.552-16.336-146.949-25.877-226.566-17.855-20.076 2.032-46.646 6.164-63.554 17.07-52.467 33.841 99.895 55.856 121.74 61.24" fill="#CD142B"/></svg>