<svg width="1440" height="1637" viewBox="0 0 1440 1637" fill="none" xmlns="http://www.w3.org/2000/svg">
<path d="M115.7 1385.77C259.297 1366.67 403.162 1357.45 546.054 1347.52C698.357 1336.93 842.257 1362.13 987.825 1373.65C1075.53 1380.64 1163.54 1379.59 1252.43 1342.52C1314.62 1316.55 1364.59 1281.08 1405.67 1233.38C1462.9 1166.93 1498.1 1089.88 1558.95 1025.57C1573.03 1010.69 1589.58 996.037 1610.29 988.155C1627.51 981.622 1646.04 980.323 1663.37 977.034C1678.8 974.103 1687.97 966.199 1694.38 955.259C1713.91 921.886 1710.2 873.953 1718.99 837.288C1720.84 829.543 1723.54 819.686 1722.01 812.317C1720.9 807.057 1716.27 806.391 1712.18 805.944C1680.43 802.473 1648.59 795.55 1615.12 796.983C1576.76 798.624 1543.93 813.778 1516.84 837.637C1470.44 878.554 1442.14 936.877 1408.62 986.738C1375.49 1035.94 1341.29 1085.32 1299.34 1130.69C1263.86 1169.1 1222.52 1203.68 1173.94 1230.32C1113.05 1263.67 1044.38 1275.4 978.973 1278.53C818.107 1286.17 662.991 1255.91 500.654 1261.66C419.883 1264.52 337.816 1271.71 256.54 1278.74C186.941 1284.76 116.293 1291.82 47.1066 1305.97C27.6261 1309.95 1.79449 1314.44 -13.8788 1328.17C-21.4853 1334.83 -24.07 1342.45 -25.7487 1349.87C-28.236 1360.9 -27.6126 1372.53 -20.2568 1380.7C4.05787 1407.76 76.8485 1392.29 115.654 1385.77" fill="#00237C"/>
<path d="M51.872 1287.21C129.715 1273.7 207.572 1266.04 285.071 1259.57C335.994 1255.31 386.914 1251.58 437.808 1247.77C515.442 1241.94 591.553 1243.6 667.17 1247.36C749.236 1251.44 831.543 1257.56 914.315 1257.28C1008.25 1256.97 1102.44 1246.48 1188.82 1194.36C1257.47 1152.9 1310.31 1096.57 1355.77 1038.21C1384.01 1001.93 1409.65 964.611 1434.87 927.194C1458.4 892.297 1479.2 855.127 1510.96 823.854C1553.69 781.792 1606.78 767.643 1664.07 753.582C1685.29 748.372 1703.51 736.823 1719.16 723.498C1756.69 691.561 1785.11 651.38 1810.83 612.365C1814.19 607.27 1817.62 601.975 1820.89 596.452C1827.4 585.451 1832.94 574.193 1837.47 562.78C1837.84 561.967 1838.14 561.142 1838.44 560.317C1841.33 552.261 1845.01 542.745 1843.01 534.846C1841.83 530.18 1836.8 529.436 1831.56 529.322C1732.61 527.656 1626.88 530.741 1540.51 592.334C1489.17 628.94 1461 681.136 1429.63 729.452C1393.7 784.899 1357.37 840.488 1318.07 894.438C1269.85 960.643 1216.27 1028.19 1147.36 1082.94C1075.18 1140.27 994.694 1163.65 905.479 1173.51C791.203 1186.15 677.931 1180.2 564.974 1179.54C452.417 1178.88 338.922 1188.18 225.015 1198.22C156.537 1204.25 86.6835 1210.81 19.0585 1225.12C-0.650067 1229.29 -20.7484 1234.59 -39.0709 1244.33C-52.3144 1251.34 -66.418 1260.46 -74.8722 1271.66C-80.2367 1278.8 -82.4775 1290.33 -77.0918 1296.43C-66.9764 1307.93 -41.4902 1303.68 -25.0117 1301.4C0.591519 1297.84 26.337 1292.31 51.883 1287.19" fill="#CD142B"/>
<path d="M1.82616 1216.2C72.8514 1200.83 144.102 1192.72 214.995 1186.11C264.015 1181.57 313.151 1177.69 362.158 1173.63C441.513 1167.05 519.84 1166.94 598.104 1167.02C683.578 1167.08 769.797 1166.45 856.067 1158.48C906.818 1153.78 958.71 1146.35 1009.23 1131.56C1060.82 1116.44 1105.82 1088.12 1145.66 1055.08C1226.78 987.78 1288.52 905.097 1345.23 824.633C1375.61 781.521 1404.41 737.833 1433.02 694.094C1459.71 653.306 1483.63 610.451 1522.89 575.469C1585.06 519.971 1668.03 496.34 1748.28 475.118C1775.51 467.926 1801.15 456.719 1825.47 443.369C1878.84 414.077 1925.46 381.346 1965.25 338.538C1970.37 333.214 1975.11 327.673 1979.45 321.952C1986.74 311.921 1993.45 301.182 1995.85 289.923C1996 289.264 1996.1 288.616 1996.19 287.992C1997.35 279.697 1994.16 275.356 1988.12 272.322C1984.24 270.368 1977.64 270.751 1970.58 271.709C1840.98 289.261 1696.82 303.551 1584.25 378.112C1526.14 416.602 1496.5 469.922 1462.97 522.96C1421.36 588.82 1379.62 654.832 1335.28 719.581C1278.55 802.444 1217.82 887.63 1139.54 960.204C1102.15 994.849 1058.1 1026.09 1007.62 1044.42C964.392 1060.1 918.45 1069.69 874.167 1076.87C760.14 1095.36 646.151 1098.64 532.698 1103.51C424.073 1108.15 315.36 1118.69 206.192 1129.97C145.003 1136.29 82.6426 1142.66 22.4506 1156.24C3.84314 1160.43 -14.8244 1166.07 -32.6919 1174.04C-54.5485 1183.79 -79.4384 1194.84 -95.6069 1210.12C-102.132 1216.3 -112.182 1226.09 -110.599 1233.79C-106.989 1251.53 -15.7059 1220.43 1.92608 1216.2" fill="#979797"/>
</svg>
