<svg width="256" height="256" viewBox="0 0 256 256" fill="none" xmlns="http://www.w3.org/2000/svg">
<circle cx="128" cy="128" r="128" fill="white"/>
<circle cx="128.5" cy="127.5" r="105" stroke="#CD142B" stroke-width="3" stroke-dasharray="15 15"/>
<path d="M180 84H81.1996C79.7638 84 78.5996 85.1641 78.5996 86.6V125.6C78.5996 129.918 84.0076 133.156 95.133 135.498C104.634 137.498 117.23 138.6 130.6 138.6C143.969 138.6 156.565 137.498 166.066 135.498C177.192 133.156 182.6 129.918 182.6 125.6V86.6C182.6 85.1641 181.435 84 180 84Z" fill="#524AFF"/>
<path d="M81.1996 84C79.7638 84 78.5996 85.1641 78.5996 86.6V125.6C78.5996 129.918 84.0076 133.156 95.133 135.498C98.0918 136.121 101.351 136.657 104.84 137.099V84H81.1996Z" fill="#3B35B8"/>
<path d="M204.495 79.0418L131.695 45.2418C131.001 44.9194 130.199 44.9194 129.505 45.2418L56.7053 79.0418C55.7875 79.4679 55.2002 80.388 55.2002 81.4C55.2002 82.4121 55.7875 83.3321 56.7053 83.7582L129.505 117.558C129.852 117.719 130.226 117.8 130.6 117.8C130.974 117.8 131.348 117.719 131.695 117.558L204.495 83.7582C205.413 83.3321 206 82.4121 206 81.4C206 80.388 205.413 79.4679 204.495 79.0418Z" fill="#9792FF"/>
<path d="M94.8502 75.5501C91.7955 72.3628 89.2846 68.741 87.293 64.8403L56.7053 79.0419C55.7875 79.4679 55.2002 80.388 55.2002 81.4001C55.2002 82.4121 55.7875 83.3322 56.7053 83.7583L129.505 117.558C129.852 117.719 130.226 117.8 130.6 117.8C130.974 117.8 131.348 117.719 131.695 117.558L167.594 100.891C153.018 100.788 138.092 96.8824 124.425 92.4501C113.7 88.8751 103.3 84.0001 94.8502 75.5501Z" fill="#746EFF"/>
<path d="M57.8002 146.4C56.3643 146.4 55.2002 145.236 55.2002 143.8V81.4C55.2002 79.9642 56.3643 78.8 57.8002 78.8H128C129.436 78.8 130.6 79.9642 130.6 81.4C130.6 82.8359 129.436 84 128 84H60.4002V143.8C60.4002 145.236 59.2364 146.4 57.8002 146.4Z" fill="#3B35B8"/>
<path d="M65.5872 143.541L62.9872 117.541C62.8543 116.212 61.7357 115.2 60.3999 115.2H55.1999C53.8642 115.2 52.7458 116.212 52.6129 117.541L50.0129 143.541C49.9398 144.272 50.1793 145 50.6723 145.545C51.1654 146.089 51.8654 146.4 52.5999 146.4H62.9999C63.7344 146.4 64.4348 146.089 64.9278 145.545C65.4208 145 65.66 144.272 65.5872 143.541Z" fill="#3B35B8"/>
<path d="M57.8 120.4C62.1078 120.4 65.6 116.908 65.6 112.6C65.6 108.292 62.1078 104.8 57.8 104.8C53.4922 104.8 50 108.292 50 112.6C50 116.908 53.4922 120.4 57.8 120.4Z" fill="#524AFF"/>
<path d="M177.4 154.2C161.8 154.2 146.2 159.4 125.4 159.4C104.6 159.4 86.4002 154.2 73.4002 154.2C63.3486 154.2 55.2002 162.348 55.2002 172.4C55.2002 182.452 63.3486 190.6 73.4002 190.6C89.0002 190.6 104.6 182.8 125.4 182.8C146.2 182.8 164.4 188 177.4 188C185.2 188 195.6 182.452 195.6 172.4C195.6 162.348 187.452 154.2 177.4 154.2Z" fill="#FDE09B"/>
<path d="M73.4002 190.6C83.4518 190.6 91.6002 182.452 91.6002 172.4C91.6002 162.348 83.4518 154.2 73.4002 154.2C63.3486 154.2 55.2002 162.348 55.2002 172.4C55.2002 182.452 63.3486 190.6 73.4002 190.6Z" fill="#FCD069"/>
<path d="M73.3996 180.2C77.7074 180.2 81.1996 176.708 81.1996 172.4C81.1996 168.092 77.7074 164.6 73.3996 164.6C69.0918 164.6 65.5996 168.092 65.5996 172.4C65.5996 176.708 69.0918 180.2 73.3996 180.2Z" fill="#FBC137"/>
<path d="M204.27 172.4H103.242C102.573 172.4 102.008 172.907 101.95 173.573C100.893 185.714 81.2004 190.6 73.4004 190.6C99.4004 190.6 102 185.4 130.6 185.4C149.46 185.4 162.452 190.473 177.4 190.473C190.4 190.473 204.41 184.728 205.566 173.831C205.647 173.066 205.04 172.4 204.27 172.4Z" fill="#FEEFCD"/>
<path d="M184.178 183.695C169.229 183.695 156.237 178.623 137.378 178.623C116.077 178.623 109.197 181.507 96.3324 182.979C89.639 188.312 78.7369 190.6 73.4004 190.6C99.4004 190.6 102 185.4 130.6 185.4C149.46 185.4 162.452 190.473 177.4 190.473C188.311 190.473 199.93 186.426 204.068 178.684C198.629 181.993 191.254 183.695 184.178 183.695Z" fill="#FDE8B4"/>
<path d="M143.566 185.4H127.966C126.53 185.4 125.366 186.564 125.366 188V208.8C125.366 209.636 125.768 210.42 126.446 210.909C127.124 211.398 127.996 211.531 128.788 211.267L135.766 206.2L142.744 211.266C143.013 211.356 143.29 211.4 143.566 211.4C144.105 211.4 144.638 211.232 145.087 210.909C145.765 210.421 146.166 209.636 146.166 208.8V188C146.166 186.564 145.002 185.4 143.566 185.4Z" fill="#E04D22"/>
<path d="M135.767 193.2C147.254 193.2 156.567 183.888 156.567 172.4C156.567 160.913 147.254 151.6 135.767 151.6C124.279 151.6 114.967 160.913 114.967 172.4C114.967 183.888 124.279 193.2 135.767 193.2Z" fill="#E7714E"/>
<path d="M135.766 182.8C141.51 182.8 146.166 178.144 146.166 172.4C146.166 166.656 141.51 162 135.766 162C130.022 162 125.366 166.656 125.366 172.4C125.366 178.144 130.022 182.8 135.766 182.8Z" fill="#EDEAEE"/>
</svg>
