<svg width="1440" height="580" viewBox="0 0 1440 580" fill="none" xmlns="http://www.w3.org/2000/svg">
<mask id="mask0" mask-type="alpha" maskUnits="userSpaceOnUse" x="0" y="0" width="1440" height="580">
<rect width="1440" height="580" fill="#C4C4C4"/>
</mask>
<g mask="url(#mask0)">
<path d="M115.7 538.773C259.297 519.672 403.162 510.45 546.054 500.523C698.357 489.928 842.257 515.128 987.825 526.652C1075.53 533.644 1163.54 532.593 1252.43 495.519C1314.62 469.551 1364.59 434.081 1405.67 386.382C1462.9 319.93 1498.1 242.883 1558.95 178.574C1573.03 163.689 1589.58 149.037 1610.29 141.155C1627.51 134.622 1646.04 133.323 1663.37 130.034C1678.8 127.103 1687.97 119.199 1694.38 108.259C1713.91 74.8863 1710.2 26.9535 1718.99 -9.71154C1720.84 -17.4572 1723.54 -27.3144 1722.01 -34.6834C1720.9 -39.9432 1716.27 -40.6087 1712.18 -41.056C1680.43 -44.5275 1648.59 -51.4498 1615.12 -50.0172C1576.76 -48.376 1543.93 -33.2223 1516.84 -9.36345C1470.44 31.5541 1442.14 89.8772 1408.62 139.738C1375.49 188.94 1341.29 238.321 1299.34 283.693C1263.86 322.105 1222.52 356.682 1173.94 383.317C1113.05 416.673 1044.38 428.401 978.973 431.525C818.107 439.168 662.991 408.911 500.654 414.665C419.883 417.524 337.816 424.713 256.54 431.742C186.941 437.758 116.293 444.816 47.1066 458.967C27.6261 462.947 1.79449 467.44 -13.8788 481.168C-21.4853 487.832 -24.07 495.449 -25.7487 502.875C-28.236 513.9 -27.6126 525.525 -20.2568 533.698C4.05787 560.76 76.8485 545.288 115.654 538.765" fill="#00237C"/>
<path d="M51.872 440.213C129.715 426.696 207.572 419.044 285.071 412.566C335.994 408.313 386.914 404.577 437.808 400.767C515.442 394.945 591.553 396.604 667.17 400.362C749.236 404.437 831.543 410.556 914.315 410.281C1008.25 409.966 1102.44 399.482 1188.82 347.36C1257.47 305.899 1310.31 249.573 1355.77 191.211C1384.01 154.93 1409.65 117.611 1434.87 80.1941C1458.4 45.2966 1479.2 8.12703 1510.96 -23.1463C1553.69 -65.2085 1606.78 -79.3569 1664.07 -93.4176C1685.29 -98.6277 1703.51 -110.177 1719.16 -123.502C1756.69 -155.439 1785.11 -195.62 1810.83 -234.635C1814.19 -239.73 1817.62 -245.025 1820.89 -250.548C1827.4 -261.549 1832.94 -272.807 1837.47 -284.22C1837.84 -285.033 1838.14 -285.858 1838.44 -286.683C1841.33 -294.739 1845.01 -304.255 1843.01 -312.154C1841.83 -316.82 1836.8 -317.564 1831.56 -317.678C1732.61 -319.344 1626.88 -316.259 1540.51 -254.666C1489.17 -218.06 1461 -165.864 1429.63 -117.548C1393.7 -62.1006 1357.37 -6.51232 1318.07 47.4383C1269.85 113.643 1216.27 181.187 1147.36 235.941C1075.18 293.273 994.694 316.646 905.479 326.513C791.203 339.152 677.931 333.204 564.974 332.543C452.417 331.881 338.922 341.182 225.015 351.218C156.537 357.255 86.6835 363.813 19.0585 378.118C-0.650067 382.287 -20.7484 387.59 -39.0709 397.33C-52.3144 404.339 -66.418 413.461 -74.8722 424.656C-80.2367 431.804 -82.4775 443.328 -77.0918 449.435C-66.9764 460.929 -41.4902 456.678 -25.0117 454.398C0.591519 450.844 26.337 445.306 51.883 440.188" fill="#CD142B"/>
<path d="M1.82616 369.205C72.8514 353.832 144.102 345.717 214.995 339.109C264.015 334.574 313.151 330.691 362.158 326.627C441.513 320.052 519.84 319.942 598.104 320.015C683.578 320.084 769.797 319.451 856.067 311.478C906.818 306.783 958.71 299.35 1009.23 284.556C1060.82 269.44 1105.82 241.116 1145.66 208.077C1226.78 140.78 1288.52 58.097 1345.23 -22.367C1375.61 -65.4791 1404.41 -109.167 1433.02 -152.906C1459.71 -193.694 1483.63 -236.549 1522.89 -271.531C1585.06 -327.029 1668.03 -350.66 1748.28 -371.882C1775.51 -379.074 1801.15 -390.281 1825.47 -403.631C1878.84 -432.923 1925.46 -465.654 1965.25 -508.462C1970.37 -513.786 1975.11 -519.327 1979.45 -525.048C1986.74 -535.079 1993.45 -545.818 1995.85 -557.077C1996 -557.736 1996.1 -558.384 1996.19 -559.008C1997.35 -567.303 1994.16 -571.644 1988.12 -574.678C1984.24 -576.632 1977.64 -576.249 1970.58 -575.291C1840.98 -557.739 1696.82 -543.449 1584.25 -468.888C1526.14 -430.398 1496.5 -377.078 1462.97 -324.04C1421.36 -258.18 1379.62 -192.168 1335.28 -127.419C1278.55 -44.5557 1217.82 40.6297 1139.54 113.204C1102.15 147.849 1058.1 179.095 1007.62 197.422C964.392 213.105 918.45 222.689 874.167 229.872C760.14 248.356 646.151 251.639 532.698 256.507C424.073 261.155 315.36 271.689 206.192 282.967C145.003 289.291 82.6426 295.663 22.4506 309.24C3.84314 313.431 -14.8244 319.067 -32.6919 327.037C-54.5485 336.787 -79.4384 347.837 -95.6069 363.121C-102.132 369.297 -112.182 379.088 -110.599 386.795C-106.989 404.531 -15.7059 373.427 1.92608 369.205" fill="#979797"/>
</g>
</svg>
