<svg width="38" height="53" fill="none" xmlns="http://www.w3.org/2000/svg"><g clip-path="url(#clip0)"><path d="M20.356 28.906L37.44 11.818a1.925 1.925 0 000-2.717 1.914 1.914 0 00-2.71 0L19 24.834 3.274 9.104a1.917 1.917 0 00-2.713 0 1.925 1.925 0 000 2.716l17.082 17.088c.74.738 1.975.738 2.713-.002z" fill="#CD142B"/></g><g clip-path="url(#clip1)"><path d="M20.356 43.906L37.44 26.818a1.925 1.925 0 000-2.717 1.914 1.914 0 00-2.71 0L19 39.834 3.274 24.104a1.917 1.917 0 00-2.713 0 1.925 1.925 0 000 2.716l17.082 17.088c.74.738 1.975.738 2.713-.002z" fill="#CD142B"/></g><defs><clipPath id="clip0"><path fill="#fff" transform="rotate(-90 19 19)" d="M0 0h38v38H0z"/></clipPath><clipPath id="clip1"><path fill="#fff" transform="rotate(-90 26.5 26.5)" d="M0 0h38v38H0z"/></clipPath></defs></svg>