<svg width="19" height="19" fill="none" xmlns="http://www.w3.org/2000/svg"><g clip-path="url(#clip0)" fill="#fff" fill-opacity=".81"><path d="M13.809 0H5.19A5.093 5.093 0 00.104 5.087v8.619a5.093 5.093 0 005.086 5.086h8.62a5.093 5.093 0 005.086-5.086v-8.62A5.093 5.093 0 0013.809 0zm-4.31 14.535a5.144 5.144 0 01-5.138-5.139A5.144 5.144 0 019.5 4.258a5.144 5.144 0 015.138 5.138A5.144 5.144 0 019.5 14.535zm5.262-9.065a1.52 1.52 0 01-1.518-1.519 1.52 1.52 0 011.518-1.518 1.52 1.52 0 011.518 1.518 1.52 1.52 0 01-1.518 1.519z"/><path d="M9.5 5.36a4.041 4.041 0 00-4.037 4.036A4.041 4.041 0 009.5 13.433a4.041 4.041 0 004.036-4.037A4.041 4.041 0 009.5 5.36zm5.26-1.825a.417.417 0 10.001.834.417.417 0 000-.834z"/></g><defs><clipPath id="clip0"><path fill="#fff" transform="translate(.104)" d="M0 0h18.793v18.793H0z"/></clipPath></defs></svg>