<svg width="19" height="19" fill="none" xmlns="http://www.w3.org/2000/svg"><g clip-path="url(#clip0)"><path d="M18.584 4.643l.023.153a2.382 2.382 0 00-1.619-1.654l-.016-.003c-1.465-.398-7.36-.398-7.36-.398s-5.881-.008-7.361.398A2.383 2.383 0 00.62 4.779l-.004.017C.069 7.655.065 11.09.64 14.151l-.024-.155c.227.806.84 1.427 1.62 1.654l.016.003c1.463.4 7.36.4 7.36.4s5.88 0 7.36-.4a2.383 2.383 0 001.632-1.64l.004-.017c.25-1.33.392-2.86.392-4.423l-.001-.173v-.18c0-1.563-.142-3.093-.415-4.577zM7.73 12.255v-5.71l4.906 2.86-4.906 2.85z" fill="#fff" fill-opacity=".81"/></g><defs><clipPath id="clip0"><path fill="#fff" transform="translate(.207)" d="M0 0h18.793v18.793H0z"/></clipPath></defs></svg>