<svg width="112" height="112" fill="none" xmlns="http://www.w3.org/2000/svg"><path d="M92.055 31.024l-.029-.428-3.605.23.03.45c.031.463.065.928.065 1.403a29.185 29.185 0 01-6.21 17.954l-6.578 8.373a33.315 33.315 0 00-7.032 18.671h-3.663v-9.032c0-3.882 1.938-7.052 4.393-11.068 3.676-6.01 8.252-13.494 8.252-26.867h-3.613c0 12.357-4.103 19.065-7.721 24.983-2.643 4.32-4.924 8.053-4.924 12.952v9.032H50.58v-9.032c0-4.899-2.281-8.631-4.924-12.954-3.62-5.916-7.721-12.625-7.721-24.982 0-18.416 14.776-25.593 18.055-26.96 2.46 1.058 11.924 5.698 16.061 16.067l3.355-1.336C72.6 11.443 67.75 6.814 63.674 3.952a28.972 28.972 0 0115.584 7.497l2.466-2.64C75.638 3.13 67.729 0 59.452 0H52.55C34.53 0 19.87 14.66 19.87 32.679a32.82 32.82 0 006.984 20.189l6.577 8.372a29.662 29.662 0 016.31 18.244v9.032H36.13v3.613h3.248l-2.245 3.37a5.944 5.944 0 00-1.003 3.309c0 2.505 1.557 4.647 3.752 5.529.665 4.328 4.382 7.663 8.893 7.663h14.452c4.51 0 8.228-3.335 8.893-7.663 2.195-.882 3.752-3.022 3.752-5.53a5.945 5.945 0 00-1.003-3.309l-2.245-3.369h3.248v-3.613h-3.613v-9.032a29.673 29.673 0 016.31-18.245l6.577-8.373a32.814 32.814 0 006.984-20.187c0-.559-.036-1.106-.074-1.655zM36.272 59.006l-6.577-8.373a29.184 29.184 0 01-6.21-17.954c0-14.625 10.867-26.727 24.942-28.739-6.136 4.316-14.104 12.636-14.104 26.77 0 13.373 4.575 20.855 8.251 26.867 2.455 4.016 4.394 7.186 4.394 11.068v9.033h-3.664a33.312 33.312 0 00-7.032-18.672zm6.536 42.155h-.714a2.355 2.355 0 01-1.956-3.66l2.314-3.471 2.314 3.471a2.352 2.352 0 01-1.958 3.66zm27.096 0h-.713a2.355 2.355 0 01-1.957-3.66l2.314-3.471 2.314 3.471a2.355 2.355 0 01-1.958 3.66zm-1.564 3.527c-.724 2.142-2.73 3.699-5.114 3.699H48.775c-2.385 0-4.39-1.557-5.115-3.699 2.885-.418 5.115-2.882 5.115-5.88a5.945 5.945 0 00-1.003-3.31l-2.245-3.369h20.947l-2.245 3.37a5.944 5.944 0 00-1.003 3.309c0 2.998 2.23 5.462 5.114 5.88zm.305-16.172h-25.29V81.29h25.29v7.226z" fill="#333"/><path d="M101.162 32.516H79.484c-4.98 0-9.032-4.052-9.032-9.032a8.991 8.991 0 015.737-8.393c1.384-6.62 7.265-11.478 14.134-11.478 5.226 0 10.067 2.878 12.607 7.412 5.164.85 9.07 5.345 9.07 10.652 0 5.978-4.861 10.84-10.838 10.84zM30.71 86.71H9.031C4.052 86.71 0 82.658 0 77.678a8.99 8.99 0 015.737-8.393c1.384-6.62 7.266-11.478 14.134-11.478 5.226 0 10.067 2.877 12.607 7.412 5.165.85 9.07 5.345 9.07 10.652 0 5.978-4.86 10.839-10.839 10.839z" fill="#00237C"/></svg>