<svg width="384" height="366" fill="none" xmlns="http://www.w3.org/2000/svg"><g opacity=".7"><path d="M353.533 183c0-89.459-72.307-161.955-161.533-161.955C102.775 21.045 30.468 93.54 30.468 183h323.065z" fill="#CD142B"/><path d="M30.468 180.959c0 89.459 72.307 161.955 161.532 161.955 89.226 0 161.533-72.496 161.533-161.955H30.468z" fill="#00237C"/><path d="M353.533 183c0 89.459-72.307 161.955-161.533 161.955-89.225 0-161.532-72.496-161.532-161.955 0-89.459 72.307-161.955 161.532-161.955 89.226 0 161.533 72.496 161.533 161.955zm-323.065 0h91.121m140.402-2.252h91.542" stroke="#fff" stroke-width="8" stroke-miterlimit="10"/><path d="M109.233 93.752a17.95 17.95 0 014.282 5.28c1.053 1.97 1.685 4.082 1.895 6.404.211 2.323-.07 4.505-.702 6.687-.631 2.182-1.755 4.082-3.159 5.842-1.474 1.759-3.229 3.097-5.194 4.152-1.966 1.056-4.142 1.619-6.389 1.76-2.316.211-4.493-.07-6.669-.774-2.106-.704-4.072-1.83-5.897-3.308-1.825-1.549-3.229-3.308-4.282-5.279s-1.685-4.153-1.895-6.475c-.211-2.253 0-4.435.631-6.617.632-2.181 1.755-4.082 3.16-5.842 1.474-1.76 3.158-3.096 5.194-4.152s4.142-1.62 6.389-1.83c2.246-.141 4.492.07 6.598.774 2.247.774 4.213 1.9 6.038 3.378zm-3.58 19.286c1.544-1.83 2.106-3.942 1.755-6.335-.422-2.393-1.615-4.504-3.791-6.264-2.106-1.76-4.353-2.675-6.81-2.604-2.457 0-4.422.915-5.897 2.745-1.544 1.83-2.106 3.941-1.755 6.334.421 2.393 1.685 4.505 3.791 6.265 2.176 1.83 4.423 2.745 6.81 2.745 2.386-.071 4.352-1.056 5.897-2.886zm21.832-42.161l.07.07c.913.634 1.615 1.197 2.176 1.76-.21-.704-.28-1.549-.351-2.604v-.282l-.421-8.587 8.916-4.997-1.474 19.074 18.603 9.22-8.565 4.787-9.477-5.913a17.6 17.6 0 01-1.193-.844 4.697 4.697 0 01-1.053-.986c.14.493.28 1.056.351 1.478.07.423.07.915.07 1.408l.07 11.191-8.564 4.786 1.825-20.904-16.919-8.446 8.986-5.068 6.95 4.857zm36.646 11.543l-6.038-32.447 19.095-3.59 1.334 7.11-10.811 2.04 1.053 5.631 10.179-1.9 1.334 6.968-10.179 1.9 2.386 12.74-8.353 1.548zm65.075-15.273c-.421 2.322-1.193 4.434-2.387 6.334-1.193 1.9-2.667 3.52-4.563 4.857-1.895 1.337-3.931 2.252-6.107 2.745a17.374 17.374 0 01-6.599.21c-2.247-.351-4.283-1.196-6.178-2.392a15.836 15.836 0 01-4.774-4.645c-1.333-1.9-2.246-3.942-2.738-6.124-.491-2.182-.491-4.434-.14-6.757.421-2.323 1.194-4.434 2.387-6.334 1.193-1.9 2.738-3.52 4.633-4.857a16.208 16.208 0 016.037-2.745 17.695 17.695 0 016.67-.211c2.246.352 4.282 1.196 6.177 2.393a15.825 15.825 0 014.774 4.645c1.264 1.9 2.176 3.942 2.668 6.124.491 2.182.491 4.434.14 6.757zm-18.393 6.686c2.387.422 4.493-.14 6.318-1.69 1.826-1.547 3.019-3.66 3.51-6.475.492-2.745.071-5.138-1.193-7.25-1.264-2.11-3.019-3.307-5.335-3.73-2.387-.422-4.493.141-6.318 1.69-1.826 1.548-3.019 3.73-3.51 6.405-.492 2.815-.071 5.208 1.123 7.25 1.193 2.181 3.018 3.448 5.405 3.8zm26.046 14.711l17.059-28.295 7.722 4.716c3.019 1.83 5.054 3.237 6.107 4.293 1.053.986 1.755 2.112 2.247 3.308.491 1.338.702 2.816.491 4.294-.21 1.478-.702 3.026-1.614 4.434-1.334 2.182-2.879 3.66-4.774 4.364-1.825.774-3.931.774-6.178 0l.562 15.907-8.354-5.068.421-14.851-6.669 11.05-7.02-4.152zm15.936-10.699l1.404.845c1.614.985 2.948 1.407 4.001 1.267 1.053-.141 1.966-.774 2.738-1.971.842-1.408 1.123-2.604.772-3.66-.351-.985-1.334-2.041-2.948-3.027l-1.475-.915-4.492 7.461zm12.846 30.266l25.483-20.904 4.212 5.138c3.089 3.8 5.125 6.686 6.037 8.587.913 1.9 1.405 3.8 1.545 5.701.14 2.463-.351 4.856-1.404 7.109-1.123 2.252-2.808 4.293-5.055 6.123-2.246 1.83-4.563 3.097-7.02 3.73a13.98 13.98 0 01-7.23 0c-1.826-.492-3.581-1.337-5.125-2.604-1.615-1.196-3.721-3.449-6.318-6.686l-.913-1.127-4.212-5.067zm11.162 1.971l.913 1.126c2.176 2.604 4.282 4.082 6.388 4.434 2.106.281 4.352-.563 6.81-2.534 2.457-1.971 3.72-4.082 3.861-6.194.14-2.111-.843-4.504-3.019-7.179l-.913-1.126-14.04 11.473zM70.763 244.164l28.572-16.4 10.179 17.878-6.248 3.589-5.757-10.135-4.984 2.815 5.405 9.502-6.107 3.519-5.405-9.502-4.844 2.745 5.756 10.136-6.388 3.66-10.18-17.807zm24.5 36.248l20.499-25.831 6.88 5.49-.702 21.185c0 .423-.141 1.197-.351 2.393a45.342 45.342 0 01-.913 4.083c.702-1.197 1.334-2.253 1.966-3.097.631-.915 1.123-1.619 1.684-2.323l10.109-12.74 6.88 5.49-20.499 25.832-6.879-5.49.702-21.257c0-.422.14-1.196.351-2.393.21-1.196.491-2.533.842-4.012a62.83 62.83 0 01-1.966 3.097c-.631.915-1.123 1.69-1.684 2.323l-10.109 12.74-6.81-5.49zm66.831 23.72l1.685-6.757 17.41 4.293c-.07.211-.07.493-.141.704-.07.281-.14.633-.28 1.196-1.334 5.49-3.861 9.432-7.582 11.755-3.721 2.322-8.214 2.815-13.549 1.478-2.668-.634-4.844-1.619-6.739-2.886-1.825-1.267-3.37-2.956-4.634-4.927-1.193-1.9-1.895-4.012-2.246-6.335-.351-2.322-.211-4.575.351-6.897.562-2.393 1.544-4.505 2.878-6.264 1.334-1.83 3.019-3.309 5.055-4.505 2.036-1.126 4.142-1.9 6.458-2.182a18.696 18.696 0 017.091.493c3.159.774 5.826 2.111 8.003 3.941 2.176 1.83 3.72 4.223 4.843 7.039l-8.564 1.759c-.632-1.478-1.404-2.674-2.387-3.519-.983-.915-2.176-1.478-3.65-1.83-2.668-.633-4.915-.281-6.88 1.056-1.966 1.337-3.3 3.589-4.072 6.616-.772 3.027-.561 5.631.492 7.742 1.123 2.112 2.948 3.52 5.616 4.153 2.246.563 4.282.493 6.037-.211s3.019-1.971 3.721-3.731l-8.916-2.181zm36.926 15.907l-3.791-32.8 9.056-1.055 2.949 25.127 11.232-1.337.913 7.671-20.359 2.394zm38.892-8.025l-12.215-30.687 8.565-3.449 12.215 30.688-8.565 3.448zm23.025-23.227c1.966.352 3.721.423 5.265.212 1.474-.212 2.738-.704 3.791-1.549.983-.774 1.544-1.619 1.825-2.604.211-.985.07-1.9-.562-2.675-.702-.844-1.474-1.337-2.316-1.407-.913-.071-2.457.422-4.774 1.337-3.159 1.337-5.686 1.83-7.582 1.548-1.895-.281-3.65-1.407-5.124-3.308-1.896-2.534-2.668-5.208-2.176-8.094.491-2.886 2.106-5.349 4.773-7.461a19.013 19.013 0 014.633-2.604c1.615-.633 3.3-.985 5.055-1.126l1.685 6.898a12.595 12.595 0 00-3.721.352 7.285 7.285 0 00-2.948 1.478c-.843.703-1.404 1.407-1.615 2.252-.211.845-.07 1.548.421 2.182.492.633 1.123.985 1.896 1.056.772.07 1.965-.282 3.65-.986l.421-.141c3.581-1.478 6.178-2.111 7.793-1.9 1.123.141 2.176.563 3.229 1.197.983.633 1.965 1.548 2.808 2.604 2.106 2.745 2.948 5.701 2.387 8.798-.562 3.097-2.387 5.842-5.476 8.235-1.825 1.408-3.791 2.393-5.756 2.956-1.966.563-4.212.704-6.599.493l-.983-7.743zm37.979-20.27l-28.221-17.104 4.704-7.812 10.951 6.616 6.318-10.417-10.951-6.616 4.703-7.813 28.221 17.104-4.703 7.812-11.443-6.968-6.318 10.417 11.443 6.968-4.704 7.813z" fill="#fff"/><mask id="a" maskUnits="userSpaceOnUse" x="111" y="101" width="164" height="164"><path d="M192.773 264.928c44.974 0 81.433-36.554 81.433-81.646s-36.459-81.646-81.433-81.646c-44.975 0-81.434 36.554-81.434 81.646s36.459 81.646 81.434 81.646z" fill="#fff"/></mask><g mask="url(#a)"><path d="M172.835 103.747H75.957v51.944h96.878v-51.944z" fill="#00237C"/><path d="M102.563 103.747H75.957v16.33l129.732 85.869 31.59-13.021-134.716-89.178z" fill="#fff"/><path d="M75.957 105.084v11.262l131.487 86.995 5.124-7.812-136.611-90.445z" fill="#CD142B"/><path d="M309.306 103.747h-96.877v51.944h96.877v-51.944z" fill="#00237C"/><path d="M282.77 103.747h26.606v16.33l-129.802 85.869-31.52-13.021 134.716-89.178z" fill="#fff"/><path d="M309.376 105.084v11.262l-131.487 86.995-5.124-7.812 136.611-90.445z" fill="#CD142B"/><path d="M309.306 208.409h-96.877v51.944h96.877v-51.944z" fill="#00237C"/><path d="M282.77 260.424h26.606v-16.4l-129.802-85.869-31.52 13.021 134.716 89.248z" fill="#fff"/><path d="M309.376 259.016v-11.191l-131.487-87.066-5.124 7.813 136.611 90.444z" fill="#CD142B"/><path d="M172.835 208.409H75.957v51.944h96.878v-51.944z" fill="#00237C"/><path d="M102.563 260.424H75.957v-16.4l129.732-85.869 31.59 13.021-134.716 89.248z" fill="#fff"/><path d="M75.957 259.016v-11.191l131.487-87.066 5.124 7.813-136.611 90.444z" fill="#CD142B"/><path d="M309.376 155.691h-96.737v-51.944h-40.366v51.944H75.957v51.592h96.316v53.14h40.366v-53.14h96.737v-51.592z" fill="#fff"/><path d="M309.376 166.249H204.074v-62.502h-23.237v62.502H75.957v30.476h104.88v63.698h23.237v-63.698h105.302v-30.476z" fill="#CD142B"/></g><path d="M270.206 183.282c0 42.893-34.678 77.646-77.433 77.646-42.756 0-77.434-34.753-77.434-77.646s34.678-77.646 77.434-77.646c42.755 0 77.433 34.753 77.433 77.646z" stroke="#fff" stroke-width="8"/></g></svg>