<svg width="102" height="102" fill="none" xmlns="http://www.w3.org/2000/svg"><path d="M79.726 10.53C76.34 4.204 69.84.294 62.633.294H60.52c-16.234 0-29.442 13.208-29.442 29.442v14.721h1.635a6.543 6.543 0 016.543-6.542V28.1a63.725 63.725 0 0020.158 3.271h2.211A63.725 63.725 0 0081.783 28.1v9.814a6.543 6.543 0 016.543 6.542h1.636V27.623c0-7.208-3.91-13.708-10.236-17.093z" fill="#00237C"/><path d="M19.04 101.706H102l-5.393-17.255c-.078-.25-.171-.492-.26-.738h5.064V11.744H81.783v.072c1.31.926 2.47 2.009 3.494 3.2H98.14v65.426h-3.272v.04c-3.019-5.261-8.343-9.017-14.452-9.957l-8.447-1.3V67.53c5.504-3.194 9.566-8.602 10.936-15.007 3.975-.555 7.056-3.94 7.056-8.066 0-3.948-2.814-7.252-6.542-8.013V25.83l-2.153.719a61.968 61.968 0 01-19.64 3.187h-2.212a62.012 62.012 0 01-19.641-3.186l-2.153-.72v10.614c-3.727.76-6.542 4.063-6.542 8.013 0 4.126 3.081 7.511 7.056 8.066 1.37 6.405 5.432 11.813 10.936 15.007v1.695l-8.447 1.298c-6.109.94-11.433 4.696-14.452 9.957v-.038H3.27V13.38h32.786c.776-1.158 1.653-2.238 2.58-3.272H0v73.605h24.692c-.088.246-.182.488-.26.738l-5.393 17.255zM50.134 72.37l7.992 7.992-9.563 8.366-2.618-15.714 4.189-.644zM60.52 82.616l6.452 5.646-3.307 4.961 1.304 5.211H56.07l1.303-5.213-3.307-4.96 6.453-5.645zM70.904 72.37l4.19.644-2.62 15.714-9.562-8.366 7.992-7.992zm22.582 13.056l4.065 13.008H84.863l-1.457-11.652-3.245.405 1.405 11.247H68.338l-1.15-4.6 2.267-3.4 5.282 4.621 3.59-21.542 1.591.246c6.33.973 11.656 5.554 13.568 11.667zM86.69 44.457c0 2.154-1.405 3.97-3.34 4.628.026-.452.069-.898.069-1.356V39.85c1.899.678 3.271 2.477 3.271 4.606zm-27.276-11.45h2.211c6.286 0 12.507-.9 18.522-2.678v7.586h-2.09a3.26 3.26 0 00-2.817-1.636h-9.813a3.275 3.275 0 00-3.272 3.271h-3.271a3.275 3.275 0 00-3.271-3.271h-9.814a3.26 3.26 0 00-2.817 1.636h-2.09v-7.587a65.271 65.271 0 0018.522 2.68zM75.24 39.55v3.272a3.275 3.275 0 01-3.27 3.271h-3.272a3.275 3.275 0 01-3.271-3.271V39.55h9.813zm-19.627 0v3.272a3.275 3.275 0 01-3.272 3.271H49.07a3.275 3.275 0 01-3.271-3.271V39.55h9.814zm-21.264 4.907c0-2.13 1.372-3.928 3.271-4.606v7.878c0 .458.043.904.069 1.356-1.935-.658-3.34-2.474-3.34-4.628zm6.543 3.272v-6.543h1.635v1.636a6.55 6.55 0 006.543 6.542h3.271a6.55 6.55 0 006.543-6.542h3.271a6.55 6.55 0 006.543 6.542h3.271a6.55 6.55 0 006.543-6.542v-1.636h1.635v6.543c0 10.823-8.804 19.628-19.627 19.628-10.824 0-19.628-8.805-19.628-19.628zM60.52 70.628c2.883 0 5.634-.558 8.178-1.536v.859l-8.178 8.178-8.179-8.178v-.859a22.727 22.727 0 008.179 1.536zm-19.398 3.129l1.592-.245 3.59 21.541 5.282-4.62 2.267 3.398-1.152 4.603H39.474l1.405-11.247-3.246-.405-1.457 11.652H23.488l4.063-13.008c1.914-6.113 7.24-10.694 13.571-11.669z" fill="#000"/><path d="M17.992 39.55V26.465h-4.907v3.271h1.636v9.814h3.271zm8.178 4.908H6.542v3.27H26.17v-3.27zm-4.906 11.73v-.281A4.913 4.913 0 0016.357 51a4.913 4.913 0 00-4.907 4.907h3.271a1.636 1.636 0 013.271 0v.281c0 .43-.173.852-.479 1.157l-6.063 6.063v3.949h9.814v-3.272h-5.866l4.428-4.427a4.87 4.87 0 001.438-3.47z" fill="#000"/></svg>