<svg width="523" height="523" fill="none" xmlns="http://www.w3.org/2000/svg"><g clip-path="url(#clip0)"><path d="M238.985 39.853a48.358 48.358 0 00-18.279.183c-22.384 4.524-38.048 23.77-38.937 45.605-.027.576-.027 1.177-.053 1.752 0 3.243.314 6.512.968 9.807 5.282 26.28 30.909 43.304 57.19 37.996 15.768-3.165 28.19-13.651 34.492-27.223 4.184-9.047 5.648-19.455 3.53-29.968-4.053-20.03-19.926-34.7-38.911-38.152zm14.121 42.964c.052.314.104.654.131.968 1.229 10.303-3.714 19.978-11.977 24.371a21.344 21.344 0 01-5.335 1.962c-.13.026-.235.052-.366.078-11.61 2.328-23.064-5.387-26.542-17.494-.079-.314-.183-.628-.262-.942a14.898 14.898 0 01-.261-1.15c-2.667-13.31 5.073-26.072 17.337-28.556.105-.026.236-.052.34-.078 3.635-.68 7.244-.34 10.591.784 7.819 2.641 14.226 9.676 16.082 18.907.131.392.21.784.262 1.15z" fill="#D5E6E7"/><path d="M274.706 78.476l-16.893 3.4a11.396 11.396 0 00-.183-.916c-3.164-15.768-17.495-26.202-31.982-23.273-14.487 2.929-23.639 18.07-20.475 33.838.052.314.131.602.209.915l-18.174 3.661c-4.864-24.162 10.774-47.697 34.936-52.561 24.163-4.864 47.698 10.774 52.562 34.936z" fill="#CC152B"/><path d="M274.889 79.444c4.863 24.162-10.774 47.697-34.937 52.561-24.162 4.864-47.697-10.773-52.561-34.936l18.2-3.661c.052.21.105.418.183.627 4.106 14.357 17.677 23.536 31.38 20.79 13.703-2.772 22.646-16.475 20.894-31.302l-.079-.627 16.92-3.452z" fill="#00247C"/><path d="M183.73 101.436c5.099-3.609 18.2-6.904 26.359-5.701-.889-2.458-1.83-7.322-2.013-8.42-6.799-1.57-21.025 1.046-25.993 6.145.287 3.164 1.647 7.976 1.647 7.976zm94.82-19.116c-6.093-1.36-18.07.157-25.131 4.42-.13-2.615-.915-7.061-1.464-8.551 5.648-4.08 18.305-6.564 24.895-4.394 1.124 3.165 1.7 8.525 1.7 8.525z" fill="#D5E6E7"/><path d="M201.198 66.055c.628.34 1.151.758 1.569 1.281.419.523.732 1.099.942 1.752.183.654.261 1.334.183 1.988a5.108 5.108 0 01-.576 1.883c-.314.601-.758 1.098-1.281 1.516a4.955 4.955 0 01-1.778.89c-.654.183-1.334.26-1.988.183a5.26 5.26 0 01-1.935-.628c-.627-.34-1.15-.758-1.569-1.282a5.01 5.01 0 01-.915-1.778 4.66 4.66 0 01-.183-1.987 4.93 4.93 0 01.601-1.909c.314-.602.759-1.098 1.282-1.517a5.003 5.003 0 011.778-.915 5.091 5.091 0 011.987-.157c.628.157 1.256.34 1.883.68zm.105 5.858c.34-.628.392-1.282.13-1.962-.261-.68-.758-1.202-1.49-1.62-.732-.393-1.438-.524-2.144-.367-.706.157-1.229.55-1.569 1.15-.34.628-.393 1.282-.131 1.962.261.68.758 1.203 1.464 1.621.732.392 1.465.523 2.145.392.706-.156 1.229-.549 1.595-1.176zm3.896-13.625h.026c.314.131.549.262.733.393-.105-.183-.184-.445-.262-.759 0-.026-.026-.052-.026-.078l-.628-2.484 2.328-1.988.68 5.649 5.988 1.595-2.223 1.909-3.112-1.177c-.13-.052-.287-.105-.418-.183s-.262-.13-.366-.235c.078.157.131.287.183.418.052.13.078.262.104.392l.68 3.27-2.222 1.908-.706-6.224-5.466-1.464 2.328-2.014 2.379 1.072zm11.428 1.203l-3.688-9.126 5.387-2.17.811 2.013-3.06 1.23.628 1.594 2.877-1.176.784 1.96-2.876 1.178 1.438 3.582-2.301.915zm18.174-8.289a5.177 5.177 0 01-.314 2.013 4.976 4.976 0 01-1.046 1.7 5.49 5.49 0 01-1.621 1.177 4.98 4.98 0 01-1.935.444 5 5 0 01-1.961-.34 4.95 4.95 0 01-1.674-1.072 4.818 4.818 0 01-1.151-1.647 5.644 5.644 0 01-.444-1.961 5.029 5.029 0 01.314-1.988 5.047 5.047 0 011.072-1.7 5.046 5.046 0 011.595-1.176c.601-.288 1.255-.419 1.935-.445a5 5 0 011.961.34 4.71 4.71 0 011.674 1.072 5.38 5.38 0 011.15 1.622c.288.601.419 1.255.445 1.96zm-4.969 3.033c.707-.026 1.308-.314 1.753-.863.444-.549.679-1.255.653-2.092-.026-.837-.287-1.516-.784-2.04-.497-.549-1.099-.784-1.805-.784-.706.026-1.307.314-1.752.863-.444.55-.68 1.255-.653 2.092.026.837.287 1.517.758 2.066.497.549 1.098.784 1.83.758zm8.499 2.772l3.321-9.257 2.537.915c.993.366 1.673.654 2.039.89.366.235.628.522.837.836.235.366.366.785.392 1.23a3.25 3.25 0 01-.209 1.385c-.261.706-.627 1.23-1.15 1.57-.497.34-1.099.444-1.805.365l1.099 4.603-2.746-.994-.759-4.367-1.307 3.635-2.249-.81zm4.027-4.08l.445.158c.523.183.941.235 1.255.13.314-.104.523-.34.68-.732.157-.47.183-.837.026-1.124-.157-.288-.497-.523-1.02-.706l-.497-.183-.889 2.458zm5.544 8.081l6.25-7.61 1.517 1.256c1.151.941 1.909 1.647 2.275 2.144.392.497.654 1.02.784 1.569a4.336 4.336 0 010 2.17c-.183.733-.549 1.413-1.124 2.092-.575.68-1.177 1.177-1.831 1.49a4.008 4.008 0 01-2.118.42c-.575-.027-1.124-.184-1.673-.445-.549-.262-1.308-.785-2.249-1.57l-.34-.287-1.491-1.229zm3.4-.078l.34.287c.784.654 1.49.942 2.144.916.628-.027 1.255-.419 1.857-1.151.601-.732.863-1.412.784-2.04-.078-.627-.523-1.281-1.307-1.909l-.34-.287-3.478 4.184zm-52.51 51.411l7.427-6.486 4.027 4.629-1.621 1.412-2.275-2.615-1.281 1.125 2.144 2.458-1.595 1.386-2.145-2.458-1.255 1.098 2.275 2.615-1.673 1.438-4.028-4.602zm9.31 9.126l4.498-8.76 2.353 1.202 1.046 6.224c.026.131.026.366.026.706 0 .366 0 .759-.026 1.229.131-.392.262-.732.393-1.02.13-.287.235-.549.366-.758l2.222-4.315 2.328 1.203-4.498 8.76-2.327-1.202-1.046-6.25c-.027-.131-.027-.366-.053-.733 0-.366 0-.758.026-1.229-.13.393-.261.733-.392 1.02-.131.288-.235.549-.366.785l-2.223 4.315-2.327-1.177zm20.998 2.981l.078-2.066 5.361.235v.576c-.078 1.699-.575 2.981-1.543 3.896-.941.889-2.249 1.308-3.896 1.229a6.013 6.013 0 01-2.144-.444 4.559 4.559 0 01-1.648-1.177 5.37 5.37 0 01-1.333-3.766 5.066 5.066 0 01.47-2.013 5.144 5.144 0 011.203-1.622c.523-.47 1.125-.784 1.778-1.02a6.214 6.214 0 012.119-.287c.967.052 1.83.261 2.562.68.732.418 1.334 1.02 1.831 1.778l-2.406 1.02a2.953 2.953 0 00-.915-.889c-.34-.21-.733-.314-1.177-.34-.811-.026-1.464.209-1.961.732-.497.523-.759 1.229-.811 2.17-.052.942.157 1.674.601 2.249.445.549 1.073.863 1.883.889.68.027 1.282-.104 1.752-.418.471-.314.759-.758.863-1.308l-2.667-.104zm11.768 2.484l-3.06-9.362 2.589-.836 2.327 7.165 3.217-1.046.706 2.196-5.779 1.883zm10.931-4.654l-5.387-8.238 2.301-1.516 5.387 8.237-2.301 1.517zm5.361-8.133c.601 0 1.124-.078 1.542-.235.419-.157.759-.366 1.02-.68.236-.288.366-.576.366-.863 0-.314-.104-.549-.313-.759-.236-.209-.497-.313-.759-.261-.261.026-.706.261-1.307.68-.837.575-1.543.863-2.118.889-.576.026-1.151-.183-1.7-.68-.706-.628-1.072-1.36-1.098-2.249-.027-.863.287-1.7.967-2.458a5.677 5.677 0 011.203-1.046 4.867 4.867 0 011.412-.628l.889 1.909a3.456 3.456 0 00-1.072.34 2.594 2.594 0 00-.784.602c-.21.235-.34.497-.34.758-.027.262.052.471.235.628.183.157.392.235.628.183.235-.052.575-.209.993-.497l.105-.078c.941-.654 1.673-.994 2.17-1.02.34-.026.68.026 1.02.157.34.13.654.34.968.601.784.68 1.203 1.491 1.203 2.432.026.941-.34 1.857-1.125 2.72-.471.523-.967.941-1.517 1.202-.549.288-1.176.445-1.909.523l-.679-2.17zm9.963-8.185l-9.284-3.321.916-2.563 3.608 1.282 1.229-3.426-3.608-1.281.915-2.563 9.283 3.32-.915 2.564-3.766-1.36-1.229 3.425 3.766 1.36-.915 2.563z" fill="#D5EBEF"/><path d="M242.463 107.764c-.576 1.438-1.805 7.034-7.558 6.067-.183 1.334-1.203 3.635-4.21 3.426-3.295-.236-3.373-1.779-3.713-2.354-.837 1.151-3.975.732-4.838-.732-.314-.628-.627-1.857-.732-2.249-.523.784-4.602.549-5.099-1.308-.393-1.438-.288-3.556.078-4.785.105-.392.262-.706.392-.863 1.099-1.203 4.472.157 4.577.915 1.15-1.778 5.334-1.699 6.276.053 1.255-2.171 7.06-.968 7.426.627 1.465-1.83 7.087-.471 7.375.889.078.131.078.236.026.314z" fill="#FFCA9E"/><path d="M242.463 107.764c-.576 1.438-1.805 7.034-7.558 6.067-.183 1.333-1.203 3.635-4.21 3.425-3.295-.235-3.373-1.778-3.713-2.353-.837 1.151-3.975.732-4.838-.732-.314-.628-.627-1.857-.732-2.249-.523.784-4.602.549-5.099-1.308-.393-1.438-.288-3.556.078-4.785 1.412 2.615 4.498 1.438 5.021.471 1.177 1.725 5.204 4.393 6.276.235 1.072 3.19 6.459 3.19 7.427.811 1.229 2.379 5.491 1.595 7.348.104.052.131.052.236 0 .314z" fill="#F6B17A"/><path d="M230.748 112.707c-.523-.027-1.203.183-1.308.758-.105.575-.209 2.013-.183 2.275.052.366.785.497 1.752.471.968-.027 1.543-.236 1.438-.811-.078-.575-.261-1.517-.392-1.935-.131-.419-.261-.732-1.307-.758zm6.746-2.929c-.392-.105-.994-.079-1.177.418-.183.471-.549 1.648-.575 1.883-.026.314.523.549 1.308.706.758.157 1.255.052 1.307-.418.052-.497.079-1.308.052-1.7-.026-.392-.104-.654-.915-.889zm-12.761 1.333c.471-.026 1.098.157 1.203.706.078.55.183 1.831.157 2.092-.026.34-.706.445-1.595.445-.889-.026-1.412-.235-1.334-.758.078-.523.235-1.386.366-1.779.131-.392.235-.68 1.203-.706zm-5.753-2.301c.34 0 .785.105.863.497.052.392.131 1.334.131 1.517-.026.235-.523.313-1.151.313-.627-.026-1.02-.157-.967-.549.052-.366.157-.993.261-1.281.079-.262.157-.471.863-.497z" fill="#FBDCC7"/><path d="M221.438 105.881s.079.419.157 1.046c.026.314.026.68.026 1.099-.026.392-.026.81-.026 1.229-.026.418-.052.836-.026 1.203 0 .392 0 .758.052 1.046 0 .156.026.287.026.418.026.131.026.235.053.34.026.183.052.288.052.288l-.131-.262a.89.89 0 01-.131-.314 7.018 7.018 0 01-.156-.418c-.105-.314-.157-.68-.21-1.072-.026-.393-.052-.837-.026-1.255.026-.419.079-.837.105-1.23.052-.392.104-.758.131-1.072.052-.627.104-1.046.104-1.046zm6.197.157s0 .157.027.392c.026.262.052.602.104 1.046.026.419.079.942.131 1.465.026.549.078 1.124.078 1.699-.026.576-.026 1.177-.104 1.726-.026.131-.026.262-.053.393l-.078.392c-.026.131-.052.235-.078.366-.027.052-.027.105-.053.183a.374.374 0 00-.052.157c-.078.209-.183.392-.262.549-.078.157-.13.288-.183.418-.078.236-.104.367-.104.367s.026-.157.052-.393c.026-.13.052-.287.105-.444.052-.183.104-.366.13-.576 0-.052.027-.104.027-.156 0-.053.026-.105.026-.157.026-.105.026-.236.052-.34.026-.131.026-.236.052-.366 0-.131 0-.262.027-.393.052-.523.052-1.098.026-1.673 0-.576 0-1.151-.026-1.7 0-.549 0-1.046.026-1.491.026-.444.078-.81.104-1.046 0-.261.026-.418.026-.418zm7.401.654s.052.601.209 1.49c.053.445.105.968.183 1.517.053.549.079 1.151.079 1.778a19.666 19.666 0 01-.157 1.779c-.131.549-.262 1.072-.445 1.49-.052.105-.104.209-.13.288-.053.078-.105.183-.157.261-.105.157-.183.288-.262.393-.157.209-.261.313-.261.313s.078-.13.183-.366c.052-.104.131-.261.183-.418.026-.079.052-.183.104-.262l.079-.314c.131-.418.235-.915.288-1.464.078-.549.078-1.124.078-1.726.026-.575 0-1.177-.026-1.726v-1.543c-.026-.889.052-1.49.052-1.49z" fill="#6B3B30"/><path fill-rule="evenodd" clip-rule="evenodd" d="M218.274 405.587l-2.955 20.397-1.386 14.121-3.739 8.368s-3.74-1.569-3.661-2.432c.078-.863.444-10.643.444-11.951 0-1.307.523-4.001.34-4.707-.863.863-6.093 4.367-6.093 4.367l-2.51 1.229-4.55 2.249-4.707 2.877s-3.87 1.542-5.021 1.595c-1.098.026-4.315 1.726-3.007-2.981 1.307-4.707 6.197-27.275 6.197-27.275l4.786-14.461 8.472-11.218 1.465-1.935 15.507-11.585.418 33.342z" fill="#706D6D"/><path fill-rule="evenodd" clip-rule="evenodd" d="M258.415 252.008c-.811-2.04-1.569-5.675-2.798-5.361-1.909.47-1.491 3.295-.994 4.89 1.255 4.105-1.831 11.715 3.216 9.074l.576-8.368m38.466 10.12c-.052 1.02-.183 3.295-.34 6.067-.366 6.093-.968 14.67-1.464 17.939-.079.497-.131.863-.21 1.072-2.536 1.229-12.996 7.766-15.873 8.028-4.001-1.151-14.121-8.473-18.383-11.637-1.203-.889-1.935-1.438-1.935-1.438.366-2.641.784-10.355.366-18.148a82.757 82.757 0 00-.366-4.498l38.205 2.615z" fill="#F6B17A"/><path fill-rule="evenodd" clip-rule="evenodd" d="M257.316 245.548c.497 5.936.262 9.807 0 13.598-.261 3.792 1.569 6.538 6.93 10.068 2.197 1.151 5.622-.654 8.237 0s8.76 1.621 11.559.654c.836-.262 8.106 3.896 11.453.418 3.347-3.478 8.708-14.016 8.891-20.371.183-6.354 1.569-24.921-5.674-28.843-7.244-3.923-25.104-10.983-33.917 0-8.812 10.983-7.636 22.463-7.479 24.476z" fill="#F6B17A"/><path fill-rule="evenodd" clip-rule="evenodd" d="M277.791 248.111c-.157-1.072-2.484-1.491-3.791-.915-2.772 1.203-10.199 1.15-9.624 5.413.288 2.118 1.386 3.713 1.308 3.321-.785-3.923.706-5.309 3.478-5.675 2.798-.34 6.459-1.516 7.139-.653.706.862 3.739.993 4.785.209 1.046-.785 6.093 1.856 7.505 3.242 1.386 1.386 3.478 2.275 1.909 4.969-.261.523 3.06-1.804 1.569-3.923-2.458-3.478-6.171-5.23-8.159-6.354-1.778-.994-4.053-.602-4.184.183-.104.915-1.83.889-1.935.183zm-12.368 10.434c-1.125 1.987.575 6.067 3.216 8.839 3.609 3.765 13.781 4.184 17.259.732 3.007-3.008 4.498-5.753 3.583-7.976-.863-2.118-2.746 2.144-5.858 4.498-3.269 2.484-10.146 1.7-12.918-1.595-2.484-2.929-4.236-6.329-5.282-4.498z" fill="#5E423B"/><path d="M275.019 238.043c-.261-.026-.418-.052-.679-.34-.262-.313-1.203-1.804-3.426-2.144-2.223-.34-3.53.837-3.949 1.177-.392.34-1.386 1.49-1.647 1.543.863-.183 2.17-.497 2.667-.602 2.275-.392 3.217-.314 4.603-.052 1.202.183 1.673.968 2.144.706a2.89 2.89 0 00.287-.288zm9.519.942c.262.026.549.157.863-.079.314-.235 1.569-1.49 3.818-1.281 2.249.209 3.112 1.674 3.426 2.118.313.419.993 1.648 1.255 1.752-.785-.392-2.066-.941-2.537-1.15-2.118-.916-3.216-.968-4.524-1.073-1.229-.104-1.543.523-1.935.157-.052-.104-.366-.444-.366-.444z" fill="#231310"/><path fill-rule="evenodd" clip-rule="evenodd" d="M274.888 238.2c-.209.262-.47.236-.81.026a1.395 1.395 0 01-.236-.183c-.313-.261-1.098-.575-2.118-.706a7.528 7.528 0 00-1.098-.078c-.418 0-.863-.026-1.255 0-1.046.131-1.412.078-2.563.34.758-.393.968-.968 2.327-1.439a4.154 4.154 0 011.569-.235c.079 0 .157 0 .21.026.418.053.758.131 1.098.236 1.334.444 1.909 1.281 2.249 1.621l.026.026c.418.366.863.026.601.366zm17.757 2.275c-1.125-.549-1.438-.575-2.511-.941-.261-.078-.627-.131-.915-.209h-.052c-.079-.026-.157-.026-.235-.052-.419-.105-.785-.131-1.125-.157-.131 0-.235 0-.366-.027-.732-.026-1.334.079-1.621.236-.105.052-.209.104-.288.131-.34.13-.628.104-.758-.21-.157-.366.157.027.627-.183.026 0 .053-.026.105-.052.366-.235.994-.784 2.118-.994a5.006 5.006 0 011.543-.026c.392.053.784.209 1.098.392 1.621.994 1.7 1.439 2.38 2.092z" fill="#F2E9E7"/><path fill-rule="evenodd" clip-rule="evenodd" d="M278.184 238.383c.706-1.281 1.072-5.465-1.099-6.563-2.17-1.099-5.256-2.929-11.715-.262-.523.392-1.673-3.007-.418-4.733 1.909-2.615 3.949-5.178 14.879-5.648 10.931-.471 18.724 7.034 18.907 10.041.183 3.008-1.046 4.472 0 7.27 1.046 2.798.732 4.367.784 4.759.052.393-.706-3.53-3.19-6.406-2.484-2.877-9.989-5.701-12.055-3.531-2.066 2.145-1.831 4.995-1.648 5.466.497 1.307 2.641 5.857 12.134 4.837 3.347-.366 2.196 4.341 2.118 6.773.105 1.046-3.216.785-3.086 3.975-.052.837-4.498-7.27-8.734-9.623-.575-.419-.104 1.543-.784 1.464-1.595-.209-.262-3.53-2.851-3.765-.993-.053-1.098 1.726-2.144 1.621-1.046-.105-.628-2.066-1.857-2.118-1.83-.105-3.268 2.85-3.373 2.144-.261-1.778 2.301-2.406 4.132-5.701zm-7.872 18.854c.837-.183 3.06-1.621 5.544-1.569 6.59.131 9.257 1.962 12.081 1.962 1.779-.053-1.882 2.432-4.497 1.647-2.615-.784-5.57-2.066-7.453-1.726-3.295.68-8.473.236-5.675-.314zm2.433 4.263c0 .837 1.046 2.798 6.746 2.746 5.701-.053 6.303-2.432 5.1-3.374-.576-.34-2.798.628-4.786.628-4.419 0-7.06-2.641-7.06 0z" fill="#FFCA9E"/><path fill-rule="evenodd" clip-rule="evenodd" d="M263.854 256.061c-.863-.785-1.805-4.08-2.04-8.368-.078-1.674-.131-3.086.418-4.08.654-1.177 2.197-2.772 3.635-2.85 1.439-.079 8.133-.785 8.107.261-.026.471-.157 1.229.261 2.275-1.255.288-1.307.916-1.516 1.622-2.145.261-8.29 2.824-8.525 5.831-.236 3.007 1.098 6.616-.34 5.309z" fill="#FFCA9E"/><path fill-rule="evenodd" clip-rule="evenodd" d="M272.012 236.448c0 .34-.105.628-.288.889a7.528 7.528 0 00-1.098-.078c-.418 0-.863-.026-1.255 0a1.495 1.495 0 01-.262-.811c0-.104 0-.183.027-.288a4.148 4.148 0 011.569-.235c.078 0 .156 0 .209.026.418.053.758.131 1.098.236v.261z" fill="#3A140A"/><path fill-rule="evenodd" clip-rule="evenodd" d="M265.057 272.927c.967 2.955 5.936 14.331 6.249 15.952-.052-2.537-3.817-12.291-6.249-15.952zm25.26 2.014c-1.124 2.903-6.72 13.964-7.139 15.585.209-2.536 4.524-12.081 7.139-15.585z" fill="#6B3B30"/><path fill-rule="evenodd" clip-rule="evenodd" d="M290.318 238.802c0 .261-.079.523-.21.758-.261-.079-1.987-.392-2.327-.418-.131 0-.235 0-.366-.027-.026-.104-.026-.209-.026-.313 0-.288.078-.55.209-.759a5.006 5.006 0 011.543-.026c.392.052.784.209 1.098.392.079.105.079.236.079.393z" fill="#3A140A"/><path fill-rule="evenodd" clip-rule="evenodd" d="M285.166 338.773c-.785 5.23-4.315 28.112-3.792 33.603.523 5.492 7.845 60.982 8.891 68.827-19.743 4.393-60.616 1.83-78.136-5.753-1.569-4.184-.131-11.637 1.176-15.821 1.308-4.184 2.432-23.195 2.955-26.333.523-3.138-.261-18.305-.261-21.181 0-2.877 15.167-18.305 22.489-27.196 7.322-8.891 24.319-38.702 23.012-44.978-1.308-6.276-2.484-20.92-2.484-20.92.915 1.359 7.06 5.36 9.597 6.72 1.621.863 4.471 2.981 6.616 4.498 1.229.863 2.196 1.543 2.562 1.647.314-.052 1.543-.444 3.217-.967 4.942-1.569 13.676-4.55 14.121-5.021.549-.209 1.752-.418 1.726 4.053 0 3.478-2.955 11.192-4.001 14.435-1.046 3.243-6.904 29.157-7.688 34.387z" fill="#E0E0E7"/><path fill-rule="evenodd" clip-rule="evenodd" d="M209.644 452.709c-.784-.654-3.399-2.302-3.608-2.537-.314-.314.706-4.968.653-5.282-.052-.314 3.008 1.569 4.237 2.615 1.229 1.046-1.282 5.204-1.282 5.204z" fill="#303D51"/><path opacity=".2" d="M264.037 351.194c-4.158-7.531-6.407-29.758-1.622-29.157.549.079 2.092 10.173 5.622 15.219-3.085-6.302-5.02-25.653-4.837-28.581 0 0-17.913 25.025-24.45 30.778-6.538 5.753-22.751 19.351-26.621 25.627-3.87 6.276-2.981 53.032-4.367 60.197-1.386 7.165 3.661 9.362 6.014 11.506 2.354 2.145 4.916.576 3.347-1.752-1.569-2.327-2.092-6.485-1.49-5.57.601.916 3.295 4.237 2.615 3.374-.68-.863-2.955-6.852-2.589-9.519.392-2.667 2.197 2.72 3.243 5.727 1.046 3.007-.21-3.609-1.439-9.676-.967-4.707-.941-10.904-.496-13.807.81 9.571 3.478 18.881 8.655 27.039-1.856-3.399-4.184-11.663-4.393-12.709-1.255-6.171-.34-17.651-.392-19.847-.053-2.197-1.386-7.27.837-8.159 2.222-.889 2.693 2.223 3.347 3.896.654 1.674 3.818 1.595 3.164-1.438-.654-3.033.68-4.053 1.674-.941.993 3.111 4.759 8.655 3.347 3.765-1.412-4.89-.34-4.027 1.935 5.047 2.589 10.565 2.85 23.326 10.538 31.798-7.269-8.969-6.982-22.044-9.701-32.739-2.302-9.022-3.635-18.488-7.375-27.039.471-1.203 1.674-1.413 2.328-1.517.915-.131 1.778 4.236 2.928 4.367 1.151.131 1.622-2.066 2.877-1.7 1.36.392 11.82 28.53 20.449 41.186-7.583-12.839-17.076-37.917-17.834-39.617-1.046-2.353-4.707-12.16-3.53-13.598 1.176-1.438 1.961 2.223 3.007 6.93s2.615-2.746 2.484-5.753c-.131-3.007-.131-2.877 1.046.261.262.706 3.583 10.591 6.145 14.749 3.923 6.433 8.656 12.264 13.023 18.383-3.818-6.432-8.342-12.447-12.133-18.906-2.642-4.079-5.649-15.795-6.015-17.494-.654-3.138 0-7.322 1.046-8.368 1.046-1.046.523 2.876 1.831 4.053 1.307 1.177 3.399-13.206 8.158-23.535 1.491-3.19 2.615-5.596 3.557-7.374-.34 8.629.889 17.886 6.067 24.894z" fill="#000"/><path fill-rule="evenodd" clip-rule="evenodd" d="M263.802 234.356c1.176-1.804 2.222-3.661 5.36-3.452 3.138.21 6.538-.13 7.898 2.04.392.654-2.302.262-4.577-.052s-5.099-.523-6.276.392c-1.176.915-2.902 1.804-2.405 1.072zm32.504 3.844c-.732-2.039-1.15-3.556-3.896-4.341-3.033-.863-6.851-2.144-8.028-.209-.523.549 1.517.863 3.818 1.072 2.301.209 5.387 1.02 6.328 2.197.915 1.177 2.066 2.092 1.778 1.281z" fill="#332930"/><path fill-rule="evenodd" clip-rule="evenodd" d="M277.425 243.613c-.837.236-2.719 1.517-2.066 2.04.654.523 2.066-2.04 2.066-2.04zm2.929.314c.784.235 2.51 1.464 1.909 1.987-.601.523-1.909-1.987-1.909-1.987z" fill="#26140B"/><path opacity=".7" fill-rule="evenodd" clip-rule="evenodd" d="M274.889 238.2c-.209.262-.471.236-.811.026.079-.13.157-.235.183-.392.445.366.889.026.628.366zm10.643 1.256c-.34.13-.628.104-.758-.209-.157-.367.157.026.627-.184.026.131.053.288.131.393z" fill="#B13F43"/><path d="M270.496 237.233a.628.628 0 10-.001-1.255.628.628 0 00.001 1.255zm18.305 2.092a.628.628 0 100-1.256.628.628 0 000 1.256z" fill="#000"/><path d="M287.807 256.296s-.262 1.778-5.806.915c-5.543-.863-9.1-.549-10.486-.915-1.386-.366-3.452-1.7-3.687-2.223.811-.758 3.635-3.294 5.91-3.111 2.275.183 4.079.679 5.073.47.994-.209 4.707.131 5.518.942" fill="#591311"/><path fill-rule="evenodd" clip-rule="evenodd" d="M270.338 252.818c3.897-2.562 10.539-2.824 15.246 1.595.052.733-.052 1.046-.837 1.386-5.047-2.693-11.14-1.935-12.421-1.412-1.229.523-1.988-1.569-1.988-1.569z" fill="#EA9188"/><path fill-rule="evenodd" clip-rule="evenodd" d="M302.451 254.884c-1.203 2.615-4.132 10.643-4.367 12.055-.236 1.412-3.086 4.577-10.669 3.923 5.936-.419 7.4-1.125 9.414-3.347 1.699-1.909 1.725-5.963 5.622-12.631z" fill="#6B3B30"/><path fill-rule="evenodd" clip-rule="evenodd" d="M271.149 254.832c-.052-.393-.078-.994.105-1.203.261-.314.758-.131.915.104-.026-.366-.157-.81.445-1.019.497-.157.837-.053 1.124.235.131-.366.288-.706.994-.732a.98.98 0 01.889.444c.261-.497.758-.601 1.229-.575.471.026.968.314 1.098.732.236-.471.994-.523 1.282-.497.993.157 1.229.68 1.255 1.177.314-.497.915-.575 1.49-.366.471.183.654.968.706 1.229.21-.157.497-.549.942-.314.68.34.549 1.125.497 1.36.104-.34.81-.889.967.052.053.314-.052 1.412-.47 1.229-.419-.183-.916-.497-.916-.653-.183.13-1.49-.236-1.359-.811-.157.392-.733.235-1.256.105-1.02-.288-.81-.942-.81-.942-.314.915-2.249.497-2.485-.078-.235.575-2.039.366-2.222-.079-.288.471-1.491.366-1.622-.052-.13.968-1.307 1.02-1.621.732-.157.34-.994.994-1.177-.078z" fill="#F4F2E9"/><path fill-rule="evenodd" clip-rule="evenodd" d="M272.379 256.741c-.288.026.183-.785.313-.942.21-.235.602-.104.733.053-.027-.262-.131-.576.34-.706.392-.105.653-.027.889.156.104-.261.235-.47.784-.523.183 0 .497.053.706.314.209-.34.602-.418.968-.418s.784.209.863.497c.183-.314.784-.366 1.02-.34.784.104.967.47 1.019.81.236-.34.733-.418 1.177-.261.366.131.523.68.575.863.157-.105.393-.392.759-.236a.81.81 0 01.523.89c.078-.236.654-.314.732 0 .052.209 0 .784-.34.732-.34-.053-.811-.157-.811-.288-.13.079-1.176-.157-1.098-.549-.183.157-.575.078-.967-.026-.576-.157-.654-.523-.654-.523-.236.627-1.778.366-1.961-.052-.183.392-1.596.261-1.752-.053-.21.314-1.177.262-1.282-.026-.052.34-1.02.706-1.281.523-.419.105-.889.052-1.255.105z" fill="#C4B2A1"/><path d="M218.274 405.586l-2.955 20.397-1.386 14.121-3.739 8.368s-3.74-1.569-3.661-2.431c.078-.863.444-10.644.444-11.951 0-1.308.523-4.001.34-4.707-.863.863-6.093 4.367-6.093 4.367l-2.51 1.229c-.471-5.282-2.197-10.46-3.687-12.84-2.615-4.184 1.909-12.552 3.844-17.259 1.7-4.157 1.517-12.996 2.04-19.168l1.464-1.935 15.507-11.584.392 33.393z" fill="#444"/><path d="M212.207 433.75c0 1.386.052 6.721-1.203 10.905-2.667 8.289-10.957 22.149-10.695 30.255.261 8.107 1.595 48.116 1.595 48.116h58.576s3.399-13.075 4.445-11.767c1.046 1.307 1.308 10.983 2.354 11.767h59.622c0-3.269 2.484-21.312-.654-29.811-3.138-8.499-32.217-41.395-33.42-46.625-6.459-1.229-52.116-2.275-63.466-4.707-11.349-2.485-17.154-8.133-17.154-8.133z" fill="#3C4D68"/><path d="M286.892 450.251c2.772 13.048 10.8 48.429 23.692 49.475 4.707.34 13.964-3.974 15.925-5.753-6.328-8.551-27.588-49.685-27.588-49.685l-12.029 5.963z" fill="#2D3A4C"/><path d="M224.68 436.443c3.191.576 18.776 3.661 25.889 4.498 7.113.837 33.603.209 38.963-.654.21 1.177 1.517 9.467 1.517 9.467s-10.591 1.307-17.05 1.307c-15.637 0-21.966-.994-28.555-2.144-6.59-1.151-30.073-5.178-33.525-6.93-.314-.994.131-7.583.131-8.054 1.987.549 12.63 2.51 12.63 2.51z" fill="#161718"/><path fill-rule="evenodd" clip-rule="evenodd" d="M262.807 315.107c-3.138 4.707-12.368 23.718-13.598 27.196-1.229 3.478-.862 7.662-4.523 9.754-3.661 2.092-41.762 31.825-42.808 34.701-1.046 2.877-9.937 12.552-11.506 20.397-1.569 7.845-7.322 31.903-7.584 34.257 2.04.471 3.4-.471 4.394-.575.993-.105 4.445-2.615 5.883-4.394 1.439-1.778 1.046-1.699 2.825-1.83 1.778-.131 4.053-1.255 4.837-2.04.785-.784 3.531-1.36 3.923-2.406.314-.575 2.013-.784 2.719-.836.027 1.412-.235 3.451-.235 3.451s-1.386-.496-4.707 1.752c-3.321 2.276-8.368 3.217-10.983 5.23-2.615 2.014-8.891 4.786-12.29 5.309-3.4.523-4.969 2.615-3.4-5.23 1.569-7.845 10.382-36.349 11.768-39.827 1.386-3.477 8.368-23.012 9.414-27.196 1.046-4.184 6.799-22.828 9.231-27.196 2.432-4.367 9.597-30.857 8.028-36.949-5.047-6.46-10.591-15.246-11.506-19.561-.916-4.314-2.354-8.498-3.531-11.898-1.176-3.399-7.322-18.174-7.322-23.404s-.784-7.584-2.092-10.591c-1.307-3.007-3.007-10.983-2.092-16.736.785-4.916 1.569-15.219 2.092-19.639.105-.758.183-1.333.262-1.673.654-6.276 5.23-24.189 5.099-27.719-.131-3.53-1.961-7.976-.131-7.714 1.779.261 3.897.13 5.936-.105.079 0 .157-.026.21-.026 2.092-.262 19.743 2.484 22.227 9.283-1.046 7.061-3.007 10.591-3.399 15.298-.393 4.707-3.923 19.874-3.138 23.404 3.138 17.076 10.198 27.797 10.198 30.412.445 4.446 1.909 6.093 2.615 8.029.706 1.908 4.969 16.03 6.015 14.827 1.046-1.229 6.459-8.368 11.323-4.89 1.569.706 10.198 6.982 12.081 13.075 1.883 6.171 10.408 21.599 10.931 23.352.496 1.725-4.028 8.001-7.166 12.708z" fill="#3C4D68"/><path fill-rule="evenodd" clip-rule="evenodd" d="M307.315 267.253c0 .967.209 3.713-.262 3.713-.47 0-7.949.837-8.838.942-.863.078-1.098-.916-1.151-1.962-.052-1.046 0-12.316 0-13.101 0-.784-.34-1.621 1.072-1.621 1.386 0 9.231.314 9.231.314l-.052 11.715z" fill="#363837"/><path d="M279.858 250.988c-1.125.13-2.04.052-2.825-.21-5.57-1.438-7.452 1.831-10.146 3.112 0 0 1.099 3.243 7.322 2.981 1.961-.078 5.152-.026 7.714.68 2.563.706 5.335.079 6.799-1.203-1.542-1.229-3.399-6.066-8.864-5.36zm.967 5.57c-1.857-.497-4.158-.445-5.57-.393-4.498.183-6.903-1.83-6.903-1.83.47-.366 4.184-3.844 8.917-2.432.575.183 1.072.026 1.883-.079 3.922-.496 7.871 3.792 8.263 4.368-1.098.915-4.733.862-6.59.366z" fill="#CC715C"/><path d="M269.92 236.893a.21.21 0 100-.42.21.21 0 000 .42zm18.305 1.83a.21.21 0 10.002-.418.21.21 0 00-.002.418z" fill="#fff"/><path fill-rule="evenodd" clip-rule="evenodd" d="M266.861 238.802c1.438-1.177 4.288-1.622 6.014-.288.366.366-.052.471-1.02.262-1.621-.34-2.798-.419-4.994.026zm19.429 1.438c.942-.157 4.184-.994 6.224 1.883.523.601.157.418-1.36-.209-1.072-.471-2.405-.942-3.922-1.099-1.281-.183-1.935-.418-.942-.575z" fill="#FFCA9E"/><path d="M233.964 438.013c-.34.078-.445 10.669-.602 12.107 0 .654 1.229.601 3.008.523.13-1.046.052-11.951.732-12.029.392-.052-1.151-1.046-3.138-.601z" fill="#3C4D68"/><path d="M276.667 450.617l-1.621.052-.078-8.446 1.699-.027v-1.307s-15.611.183-17.076.183c-1.49 0-1.49-.078-1.49.837v8.943s-.445 1.098 1.909 1.177c2.51.105 9.832.131 16.71-.157l-.053-1.255z" fill="#999790"/><path d="M277.975 441.02v10.59l2.876-.235v-10.486l-2.876.131z" fill="#AFAEAA"/><path d="M271.96 444.288h-10.721v4.969h10.721v-4.969z" fill="#BFB299"/><path fill-rule="evenodd" clip-rule="evenodd" d="M265.318 239.325c.941.575 6.04.967 8.106.47-1.516.733-5.465 1.413-8.106-.47zm27.666 3.948c-1.046.21-5.779-1.15-7.479-2.275 1.099 1.177 4.446 3.086 7.479 2.275z" fill="#C98655"/><path d="M274.549 247.039c-1.726 0-1.307-2.327-.288-3.556-.496 1.464-1.124 2.641.288 3.556zm8.76.523c1.726 0 1.308-2.327.288-3.556.47 1.464 1.098 2.641-.288 3.556z" fill="#6B3B30"/><path fill-rule="evenodd" clip-rule="evenodd" d="M257.761 248.608c.183 2.876-.157 10.878-.393 12.29-.34 2.014 4.394 8.395 8.813 8.708-3.086-1.072-7.034-4.628-8.107-7.426-.941-2.406.89-5.962-.313-13.572zm-.262 3.399c-.261-.366-1.281.131-1.621.759-.314.627-1.255 3.112 0 3.19 1.621.105.235-1.438.497-2.223.366-1.255 1.334-1.412 1.124-1.726zm-1.255-4.628c-.523-.209-.81-.209-1.203.183-.444.445-.627 1.648-.287 2.667.34.994.418 1.596.418 1.857.157-.706.078-1.935-.052-2.432-.131-.497-.157-1.804.34-1.752.444.052.784-.523.784-.523z" fill="#6B3B30"/><path fill-rule="evenodd" clip-rule="evenodd" d="M305.694 226.825c.235-3.321.392-5.884.418-6.328-.052.444-.68 1.804-.758 1.961.444-1.386.078-3.766.078-3.766-.078.157-.34.628-.549.994-.026.052-.052.105-.079.131a.77.77 0 00.105-.262c.131-.392.209-.863.262-1.229.052-.392.052-.68.052-.68l-.419.497c.21-.314-.392-2.353-.392-2.353.053.261-.68 1.464-.68 1.464.236-1.543-.13-3.059-.13-3.059-.21.392-.863 1.098-.863 1.098.183-.968-1.229-2.589-1.308-2.667.288.575-.366 1.412-.366 1.412-.183-.863-1.543-2.903-2.066-3.348.183.262-.104.576-.078 1.256-.314-.471-1.439-1.622-1.909-2.694.052.262-.105.575-.392 1.569-.497-1.307-1.308-2.144-1.308-2.144s.026.784-.418 1.386l-.079.078c-.497.602-.837-1.595-1.883-2.902-.052.706-.261.993-.418 1.516-.183-.497-.575-1.516-1.098-2.17-.209.863-.497.889-.733.601-.13-.157-.261-.392-.392-.653-.314-.733-.523-1.36-1.647-2.563.471 2.013.392 3.373-1.726.209-.079 2.406-1.098-.105-2.694-1.098.576.915.393 2.118-.026 1.961-.758-.784-1.098-1.961-2.066-2.85.576 2.275.367 3.425-.052 3.295-.758-.236-.654-1.386-.575-3.792-.863 1.569-1.255 2.536-1.386 3.739-.314-.653-.942-1.49-1.046-2.981 0 0-1.621 1.909-1.517 3.138 0 0-.758.026-.627-2.275 0 0-1.308 1.909-1.386 3.007 0 0-.837-.523-1.046-2.196 0 0-.733.889-.863 2.301-.34 1.281-1.595.654-1.412-1.098 0 0-1.491 3.478-2.642 2.745-.549-.34-.209-1.778-.313-2.536 0 0-1.491 3.818-2.092 2.955-.549-.811-.314-1.203-.21-1.831 0 0-1.699 1.595-1.647 2.981.052 1.386-2.249-.313-2.066-1.412-.052.157-1.072 3.348-.68 4.367a3.045 3.045 0 01-.287-.34c-.262-.366-.628-1.046-.863-2.118 0 0-.759 1.412-.576 2.589.157 1.02-1.281-.078-1.542-1.02 0 0-.288 3.897-.131 4.577 0 0-.497-1.256-.837-2.354 0 0-.785 3.4-.183 3.923 0 0-.602-.053-.994-1.099 0 0-.183 3.086.602 3.53-.628-.366-.733-.523-1.099-1.229.027.628.733 2.302.994 2.982-.314-.576-1.151-1.543-1.229-1.622.471.654.601 2.641.601 3.06-.026-.34-.287-.811-.575-1.125.236.654.392 3.452.052 4.263a41.65 41.65 0 00-1.15 4.498c-.366 1.908-.575 3.844-.419 5.334.262 2.746 1.177 7.191.654 10.329.576.34 1.438 1.805 2.014 4.211.078.339.157.679.209 1.046a5.25 5.25 0 00.235-.863c.393-2.249-.627-4.917.419-7.793 1.176-3.269.784-7.061 2.222-8.63 1.203-1.307.68-3.111.707-4.471 0-.262.026-.497.078-.732.418-1.308.994-2.511 1.726-3.557 3.164-4.55 9.179-6.72 17.494-6.93 7.322-.183 11.558 2.642 15.952 5.806 2.536 1.83 4.602 5.177 3.347 9.048-.523 1.621.863 2.876 1.36 7.505.287 2.641-1.543 3.922-1.831 10.643 1.098-.21 4.132-.026 4.446 0h.026s.026-.053.052-.131c0-.026.026-.052.026-.079v-.052c.445-1.124 2.145-5.622 2.511-9.309 1.072-10.277-1.099-12.84-.889-15.664z" fill="#5E423B"/><path d="M304.125 251.72s0 .026 0 0c0 .026 0 .026-.027.026-.026.026-.026.052-.026.078-.026.053-.052.079-.078.131-.314-.026-3.347-.209-4.446 0 .288-6.694 2.092-7.976 1.831-10.643-.471-4.629-1.883-5.884-1.36-7.505 1.255-3.87-.811-7.191-3.347-9.048-4.393-3.19-8.63-6.014-15.952-5.805-8.289.209-14.33 2.379-17.494 6.929-.994-.287-1.883-.81-2.51-1.699-.523-.706-.994-3.923 0-5.021.209 1.438 1.046 1.961 1.046 1.961s.052-2.746.392-3.661.314-.915.314-.915c.314 2.353 1.072 1.778 1.229 1.961.287-2.144 1.333-4.445 1.072-5.23 0 0 1.752 2.746 1.752 3.609 0 0 .784-2.144.784-2.877 0 0 .733 2.406.707 2.877 0 0 1.752-2.406 1.699-3.007 0 0 .654 3.085.602 3.87 0 0 1.072-1.595 1.072-2.04 0 0 .261.497.34 1.281.497-.784 1.098-1.412 1.255-1.83 0 0 .026 1.177 0 1.7 0 0 .837-3.034 1.334-3.452 0 1.255.68 2.144.941 2.458.157-.575 1.36-2.772 1.961-3.086-.052.811-.366 3.06.34 3.348.732.287 1.282-.733 1.491-1.177.104.889.052 1.203.471 1.621 0 0 .523-3.269 1.412-3.766-.079.785.052 2.563.784 3.191 0 0 1.072-1.988.758-3.191.785 1.883 1.203 2.145 1.23 3.06.287-1.7.784-2.667.209-4.132 1.098 1.622 1.569 2.406 1.569 3.452 0 0 1.176-.392 1.386-1.569 0 0 .444 1.569.261 2.432 0 0 .392-1.255 1.36-1.647-.209 1.307-.131 2.013.34 2.432 0 0 1.752-1.308 1.7-2.275 0 0 .601 2.039.209 2.693 0 0 1.778-1.098 2.013-1.647-.47 1.752-1.229 4.497 0 5.543 1.229 1.072 3.923 1.334 4.969 3.086 1.046 1.752 1.621 3.53 3.216 4.446 1.622.915 2.694 3.216 2.746 4.785.052 1.569-.523 8.368.445 10.46.967 2.092.523 6.014 0 7.793z" fill="#47352E"/><path fill-rule="evenodd" clip-rule="evenodd" d="M299.208 253.393c.654-2.745 1.648-6.328 2.851-5.988 3.399.968 1.83 3.53.627 4.89-2.824 3.217.053 5.884-3.844 5.178l.366-4.08z" fill="#F6B17A"/><path d="M299.836 266.05c.758-.994 3.007-4.733 3.556-5.596.523-.863.209-3.086-.471-3.504-.679-.419-3.399-.654-3.765 1.36-.366 2.013.68 7.74.68 7.74z" fill="#2C2E2C"/><path fill-rule="evenodd" clip-rule="evenodd" d="M299.81 270.47c0 1.229-2.301 1.307-2.301-.131 0-1.778-.183-12.683-.183-13.677 0-.993 2.432-1.752 2.484.863.052 3.086.052 3.321 0 12.945z" fill="#D6D0C1"/><path fill-rule="evenodd" clip-rule="evenodd" d="M302.215 248.033c.55-.079.837 0 1.125.47.314.549.209 1.752-.366 2.641-.576.89-.785 1.465-.863 1.726.026-.732.366-1.882.654-2.327.261-.445.575-1.7.104-1.778-.471-.079-.654-.732-.654-.732z" fill="#6B3B30"/><path d="M327.712 291.52l-7.061 4.053-6.145 3.531c-.288-.68-.549-1.308-.837-1.857-2.38-4.786-4.916-5.753-6.485-6.511-6.485-2.615-6.773-8.63-6.825-10.46-.105-3.557-.523-4.106-1.988-5.021-1.621-.994-1.935-1.622-1.961-3.295 0-.549.262-1.02.732-1.229.209 1.464.732 1.203 1.491 1.098.314-.052 3.242-.366 3.792-.418.784.287 1.569.81 1.725 2.745.053.654.314 1.02.654 1.203.497.288 1.151.157 1.438-.104 1.073-.942 1.988-2.354.733-5.701-.366-.994-.576-3.426-1.046-5.779-.654-3.243-1.517-6.459-1.517-6.511-3.4 1.778-5.335-.366-5.57-1.622-.026-.157-.052-.287-.052-.418-1.648.863-2.877.078-3.321-1.491-.026-.078-.026-.157-.026-.209-.027-.235 0-.444.104-.654.915-2.065 7.636-1.307 9.963-1.307.314 0 .68.052 1.072.131.053 0 .131.026.183.052 2.668.706 6.407 3.164 7.819 3.922 1.648.863 1.491 5.832 1.752 8.552.262 2.693 1.308 3.66 2.014 4.89.706 1.229 2.589 9.675 3.452 13.284.863 3.608 4.236 6.825 5.91 9.126z" fill="#FFCA9E"/><path d="M319.161 294.449c-1.491.706-3.766 1.883-5.492 2.772-2.38-4.786-4.916-5.753-6.485-6.512-6.485-2.615-6.773-8.446-6.825-10.277-.105-3.556-.523-4.262-1.988-5.177-1.621-.994-1.935-1.622-1.961-3.295 0-.549.262-1.02.732-1.229.236 1.229.733 1.203 1.491 1.098.314-.052 3.242-.366 3.792-.418.784.287 1.569.81 1.726 2.745.13 1.622 1.621 1.543 2.092 1.125 1.072-.942 2.118-2.327.862-5.675-.549-1.438-1.202-3.19-1.202-5.805-.654-1.647-1.308-3.609-1.465-6.642.602.575 2.406 1.726 3.086 1.909.026 4.811.837 7.793 1.36 9.388.078.758-.314 2.902-.288 5.334.026 2.903.628 5.596.392 7.793-.235 2.327.392 6.355 5.256 8.237 2.249 1.282 4.394 3.583 4.917 4.629z" fill="#F6B17A"/><path d="M318.637 307.655c1.439 3.399 11.768 13.336 15.168 16.213 3.399 2.876-3.635-1.308-5.806-2.354-2.17-1.046-5.178.392-6.877-1.83-1.7-2.223-7.715-8.656-7.584-12.029 2.354.653 5.099 0 5.099 0zm5.492 33.001c-.052 4.262-.314 6.197 2.563 10.12 2.876 3.922 9.754 15.455 11.166 16.161-3.792-.55-14.043-7.009-15.952-8.211-.784-5.309-1.124-13.154-.34-15.612.785-2.458 2.772-15.089 2.746-9.676-.235 3.295-.183 7.218-.183 7.218z" fill="#2D3A4C"/><path fill-rule="evenodd" clip-rule="evenodd" d="M313.329 300.15c-.261-.837-1.151-2.537-1.36-2.825-.392-.523.34-1.098 1.099-1.438.732-.34 11.558-5.962 12.342-7.61.262-.653 2.066 1.308 2.589 2.642.523 1.333-14.67 9.231-14.67 9.231z" fill="#E0E0E7"/><path fill-rule="evenodd" clip-rule="evenodd" d="M296.75 287.676c-.105 2.432.34 3.504-1.229 8.734-1.569 5.23-2.903 6.93-3.556 10.852-.654 3.923-6.799 25.235-7.192 29.288-.392 4.054-4.053 28.635-3.399 35.826.654 7.191 4.968 40.532 6.014 52.3 1.046 11.767 8.63 71.389 26.412 73.22 3.922.523 14.644-4.707 14.644-7.845s-3.06-40.01-4.629-48.378c-1.569-8.368-6.982-36.427-5.57-45.501 1.412-9.074 3.321-32.949 3.661-37.473 7.322 4.89 24.581 15.874 37.473 5.23 4.001-3.321 9.074-6.092 7.662-13.937-1.386-7.845-12.029-24.503-13.781-26.229-.601-1.909-2.275-6.354-4.262-7.923-2.014-1.569-2.955-1.386-4.367-3.661-1.386-2.275-6.799-8.63-7.924-10.199-1.124-1.569-7.583-9.675-8.629-11.323-1.151.732-4.629 2.301-4.446 3.086-1.15-.366-8.734 3.425-12.447 6.642-2.092-1.281-13.049-8.211-14.435-12.709z" fill="#3C4D68"/><path d="M242.62 140.373c-.471 1.778-8.473 5.727-11.114 7.27-2.223 1.281-5.622 9.178-7.008 13.598-.052.183-.105.34-.157.523a19.26 19.26 0 00-.366 1.438l-18.959 1.098c.105-.366.654-2.353 1.36-4.811.209-.732.418-1.491.654-2.275.078-.314.183-.654.287-.968 0 0 .68-2.353.994-3.452a188.58 188.58 0 011.308-4.367c.549-1.673 1.699-4.341 2.065-7.426.131-1.229.419-2.563-.026-3.818-.627-1.778-.157-4.524-.026-4.812a63.785 63.785 0 008.316 2.641c2.144.523 3.975.811 5.177.916 6.146.523 8.735-.837 10.356-1.543 1.569-.654 2.589-2.432 3.582-3.295-2.615-.732-5.099-5.701-4.445-7.584.261-.549.549-.915.837-1.124 1.229-.863 2.824.497 3.792 1.124 1.255.785 4.131 2.563 5.543 4.054 1.412 1.49-1.726 11.035-2.17 12.813z" fill="#F6B17A"/><path d="M240.632 130.279c-.471.471-2.406 3.871-2.615 5.283-.209 1.412-1.203-.079-3.295.026-5.099-.052-12.656 2.746-13.31 7.296-3.452-7.322-8.865-7.087-9.832-10.565 4.916 1.961 12.081 3.478 13.624 3.53 6.171.21 8.786-.889 10.434-1.595.967-2.092 1.595-2.615 2.771-3.295-1.882-.81-4.497-5.596-3.87-7.479.262-.549.549-.915.837-1.124-.392 4.602 3.556 6.93 5.256 7.923zm-16.134 30.936c-.052.183-.105.34-.157.523-2.903-.759-6.825-.968-8.446-1.125-.733-.078-7.322-.863-9.519-1.177.209-.732.418-1.49.654-2.275.784-.052 1.778.314 2.327.497 6.564 2.38 13.18 2.615 15.141 3.557z" fill="#C98655"/><path d="M234.565 275.019c-.13 4.551-2.693 8.682-5.491 12.422.601-4.341 1.83-8.264 2.746-10.879.863-2.51.915-4.498-.314-1.883s-8.054 16.214-8.97 17.783c-.549.967 3.531-11.454 4.733-13.886 2.537-5.099 4.184-9.911 2.171-15.507 1.072 6.041-1.569 10.774-4.184 16.004-.968 1.961-4.969 10.8-5.936 12.866 3.138-8.055.994-17.783 5.151-25.601-3.268 4.105-4.105 9.257-4.707 14.33-.156 1.778-1.229 7.897-4.236 14.827-.523 1.229-2.04 4.968-4.184-2.092-1.255-4.132-1.621 5.491-1.517 9.335.863 2.014 4.551 8.133 4.551 8.133 1.333-4.079 3.373-7.296 5.596-10.277 2.615-2.85 5.256-5.701 7.688-8.734 3.556-4.759 7.688-10.565 6.903-16.841z" fill="#2D3A4C"/><path opacity=".2" d="M288.905 298.581c-1.804-1.961-11.087-1.988-11.087-1.988l-11.506-2.432 1.908 6.643c2.406 2.405 5.1 4.811 4.943 8.577-.079 1.83 3.504-1.36 4.21-2.694.941-1.83 5.125-5.648 8.446-7.322 1.543 1.439 7.113 6.747 7.218 9.048l.392-1.438a61.267 61.267 0 00-4.524-8.394z" fill="#000"/><path d="M246.725 266.469c2.589 7.426-7.688 10.381-11.506 14.513 2.668-5.361 11.846-7.741 11.506-14.513zm75.704 27.719c-1.281 1.778.157 4.602.916 6.275 1.359 2.955 3.138 5.675 4.864 8.421 2.693 4.288 5.57 8.472 8.472 12.604a104.516 104.516 0 01-9.335-12.055c-1.7-2.563-3.243-5.282-4.394-8.107-.784-1.882-2.196-5.308-.523-7.138zm-10.46 5.491c-.941 4.524 2.72 8.368 4.655 12.081 2.38 4.551 6.119 8.63 7.374 13.677-2.04-4.393-5.857-7.793-8.263-12.003-2.014-4.158-5.805-8.917-3.766-13.755zm5.1 8.76c3.582 6.721 9.074 12.971 16.474 15.429-8.132-1.334-13.885-7.898-16.474-15.429z" fill="#2D3A4C"/><path fill-rule="evenodd" clip-rule="evenodd" d="M199.603 172.956c1.307-3.661 6.197-15.455 7.165-14.958-.183.968 15.925 3.609 18.017 3.347 1.046-.261-1.203 8.421-2.275 10.539-1.648 3.321-1.046 4.105-.706 6.014-8.813 5.413-22.201-4.942-22.201-4.942z" fill="#E0E0E7"/><path d="M322.168 322.299c3.06 4.707 9.728 6.406 14.513 8.76-5.517-.758-12.892-2.563-14.513-8.76zm3.06 10.407c4.393 11.297 8.891 23.718 21.626 27.536-6.198-.863-11.01-3.922-14.644-9.022-3.897-5.439-5.544-12.081-6.982-18.514z" fill="#2D3A4C"/><path d="M323.292 324.704c2.459 7.61 9.911 15.063 17.966 16.396-8.97.471-17.129-7.714-17.966-16.396zm-11.505-24.764c1.987-2.85 5.099-3.634 8.106-4.994 2.85-1.151 5.387-4.08 8.656-3.766-3.034.314-5.178 3.295-7.845 4.524-2.981 1.438-6.407 1.831-8.917 4.236zm-15.037-12.002c1.726 2.51 3.687 4.89 6.093 6.799 2.72 2.17 5.753 3.896 8.708 5.727-3.295-1.256-6.668-2.615-9.362-4.943-2.484-2.118-4.132-4.628-5.439-7.583zm15.22 22.279c-3.243 9.545-8.656 17.782-13.912 26.333a243.908 243.908 0 00-8.525 15.063c-2.144 4.158-4.498 8.054-7.374 11.715 2.405-3.713 4.288-7.61 6.119-11.611 2.432-5.308 5.047-10.434 8.08-15.402 5.439-8.525 11.454-16.788 15.612-26.098zm-54.393-31.327c2.981 5.36 3.269 10.983 1.465 16.814-1.779 5.779-4.681 11.166-6.564 16.893a110.184 110.184 0 00-4.289 18.305c-.444 3.086-.287 5.988-.052 9.1.183 2.537.497 5.309-.34 7.767.628-2.485.105-5.23-.288-7.715-.47-3.007-.81-5.805-.496-8.812.653-6.407 1.778-12.84 3.896-18.933 3.792-10.852 12.029-21.652 6.668-33.419zm-58.052-108.314c-1.831 3.923 8.158 6.172 10.355 6.799 2.301.628 4.681 1.151 7.06 1.36 1.413.131 3.897.523 4.891-.837.261.183-1.413 1.177-1.569 1.256-1.073.418-2.223.549-3.348.575-2.745.078-5.465-.366-8.106-1.046-2.432-.732-4.864-1.621-6.956-3.06-.994-.68-1.778-1.569-2.484-2.562-.549-.785-.471-2.668.157-2.485z" fill="#2D3A4C"/><path fill-rule="evenodd" clip-rule="evenodd" d="M281.452 294.71c-3.478-.863-6.956-1.046-8.263-.836-1.177-.863-3.007-2.145-3.373-2.799-1.595.393-3.138 2.302-3.583 3.165 2.223 3.451 5.282 6.877 7.165 8.263-1.307 2.563-2.563 5.073-3.609 11.088-.47 2.745-2.562 15.899-3.347 21.495-.784 5.596-6.616 49.371-8.185 60.014-1.569 10.643-4.367 27.719-4.524 28.948 2.615 2.955 6.067 7.845 6.146 8.761.13.261 6.459-6.198 7.112-6.852.654-.654 1.7-14.905 2.223-17.651.523-2.746 3.007-22.175 3.661-36.479.549-12.212 2.667-23.091 3.4-30.988.706-7.453 3.138-25.758 1.778-37.578 1.046-1.49 1.909-3.478 5.936-5.648 1.046.654 4.393.915 4.916.915-.784-1.569-2.066-4.001-4.655-6.067-.863.811-2.798 2.249-2.798 2.249z" fill="#262930"/><path d="M216.261 218.353c1.281 6.903-3.452 12.525-8.107 16.997 3.034-5.387 7.427-10.643 8.107-16.997zm42.702 61.374c4.55 7.217 7.532 15.14 11.036 22.907-4.603-7.191-7.61-15.141-11.036-22.907zm-10.826 66.917c1.569-8.446 5.126-16.814 9.022-24.424 1.883-3.661 3.818-7.4 6.485-10.538 2.38-2.798 4.603-5.544 6.355-8.76-1.334 3.295-3.06 6.223-5.23 9.074-2.537 3.321-4.42 7.191-6.224 10.93-3.74 7.662-7.871 15.533-10.408 23.718zm-65.819 96.415c4.602-19.246 5.387-40.637 18.488-56.588 6.904-8.264 16.187-14.226 24.738-20.58a357.655 357.655 0 0012.316-9.467c1.753-1.412 3.478-2.615 5.466-3.661 1.647-.862 3.399-1.856 3.818-3.817-.314 1.804-1.778 2.902-3.269 3.791-1.883 1.151-3.556 2.275-5.23 3.74-3.87 3.425-7.845 6.694-11.898 9.884-8.316 6.486-17.495 12.5-24.346 20.607-13.18 15.69-14.565 37.133-20.083 56.091zm114.014-148.61c-2.641 11.297-5.492 22.541-8.159 33.838-2.746 11.637-5.596 23.483-6.276 35.459-.288-12.002 1.804-24.214 4.759-35.825 2.851-11.271 6.146-22.384 9.676-33.472zm-14.958 77.927c3.216 19.926 4.942 39.983 7.74 59.962 1.622 11.663 3.609 23.3 6.669 34.701a285.883 285.883 0 004.602 15.324c1.569 4.811 3.661 9.545 7.688 12.813.994.811 2.066 1.439 3.164 2.04-9.283-4.733-11.819-14.879-14.853-24.084-3.609-10.905-5.962-22.201-7.766-33.498-3.4-21.417-4.42-43.174-6.93-64.695l-.314-2.563zm46.913 118.381c-2.615 4.785-11.035 10.329-16.396 6.642 2.772.863 6.224-.471 8.682-1.726 2.693-1.151 5.57-2.85 7.714-4.916zm-64.695-38.885c.915 14.566.105 29.262 2.876 43.671-4.68-14.252-3.844-28.922-2.876-43.671zm9.414 3.399c.811 6.8-.68 14.095 1.569 20.659-4.184-6.119-2.589-13.807-1.569-20.659z" fill="#2D3A4C"/><path d="M237.05 129.704s.052.078.183.209c.026.026.052.079.104.105.027.026.079.078.131.104.079.079.183.157.314.236.209.183.523.287.837.392.314.104.68.157 1.072.209.366.052.758.078 1.124.078.367.027.706.053.994.079.575.078.968.157.968.157s-.393.026-.968.131c-.288.026-.627.052-.994.078-.366 0-.758 0-1.176-.026a5.257 5.257 0 01-1.151-.288c-.34-.183-.654-.366-.863-.601-.104-.105-.183-.236-.261-.34-.027-.052-.079-.105-.105-.157a.443.443 0 01-.052-.131l-.157-.235z" fill="#6B3B30"/><path d="M235.376 135.588s.026-.366.105-.916a7.95 7.95 0 01.261-.889c.131-.313.288-.653.445-.967.209-.314.418-.628.627-.889.105-.131.236-.236.366-.34.131-.105.236-.209.366-.262.236-.13.471-.235.628-.261.157-.053.235-.053.235-.053s-.078.053-.209.131c-.131.079-.288.236-.471.419-.104.078-.183.209-.287.313-.079.131-.183.236-.262.367-.209.261-.366.549-.549.862-.183.288-.34.602-.497.89-.157.287-.287.575-.392.81a8.133 8.133 0 00-.366.785z" fill="#6B3B30"/><path d="M259.173 488.22c-3.478 9.99-.68 22.202-8.237 30.596 5.753-9.231 2.928-21.103 8.237-30.596zm31.354-69.899c2.066-.941 4.21-1.516 6.459-1.908-1.831 1.595-4.053 2.17-6.459 1.908zm-4.969-38.702c2.066-.941 4.21-1.516 6.459-1.909-1.83 1.596-4.053 2.171-6.459 1.909zm-72.174 69.9c.575 6.171-.444 12.29-2.223 18.174-1.961 5.831-4.68 11.61-9.544 15.559 4.001-4.419 6.328-10.408 8.054-16.03 1.883-5.648 3.347-11.741 3.713-17.703zm21.469-93.252a2.248 2.248 0 10.001-4.497 2.248 2.248 0 00-.001 4.497zm101.305-40.218a1.7 1.7 0 100-3.4 1.7 1.7 0 000 3.4zm-2.197-3.74a1.596 1.596 0 100-3.191 1.596 1.596 0 000 3.191zm-2.091-3.138a1.595 1.595 0 100-3.19 1.595 1.595 0 000 3.19zm-2.092-3.399a1.595 1.595 0 100-3.19 1.595 1.595 0 000 3.19zM205.33 379.515a2.222 2.222 0 100-4.445 2.222 2.222 0 000 4.445z" fill="#2D3A4C"/><path d="M260.716 234.696c-1.439 1.569-1.046 5.361-2.223 8.63-1.046 2.876-.026 5.543-.419 7.792-.13-.026-.261-.104-.444-.183-.549-2.405-1.438-3.87-2.014-4.21.523-3.138-.392-7.583-.653-10.329-.131-1.491.052-3.426.418-5.335.575 1.308 1.177 2.328 1.778 1.256.915-1.596 1.935-4.08 2.955-4.603-.34 1.569-1.203 3.19.497 2.877.34-.053.575-.183.758-.34.026 1.333.549 3.138-.653 4.445z" fill="#47352E"/><path d="M298.894 260.977h-.784v5.23h.784v-5.23z" fill="#2C2E2C"/><path fill-rule="evenodd" clip-rule="evenodd" d="M305.223 217.62s0 .288-.052.68c-.105.471-.184.889-.262 1.229 0 .052-.026.078-.026.131a44.136 44.136 0 00-.288 1.412c-.052-.628-.706-1.961-.706-1.961.209.732-.366 2.955-.366 2.955 0-.419-.784-2.119-.784-2.119.104.628 0 3.086 0 3.086-.053-.235-.759-1.438-.759-1.438.053.392.079 1.673.079 1.673-.105-.235-.497-.679-.497-.679-.236.496 0 1.987 0 1.987-.419-.131-.759-.68-.759-.68-.052.418.497 2.171.497 2.171a3.235 3.235 0 01-.81-.811c-.131.523.34 1.569.549 2.223-.732-.523-1.517-2.145-2.04-3.609-.523-1.464-1.883-1.543-3.713-2.275-1.805-.732-1.857-1.621-1.857-1.621.183.078.471.104.471.104-.497-.575-.497-1.909-.497-1.909.183.209.968.471.968.471-.654-.602-1.099-2.327-1.125-2.432.131.445 1.308.392 1.308.392-.576-.863-1.308-2.615-1.308-2.615.209.053.994 0 .994 0-.654-1.333-.68-2.144-.68-2.249.026.523 1.229 1.125 1.334.419.052-.288.052-1.151-.027-2.092.445-.602.419-1.386.419-1.386s.81.837 1.307 2.144c.288-.994.445-1.307.393-1.569.47 1.098 1.595 2.223 1.909 2.694-.027-.68.261-.994.078-1.256.523.445 1.883 2.458 2.066 3.348 0 0 .654-.837.366-1.413.078.105 1.49 1.7 1.307 2.668 0 0 .654-.706.863-1.099 0 0 .366 1.517.131 3.06 0 0 .732-1.203.68-1.464 0 0 .575 2.013.392 2.353l.445-.523zm-14.539-10.433a2.2 2.2 0 01-.602.47c-.104-.627-1.046-1.36-1.046-1.36l-.261.759c-.21-.549-1.465-1.438-1.465-1.438.105.287-.523 1.412-.523 1.412-.157-.759-.81-1.726-.81-1.726l-.419 1.569c-.131-.497-.732-1.203-.732-1.203-.026.81-.811 1.464-.811 1.464.026-.314-.993-1.464-.993-1.464-.262.68-.889 1.36-.889 1.36-.027-.497-1.203-1.36-1.203-1.36-.183.366-.157 1.543-.157 1.543-.366-.262-.968-1.151-1.046-1.099-.053.027-.314 1.543-.314 1.543a3.344 3.344 0 01-1.203-1.543c-.392.471-.628 2.119-.628 2.119-.601-.367-1.542-1.465-1.542-1.465-.288.314-.654 2.667-.654 2.667-.837-.653-1.386-1.987-1.386-1.987-.602.68-.837 2.772-.837 2.772-.418-.471-1.438-2.249-1.438-2.249-.863 1.046-1.255 2.929-1.255 2.929-.262-.236-1.962-1.621-1.962-1.621-.732.836-.732 2.092-.732 2.092-.34-.445-1.36-1.569-1.36-1.569-.418.47-1.124 2.458-1.124 2.458-.863-.759-1.648-1.151-1.648-1.151-.026.706-.627 2.667-.627 2.667-.131-.13-.445-.732-.732-1.464.157.235.261.34.287.34-.392-.994.628-4.184.68-4.367-.183 1.098 2.118 2.798 2.066 1.412-.052-1.386 1.648-2.981 1.648-2.981-.105.627-.34 1.02.209 1.83.575.863 2.092-2.955 2.092-2.955.104.759-.236 2.197.314 2.537 1.15.758 2.641-2.746 2.641-2.746-.183 1.752 1.072 2.38 1.412 1.098.131-1.412.863-2.301.863-2.301.209 1.7 1.046 2.197 1.046 2.197.078-1.098 1.386-3.007 1.386-3.007-.131 2.301.627 2.275.627 2.275-.104-1.256 1.517-3.138 1.517-3.138.105 1.49.732 2.301 1.046 2.981.131-1.229.523-2.171 1.386-3.74-.105 2.406-.209 3.557.575 3.792.419.131.628-1.02.053-3.295.993.889 1.307 2.092 2.065 2.851.393.156.602-1.046.027-1.962 1.595.994 2.614 3.531 2.693 1.099 2.118 3.19 2.197 1.804 1.726-.21 1.098 1.177 1.307 1.805 1.647 2.563.131.209.262.445.393.602z" fill="#775950"/><path d="M238.723 124.709c.262-.34.471-.941.079-1.333-.392-.393-1.569-1.151-1.857-1.203-.34-.079-.601.078-1.072.758-.471.68-.575 1.203-.105 1.464.471.262 1.308.654 1.7.785.392.157.706.261 1.255-.471zm60.564 126.775c.261 0 .235.994 0 1.046-.236.053-2.171.445-2.485.445-.313 0-.836-.654-.575-.811.262-.157 1.282-.653 3.06-.68zm2.902 2.432c.209 0 .105.994-.078 1.046-.183.053-1.805.288-2.066.288-.262 0-.628-.706-.419-.837.21-.104 1.099-.549 2.563-.497z" fill="#FBDCC7"/><path fill-rule="evenodd" clip-rule="evenodd" d="M197.903 174.028c-.314 1.255-4.576 15.978-5.282 19.743-.759 3.923-1.439 9.99-2.877 13.049.105-.758.183-1.333.262-1.673.653-6.276 5.23-24.189 5.099-27.719-.131-3.531-1.961-7.976-.131-7.715 1.778.262 3.896.131 5.936-.104.288 0-2.092.627-3.007 4.419z" fill="#2D3A4C"/><path d="M221.412 143.302v-.471c0-.104.026-.209.026-.34.079-.497.236-1.229.68-1.987.445-.758 1.177-1.517 2.066-2.171.915-.627 1.961-1.124 3.06-1.516 1.098-.392 2.222-.654 3.294-.863 1.073-.183 2.066-.34 2.929-.419.863-.052 1.595-.026 2.092.079.262.026.445.104.576.131.13.026.209.052.209.052s-.079 0-.209-.026a6.156 6.156 0 00-.576-.079c-.497-.052-1.203 0-2.039.131-.837.131-1.831.314-2.877.575-1.046.236-2.144.523-3.216.916-1.073.366-2.119.836-2.981 1.412-.89.575-1.622 1.255-2.066 1.935a4.872 4.872 0 00-.837 1.856 2.481 2.481 0 01-.079.314c-.026.105-.026.183-.026.236-.026.157-.026.235-.026.235z" fill="#6B3B30"/><path opacity=".4" d="M309.067 277.87c-.994.105-3.059-1.177-4.236-2.51.497.287 1.15.156 1.438-.105 1.072-.941 1.83-2.301.732-5.701-.34-1.072-1.15-3.53-1.046-5.884-1.02-3.033-1.386-5.36-1.569-6.406.471.653 1.7 1.203 3.19 1.804-.104.366-.261 2.04.157 4.524.262 1.151.602 2.746 1.203 4.916.157 1.491-.418 3.243-.392 4.786 0 1.856.497 3.556.523 4.576z" fill="#000"/><path d="M211.423 136.634s.052.104.157.287c.026.053.052.079.078.131.053.052.079.105.131.157l.157.157c.052.052.131.105.183.157.235.235.601.418.994.549.392.157.836.235 1.281.288.444.078.915.13 1.36.183.444.078.837.13 1.203.209.34.078.627.183.836.261.183.079.314.131.314.131s-.104-.026-.314-.052a4.115 4.115 0 00-.836-.026c-.34-.026-.759-.026-1.203-.026-.445-.027-.916-.053-1.386-.131-.471-.105-.942-.209-1.386-.392-.419-.21-.785-.471-1.02-.759-.052-.078-.105-.131-.157-.209-.026-.078-.078-.157-.105-.209a.417.417 0 00-.104-.183c-.026-.053-.026-.105-.052-.157a3.359 3.359 0 01-.131-.366zm11.114 7.845s.078.131.183.366c.13.235.313.549.523.941.209.392.47.837.758 1.282.288.47.628.941.994 1.359.366.445.758.863 1.176 1.177l.314.235c.053.027.105.079.157.105.052.026.105.052.157.105.105.052.209.13.314.183.104.052.209.104.314.13.183.105.366.184.549.236.078.026.157.052.235.104.079.027.131.053.209.053.262.078.393.104.393.104s-.157 0-.419-.026c-.078 0-.131 0-.209-.026-.078-.026-.157-.026-.261-.052-.184-.026-.393-.053-.602-.131-.105-.026-.209-.078-.34-.105-.104-.052-.235-.104-.34-.157-.052-.026-.131-.052-.183-.078-.052-.026-.104-.078-.183-.105-.131-.078-.235-.13-.366-.209a8.116 8.116 0 01-1.308-1.203c-.366-.47-.706-.993-.993-1.464a12.216 12.216 0 01-.628-1.386c-.157-.418-.261-.785-.34-1.02-.052-.287-.104-.418-.104-.418zm76.227 110.98s.052.105.13.288c.105.183.236.418.445.68.183.261.445.549.758.784.314.262.68.471 1.072.576.393.13.811.156 1.203.13.393-.026.759-.13 1.072-.235.314-.105.576-.235.733-.314.183-.104.287-.157.287-.157s-.078.079-.235.209c-.157.131-.366.314-.654.523-.314.184-.706.34-1.15.419a3.254 3.254 0 01-1.412-.079 3.392 3.392 0 01-1.229-.732 3.902 3.902 0 01-.707-.993c-.13-.314-.235-.602-.261-.811-.026-.183-.052-.288-.052-.288zm8.812 3.609v.941c.026.183.052.419.052.654 0 .131 0 .235.026.366.027.131.027.262.053.392.026.262.052.576.104.863.053.288.079.602.131.916l.079.47.078.471.157.941c.078.314.131.602.183.916.026.157.052.287.078.444.027.131.079.288.105.419.078.261.131.523.183.758.052.235.105.445.157.628.052.183.105.339.157.496.078.262.131.419.131.419s-.079-.157-.21-.392c-.078-.131-.156-.288-.235-.445a3.228 3.228 0 01-.288-.601c-.078-.236-.183-.471-.261-.733-.052-.13-.105-.261-.131-.418-.052-.131-.078-.288-.131-.445a44.274 44.274 0 01-.235-.915c-.052-.314-.131-.627-.183-.967l-.078-.471c-.027-.157-.027-.314-.053-.471a11.566 11.566 0 00-.104-.941c0-.314 0-.602-.027-.889v-.419c0-.13 0-.261.027-.392.026-.235.052-.471.052-.654.026-.209.052-.366.078-.497.079-.287.105-.444.105-.444z" fill="#6B3B30"/><path d="M315.971 267.776c-.471-.419-1.229-2.301-1.36-3.06-.523-2.719-.262-7.374-2.72-9.257-2.013-1.543-4.236-3.216-7.531-2.301-1.334.366-7.845 2.432-8.813.706.419 2.667 3.06 1.517 3.269 1.36.105-.445.523-.942 1.308-1.02.784-.078 2.955-.314 3.556-.471.994-.287 2.066-.941 3.452-.444 1.386.497 4.707 2.118 5.204 3.085.81 1.622 1.203 6.12 1.883 8.421.653 2.327 1.752 2.981 1.752 2.981z" fill="#C98655"/><path d="M312.231 256.244s.105.157.261.47c.079.157.157.34.288.549.105.21.209.471.314.733.183.549.34 1.229.471 1.935.13.706.209 1.49.34 2.249.104.758.209 1.516.392 2.196.078.34.183.68.287.968.105.314.21.601.314.889.183.549.392.968.628 1.203.052.052.104.131.157.157.052.052.104.078.13.104a.792.792 0 01.105.079s-.052-.026-.131-.079c-.052-.026-.078-.052-.157-.078-.052-.026-.104-.079-.183-.131-.261-.209-.575-.627-.836-1.15-.131-.262-.262-.55-.393-.863-.13-.314-.261-.654-.392-.994a15.67 15.67 0 01-.471-2.249c-.104-.758-.183-1.543-.261-2.249a16.711 16.711 0 00-.314-1.935c-.052-.288-.131-.523-.183-.758-.078-.21-.131-.419-.183-.576-.105-.287-.183-.47-.183-.47z" fill="#6B3B30"/><path d="M302.268 253.942s.157-.052.445-.13c.287-.079.679-.236 1.176-.419.497-.157 1.073-.366 1.752-.444.157 0 .34-.026.523-.026.183.026.366.026.55.052.183.026.339.078.523.105.183.052.339.104.496.156.654.236 1.282.55 1.857.863.575.34 1.072.654 1.517.916.418.313.758.601.941.863.079.13.157.235.183.287.026.079.052.105.052.105s-.026-.026-.078-.105a1.913 1.913 0 00-.235-.261c-.21-.21-.576-.445-1.02-.654-.445-.235-.994-.497-1.569-.785-.575-.287-1.177-.575-1.831-.784l-.47-.157c-.157-.052-.314-.078-.471-.131-.157-.026-.314-.026-.471-.052h-.47c-.602.026-1.203.157-1.7.288-.497.104-.942.183-1.229.235-.314.078-.471.078-.471.078zm-5.988-1.83s-.053.079-.157.209c-.105.131-.209.34-.314.576a.482.482 0 00-.052.183c0 .026-.027.078-.027.104 0 .026 0 .079-.026.105 0 .078-.026.157-.026.209 0 .078 0 .157.026.235.026.314.157.602.366.863.183.262.471.471.759.602.078.026.157.078.209.104.078.026.157.053.209.053.131.052.288.052.419.078.261.026.496.026.653 0 .157-.026.262-.026.262-.026s-.079.052-.236.105a2.665 2.665 0 01-.679.209c-.157 0-.314.026-.497 0-.079 0-.183-.026-.262-.026-.078-.027-.183-.053-.261-.079a2.344 2.344 0 01-.994-.68 1.932 1.932 0 01-.392-1.176c0-.105.026-.21.026-.288.026-.079.052-.183.078-.262.027-.052.027-.078.053-.13a.203.203 0 00.052-.105c.026-.078.078-.131.105-.209.183-.236.366-.419.496-.497a3.12 3.12 0 01.21-.157z" fill="#6B3B30"/><path d="M299.208 251.511s.837-.079 2.066-.157c.628-.026 1.36-.052 2.119-.052.784.026 1.621.078 2.458.183.836.13 1.647.366 2.379.627l.549.236c.184.078.34.156.497.235l.889.444c.55.288.994.576 1.282.811.157.105.235.209.314.288l.104.104s-.052-.026-.131-.078c-.078-.052-.183-.131-.34-.235-.313-.184-.784-.393-1.359-.628-.288-.105-.602-.235-.942-.366a4.047 4.047 0 01-.497-.209c-.183-.053-.34-.131-.523-.183-.732-.236-1.516-.445-2.327-.55a26.593 26.593 0 00-2.38-.261c-.758-.052-1.49-.079-2.118-.105-1.203-.078-2.04-.104-2.04-.104zm4.603 4.968s.261.183.653.418c.183.131.393.314.602.471.209.183.444.366.68.549.235.183.444.366.68.497.209.157.444.288.653.366.105.053.183.105.262.131l.235.078c.131.027.209.053.209.053s-.078 0-.209.026h-.261c-.105 0-.209 0-.34-.026a3.962 3.962 0 01-.785-.262 6.545 6.545 0 01-.784-.497 15.58 15.58 0 01-.68-.627 8.609 8.609 0 01-.497-.602 23.15 23.15 0 01-.418-.575zm-4.969 18.906l.209.21c.131.13.34.34.55.627a4.9 4.9 0 01.601 1.177c.157.471.262 1.046.314 1.674.078 1.229-.052 2.693.235 4.157.131.733.366 1.491.732 2.171a8.315 8.315 0 001.386 1.909c.523.601 1.177 1.098 1.805 1.595.653.471 1.307.889 1.961 1.281.34.183.654.393.968.55.156.078.313.183.47.261.157.078.314.183.471.235.288.157.628.183.941.21.157 0 .314 0 .471-.027.157-.026.288-.052.445-.104.575-.157 1.046-.445 1.464-.706.418-.288.758-.549 1.02-.785.549-.47.575-.444.052.053-.261.235-.575.549-.967.863-.393.313-.89.627-1.491.862a3.067 3.067 0 01-.471.131c-.157.053-.34.053-.523.053-.34 0-.732-.053-1.072-.184-.183-.052-.34-.156-.497-.235-.157-.078-.34-.157-.497-.235-.339-.157-.679-.34-1.019-.523-.68-.366-1.36-.811-2.04-1.282-.654-.496-1.308-.993-1.883-1.621-.575-.627-1.072-1.307-1.438-2.04a7.511 7.511 0 01-.732-2.327c-.236-1.569-.026-3.007-.079-4.236 0-.602-.052-1.151-.183-1.648a4.978 4.978 0 00-.497-1.176 4.122 4.122 0 00-.497-.654 1.892 1.892 0 01-.209-.236z" fill="#6B3B30"/><path d="M308.832 276.17a10.327 10.327 0 00.34 1.412c.052.288.104.628.13.994.053.732.053 1.569.079 2.458 0 .889 0 1.857.157 2.798.13.942.392 1.883.889 2.72.052.104.104.209.183.314.052.104.131.209.209.287.131.183.261.392.418.549.079.079.157.183.236.262.078.078.183.157.261.235.053.026.079.079.131.105a.575.575 0 01.131.104c.104.079.183.131.287.21.733.523 1.517.889 2.04 1.15.262.131.497.209.628.288.157.052.235.104.235.104l-.235-.078a11.513 11.513 0 01-.654-.235 11.12 11.12 0 01-2.197-1.073c-.104-.078-.209-.13-.313-.209-.053-.026-.105-.078-.157-.104-.053-.026-.105-.079-.131-.105-.105-.078-.183-.157-.288-.235-.104-.079-.183-.183-.261-.262-.209-.183-.314-.366-.497-.575a64.043 64.043 0 01-.235-.314 2.26 2.26 0 00-.21-.314 7.292 7.292 0 01-.967-2.798c-.131-.967-.105-1.935-.105-2.85.052-.915.105-1.752.079-2.458v-.994a26.75 26.75 0 00-.079-.758c-.078-.392-.104-.628-.104-.628zm6.615 12.003s.445-.235 1.125-.575c.34-.157.758-.314 1.176-.497.419-.183.89-.366 1.308-.602a7.862 7.862 0 001.229-.706c.366-.261.68-.549.889-.837.052-.078.105-.13.157-.209a.82.82 0 00.105-.209c.026-.052.078-.131.104-.183l.079-.157c.078-.209.13-.314.13-.314s-.026.131-.052.34c0 .053 0 .131-.026.183a.498.498 0 00-.052.209l-.079.236c-.026.078-.078.157-.131.261-.183.34-.47.706-.836 1.02-.366.314-.811.575-1.282.837-.47.209-.941.392-1.386.549-.444.131-.863.262-1.229.34-.732.183-1.229.314-1.229.314z" fill="#6B3B30"/><path d="M302.294 271.358s.026 0 .105.027c.078.026.183.052.313.104.262.105.654.288.968.706.288.445.418 1.02.575 1.595a4.37 4.37 0 00.759 1.622c.34.497.784.915 1.255 1.255.47.34.967.601 1.386.758.444.183.81.314 1.072.419.261.104.418.157.418.157l-.444-.079c-.288-.052-.68-.105-1.151-.209a5.579 5.579 0 01-1.543-.68c-.523-.34-1.046-.785-1.438-1.334-.392-.549-.628-1.203-.758-1.804-.105-.601-.183-1.151-.393-1.543-.183-.392-.523-.654-.758-.784-.105-.079-.209-.105-.288-.157-.052-.053-.078-.053-.078-.053z" fill="#6B3B30"/><path d="M306.556 268.456s.027.026.053.078a.95.95 0 01.157.236c.13.209.313.496.47.889.157.392.288.837.419 1.36.104.523.157 1.072.157 1.621-.027.549-.131 1.124-.34 1.621-.105.262-.262.471-.419.68-.157.183-.366.34-.549.445a1.916 1.916 0 01-.994.183c-.13 0-.209-.027-.287-.027a.27.27 0 01-.105-.026h.105c.052 0 .157 0 .261-.026.236-.026.549-.131.863-.366.157-.105.288-.261.419-.418.104-.183.209-.393.287-.602a4.56 4.56 0 00.236-1.49c.026-.523 0-1.046-.079-1.543a8.798 8.798 0 00-.235-1.334 7.459 7.459 0 00-.262-.941c-.052-.105-.078-.209-.104-.262-.026-.052-.053-.078-.053-.078zm-2.196-11.323s.183.471.418 1.203c.105.366.183.81.288 1.255.078.471.183.941.314 1.438.104.497.235.968.366 1.386.131.445.287.837.471 1.177.156.34.287.627.392.81.104.184.183.314.183.314s-.079-.104-.236-.261c-.156-.157-.366-.419-.601-.706a9.234 9.234 0 01-.628-1.151c-.183-.444-.34-.941-.47-1.438a15.554 15.554 0 01-.236-1.465c-.052-.47-.104-.915-.13-1.281-.053-.758-.131-1.281-.131-1.281z" fill="#6B3B30"/><path d="M305.955 263.513s0 .131.026.367c.026.235.052.575.131.967.052.392.104.863.235 1.36.105.497.235.994.418 1.49.183.497.419.968.68 1.386.131.21.262.419.419.576.13.183.287.34.418.496.131.157.262.288.366.393.105.13.236.209.314.287.026.027-.288-.052-.418-.157-.131-.104-.314-.183-.471-.313a7.66 7.66 0 01-.497-.445c-.183-.157-.34-.366-.497-.575a8.758 8.758 0 01-.81-1.465 8.84 8.84 0 01-.393-1.595 14.396 14.396 0 01-.078-1.412c.026-.418.052-.758.078-.993.053-.236.079-.367.079-.367z" fill="#6B3B30"/><path d="M308.91 268.377l.078.392c0 .053.026.131.026.21 0 .078 0 .157.027.261 0 .183.026.392.026.602 0 .444-.053.941-.105 1.49a17.364 17.364 0 00-.157 1.674c-.026.287-.052.549-.026.837.026.287 0 .549.052.81.053.523.105 1.02.157 1.465.053.444.053.81.079 1.046.026.261.026.392.026.392s-.026-.131-.105-.392c-.078-.236-.157-.602-.287-1.02-.105-.419-.21-.916-.314-1.465-.052-.261-.052-.575-.079-.863-.026-.287-.026-.601-.026-.889.053-.601.157-1.176.236-1.699.104-.523.209-1.02.261-1.465.052-.209.052-.418.079-.575 0-.079.026-.157.026-.236v-.209c.026-.209.026-.366.026-.366z" fill="#6B3B30"/><path d="M199.682 172.799l1.255-3.19-.863.288-.811.941v1.49l.392.576.027-.105z" fill="#2D3A4C"/></g><defs><clipPath id="clip0"><path fill="#fff" d="M0 0h523v523H0z"/></clipPath></defs></svg>