<svg width="38" height="53" viewBox="0 0 38 53" fill="none" xmlns="http://www.w3.org/2000/svg">
<g clip-path="url(#clip0)">
<path d="M20.3561 28.906L37.4389 11.8176C38.1868 11.0678 38.1868 9.85294 37.4389 9.10122C36.691 8.35139 35.4761 8.35139 34.7282 9.10122L19.0009 24.8342L3.27356 9.10311C2.52562 8.35328 1.31078 8.35328 0.560951 9.10311C-0.186985 9.85294 -0.186985 11.0697 0.560951 11.8195L17.6435 28.9079C18.3837 29.6462 19.6177 29.6462 20.3561 28.906Z" fill="#CD142B"/>
</g>
<g clip-path="url(#clip1)">
<path d="M20.3561 43.906L37.4389 26.8176C38.1868 26.0678 38.1868 24.8529 37.4389 24.1012C36.691 23.3514 35.4761 23.3514 34.7282 24.1012L19.0009 39.8342L3.27356 24.1031C2.52562 23.3533 1.31078 23.3533 0.560951 24.1031C-0.186985 24.8529 -0.186985 26.0697 0.560951 26.8195L17.6435 43.9079C18.3837 44.6462 19.6177 44.6462 20.3561 43.906Z" fill="#CD142B"/>
</g>
<defs>
<clipPath id="clip0">
<rect width="38" height="38" fill="white" transform="translate(0 38) rotate(-90)"/>
</clipPath>
<clipPath id="clip1">
<rect width="38" height="38" fill="white" transform="translate(0 53) rotate(-90)"/>
</clipPath>
</defs>
</svg>
