<svg width="102" height="102" viewBox="0 0 102 102" fill="none" xmlns="http://www.w3.org/2000/svg">
<path d="M6.58057 42.7744H26.3225V62.5164H6.58057V42.7744Z" fill="#CD142B"/>
<path d="M6.58057 70.7422H26.3225V90.4841H6.58057V70.7422Z" fill="#CD142B"/>
<path d="M49.3548 32.9033H6.58057V16.4517H49.3548V32.9033Z" fill="#CD142B"/>
<path d="M72.4907 52.6452C73.4683 52.6452 74.4138 52.9311 75.2284 53.4742L86.718 61.1344C88.0756 62.0374 89.6533 62.5161 91.2815 62.5161H102V59.2258H91.2832C90.3063 59.2258 89.3584 58.9398 88.5439 58.3968L83.9032 55.3025V0H21.3871V9.87097H0V102H62.5161V92.129H83.9032V78.2881C84.0069 78.2632 84.1137 78.2552 84.2173 78.2303L91.8704 76.3176C93.5686 75.8927 95.3157 75.6774 97.0645 75.6774H102V72.3871H97.0645C95.0474 72.3871 93.0303 72.6353 91.0727 73.1245L83.4196 75.0372C79.4859 76.0196 75.2991 75.8598 71.4561 74.5785L68.6839 73.6539C66.1599 72.8128 63.5315 72.3871 60.871 72.3871H46.5152C46.5152 69.6663 48.7299 67.4516 51.4507 67.4516H69.5474C72.269 67.4516 74.4829 65.2369 74.4829 62.5161C74.4829 59.9922 72.5711 57.9293 70.125 57.6385L71.4753 52.6452H72.4907ZM70.4126 77.6993C72.9366 78.542 75.5658 78.9677 78.2255 78.9677C79.024 78.9677 79.82 78.8987 80.6129 78.8215V88.8387H62.5161V83.4574C63.0937 82.7915 63.5411 82.0034 63.7813 81.1118L65.1285 76.1216C65.9759 76.2944 66.8162 76.5 67.6412 76.7763L70.4126 77.6993ZM61.8317 75.7152L60.6059 80.2522C60.287 81.4339 59.2097 82.2581 57.9871 82.2581H57.4537C55.9588 82.2581 54.7426 81.0427 54.7426 79.5469C54.7426 79.3067 54.7739 79.0698 54.8366 78.8392L55.6905 75.6774H60.871C61.1915 75.6774 61.5112 75.7023 61.8317 75.7152ZM52.2813 75.6774L51.6595 77.9789C51.5213 78.489 51.4523 79.0151 51.4523 79.5469C51.4523 81.7713 52.6829 83.6944 54.4847 84.7306L53.9682 86.7935L57.1597 87.592L57.6714 85.5484H57.9871C58.4113 85.5484 58.8225 85.4889 59.2258 85.4038V98.7097H3.29032V13.1613H24.6774V3.29032H80.6129V53.1095L77.0543 50.7365C75.6975 49.8336 74.1198 49.3548 72.4907 49.3548H72.3638L79.2111 24.0211C79.3493 23.511 79.4184 22.9849 79.4184 22.4531C79.4184 19.1435 76.7257 16.4516 73.4169 16.4516H72.8835C70.178 16.4516 67.7954 18.2759 67.0893 20.8882L62.5161 37.8106V9.87097H27.9677V13.1613H59.2258V49.3548H55.8222C54.0317 49.3548 52.3455 49.9485 50.9357 51H34.5484V54.2903H47.4791L44.1888 57.5806H34.5484V60.871H40.9001L38.1512 63.6199C37.1808 64.5886 36.6458 65.8787 36.6458 67.2524C36.6458 70.084 38.9489 72.3871 41.7821 72.3871C42.289 72.3871 42.7774 72.2899 43.2514 72.1485C43.2497 72.2288 43.2265 72.3052 43.2265 72.3871C43.2265 74.2018 44.7021 75.6774 46.5168 75.6774H52.2813ZM64.9541 64.1613H58.8033L65.7502 38.4573L71.3934 40.3378L64.9541 64.1613ZM52.3327 54.0895C53.2525 53.1713 54.5241 52.6452 55.8222 52.6452H58.5069L57.1645 57.6104C55.0832 57.6859 53.132 58.5085 51.6515 59.9889L43.0851 68.5554C42.7413 68.8992 42.2657 69.0968 41.7805 69.0968C40.7619 69.0968 39.9345 68.2694 39.9345 67.2524C39.9345 66.7592 40.1273 66.2965 40.4759 65.9478L52.3327 54.0895ZM53.9778 62.3153C54.5996 61.6935 55.3908 61.2694 56.2351 61.0485L55.3941 64.1613H52.1335L53.9778 62.3153ZM76.0341 23.1624L74.0194 30.6162L68.3762 28.7357L70.2648 21.7478C70.5853 20.5661 71.6617 19.7419 72.8835 19.7419H73.4169C74.9127 19.7419 76.1281 20.9573 76.1281 22.4531C76.1281 22.6933 76.0967 22.9302 76.0341 23.1624ZM67.5175 31.9176L73.1607 33.7981L72.2521 37.1559L66.6089 35.2754L67.5175 31.9176ZM69.5474 60.871C70.4544 60.871 71.1926 61.61 71.1926 62.5161C71.1926 63.4223 70.4544 64.1613 69.5474 64.1613H68.3618L69.2518 60.871H69.5474Z" fill="black"/>
<path d="M13.1611 23.0322H16.4515V26.3225H13.1611V23.0322Z" fill="black"/>
<path d="M19.7417 23.0322H23.032V26.3225H19.7417V23.0322Z" fill="black"/>
<path d="M26.3228 23.0322H29.6131V26.3225H26.3228V23.0322Z" fill="black"/>
<path d="M32.9033 23.0322H36.1936V26.3225H32.9033V23.0322Z" fill="black"/>
<path d="M39.4839 23.0322H42.7742V26.3225H39.4839V23.0322Z" fill="black"/>
<path d="M34.0663 39.0017L31.74 36.6753L16.4515 51.9637L14.3244 49.8366L11.998 52.1629L16.4515 56.6165L34.0663 39.0017Z" fill="black"/>
<path d="M31.74 64.6431L16.4515 79.9315L14.3244 77.8044L11.998 80.1307L16.4515 84.5842L34.0663 66.9694L31.74 64.6431Z" fill="black"/>
<path d="M52.645 90.4839H55.9353V93.7742H52.645V90.4839Z" fill="black"/>
<path d="M31.2583 90.4839H49.3551V93.7742H31.2583V90.4839Z" fill="black"/>
<path d="M34.5483 44.4194H55.9354V47.7098H34.5483V44.4194Z" fill="black"/>
</svg>
