<svg width="19" height="19" viewBox="0 0 19 19" fill="none" xmlns="http://www.w3.org/2000/svg">
<g clip-path="url(#clip0)">
<path d="M18.5839 4.64269L18.6074 4.79616C18.3803 3.99043 17.7672 3.36871 16.9881 3.14242L16.9717 3.13851C15.5067 2.74073 9.61132 2.74073 9.61132 2.74073C9.61132 2.74073 3.73085 2.7329 2.25094 3.13851C1.45696 3.36871 0.843073 3.99043 0.619913 4.77971L0.615997 4.79616C0.0686673 7.65496 0.0647522 11.0901 0.640271 14.1509L0.615997 13.9958C0.843073 14.8016 1.45618 15.4233 2.23528 15.6496L2.25172 15.6535C3.71519 16.0521 9.6121 16.0521 9.6121 16.0521C9.6121 16.0521 15.4918 16.0521 16.9725 15.6535C17.7672 15.4233 18.3811 14.8016 18.6043 14.0123L18.6082 13.9958C18.8572 12.6663 18.9997 11.1363 18.9997 9.57336C18.9997 9.51619 18.9997 9.45825 18.9989 9.40031C18.9997 9.34706 18.9997 9.28364 18.9997 9.22021C18.9997 7.65653 18.8572 6.12651 18.5839 4.64269ZM7.73051 12.2552V6.54464L12.6369 9.40422L7.73051 12.2552Z" fill="white" fill-opacity="0.81"/>
</g>
<defs>
<clipPath id="clip0">
<rect width="18.7925" height="18.7925" fill="white" transform="translate(0.207031)"/>
</clipPath>
</defs>
</svg>
