<svg width="19" height="19" viewBox="0 0 19 19" fill="none" xmlns="http://www.w3.org/2000/svg">
<g clip-path="url(#clip0)">
<path d="M13.809 0H5.19045C2.38547 0 0.103516 2.28195 0.103516 5.08694V13.7056C0.103516 16.5105 2.38547 18.7924 5.19045 18.7924H13.8091C16.614 18.7924 18.8959 16.5105 18.8959 13.7056V5.08694C18.8959 2.28195 16.614 0 13.809 0V0ZM9.49973 14.5346C6.66635 14.5346 4.36132 12.2296 4.36132 9.39621C4.36132 6.56284 6.66635 4.2578 9.49973 4.2578C12.3331 4.2578 14.6381 6.56284 14.6381 9.39621C14.6381 12.2296 12.3331 14.5346 9.49973 14.5346ZM14.761 5.4696C13.9237 5.4696 13.2427 4.78857 13.2427 3.95127C13.2427 3.11396 13.9237 2.43278 14.761 2.43278C15.5983 2.43278 16.2795 3.11396 16.2795 3.95127C16.2795 4.78857 15.5983 5.4696 14.761 5.4696Z" fill="white" fill-opacity="0.81"/>
<path d="M9.49961 5.35938C7.27386 5.35938 5.46289 7.1702 5.46289 9.39609C5.46289 11.6218 7.27386 13.4328 9.49961 13.4328C11.7255 13.4328 13.5363 11.6218 13.5363 9.39609C13.5363 7.1702 11.7255 5.35938 9.49961 5.35938Z" fill="white" fill-opacity="0.81"/>
<path d="M14.7604 3.53467C14.5307 3.53467 14.3438 3.72163 14.3438 3.95132C14.3438 4.181 14.5307 4.36796 14.7604 4.36796C14.9902 4.36796 15.1772 4.18115 15.1772 3.95132C15.1772 3.72149 14.9902 3.53467 14.7604 3.53467Z" fill="white" fill-opacity="0.81"/>
</g>
<defs>
<clipPath id="clip0">
<rect width="18.7925" height="18.7925" fill="white" transform="translate(0.103516)"/>
</clipPath>
</defs>
</svg>
