<svg width="112" height="112" viewBox="0 0 112 112" fill="none" xmlns="http://www.w3.org/2000/svg">
<path d="M92.0551 31.024L92.0263 30.5957L88.4205 30.8252L88.4513 31.2752C88.482 31.7395 88.5161 32.2038 88.5161 32.6788C88.5161 39.1604 86.3106 45.537 82.3057 50.6333L75.7285 59.006C71.5339 64.3458 69.07 70.9159 68.696 77.6775H65.0325V68.645C65.0325 64.7631 66.971 61.5928 69.4258 57.577C73.1018 51.5669 77.6776 44.0829 77.6776 30.7095H74.0646C74.0646 43.0674 69.9623 49.7748 66.344 55.6927C63.701 60.0136 61.4196 63.746 61.4196 68.645V77.6775H50.581V68.645C50.581 63.746 48.2996 60.014 45.6566 55.6908C42.0379 49.7752 37.9356 43.0659 37.9356 30.7095C37.9356 12.2926 52.7122 5.1156 55.991 3.74992C58.4515 4.80681 67.9153 9.44746 72.0521 19.8164L75.4068 18.4795C72.5995 11.4432 67.751 6.81359 63.6737 3.95212C69.4668 4.80643 74.8916 7.37352 79.258 11.4489L81.7238 8.80976C75.6382 3.12892 67.7294 0 59.4522 0H52.5499C34.5305 0 19.8711 14.6594 19.8711 32.6788C19.8711 39.9662 22.3513 47.136 26.855 52.8677L33.4323 61.2404C37.5005 66.4194 39.7421 72.8976 39.7421 79.4836V81.2901V88.516H36.1291V92.129H39.3771L37.1317 95.4981C36.4758 96.4806 36.1291 97.6262 36.1291 98.8075C36.1291 101.313 37.6864 103.455 39.8809 104.337C40.5456 108.665 44.2632 112 48.7741 112H63.2257C67.7362 112 71.4539 108.665 72.1189 104.337C74.3138 103.455 75.8707 101.315 75.8707 98.8075C75.8707 97.6262 75.524 96.481 74.8681 95.4981L72.6227 92.129H75.8711V88.516H72.2581V81.2901V79.4836C72.2581 72.8972 74.5001 66.4194 78.5679 61.2385L85.1452 52.8658C89.6485 47.1356 92.1291 39.9658 92.1291 32.6788C92.1291 32.1204 92.0931 31.5733 92.0551 31.024ZM36.2717 59.006L29.6945 50.6333C25.6896 45.5374 23.4841 39.1604 23.4841 32.6788C23.4841 18.0539 34.3518 5.95246 48.4274 3.93998C42.291 8.25552 34.3226 16.5763 34.3226 30.7099C34.3226 44.0829 38.8984 51.5653 42.5743 57.5774C45.0292 61.5932 46.9677 64.7635 46.9677 68.6454V77.6779H43.3042C42.9306 70.9159 40.4663 64.3458 36.2717 59.006ZM42.8077 101.161H42.0941C40.7971 101.161 39.7421 100.106 39.7421 98.8075C39.7421 98.3413 39.8794 97.8899 40.1378 97.5014L42.4518 94.0296L44.7659 97.5014C45.0242 97.8899 45.1615 98.3413 45.1615 98.8075C45.1615 100.106 44.1066 101.161 42.8077 101.161ZM69.9042 101.161H69.1907C67.8936 101.161 66.8387 100.106 66.8387 98.8075C66.8387 98.3413 66.976 97.8899 67.2343 97.5014L69.5484 94.0296L71.8624 97.5014C72.1208 97.8899 72.2581 98.3413 72.2581 98.8075C72.2581 100.106 71.2031 101.161 69.9042 101.161ZM68.3401 104.688C67.6156 106.83 65.6107 108.387 63.2261 108.387H48.7745C46.3899 108.387 44.385 106.83 43.6604 104.688C46.5454 104.27 48.7745 101.806 48.7745 98.8075C48.7745 97.6262 48.4278 96.481 47.7719 95.4981L45.5265 92.129H66.4741L64.2287 95.4981C63.5728 96.4806 63.2261 97.6262 63.2261 98.8075C63.2261 101.806 65.4551 104.27 68.3401 104.688ZM68.6451 88.516H43.3547V81.2901H68.6451V88.516Z" fill="#333333"/>
<path d="M101.162 32.5162H79.4841C74.5036 32.5162 70.4517 28.4643 70.4517 23.4838C70.4517 19.7244 72.7566 16.4297 76.189 15.0909C77.5729 8.47043 83.4544 3.61279 90.3227 3.61279C95.5486 3.61279 100.39 6.49058 102.93 11.0246C108.094 11.8755 112 16.3697 112 21.6773C112 27.6552 107.139 32.5162 101.162 32.5162Z" fill="#00237C"/>
<path d="M30.7095 86.7097H9.03244C4.05189 86.7097 0 82.6578 0 77.6776C0 73.9182 2.30496 70.6235 5.73736 69.2848C7.12125 62.6643 13.0028 57.8066 19.871 57.8066C25.097 57.8066 29.9383 60.6844 32.4781 65.2185C37.6426 66.0694 41.5485 70.5636 41.5485 75.8712C41.5485 81.8486 36.6874 86.7097 30.7095 86.7097Z" fill="#00237C"/>
</svg>
