<svg width="384" height="366" viewBox="0 0 384 366" fill="none" xmlns="http://www.w3.org/2000/svg">
<g opacity="0.7">
<path d="M353.533 183C353.533 93.5411 281.226 21.0449 192 21.0449C102.775 21.0449 30.4678 93.5411 30.4678 183H353.533Z" fill="#CD142B"/>
<path d="M30.4678 180.959C30.4678 270.418 102.775 342.914 192 342.914C281.226 342.914 353.533 270.418 353.533 180.959H30.4678Z" fill="#00237C"/>
<path d="M353.533 183C353.533 272.459 281.226 344.955 192 344.955C102.775 344.955 30.4678 272.459 30.4678 183C30.4678 93.5411 102.775 21.0449 192 21.0449C281.226 21.0449 353.533 93.5411 353.533 183Z" stroke="white" stroke-width="8" stroke-miterlimit="10"/>
<path d="M30.4678 183H121.589" stroke="white" stroke-width="8" stroke-miterlimit="10"/>
<path d="M261.991 180.748H353.533" stroke="white" stroke-width="8" stroke-miterlimit="10"/>
<path d="M109.233 93.7524C111.058 95.3009 112.462 97.0605 113.515 99.0313C114.568 101.002 115.2 103.114 115.41 105.436C115.621 107.759 115.34 109.941 114.708 112.123C114.077 114.305 112.953 116.205 111.549 117.965C110.075 119.724 108.32 121.062 106.355 122.117C104.389 123.173 102.213 123.736 99.9662 123.877C97.6496 124.088 95.4733 123.807 93.2971 123.103C91.1911 122.399 89.2255 121.273 87.4002 119.795C85.575 118.246 84.171 116.487 83.118 114.516C82.0649 112.545 81.4331 110.363 81.2225 108.041C81.0119 105.788 81.2225 103.606 81.8543 101.424C82.4862 99.2425 83.6094 97.3421 85.0134 95.5825C86.4876 93.8228 88.1724 92.4855 90.2083 91.4298C92.2441 90.374 94.3501 89.8109 96.5966 89.5998C98.843 89.459 101.089 89.6701 103.195 90.374C105.442 91.1482 107.408 92.2744 109.233 93.7524ZM105.653 113.038C107.197 111.208 107.759 109.096 107.408 106.703C106.986 104.31 105.793 102.199 103.617 100.439C101.511 98.6794 99.2642 97.7644 96.8072 97.8348C94.3501 97.8348 92.3845 98.7498 90.9103 100.58C89.3659 102.41 88.8043 104.521 89.1553 106.914C89.5765 109.307 90.8401 111.419 92.9461 113.179C95.1223 115.009 97.3688 115.924 99.7556 115.924C102.142 115.853 104.108 114.868 105.653 113.038Z" fill="white"/>
<path d="M127.485 70.8768L127.555 70.9472C128.468 71.5807 129.17 72.1437 129.731 72.7068C129.521 72.003 129.451 71.1584 129.38 70.1026C129.38 69.9618 129.38 69.8914 129.38 69.821L128.959 61.2341L137.875 56.2368L136.401 75.311L155.004 84.5314L146.439 89.3176L136.962 83.4053C136.541 83.1237 136.12 82.8422 135.769 82.5607C135.347 82.2791 134.996 81.9272 134.716 81.5753C134.856 82.068 134.996 82.631 135.067 83.0534C135.137 83.4757 135.137 83.9684 135.137 84.461L135.207 95.6522L126.643 100.438L128.468 79.5341L111.549 71.088L120.535 66.0203L127.485 70.8768Z" fill="white"/>
<path d="M164.131 82.4202L158.093 49.9729L177.188 46.3833L178.522 53.4921L167.711 55.5333L168.764 61.1641L178.943 59.2637L180.277 66.2318L170.098 68.1321L172.484 80.8718L164.131 82.4202Z" fill="white"/>
<path d="M229.206 67.1466C228.785 69.4693 228.013 71.5808 226.819 73.4812C225.626 75.3816 224.152 77.0005 222.256 78.3378C220.361 79.6751 218.325 80.5901 216.149 81.0828C213.972 81.5754 211.726 81.6458 209.55 81.2939C207.303 80.942 205.267 80.0974 203.372 78.9008C201.477 77.7043 199.862 76.1558 198.598 74.2555C197.265 72.3551 196.352 70.3139 195.86 68.132C195.369 65.9501 195.369 63.6978 195.72 61.3751C196.141 59.0524 196.914 56.9408 198.107 55.0405C199.3 53.1401 200.845 51.5212 202.74 50.1839C204.565 48.8466 206.601 47.9316 208.777 47.4389C210.954 46.9462 213.2 46.8758 215.447 47.2278C217.693 47.5797 219.729 48.4243 221.624 49.6208C223.52 50.8174 225.134 52.3658 226.398 54.2662C227.662 56.1666 228.574 58.2078 229.066 60.3897C229.557 62.5716 229.557 64.8239 229.206 67.1466ZM210.813 73.8331C213.2 74.2555 215.306 73.6924 217.131 72.1439C218.957 70.5955 220.15 68.4839 220.641 65.6685C221.133 62.9235 220.712 60.5305 219.448 58.4189C218.184 56.3074 216.429 55.1108 214.113 54.6885C211.726 54.2662 209.62 54.8293 207.795 56.3778C205.969 57.9262 204.776 60.1081 204.285 62.7828C203.793 65.5981 204.214 67.9912 205.408 70.0324C206.601 72.2143 208.426 73.4812 210.813 73.8331Z" fill="white"/>
<path d="M236.859 88.5436L253.918 60.249L261.64 64.9648C264.659 66.7948 266.694 68.2025 267.747 69.2583C268.8 70.2436 269.502 71.3698 269.994 72.5663C270.485 73.9036 270.696 75.3817 270.485 76.8598C270.275 78.3379 269.783 79.8863 268.871 81.294C267.537 83.4759 265.992 84.954 264.097 85.6579C262.272 86.4321 260.166 86.4321 257.919 85.6579L258.481 101.565L250.127 96.4971L250.548 81.6459L243.879 92.6963L236.859 88.5436ZM252.795 77.8452L254.199 78.6898C255.813 79.6752 257.147 80.0975 258.2 79.9567C259.253 79.8159 260.166 79.1825 260.938 77.9859C261.78 76.5783 262.061 75.3817 261.71 74.3259C261.359 73.3406 260.376 72.2848 258.762 71.2994L257.287 70.3844L252.795 77.8452Z" fill="white"/>
<path d="M265.641 108.111L291.124 87.2065L295.336 92.3446C298.425 96.1454 300.461 99.0311 301.373 100.932C302.286 102.832 302.778 104.732 302.918 106.633C303.058 109.096 302.567 111.489 301.514 113.742C300.391 115.994 298.706 118.035 296.459 119.865C294.213 121.695 291.896 122.962 289.439 123.595C287.052 124.229 284.595 124.229 282.209 123.595C280.383 123.103 278.628 122.258 277.084 120.991C275.469 119.795 273.363 117.542 270.766 114.305L269.853 113.178L265.641 108.111ZM276.803 110.082L277.716 111.208C279.892 113.812 281.998 115.29 284.104 115.642C286.21 115.923 288.456 115.079 290.914 113.108C293.371 111.137 294.634 109.026 294.775 106.914C294.915 104.803 293.932 102.41 291.756 99.735L290.843 98.6088L276.803 110.082Z" fill="white"/>
<path d="M70.7627 244.164L99.3345 227.764L109.514 245.642L103.266 249.231L97.5093 239.096L92.525 241.911L97.9305 251.413L91.823 254.932L86.4175 245.43L81.5737 248.175L87.3301 258.311L80.9419 261.971L70.7627 244.164Z" fill="white"/>
<path d="M95.2632 280.412L115.762 254.581L122.642 260.071L121.94 281.256C121.94 281.679 121.799 282.453 121.589 283.649C121.378 284.846 121.097 286.183 120.676 287.732C121.378 286.535 122.01 285.479 122.642 284.635C123.273 283.72 123.765 283.016 124.326 282.312L134.435 269.572L141.315 275.062L120.816 300.894L113.937 295.404L114.639 274.147C114.639 273.725 114.779 272.951 114.99 271.754C115.2 270.558 115.481 269.221 115.832 267.742C115.13 268.939 114.428 269.995 113.866 270.839C113.235 271.754 112.743 272.529 112.182 273.162L102.073 285.902L95.2632 280.412Z" fill="white"/>
<path d="M162.094 304.132L163.779 297.375L181.189 301.668C181.119 301.879 181.119 302.161 181.048 302.372C180.978 302.653 180.908 303.005 180.768 303.568C179.434 309.058 176.907 313 173.186 315.323C169.465 317.645 164.972 318.138 159.637 316.801C156.969 316.167 154.793 315.182 152.898 313.915C151.073 312.648 149.528 310.959 148.264 308.988C147.071 307.088 146.369 304.976 146.018 302.653C145.667 300.331 145.807 298.078 146.369 295.756C146.931 293.363 147.913 291.251 149.247 289.492C150.581 287.662 152.266 286.183 154.302 284.987C156.338 283.861 158.444 283.087 160.76 282.805C163.077 282.523 165.464 282.664 167.851 283.298C171.01 284.072 173.677 285.409 175.854 287.239C178.03 289.069 179.574 291.462 180.697 294.278L172.133 296.037C171.501 294.559 170.729 293.363 169.746 292.518C168.763 291.603 167.57 291.04 166.096 290.688C163.428 290.055 161.181 290.407 159.216 291.744C157.25 293.081 155.916 295.333 155.144 298.36C154.372 301.387 154.583 303.991 155.636 306.102C156.759 308.214 158.584 309.622 161.252 310.255C163.498 310.818 165.534 310.748 167.289 310.044C169.044 309.34 170.308 308.073 171.01 306.313L162.094 304.132Z" fill="white"/>
<path d="M199.02 320.039L195.229 287.239L204.285 286.184L207.234 311.311L218.466 309.974L219.379 317.645L199.02 320.039Z" fill="white"/>
<path d="M237.912 312.014L225.697 281.327L234.262 277.878L246.477 308.566L237.912 312.014Z" fill="white"/>
<path d="M260.937 288.787C262.903 289.139 264.658 289.21 266.202 288.999C267.676 288.787 268.94 288.295 269.993 287.45C270.976 286.676 271.537 285.831 271.818 284.846C272.029 283.861 271.888 282.946 271.256 282.171C270.554 281.327 269.782 280.834 268.94 280.764C268.027 280.693 266.483 281.186 264.166 282.101C261.007 283.438 258.48 283.931 256.584 283.649C254.689 283.368 252.934 282.242 251.46 280.341C249.564 277.807 248.792 275.133 249.284 272.247C249.775 269.361 251.39 266.898 254.057 264.786C255.531 263.66 257.076 262.816 258.69 262.182C260.305 261.549 261.99 261.197 263.745 261.056L265.43 267.954C264.096 267.883 262.832 268.024 261.709 268.306C260.586 268.587 259.603 269.08 258.761 269.784C257.918 270.487 257.357 271.191 257.146 272.036C256.935 272.881 257.076 273.584 257.567 274.218C258.059 274.851 258.69 275.203 259.463 275.274C260.235 275.344 261.428 274.992 263.113 274.288L263.534 274.147C267.115 272.669 269.712 272.036 271.327 272.247C272.45 272.388 273.503 272.81 274.556 273.444C275.539 274.077 276.521 274.992 277.364 276.048C279.47 278.793 280.312 281.749 279.751 284.846C279.189 287.943 277.364 290.688 274.275 293.081C272.45 294.489 270.484 295.474 268.519 296.037C266.553 296.6 264.307 296.741 261.92 296.53L260.937 288.787Z" fill="white"/>
<path d="M298.916 268.517L270.695 251.413L275.399 243.601L286.35 250.217L292.668 239.8L281.717 233.184L286.42 225.371L314.641 242.475L309.938 250.287L298.495 243.319L292.177 253.736L303.62 260.704L298.916 268.517Z" fill="white"/>
<mask id="mask0" mask-type="alpha" maskUnits="userSpaceOnUse" x="111" y="101" width="164" height="164">
<path d="M192.773 264.928C237.747 264.928 274.206 228.374 274.206 183.282C274.206 138.19 237.747 101.636 192.773 101.636C147.798 101.636 111.339 138.19 111.339 183.282C111.339 228.374 147.798 264.928 192.773 264.928Z" fill="white"/>
</mask>
<g mask="url(#mask0)">
<path d="M172.835 103.747H75.957V155.691H172.835V103.747Z" fill="#00237C"/>
<path d="M102.563 103.747H75.957V120.077L205.689 205.946L237.279 192.925L102.563 103.747Z" fill="white"/>
<path d="M75.957 105.084V116.346L207.444 203.341L212.568 195.529L75.957 105.084Z" fill="#CD142B"/>
<path d="M309.306 103.747H212.429V155.691H309.306V103.747Z" fill="#00237C"/>
<path d="M282.77 103.747H309.376V120.077L179.574 205.946L148.054 192.925L282.77 103.747Z" fill="white"/>
<path d="M309.376 105.084V116.346L177.889 203.341L172.765 195.529L309.376 105.084Z" fill="#CD142B"/>
<path d="M309.306 208.409H212.429V260.353H309.306V208.409Z" fill="#00237C"/>
<path d="M282.77 260.424H309.376V244.024L179.574 158.155L148.054 171.176L282.77 260.424Z" fill="white"/>
<path d="M309.376 259.016V247.825L177.889 160.759L172.765 168.572L309.376 259.016Z" fill="#CD142B"/>
<path d="M172.835 208.409H75.957V260.353H172.835V208.409Z" fill="#00237C"/>
<path d="M102.563 260.424H75.957V244.024L205.689 158.155L237.279 171.176L102.563 260.424Z" fill="white"/>
<path d="M75.957 259.016V247.825L207.444 160.759L212.568 168.572L75.957 259.016Z" fill="#CD142B"/>
<path d="M309.376 155.691H212.639V103.747H172.273V155.691H75.957V207.283H172.273V260.423H212.639V207.283H309.376V155.691Z" fill="white"/>
<path d="M309.376 166.249H204.074V103.747H180.837V166.249H75.957V196.725H180.837V260.423H204.074V196.725H309.376V166.249Z" fill="#CD142B"/>
</g>
<path d="M270.206 183.282C270.206 226.175 235.528 260.928 192.773 260.928C150.017 260.928 115.339 226.175 115.339 183.282C115.339 140.389 150.017 105.636 192.773 105.636C235.528 105.636 270.206 140.389 270.206 183.282Z" stroke="white" stroke-width="8"/>
</g>
</svg>
