<svg id="Layer_1" data-name="Layer 1" xmlns="http://www.w3.org/2000/svg" viewBox="0 0 122.5 93.25">
  <defs>
    <style>
      .cls-1 {
        fill: #f4992a;
      }
    </style>
  </defs>
  <title>Quotes_orange</title>
  <path class="cls-1" d="M102.44,113.18c0,17-12.25,28-28.5,28-16.5,0-28.5-11-28.5-28,0-7,1-12.5,8.25-28.5l16-36.75H99.44L87.69,88.68C96.69,92.93,102.44,101.43,102.44,113.18Zm65.5,0c0,17-12.25,28-28.5,28-16.5,0-28.5-11-28.5-28,0-7,1-12.5,8.25-28.5l16-36.75h29.75L153.19,88.68C162.19,92.93,167.94,101.43,167.94,113.18Z" transform="translate(-45.44 -47.93)"/>
</svg>
