<svg width="102" height="102" viewBox="0 0 102 102" fill="none" xmlns="http://www.w3.org/2000/svg">
<path d="M79.7256 10.5304C76.3414 4.20367 69.8412 0.294434 62.6329 0.294434H60.5196C44.2856 0.294434 31.0776 13.5024 31.0776 29.7364V44.4574H32.7133C32.7133 40.8442 35.6428 37.9147 39.256 37.9147V28.1007C45.7561 30.268 52.5621 31.372 59.4139 31.372H61.6253C68.4771 31.372 75.2831 30.268 81.7832 28.1007V37.9147C85.3964 37.9147 88.3259 40.8442 88.3259 44.4574H89.9615V27.6231C89.9615 20.4147 86.0523 13.9146 79.7256 10.5304Z" fill="#00237C"/>
<path d="M19.0391 101.706H102L96.6072 84.451C96.5287 84.2007 96.4355 83.9586 96.3471 83.7133H101.411V11.7441H81.7832V11.816C83.0934 12.7418 84.2531 13.8246 85.277 15.0154H98.1398V80.442H94.8685V80.4812C91.8491 75.2209 86.525 71.4654 80.4158 70.5249L71.9692 69.2246V67.53C77.4732 64.3356 81.5346 58.9281 82.9053 52.5228C86.8799 51.9683 89.9615 48.5825 89.9615 44.4573C89.9615 40.5089 87.1465 37.2048 83.4189 36.4442V25.8304L81.2663 26.5485C74.9199 28.665 68.3119 29.7364 61.6253 29.7364H59.4139C52.7273 29.7364 46.1192 28.665 39.7728 26.5501L37.6203 25.8304V36.4442C33.8926 37.2048 31.0776 40.5072 31.0776 44.4573C31.0776 48.5825 34.1592 51.9683 38.1339 52.5228C39.5046 58.9281 43.5659 64.3356 49.0699 67.53V69.2246L40.6233 70.5233C34.5141 71.4638 29.1901 75.2193 26.1706 80.4796V80.442H3.27133V13.3797H36.0566C36.8335 12.2217 37.7102 11.1421 38.6376 10.1084H0V83.7133H24.692C24.6037 83.9586 24.5104 84.2007 24.4319 84.451L19.0391 101.706ZM50.1347 72.3699L58.1266 80.3618L48.5645 88.7282L45.9458 73.0144L50.1347 72.3699ZM60.5196 82.6158L66.9723 88.2621L63.6649 93.223L64.9686 98.4343H56.0706L57.3742 93.2214L54.0669 88.2604L60.5196 82.6158ZM70.9044 72.3699L75.0933 73.0144L72.4746 88.7282L62.9125 80.3618L70.9044 72.3699ZM93.4864 85.4258L97.551 98.4343H84.8631L83.4058 86.7818L80.1606 87.1874L81.5657 98.4343H68.338L67.1882 93.8331L69.4552 90.4342L74.7368 95.055L78.327 73.5133L79.9185 73.7586C86.2486 74.7319 91.5743 79.3133 93.4864 85.4258ZM86.6902 44.4573C86.6902 46.6115 85.2851 48.4271 83.3502 49.0846C83.3763 48.6332 83.4189 48.1867 83.4189 47.7287V39.8513C85.3179 40.5285 86.6902 42.3277 86.6902 44.4573ZM59.4139 33.0077H61.6253C67.9111 33.0077 74.1316 32.1064 80.1475 30.3285V37.9147H78.0572C77.4896 36.9415 76.446 36.279 75.2405 36.279H65.4266C63.6224 36.279 62.1552 37.7462 62.1552 39.5504H58.8839C58.8839 37.7462 57.4167 36.279 55.6126 36.279H45.7986C44.5931 36.279 43.5495 36.9415 42.982 37.9147H40.8916V30.3285C46.9092 32.1064 53.128 33.0077 59.4139 33.0077ZM75.2405 39.5504V42.8217C75.2405 44.6258 73.7733 46.093 71.9692 46.093H68.6979C66.8937 46.093 65.4266 44.6258 65.4266 42.8217V39.5504H75.2405ZM55.6126 39.5504V42.8217C55.6126 44.6258 54.1454 46.093 52.3412 46.093H49.0699C47.2658 46.093 45.7986 44.6258 45.7986 42.8217V39.5504H55.6126ZM34.3489 44.4573C34.3489 42.3277 35.7213 40.5285 37.6203 39.8513V47.7287C37.6203 48.1867 37.6628 48.6332 37.689 49.0846C35.754 48.4271 34.3489 46.6115 34.3489 44.4573ZM40.8916 47.7287V41.186H42.5273V42.8217C42.5273 46.43 45.4616 49.3643 49.0699 49.3643H52.3412C55.9495 49.3643 58.8839 46.43 58.8839 42.8217H62.1552C62.1552 46.43 65.0896 49.3643 68.6979 49.3643H71.9692C75.5775 49.3643 78.5119 46.43 78.5119 42.8217V41.186H80.1475V47.7287C80.1475 58.5519 71.3428 67.3566 60.5196 67.3566C49.6964 67.3566 40.8916 58.5519 40.8916 47.7287ZM60.5196 70.628C63.4032 70.628 66.1544 70.0702 68.6979 69.0921V69.9508L60.5196 78.1291L52.3412 69.9508V69.0921C54.8847 70.0702 57.6359 70.628 60.5196 70.628ZM41.1222 73.757L42.7137 73.5116L46.304 95.0533L51.5856 90.4326L53.8526 93.8315L52.7011 98.4343H39.4735L40.8785 87.1874L37.6334 86.7818L36.176 98.4343H23.4881L27.5511 85.4258C29.4648 79.3133 34.7906 74.7318 41.1222 73.757Z" fill="black"/>
<path d="M17.9924 39.5502V26.4648H13.0854V29.7362H14.7211V39.5502H17.9924Z" fill="black"/>
<path d="M26.1704 44.4575H6.54248V47.7288H26.1704V44.4575Z" fill="black"/>
<path d="M21.2637 56.1883V55.907C21.2637 53.2016 19.0621 51 16.3567 51C13.6513 51 11.4497 53.2016 11.4497 55.907H14.721C14.721 55.0041 15.4538 54.2713 16.3567 54.2713C17.2596 54.2713 17.9924 55.0041 17.9924 55.907V56.1883C17.9924 56.6185 17.819 57.0405 17.5131 57.3447L11.4497 63.4081V67.3566H21.2637V64.0853H15.3982L19.8259 59.6576C20.7534 58.7318 21.2637 57.4985 21.2637 56.1883Z" fill="black"/>
</svg>
