<svg width="523" height="523" viewBox="0 0 523 523" fill="none" xmlns="http://www.w3.org/2000/svg">
<g clip-path="url(#clip0)">
<path d="M238.985 39.8526C233.101 38.7805 226.93 38.7805 220.706 40.0357C198.322 44.5597 182.658 63.8061 181.769 85.6413C181.742 86.2166 181.742 86.8181 181.716 87.3934C181.716 90.636 182.03 93.9047 182.684 97.1996C187.966 123.48 213.593 140.504 239.874 135.196C255.642 132.031 268.064 121.545 274.366 107.973C278.55 98.9255 280.014 88.5178 277.896 78.0055C273.843 57.9746 257.97 43.3044 238.985 39.8526ZM253.106 82.8171C253.158 83.1309 253.21 83.4709 253.237 83.7847C254.466 94.0878 249.523 103.763 241.26 108.156C239.612 109.019 237.834 109.699 235.925 110.118C235.795 110.144 235.69 110.17 235.559 110.196C223.949 112.524 212.495 104.809 209.017 92.7018C208.938 92.388 208.834 92.0742 208.755 91.7604C208.651 91.3943 208.572 91.0021 208.494 90.6098C205.827 77.2995 213.567 64.5383 225.831 62.054C225.936 62.0279 226.067 62.0017 226.171 61.9756C229.806 61.2957 233.415 61.6356 236.762 62.7601C244.581 65.4012 250.988 72.4356 252.844 81.6665C252.975 82.0588 253.054 82.451 253.106 82.8171Z" fill="#D5E6E7"/>
<path d="M274.706 78.4763L257.813 81.8758C257.761 81.562 257.708 81.2743 257.63 80.9605C254.466 65.1921 240.135 54.7582 225.648 57.687C211.161 60.6158 202.009 75.7567 205.173 91.5251C205.225 91.8389 205.304 92.1266 205.382 92.4404L187.208 96.1014C182.344 71.9388 197.982 48.4038 222.144 43.5399C246.307 38.676 269.842 54.3137 274.706 78.4763Z" fill="#CC152B"/>
<path d="M274.889 79.4438C279.752 103.606 264.115 127.141 239.952 132.005C215.79 136.869 192.255 121.232 187.391 97.069L205.591 93.408C205.643 93.6172 205.696 93.8263 205.774 94.0355C209.88 108.392 223.451 117.571 237.154 114.825C250.857 112.053 259.8 98.3503 258.048 83.5232C258.022 83.314 257.996 83.1049 257.969 82.8957L274.889 79.4438Z" fill="#00247C"/>
<path d="M183.73 101.436C188.829 97.827 201.93 94.5321 210.089 95.735C209.2 93.2769 208.259 88.4131 208.076 87.3148C201.277 85.7458 187.051 88.3608 182.083 93.46C182.37 96.6241 183.73 101.436 183.73 101.436Z" fill="#D5E6E7"/>
<path d="M278.55 82.3202C272.457 80.9604 260.48 82.4771 253.419 86.7395C253.289 84.1245 252.504 79.679 251.955 78.1885C257.603 74.1091 270.26 71.6249 276.85 73.7953C277.974 76.9595 278.55 82.3202 278.55 82.3202Z" fill="#D5E6E7"/>
<path d="M201.198 66.055C201.826 66.395 202.349 66.8134 202.767 67.3364C203.186 67.8594 203.499 68.4347 203.709 69.0884C203.892 69.7422 203.97 70.4221 203.892 71.0758C203.813 71.7557 203.63 72.3833 203.316 72.9586C203.002 73.5601 202.558 74.0569 202.035 74.4753C201.512 74.8937 200.91 75.1814 200.257 75.3645C199.603 75.5475 198.923 75.6259 198.269 75.5475C197.589 75.469 196.962 75.2598 196.334 74.9199C195.707 74.5799 195.184 74.1615 194.765 73.6385C194.347 73.1155 194.033 72.5141 193.85 71.8603C193.641 71.2066 193.589 70.5529 193.667 69.873C193.745 69.193 193.928 68.5654 194.268 67.964C194.582 67.3625 195.027 66.8657 195.55 66.4473C196.073 66.0289 196.674 65.7151 197.328 65.532C197.982 65.349 198.635 65.2967 199.315 65.3751C199.943 65.532 200.571 65.7151 201.198 66.055ZM201.303 71.9126C201.643 71.285 201.695 70.6313 201.433 69.9514C201.172 69.2715 200.675 68.7485 199.943 68.3301C199.211 67.9378 198.505 67.8071 197.799 67.964C197.093 68.1209 196.57 68.5131 196.23 69.1146C195.89 69.7422 195.837 70.3959 196.099 71.0758C196.36 71.7557 196.857 72.2787 197.563 72.6971C198.295 73.0894 199.028 73.2201 199.708 73.0894C200.414 72.9325 200.937 72.5402 201.303 71.9126Z" fill="#D5EBEF"/>
<path d="M205.199 58.2885H205.225C205.539 58.4193 205.774 58.55 205.958 58.6808C205.853 58.4977 205.774 58.2362 205.696 57.9224C205.696 57.8963 205.67 57.8701 205.67 57.844L205.042 55.3597L207.37 53.3723L208.05 59.0207L214.038 60.6159L211.815 62.5248L208.703 61.3481C208.573 61.2958 208.416 61.2435 208.285 61.165C208.154 61.0866 208.023 61.0343 207.919 60.9297C207.997 61.0866 208.05 61.2173 208.102 61.3481C208.154 61.4788 208.18 61.6096 208.206 61.7403L208.886 65.0091L206.664 66.918L205.958 60.6943L200.492 59.2299L202.82 57.2164L205.199 58.2885Z" fill="#D5EBEF"/>
<path d="M216.627 59.4914L212.939 50.365L218.326 48.1946L219.137 50.2081L216.077 51.4372L216.705 53.0323L219.582 51.8556L220.366 53.8168L217.49 54.9936L218.928 58.5761L216.627 59.4914Z" fill="#D5EBEF"/>
<path d="M234.801 51.2018C234.827 51.9079 234.722 52.5878 234.487 53.2154C234.252 53.843 233.912 54.4183 233.441 54.9151C232.97 55.412 232.421 55.8042 231.82 56.0919C231.192 56.3795 230.565 56.5103 229.885 56.5364C229.205 56.5626 228.551 56.4318 227.924 56.1965C227.296 55.9611 226.747 55.595 226.25 55.1243C225.753 54.6536 225.361 54.1045 225.099 53.4769C224.838 52.8493 224.681 52.1955 224.655 51.5156C224.629 50.8096 224.733 50.1558 224.969 49.5282C225.204 48.9006 225.57 48.3253 226.041 47.8285C226.485 47.3316 227.034 46.9394 227.636 46.6517C228.237 46.3641 228.891 46.2333 229.571 46.2072C230.251 46.181 230.905 46.3118 231.532 46.5471C232.16 46.7825 232.735 47.1486 233.206 47.6193C233.703 48.09 234.069 48.6391 234.356 49.2406C234.644 49.842 234.775 50.4958 234.801 51.2018ZM229.832 54.2352C230.539 54.2091 231.14 53.9214 231.585 53.3723C232.029 52.8231 232.264 52.1171 232.238 51.2803C232.212 50.4435 231.951 49.7636 231.454 49.2406C230.957 48.6914 230.355 48.4561 229.649 48.4561C228.943 48.4822 228.342 48.7699 227.897 49.319C227.453 49.8682 227.217 50.5742 227.244 51.411C227.27 52.2478 227.531 52.9277 228.002 53.4769C228.499 54.026 229.1 54.2614 229.832 54.2352Z" fill="#D5EBEF"/>
<path d="M238.331 57.0071L241.652 47.75L244.189 48.6653C245.182 49.0314 245.862 49.319 246.228 49.5543C246.594 49.7897 246.856 50.0773 247.065 50.3911C247.3 50.7572 247.431 51.1756 247.457 51.6202C247.484 52.0647 247.431 52.5354 247.248 53.0061C246.987 53.7122 246.621 54.2352 246.098 54.5751C245.601 54.9151 244.999 55.0197 244.293 54.9412L245.392 59.5436L242.646 58.5499L241.887 54.1829L240.58 57.8177L238.331 57.0071ZM242.358 52.9277L242.803 53.0846C243.326 53.2676 243.744 53.3199 244.058 53.2153C244.372 53.1107 244.581 52.8754 244.738 52.4831C244.895 52.0124 244.921 51.6463 244.764 51.3587C244.607 51.071 244.267 50.8357 243.744 50.6526L243.247 50.4696L242.358 52.9277Z" fill="#D5EBEF"/>
<path d="M247.902 61.0081L254.152 53.3984L255.669 54.6536C256.82 55.595 257.578 56.3011 257.944 56.7979C258.336 57.2948 258.598 57.8178 258.728 58.3669C258.912 59.073 258.912 59.8052 258.728 60.5374C258.545 61.2696 258.179 61.9495 257.604 62.6294C257.029 63.3093 256.427 63.8061 255.773 64.1199C255.094 64.4599 254.388 64.5906 253.655 64.5383C253.08 64.5122 252.531 64.3553 251.982 64.0938C251.433 63.8323 250.674 63.3093 249.733 62.5248L249.393 62.2371L247.902 61.0081ZM251.302 60.9296L251.642 61.2173C252.426 61.871 253.132 62.1587 253.786 62.1325C254.414 62.1064 255.041 61.7141 255.643 60.9819C256.244 60.2497 256.506 59.5698 256.427 58.9422C256.349 58.3146 255.904 57.6609 255.12 57.0333L254.78 56.7456L251.302 60.9296Z" fill="#D5EBEF"/>
<path d="M198.792 112.341L206.219 105.855L210.246 110.484L208.625 111.896L206.35 109.281L205.069 110.406L207.213 112.864L205.618 114.25L203.473 111.792L202.218 112.89L204.493 115.505L202.82 116.943L198.792 112.341Z" fill="#D5EBEF"/>
<path d="M208.102 121.467L212.6 112.707L214.953 113.909L215.999 120.133C216.025 120.264 216.025 120.499 216.025 120.839C216.025 121.205 216.025 121.598 215.999 122.068C216.13 121.676 216.261 121.336 216.392 121.048C216.522 120.761 216.627 120.499 216.758 120.29L218.98 115.975L221.308 117.178L216.81 125.938L214.483 124.736L213.437 118.486C213.41 118.355 213.41 118.12 213.384 117.753C213.384 117.387 213.384 116.995 213.41 116.524C213.28 116.917 213.149 117.257 213.018 117.544C212.887 117.832 212.783 118.093 212.652 118.329L210.429 122.644L208.102 121.467Z" fill="#D5EBEF"/>
<path d="M229.1 124.448L229.178 122.382L234.539 122.617C234.539 122.696 234.539 122.748 234.539 122.827C234.539 122.905 234.539 123.036 234.539 123.193C234.461 124.892 233.964 126.174 232.996 127.089C232.055 127.978 230.747 128.397 229.1 128.318C228.289 128.292 227.583 128.135 226.956 127.874C226.328 127.612 225.779 127.22 225.308 126.697C224.864 126.2 224.524 125.625 224.288 124.971C224.053 124.317 223.948 123.637 223.975 122.931C224.001 122.199 224.158 121.519 224.445 120.918C224.733 120.316 225.125 119.767 225.648 119.296C226.171 118.826 226.773 118.512 227.426 118.276C228.08 118.067 228.786 117.963 229.545 117.989C230.512 118.041 231.375 118.25 232.107 118.669C232.839 119.087 233.441 119.689 233.938 120.447L231.532 121.467C231.27 121.075 230.957 120.787 230.617 120.578C230.277 120.368 229.884 120.264 229.44 120.238C228.629 120.212 227.976 120.447 227.479 120.97C226.982 121.493 226.72 122.199 226.668 123.14C226.616 124.082 226.825 124.814 227.269 125.389C227.714 125.938 228.342 126.252 229.152 126.278C229.832 126.305 230.434 126.174 230.904 125.86C231.375 125.546 231.663 125.102 231.767 124.552L229.1 124.448Z" fill="#D5EBEF"/>
<path d="M240.868 126.932L237.808 117.57L240.397 116.734L242.724 123.899L245.941 122.853L246.647 125.049L240.868 126.932Z" fill="#D5EBEF"/>
<path d="M251.799 122.278L246.412 114.04L248.713 112.524L254.1 120.761L251.799 122.278Z" fill="#D5EBEF"/>
<path d="M257.16 114.145C257.761 114.145 258.284 114.067 258.702 113.91C259.121 113.753 259.461 113.544 259.722 113.23C259.958 112.942 260.088 112.654 260.088 112.367C260.088 112.053 259.984 111.818 259.775 111.608C259.539 111.399 259.278 111.295 259.016 111.347C258.755 111.373 258.31 111.608 257.709 112.027C256.872 112.602 256.166 112.89 255.591 112.916C255.015 112.942 254.44 112.733 253.891 112.236C253.185 111.608 252.819 110.876 252.793 109.987C252.766 109.124 253.08 108.287 253.76 107.529C254.126 107.111 254.518 106.771 254.963 106.483C255.408 106.195 255.878 105.986 256.375 105.855L257.264 107.764C256.872 107.817 256.506 107.947 256.192 108.104C255.878 108.261 255.617 108.47 255.408 108.706C255.198 108.941 255.068 109.203 255.068 109.464C255.041 109.726 255.12 109.935 255.303 110.092C255.486 110.249 255.695 110.327 255.931 110.275C256.166 110.223 256.506 110.066 256.924 109.778L257.029 109.7C257.97 109.046 258.702 108.706 259.199 108.68C259.539 108.654 259.879 108.706 260.219 108.837C260.559 108.967 260.873 109.177 261.187 109.438C261.971 110.118 262.39 110.929 262.39 111.87C262.416 112.811 262.05 113.727 261.265 114.59C260.794 115.113 260.298 115.531 259.748 115.792C259.199 116.08 258.572 116.237 257.839 116.315L257.16 114.145Z" fill="#D5EBEF"/>
<path d="M267.123 105.96L257.839 102.639L258.755 100.076L262.363 101.358L263.592 97.9319L259.984 96.6506L260.899 94.0879L270.182 97.4089L269.267 99.9716L265.501 98.6118L264.272 102.037L268.038 103.397L267.123 105.96Z" fill="#D5EBEF"/>
<path d="M242.463 107.764C241.887 109.202 240.658 114.798 234.905 113.831C234.722 115.165 233.702 117.466 230.695 117.257C227.4 117.021 227.322 115.478 226.982 114.903C226.145 116.054 223.007 115.635 222.144 114.171C221.83 113.543 221.517 112.314 221.412 111.922C220.889 112.706 216.81 112.471 216.313 110.614C215.92 109.176 216.025 107.058 216.391 105.829C216.496 105.437 216.653 105.123 216.783 104.966C217.882 103.763 221.255 105.123 221.36 105.881C222.51 104.103 226.694 104.182 227.636 105.934C228.891 103.763 234.696 104.966 235.062 106.561C236.527 104.731 242.149 106.09 242.437 107.45C242.515 107.581 242.515 107.686 242.463 107.764Z" fill="#FFCA9E"/>
<path d="M242.463 107.764C241.887 109.202 240.658 114.798 234.905 113.831C234.722 115.164 233.702 117.466 230.695 117.256C227.4 117.021 227.322 115.478 226.982 114.903C226.145 116.054 223.007 115.635 222.144 114.171C221.83 113.543 221.517 112.314 221.412 111.922C220.889 112.706 216.81 112.471 216.313 110.614C215.92 109.176 216.025 107.058 216.391 105.829C217.803 108.444 220.889 107.267 221.412 106.3C222.589 108.025 226.616 110.693 227.688 106.535C228.76 109.725 234.147 109.725 235.115 107.346C236.344 109.725 240.606 108.941 242.463 107.45C242.515 107.581 242.515 107.686 242.463 107.764Z" fill="#F6B17A"/>
<path d="M230.748 112.707C230.225 112.68 229.545 112.89 229.44 113.465C229.335 114.04 229.231 115.478 229.257 115.74C229.309 116.106 230.042 116.237 231.009 116.211C231.977 116.184 232.552 115.975 232.447 115.4C232.369 114.825 232.186 113.883 232.055 113.465C231.924 113.046 231.794 112.733 230.748 112.707Z" fill="#FBDCC7"/>
<path d="M237.494 109.778C237.102 109.673 236.5 109.699 236.317 110.196C236.134 110.667 235.768 111.844 235.742 112.079C235.716 112.393 236.265 112.628 237.05 112.785C237.808 112.942 238.305 112.837 238.357 112.367C238.409 111.87 238.436 111.059 238.409 110.667C238.383 110.275 238.305 110.013 237.494 109.778Z" fill="#FBDCC7"/>
<path d="M224.733 111.111C225.204 111.085 225.831 111.268 225.936 111.817C226.014 112.367 226.119 113.648 226.093 113.909C226.067 114.249 225.387 114.354 224.498 114.354C223.609 114.328 223.086 114.119 223.164 113.596C223.242 113.073 223.399 112.21 223.53 111.817C223.661 111.425 223.765 111.137 224.733 111.111Z" fill="#FBDCC7"/>
<path d="M218.98 108.81C219.32 108.81 219.765 108.915 219.843 109.307C219.895 109.699 219.974 110.641 219.974 110.824C219.948 111.059 219.451 111.137 218.823 111.137C218.196 111.111 217.803 110.98 217.856 110.588C217.908 110.222 218.013 109.595 218.117 109.307C218.196 109.045 218.274 108.836 218.98 108.81Z" fill="#FBDCC7"/>
<path d="M221.438 105.881C221.438 105.881 221.517 106.3 221.595 106.927C221.621 107.241 221.621 107.607 221.621 108.026C221.595 108.418 221.595 108.836 221.595 109.255C221.569 109.673 221.543 110.091 221.569 110.458C221.569 110.85 221.569 111.216 221.621 111.504C221.621 111.66 221.647 111.791 221.647 111.922C221.673 112.053 221.673 112.157 221.7 112.262C221.726 112.445 221.752 112.55 221.752 112.55C221.752 112.55 221.7 112.445 221.621 112.288C221.569 112.21 221.517 112.105 221.49 111.974C221.438 111.844 221.386 111.713 221.334 111.556C221.229 111.242 221.177 110.876 221.124 110.484C221.098 110.091 221.072 109.647 221.098 109.229C221.124 108.81 221.177 108.392 221.203 107.999C221.255 107.607 221.307 107.241 221.334 106.927C221.386 106.3 221.438 105.881 221.438 105.881Z" fill="#6B3B30"/>
<path d="M227.635 106.038C227.635 106.038 227.635 106.195 227.662 106.43C227.688 106.692 227.714 107.032 227.766 107.476C227.792 107.895 227.845 108.418 227.897 108.941C227.923 109.49 227.975 110.065 227.975 110.64C227.949 111.216 227.949 111.817 227.871 112.366C227.845 112.497 227.845 112.628 227.818 112.759C227.792 112.889 227.766 113.02 227.74 113.151C227.714 113.282 227.688 113.386 227.662 113.517C227.635 113.569 227.635 113.622 227.609 113.7C227.583 113.752 227.557 113.805 227.557 113.857C227.479 114.066 227.374 114.249 227.295 114.406C227.217 114.563 227.165 114.694 227.112 114.824C227.034 115.06 227.008 115.191 227.008 115.191C227.008 115.191 227.034 115.034 227.06 114.798C227.086 114.668 227.112 114.511 227.165 114.354C227.217 114.171 227.269 113.988 227.295 113.778C227.295 113.726 227.322 113.674 227.322 113.622C227.322 113.569 227.348 113.517 227.348 113.465C227.374 113.36 227.374 113.229 227.4 113.125C227.426 112.994 227.426 112.889 227.452 112.759C227.452 112.628 227.452 112.497 227.479 112.366C227.531 111.843 227.531 111.268 227.505 110.693C227.505 110.117 227.505 109.542 227.479 108.993C227.479 108.444 227.479 107.947 227.505 107.502C227.531 107.058 227.583 106.692 227.609 106.456C227.609 106.195 227.635 106.038 227.635 106.038Z" fill="#6B3B30"/>
<path d="M235.036 106.692C235.036 106.692 235.088 107.293 235.245 108.182C235.298 108.627 235.35 109.15 235.428 109.699C235.481 110.248 235.507 110.85 235.507 111.477C235.481 112.079 235.428 112.68 235.35 113.256C235.219 113.805 235.088 114.328 234.905 114.746C234.853 114.851 234.801 114.955 234.775 115.034C234.722 115.112 234.67 115.217 234.618 115.295C234.513 115.452 234.435 115.583 234.356 115.688C234.199 115.897 234.095 116.001 234.095 116.001C234.095 116.001 234.173 115.871 234.278 115.635C234.33 115.531 234.409 115.374 234.461 115.217C234.487 115.138 234.513 115.034 234.565 114.955C234.592 114.851 234.618 114.746 234.644 114.641C234.775 114.223 234.879 113.726 234.932 113.177C235.01 112.628 235.01 112.053 235.01 111.451C235.036 110.876 235.01 110.274 234.984 109.725C234.984 109.176 234.984 108.653 234.984 108.182C234.958 107.293 235.036 106.692 235.036 106.692Z" fill="#6B3B30"/>
<path fill-rule="evenodd" clip-rule="evenodd" d="M218.274 405.587L215.319 425.984L213.933 440.105L210.194 448.473C210.194 448.473 206.454 446.904 206.533 446.041C206.611 445.178 206.977 435.398 206.977 434.09C206.977 432.783 207.5 430.089 207.317 429.383C206.454 430.246 201.224 433.75 201.224 433.75L198.714 434.979L194.164 437.228L189.457 440.105C189.457 440.105 185.587 441.647 184.436 441.7C183.338 441.726 180.121 443.426 181.429 438.719C182.736 434.012 187.626 411.444 187.626 411.444L192.412 396.983L200.884 385.765L202.349 383.83L217.856 372.245L218.274 405.587Z" fill="#706D6D"/>
<path fill-rule="evenodd" clip-rule="evenodd" d="M258.415 252.008C257.604 249.968 256.846 246.333 255.617 246.647C253.708 247.117 254.126 249.942 254.623 251.537C255.878 255.642 252.792 263.252 257.839 260.611L258.415 252.243" fill="#F6B17A"/>
<path fill-rule="evenodd" clip-rule="evenodd" d="M296.881 262.363C296.829 263.383 296.698 265.658 296.541 268.43C296.175 274.523 295.573 283.1 295.077 286.369C294.998 286.866 294.946 287.232 294.867 287.441C292.331 288.67 281.871 295.207 278.994 295.469C274.993 294.318 264.873 286.996 260.611 283.832C259.408 282.943 258.676 282.394 258.676 282.394C259.042 279.753 259.46 272.039 259.042 264.246C258.963 262.729 258.833 261.212 258.676 259.748L296.881 262.363Z" fill="#F6B17A"/>
<path fill-rule="evenodd" clip-rule="evenodd" d="M257.316 245.548C257.813 251.484 257.578 255.355 257.316 259.146C257.055 262.938 258.885 265.684 264.246 269.214C266.443 270.365 269.868 268.56 272.483 269.214C275.098 269.868 281.243 270.835 284.042 269.868C284.878 269.606 292.148 273.764 295.495 270.286C298.842 266.808 304.203 256.27 304.386 249.915C304.569 243.561 305.955 224.994 298.712 221.072C291.468 217.149 273.608 210.089 264.795 221.072C255.983 232.055 257.159 243.535 257.316 245.548Z" fill="#F6B17A"/>
<path fill-rule="evenodd" clip-rule="evenodd" d="M277.791 248.111C277.634 247.039 275.307 246.62 274 247.196C271.228 248.399 263.801 248.346 264.376 252.609C264.664 254.727 265.762 256.322 265.684 255.93C264.899 252.007 266.39 250.621 269.162 250.255C271.96 249.915 275.621 248.739 276.301 249.602C277.007 250.464 280.04 250.595 281.086 249.811C282.132 249.026 287.179 251.667 288.591 253.053C289.977 254.439 292.069 255.328 290.5 258.022C290.239 258.545 293.56 256.218 292.069 254.099C289.611 250.621 285.898 248.869 283.91 247.745C282.132 246.751 279.857 247.143 279.726 247.928C279.622 248.843 277.896 248.817 277.791 248.111Z" fill="#5E423B"/>
<path fill-rule="evenodd" clip-rule="evenodd" d="M265.423 258.545C264.298 260.532 265.998 264.612 268.639 267.384C272.248 271.149 282.42 271.568 285.898 268.116C288.905 265.108 290.396 262.363 289.481 260.14C288.618 258.022 286.735 262.284 283.623 264.638C280.354 267.122 273.477 266.338 270.705 263.043C268.221 260.114 266.469 256.714 265.423 258.545Z" fill="#5E423B"/>
<path d="M275.019 238.043C274.758 238.017 274.601 237.991 274.34 237.703C274.078 237.39 273.137 235.899 270.914 235.559C268.691 235.219 267.384 236.396 266.965 236.736C266.573 237.076 265.579 238.226 265.318 238.279C266.181 238.096 267.488 237.782 267.985 237.677C270.26 237.285 271.202 237.363 272.588 237.625C273.79 237.808 274.261 238.593 274.732 238.331C274.81 238.279 275.019 238.043 275.019 238.043Z" fill="#231310"/>
<path d="M284.538 238.985C284.8 239.011 285.087 239.142 285.401 238.906C285.715 238.671 286.97 237.416 289.219 237.625C291.468 237.834 292.331 239.299 292.645 239.743C292.958 240.162 293.638 241.391 293.9 241.495C293.115 241.103 291.834 240.554 291.363 240.345C289.245 239.429 288.147 239.377 286.839 239.272C285.61 239.168 285.296 239.795 284.904 239.429C284.852 239.325 284.538 238.985 284.538 238.985Z" fill="#231310"/>
<path fill-rule="evenodd" clip-rule="evenodd" d="M274.888 238.2C274.679 238.462 274.418 238.436 274.078 238.226C273.999 238.174 273.921 238.122 273.842 238.043C273.529 237.782 272.744 237.468 271.724 237.337C271.384 237.285 270.992 237.259 270.626 237.259C270.208 237.259 269.763 237.233 269.371 237.259C268.325 237.39 267.959 237.337 266.808 237.599C267.566 237.206 267.776 236.631 269.135 236.16C269.58 236.004 270.103 235.899 270.704 235.925C270.783 235.925 270.861 235.925 270.914 235.951C271.332 236.004 271.672 236.082 272.012 236.187C273.346 236.631 273.921 237.468 274.261 237.808L274.287 237.834C274.705 238.2 275.15 237.86 274.888 238.2Z" fill="#F2E9E7"/>
<path fill-rule="evenodd" clip-rule="evenodd" d="M292.645 240.475C291.52 239.926 291.207 239.9 290.134 239.534C289.873 239.456 289.507 239.403 289.219 239.325C289.219 239.325 289.193 239.325 289.167 239.325C289.088 239.299 289.01 239.299 288.932 239.273C288.513 239.168 288.147 239.142 287.807 239.116C287.676 239.116 287.572 239.116 287.441 239.089C286.709 239.063 286.107 239.168 285.82 239.325C285.715 239.377 285.611 239.429 285.532 239.456C285.192 239.586 284.904 239.56 284.774 239.246C284.617 238.88 284.931 239.273 285.401 239.063C285.427 239.063 285.454 239.037 285.506 239.011C285.872 238.776 286.5 238.227 287.624 238.017C288.069 237.939 288.565 237.913 289.167 237.991C289.559 238.044 289.951 238.2 290.265 238.383C291.886 239.377 291.965 239.822 292.645 240.475Z" fill="#F2E9E7"/>
<path fill-rule="evenodd" clip-rule="evenodd" d="M278.184 238.383C278.89 237.102 279.256 232.918 277.085 231.82C274.915 230.721 271.829 228.891 265.37 231.558C264.847 231.95 263.697 228.551 264.952 226.825C266.861 224.21 268.901 221.647 279.831 221.177C290.762 220.706 298.555 228.211 298.738 231.218C298.921 234.226 297.692 235.69 298.738 238.488C299.784 241.286 299.47 242.855 299.522 243.247C299.574 243.64 298.816 239.717 296.332 236.841C293.848 233.964 286.343 231.14 284.277 233.31C282.211 235.455 282.446 238.305 282.629 238.776C283.126 240.083 285.27 244.633 294.763 243.613C298.11 243.247 296.959 247.954 296.881 250.386C296.986 251.432 293.665 251.171 293.795 254.361C293.743 255.198 289.297 247.091 285.061 244.738C284.486 244.319 284.957 246.281 284.277 246.202C282.682 245.993 284.015 242.672 281.426 242.437C280.433 242.384 280.328 244.163 279.282 244.058C278.236 243.953 278.654 241.992 277.425 241.94C275.595 241.835 274.157 244.79 274.052 244.084C273.791 242.306 276.353 241.678 278.184 238.383Z" fill="#FFCA9E"/>
<path fill-rule="evenodd" clip-rule="evenodd" d="M270.312 257.237C271.149 257.054 273.372 255.616 275.856 255.668C282.446 255.799 285.113 257.63 287.937 257.63C289.716 257.577 286.055 260.062 283.44 259.277C280.825 258.493 277.87 257.211 275.987 257.551C272.692 258.231 267.514 257.787 270.312 257.237Z" fill="#FFCA9E"/>
<path fill-rule="evenodd" clip-rule="evenodd" d="M272.745 261.5C272.745 262.337 273.791 264.298 279.491 264.246C285.192 264.193 285.794 261.814 284.591 260.872C284.015 260.532 281.793 261.5 279.805 261.5C275.386 261.5 272.745 258.859 272.745 261.5Z" fill="#FFCA9E"/>
<path fill-rule="evenodd" clip-rule="evenodd" d="M263.854 256.061C262.991 255.276 262.049 251.981 261.814 247.693C261.736 246.019 261.683 244.607 262.232 243.613C262.886 242.436 264.429 240.841 265.867 240.763C267.306 240.684 274 239.978 273.974 241.024C273.948 241.495 273.817 242.253 274.235 243.299C272.98 243.587 272.928 244.215 272.719 244.921C270.574 245.182 264.429 247.745 264.194 250.752C263.958 253.759 265.292 257.368 263.854 256.061Z" fill="#FFCA9E"/>
<path fill-rule="evenodd" clip-rule="evenodd" d="M272.012 236.448C272.012 236.788 271.907 237.076 271.724 237.337C271.384 237.285 270.992 237.259 270.626 237.259C270.208 237.259 269.763 237.233 269.371 237.259C269.214 237.023 269.109 236.736 269.109 236.448C269.109 236.344 269.109 236.265 269.136 236.16C269.58 236.004 270.103 235.899 270.705 235.925C270.783 235.925 270.861 235.925 270.914 235.951C271.332 236.004 271.672 236.082 272.012 236.187C272.012 236.265 272.012 236.344 272.012 236.448Z" fill="#3A140A"/>
<path fill-rule="evenodd" clip-rule="evenodd" d="M265.057 272.927C266.024 275.882 270.993 287.258 271.306 288.879C271.254 286.342 267.489 276.588 265.057 272.927Z" fill="#6B3B30"/>
<path fill-rule="evenodd" clip-rule="evenodd" d="M290.317 274.941C289.193 277.844 283.597 288.905 283.178 290.526C283.387 287.99 287.702 278.445 290.317 274.941Z" fill="#6B3B30"/>
<path fill-rule="evenodd" clip-rule="evenodd" d="M290.318 238.802C290.318 239.063 290.239 239.325 290.108 239.56C289.847 239.481 288.121 239.168 287.781 239.142C287.65 239.142 287.546 239.142 287.415 239.115C287.389 239.011 287.389 238.906 287.389 238.802C287.389 238.514 287.467 238.252 287.598 238.043C288.042 237.965 288.539 237.939 289.141 238.017C289.533 238.069 289.925 238.226 290.239 238.409C290.318 238.514 290.318 238.645 290.318 238.802Z" fill="#3A140A"/>
<path fill-rule="evenodd" clip-rule="evenodd" d="M285.166 338.773C284.381 344.003 280.851 366.885 281.374 372.376C281.897 377.868 289.219 433.358 290.265 441.203C270.522 445.596 229.649 443.033 212.129 435.45C210.56 431.266 211.998 423.813 213.305 419.629C214.613 415.445 215.737 396.434 216.26 393.296C216.783 390.158 215.999 374.991 215.999 372.115C215.999 369.238 231.166 353.81 238.488 344.919C245.81 336.028 262.807 306.217 261.5 299.941C260.192 293.665 259.016 279.021 259.016 279.021C259.931 280.38 266.076 284.381 268.613 285.741C270.234 286.604 273.084 288.722 275.229 290.239C276.458 291.102 277.425 291.782 277.791 291.886C278.105 291.834 279.334 291.442 281.008 290.919C285.95 289.35 294.684 286.369 295.129 285.898C295.678 285.689 296.881 285.48 296.855 289.951C296.855 293.429 293.9 301.143 292.854 304.386C291.808 307.629 285.95 333.543 285.166 338.773Z" fill="#E0E0E7"/>
<path fill-rule="evenodd" clip-rule="evenodd" d="M209.644 452.709C208.86 452.055 206.245 450.407 206.036 450.172C205.722 449.858 206.742 445.204 206.689 444.89C206.637 444.576 209.697 446.459 210.926 447.505C212.155 448.551 209.644 452.709 209.644 452.709Z" fill="#303D51"/>
<path opacity="0.2" d="M264.037 351.194C259.879 343.663 257.63 321.436 262.415 322.037C262.964 322.116 264.507 332.21 268.037 337.256C264.952 330.954 263.017 311.603 263.2 308.675C263.2 308.675 245.287 333.7 238.75 339.453C232.212 345.206 215.999 358.804 212.129 365.08C208.259 371.356 209.148 418.112 207.762 425.277C206.376 432.442 211.423 434.639 213.776 436.783C216.13 438.928 218.692 437.359 217.123 435.031C215.554 432.704 215.031 428.546 215.633 429.461C216.234 430.377 218.928 433.698 218.248 432.835C217.568 431.972 215.293 425.983 215.659 423.316C216.051 420.649 217.856 426.036 218.902 429.043C219.948 432.05 218.692 425.434 217.463 419.367C216.496 414.66 216.522 408.463 216.967 405.56C217.777 415.131 220.445 424.441 225.622 432.599C223.766 429.2 221.438 420.936 221.229 419.89C219.974 413.719 220.889 402.239 220.837 400.043C220.784 397.846 219.451 392.773 221.674 391.884C223.896 390.995 224.367 394.107 225.021 395.78C225.675 397.454 228.839 397.375 228.185 394.342C227.531 391.309 228.865 390.289 229.859 393.401C230.852 396.512 234.618 402.056 233.206 397.166C231.794 392.276 232.866 393.139 235.141 402.213C237.73 412.778 237.991 425.539 245.679 434.011C238.41 425.042 238.697 411.967 235.978 401.272C233.676 392.25 232.343 382.784 228.603 374.233C229.074 373.03 230.277 372.82 230.931 372.716C231.846 372.585 232.709 376.952 233.859 377.083C235.01 377.214 235.481 375.017 236.736 375.383C238.096 375.775 248.556 403.913 257.185 416.569C249.602 403.73 240.109 378.652 239.351 376.952C238.305 374.599 234.644 364.792 235.821 363.354C236.997 361.916 237.782 365.577 238.828 370.284C239.874 374.991 241.443 367.538 241.312 364.531C241.181 361.524 241.181 361.654 242.358 364.792C242.62 365.498 245.941 375.383 248.503 379.541C252.426 385.974 257.159 391.805 261.526 397.924C257.708 391.492 253.184 385.477 249.393 379.018C246.751 374.939 243.744 363.223 243.378 361.524C242.724 358.386 243.378 354.202 244.424 353.156C245.47 352.11 244.947 356.032 246.255 357.209C247.562 358.386 249.654 344.003 254.413 333.674C255.904 330.484 257.028 328.078 257.97 326.3C257.63 334.929 258.859 344.186 264.037 351.194Z" fill="black"/>
<path fill-rule="evenodd" clip-rule="evenodd" d="M263.802 234.356C264.978 232.552 266.024 230.695 269.162 230.904C272.3 231.114 275.7 230.774 277.06 232.944C277.452 233.598 274.758 233.206 272.483 232.892C270.208 232.578 267.384 232.369 266.207 233.284C265.031 234.199 263.305 235.088 263.802 234.356Z" fill="#332930"/>
<path fill-rule="evenodd" clip-rule="evenodd" d="M296.306 238.2C295.574 236.161 295.156 234.644 292.41 233.859C289.377 232.996 285.559 231.715 284.382 233.65C283.859 234.199 285.899 234.513 288.2 234.722C290.501 234.931 293.587 235.742 294.528 236.919C295.443 238.096 296.594 239.011 296.306 238.2Z" fill="#332930"/>
<path fill-rule="evenodd" clip-rule="evenodd" d="M277.425 243.613C276.588 243.849 274.706 245.13 275.359 245.653C276.013 246.176 277.425 243.613 277.425 243.613Z" fill="#26140B"/>
<path fill-rule="evenodd" clip-rule="evenodd" d="M280.354 243.927C281.138 244.162 282.864 245.391 282.263 245.914C281.662 246.437 280.354 243.927 280.354 243.927Z" fill="#26140B"/>
<path opacity="0.7" fill-rule="evenodd" clip-rule="evenodd" d="M274.889 238.2C274.68 238.462 274.418 238.436 274.078 238.226C274.157 238.096 274.235 237.991 274.261 237.834C274.706 238.2 275.15 237.86 274.889 238.2Z" fill="#B13F43"/>
<path opacity="0.7" fill-rule="evenodd" clip-rule="evenodd" d="M285.532 239.456C285.192 239.586 284.904 239.56 284.774 239.247C284.617 238.88 284.931 239.273 285.401 239.063C285.427 239.194 285.454 239.351 285.532 239.456Z" fill="#B13F43"/>
<path d="M270.496 237.233C270.842 237.233 271.123 236.952 271.123 236.605C271.123 236.259 270.842 235.978 270.496 235.978C270.149 235.978 269.868 236.259 269.868 236.605C269.868 236.952 270.149 237.233 270.496 237.233Z" fill="black"/>
<path d="M288.801 239.325C289.148 239.325 289.429 239.044 289.429 238.697C289.429 238.351 289.148 238.07 288.801 238.07C288.454 238.07 288.173 238.351 288.173 238.697C288.173 239.044 288.454 239.325 288.801 239.325Z" fill="black"/>
<path d="M287.807 256.296C287.807 256.296 287.545 258.074 282.001 257.211C276.458 256.348 272.901 256.662 271.515 256.296C270.129 255.93 268.063 254.596 267.828 254.073C268.639 253.315 271.463 250.779 273.738 250.962C276.013 251.145 277.817 251.641 278.811 251.432C279.805 251.223 283.518 251.563 284.329 252.374" fill="#591311"/>
<path fill-rule="evenodd" clip-rule="evenodd" d="M270.338 252.818C274.235 250.256 280.877 249.994 285.584 254.413C285.636 255.146 285.532 255.459 284.747 255.799C279.7 253.106 273.607 253.864 272.326 254.387C271.097 254.91 270.338 252.818 270.338 252.818Z" fill="#EA9188"/>
<path fill-rule="evenodd" clip-rule="evenodd" d="M302.451 254.884C301.248 257.499 298.319 265.527 298.084 266.939C297.848 268.351 294.998 271.516 287.415 270.862C293.351 270.443 294.815 269.737 296.829 267.515C298.528 265.606 298.554 261.552 302.451 254.884Z" fill="#6B3B30"/>
<path fill-rule="evenodd" clip-rule="evenodd" d="M271.149 254.832C271.097 254.439 271.071 253.838 271.254 253.629C271.515 253.315 272.012 253.498 272.169 253.733C272.143 253.367 272.012 252.923 272.614 252.714C273.111 252.557 273.451 252.661 273.738 252.949C273.869 252.583 274.026 252.243 274.732 252.217C274.941 252.191 275.359 252.269 275.621 252.661C275.882 252.164 276.379 252.06 276.85 252.086C277.321 252.112 277.818 252.4 277.948 252.818C278.184 252.347 278.942 252.295 279.23 252.321C280.223 252.478 280.459 253.001 280.485 253.498C280.799 253.001 281.4 252.923 281.975 253.132C282.446 253.315 282.629 254.1 282.681 254.361C282.891 254.204 283.178 253.812 283.623 254.047C284.303 254.387 284.172 255.172 284.12 255.407C284.224 255.067 284.93 254.518 285.087 255.459C285.14 255.773 285.035 256.871 284.617 256.688C284.198 256.505 283.701 256.191 283.701 256.035C283.518 256.165 282.211 255.799 282.342 255.224C282.185 255.616 281.609 255.459 281.086 255.329C280.066 255.041 280.276 254.387 280.276 254.387C279.962 255.302 278.027 254.884 277.791 254.309C277.556 254.884 275.752 254.675 275.569 254.23C275.281 254.701 274.078 254.596 273.947 254.178C273.817 255.146 272.64 255.198 272.326 254.91C272.169 255.25 271.332 255.904 271.149 254.832Z" fill="#F4F2E9"/>
<path fill-rule="evenodd" clip-rule="evenodd" d="M272.379 256.741C272.091 256.767 272.562 255.956 272.692 255.799C272.902 255.564 273.294 255.695 273.425 255.852C273.398 255.59 273.294 255.276 273.765 255.146C274.157 255.041 274.418 255.119 274.654 255.302C274.758 255.041 274.889 254.832 275.438 254.779C275.621 254.779 275.935 254.832 276.144 255.093C276.353 254.753 276.746 254.675 277.112 254.675C277.478 254.675 277.896 254.884 277.975 255.172C278.158 254.858 278.759 254.806 278.995 254.832C279.779 254.936 279.962 255.302 280.014 255.642C280.25 255.302 280.747 255.224 281.191 255.381C281.557 255.512 281.714 256.061 281.766 256.244C281.923 256.139 282.159 255.852 282.525 256.008C283.074 256.244 283.074 256.715 283.048 256.898C283.126 256.662 283.702 256.584 283.78 256.898C283.832 257.107 283.78 257.682 283.44 257.63C283.1 257.577 282.629 257.473 282.629 257.342C282.499 257.421 281.453 257.185 281.531 256.793C281.348 256.95 280.956 256.871 280.564 256.767C279.988 256.61 279.91 256.244 279.91 256.244C279.674 256.871 278.132 256.61 277.949 256.192C277.766 256.584 276.353 256.453 276.197 256.139C275.987 256.453 275.02 256.401 274.915 256.113C274.863 256.453 273.895 256.819 273.634 256.636C273.215 256.741 272.745 256.688 272.379 256.741Z" fill="#C4B2A1"/>
<path d="M218.274 405.586L215.319 425.983L213.933 440.104L210.194 448.472C210.194 448.472 206.454 446.903 206.533 446.041C206.611 445.178 206.977 435.397 206.977 434.09C206.977 432.782 207.5 430.089 207.317 429.383C206.454 430.246 201.224 433.75 201.224 433.75L198.714 434.979C198.243 429.697 196.517 424.519 195.027 422.139C192.412 417.955 196.936 409.587 198.871 404.88C200.571 400.723 200.388 391.884 200.911 385.712L202.375 383.777L217.882 372.193L218.274 405.586Z" fill="#444444"/>
<path d="M212.207 433.75C212.207 435.136 212.259 440.471 211.004 444.655C208.337 452.944 200.047 466.804 200.309 474.91C200.57 483.017 201.904 523.026 201.904 523.026H260.48C260.48 523.026 263.879 509.951 264.925 511.259C265.971 512.566 266.233 522.242 267.279 523.026H326.901C326.901 519.757 329.385 501.714 326.247 493.215C323.109 484.716 294.03 451.82 292.827 446.59C286.368 445.361 240.711 444.315 229.361 441.883C218.012 439.398 212.207 433.75 212.207 433.75Z" fill="#3C4D68"/>
<path d="M286.892 450.251C289.664 463.299 297.692 498.68 310.584 499.726C315.291 500.066 324.548 495.752 326.509 493.973C320.181 485.422 298.921 444.288 298.921 444.288L286.892 450.251Z" fill="#2D3A4C"/>
<path d="M224.68 436.443C227.871 437.019 243.456 440.104 250.569 440.941C257.682 441.778 284.172 441.15 289.532 440.287C289.742 441.464 291.049 449.754 291.049 449.754C291.049 449.754 280.458 451.061 273.999 451.061C258.362 451.061 252.033 450.067 245.444 448.917C238.854 447.766 215.371 443.739 211.919 441.987C211.605 440.993 212.05 434.404 212.05 433.933C214.037 434.482 224.68 436.443 224.68 436.443Z" fill="#161718"/>
<path fill-rule="evenodd" clip-rule="evenodd" d="M262.807 315.107C259.669 319.814 250.439 338.825 249.209 342.303C247.98 345.781 248.347 349.965 244.686 352.057C241.025 354.149 202.924 383.882 201.878 386.758C200.832 389.635 191.941 399.31 190.372 407.155C188.803 415 183.05 439.058 182.788 441.412C184.828 441.883 186.188 440.941 187.182 440.837C188.175 440.732 191.627 438.222 193.065 436.443C194.504 434.665 194.111 434.744 195.89 434.613C197.668 434.482 199.943 433.358 200.727 432.573C201.512 431.789 204.258 431.213 204.65 430.167C204.964 429.592 206.663 429.383 207.369 429.331C207.396 430.743 207.134 432.782 207.134 432.782C207.134 432.782 205.748 432.286 202.427 434.534C199.106 436.81 194.059 437.751 191.444 439.764C188.829 441.778 182.553 444.55 179.154 445.073C175.754 445.596 174.185 447.688 175.754 439.843C177.323 431.998 186.136 403.494 187.522 400.016C188.908 396.539 195.89 377.004 196.936 372.82C197.982 368.636 203.735 349.992 206.167 345.624C208.599 341.257 215.764 314.767 214.195 308.675C209.148 302.215 203.604 293.429 202.689 289.114C201.773 284.8 200.335 280.616 199.158 277.216C197.982 273.817 191.836 259.042 191.836 253.812C191.836 248.582 191.052 246.228 189.744 243.221C188.437 240.214 186.737 232.238 187.652 226.485C188.437 221.569 189.221 211.266 189.744 206.846C189.849 206.088 189.927 205.513 190.006 205.173C190.66 198.897 195.236 180.984 195.105 177.454C194.974 173.924 193.144 169.478 194.974 169.74C196.753 170.001 198.871 169.87 200.91 169.635C200.989 169.635 201.067 169.609 201.12 169.609C203.212 169.347 220.863 172.093 223.347 178.892C222.301 185.953 220.34 189.483 219.948 194.19C219.555 198.897 216.025 214.064 216.81 217.594C219.948 234.67 227.008 245.391 227.008 248.006C227.453 252.452 228.917 254.099 229.623 256.035C230.329 257.943 234.592 272.065 235.638 270.862C236.684 269.633 242.097 262.494 246.961 265.972C248.53 266.678 257.159 272.954 259.042 279.047C260.925 285.218 269.45 300.646 269.973 302.399C270.469 304.124 265.945 310.4 262.807 315.107Z" fill="#3C4D68"/>
<path fill-rule="evenodd" clip-rule="evenodd" d="M307.315 267.253C307.315 268.22 307.524 270.966 307.053 270.966C306.583 270.966 299.104 271.803 298.215 271.908C297.352 271.986 297.117 270.992 297.064 269.946C297.012 268.9 297.064 257.63 297.064 256.845C297.064 256.061 296.724 255.224 298.136 255.224C299.522 255.224 307.367 255.538 307.367 255.538L307.315 267.253Z" fill="#363837"/>
<path d="M279.858 250.988C278.733 251.118 277.818 251.04 277.033 250.778C271.463 249.34 269.581 252.609 266.887 253.89C266.887 253.89 267.986 257.133 274.209 256.871C276.17 256.793 279.361 256.845 281.923 257.551C284.486 258.257 287.258 257.63 288.722 256.348C287.18 255.119 285.323 250.282 279.858 250.988ZM280.825 256.558C278.968 256.061 276.667 256.113 275.255 256.165C270.757 256.348 268.352 254.335 268.352 254.335C268.822 253.969 272.536 250.491 277.269 251.903C277.844 252.086 278.341 251.929 279.152 251.824C283.074 251.328 287.023 255.616 287.415 256.192C286.317 257.107 282.682 257.054 280.825 256.558Z" fill="#CC715C"/>
<path d="M269.92 236.893C270.036 236.893 270.129 236.799 270.129 236.684C270.129 236.568 270.036 236.474 269.92 236.474C269.805 236.474 269.711 236.568 269.711 236.684C269.711 236.799 269.805 236.893 269.92 236.893Z" fill="white"/>
<path d="M288.225 238.723C288.341 238.723 288.435 238.63 288.435 238.514C288.435 238.399 288.341 238.305 288.225 238.305C288.11 238.305 288.016 238.399 288.016 238.514C288.016 238.63 288.11 238.723 288.225 238.723Z" fill="white"/>
<path fill-rule="evenodd" clip-rule="evenodd" d="M266.861 238.802C268.299 237.625 271.149 237.18 272.875 238.514C273.241 238.88 272.823 238.985 271.855 238.776C270.234 238.436 269.057 238.357 266.861 238.802Z" fill="#FFCA9E"/>
<path fill-rule="evenodd" clip-rule="evenodd" d="M286.29 240.24C287.232 240.083 290.474 239.246 292.514 242.123C293.037 242.724 292.671 242.541 291.154 241.914C290.082 241.443 288.749 240.972 287.232 240.815C285.951 240.632 285.297 240.397 286.29 240.24Z" fill="#FFCA9E"/>
<path d="M233.964 438.013C233.624 438.091 233.519 448.682 233.362 450.12C233.362 450.774 234.591 450.721 236.37 450.643C236.5 449.597 236.422 438.692 237.102 438.614C237.494 438.562 235.951 437.568 233.964 438.013Z" fill="#3C4D68"/>
<path d="M276.667 450.617L275.046 450.669L274.968 442.223L276.667 442.196V440.889C276.667 440.889 261.056 441.072 259.591 441.072C258.101 441.072 258.101 440.994 258.101 441.909C258.101 442.824 258.101 450.852 258.101 450.852C258.101 450.852 257.656 451.95 260.01 452.029C262.52 452.134 269.842 452.16 276.72 451.872L276.667 450.617Z" fill="#999790"/>
<path d="M277.975 441.02V451.61L280.851 451.375V440.889L277.975 441.02Z" fill="#AFAEAA"/>
<path d="M271.96 444.288H261.239V449.257H271.96V444.288Z" fill="#BFB299"/>
<path fill-rule="evenodd" clip-rule="evenodd" d="M265.318 239.325C266.259 239.9 271.358 240.292 273.424 239.795C271.908 240.528 267.959 241.208 265.318 239.325Z" fill="#C98655"/>
<path fill-rule="evenodd" clip-rule="evenodd" d="M292.984 243.273C291.938 243.483 287.205 242.123 285.505 240.998C286.604 242.175 289.951 244.084 292.984 243.273Z" fill="#C98655"/>
<path d="M274.549 247.039C272.823 247.039 273.242 244.712 274.261 243.483C273.765 244.947 273.137 246.124 274.549 247.039Z" fill="#6B3B30"/>
<path d="M283.309 247.562C285.035 247.562 284.617 245.235 283.597 244.006C284.067 245.47 284.695 246.647 283.309 247.562Z" fill="#6B3B30"/>
<path fill-rule="evenodd" clip-rule="evenodd" d="M257.761 248.608C257.944 251.484 257.604 259.486 257.368 260.898C257.028 262.912 261.762 269.293 266.181 269.606C263.095 268.534 259.147 264.978 258.074 262.18C257.133 259.774 258.964 256.218 257.761 248.608Z" fill="#6B3B30"/>
<path fill-rule="evenodd" clip-rule="evenodd" d="M257.499 252.007C257.238 251.641 256.218 252.138 255.878 252.766C255.564 253.393 254.623 255.878 255.878 255.956C257.499 256.061 256.113 254.518 256.375 253.733C256.741 252.478 257.709 252.321 257.499 252.007Z" fill="#6B3B30"/>
<path fill-rule="evenodd" clip-rule="evenodd" d="M256.244 247.379C255.721 247.17 255.434 247.17 255.041 247.562C254.597 248.007 254.414 249.21 254.754 250.229C255.094 251.223 255.172 251.825 255.172 252.086C255.329 251.38 255.25 250.151 255.12 249.654C254.989 249.157 254.963 247.85 255.46 247.902C255.904 247.954 256.244 247.379 256.244 247.379Z" fill="#6B3B30"/>
<path fill-rule="evenodd" clip-rule="evenodd" d="M305.694 226.825C305.929 223.504 306.086 220.941 306.112 220.497C306.06 220.941 305.432 222.301 305.354 222.458C305.798 221.072 305.432 218.692 305.432 218.692C305.354 218.849 305.092 219.32 304.883 219.686C304.857 219.738 304.831 219.791 304.804 219.817C304.857 219.738 304.883 219.66 304.909 219.555C305.04 219.163 305.118 218.692 305.171 218.326C305.223 217.934 305.223 217.646 305.223 217.646L304.804 218.143C305.014 217.829 304.412 215.79 304.412 215.79C304.465 216.051 303.732 217.254 303.732 217.254C303.968 215.711 303.602 214.195 303.602 214.195C303.392 214.587 302.739 215.293 302.739 215.293C302.922 214.325 301.51 212.704 301.431 212.626C301.719 213.201 301.065 214.038 301.065 214.038C300.882 213.175 299.522 211.135 298.999 210.69C299.182 210.952 298.895 211.266 298.921 211.946C298.607 211.475 297.482 210.324 297.012 209.252C297.064 209.514 296.907 209.827 296.62 210.821C296.123 209.514 295.312 208.677 295.312 208.677C295.312 208.677 295.338 209.461 294.894 210.063C294.867 210.089 294.841 210.115 294.815 210.141C294.318 210.743 293.978 208.546 292.932 207.239C292.88 207.945 292.671 208.232 292.514 208.755C292.331 208.258 291.939 207.239 291.416 206.585C291.207 207.448 290.919 207.474 290.683 207.186C290.553 207.029 290.422 206.794 290.291 206.533C289.977 205.8 289.768 205.173 288.644 203.97C289.115 205.983 289.036 207.343 286.918 204.179C286.839 206.585 285.82 204.074 284.224 203.081C284.8 203.996 284.617 205.199 284.198 205.042C283.44 204.258 283.1 203.081 282.132 202.192C282.708 204.467 282.499 205.617 282.08 205.487C281.322 205.251 281.426 204.101 281.505 201.695C280.642 203.264 280.25 204.231 280.119 205.434C279.805 204.781 279.177 203.944 279.073 202.453C279.073 202.453 277.452 204.362 277.556 205.591C277.556 205.591 276.798 205.617 276.929 203.316C276.929 203.316 275.621 205.225 275.543 206.323C275.543 206.323 274.706 205.8 274.497 204.127C274.497 204.127 273.764 205.016 273.634 206.428C273.294 207.709 272.039 207.082 272.222 205.33C272.222 205.33 270.731 208.808 269.58 208.075C269.031 207.735 269.371 206.297 269.267 205.539C269.267 205.539 267.776 209.357 267.175 208.494C266.626 207.683 266.861 207.291 266.965 206.663C266.965 206.663 265.266 208.258 265.318 209.644C265.37 211.03 263.069 209.331 263.252 208.232C263.2 208.389 262.18 211.58 262.572 212.599C262.546 212.573 262.442 212.469 262.285 212.259C262.023 211.893 261.657 211.213 261.422 210.141C261.422 210.141 260.663 211.553 260.846 212.73C261.003 213.75 259.565 212.652 259.304 211.71C259.304 211.71 259.016 215.607 259.173 216.287C259.173 216.287 258.676 215.031 258.336 213.933C258.336 213.933 257.551 217.333 258.153 217.856C258.153 217.856 257.551 217.803 257.159 216.757C257.159 216.757 256.976 219.843 257.761 220.287C257.133 219.921 257.028 219.764 256.662 219.058C256.689 219.686 257.395 221.36 257.656 222.04C257.342 221.464 256.505 220.497 256.427 220.418C256.898 221.072 257.028 223.059 257.028 223.478C257.002 223.138 256.741 222.667 256.453 222.353C256.689 223.007 256.845 225.805 256.505 226.616C256.087 227.923 255.669 229.518 255.355 231.114C254.989 233.022 254.78 234.958 254.936 236.448C255.198 239.194 256.113 243.639 255.59 246.777C256.166 247.117 257.028 248.582 257.604 250.988C257.682 251.327 257.761 251.667 257.813 252.034C257.918 251.746 257.996 251.458 258.048 251.171C258.441 248.922 257.421 246.254 258.467 243.378C259.643 240.109 259.251 236.317 260.689 234.748C261.892 233.441 261.369 231.637 261.396 230.277C261.396 230.015 261.422 229.78 261.474 229.545C261.892 228.237 262.468 227.034 263.2 225.988C266.364 221.438 272.379 219.268 280.694 219.058C288.016 218.875 292.252 221.7 296.646 224.864C299.182 226.694 301.248 230.041 299.993 233.912C299.47 235.533 300.856 236.788 301.353 241.417C301.64 244.058 299.81 245.339 299.522 252.06C300.62 251.85 303.654 252.034 303.968 252.06C303.994 252.06 303.994 252.06 303.994 252.06C303.994 252.06 304.02 252.007 304.046 251.929C304.046 251.903 304.072 251.877 304.072 251.85C304.072 251.85 304.072 251.85 304.072 251.824V251.798C304.517 250.674 306.217 246.176 306.583 242.489C307.655 232.212 305.484 229.649 305.694 226.825Z" fill="#5E423B"/>
<path d="M304.125 251.72C304.125 251.72 304.125 251.746 304.125 251.72C304.125 251.746 304.125 251.746 304.098 251.746C304.072 251.772 304.072 251.798 304.072 251.824C304.046 251.877 304.02 251.903 303.994 251.955C303.68 251.929 300.647 251.746 299.548 251.955C299.836 245.261 301.64 243.979 301.379 241.312C300.908 236.683 299.496 235.428 300.019 233.807C301.274 229.937 299.208 226.616 296.672 224.759C292.279 221.569 288.042 218.745 280.72 218.954C272.431 219.163 266.39 221.333 263.226 225.883C262.232 225.596 261.343 225.073 260.716 224.184C260.193 223.478 259.722 220.261 260.716 219.163C260.925 220.601 261.762 221.124 261.762 221.124C261.762 221.124 261.814 218.378 262.154 217.463C262.494 216.548 262.468 216.548 262.468 216.548C262.782 218.901 263.54 218.326 263.697 218.509C263.984 216.365 265.03 214.064 264.769 213.279C264.769 213.279 266.521 216.025 266.521 216.888C266.521 216.888 267.305 214.744 267.305 214.011C267.305 214.011 268.038 216.417 268.012 216.888C268.012 216.888 269.764 214.482 269.711 213.881C269.711 213.881 270.365 216.966 270.313 217.751C270.313 217.751 271.385 216.156 271.385 215.711C271.385 215.711 271.646 216.208 271.725 216.992C272.222 216.208 272.823 215.58 272.98 215.162C272.98 215.162 273.006 216.339 272.98 216.862C272.98 216.862 273.817 213.828 274.314 213.41C274.314 214.665 274.994 215.554 275.255 215.868C275.412 215.293 276.615 213.096 277.216 212.782C277.164 213.593 276.85 215.842 277.556 216.13C278.288 216.417 278.838 215.397 279.047 214.953C279.151 215.842 279.099 216.156 279.518 216.574C279.518 216.574 280.041 213.305 280.93 212.808C280.851 213.593 280.982 215.371 281.714 215.999C281.714 215.999 282.786 214.011 282.472 212.808C283.257 214.691 283.675 214.953 283.702 215.868C283.989 214.168 284.486 213.201 283.911 211.736C285.009 213.358 285.48 214.142 285.48 215.188C285.48 215.188 286.656 214.796 286.866 213.619C286.866 213.619 287.31 215.188 287.127 216.051C287.127 216.051 287.519 214.796 288.487 214.404C288.278 215.711 288.356 216.417 288.827 216.836C288.827 216.836 290.579 215.528 290.527 214.561C290.527 214.561 291.128 216.6 290.736 217.254C290.736 217.254 292.514 216.156 292.749 215.607C292.279 217.359 291.52 220.104 292.749 221.15C293.978 222.222 296.672 222.484 297.718 224.236C298.764 225.988 299.339 227.766 300.934 228.682C302.556 229.597 303.628 231.898 303.68 233.467C303.732 235.036 303.157 241.835 304.125 243.927C305.092 246.019 304.648 249.941 304.125 251.72Z" fill="#47352E"/>
<path fill-rule="evenodd" clip-rule="evenodd" d="M299.208 253.393C299.862 250.648 300.856 247.065 302.059 247.405C305.458 248.373 303.889 250.935 302.686 252.295C299.862 255.512 302.739 258.179 298.842 257.473L299.208 253.393Z" fill="#F6B17A"/>
<path d="M299.836 266.05C300.594 265.056 302.843 261.317 303.392 260.454C303.915 259.591 303.601 257.368 302.921 256.95C302.242 256.531 299.522 256.296 299.156 258.31C298.79 260.323 299.836 266.05 299.836 266.05Z" fill="#2C2E2C"/>
<path fill-rule="evenodd" clip-rule="evenodd" d="M299.81 270.47C299.81 271.699 297.509 271.777 297.509 270.339C297.509 268.561 297.326 257.656 297.326 256.662C297.326 255.669 299.758 254.91 299.81 257.525C299.862 260.611 299.862 260.846 299.81 270.47Z" fill="#D6D0C1"/>
<path fill-rule="evenodd" clip-rule="evenodd" d="M302.215 248.033C302.765 247.954 303.052 248.033 303.34 248.503C303.654 249.052 303.549 250.255 302.974 251.144C302.398 252.034 302.189 252.609 302.111 252.87C302.137 252.138 302.477 250.988 302.765 250.543C303.026 250.098 303.34 248.843 302.869 248.765C302.398 248.686 302.215 248.033 302.215 248.033Z" fill="#6B3B30"/>
<path d="M327.712 291.52L320.651 295.573L314.506 299.104C314.218 298.424 313.957 297.796 313.669 297.247C311.289 292.461 308.753 291.494 307.184 290.736C300.699 288.121 300.411 282.106 300.359 280.276C300.254 276.719 299.836 276.17 298.371 275.255C296.75 274.261 296.436 273.633 296.41 271.96C296.41 271.411 296.672 270.94 297.142 270.731C297.351 272.195 297.874 271.934 298.633 271.829C298.947 271.777 301.875 271.463 302.425 271.411C303.209 271.698 303.994 272.221 304.15 274.156C304.203 274.81 304.464 275.176 304.804 275.359C305.301 275.647 305.955 275.516 306.242 275.255C307.315 274.313 308.23 272.901 306.975 269.554C306.609 268.56 306.399 266.128 305.929 263.775C305.275 260.532 304.412 257.316 304.412 257.264C301.012 259.042 299.077 256.898 298.842 255.642C298.816 255.485 298.79 255.355 298.79 255.224C297.142 256.087 295.913 255.302 295.469 253.733C295.443 253.655 295.443 253.576 295.443 253.524C295.416 253.289 295.443 253.08 295.547 252.87C296.462 250.805 303.183 251.563 305.51 251.563C305.824 251.563 306.19 251.615 306.582 251.694C306.635 251.694 306.713 251.72 306.765 251.746C309.433 252.452 313.172 254.91 314.584 255.668C316.232 256.531 316.075 261.5 316.336 264.22C316.598 266.913 317.644 267.88 318.35 269.11C319.056 270.339 320.939 278.785 321.802 282.394C322.665 286.002 326.038 289.219 327.712 291.52Z" fill="#FFCA9E"/>
<path d="M319.161 294.449C317.67 295.155 315.395 296.332 313.669 297.221C311.289 292.435 308.753 291.468 307.184 290.709C300.699 288.094 300.411 282.263 300.359 280.432C300.254 276.876 299.836 276.17 298.371 275.255C296.75 274.261 296.436 273.633 296.41 271.96C296.41 271.411 296.672 270.94 297.142 270.731C297.378 271.96 297.875 271.934 298.633 271.829C298.947 271.777 301.875 271.463 302.425 271.411C303.209 271.698 303.994 272.221 304.151 274.156C304.281 275.778 305.772 275.699 306.243 275.281C307.315 274.339 308.361 272.954 307.105 269.606C306.556 268.168 305.903 266.416 305.903 263.801C305.249 262.154 304.595 260.192 304.438 257.159C305.04 257.734 306.844 258.885 307.524 259.068C307.55 263.879 308.361 266.861 308.884 268.456C308.962 269.214 308.57 271.358 308.596 273.79C308.622 276.693 309.224 279.386 308.988 281.583C308.753 283.91 309.38 287.938 314.244 289.82C316.493 291.102 318.638 293.403 319.161 294.449Z" fill="#F6B17A"/>
<path d="M318.637 307.655C320.076 311.054 330.405 320.991 333.805 323.868C337.204 326.744 330.17 322.56 327.999 321.514C325.829 320.468 322.821 321.906 321.122 319.684C319.422 317.461 313.407 311.028 313.538 307.655C315.892 308.308 318.637 307.655 318.637 307.655Z" fill="#2D3A4C"/>
<path d="M324.129 340.656C324.077 344.918 323.815 346.853 326.692 350.776C329.568 354.698 336.446 366.231 337.858 366.937C334.066 366.387 323.815 359.928 321.906 358.726C321.122 353.417 320.782 345.572 321.566 343.114C322.351 340.656 324.338 328.025 324.312 333.438C324.077 336.733 324.129 340.656 324.129 340.656Z" fill="#2D3A4C"/>
<path fill-rule="evenodd" clip-rule="evenodd" d="M313.329 300.15C313.068 299.313 312.178 297.613 311.969 297.325C311.577 296.802 312.309 296.227 313.068 295.887C313.8 295.547 324.626 289.925 325.41 288.277C325.672 287.624 327.476 289.585 327.999 290.919C328.522 292.252 313.329 300.15 313.329 300.15Z" fill="#E0E0E7"/>
<path fill-rule="evenodd" clip-rule="evenodd" d="M296.75 287.676C296.645 290.108 297.09 291.18 295.521 296.41C293.952 301.64 292.618 303.34 291.965 307.262C291.311 311.185 285.166 332.497 284.773 336.55C284.381 340.604 280.72 365.185 281.374 372.376C282.028 379.567 286.342 412.908 287.388 424.676C288.434 436.443 296.018 496.065 313.8 497.896C317.722 498.419 328.444 493.189 328.444 490.051C328.444 486.913 325.384 450.041 323.815 441.673C322.246 433.305 316.833 405.246 318.245 396.172C319.657 387.098 321.566 363.223 321.906 358.699C329.228 363.589 346.487 374.573 359.379 363.929C363.38 360.608 368.453 357.837 367.041 349.992C365.655 342.147 355.012 325.489 353.26 323.763C352.659 321.854 350.985 317.409 348.998 315.84C346.984 314.271 346.043 314.454 344.631 312.179C343.245 309.904 337.832 303.549 336.707 301.98C335.583 300.411 329.124 292.305 328.078 290.657C326.927 291.389 323.449 292.958 323.632 293.743C322.482 293.377 314.898 297.168 311.185 300.385C309.093 299.104 298.136 292.174 296.75 287.676Z" fill="#3C4D68"/>
<path d="M242.62 140.373C242.149 142.151 234.147 146.1 231.506 147.643C229.283 148.924 225.884 156.821 224.498 161.241C224.446 161.424 224.393 161.581 224.341 161.764C224.184 162.313 224.053 162.81 223.975 163.202L205.016 164.3C205.121 163.934 205.67 161.947 206.376 159.489C206.585 158.757 206.794 157.998 207.03 157.214C207.108 156.9 207.213 156.56 207.317 156.246C207.317 156.246 207.997 153.893 208.311 152.794C208.886 150.807 209.383 149.16 209.619 148.427C210.168 146.754 211.318 144.086 211.684 141.001C211.815 139.772 212.103 138.438 211.658 137.183C211.031 135.405 211.501 132.659 211.632 132.371C214.535 133.522 217.464 134.411 219.948 135.012C222.092 135.535 223.923 135.823 225.125 135.928C231.271 136.451 233.86 135.091 235.481 134.385C237.05 133.731 238.07 131.953 239.063 131.09C236.448 130.358 233.964 125.389 234.618 123.506C234.879 122.957 235.167 122.591 235.455 122.382C236.684 121.519 238.279 122.879 239.247 123.506C240.502 124.291 243.378 126.069 244.79 127.56C246.202 129.05 243.064 138.595 242.62 140.373Z" fill="#F6B17A"/>
<path d="M240.632 130.279C240.161 130.75 238.226 134.15 238.017 135.562C237.808 136.974 236.814 135.483 234.722 135.588C229.623 135.536 222.066 138.334 221.412 142.884C217.96 135.562 212.547 135.797 211.58 132.319C216.496 134.28 223.661 135.797 225.204 135.849C231.375 136.059 233.99 134.96 235.638 134.254C236.605 132.162 237.233 131.639 238.409 130.959C236.527 130.149 233.912 125.363 234.539 123.48C234.801 122.931 235.088 122.565 235.376 122.356C234.984 126.958 238.932 129.286 240.632 130.279Z" fill="#C98655"/>
<path d="M224.498 161.215C224.446 161.398 224.393 161.555 224.341 161.738C221.438 160.979 217.516 160.77 215.895 160.613C215.162 160.535 208.573 159.75 206.376 159.436C206.585 158.704 206.794 157.946 207.03 157.161C207.814 157.109 208.808 157.475 209.357 157.658C215.921 160.038 222.537 160.273 224.498 161.215Z" fill="#C98655"/>
<path d="M234.565 275.019C234.435 279.57 231.872 283.701 229.074 287.441C229.675 283.1 230.904 279.177 231.82 276.562C232.683 274.052 232.735 272.064 231.506 274.679C230.277 277.294 223.452 290.893 222.536 292.462C221.987 293.429 226.067 281.008 227.269 278.576C229.806 273.477 231.453 268.665 229.44 263.069C230.512 269.11 227.871 273.843 225.256 279.073C224.288 281.034 220.287 289.873 219.32 291.939C222.458 283.884 220.314 274.156 224.471 266.338C221.203 270.443 220.366 275.595 219.764 280.668C219.608 282.446 218.535 288.565 215.528 295.495C215.005 296.724 213.488 300.463 211.344 293.403C210.089 289.271 209.723 298.894 209.827 302.738C210.69 304.752 214.378 310.871 214.378 310.871C215.711 306.792 217.751 303.575 219.974 300.594C222.589 297.744 225.23 294.893 227.662 291.86C231.218 287.101 235.35 281.295 234.565 275.019Z" fill="#2D3A4C"/>
<path opacity="0.2" d="M288.905 298.581C287.101 296.62 277.818 296.593 277.818 296.593L266.312 294.161L268.22 300.804C270.626 303.209 273.32 305.615 273.163 309.381C273.084 311.211 276.667 308.021 277.373 306.687C278.314 304.857 282.498 301.039 285.819 299.365C287.362 300.804 292.932 306.112 293.037 308.413L293.429 306.975C291.965 303.654 290.265 300.673 288.905 298.581Z" fill="black"/>
<path d="M246.725 266.469C249.314 273.895 239.037 276.85 235.219 280.982C237.887 275.621 247.065 273.241 246.725 266.469Z" fill="#2D3A4C"/>
<path d="M322.429 294.188C321.148 295.966 322.586 298.79 323.345 300.463C324.704 303.418 326.483 306.138 328.209 308.884C330.902 313.172 333.779 317.356 336.681 321.488C333.282 317.696 330.17 313.695 327.346 309.433C325.646 306.87 324.103 304.151 322.952 301.326C322.168 299.444 320.756 296.018 322.429 294.188Z" fill="#2D3A4C"/>
<path d="M311.969 299.679C311.028 304.203 314.689 308.047 316.624 311.76C319.004 316.311 322.743 320.39 323.998 325.437C321.958 321.044 318.141 317.644 315.735 313.434C313.721 309.276 309.93 304.517 311.969 299.679Z" fill="#2D3A4C"/>
<path d="M317.069 308.439C320.651 315.16 326.143 321.41 333.543 323.868C325.411 322.534 319.658 315.97 317.069 308.439Z" fill="#2D3A4C"/>
<path fill-rule="evenodd" clip-rule="evenodd" d="M199.603 172.956C200.91 169.295 205.8 157.501 206.768 157.998C206.585 158.966 222.693 161.607 224.785 161.345C225.831 161.084 223.582 169.766 222.51 171.884C220.862 175.205 221.464 175.989 221.804 177.898C212.991 183.311 199.603 172.956 199.603 172.956Z" fill="#E0E0E7"/>
<path d="M322.168 322.299C325.228 327.006 331.896 328.705 336.681 331.059C331.164 330.301 323.789 328.496 322.168 322.299Z" fill="#2D3A4C"/>
<path d="M325.228 332.706C329.621 344.003 334.119 356.424 346.854 360.242C340.656 359.379 335.844 356.32 332.21 351.22C328.313 345.781 326.666 339.139 325.228 332.706Z" fill="#2D3A4C"/>
<path d="M323.292 324.704C325.751 332.314 333.203 339.767 341.258 341.1C332.288 341.571 324.129 333.386 323.292 324.704Z" fill="#2D3A4C"/>
<path d="M311.787 299.94C313.774 297.09 316.886 296.306 319.893 294.946C322.743 293.795 325.28 290.866 328.549 291.18C325.515 291.494 323.371 294.475 320.704 295.704C317.723 297.142 314.297 297.535 311.787 299.94Z" fill="#2D3A4C"/>
<path d="M296.75 287.938C298.476 290.448 300.437 292.828 302.843 294.737C305.563 296.907 308.596 298.633 311.551 300.464C308.256 299.208 304.883 297.849 302.189 295.521C299.705 293.403 298.057 290.893 296.75 287.938Z" fill="#2D3A4C"/>
<path d="M311.97 310.217C308.727 319.762 303.314 327.999 298.058 336.55C295.024 341.493 292.2 346.487 289.533 351.613C287.389 355.771 285.035 359.667 282.159 363.328C284.564 359.615 286.447 355.718 288.278 351.717C290.71 346.409 293.325 341.283 296.358 336.315C301.797 327.79 307.812 319.527 311.97 310.217Z" fill="#2D3A4C"/>
<path d="M257.577 278.89C260.558 284.25 260.846 289.873 259.042 295.704C257.263 301.483 254.361 306.87 252.478 312.597C250.517 318.585 249.105 324.678 248.189 330.902C247.745 333.988 247.902 336.89 248.137 340.002C248.32 342.539 248.634 345.311 247.797 347.769C248.425 345.284 247.902 342.539 247.509 340.054C247.039 337.047 246.699 334.249 247.013 331.242C247.666 324.835 248.791 318.402 250.909 312.309C254.701 301.457 262.938 290.657 257.577 278.89Z" fill="#2D3A4C"/>
<path d="M199.525 170.576C197.694 174.499 207.683 176.748 209.88 177.375C212.181 178.003 214.561 178.526 216.94 178.735C218.353 178.866 220.837 179.258 221.831 177.898C222.092 178.081 220.418 179.075 220.262 179.154C219.189 179.572 218.039 179.703 216.914 179.729C214.169 179.807 211.449 179.363 208.808 178.683C206.376 177.951 203.944 177.062 201.852 175.623C200.858 174.943 200.074 174.054 199.368 173.061C198.819 172.276 198.897 170.393 199.525 170.576Z" fill="#2D3A4C"/>
<path fill-rule="evenodd" clip-rule="evenodd" d="M281.452 294.71C277.974 293.847 274.496 293.664 273.189 293.874C272.012 293.011 270.182 291.729 269.816 291.075C268.221 291.468 266.678 293.377 266.233 294.24C268.456 297.691 271.515 301.117 273.398 302.503C272.091 305.066 270.835 307.576 269.789 313.591C269.319 316.336 267.227 329.49 266.442 335.086C265.658 340.682 259.826 384.457 258.257 395.1C256.688 405.743 253.89 422.819 253.733 424.048C256.348 427.003 259.8 431.893 259.879 432.809C260.009 433.07 266.338 426.611 266.991 425.957C267.645 425.303 268.691 411.052 269.214 408.306C269.737 405.56 272.221 386.131 272.875 371.827C273.424 359.615 275.542 348.736 276.275 340.839C276.981 333.386 279.413 315.081 278.053 303.261C279.099 301.771 279.962 299.783 283.989 297.613C285.035 298.267 288.382 298.528 288.905 298.528C288.121 296.959 286.839 294.527 284.25 292.461C283.387 293.272 281.452 294.71 281.452 294.71Z" fill="#262930"/>
<path d="M216.261 218.353C217.542 225.256 212.809 230.878 208.154 235.35C211.188 229.963 215.581 224.707 216.261 218.353Z" fill="#2D3A4C"/>
<path d="M258.963 279.727C263.513 286.944 266.495 294.867 269.999 302.634C265.396 295.443 262.389 287.493 258.963 279.727Z" fill="#2D3A4C"/>
<path d="M248.137 346.644C249.706 338.198 253.263 329.83 257.159 322.22C259.042 318.559 260.977 314.82 263.644 311.682C266.024 308.884 268.247 306.138 269.999 302.922C268.665 306.217 266.939 309.145 264.769 311.996C262.232 315.317 260.349 319.187 258.545 322.926C254.805 330.588 250.674 338.459 248.137 346.644Z" fill="#2D3A4C"/>
<path d="M182.318 443.059C186.92 423.813 187.705 402.422 200.806 386.471C207.71 378.207 216.993 372.245 225.544 365.891C229.702 362.831 233.833 359.667 237.86 356.424C239.613 355.012 241.338 353.809 243.326 352.763C244.973 351.901 246.725 350.907 247.144 348.946C246.83 350.75 245.366 351.848 243.875 352.737C241.992 353.888 240.319 355.012 238.645 356.477C234.775 359.902 230.8 363.171 226.747 366.361C218.431 372.847 209.252 378.861 202.401 386.968C189.221 402.658 187.836 424.101 182.318 443.059Z" fill="#2D3A4C"/>
<path d="M296.332 294.449C293.691 305.746 290.84 316.99 288.173 328.287C285.427 339.924 282.577 351.77 281.897 363.746C281.609 351.744 283.701 339.532 286.656 327.921C289.507 316.65 292.802 305.537 296.332 294.449Z" fill="#2D3A4C"/>
<path d="M281.374 372.376C284.59 392.302 286.316 412.359 289.114 432.338C290.736 444.001 292.723 455.638 295.783 467.039C297.169 472.191 298.711 477.29 300.385 482.363C301.954 487.174 304.046 491.908 308.073 495.176C309.067 495.987 310.139 496.615 311.237 497.216C301.954 492.483 299.418 482.337 296.384 473.132C292.775 462.227 290.422 450.931 288.618 439.634C285.218 418.217 284.198 396.46 281.688 374.939C281.583 374.076 281.479 373.239 281.374 372.376Z" fill="#2D3A4C"/>
<path d="M328.287 490.757C325.672 495.542 317.252 501.086 311.891 497.399C314.663 498.262 318.115 496.928 320.573 495.673C323.266 494.522 326.143 492.823 328.287 490.757Z" fill="#2D3A4C"/>
<path d="M263.592 451.872C264.507 466.438 263.697 481.134 266.468 495.543C261.788 481.291 262.624 466.621 263.592 451.872Z" fill="#2D3A4C"/>
<path d="M273.006 455.271C273.817 462.071 272.326 469.366 274.575 475.93C270.391 469.811 271.986 462.123 273.006 455.271Z" fill="#2D3A4C"/>
<path d="M237.05 129.704C237.05 129.704 237.102 129.782 237.233 129.913C237.259 129.939 237.285 129.992 237.337 130.018C237.364 130.044 237.416 130.096 237.468 130.122C237.547 130.201 237.651 130.279 237.782 130.358C237.991 130.541 238.305 130.645 238.619 130.75C238.933 130.854 239.299 130.907 239.691 130.959C240.057 131.011 240.449 131.037 240.815 131.037C241.182 131.064 241.521 131.09 241.809 131.116C242.384 131.194 242.777 131.273 242.777 131.273C242.777 131.273 242.384 131.299 241.809 131.404C241.521 131.43 241.182 131.456 240.815 131.482C240.449 131.482 240.057 131.482 239.639 131.456C239.246 131.404 238.828 131.299 238.488 131.168C238.148 130.985 237.834 130.802 237.625 130.567C237.521 130.462 237.442 130.331 237.364 130.227C237.337 130.175 237.285 130.122 237.259 130.07C237.233 130.018 237.207 129.965 237.207 129.939C237.102 129.782 237.05 129.704 237.05 129.704Z" fill="#6B3B30"/>
<path d="M235.376 135.588C235.376 135.588 235.402 135.222 235.481 134.672C235.533 134.411 235.637 134.097 235.742 133.783C235.873 133.47 236.03 133.13 236.187 132.816C236.396 132.502 236.605 132.188 236.814 131.927C236.919 131.796 237.05 131.691 237.18 131.587C237.311 131.482 237.416 131.378 237.546 131.325C237.782 131.195 238.017 131.09 238.174 131.064C238.331 131.011 238.409 131.011 238.409 131.011C238.409 131.011 238.331 131.064 238.2 131.142C238.069 131.221 237.912 131.378 237.729 131.561C237.625 131.639 237.546 131.77 237.442 131.874C237.363 132.005 237.259 132.11 237.18 132.241C236.971 132.502 236.814 132.79 236.631 133.103C236.448 133.391 236.291 133.705 236.134 133.993C235.977 134.28 235.847 134.568 235.742 134.803C235.507 135.248 235.376 135.588 235.376 135.588Z" fill="#6B3B30"/>
<path d="M259.173 488.22C255.695 498.21 258.493 510.422 250.936 518.816C256.689 509.585 253.864 497.713 259.173 488.22Z" fill="#2D3A4C"/>
<path d="M290.527 418.321C292.593 417.38 294.737 416.805 296.986 416.413C295.155 418.008 292.933 418.583 290.527 418.321Z" fill="#2D3A4C"/>
<path d="M285.558 379.619C287.624 378.678 289.768 378.103 292.017 377.71C290.187 379.306 287.964 379.881 285.558 379.619Z" fill="#2D3A4C"/>
<path d="M213.384 449.519C213.959 455.69 212.94 461.809 211.161 467.693C209.2 473.524 206.481 479.303 201.617 483.252C205.618 478.833 207.945 472.844 209.671 467.222C211.554 461.574 213.018 455.481 213.384 449.519Z" fill="#2D3A4C"/>
<path d="M234.853 356.267C236.095 356.267 237.102 355.261 237.102 354.018C237.102 352.776 236.095 351.77 234.853 351.77C233.611 351.77 232.604 352.776 232.604 354.018C232.604 355.261 233.611 356.267 234.853 356.267Z" fill="#2D3A4C"/>
<path d="M336.158 316.049C337.097 316.049 337.858 315.288 337.858 314.349C337.858 313.41 337.097 312.649 336.158 312.649C335.219 312.649 334.458 313.41 334.458 314.349C334.458 315.288 335.219 316.049 336.158 316.049Z" fill="#2D3A4C"/>
<path d="M333.961 312.309C334.842 312.309 335.557 311.595 335.557 310.714C335.557 309.833 334.842 309.119 333.961 309.119C333.08 309.119 332.366 309.833 332.366 310.714C332.366 311.595 333.08 312.309 333.961 312.309Z" fill="#2D3A4C"/>
<path d="M331.87 309.171C332.751 309.171 333.465 308.457 333.465 307.576C333.465 306.695 332.751 305.981 331.87 305.981C330.989 305.981 330.274 306.695 330.274 307.576C330.274 308.457 330.989 309.171 331.87 309.171Z" fill="#2D3A4C"/>
<path d="M329.778 305.772C330.659 305.772 331.373 305.058 331.373 304.177C331.373 303.296 330.659 302.582 329.778 302.582C328.897 302.582 328.183 303.296 328.183 304.177C328.183 305.058 328.897 305.772 329.778 305.772Z" fill="#2D3A4C"/>
<path d="M205.33 379.515C206.557 379.515 207.552 378.52 207.552 377.292C207.552 376.064 206.557 375.069 205.33 375.069C204.102 375.069 203.107 376.064 203.107 377.292C203.107 378.52 204.102 379.515 205.33 379.515Z" fill="#2D3A4C"/>
<path d="M260.716 234.696C259.277 236.265 259.67 240.057 258.493 243.326C257.447 246.202 258.467 248.869 258.074 251.118C257.944 251.092 257.813 251.014 257.63 250.935C257.081 248.53 256.192 247.065 255.616 246.725C256.139 243.587 255.224 239.142 254.963 236.396C254.832 234.905 255.015 232.97 255.381 231.061C255.956 232.369 256.558 233.389 257.159 232.317C258.074 230.721 259.094 228.237 260.114 227.714C259.774 229.283 258.911 230.904 260.611 230.591C260.951 230.538 261.186 230.408 261.369 230.251C261.395 231.584 261.918 233.389 260.716 234.696Z" fill="#47352E"/>
<path d="M298.894 260.977H298.11V266.207H298.894V260.977Z" fill="#2C2E2C"/>
<path fill-rule="evenodd" clip-rule="evenodd" d="M305.223 217.62C305.223 217.62 305.223 217.908 305.171 218.3C305.066 218.771 304.987 219.189 304.909 219.529C304.909 219.581 304.883 219.607 304.883 219.66C304.674 220.627 304.595 221.072 304.595 221.072C304.543 220.444 303.889 219.111 303.889 219.111C304.098 219.843 303.523 222.066 303.523 222.066C303.523 221.647 302.739 219.947 302.739 219.947C302.843 220.575 302.739 223.033 302.739 223.033C302.686 222.798 301.98 221.595 301.98 221.595C302.033 221.987 302.059 223.268 302.059 223.268C301.954 223.033 301.562 222.589 301.562 222.589C301.326 223.085 301.562 224.576 301.562 224.576C301.143 224.445 300.803 223.896 300.803 223.896C300.751 224.314 301.3 226.067 301.3 226.067C300.751 225.674 300.49 225.256 300.49 225.256C300.359 225.779 300.83 226.825 301.039 227.479C300.307 226.956 299.522 225.334 298.999 223.87C298.476 222.406 297.116 222.327 295.286 221.595C293.481 220.863 293.429 219.974 293.429 219.974C293.612 220.052 293.9 220.078 293.9 220.078C293.403 219.503 293.403 218.169 293.403 218.169C293.586 218.378 294.371 218.64 294.371 218.64C293.717 218.038 293.272 216.313 293.246 216.208C293.377 216.653 294.554 216.6 294.554 216.6C293.978 215.737 293.246 213.985 293.246 213.985C293.455 214.038 294.24 213.985 294.24 213.985C293.586 212.652 293.56 211.841 293.56 211.736C293.586 212.259 294.789 212.861 294.894 212.155C294.946 211.867 294.946 211.004 294.867 210.063C295.312 209.461 295.286 208.677 295.286 208.677C295.286 208.677 296.096 209.514 296.593 210.821C296.881 209.827 297.038 209.514 296.986 209.252C297.456 210.35 298.581 211.475 298.895 211.946C298.868 211.266 299.156 210.952 298.973 210.69C299.496 211.135 300.856 213.148 301.039 214.038C301.039 214.038 301.693 213.201 301.405 212.625C301.483 212.73 302.895 214.325 302.712 215.293C302.712 215.293 303.366 214.587 303.575 214.194C303.575 214.194 303.941 215.711 303.706 217.254C303.706 217.254 304.438 216.051 304.386 215.79C304.386 215.79 304.961 217.803 304.778 218.143L305.223 217.62Z" fill="#775950"/>
<path fill-rule="evenodd" clip-rule="evenodd" d="M290.684 207.187C290.527 207.37 290.317 207.526 290.082 207.657C289.978 207.03 289.036 206.297 289.036 206.297L288.775 207.056C288.565 206.507 287.31 205.618 287.31 205.618C287.415 205.905 286.787 207.03 286.787 207.03C286.63 206.271 285.977 205.304 285.977 205.304L285.558 206.873C285.427 206.376 284.826 205.67 284.826 205.67C284.8 206.48 284.015 207.134 284.015 207.134C284.041 206.82 283.022 205.67 283.022 205.67C282.76 206.35 282.133 207.03 282.133 207.03C282.106 206.533 280.93 205.67 280.93 205.67C280.747 206.036 280.773 207.213 280.773 207.213C280.407 206.951 279.805 206.062 279.727 206.114C279.674 206.141 279.413 207.657 279.413 207.657C278.524 207.056 278.21 206.114 278.21 206.114C277.818 206.585 277.582 208.233 277.582 208.233C276.981 207.866 276.04 206.768 276.04 206.768C275.752 207.082 275.386 209.435 275.386 209.435C274.549 208.782 274 207.448 274 207.448C273.398 208.128 273.163 210.22 273.163 210.22C272.745 209.749 271.725 207.971 271.725 207.971C270.862 209.017 270.47 210.9 270.47 210.9C270.208 210.664 268.508 209.279 268.508 209.279C267.776 210.115 267.776 211.371 267.776 211.371C267.436 210.926 266.416 209.802 266.416 209.802C265.998 210.272 265.292 212.26 265.292 212.26C264.429 211.501 263.644 211.109 263.644 211.109C263.618 211.815 263.017 213.776 263.017 213.776C262.886 213.646 262.572 213.044 262.285 212.312C262.442 212.547 262.546 212.652 262.572 212.652C262.18 211.658 263.2 208.468 263.252 208.285C263.069 209.383 265.37 211.083 265.318 209.697C265.266 208.311 266.966 206.716 266.966 206.716C266.861 207.343 266.626 207.736 267.175 208.546C267.75 209.409 269.267 205.591 269.267 205.591C269.371 206.35 269.031 207.788 269.581 208.128C270.731 208.886 272.222 205.382 272.222 205.382C272.039 207.134 273.294 207.762 273.634 206.48C273.765 205.068 274.497 204.179 274.497 204.179C274.706 205.879 275.543 206.376 275.543 206.376C275.621 205.278 276.929 203.369 276.929 203.369C276.798 205.67 277.556 205.644 277.556 205.644C277.452 204.388 279.073 202.506 279.073 202.506C279.178 203.996 279.805 204.807 280.119 205.487C280.25 204.258 280.642 203.316 281.505 201.747C281.4 204.153 281.296 205.304 282.08 205.539C282.499 205.67 282.708 204.519 282.133 202.244C283.126 203.133 283.44 204.336 284.198 205.095C284.591 205.251 284.8 204.049 284.225 203.133C285.82 204.127 286.839 206.664 286.918 204.232C289.036 207.422 289.115 206.036 288.644 204.022C289.742 205.199 289.951 205.827 290.291 206.585C290.422 206.794 290.553 207.03 290.684 207.187Z" fill="#775950"/>
<path d="M238.723 124.709C238.985 124.369 239.194 123.768 238.802 123.376C238.41 122.983 237.233 122.225 236.945 122.173C236.605 122.094 236.344 122.251 235.873 122.931C235.402 123.611 235.298 124.134 235.768 124.395C236.239 124.657 237.076 125.049 237.468 125.18C237.86 125.337 238.174 125.441 238.723 124.709Z" fill="#FBDCC7"/>
<path d="M299.287 251.484C299.548 251.484 299.522 252.478 299.287 252.53C299.051 252.583 297.116 252.975 296.802 252.975C296.489 252.975 295.966 252.321 296.227 252.164C296.489 252.007 297.509 251.511 299.287 251.484Z" fill="#FBDCC7"/>
<path d="M302.189 253.916C302.398 253.916 302.294 254.91 302.111 254.962C301.928 255.015 300.306 255.25 300.045 255.25C299.783 255.25 299.417 254.544 299.626 254.413C299.836 254.309 300.725 253.864 302.189 253.916Z" fill="#FBDCC7"/>
<path fill-rule="evenodd" clip-rule="evenodd" d="M197.903 174.028C197.589 175.283 193.327 190.006 192.621 193.771C191.862 197.694 191.182 203.761 189.744 206.82C189.849 206.062 189.927 205.487 190.006 205.147C190.659 198.871 195.236 180.958 195.105 177.428C194.974 173.897 193.144 169.452 194.974 169.713C196.752 169.975 198.87 169.844 200.91 169.609C201.198 169.609 198.818 170.236 197.903 174.028Z" fill="#2D3A4C"/>
<path d="M221.412 143.302C221.412 143.302 221.412 143.224 221.412 143.093C221.412 143.014 221.412 142.936 221.412 142.831C221.412 142.727 221.438 142.622 221.438 142.491C221.517 141.994 221.674 141.262 222.118 140.504C222.563 139.746 223.295 138.987 224.184 138.333C225.099 137.706 226.145 137.209 227.244 136.817C228.342 136.425 229.466 136.163 230.538 135.954C231.611 135.771 232.604 135.614 233.467 135.535C234.33 135.483 235.062 135.509 235.559 135.614C235.821 135.64 236.004 135.718 236.135 135.745C236.265 135.771 236.344 135.797 236.344 135.797C236.344 135.797 236.265 135.797 236.135 135.771C236.004 135.745 235.821 135.718 235.559 135.692C235.062 135.64 234.356 135.692 233.52 135.823C232.683 135.954 231.689 136.137 230.643 136.398C229.597 136.634 228.499 136.921 227.427 137.314C226.354 137.68 225.308 138.15 224.446 138.726C223.556 139.301 222.824 139.981 222.38 140.661C221.883 141.341 221.647 142.021 221.543 142.517C221.517 142.648 221.491 142.753 221.464 142.831C221.438 142.936 221.438 143.014 221.438 143.067C221.412 143.224 221.412 143.302 221.412 143.302Z" fill="#6B3B30"/>
<path opacity="0.4" d="M309.067 277.87C308.073 277.975 306.008 276.693 304.831 275.36C305.328 275.647 305.981 275.516 306.269 275.255C307.341 274.314 308.099 272.954 307.001 269.554C306.661 268.482 305.851 266.024 305.955 263.67C304.935 260.637 304.569 258.31 304.386 257.264C304.857 257.917 306.086 258.467 307.576 259.068C307.472 259.434 307.315 261.108 307.733 263.592C307.995 264.743 308.335 266.338 308.936 268.508C309.093 269.999 308.518 271.751 308.544 273.294C308.544 275.15 309.041 276.85 309.067 277.87Z" fill="black"/>
<path d="M211.423 136.634C211.423 136.634 211.475 136.738 211.58 136.921C211.606 136.974 211.632 137 211.658 137.052C211.711 137.104 211.737 137.157 211.789 137.209C211.841 137.261 211.894 137.314 211.946 137.366C211.998 137.418 212.077 137.471 212.129 137.523C212.364 137.758 212.73 137.941 213.123 138.072C213.515 138.229 213.959 138.307 214.404 138.36C214.848 138.438 215.319 138.49 215.764 138.543C216.208 138.621 216.601 138.673 216.967 138.752C217.307 138.83 217.594 138.935 217.803 139.013C217.986 139.092 218.117 139.144 218.117 139.144C218.117 139.144 218.013 139.118 217.803 139.092C217.594 139.066 217.307 139.04 216.967 139.066C216.627 139.04 216.208 139.04 215.764 139.04C215.319 139.013 214.848 138.987 214.378 138.909C213.907 138.804 213.436 138.7 212.992 138.517C212.573 138.307 212.207 138.046 211.972 137.758C211.92 137.68 211.867 137.627 211.815 137.549C211.789 137.471 211.737 137.392 211.71 137.34C211.684 137.261 211.658 137.209 211.606 137.157C211.58 137.104 211.58 137.052 211.554 137C211.449 136.738 211.423 136.634 211.423 136.634Z" fill="#6B3B30"/>
<path d="M222.537 144.479C222.537 144.479 222.615 144.61 222.72 144.845C222.85 145.08 223.033 145.394 223.243 145.786C223.452 146.178 223.713 146.623 224.001 147.068C224.289 147.538 224.629 148.009 224.995 148.427C225.361 148.872 225.753 149.29 226.171 149.604C226.276 149.683 226.381 149.761 226.485 149.839C226.538 149.866 226.59 149.918 226.642 149.944C226.694 149.97 226.747 149.996 226.799 150.049C226.904 150.101 227.008 150.179 227.113 150.232C227.217 150.284 227.322 150.336 227.427 150.362C227.61 150.467 227.793 150.546 227.976 150.598C228.054 150.624 228.133 150.65 228.211 150.702C228.29 150.729 228.342 150.755 228.42 150.755C228.682 150.833 228.813 150.859 228.813 150.859C228.813 150.859 228.656 150.859 228.394 150.833C228.316 150.833 228.263 150.833 228.185 150.807C228.107 150.781 228.028 150.781 227.924 150.755C227.74 150.729 227.531 150.702 227.322 150.624C227.217 150.598 227.113 150.546 226.982 150.519C226.878 150.467 226.747 150.415 226.642 150.362C226.59 150.336 226.511 150.31 226.459 150.284C226.407 150.258 226.355 150.206 226.276 150.179C226.145 150.101 226.041 150.049 225.91 149.97C225.439 149.63 224.995 149.212 224.602 148.767C224.236 148.297 223.896 147.774 223.609 147.303C223.347 146.806 223.138 146.335 222.981 145.917C222.824 145.499 222.72 145.132 222.641 144.897C222.589 144.61 222.537 144.479 222.537 144.479Z" fill="#6B3B30"/>
<path d="M298.764 255.459C298.764 255.459 298.816 255.564 298.894 255.747C298.999 255.93 299.13 256.165 299.339 256.427C299.522 256.688 299.784 256.976 300.097 257.211C300.411 257.473 300.777 257.682 301.169 257.787C301.562 257.917 301.98 257.943 302.372 257.917C302.765 257.891 303.131 257.787 303.444 257.682C303.758 257.577 304.02 257.447 304.177 257.368C304.36 257.264 304.464 257.211 304.464 257.211C304.464 257.211 304.386 257.29 304.229 257.42C304.072 257.551 303.863 257.734 303.575 257.943C303.261 258.127 302.869 258.283 302.425 258.362C301.98 258.44 301.483 258.414 301.013 258.283C300.542 258.127 300.123 257.865 299.784 257.551C299.47 257.237 299.234 256.871 299.077 256.558C298.947 256.244 298.842 255.956 298.816 255.747C298.79 255.564 298.764 255.459 298.764 255.459Z" fill="#6B3B30"/>
<path d="M307.576 259.068C307.576 259.068 307.576 259.225 307.576 259.512C307.576 259.643 307.576 259.826 307.576 260.009C307.602 260.192 307.628 260.428 307.628 260.663C307.628 260.794 307.628 260.898 307.654 261.029C307.681 261.16 307.681 261.291 307.707 261.421C307.733 261.683 307.759 261.997 307.811 262.284C307.864 262.572 307.89 262.886 307.942 263.2C307.968 263.356 307.994 263.513 308.021 263.67L308.099 264.141C308.151 264.455 308.204 264.769 308.256 265.082C308.334 265.396 308.387 265.684 308.439 265.998C308.465 266.155 308.491 266.285 308.517 266.442C308.544 266.573 308.596 266.73 308.622 266.861C308.7 267.122 308.753 267.384 308.805 267.619C308.857 267.854 308.91 268.064 308.962 268.247C309.014 268.43 309.067 268.586 309.119 268.743C309.197 269.005 309.25 269.162 309.25 269.162C309.25 269.162 309.171 269.005 309.04 268.77C308.962 268.639 308.884 268.482 308.805 268.325C308.7 268.142 308.596 267.959 308.517 267.724C308.439 267.488 308.334 267.253 308.256 266.991C308.204 266.861 308.151 266.73 308.125 266.573C308.073 266.442 308.047 266.285 307.994 266.128C307.916 265.841 307.837 265.527 307.759 265.213C307.707 264.899 307.628 264.586 307.576 264.246L307.498 263.775C307.471 263.618 307.471 263.461 307.445 263.304C307.419 262.99 307.393 262.677 307.341 262.363C307.341 262.049 307.341 261.761 307.314 261.474C307.314 261.343 307.314 261.186 307.314 261.055C307.314 260.925 307.314 260.794 307.341 260.663C307.367 260.428 307.393 260.192 307.393 260.009C307.419 259.8 307.445 259.643 307.471 259.512C307.55 259.225 307.576 259.068 307.576 259.068Z" fill="#6B3B30"/>
<path d="M315.971 267.776C315.5 267.357 314.742 265.475 314.611 264.716C314.088 261.997 314.349 257.342 311.891 255.459C309.878 253.916 307.655 252.243 304.36 253.158C303.026 253.524 296.515 255.59 295.547 253.864C295.966 256.531 298.607 255.381 298.816 255.224C298.921 254.779 299.339 254.282 300.124 254.204C300.908 254.126 303.079 253.89 303.68 253.733C304.674 253.446 305.746 252.792 307.132 253.289C308.518 253.786 311.839 255.407 312.336 256.374C313.146 257.996 313.539 262.494 314.219 264.795C314.872 267.122 315.971 267.776 315.971 267.776Z" fill="#C98655"/>
<path d="M312.231 256.244C312.231 256.244 312.336 256.401 312.492 256.714C312.571 256.871 312.649 257.054 312.78 257.263C312.885 257.473 312.989 257.734 313.094 257.996C313.277 258.545 313.434 259.225 313.565 259.931C313.695 260.637 313.774 261.421 313.905 262.18C314.009 262.938 314.114 263.696 314.297 264.376C314.375 264.716 314.48 265.056 314.584 265.344C314.689 265.658 314.794 265.945 314.898 266.233C315.081 266.782 315.29 267.201 315.526 267.436C315.578 267.488 315.63 267.567 315.683 267.593C315.735 267.645 315.787 267.671 315.813 267.697C315.892 267.75 315.918 267.776 315.918 267.776C315.918 267.776 315.866 267.75 315.787 267.697C315.735 267.671 315.709 267.645 315.63 267.619C315.578 267.593 315.526 267.54 315.447 267.488C315.186 267.279 314.872 266.861 314.611 266.338C314.48 266.076 314.349 265.788 314.218 265.475C314.088 265.161 313.957 264.821 313.826 264.481C313.617 263.775 313.46 262.99 313.355 262.232C313.251 261.474 313.172 260.689 313.094 259.983C313.015 259.277 312.911 258.597 312.78 258.048C312.728 257.76 312.649 257.525 312.597 257.29C312.519 257.08 312.466 256.871 312.414 256.714C312.309 256.427 312.231 256.244 312.231 256.244Z" fill="#6B3B30"/>
<path d="M302.268 253.942C302.268 253.942 302.425 253.89 302.713 253.812C303 253.733 303.392 253.576 303.889 253.393C304.386 253.236 304.962 253.027 305.641 252.949C305.798 252.949 305.981 252.923 306.164 252.923C306.347 252.949 306.53 252.949 306.714 252.975C306.897 253.001 307.053 253.053 307.237 253.08C307.42 253.132 307.576 253.184 307.733 253.236C308.387 253.472 309.015 253.786 309.59 254.099C310.165 254.439 310.662 254.753 311.107 255.015C311.525 255.328 311.865 255.616 312.048 255.878C312.127 256.008 312.205 256.113 312.231 256.165C312.257 256.244 312.283 256.27 312.283 256.27C312.283 256.27 312.257 256.244 312.205 256.165C312.153 256.087 312.074 256.008 311.97 255.904C311.76 255.694 311.394 255.459 310.95 255.25C310.505 255.015 309.956 254.753 309.381 254.465C308.806 254.178 308.204 253.89 307.55 253.681C307.393 253.629 307.237 253.576 307.08 253.524C306.923 253.472 306.766 253.446 306.609 253.393C306.452 253.367 306.295 253.367 306.138 253.341C305.981 253.341 305.824 253.341 305.668 253.341C305.066 253.367 304.465 253.498 303.968 253.629C303.471 253.733 303.026 253.812 302.739 253.864C302.425 253.942 302.268 253.942 302.268 253.942Z" fill="#6B3B30"/>
<path d="M296.28 252.112C296.28 252.112 296.227 252.191 296.123 252.321C296.018 252.452 295.914 252.661 295.809 252.897C295.783 252.949 295.757 253.027 295.757 253.08C295.757 253.106 295.73 253.158 295.73 253.184C295.73 253.21 295.73 253.263 295.704 253.289C295.704 253.367 295.678 253.446 295.678 253.498C295.678 253.576 295.678 253.655 295.704 253.733C295.73 254.047 295.861 254.335 296.07 254.596C296.253 254.858 296.541 255.067 296.829 255.198C296.907 255.224 296.986 255.276 297.038 255.302C297.116 255.328 297.195 255.355 297.247 255.355C297.378 255.407 297.535 255.407 297.666 255.433C297.927 255.459 298.162 255.459 298.319 255.433C298.476 255.407 298.581 255.407 298.581 255.407C298.581 255.407 298.502 255.459 298.345 255.512C298.189 255.59 297.953 255.668 297.666 255.721C297.509 255.721 297.352 255.747 297.169 255.721C297.09 255.721 296.986 255.695 296.907 255.695C296.829 255.668 296.724 255.642 296.646 255.616C296.28 255.485 295.914 255.25 295.652 254.936C295.391 254.596 295.26 254.178 295.26 253.76C295.26 253.655 295.286 253.55 295.286 253.472C295.312 253.393 295.338 253.289 295.364 253.21C295.391 253.158 295.391 253.132 295.417 253.08C295.443 253.053 295.469 253.001 295.469 252.975C295.495 252.897 295.547 252.844 295.574 252.766C295.757 252.53 295.94 252.347 296.07 252.269C296.201 252.164 296.28 252.112 296.28 252.112Z" fill="#6B3B30"/>
<path d="M299.208 251.511C299.208 251.511 300.045 251.432 301.274 251.354C301.902 251.328 302.634 251.302 303.393 251.302C304.177 251.328 305.014 251.38 305.851 251.485C306.687 251.615 307.498 251.851 308.23 252.112C308.413 252.191 308.596 252.269 308.779 252.348C308.963 252.426 309.119 252.504 309.276 252.583C309.59 252.74 309.904 252.897 310.165 253.027C310.715 253.315 311.159 253.603 311.447 253.838C311.604 253.943 311.682 254.047 311.761 254.126C311.839 254.204 311.865 254.23 311.865 254.23C311.865 254.23 311.813 254.204 311.734 254.152C311.656 254.1 311.551 254.021 311.394 253.917C311.081 253.733 310.61 253.524 310.035 253.289C309.747 253.184 309.433 253.054 309.093 252.923C308.936 252.871 308.753 252.792 308.596 252.714C308.413 252.661 308.256 252.583 308.073 252.531C307.341 252.295 306.557 252.086 305.746 251.981C304.935 251.851 304.125 251.772 303.366 251.72C302.608 251.668 301.876 251.641 301.248 251.615C300.045 251.537 299.208 251.511 299.208 251.511Z" fill="#6B3B30"/>
<path d="M303.811 256.479C303.811 256.479 304.072 256.662 304.464 256.897C304.647 257.028 304.857 257.211 305.066 257.368C305.275 257.551 305.51 257.734 305.746 257.917C305.981 258.1 306.19 258.283 306.426 258.414C306.635 258.571 306.87 258.702 307.079 258.78C307.184 258.833 307.262 258.885 307.341 258.911C307.419 258.937 307.498 258.963 307.576 258.989C307.707 259.016 307.785 259.042 307.785 259.042C307.785 259.042 307.707 259.042 307.576 259.068C307.498 259.068 307.419 259.068 307.315 259.068C307.21 259.068 307.106 259.068 306.975 259.042C306.739 258.989 306.478 258.911 306.19 258.78C305.929 258.649 305.667 258.466 305.406 258.283C305.17 258.074 304.935 257.865 304.726 257.656C304.543 257.447 304.36 257.237 304.229 257.054C303.994 256.741 303.811 256.479 303.811 256.479Z" fill="#6B3B30"/>
<path d="M298.842 275.385C298.842 275.385 298.921 275.464 299.051 275.595C299.182 275.725 299.391 275.935 299.601 276.222C299.81 276.51 300.019 276.902 300.202 277.399C300.359 277.87 300.464 278.445 300.516 279.073C300.594 280.302 300.464 281.766 300.751 283.23C300.882 283.963 301.117 284.721 301.483 285.401C301.85 286.107 302.32 286.735 302.869 287.31C303.392 287.911 304.046 288.408 304.674 288.905C305.327 289.376 305.981 289.794 306.635 290.186C306.975 290.369 307.289 290.579 307.603 290.736C307.759 290.814 307.916 290.919 308.073 290.997C308.23 291.075 308.387 291.18 308.544 291.232C308.832 291.389 309.172 291.415 309.485 291.442C309.642 291.442 309.799 291.442 309.956 291.415C310.113 291.389 310.244 291.363 310.401 291.311C310.976 291.154 311.447 290.866 311.865 290.605C312.283 290.317 312.623 290.056 312.885 289.82C313.434 289.35 313.46 289.376 312.937 289.873C312.676 290.108 312.362 290.422 311.97 290.736C311.577 291.049 311.08 291.363 310.479 291.598C310.322 291.651 310.165 291.703 310.008 291.729C309.851 291.782 309.668 291.782 309.485 291.782C309.145 291.782 308.753 291.729 308.413 291.598C308.23 291.546 308.073 291.442 307.916 291.363C307.759 291.285 307.576 291.206 307.419 291.128C307.08 290.971 306.74 290.788 306.4 290.605C305.72 290.239 305.04 289.794 304.36 289.323C303.706 288.827 303.052 288.33 302.477 287.702C301.902 287.075 301.405 286.395 301.039 285.662C300.673 284.93 300.411 284.12 300.307 283.335C300.071 281.766 300.281 280.328 300.228 279.099C300.228 278.497 300.176 277.948 300.045 277.451C299.914 276.981 299.731 276.588 299.548 276.275C299.365 275.987 299.182 275.752 299.051 275.621C298.895 275.464 298.842 275.385 298.842 275.385Z" fill="#6B3B30"/>
<path d="M308.832 276.17C308.832 276.17 308.91 276.406 309.015 276.824C309.067 277.033 309.119 277.295 309.172 277.582C309.224 277.87 309.276 278.21 309.302 278.576C309.355 279.308 309.355 280.145 309.381 281.034C309.381 281.923 309.381 282.891 309.538 283.832C309.668 284.774 309.93 285.715 310.427 286.552C310.479 286.656 310.531 286.761 310.61 286.866C310.662 286.97 310.741 287.075 310.819 287.153C310.95 287.336 311.08 287.545 311.237 287.702C311.316 287.781 311.394 287.885 311.473 287.964C311.551 288.042 311.656 288.121 311.734 288.199C311.787 288.225 311.813 288.278 311.865 288.304C311.917 288.33 311.97 288.382 311.996 288.408C312.1 288.487 312.179 288.539 312.283 288.618C313.016 289.141 313.8 289.507 314.323 289.768C314.585 289.899 314.82 289.977 314.951 290.056C315.108 290.108 315.186 290.16 315.186 290.16C315.186 290.16 315.108 290.134 314.951 290.082C314.794 290.03 314.558 289.951 314.297 289.847C313.722 289.637 312.911 289.297 312.1 288.774C311.996 288.696 311.891 288.644 311.787 288.565C311.734 288.539 311.682 288.487 311.63 288.461C311.577 288.435 311.525 288.382 311.499 288.356C311.394 288.278 311.316 288.199 311.211 288.121C311.107 288.042 311.028 287.938 310.95 287.859C310.741 287.676 310.636 287.493 310.453 287.284C310.374 287.179 310.296 287.075 310.218 286.97C310.165 286.866 310.087 286.761 310.008 286.656C309.485 285.793 309.172 284.826 309.041 283.858C308.91 282.891 308.936 281.923 308.936 281.008C308.988 280.093 309.041 279.256 309.015 278.55C309.015 278.184 309.015 277.87 309.015 277.556C308.988 277.268 308.962 277.007 308.936 276.798C308.858 276.406 308.832 276.17 308.832 276.17Z" fill="#6B3B30"/>
<path d="M315.447 288.173C315.447 288.173 315.892 287.938 316.572 287.598C316.912 287.441 317.33 287.284 317.748 287.101C318.167 286.918 318.638 286.735 319.056 286.499C319.501 286.29 319.919 286.055 320.285 285.793C320.651 285.532 320.965 285.244 321.174 284.956C321.226 284.878 321.279 284.826 321.331 284.747C321.383 284.669 321.409 284.616 321.436 284.538C321.462 284.486 321.514 284.407 321.54 284.355C321.566 284.303 321.593 284.25 321.619 284.198C321.697 283.989 321.749 283.884 321.749 283.884C321.749 283.884 321.723 284.015 321.697 284.224C321.697 284.277 321.697 284.355 321.671 284.407C321.645 284.46 321.619 284.538 321.619 284.616C321.593 284.695 321.566 284.773 321.54 284.852C321.514 284.93 321.462 285.009 321.409 285.113C321.226 285.453 320.939 285.819 320.573 286.133C320.207 286.447 319.762 286.708 319.291 286.97C318.821 287.179 318.35 287.362 317.905 287.519C317.461 287.65 317.042 287.781 316.676 287.859C315.944 288.042 315.447 288.173 315.447 288.173Z" fill="#6B3B30"/>
<path d="M302.294 271.358C302.294 271.358 302.32 271.358 302.399 271.385C302.477 271.411 302.582 271.437 302.712 271.489C302.974 271.594 303.366 271.777 303.68 272.195C303.968 272.64 304.098 273.215 304.255 273.79C304.386 274.366 304.647 274.915 305.014 275.412C305.354 275.909 305.798 276.327 306.269 276.667C306.739 277.007 307.236 277.268 307.655 277.425C308.099 277.608 308.465 277.739 308.727 277.844C308.988 277.948 309.145 278.001 309.145 278.001C309.145 278.001 308.988 277.974 308.701 277.922C308.413 277.87 308.021 277.817 307.55 277.713C307.079 277.582 306.53 277.373 306.007 277.033C305.484 276.693 304.961 276.248 304.569 275.699C304.177 275.15 303.941 274.496 303.811 273.895C303.706 273.294 303.628 272.744 303.418 272.352C303.235 271.96 302.895 271.698 302.66 271.568C302.555 271.489 302.451 271.463 302.372 271.411C302.32 271.358 302.294 271.358 302.294 271.358Z" fill="#6B3B30"/>
<path d="M306.556 268.456C306.556 268.456 306.583 268.482 306.609 268.534C306.661 268.587 306.713 268.665 306.766 268.77C306.896 268.979 307.079 269.266 307.236 269.659C307.393 270.051 307.524 270.496 307.655 271.019C307.759 271.542 307.812 272.091 307.812 272.64C307.785 273.189 307.681 273.764 307.472 274.261C307.367 274.523 307.21 274.732 307.053 274.941C306.896 275.124 306.687 275.281 306.504 275.386C306.112 275.569 305.746 275.595 305.51 275.569C305.38 275.569 305.301 275.542 305.223 275.542C305.17 275.542 305.118 275.516 305.118 275.516C305.118 275.516 305.144 275.516 305.223 275.516C305.275 275.516 305.38 275.516 305.484 275.49C305.72 275.464 306.033 275.359 306.347 275.124C306.504 275.019 306.635 274.863 306.766 274.706C306.87 274.523 306.975 274.313 307.053 274.104C307.21 273.66 307.289 273.137 307.289 272.614C307.315 272.091 307.289 271.568 307.21 271.071C307.158 270.574 307.079 270.129 306.975 269.737C306.896 269.345 306.792 269.031 306.713 268.796C306.661 268.691 306.635 268.587 306.609 268.534C306.583 268.482 306.556 268.456 306.556 268.456Z" fill="#6B3B30"/>
<path d="M304.36 257.133C304.36 257.133 304.543 257.604 304.778 258.336C304.883 258.702 304.961 259.146 305.066 259.591C305.144 260.062 305.249 260.532 305.38 261.029C305.484 261.526 305.615 261.997 305.746 262.415C305.877 262.86 306.033 263.252 306.217 263.592C306.373 263.932 306.504 264.219 306.609 264.402C306.713 264.586 306.792 264.716 306.792 264.716C306.792 264.716 306.713 264.612 306.556 264.455C306.4 264.298 306.19 264.036 305.955 263.749C305.746 263.435 305.537 263.043 305.327 262.598C305.144 262.154 304.987 261.657 304.857 261.16C304.752 260.663 304.674 260.166 304.621 259.695C304.569 259.225 304.517 258.78 304.491 258.414C304.438 257.656 304.36 257.133 304.36 257.133Z" fill="#6B3B30"/>
<path d="M305.955 263.513C305.955 263.513 305.955 263.644 305.981 263.88C306.007 264.115 306.033 264.455 306.112 264.847C306.164 265.239 306.216 265.71 306.347 266.207C306.452 266.704 306.582 267.201 306.765 267.697C306.948 268.194 307.184 268.665 307.445 269.083C307.576 269.293 307.707 269.502 307.864 269.659C307.994 269.842 308.151 269.999 308.282 270.155C308.413 270.312 308.544 270.443 308.648 270.548C308.753 270.678 308.884 270.757 308.962 270.835C308.988 270.862 308.674 270.783 308.544 270.678C308.413 270.574 308.23 270.495 308.073 270.365C307.916 270.234 307.733 270.077 307.576 269.92C307.393 269.763 307.236 269.554 307.079 269.345C306.765 268.9 306.504 268.403 306.269 267.88C306.085 267.357 305.955 266.808 305.876 266.285C305.824 265.762 305.798 265.292 305.798 264.873C305.824 264.455 305.85 264.115 305.876 263.88C305.929 263.644 305.955 263.513 305.955 263.513Z" fill="#6B3B30"/>
<path d="M308.91 268.377C308.91 268.377 308.936 268.508 308.988 268.769C308.988 268.822 309.014 268.9 309.014 268.979C309.014 269.057 309.014 269.136 309.041 269.24C309.041 269.423 309.067 269.632 309.067 269.842C309.067 270.286 309.014 270.783 308.962 271.332C308.884 271.881 308.831 272.43 308.805 273.006C308.779 273.293 308.753 273.555 308.779 273.843C308.805 274.13 308.779 274.392 308.831 274.653C308.884 275.176 308.936 275.673 308.988 276.118C309.041 276.562 309.041 276.928 309.067 277.164C309.093 277.425 309.093 277.556 309.093 277.556C309.093 277.556 309.067 277.425 308.988 277.164C308.91 276.928 308.831 276.562 308.701 276.144C308.596 275.725 308.491 275.228 308.387 274.679C308.335 274.418 308.335 274.104 308.308 273.816C308.282 273.529 308.282 273.215 308.282 272.927C308.335 272.326 308.439 271.751 308.518 271.228C308.622 270.705 308.727 270.208 308.779 269.763C308.831 269.554 308.831 269.345 308.858 269.188C308.858 269.109 308.884 269.031 308.884 268.952C308.884 268.874 308.884 268.796 308.884 268.743C308.91 268.534 308.91 268.377 308.91 268.377Z" fill="#6B3B30"/>
<path d="M199.682 172.799L200.937 169.609L200.074 169.897L199.263 170.838V172.328L199.655 172.904L199.682 172.799Z" fill="#2D3A4C"/>
</g>
<defs>
<clipPath id="clip0">
<rect width="523" height="523" fill="white"/>
</clipPath>
</defs>
</svg>
