<svg width="1440" height="356" viewBox="0 0 1440 356" fill="none" xmlns="http://www.w3.org/2000/svg">
<mask id="mask0" mask-type="alpha" maskUnits="userSpaceOnUse" x="0" y="0" width="1440" height="348">
<rect width="1440" height="348" fill="#C4C4C4"/>
</mask>
<g mask="url(#mask0)">
<path d="M2082.09 625.537C2011.05 604.704 1945.6 578.199 1890.15 543.378C1853.74 520.515 1817.42 494.359 1793.9 464.199C1754.1 413.193 1743.3 348.012 1729.38 286.983C1714.04 219.688 1699.53 150.993 1665.47 90.6584C1647.09 58.0947 1618.6 31.1367 1571.11 17.2088C1526.52 4.11403 1475.91 0.862575 1423.4 4.88163C1312.88 13.3532 1200.04 45.4068 1091.87 75.247C1033.76 91.2817 975.755 107.738 917.35 122.667C864.784 136.103 808.955 151.247 755.573 156.644C606.908 171.652 458.204 146.481 324.903 124.416C277.889 116.631 230.44 109.082 183.722 100.905C108.436 87.7374 35.635 70.2277 -39.4311 56.3842C-104.315 44.4096 -173.366 36.5386 -245.965 45.8363C-261.64 47.8421 -278.465 50.4601 -293.021 55.5057C-313.444 62.5797 -342.977 75.867 -341.788 94.1047C-341.732 95.1509 -341.536 96.1707 -341.202 97.1515C-335.488 113.937 -306.474 122.724 -286.822 129.568C-274.372 133.806 -261.448 137.506 -248.107 140.65C-111.003 173.958 39.8412 192.685 189.278 207.656C342.005 222.874 498.68 233.904 657.099 232.284C745.326 231.381 828.305 224.644 917.565 200.134C992.602 179.508 1065.91 153.33 1139.25 128.722C1230.16 98.2115 1327.06 65.5106 1422.41 58.9259C1473.07 55.4279 1522.77 61.5319 1563.07 77.1151C1603.76 92.8015 1622.64 124.352 1630.71 156.129C1649.91 231.649 1629.92 318.119 1629.33 398.927C1629.04 437.229 1631.52 475.729 1645.32 510.946C1658.73 545.154 1686.11 570.214 1718.36 594.687C1762.24 628.006 1811.8 658.668 1867.78 681.534C1886.67 689.218 1907.18 695.215 1928.94 699.418C1986.67 710.633 2051.33 716.958 2117.63 702.989C2138.57 698.579 2162.59 691.494 2179.83 680.421C2228.62 649.08 2104.2 631.562 2082.09 625.537Z" fill="#00237C"/>
<path d="M1950.34 741.207C1868.72 719.956 1790.89 693.788 1727.15 655.683C1688.7 632.691 1648.65 605.259 1630.58 571.45C1599.56 513.452 1612.03 438.26 1618.9 370.43C1626.32 297.28 1644.57 214.582 1615.93 150.492C1601.79 118.776 1574.91 97.2817 1527.68 86.7825C1486.07 77.6203 1439.47 76.6613 1392.25 83.9948C1301.09 97.9438 1212.04 134.132 1127.11 167.052C1038.02 201.545 946.205 239.056 851.074 257.194C783.632 270.059 714.041 270.277 648.268 270.985C549.134 272.047 451.122 268.851 354.129 264.101C292.199 261.08 230.063 257.787 168.601 253.608C46.4086 245.302 -74.0908 232.506 -195.58 222.193C-285.3 214.573 -380.725 205.686 -475.885 217.537C-489.093 219.186 -503.535 221.678 -515.817 226.787C-541.777 237.595 -524.844 257.614 -514.487 265.027C-512.952 266.079 -511.309 267.054 -509.569 267.946C-480.134 283.678 -439.475 290.812 -402.213 296.662C-384.835 299.406 -366.718 301.728 -348.849 303.9C-179.078 324.55 -3.10306 335.937 173.196 343.538C336.117 350.565 501.622 355.387 668.443 348.459C751.089 345.023 827.887 338.878 909.76 312.535C976.703 290.994 1040.81 263.077 1104.95 236.59C1185.22 203.445 1271.23 167.866 1359.05 157.748C1406.37 152.277 1454.49 156.324 1493.15 169.455C1536.11 184.038 1554.6 214.548 1561.02 247.091C1576.11 323.63 1545.29 412.709 1530.08 495.787C1522.54 536.917 1523.06 557.951 1530.26 598.33C1540.15 635.24 1561 673.443 1583.26 694.239C1620.72 729.252 1663.87 762.802 1720.13 783.43C1739.85 790.536 1760.5 796.627 1781.95 801.665C1850.5 818.001 1928.9 827.541 2008.51 819.52C2028.59 817.488 2055.16 813.356 2072.07 802.45C2124.53 768.609 1972.17 746.594 1950.33 741.21" fill="#CD142B"/>
</g>
</svg>
