<svg width="1440" height="491" viewBox="0 0 1440 491" fill="none" xmlns="http://www.w3.org/2000/svg">
<mask id="mask0" mask-type="alpha" maskUnits="userSpaceOnUse" x="-26" y="0" width="1469" height="491">
<rect x="-26" width="1469" height="491" fill="#C4C4C4"/>
</mask>
<g mask="url(#mask0)">
<path d="M1764.43 -127.988C1794.08 -127.788 1813.65 -116.802 1803.57 -107.361C1801.6 -105.64 1798.64 -104.092 1794.89 -102.819C1729.44 -81.3057 1675.09 -53.6839 1646.84 -23.5518C1634.41 -10.2701 1624.37 3.4549 1614.96 17.1513C1597.17 43.0208 1578.81 69.0405 1562.29 95.01C1543.92 123.855 1526.71 153.057 1506.94 181.752C1498.24 194.318 1488.97 206.985 1479.27 219.437C1448.89 258.058 1411.53 296.401 1361.27 331.976C1324.21 358.218 1280.11 380.84 1194.62 387.048C1108.37 393.306 1013.21 386.054 930.651 378.537C702.159 357.717 478.411 319.295 259.525 285.73C220.606 279.765 175.639 271.075 135.376 272.513C101.774 273.715 70.1487 279.987 37.9701 285.838C31.2102 287.061 23.7781 288.319 16.5834 288.605C11.3276 288.896 5.99451 288.297 2.11499 286.982C-4.60535 284.686 -8.08411 279.765 -10.8118 274.88C-15.2195 267.013 -19.3901 259.081 -23.4619 251.178C-24.9048 248.41 -26.3083 245.678 -27.7908 243.003C-33.3647 232.904 -37.7922 221.618 -29.0953 211.533C-23.8239 205.617 -14.8008 200.228 -2.74744 195.799C21.0901 186.558 56.8861 170.573 98.0581 173.741C128.992 176.123 158.442 182.202 187.142 187.166C251.638 198.309 317.161 208.859 382.052 219.58C459.337 232.353 537.945 244.777 617.265 255.276C738.231 271.269 884.32 289.449 1015.9 281.024C1130.94 273.622 1206.01 236.201 1263.7 203.258C1339.78 159.823 1384.02 110.623 1415.19 60.1002C1429.64 36.7054 1440.07 12.624 1454.86 -10.5777C1467.69 -30.7182 1484.74 -50.7658 1510.6 -68.7893C1530.39 -82.6896 1557.9 -94.9616 1591.4 -104.836C1637.18 -118.39 1704.64 -128.396 1764.43 -127.988Z" fill="#CD142B"/>
<path d="M2009.48 -93.3026C2029.83 -94.0168 2066.35 -93.3669 2066.16 -82.4542C2065.96 -81.1509 2064.77 -79.8925 2062.71 -78.819C2015.88 -50.5446 1951.07 -27.0838 1914.41 3.31177C1897.52 17.3168 1882.74 31.879 1869.02 46.3626C1843.29 73.7657 1818.72 101.933 1796.89 129.586C1772.42 160.567 1754.94 192.898 1736.57 224.751C1728.18 239.27 1719.83 253.825 1711.16 268.316C1684.65 312.531 1654.84 356.874 1612.78 399.246C1583.54 428.699 1552.88 464.873 1478.59 484.184C1401.73 504.181 1298.24 499.739 1211.36 494.818C914.934 477.999 637.511 427.528 344.49 402.575C286.392 397.632 220.674 390.498 162.676 395.79C115.01 400.146 69.5017 409.909 23.7363 416.83C14.9475 418.158 5.34692 419.308 -3.50146 419.479C-9.73657 419.601 -15.4968 419.058 -19.6538 417.215C-25.3149 414.716 -27.0173 409.674 -27.0569 404.503C-27.0569 395.883 -25.7307 387.198 -23.4939 378.571C-22.7219 375.557 -21.7124 372.558 -20.7822 369.651C-17.3181 358.724 -11.696 347.168 2.02148 337.348C10.9021 331.254 22.6272 325.758 36.6821 321.101C75.2819 308.388 117.068 294.419 173.266 295.39C212.855 296.104 251.257 301.254 288.55 305.567C362.127 314.073 434.556 323.293 506.292 333.556C591.271 345.697 676.526 358.495 762.158 369.829C898.109 387.812 1053.14 408.145 1200.95 406.203C1349.94 404.246 1410.3 360.495 1466.85 317.68C1544.84 258.617 1590.82 194.427 1630.2 130.172C1646.74 103.176 1664.44 76.1582 1683.38 49.4693C1698.39 28.3224 1715.19 6.98979 1739.74 -12.5073C1757.71 -26.8177 1782.04 -39.9725 1811.77 -51.4516C1862.15 -70.9131 1938.32 -90.8958 2009.48 -93.3026Z" fill="#979797"/>
</g>
</svg>
