<svg width="1440" height="627" viewBox="0 0 1440 627" fill="none" xmlns="http://www.w3.org/2000/svg">
<path d="M1764.43 0.0120218C1794.08 0.212283 1813.65 11.198 1803.57 20.6389C1801.6 22.3597 1798.64 23.9083 1794.89 25.1806C1729.44 46.6943 1675.09 74.3161 1646.84 104.448C1634.41 117.73 1624.37 131.455 1614.96 145.151C1597.17 171.021 1578.81 197.04 1562.29 223.01C1543.92 251.855 1526.71 281.057 1506.94 309.752C1498.24 322.318 1488.97 334.985 1479.27 347.437C1448.89 386.058 1411.53 424.401 1361.27 459.976C1324.21 486.218 1280.11 508.84 1194.62 515.048C1108.37 521.306 1013.21 514.054 930.651 506.537C702.159 485.717 478.411 447.295 259.525 413.73C220.606 407.765 175.639 399.075 135.376 400.513C101.774 401.715 70.1487 407.987 37.9701 413.838C31.2102 415.061 23.7781 416.319 16.5834 416.605C11.3276 416.896 5.99451 416.297 2.11499 414.982C-4.60535 412.686 -8.08411 407.765 -10.8118 402.88C-15.2195 395.013 -19.3901 387.081 -23.4619 379.178C-24.9048 376.41 -26.3083 373.678 -27.7908 371.003C-33.3647 360.904 -37.7922 349.618 -29.0953 339.533C-23.8239 333.617 -14.8008 328.228 -2.74744 323.799C21.0901 314.558 56.8861 298.573 98.0581 301.741C128.992 304.123 158.442 310.202 187.142 315.166C251.638 326.309 317.161 336.859 382.052 347.58C459.337 360.353 537.945 372.777 617.265 383.276C738.231 399.269 884.32 417.449 1015.9 409.024C1130.94 401.622 1206.01 364.201 1263.7 331.258C1339.78 287.823 1384.02 238.623 1415.19 188.1C1429.64 164.705 1440.07 140.624 1454.86 117.422C1467.69 97.2818 1484.74 77.2342 1510.6 59.2107C1530.39 45.3104 1557.9 33.0384 1591.4 23.1637C1637.18 9.61026 1704.64 -0.395653 1764.43 0.0120218Z" fill="#CD142B"/>
<path d="M2009.48 34.6974C2029.83 33.9832 2066.35 34.6331 2066.16 45.5458C2065.96 46.8491 2064.77 48.1075 2062.71 49.181C2015.88 77.4554 1951.07 100.916 1914.41 131.312C1897.52 145.317 1882.74 159.879 1869.02 174.363C1843.29 201.766 1818.72 229.933 1796.89 257.586C1772.42 288.567 1754.94 320.898 1736.57 352.751C1728.18 367.27 1719.83 381.825 1711.16 396.316C1684.65 440.531 1654.84 484.874 1612.78 527.246C1583.54 556.699 1552.88 592.873 1478.59 612.184C1401.73 632.181 1298.24 627.739 1211.36 622.818C914.934 605.999 637.511 555.528 344.49 530.575C286.392 525.632 220.674 518.498 162.676 523.79C115.01 528.146 69.5017 537.909 23.7363 544.83C14.9475 546.158 5.34692 547.308 -3.50146 547.479C-9.73657 547.601 -15.4968 547.058 -19.6538 545.215C-25.3149 542.716 -27.0173 537.674 -27.0569 532.503C-27.0569 523.883 -25.7307 515.198 -23.4939 506.571C-22.7219 503.557 -21.7124 500.558 -20.7822 497.651C-17.3181 486.724 -11.696 475.168 2.02148 465.348C10.9021 459.254 22.6272 453.758 36.6821 449.101C75.2819 436.388 117.068 422.419 173.266 423.39C212.855 424.104 251.257 429.254 288.55 433.567C362.127 442.073 434.556 451.293 506.292 461.556C591.271 473.697 676.526 486.495 762.158 497.829C898.109 515.812 1053.14 536.145 1200.95 534.203C1349.94 532.246 1410.3 488.495 1466.85 445.68C1544.84 386.617 1590.82 322.427 1630.2 258.172C1646.74 231.176 1664.44 204.158 1683.38 177.469C1698.39 156.322 1715.19 134.99 1739.74 115.493C1757.71 101.182 1782.04 88.0275 1811.77 76.5484C1862.15 57.0869 1938.32 37.1042 2009.48 34.6974Z" fill="#979797"/>
</svg>
