<svg width="1440" height="1944" viewBox="0 0 1440 1944" fill="none" xmlns="http://www.w3.org/2000/svg">
<path d="M2082.09 1150.54C2011.05 1129.7 1945.6 1103.2 1890.15 1068.38C1853.74 1045.51 1817.42 1019.36 1793.9 989.199C1754.1 938.193 1743.3 873.012 1729.38 811.983C1714.04 744.688 1699.53 675.993 1665.47 615.658C1647.09 583.095 1618.6 556.137 1571.11 542.209C1526.52 529.114 1475.91 525.863 1423.4 529.882C1312.88 538.353 1200.04 570.407 1091.87 600.247C1033.76 616.282 975.755 632.738 917.35 647.667C864.784 661.103 808.955 676.247 755.573 681.644C606.908 696.652 458.204 671.481 324.903 649.416C277.889 641.631 230.44 634.082 183.722 625.905C108.436 612.737 35.635 595.228 -39.4311 581.384C-104.315 569.41 -173.366 561.539 -245.965 570.836C-261.64 572.842 -278.465 575.46 -293.021 580.506C-313.444 587.58 -342.977 600.867 -341.788 619.105C-341.732 620.151 -341.536 621.171 -341.202 622.152C-335.488 638.937 -306.474 647.724 -286.822 654.568C-274.372 658.806 -261.448 662.506 -248.107 665.65C-111.003 698.958 39.8412 717.685 189.278 732.656C342.005 747.874 498.68 758.904 657.099 757.284C745.326 756.381 828.305 749.644 917.565 725.134C992.602 704.508 1065.91 678.33 1139.25 653.722C1230.16 623.212 1327.06 590.511 1422.41 583.926C1473.07 580.428 1522.77 586.532 1563.07 602.115C1603.76 617.801 1622.64 649.352 1630.71 681.129C1649.91 756.649 1629.92 843.119 1629.33 923.927C1629.04 962.229 1631.52 1000.73 1645.32 1035.95C1658.73 1070.15 1686.11 1095.21 1718.36 1119.69C1762.24 1153.01 1811.8 1183.67 1867.78 1206.53C1886.67 1214.22 1907.18 1220.21 1928.94 1224.42C1986.67 1235.63 2051.33 1241.96 2117.63 1227.99C2138.57 1223.58 2162.59 1216.49 2179.83 1205.42C2228.62 1174.08 2104.2 1156.56 2082.09 1150.54Z" fill="#00237C"/>
<path d="M1950.34 1266.21C1868.72 1244.96 1790.89 1218.79 1727.15 1180.68C1688.7 1157.69 1648.65 1130.26 1630.58 1096.45C1599.56 1038.45 1612.03 963.26 1618.9 895.43C1626.32 822.28 1644.57 739.582 1615.93 675.492C1601.79 643.776 1574.91 622.282 1527.68 611.782C1486.07 602.62 1439.47 601.661 1392.25 608.995C1301.09 622.944 1212.04 659.132 1127.11 692.052C1038.02 726.545 946.205 764.056 851.074 782.194C783.632 795.059 714.041 795.277 648.268 795.985C549.134 797.047 451.122 793.851 354.129 789.101C292.199 786.08 230.063 782.787 168.601 778.608C46.4086 770.302 -74.0908 757.506 -195.58 747.193C-285.3 739.573 -380.725 730.686 -475.885 742.537C-489.093 744.186 -503.535 746.678 -515.817 751.787C-541.777 762.595 -524.844 782.614 -514.487 790.027C-512.952 791.079 -511.309 792.054 -509.569 792.946C-480.134 808.678 -439.475 815.812 -402.213 821.662C-384.835 824.406 -366.718 826.728 -348.849 828.9C-179.078 849.55 -3.10306 860.937 173.196 868.538C336.117 875.565 501.622 880.387 668.443 873.459C751.089 870.023 827.887 863.878 909.76 837.535C976.703 815.994 1040.81 788.077 1104.95 761.59C1185.22 728.445 1271.23 692.866 1359.05 682.748C1406.37 677.277 1454.49 681.324 1493.15 694.455C1536.11 709.038 1554.6 739.548 1561.02 772.091C1576.11 848.63 1545.29 937.709 1530.08 1020.79C1522.54 1061.92 1523.06 1082.95 1530.26 1123.33C1540.15 1160.24 1561 1198.44 1583.26 1219.24C1620.72 1254.25 1663.87 1287.8 1720.13 1308.43C1739.85 1315.54 1760.5 1321.63 1781.95 1326.67C1850.5 1343 1928.9 1352.54 2008.51 1344.52C2028.59 1342.49 2055.16 1338.36 2072.07 1327.45C2124.53 1293.61 1972.17 1271.59 1950.33 1266.21" fill="#CD142B"/>
</svg>
