<svg width="406" height="581" viewBox="0 0 406 581" fill="none" xmlns="http://www.w3.org/2000/svg">
<circle cx="375.027" cy="58.0268" r="5.92099" transform="rotate(-165 375.027 58.0268)" stroke="#00237C" stroke-opacity="0.54" stroke-width="2"/>
<circle cx="187.027" cy="534.027" r="5.92099" transform="rotate(-165 187.027 534.027)" stroke="#00237C" stroke-opacity="0.54" stroke-width="2"/>
<path d="M350.049 477.996C362.127 487.777 378.532 485.559 387.884 474.01C397.237 462.461 395.732 443.377 383.917 436.173C372.101 428.969 354.696 426.23 346.081 440.159C337.466 454.087 337.97 468.215 350.049 477.996Z" fill="#CD142B"/>
<path d="M268.993 119.859C275.2 124.886 283.631 123.746 288.438 117.81C293.245 111.875 292.472 102.066 286.399 98.364C280.326 94.6616 271.381 93.2539 266.953 100.412C262.526 107.571 262.785 114.832 268.993 119.859Z" fill="#00237C"/>
<path d="M295.499 572.446C300.991 577.475 308.813 576.371 314.403 570.486C319.992 564.601 318.871 555.394 312.389 551.589C305.907 547.783 298.759 547.918 293.486 553.548C288.212 559.178 290.008 567.417 295.499 572.446Z" fill="#00237C" fill-opacity="0.54"/>
<path d="M11.1155 269.852C16.6068 274.881 24.4294 273.777 30.0188 267.892C35.6082 262.008 34.4874 252.8 28.0054 248.995C21.5233 245.189 14.3757 245.325 9.10209 250.954C3.82849 256.584 5.62423 264.823 11.1155 269.852Z" fill="#797979"/>
<path d="M301.151 12.0312C297.374 18.4481 300.08 25.8702 306.998 30.114C313.916 34.3577 322.689 31.3471 325.064 24.2155C327.439 17.0839 325.82 10.1206 319.217 6.13275C312.614 2.14488 304.928 5.61437 301.151 12.0312Z" fill="#979797"/>
<circle cx="207" cy="250" r="199" fill="#00237C"/>
<circle cx="208" cy="249" r="177" stroke="white" stroke-width="4" stroke-dasharray="15 15"/>
<g clip-path="url(#clip0)">
<path d="M128.23 200.133H128.184C126.538 191.779 125.748 183.28 125.828 174.766C125.828 136.506 167.414 123.753 209 123.753C246.428 123.753 242.269 111 242.269 111C242.269 111 292.173 132.255 292.173 174.766C292.263 183.282 291.458 191.785 289.77 200.133H128.23Z" fill="#A56A43"/>
<path d="M246.044 318.806C236.128 312.185 233.36 299.113 232.473 291.808H185.527C184.695 298.683 182.191 310.669 173.624 317.577L209 346.655L246.044 318.806Z" fill="#F9C795"/>
<path d="M277.294 235.759H282.932C291.769 235.725 299.347 229.44 301.013 220.76C302.679 212.081 297.967 203.437 289.77 200.133C287.601 199.242 285.277 198.786 282.932 198.793H135.069C132.724 198.786 130.4 199.242 128.231 200.133C120.034 203.437 115.322 212.081 116.988 220.76C118.655 229.44 126.232 235.725 135.069 235.759H277.294Z" fill="#F9C795"/>
<path d="M183.988 291.281C200.112 297.343 217.888 297.343 234.012 291.281C238.436 289.668 242.729 287.715 246.853 285.44C270.991 271.504 280.159 241.151 277.812 215.76C277.678 214.305 276.887 201.681 276.005 192.606C275.474 187.369 271.252 183.274 266.001 182.903C252.079 181.881 224.553 177.986 211.851 163.154C211.149 162.31 210.108 161.821 209.009 161.821C207.911 161.821 206.87 162.31 206.168 163.154C193.465 177.986 165.94 181.881 152.018 182.903C146.767 183.274 142.545 187.369 142.014 192.606C141.118 201.681 140.341 214.323 140.207 215.76C137.851 241.174 147.018 271.504 171.166 285.44C175.284 287.714 179.57 289.667 183.988 291.281Z" fill="#FDD7AD"/>
<path d="M208.201 364.805C210.137 333.408 210.927 321.551 181.276 309.69C180.952 309.551 180.675 309.459 180.352 309.32C160.816 301.483 120.458 284.738 107.114 279.193C105.958 278.722 104.66 278.738 103.517 279.239C102.373 279.739 101.48 280.681 101.042 281.85L91.0801 308.396L208.201 364.805Z" fill="#F9EAB0"/>
<path d="M209.813 365.087C207.873 333.481 206.985 321.583 236.724 309.689C237.048 309.551 237.325 309.458 237.648 309.32C257.185 301.465 297.542 284.724 310.886 279.17C312.042 278.698 313.34 278.715 314.483 279.215C315.627 279.716 316.52 280.658 316.958 281.827L326.92 308.396L209.813 365.087Z" fill="#F5EFCA"/>
<path d="M174.298 361.857C152.304 374.379 134.422 374.379 116.586 374.379V332.793L174.298 361.857Z" fill="#F9C795"/>
<path d="M243.701 361.857C265.696 374.379 283.578 374.379 301.414 374.379V337.414L243.701 361.857Z" fill="#F9C795"/>
<path d="M181.276 240.379C188.932 240.379 195.138 234.173 195.138 226.517C195.138 218.862 188.932 212.655 181.276 212.655C173.62 212.655 167.414 218.862 167.414 226.517C167.414 234.173 173.62 240.379 181.276 240.379Z" fill="#ECF0F1"/>
<path d="M250.586 226.517C250.586 234.173 244.38 240.379 236.724 240.379C229.068 240.379 222.862 234.173 222.862 226.517C222.853 225.522 222.961 224.529 223.185 223.56C224.704 216.652 231.18 211.996 238.211 212.755C245.243 213.514 250.576 219.444 250.586 226.517Z" fill="#ECF0F1"/>
<path d="M209 277.345C202.737 277.614 196.608 275.476 191.871 271.37C190.22 269.557 190.273 266.769 191.993 265.02C193.712 263.271 196.499 263.17 198.34 264.79C201.382 267.136 205.165 268.311 209 268.103C212.825 268.303 216.595 267.126 219.628 264.786C221.471 263.052 224.363 263.111 226.133 264.92C227.904 266.717 227.892 269.607 226.106 271.389C221.372 275.483 215.253 277.613 209 277.345Z" fill="#802D40"/>
<path d="M213.621 254.241H204.379C201.828 254.241 199.759 252.173 199.759 249.621C199.759 247.069 201.828 245 204.379 245H213.621C216.173 245 218.242 247.069 218.242 249.621C218.242 252.173 216.173 254.241 213.621 254.241Z" fill="#F9C795"/>
<path d="M162.793 212.655C161.192 212.654 159.706 211.825 158.865 210.463C158.023 209.101 157.947 207.401 158.662 205.969C164.489 194.306 180.597 194.172 181.276 194.172C183.828 194.172 185.896 196.241 185.896 198.793C185.896 201.345 183.828 203.414 181.276 203.414C181.063 203.414 170.112 203.7 166.915 210.1C166.134 211.662 164.539 212.651 162.793 212.655Z" fill="#A56A43"/>
<path d="M255.207 212.655C253.447 212.665 251.835 211.674 251.048 210.1C247.814 203.599 236.83 203.414 236.724 203.414C234.172 203.414 232.104 201.345 232.104 198.793C232.104 196.241 234.172 194.172 236.724 194.172C237.403 194.172 253.511 194.306 259.366 205.969C260.083 207.405 260.004 209.111 259.156 210.475C258.308 211.838 256.813 212.664 255.207 212.655Z" fill="#A56A43"/>
<path d="M183.586 238.069C188.052 238.069 191.672 234.449 191.672 229.983C191.672 225.517 188.052 221.896 183.586 221.896C179.12 221.896 175.5 225.517 175.5 229.983C175.5 234.449 179.12 238.069 183.586 238.069Z" fill="#3F5C6C"/>
<path d="M234.413 238.069C238.879 238.069 242.5 234.449 242.5 229.983C242.5 225.517 238.879 221.896 234.413 221.896C229.947 221.896 226.327 225.517 226.327 229.983C226.327 234.449 229.947 238.069 234.413 238.069Z" fill="#3F5C6C"/>
<path d="M190.518 245H172.035C169.483 245 167.414 242.931 167.414 240.379C167.414 237.828 169.483 235.759 172.035 235.759H190.518C193.069 235.759 195.138 237.828 195.138 240.379C195.138 242.931 193.069 245 190.518 245Z" fill="#F9C795"/>
<path d="M245.966 245H227.483C224.931 245 222.862 242.931 222.862 240.379C222.862 237.828 224.931 235.759 227.483 235.759H245.966C248.518 235.759 250.586 237.828 250.586 240.379C250.586 242.931 248.518 245 245.966 245Z" fill="#F9C795"/>
<path d="M176.655 231.138C179.207 231.138 181.276 229.069 181.276 226.517C181.276 223.965 179.207 221.896 176.655 221.896C174.103 221.896 172.034 223.965 172.034 226.517C172.034 229.069 174.103 231.138 176.655 231.138Z" fill="#ECF0F1"/>
<path d="M227.483 231.138C230.035 231.138 232.104 229.069 232.104 226.517C232.104 223.965 230.035 221.896 227.483 221.896C224.931 221.896 222.862 223.965 222.862 226.517C222.862 229.069 224.931 231.138 227.483 231.138Z" fill="#ECF0F1"/>
<path d="M97.2256 332.701L77.9573 325.4C76.7396 324.921 75.7799 323.952 75.3138 322.73C74.8477 321.507 74.9183 320.145 75.5083 318.977L80.5449 308.858C81.6042 306.707 84.1328 305.724 86.3669 306.594L91.08 308.396L190.517 346.655H227.483L326.92 308.396L331.633 306.594C333.867 305.724 336.396 306.707 337.455 308.858L342.492 318.977C343.082 320.145 343.152 321.507 342.686 322.73C342.22 323.952 341.26 324.921 340.043 325.4L320.774 332.701L281.36 347.625L243.701 361.857L229.054 367.402H188.946L174.299 361.857L136.64 347.625L97.2256 332.701Z" fill="#A56A43"/>
<path d="M215.742 379H202.258C193.696 379 187.176 370.027 188.586 360.171L190.517 346.655H227.483L229.414 360.171C230.823 370.027 224.304 379 215.742 379Z" fill="#805333"/>
<path d="M105.601 331.811L131.385 341.958C136.131 343.826 138.465 349.188 136.597 353.935L133.215 362.529C129.479 372.023 118.754 376.69 109.261 372.954L100.666 369.571C91.1732 365.835 86.5061 355.111 90.2421 345.618L93.6245 337.023C95.4925 332.277 100.855 329.943 105.601 331.811Z" fill="#FDD7AD"/>
<path d="M317.62 369.713L309.025 373.096C299.532 376.832 288.808 372.165 285.071 362.671L281.689 354.077C279.821 349.33 282.155 343.968 286.901 342.1L312.685 331.953C317.431 330.085 322.794 332.419 324.662 337.165L328.044 345.76C331.78 355.253 327.113 365.977 317.62 369.713Z" fill="#FDD7AD"/>
</g>
<defs>
<clipPath id="clip0">
<rect width="268" height="268" fill="white" transform="translate(75 111)"/>
</clipPath>
</defs>
</svg>
