<svg width="201" height="201" viewBox="0 0 201 201" fill="none" xmlns="http://www.w3.org/2000/svg">
<path d="M160.799 142.376C173.75 142.376 184.249 131.877 184.249 118.926C184.249 105.975 173.75 95.4761 160.799 95.4761C147.848 95.4761 137.35 105.975 137.35 118.926C137.35 131.877 147.848 142.376 160.799 142.376Z" fill="#FDB62F"/>
<path d="M103.851 25.126H97.1504V88.7758H103.851V25.126Z" fill="#6B962A"/>
<path d="M100.5 25.1261H93.7995C80.8483 25.1261 70.3496 14.6274 70.3496 1.67627H77.0497C90.0009 1.67627 100.5 12.175 100.5 25.1261Z" fill="#88B337"/>
<path d="M117.25 102.176H70.3496V115.576H117.25V102.176Z" fill="#FFA83D"/>
<path d="M123.95 115.576H77.0498V128.976H123.95V115.576Z" fill="#FDB62F"/>
<path d="M117.25 128.976H70.3496V142.375H117.25V128.976Z" fill="#FFA83D"/>
<path d="M123.95 142.376H77.0498V155.776H123.95V142.376Z" fill="#FDB62F"/>
<path d="M123.95 155.776H77.0498V169.176H123.95V155.776Z" fill="#FFA83D"/>
<path d="M130.65 169.176H83.75V182.576H130.65V169.176Z" fill="#FDB62F"/>
<path d="M123.95 182.576H77.0498V195.976H123.95V182.576Z" fill="#FFA83D"/>
<path d="M60.2998 35.1763H66.9999C85.5021 35.1763 100.5 50.1743 100.5 68.6761H93.7997C75.2979 68.6761 60.2998 53.6785 60.2998 35.1763Z" fill="#88B337"/>
<path d="M130.65 1.67627H123.95C110.999 1.67627 100.5 12.175 100.5 25.1261H107.2C120.151 25.1261 130.65 14.6274 130.65 1.67627Z" fill="#6B962A"/>
<path d="M107.2 68.6761H100.5C100.5 50.1739 115.498 35.1763 134 35.1763H140.7C140.7 53.6785 125.702 68.6761 107.2 68.6761Z" fill="#6B962A"/>
<path d="M56.9499 128.976H10.0498V142.375H56.9499V128.976Z" fill="#FDB62F"/>
<path d="M56.9499 142.376H10.0498V155.776H56.9499V142.376Z" fill="#FFA83D"/>
<path d="M63.6501 155.776H16.75V169.176H63.6501V155.776Z" fill="#FDB62F"/>
<path d="M56.9499 169.176H10.0498V182.576H56.9499V169.176Z" fill="#FFA83D"/>
<path d="M63.6501 182.576H16.75V195.976H63.6501V182.576Z" fill="#FDB62F"/>
<path d="M184.25 142.376H137.35V155.776H184.25V142.376Z" fill="#FDB62F"/>
<path d="M190.95 155.776H144.05V169.176H190.95V155.776Z" fill="#FFA83D"/>
<path d="M190.95 169.176H144.05V182.576H190.95V169.176Z" fill="#FDB62F"/>
<path d="M190.95 182.576H144.05V195.976H190.95V182.576Z" fill="#FFA83D"/>
<path d="M160.8 132.326C168.201 132.326 174.2 126.326 174.2 118.926C174.2 111.525 168.201 105.526 160.8 105.526C153.4 105.526 147.4 111.525 147.4 118.926C147.4 126.326 153.4 132.326 160.8 132.326Z" fill="#FFA83D"/>
<path d="M160.8 132.326V125.626C164.501 125.626 167.5 122.628 167.5 118.926H174.2C174.2 126.326 168.2 132.326 160.8 132.326Z" fill="#FD7B2F"/>
<path d="M154.1 118.926H147.399C147.399 111.526 153.399 105.526 160.799 105.526V112.226C157.098 112.226 154.1 115.224 154.1 118.926Z" fill="#FD7B2F"/>
<path d="M167.499 35.1762C166.361 28.3022 160.974 22.9152 154.1 21.7763C160.974 20.6375 166.361 15.2505 167.499 8.37646C168.638 15.2505 174.025 20.6375 180.899 21.7763C174.025 22.9152 168.638 28.3022 167.499 35.1762Z" fill="#FDB62F"/>
<path d="M33.4995 108.876C32.3606 102.002 26.9737 96.6149 20.0996 95.476C26.9737 94.3372 32.3606 88.9502 33.4995 82.0762C34.6383 88.9502 40.0253 94.3372 46.8994 95.476C40.0253 96.6149 34.6387 102.002 33.4995 108.876Z" fill="#FDB62F"/>
<path d="M123.95 88.7764H77.0498V102.176H123.95V88.7764Z" fill="#FDB62F"/>
<path d="M200.999 78.7263H190.949V68.6763H184.249V78.7263H174.199V85.4264H184.249V95.4764H190.949V85.4264H200.999V78.7263Z" fill="#FDB62F"/>
<path d="M201 192.626H0V199.326H201V192.626Z" fill="#DBDBDB"/>
<path d="M67.0004 78.7257C55.8987 78.7257 46.9004 69.7275 46.9004 58.6257V55.2759H53.6005V58.6257C53.6005 66.0258 59.6003 72.0256 67.0004 72.0256V78.7257Z" fill="#DBDBDB"/>
</svg>
