<svg width="312" height="312" viewBox="0 0 312 312" fill="none" xmlns="http://www.w3.org/2000/svg">
<g clip-path="url(#clip0)">
<path d="M194.012 285.864C201.932 285.864 207.936 278.74 206.626 270.929C199.516 228.553 162.662 196.264 118.266 196.264C73.8697 196.264 37.0141 228.553 29.9039 270.929C28.5931 278.74 34.5979 285.864 42.5179 285.864H194.012Z" fill="#2152CD"/>
<path d="M73.3151 208.344C50.7219 221.472 34.3907 244.191 29.9039 270.929C28.5931 278.74 34.5979 285.864 42.5179 285.864H88.3332C67.2378 263.428 67.2378 224.577 73.3151 208.344Z" fill="#00237C"/>
<path d="M122.509 254.627C136.747 248.835 153.801 231.494 161.438 207.338C148.632 200.283 133.919 196.264 118.265 196.264C102.612 196.264 87.8976 200.283 75.0928 207.338C82.7295 231.494 99.7828 248.835 114.021 254.627C116.744 255.735 119.786 255.735 122.509 254.627Z" fill="#FBF1CF"/>
<path d="M236.529 151.489C236.529 135.105 220.492 121.822 204.39 121.822C188.288 121.822 175.234 135.104 175.234 151.489C175.234 167.873 187.542 181.156 203.644 181.156C219.746 181.155 236.529 167.873 236.529 151.489Z" fill="#FFBE9D"/>
<path d="M0 151.489C0 135.105 16.0369 121.822 32.139 121.822C48.2412 121.822 61.2946 135.104 61.2946 151.489C61.2946 167.873 48.987 181.156 32.8849 181.156C16.7828 181.156 0 167.873 0 151.489H0Z" fill="#FFBE9D"/>
<path d="M210.422 151.489C210.422 197.789 169.162 230.101 118.265 230.101C67.3692 230.101 26.1084 197.789 26.1084 151.489C26.1084 105.189 67.3686 67.6553 118.265 67.6553C169.161 67.6553 210.422 105.189 210.422 151.489Z" fill="#FFD3BD"/>
<path d="M149.815 82.264C149.815 94.1188 166.961 130.888 199.693 132.285C206.292 132.566 211.599 126.945 210.998 120.368C209.551 104.542 200.434 77.5968 167.793 69.7542L149.815 82.264Z" fill="#4E5660"/>
<path d="M86.7144 82.264C86.7144 94.1188 69.569 130.888 36.837 132.285C30.2381 132.566 24.9304 126.945 25.5319 120.368C26.9785 104.542 36.096 77.5968 68.7366 69.7542L86.7144 82.264Z" fill="#4E5660"/>
<path d="M34.3428 93.7593C40.6443 106.351 52.6326 114.922 65.622 120.214C79.5413 108.014 86.7143 89.9305 86.7143 82.264L68.7359 69.7542C51.4717 73.9016 40.7912 83.395 34.3428 93.7593Z" fill="#404656"/>
<path d="M167.794 69.7534L149.815 82.2633C149.815 88.2504 154.191 100.591 162.737 111.522C173.949 104.952 181.116 99.3977 192.959 96.8992C196.185 96.2186 199.172 94.9383 201.821 93.1912C195.337 83.05 184.742 73.8259 167.794 69.7534Z" fill="#404656"/>
<path d="M48.7451 74.8638C48.7451 42.6065 142.299 20.0853 192.371 66.8499C196.391 70.6049 194.455 77.3366 189.072 78.4719C161.152 84.3609 153.266 102.635 117.927 108.089C89.6202 112.457 48.7451 100.657 48.7451 74.8638Z" fill="#4E5660"/>
<path d="M246.069 26.1362C209.657 26.1362 180.139 48.1688 180.139 75.3469C180.139 86.8269 185.406 97.3886 194.234 105.76C194.853 106.347 195.141 107.198 194.987 108.038C193.954 113.626 192.162 120.265 189.534 125.619C187.302 130.168 191.024 135.39 196.048 134.738C205.876 133.462 214.955 130.084 222.683 122.639C223.312 122.033 224.198 121.787 225.045 122.001C231.649 123.658 238.718 124.558 246.069 124.558C282.482 124.558 312 102.525 312 75.3469C312 48.1688 282.482 26.1362 246.069 26.1362Z" fill="#FBF1CF"/>
<path d="M266.988 91.8748H225.149C222.625 91.8748 220.579 89.8285 220.579 87.3044C220.579 84.7804 222.625 82.7341 225.149 82.7341H266.988C269.513 82.7341 271.559 84.7804 271.559 87.3044C271.559 89.8285 269.513 91.8748 266.988 91.8748Z" fill="#89D47F"/>
<path d="M276.935 67.96H215.203C212.679 67.96 210.633 65.9137 210.633 63.3896C210.633 60.8656 212.679 58.8193 215.203 58.8193H276.935C279.459 58.8193 281.506 60.8656 281.506 63.3896C281.506 65.9137 279.459 67.96 276.935 67.96Z" fill="#89D47F"/>
<path d="M68.2666 181.718C78.4552 181.718 86.7148 175.14 86.7148 167.026C86.7148 158.912 78.4552 152.335 68.2666 152.335C58.0779 152.335 49.8184 158.912 49.8184 167.026C49.8184 175.14 58.0779 181.718 68.2666 181.718Z" fill="#E8899E"/>
<path d="M168.264 181.718C178.452 181.718 186.712 175.14 186.712 167.026C186.712 158.912 178.452 152.335 168.264 152.335C158.075 152.335 149.815 158.912 149.815 167.026C149.815 175.14 158.075 181.718 168.264 181.718Z" fill="#E8899E"/>
<path d="M133.139 155.738C133.139 146.546 126.48 145.682 118.265 145.682C110.05 145.682 103.391 146.546 103.391 155.738C103.391 164.93 110.05 172.382 118.265 172.382C126.48 172.382 133.139 164.93 133.139 155.738Z" fill="#4E5660"/>
<path d="M71.3506 154.057C68.8266 154.057 66.7803 152.01 66.7803 149.486V141.953C66.7803 139.429 68.8266 137.383 71.3506 137.383C73.8746 137.383 75.9209 139.429 75.9209 141.953V149.486C75.9209 152.01 73.8746 154.057 71.3506 154.057Z" fill="#4E5660"/>
<path d="M165.179 154.057C162.655 154.057 160.608 152.01 160.608 149.486V141.953C160.608 139.429 162.655 137.383 165.179 137.383C167.703 137.383 169.749 139.429 169.749 141.953V149.486C169.749 152.01 167.703 154.057 165.179 154.057Z" fill="#4E5660"/>
</g>
<defs>
<clipPath id="clip0">
<rect width="312" height="312" fill="white"/>
</clipPath>
</defs>
</svg>
