<svg width="512" height="512" viewBox="0 0 512 512" fill="none" xmlns="http://www.w3.org/2000/svg">
<path d="M256 125.333C253.878 125.333 251.843 124.49 250.343 122.99C248.843 121.49 248 119.455 248 117.333V112C247.993 105.637 245.462 99.5367 240.963 95.0373C236.463 90.538 230.363 88.0071 224 88C221.878 88 219.843 87.1571 218.343 85.6569C216.843 84.1566 216 82.1217 216 80C216 77.8783 216.843 75.8434 218.343 74.3431C219.843 72.8429 221.878 72 224 72C234.605 72.0119 244.772 76.23 252.271 83.7289C259.77 91.2278 263.988 101.395 264 112V117.333C264 119.455 263.157 121.49 261.657 122.99C260.157 124.49 258.122 125.333 256 125.333Z" fill="#353744"/>
<path d="M388 232H228C237.548 232 246.705 235.793 253.456 242.544C260.207 249.295 264 258.452 264 268C264 277.548 260.207 286.705 253.456 293.456C246.705 300.207 237.548 304 228 304H388C397.548 304 406.705 300.207 413.456 293.456C420.207 286.705 424 277.548 424 268C424 258.452 420.207 249.295 413.456 242.544C406.705 235.793 397.548 232 388 232Z" fill="#4B55A5"/>
<path d="M80 240H228C235.426 240 242.548 242.95 247.799 248.201C253.05 253.452 256 260.574 256 268C256 275.426 253.05 282.548 247.799 287.799C242.548 293.05 235.426 296 228 296H80V240Z" fill="#D7E6F0"/>
<path d="M228 304H64C61.8783 304 59.8434 303.157 58.3431 301.657C56.8429 300.157 56 298.122 56 296C56 293.878 56.8429 291.843 58.3431 290.343C59.8434 288.843 61.8783 288 64 288H228C233.304 288 238.391 285.893 242.142 282.142C245.893 278.391 248 273.304 248 268C248 262.696 245.893 257.609 242.142 253.858C238.391 250.107 233.304 248 228 248H64C61.8783 248 59.8434 247.157 58.3431 245.657C56.8429 244.157 56 242.122 56 240C56 237.878 56.8429 235.843 58.3431 234.343C59.8434 232.843 61.8783 232 64 232H228C237.548 232 246.705 235.793 253.456 242.544C260.207 249.295 264 258.452 264 268C264 277.548 260.207 286.705 253.456 293.456C246.705 300.207 237.548 304 228 304Z" fill="#6478B9"/>
<path d="M333.333 232H334.667C344.215 232 353.372 235.793 360.123 242.544C366.874 249.295 370.667 258.452 370.667 268C370.667 272.728 369.736 277.409 367.927 281.777C366.117 286.144 363.466 290.113 360.123 293.456C356.78 296.799 352.811 299.451 348.444 301.26C344.076 303.069 339.395 304 334.667 304H366.667C371.395 304 376.076 303.069 380.444 301.26C384.811 299.451 388.78 296.799 392.123 293.456C395.466 290.113 398.118 286.144 399.927 281.777C401.736 277.409 402.667 272.728 402.667 268C402.667 258.452 398.874 249.295 392.123 242.544C385.372 235.793 376.215 232 366.667 232H333.333Z" fill="#353744"/>
<path d="M400 368H72C59.2696 368 47.0606 373.057 38.0589 382.059C29.0571 391.061 24 403.27 24 416C24 428.73 29.0571 440.939 38.0589 449.941C47.0606 458.943 59.2696 464 72 464H400V368Z" fill="#A5C3DC"/>
<path d="M272 368H72C59.2696 368 47.0606 373.057 38.0589 382.059C29.0571 391.061 24 403.27 24 416C24 428.73 29.0571 440.939 38.0589 449.941C47.0606 458.943 59.2696 464 72 464H272V368Z" fill="#D7E6F0"/>
<path d="M416 472H72C57.1479 472 42.9041 466.1 32.402 455.598C21.9 445.096 16 430.852 16 416C16 401.148 21.9 386.904 32.402 376.402C42.9041 365.9 57.1479 360 72 360H416C418.122 360 420.157 360.843 421.657 362.343C423.157 363.843 424 365.878 424 368C424 370.122 423.157 372.157 421.657 373.657C420.157 375.157 418.122 376 416 376H72C61.3913 376 51.2172 380.214 43.7157 387.716C36.2143 395.217 32 405.391 32 416C32 426.609 36.2143 436.783 43.7157 444.284C51.2172 451.786 61.3913 456 72 456H416C418.122 456 420.157 456.843 421.657 458.343C423.157 459.843 424 461.878 424 464C424 466.122 423.157 468.157 421.657 469.657C420.157 471.157 418.122 472 416 472Z" fill="#4B55A5"/>
<path d="M288 472H72C57.1479 472 42.9041 466.1 32.402 455.598C21.9 445.096 16 430.852 16 416C16 401.148 21.9 386.904 32.402 376.402C42.9041 365.9 57.1479 360 72 360H288C290.122 360 292.157 360.843 293.657 362.343C295.157 363.843 296 365.878 296 368C296 370.122 295.157 372.157 293.657 373.657C292.157 375.157 290.122 376 288 376H72C61.3913 376 51.2172 380.214 43.7157 387.716C36.2143 395.217 32 405.391 32 416C32 426.609 36.2143 436.783 43.7157 444.284C51.2172 451.786 61.3913 456 72 456H288C290.122 456 292.157 456.843 293.657 458.343C295.157 459.843 296 461.878 296 464C296 466.122 295.157 468.157 293.657 469.657C292.157 471.157 290.122 472 288 472Z" fill="#6478B9"/>
<path d="M166.141 472C167.353 472 168.538 471.641 169.547 470.969L192 456L214.453 470.969C215.462 471.641 216.647 472 217.859 472C218.665 472 219.464 471.841 220.209 471.533C220.954 471.224 221.631 470.772 222.202 470.202C222.772 469.631 223.224 468.954 223.533 468.209C223.841 467.464 224 466.665 224 465.859V400H160V465.859C160 466.665 160.159 467.464 160.467 468.209C160.776 468.954 161.228 469.631 161.798 470.202C162.369 470.772 163.046 471.224 163.791 471.533C164.536 471.841 165.335 472 166.141 472Z" fill="#F04B37"/>
<path d="M488 304H104C99.5817 304 96 307.582 96 312V352C96 356.418 99.5817 360 104 360H488C492.418 360 496 356.418 496 352V312C496 307.582 492.418 304 488 304Z" fill="#FABE19"/>
<path d="M128 304H160V360H128V304Z" fill="#F5871E"/>
<path d="M432 304H464V360H432V304Z" fill="#F5871E"/>
<path d="M288 104C276.189 103.985 264.79 108.342 256 116.232C249.095 110.052 240.549 106.003 231.393 104.574C222.237 103.146 212.864 104.398 204.404 108.18C195.945 111.962 188.761 118.113 183.721 125.889C178.68 133.665 175.999 142.733 176 152C176 197.333 208 232 232 232H280C304 232 336 197.333 336 152C336 139.27 330.943 127.061 321.941 118.059C312.939 109.057 300.73 104 288 104Z" fill="#D7322D"/>
<path d="M216 152C224.837 152 232 144.837 232 136C232 127.163 224.837 120 216 120C207.163 120 200 127.163 200 136C200 144.837 207.163 152 216 152Z" fill="#F04B37"/>
<path d="M296 40C298.122 40 300.157 40.8429 301.657 42.3431C303.157 43.8434 304 45.8783 304 48C304 58.6087 299.786 68.7828 292.284 76.2843C284.783 83.7857 274.609 88 264 88H256V80C256 69.3913 260.214 59.2172 267.716 51.7157C275.217 44.2143 285.391 40 296 40Z" fill="#6EA5D7"/>
</svg>
