<svg width="419" height="655" viewBox="0 0 419 655" fill="none" xmlns="http://www.w3.org/2000/svg">
<g clip-path="url(#clip0)">
<path d="M209.5 279.641C204.68 279.641 200.779 275.728 200.779 270.907V244.72C200.779 239.899 204.68 236 209.5 236C214.321 236 218.221 239.9 218.221 244.72V270.907C218.221 275.728 214.321 279.641 209.5 279.641Z" fill="#434A54"/>
<path d="M242.668 300.586L216.481 265.678C214.831 263.479 212.249 262.188 209.5 262.188C206.751 262.188 204.168 263.479 202.518 265.678L176.33 300.586C174.348 303.233 174.029 306.775 175.512 309.729C176.983 312.683 180.013 314.562 183.312 314.562H235.686C238.985 314.562 242.016 312.683 243.486 309.729C244.97 306.775 244.663 303.233 242.668 300.586Z" fill="#656D78"/>
<path d="M235.687 297.095H183.312C178.492 297.095 174.592 301.008 174.592 305.829V340.75C174.592 345.571 178.492 349.47 183.312 349.47H235.687C240.508 349.47 244.407 345.57 244.407 340.75V305.829C244.407 301.008 240.508 297.095 235.687 297.095Z" fill="#CD142B"/>
<path d="M268.856 370.429L242.668 335.507C241.018 333.308 238.435 332.016 235.686 332.016H183.312C180.563 332.016 177.98 333.308 176.33 335.507L150.143 370.429C148.161 373.063 147.842 376.604 149.325 379.558C150.795 382.525 153.826 384.391 157.125 384.391H261.875C265.173 384.391 268.204 382.525 269.675 379.558C271.158 376.603 270.851 373.062 268.856 370.429Z" fill="#FC6E51"/>
<path d="M261.875 497.875H157.125C152.304 497.875 148.404 501.775 148.404 506.596V646.266C148.404 651.087 152.304 655 157.125 655H261.875C266.696 655 270.596 651.087 270.596 646.266V506.596C270.596 501.775 266.696 497.875 261.875 497.875Z" fill="#CD142B"/>
<path d="M261.875 366.938H157.125C152.304 366.938 148.404 370.838 148.404 375.658V401.846C148.404 406.666 152.304 410.579 157.125 410.579H261.875C266.696 410.579 270.596 406.666 270.596 401.846V375.658C270.596 370.838 266.696 366.938 261.875 366.938Z" fill="#CD142B"/>
<path d="M192.033 541.516C187.225 541.516 183.312 545.417 183.312 550.25V655H200.779V550.25C200.779 545.417 196.867 541.516 192.033 541.516Z" fill="#FC6E51"/>
<path d="M226.968 541.516C222.134 541.516 218.221 545.417 218.221 550.25V655H235.687V550.25C235.687 545.417 231.776 541.516 226.968 541.516Z" fill="#FC6E51"/>
<path d="M271.159 384.391H147.842C143.034 384.391 139.121 388.292 139.121 393.125V515.329C139.121 520.15 143.034 524.063 147.842 524.063H271.159C275.967 524.063 279.879 520.15 279.879 515.329V393.125C279.879 388.292 275.967 384.391 271.159 384.391Z" fill="#FC6E51"/>
<path d="M209.5 401.846C180.627 401.846 157.125 425.348 157.125 454.221C157.125 483.106 180.627 506.596 209.5 506.596C238.372 506.596 261.875 483.106 261.875 454.221C261.875 425.348 238.372 401.846 209.5 401.846Z" fill="#E6E9ED"/>
<path d="M209.501 462.954C204.681 462.954 200.78 459.041 200.78 454.221V419.313C200.78 414.479 204.681 410.579 209.501 410.579C214.322 410.579 218.222 414.479 218.222 419.313V454.221C218.222 459.041 214.322 462.954 209.501 462.954Z" fill="#424953"/>
<path d="M234.193 487.645C231.955 487.645 229.73 486.788 228.016 485.088L203.337 460.396C199.91 456.983 199.91 451.459 203.337 448.044C206.738 444.643 212.262 444.643 215.664 448.044L240.367 472.736C243.769 476.15 243.769 481.674 240.367 485.088C238.654 486.788 236.429 487.645 234.193 487.645Z" fill="#424953"/>
</g>
<path d="M272.788 105.737C272.076 98.9547 266.298 94.5531 259.813 95.2346C253.328 95.9162 247.874 102.304 249.305 108.205C250.736 114.106 255.286 120.355 262.28 118.707C269.275 117.058 273.501 112.518 272.788 105.737Z" fill="#00237C"/>
<circle cx="330" cy="24" r="24" fill="#CD142B"/>
<circle cx="385.5" cy="164.5" r="11.5" stroke="#CD142B" stroke-opacity="0.53" stroke-width="2"/>
<circle cx="295.5" cy="237.5" r="11.5" stroke="#CD142B" stroke-opacity="0.53" stroke-width="2"/>
<defs>
<clipPath id="clip0">
<rect width="419" height="419" fill="white" transform="translate(0 236)"/>
</clipPath>
</defs>
</svg>
