<svg width="366" height="239" viewBox="0 0 366 239" fill="none" xmlns="http://www.w3.org/2000/svg">
<rect x="-320" width="686" height="239" rx="119.5" fill="#00237C"/>
<rect x="-318.5" y="25.5" width="649" height="180" rx="90" stroke="white" stroke-width="3" stroke-dasharray="10 10"/>
<path d="M172.031 152.464V123.748H95V174.725H183.161L172.031 152.464Z" fill="#FFDA2D"/>
<path d="M183.161 174.725H133.232V123.748H172.031V152.464L183.161 174.725Z" fill="#FDBF00"/>
<path d="M162.969 47V75.9996L151.839 98.2598H240V47H162.969Z" fill="#FFDA2D"/>
<path d="M201.768 47H240V98.2598H201.768V47Z" fill="#FDBF00"/>
<path d="M128.984 144.988H137.48V153.484H128.984V144.988Z" fill="#596C76"/>
<path d="M145.977 144.988H154.473V153.484H145.977V144.988Z" fill="#465A61"/>
<path d="M111.992 144.988H120.488V153.484H111.992V144.988Z" fill="#596C76"/>
<path d="M197.52 68.5234H206.016V77.0195H197.52V68.5234Z" fill="#596C76"/>
<path d="M214.512 68.5234H223.008V77.0195H214.512V68.5234Z" fill="#465A61"/>
<path d="M180.527 68.5234H189.023V77.0195H180.527V68.5234Z" fill="#596C76"/>
<path d="M120.488 47C111.143 47 103.496 54.9297 103.496 64.2754C103.496 73.6211 111.143 81.2676 120.488 81.2676C129.834 81.2676 137.48 73.6211 137.48 64.2754C137.48 54.9297 129.834 47 120.488 47Z" fill="#57D9AD"/>
<path d="M120.488 81.2676C106.47 81.2676 95 92.7373 95 106.756V115.252H145.977V106.756C145.977 92.7373 134.507 81.2676 120.488 81.2676Z" fill="#57D9AD"/>
<path d="M120.488 81.2676V47C129.834 47 137.48 54.9297 137.48 64.2754C137.48 73.6211 129.834 81.2676 120.488 81.2676Z" fill="#26BFA6"/>
<path d="M145.977 106.756V115.252H120.488V81.2676C134.507 81.2676 145.977 92.7373 145.977 106.756Z" fill="#26BFA6"/>
<path d="M214.512 123.748C205.166 123.748 197.52 131.395 197.52 140.74C197.52 150.086 205.166 157.732 214.512 157.732C223.857 157.732 231.504 150.086 231.504 140.74C231.504 131.395 223.857 123.748 214.512 123.748Z" fill="#FF712D"/>
<path d="M214.512 157.732C200.493 157.732 189.023 169.202 189.023 183.221V192H240V183.221C240 169.202 228.53 157.732 214.512 157.732Z" fill="#FF712D"/>
<path d="M214.512 157.732V123.748C223.857 123.748 231.504 131.395 231.504 140.74C231.504 150.086 223.857 157.732 214.512 157.732Z" fill="#E35124"/>
<path d="M240 183.221V192H214.512V157.732C228.53 157.732 240 169.202 240 183.221Z" fill="#E35124"/>
<path d="M201.768 68.5234H206.016V77.0195H201.768V68.5234Z" fill="#465A61"/>
<path d="M133.232 144.988H137.48V153.484H133.232V144.988Z" fill="#465A61"/>
</svg>
