<svg width="596" height="387" viewBox="0 0 596 387" fill="none" xmlns="http://www.w3.org/2000/svg">
<path d="M293.752 360.288C293.233 348.496 283.227 340.964 270.365 341.295C257.502 341.626 248.437 353.204 251.438 364.736C254.438 376.268 262.602 384.129 274.825 383.729C287.047 383.33 294.27 372.081 293.752 360.288Z" fill="#CD142B"/>
<circle cx="169" cy="378" r="5" fill="#00237C"/>
<circle cx="243.5" cy="284.5" r="11.5" stroke="#CD142B" stroke-opacity="0.53" stroke-width="2"/>
<rect x="45" width="669" height="222" rx="100" fill="#00237C"/>
<path d="M111.6 72.3C109.48 72.3 107.56 71.84 105.84 70.92C104.14 69.98 102.8 68.69 101.82 67.05C100.86 65.41 100.38 63.56 100.38 61.5C100.38 59.44 100.87 57.59 101.85 55.95C102.83 54.31 104.17 53.03 105.87 52.11C107.59 51.17 109.51 50.7 111.63 50.7C113.35 50.7 114.92 51 116.34 51.6C117.76 52.2 118.96 53.07 119.94 54.21L117.42 56.58C115.9 54.94 114.03 54.12 111.81 54.12C110.37 54.12 109.08 54.44 107.94 55.08C106.8 55.7 105.91 56.57 105.27 57.69C104.63 58.81 104.31 60.08 104.31 61.5C104.31 62.92 104.63 64.19 105.27 65.31C105.91 66.43 106.8 67.31 107.94 67.95C109.08 68.57 110.37 68.88 111.81 68.88C114.03 68.88 115.9 68.05 117.42 66.39L119.94 68.79C118.96 69.93 117.75 70.8 116.31 71.4C114.89 72 113.32 72.3 111.6 72.3ZM132.215 69.03C133.955 69.03 135.405 68.45 136.565 67.29L138.545 69.6C137.845 70.46 136.945 71.11 135.845 71.55C134.745 71.99 133.505 72.21 132.125 72.21C130.365 72.21 128.815 71.86 127.475 71.16C126.135 70.46 125.095 69.49 124.355 68.25C123.635 66.99 123.275 65.57 123.275 63.99C123.275 62.43 123.625 61.03 124.325 59.79C125.045 58.53 126.025 57.55 127.265 56.85C128.525 56.15 129.945 55.8 131.525 55.8C133.025 55.8 134.385 56.13 135.605 56.79C136.845 57.43 137.825 58.36 138.545 59.58C139.265 60.78 139.625 62.19 139.625 63.81L127.355 66.21C127.735 67.13 128.345 67.83 129.185 68.31C130.025 68.79 131.035 69.03 132.215 69.03ZM131.525 58.8C130.145 58.8 129.025 59.25 128.165 60.15C127.325 61.05 126.905 62.26 126.905 63.78V63.81L135.965 62.07C135.705 61.09 135.175 60.3 134.375 59.7C133.595 59.1 132.645 58.8 131.525 58.8ZM153.308 55.8C154.968 55.8 156.418 56.14 157.658 56.82C158.918 57.5 159.888 58.46 160.568 59.7C161.268 60.94 161.618 62.38 161.618 64.02C161.618 65.64 161.288 67.07 160.628 68.31C159.968 69.55 159.038 70.51 157.838 71.19C156.658 71.87 155.288 72.21 153.728 72.21C151.508 72.21 149.768 71.5 148.508 70.08V77.82H144.728V64.05C144.728 62.43 145.088 61 145.808 59.76C146.528 58.5 147.528 57.53 148.808 56.85C150.108 56.15 151.608 55.8 153.308 55.8ZM153.158 69.03C154.558 69.03 155.698 68.57 156.578 67.65C157.458 66.71 157.898 65.5 157.898 64.02C157.898 62.54 157.458 61.33 156.578 60.39C155.698 59.45 154.558 58.98 153.158 58.98C151.738 58.98 150.598 59.44 149.738 60.36C148.878 61.28 148.448 62.49 148.448 63.99C148.448 65.49 148.878 66.71 149.738 67.65C150.618 68.57 151.758 69.03 153.158 69.03ZM187.688 55.8C189.708 55.8 191.308 56.39 192.488 57.57C193.668 58.73 194.258 60.48 194.258 62.82V72H190.508V63.3C190.508 61.9 190.198 60.85 189.578 60.15C188.958 59.43 188.068 59.07 186.908 59.07C185.648 59.07 184.638 59.49 183.878 60.33C183.118 61.15 182.738 62.33 182.738 63.87V72H178.988V63.3C178.988 61.9 178.678 60.85 178.058 60.15C177.438 59.43 176.548 59.07 175.388 59.07C174.108 59.07 173.088 59.48 172.328 60.3C171.588 61.12 171.218 62.31 171.218 63.87V72H167.468V55.98H171.038V58.02C171.638 57.3 172.388 56.75 173.288 56.37C174.188 55.99 175.188 55.8 176.288 55.8C177.488 55.8 178.548 56.03 179.468 56.49C180.408 56.93 181.148 57.59 181.688 58.47C182.348 57.63 183.198 56.98 184.238 56.52C185.278 56.04 186.428 55.8 187.688 55.8ZM216.155 55.98V72H212.585V69.96C211.985 70.68 211.235 71.24 210.335 71.64C209.455 72.02 208.495 72.21 207.455 72.21C205.315 72.21 203.625 71.62 202.385 70.44C201.145 69.24 200.525 67.47 200.525 65.13V55.98H204.275V64.62C204.275 66.06 204.595 67.14 205.235 67.86C205.895 68.56 206.835 68.91 208.055 68.91C209.375 68.91 210.425 68.5 211.205 67.68C212.005 66.84 212.405 65.64 212.405 64.08V55.98H216.155ZM244.499 63.96C244.499 66.44 243.669 68.39 242.009 69.81C240.369 71.23 238.019 72.04 234.959 72.24V77.82H231.419V72.27C228.359 72.07 226.009 71.26 224.369 69.84C222.729 68.42 221.909 66.46 221.909 63.96C221.909 61.48 222.729 59.55 224.369 58.17C226.009 56.77 228.359 55.97 231.419 55.77V49.74H234.959V55.77C238.019 55.97 240.369 56.77 242.009 58.17C243.669 59.57 244.499 61.5 244.499 63.96ZM225.599 63.96C225.599 65.5 226.069 66.7 227.009 67.56C227.969 68.42 229.439 68.94 231.419 69.12V58.95C229.439 59.11 227.969 59.61 227.009 60.45C226.069 61.29 225.599 62.46 225.599 63.96ZM234.959 69.12C238.879 68.76 240.839 67.04 240.839 63.96C240.839 62.44 240.349 61.27 239.369 60.45C238.409 59.61 236.939 59.11 234.959 58.95V69.12ZM265.413 55.98V72H261.843V69.96C261.243 70.68 260.493 71.24 259.593 71.64C258.713 72.02 257.753 72.21 256.713 72.21C254.573 72.21 252.883 71.62 251.643 70.44C250.403 69.24 249.783 67.47 249.783 65.13V55.98H253.533V64.62C253.533 66.06 253.853 67.14 254.493 67.86C255.153 68.56 256.093 68.91 257.313 68.91C258.633 68.91 259.683 68.5 260.463 67.68C261.263 66.84 261.663 65.64 261.663 64.08V55.98H265.413ZM290.157 68.82V75.69H286.647V72H272.577V55.98H276.327V68.82H283.977V55.98H287.727V68.82H290.157ZM310.775 55.98V72H307.205V69.96C306.605 70.68 305.855 71.24 304.955 71.64C304.075 72.02 303.115 72.21 302.075 72.21C299.935 72.21 298.245 71.62 297.005 70.44C295.765 69.24 295.145 67.47 295.145 65.13V55.98H298.895V64.62C298.895 66.06 299.215 67.14 299.855 67.86C300.515 68.56 301.455 68.91 302.675 68.91C303.995 68.91 305.045 68.5 305.825 67.68C306.625 66.84 307.025 65.64 307.025 64.08V55.98H310.775ZM325.86 55.8C327.52 55.8 328.97 56.14 330.21 56.82C331.47 57.5 332.44 58.46 333.12 59.7C333.82 60.94 334.17 62.38 334.17 64.02C334.17 65.64 333.84 67.07 333.18 68.31C332.52 69.55 331.59 70.51 330.39 71.19C329.21 71.87 327.84 72.21 326.28 72.21C324.06 72.21 322.32 71.5 321.06 70.08V77.82H317.28V64.05C317.28 62.43 317.64 61 318.36 59.76C319.08 58.5 320.08 57.53 321.36 56.85C322.66 56.15 324.16 55.8 325.86 55.8ZM325.71 69.03C327.11 69.03 328.25 68.57 329.13 67.65C330.01 66.71 330.45 65.5 330.45 64.02C330.45 62.54 330.01 61.33 329.13 60.39C328.25 59.45 327.11 58.98 325.71 58.98C324.29 58.98 323.15 59.44 322.29 60.36C321.43 61.28 321 62.49 321 63.99C321 65.49 321.43 66.71 322.29 67.65C323.17 68.57 324.31 69.03 325.71 69.03ZM347.16 72.21C345.54 72.21 344.08 71.86 342.78 71.16C341.48 70.46 340.46 69.49 339.72 68.25C339 66.99 338.64 65.57 338.64 63.99C338.64 62.41 339 61 339.72 59.76C340.46 58.52 341.48 57.55 342.78 56.85C344.08 56.15 345.54 55.8 347.16 55.8C348.8 55.8 350.27 56.15 351.57 56.85C352.87 57.55 353.88 58.52 354.6 59.76C355.34 61 355.71 62.41 355.71 63.99C355.71 65.57 355.34 66.99 354.6 68.25C353.88 69.49 352.87 70.46 351.57 71.16C350.27 71.86 348.8 72.21 347.16 72.21ZM347.16 69C348.54 69 349.68 68.54 350.58 67.62C351.48 66.7 351.93 65.49 351.93 63.99C351.93 62.49 351.48 61.28 350.58 60.36C349.68 59.44 348.54 58.98 347.16 58.98C345.78 58.98 344.64 59.44 343.74 60.36C342.86 61.28 342.42 62.49 342.42 63.99C342.42 65.49 342.86 66.7 343.74 67.62C344.64 68.54 345.78 69 347.16 69ZM373.125 63.66C375.105 64.26 376.095 65.54 376.095 67.5C376.095 68.94 375.555 70.05 374.475 70.83C373.395 71.61 371.795 72 369.675 72H361.515V55.98H369.345C371.305 55.98 372.835 56.34 373.935 57.06C375.035 57.78 375.585 58.8 375.585 60.12C375.585 60.94 375.365 61.65 374.925 62.25C374.505 62.85 373.905 63.32 373.125 63.66ZM365.085 62.67H369.015C370.955 62.67 371.925 62 371.925 60.66C371.925 59.36 370.955 58.71 369.015 58.71H365.085V62.67ZM369.375 69.27C371.435 69.27 372.465 68.6 372.465 67.26C372.465 66.56 372.225 66.04 371.745 65.7C371.265 65.34 370.515 65.16 369.495 65.16H365.085V69.27H369.375ZM397.789 55.98V72H394.219V69.93C393.599 70.69 392.829 71.26 391.909 71.64C391.009 72.02 390.009 72.21 388.909 72.21C387.349 72.21 385.949 71.87 384.709 71.19C383.489 70.51 382.529 69.55 381.829 68.31C381.149 67.07 380.809 65.63 380.809 63.99C380.809 62.35 381.149 60.92 381.829 59.7C382.529 58.46 383.489 57.5 384.709 56.82C385.949 56.14 387.349 55.8 388.909 55.8C389.949 55.8 390.899 55.98 391.759 56.34C392.639 56.7 393.399 57.23 394.039 57.93V55.98H397.789ZM389.329 69C390.709 69 391.849 68.54 392.749 67.62C393.649 66.7 394.099 65.49 394.099 63.99C394.099 62.49 393.649 61.28 392.749 60.36C391.849 59.44 390.709 58.98 389.329 58.98C387.949 58.98 386.809 59.44 385.909 60.36C385.029 61.28 384.589 62.49 384.589 63.99C384.589 65.49 385.029 66.7 385.909 67.62C386.809 68.54 387.949 69 389.329 69ZM404.855 55.98H408.605V62.49H416.675V55.98H420.425V72H416.675V65.67H408.605V72H404.855V55.98ZM427.551 55.98H431.301V62.49H439.371V55.98H443.121V72H439.371V65.67H431.301V72H427.551V55.98ZM457.207 72.42C454.787 72.42 452.957 71.86 451.717 70.74C450.497 69.62 449.887 68 449.887 65.88V55.98H453.607V61.74C454.067 61.36 454.697 61.04 455.497 60.78C456.297 60.52 457.207 60.39 458.227 60.39C460.187 60.39 461.717 60.89 462.817 61.89C463.917 62.89 464.467 64.31 464.467 66.15C464.467 68.11 463.807 69.65 462.487 70.77C461.187 71.87 459.427 72.42 457.207 72.42ZM466.477 55.98H470.227V72H466.477V55.98ZM457.207 69.66C458.307 69.66 459.157 69.34 459.757 68.7C460.357 68.04 460.657 67.21 460.657 66.21C460.657 65.25 460.347 64.48 459.727 63.9C459.127 63.32 458.267 63.03 457.147 63.03C456.327 63.03 455.607 63.19 454.987 63.51C454.387 63.83 453.927 64.28 453.607 64.86V66.21C453.607 67.29 453.917 68.14 454.537 68.76C455.157 69.36 456.047 69.66 457.207 69.66ZM484.926 69.03C486.666 69.03 488.116 68.45 489.276 67.29L491.256 69.6C490.556 70.46 489.656 71.11 488.556 71.55C487.456 71.99 486.216 72.21 484.836 72.21C483.076 72.21 481.526 71.86 480.186 71.16C478.846 70.46 477.806 69.49 477.066 68.25C476.346 66.99 475.986 65.57 475.986 63.99C475.986 62.43 476.336 61.03 477.036 59.79C477.756 58.53 478.736 57.55 479.976 56.85C481.236 56.15 482.656 55.8 484.236 55.8C485.736 55.8 487.096 56.13 488.316 56.79C489.556 57.43 490.536 58.36 491.256 59.58C491.976 60.78 492.336 62.19 492.336 63.81L480.066 66.21C480.446 67.13 481.056 67.83 481.896 68.31C482.736 68.79 483.746 69.03 484.926 69.03ZM484.236 58.8C482.856 58.8 481.736 59.25 480.876 60.15C480.036 61.05 479.616 62.26 479.616 63.78V63.81L488.676 62.07C488.416 61.09 487.886 60.3 487.086 59.7C486.306 59.1 485.356 58.8 484.236 58.8ZM116.88 92.98V109H113.16V96.16H105.27V109H101.52V92.98H116.88ZM131.96 92.8C133.62 92.8 135.07 93.14 136.31 93.82C137.57 94.5 138.54 95.46 139.22 96.7C139.92 97.94 140.27 99.38 140.27 101.02C140.27 102.64 139.94 104.07 139.28 105.31C138.62 106.55 137.69 107.51 136.49 108.19C135.31 108.87 133.94 109.21 132.38 109.21C130.16 109.21 128.42 108.5 127.16 107.08V114.82H123.38V101.05C123.38 99.43 123.74 98 124.46 96.76C125.18 95.5 126.18 94.53 127.46 93.85C128.76 93.15 130.26 92.8 131.96 92.8ZM131.81 106.03C133.21 106.03 134.35 105.57 135.23 104.65C136.11 103.71 136.55 102.5 136.55 101.02C136.55 99.54 136.11 98.33 135.23 97.39C134.35 96.45 133.21 95.98 131.81 95.98C130.39 95.98 129.25 96.44 128.39 97.36C127.53 98.28 127.1 99.49 127.1 100.99C127.1 102.49 127.53 103.71 128.39 104.65C129.27 105.57 130.41 106.03 131.81 106.03ZM153.68 106.03C155.42 106.03 156.87 105.45 158.03 104.29L160.01 106.6C159.31 107.46 158.41 108.11 157.31 108.55C156.21 108.99 154.97 109.21 153.59 109.21C151.83 109.21 150.28 108.86 148.94 108.16C147.6 107.46 146.56 106.49 145.82 105.25C145.1 103.99 144.74 102.57 144.74 100.99C144.74 99.43 145.09 98.03 145.79 96.79C146.51 95.53 147.49 94.55 148.73 93.85C149.99 93.15 151.41 92.8 152.99 92.8C154.49 92.8 155.85 93.13 157.07 93.79C158.31 94.43 159.29 95.36 160.01 96.58C160.73 97.78 161.09 99.19 161.09 100.81L148.82 103.21C149.2 104.13 149.81 104.83 150.65 105.31C151.49 105.79 152.5 106.03 153.68 106.03ZM152.99 95.8C151.61 95.8 150.49 96.25 149.63 97.15C148.79 98.05 148.37 99.26 148.37 100.78V100.81L157.43 99.07C157.17 98.09 156.64 97.3 155.84 96.7C155.06 96.1 154.11 95.8 152.99 95.8ZM182.213 92.98V109H178.493V96.16H170.603V109H166.853V92.98H182.213ZM196.513 109.21C194.893 109.21 193.433 108.86 192.133 108.16C190.833 107.46 189.813 106.49 189.073 105.25C188.353 103.99 187.993 102.57 187.993 100.99C187.993 99.41 188.353 98 189.073 96.76C189.813 95.52 190.833 94.55 192.133 93.85C193.433 93.15 194.893 92.8 196.513 92.8C198.153 92.8 199.623 93.15 200.923 93.85C202.223 94.55 203.233 95.52 203.953 96.76C204.693 98 205.063 99.41 205.063 100.99C205.063 102.57 204.693 103.99 203.953 105.25C203.233 106.49 202.223 107.46 200.923 108.16C199.623 108.86 198.153 109.21 196.513 109.21ZM196.513 106C197.893 106 199.033 105.54 199.933 104.62C200.833 103.7 201.283 102.49 201.283 100.99C201.283 99.49 200.833 98.28 199.933 97.36C199.033 96.44 197.893 95.98 196.513 95.98C195.133 95.98 193.993 96.44 193.093 97.36C192.213 98.28 191.773 99.49 191.773 100.99C191.773 102.49 192.213 103.7 193.093 104.62C193.993 105.54 195.133 106 196.513 106ZM226.648 92.98V106.57C226.648 112.21 223.768 115.03 218.008 115.03C216.468 115.03 215.008 114.83 213.628 114.43C212.248 114.05 211.108 113.49 210.208 112.75L211.888 109.93C212.588 110.51 213.468 110.97 214.528 111.31C215.608 111.67 216.698 111.85 217.798 111.85C219.558 111.85 220.848 111.45 221.668 110.65C222.488 109.85 222.898 108.63 222.898 106.99V106.15C222.258 106.85 221.478 107.38 220.558 107.74C219.638 108.1 218.628 108.28 217.528 108.28C216.008 108.28 214.628 107.96 213.388 107.32C212.168 106.66 211.198 105.74 210.478 104.56C209.778 103.38 209.428 102.03 209.428 100.51C209.428 98.99 209.778 97.65 210.478 96.49C211.198 95.31 212.168 94.4 213.388 93.76C214.628 93.12 216.008 92.8 217.528 92.8C218.688 92.8 219.738 92.99 220.678 93.37C221.638 93.75 222.438 94.33 223.078 95.11V92.98H226.648ZM218.098 105.1C219.518 105.1 220.678 104.68 221.578 103.84C222.498 102.98 222.958 101.87 222.958 100.51C222.958 99.17 222.498 98.08 221.578 97.24C220.678 96.4 219.518 95.98 218.098 95.98C216.658 95.98 215.478 96.4 214.558 97.24C213.658 98.08 213.208 99.17 213.208 100.51C213.208 101.87 213.658 102.98 214.558 103.84C215.478 104.68 216.658 105.1 218.098 105.1ZM249.398 92.98V109H245.828V106.93C245.208 107.69 244.438 108.26 243.518 108.64C242.618 109.02 241.618 109.21 240.518 109.21C238.958 109.21 237.558 108.87 236.318 108.19C235.098 107.51 234.138 106.55 233.438 105.31C232.758 104.07 232.418 102.63 232.418 100.99C232.418 99.35 232.758 97.92 233.438 96.7C234.138 95.46 235.098 94.5 236.318 93.82C237.558 93.14 238.958 92.8 240.518 92.8C241.558 92.8 242.508 92.98 243.368 93.34C244.248 93.7 245.008 94.23 245.648 94.93V92.98H249.398ZM240.938 106C242.318 106 243.458 105.54 244.358 104.62C245.258 103.7 245.708 102.49 245.708 100.99C245.708 99.49 245.258 98.28 244.358 97.36C243.458 96.44 242.318 95.98 240.938 95.98C239.558 95.98 238.418 96.44 237.518 97.36C236.638 98.28 236.198 99.49 236.198 100.99C236.198 102.49 236.638 103.7 237.518 104.62C238.418 105.54 239.558 106 240.938 106ZM268.074 100.66C270.054 101.26 271.044 102.54 271.044 104.5C271.044 105.94 270.504 107.05 269.424 107.83C268.344 108.61 266.744 109 264.624 109H256.464V92.98H264.294C266.254 92.98 267.784 93.34 268.884 94.06C269.984 94.78 270.534 95.8 270.534 97.12C270.534 97.94 270.314 98.65 269.874 99.25C269.454 99.85 268.854 100.32 268.074 100.66ZM260.034 99.67H263.964C265.904 99.67 266.874 99 266.874 97.66C266.874 96.36 265.904 95.71 263.964 95.71H260.034V99.67ZM264.324 106.27C266.384 106.27 267.414 105.6 267.414 104.26C267.414 103.56 267.174 103.04 266.694 102.7C266.214 102.34 265.464 102.16 264.444 102.16H260.034V106.27H264.324ZM292.738 92.98V109H289.168V106.93C288.548 107.69 287.778 108.26 286.858 108.64C285.958 109.02 284.958 109.21 283.858 109.21C282.298 109.21 280.898 108.87 279.658 108.19C278.438 107.51 277.478 106.55 276.778 105.31C276.098 104.07 275.758 102.63 275.758 100.99C275.758 99.35 276.098 97.92 276.778 96.7C277.478 95.46 278.438 94.5 279.658 93.82C280.898 93.14 282.298 92.8 283.858 92.8C284.898 92.8 285.848 92.98 286.708 93.34C287.588 93.7 288.348 94.23 288.988 94.93V92.98H292.738ZM284.278 106C285.658 106 286.798 105.54 287.698 104.62C288.598 103.7 289.048 102.49 289.048 100.99C289.048 99.49 288.598 98.28 287.698 97.36C286.798 96.44 285.658 95.98 284.278 95.98C282.898 95.98 281.758 96.44 280.858 97.36C279.978 98.28 279.538 99.49 279.538 100.99C279.538 102.49 279.978 103.7 280.858 104.62C281.758 105.54 282.898 106 284.278 106ZM320.025 92.8C322.045 92.8 323.645 93.39 324.825 94.57C326.005 95.73 326.595 97.48 326.595 99.82V109H322.845V100.3C322.845 98.9 322.535 97.85 321.915 97.15C321.295 96.43 320.405 96.07 319.245 96.07C317.985 96.07 316.975 96.49 316.215 97.33C315.455 98.15 315.075 99.33 315.075 100.87V109H311.325V100.3C311.325 98.9 311.015 97.85 310.395 97.15C309.775 96.43 308.885 96.07 307.725 96.07C306.445 96.07 305.425 96.48 304.665 97.3C303.925 98.12 303.555 99.31 303.555 100.87V109H299.805V92.98H303.375V95.02C303.975 94.3 304.725 93.75 305.625 93.37C306.525 92.99 307.525 92.8 308.625 92.8C309.825 92.8 310.885 93.03 311.805 93.49C312.745 93.93 313.485 94.59 314.025 95.47C314.685 94.63 315.535 93.98 316.575 93.52C317.615 93.04 318.765 92.8 320.025 92.8ZM340.871 106.03C342.611 106.03 344.061 105.45 345.221 104.29L347.201 106.6C346.501 107.46 345.601 108.11 344.501 108.55C343.401 108.99 342.161 109.21 340.781 109.21C339.021 109.21 337.471 108.86 336.131 108.16C334.791 107.46 333.751 106.49 333.011 105.25C332.291 103.99 331.931 102.57 331.931 100.99C331.931 99.43 332.281 98.03 332.981 96.79C333.701 95.53 334.681 94.55 335.921 93.85C337.181 93.15 338.601 92.8 340.181 92.8C341.681 92.8 343.041 93.13 344.261 93.79C345.501 94.43 346.481 95.36 347.201 96.58C347.921 97.78 348.281 99.19 348.281 100.81L336.011 103.21C336.391 104.13 337.001 104.83 337.841 105.31C338.681 105.79 339.691 106.03 340.871 106.03ZM340.181 95.8C338.801 95.8 337.681 96.25 336.821 97.15C335.981 98.05 335.561 99.26 335.561 100.78V100.81L344.621 99.07C344.361 98.09 343.831 97.3 343.031 96.7C342.251 96.1 341.301 95.8 340.181 95.8ZM368.359 92.98V109H364.609V96.16H358.609L358.459 99.34C358.359 101.46 358.159 103.24 357.859 104.68C357.579 106.1 357.089 107.23 356.389 108.07C355.709 108.89 354.769 109.3 353.569 109.3C353.009 109.3 352.319 109.19 351.499 108.97L351.679 105.82C351.959 105.88 352.199 105.91 352.399 105.91C353.159 105.91 353.729 105.61 354.109 105.01C354.489 104.39 354.729 103.66 354.829 102.82C354.949 101.96 355.049 100.74 355.129 99.16L355.399 92.98H368.359ZM390.689 92.98V109H387.119V106.96C386.519 107.68 385.769 108.24 384.869 108.64C383.989 109.02 383.029 109.21 381.989 109.21C379.849 109.21 378.159 108.62 376.919 107.44C375.679 106.24 375.059 104.47 375.059 102.13V92.98H378.809V101.62C378.809 103.06 379.129 104.14 379.769 104.86C380.429 105.56 381.369 105.91 382.589 105.91C383.909 105.91 384.959 105.5 385.739 104.68C386.539 103.84 386.939 102.64 386.939 101.08V92.98H390.689Z" fill="white"/>
<g clip-path="url(#clip0)">
<path d="M103.128 308.742L111.068 239.648L88.084 237.007L78.9362 316.613C78.551 319.967 82.2443 322.255 85.0754 320.416L100.329 310.509C100.781 310.215 101.245 310.032 101.75 309.939L103.128 308.742Z" fill="#FFE07D"/>
<path d="M109.844 239.507L101.751 309.939C103.045 309.691 104.42 310.091 105.38 311.089L117.988 324.198C120.328 326.631 124.444 325.24 124.83 321.887L133.978 242.28L109.844 239.507Z" fill="#FFD064"/>
<path d="M132.12 232.885L112.589 248.391L162.412 311.149C164.511 313.793 168.74 312.799 169.442 309.496L173.222 291.705C173.338 291.157 173.564 290.656 173.872 290.222L175.154 287.113L132.12 232.885Z" fill="#FFE07D"/>
<path d="M198.592 282.425L148.769 219.668L129.81 234.719L173.875 290.223C174.621 289.175 175.85 288.517 177.203 288.543L195.388 288.897C198.764 288.963 200.691 285.069 198.592 282.425Z" fill="#FFD064"/>
<path d="M99.9666 135.701C103.749 137.267 108.061 136.862 111.487 134.621C116.305 131.469 122.658 132.051 126.823 136.025C129.785 138.851 133.952 140.032 137.956 139.179C143.587 137.98 149.301 140.818 151.749 146.029C153.49 149.734 156.949 152.34 160.991 152.992C166.675 153.908 170.978 158.618 171.379 164.361C171.663 168.445 173.947 172.125 177.481 174.193C182.45 177.1 184.761 183.047 183.06 188.547C181.85 192.458 182.65 196.714 185.199 199.919C188.782 204.425 188.788 210.805 185.216 215.319C182.675 218.528 181.884 222.787 183.102 226.695C184.815 232.191 182.517 238.143 177.555 241.061C174.026 243.137 171.75 246.822 171.474 250.906C171.086 256.65 166.793 261.37 161.111 262.298C157.071 262.959 153.618 265.572 151.885 269.282C149.448 274.498 143.74 277.348 138.107 276.162C134.101 275.318 129.936 276.508 126.981 279.34C122.825 283.324 116.472 283.92 111.648 280.778C108.217 278.544 103.904 278.149 100.125 279.723C94.8102 281.936 88.6717 280.197 85.3078 275.525C82.9157 272.203 79.0368 270.276 74.9438 270.379C69.1887 270.523 64.0928 266.683 62.644 261.112C61.6137 257.149 58.6923 253.952 54.8392 252.569C49.4206 250.624 46.0561 245.203 46.7178 239.484C47.1884 235.417 45.6195 231.381 42.5259 228.699C38.1759 224.928 36.9966 218.658 39.6795 213.564C41.5873 209.942 41.5825 205.611 39.6669 201.993C36.973 196.906 38.1382 190.632 42.48 186.852C45.5676 184.164 47.1276 180.124 46.6483 176.058C45.9739 170.34 49.3269 164.912 54.741 162.955C58.5914 161.564 61.5053 158.36 62.5271 154.395C63.9636 148.821 69.0512 144.97 74.8063 145.101C78.8993 145.194 82.774 143.259 85.1587 139.932C88.5122 135.252 94.6473 133.499 99.9666 135.701Z" fill="#E8AE4D"/>
<path d="M144.882 197.897C137.944 173.611 116.384 157.463 92.4885 156.273C66.4954 166.395 52.014 194.841 59.8302 222.197C67.6463 249.554 94.97 266.056 122.387 260.918C142.047 247.283 151.821 222.182 144.882 197.897Z" fill="#FFE07D"/>
<path d="M97.3682 154.63C93.3451 155.78 89.5578 157.352 86.0383 159.284C110.948 157.921 134.384 173.855 141.527 198.855C148.67 223.856 137.189 249.766 115.32 261.769C119.328 261.549 123.375 260.884 127.398 259.734C156.422 251.442 173.228 221.191 164.935 192.167C156.643 163.144 126.392 146.338 97.3682 154.63Z" fill="#FFD064"/>
<path d="M119.594 226.939L141.22 233.966C142.07 234.242 142.878 234.088 143.508 233.678C143.9 232.624 144.261 231.557 144.592 230.479C144.529 230.31 144.446 230.142 144.343 229.977L132.33 210.67C131.75 209.738 131.793 208.548 132.438 207.66L143.192 192.859C142.245 190.414 141.143 188.065 139.902 185.821L120.901 190.52C119.835 190.784 118.717 190.375 118.072 189.487L104.705 171.09C103.227 169.056 100.014 169.974 99.834 172.482L98.2043 195.163C98.1255 196.257 97.3918 197.195 96.348 197.534L74.7217 204.561C72.3296 205.338 72.2101 208.677 74.54 209.624L95.6073 218.182C96.6238 218.595 97.289 219.583 97.2891 220.681L97.289 243.42C97.2891 245.935 100.428 247.081 102.048 245.158L116.698 227.766C117.405 226.927 118.55 226.6 119.594 226.939Z" fill="#E8AE4D"/>
<path d="M141.22 233.966C143.612 234.743 145.672 232.112 144.343 229.977L142.165 226.476C141.59 228.89 140.852 231.255 139.961 233.557L141.22 233.966Z" fill="#E5A32E"/>
<path d="M142.975 185.06L136.403 186.686C138.119 189.684 139.569 192.885 140.717 196.266L145.804 189.263C147.283 187.229 145.417 184.457 142.975 185.06Z" fill="#E5A32E"/>
</g>
<defs>
<clipPath id="clip0">
<rect width="191" height="191" fill="white" transform="translate(0 161.472) rotate(-15.9454)"/>
</clipPath>
</defs>
</svg>
