<svg width="390" height="255" viewBox="0 0 390 255" fill="none" xmlns="http://www.w3.org/2000/svg">
<rect y="62" width="603" height="187" rx="93.5" fill="#CD142B"/>
<path d="M269.797 115.547V186.641H256.125V213.984L228.781 186.641H165.891V115.547H269.797Z" fill="#57A4FF"/>
<path d="M111.203 167.5V227.656H119.406V244.062L144.016 227.656H193.234V186.641V167.5H111.203Z" fill="#00EED1"/>
<path d="M173.383 189.375C172.865 191.349 172.083 193.243 171.059 195.008L179.289 203.238L171.551 210.977L163.32 202.746C161.556 203.771 159.661 204.553 157.688 205.07V216.719H146.75V205.07C144.776 204.553 142.882 203.771 141.117 202.746L132.887 210.977L125.148 203.238L133.379 195.008C132.354 193.243 131.572 191.349 131.055 189.375H119.406V178.438H131.055C131.572 176.464 132.354 174.569 133.379 172.805L127.855 167.281L125.148 164.574L132.887 156.836L141.117 165.066C142.882 164.042 144.776 163.26 146.75 162.742V151.094H157.688V162.742C159.661 163.26 161.556 164.042 163.32 165.066L166.137 162.277L171.551 156.836L179.289 164.574L176.609 167.281L171.059 172.805C172.083 174.569 172.865 176.464 173.383 178.438H185.031V189.375H173.383Z" fill="#FF5023"/>
<path d="M226.047 151.094V159.297C226.047 161.472 225.183 163.559 223.644 165.097C222.106 166.636 220.019 167.5 217.844 167.5C215.668 167.5 213.582 166.636 212.043 165.097C210.505 163.559 209.641 161.472 209.641 159.297V151.094H226.047Z" fill="#E0E0E2"/>
<path d="M209.641 146.937C203.556 144.811 198.553 140.373 195.718 134.584C192.882 128.796 192.442 122.123 194.492 116.012C196.13 111.248 199.167 107.089 203.206 104.079C207.246 101.068 212.1 99.3474 217.133 99.1405C222.422 98.9885 227.618 100.545 231.953 103.579C236.287 106.613 239.528 110.963 241.196 115.984C242.033 118.487 242.458 121.11 242.453 123.75C242.45 128.837 240.871 133.797 237.933 137.95C234.995 142.102 230.843 145.242 226.047 146.937V151.094H209.641V146.937Z" fill="#FFDA44"/>
<path d="M152.219 194.844C158.259 194.844 163.156 189.947 163.156 183.906C163.156 177.866 158.259 172.969 152.219 172.969C146.178 172.969 141.281 177.866 141.281 183.906C141.281 189.947 146.178 194.844 152.219 194.844Z" fill="#FF9811"/>
<path d="M234.25 129.219H228.781C228.331 129.219 227.888 129.108 227.491 128.895C227.094 128.683 226.756 128.376 226.506 128.002L222.889 122.571L219.777 125.683C219.264 126.196 218.569 126.484 217.844 126.484C217.119 126.484 216.423 126.196 215.911 125.683L212.799 122.571L209.181 128.002C208.931 128.376 208.593 128.683 208.196 128.895C207.799 129.108 207.356 129.219 206.906 129.219H201.438V123.75H205.443L210.092 116.764C210.316 116.427 210.612 116.145 210.959 115.937C211.305 115.729 211.694 115.6 212.096 115.56C212.499 115.522 212.905 115.573 213.286 115.709C213.666 115.845 214.013 116.063 214.3 116.348L217.844 119.883L221.379 116.348C221.665 116.062 222.011 115.843 222.392 115.707C222.773 115.57 223.179 115.52 223.582 115.56C223.984 115.6 224.373 115.728 224.72 115.937C225.067 116.145 225.363 116.427 225.588 116.764L230.244 123.75H234.25V129.219Z" fill="#FF5023"/>
<path d="M215.109 85.4688H220.578V90.9375H215.109V85.4688Z" fill="#FFDA44"/>
<path d="M196.338 91.978L201.071 89.245L203.804 93.9786L199.071 96.7116L196.338 91.978Z" fill="#FFDA44"/>
<path d="M183.33 106.984L186.064 102.248L190.8 104.982L188.066 109.718L183.33 106.984Z" fill="#FFDA44"/>
<path d="M179.562 121.016H185.031V126.484H179.562V121.016Z" fill="#FFDA44"/>
<path d="M183.323 140.512L188.059 137.777L190.794 142.513L186.058 145.248L183.323 140.512Z" fill="#FFDA44"/>
<path d="M244.9 142.54L247.635 137.804L252.371 140.538L249.636 145.274L244.9 142.54Z" fill="#FFDA44"/>
<path d="M250.656 121.016H256.125V126.484H250.656V121.016Z" fill="#FFDA44"/>
<path d="M244.886 104.962L249.622 102.228L252.356 106.963L247.62 109.698L244.886 104.962Z" fill="#FFDA44"/>
<path d="M231.867 93.959L234.6 89.2254L239.334 91.9584L236.601 96.692L231.867 93.959Z" fill="#FFDA44"/>
<path d="M201.438 148.359H234.25V153.828H201.438V148.359Z" fill="#3E3D42"/>
<path d="M86.45 150V72L66.65 87.3L53.6 69.45L88.55 43.8H111.65V150H86.45Z" fill="#00237C"/>
</svg>
