<svg width="463" height="463" viewBox="0 0 463 463" fill="none" xmlns="http://www.w3.org/2000/svg">
<circle cx="231.5" cy="231.5" r="231.5" fill="#00237C"/>
<circle cx="232.5" cy="230.5" r="200" stroke="white" stroke-width="5" stroke-dasharray="15 15"/>
<g clip-path="url(#clip0)">
<path d="M319.517 331.051C310.978 348.591 292.614 359.158 273.159 357.727H273.002C269.035 357.941 265.057 357.677 261.151 356.944C237.556 352.663 232.023 340.03 231.031 331.888C230.892 330.83 230.822 329.768 230.822 328.701C230.822 329.768 230.754 330.83 230.613 331.888C229.621 340.03 224.087 352.663 200.492 356.944C196.587 357.677 192.608 357.941 188.642 357.727H188.484C169.03 359.158 150.666 348.591 142.129 331.051C146.269 333.906 150.882 336.009 155.753 337.264C158.538 337.936 161.445 337.901 164.21 337.158C171.573 335.227 178.62 328.546 189.634 318.052C194.199 313.159 200.699 310.539 207.382 310.901C220.172 309.7 230.458 324.526 230.458 324.526C230.502 324.732 230.537 324.942 230.561 325.153C230.608 325.358 230.624 325.569 230.613 325.778C230.667 326.093 230.718 326.457 230.77 326.876C230.822 327.397 230.822 327.971 230.822 328.65C230.822 327.971 230.822 327.397 230.873 326.876C230.928 326.457 230.979 326.093 231.031 325.726C231.019 325.534 231.038 325.341 231.083 325.153C231.106 324.942 231.141 324.732 231.188 324.526C231.188 324.526 241.471 309.7 254.262 310.901C260.945 310.539 267.444 313.159 272.01 318.052C283.026 328.546 290.073 335.227 297.433 337.158C300.199 337.901 303.108 337.936 305.89 337.264C310.761 336.009 315.374 333.906 319.517 331.051Z" fill="#805333"/>
<path d="M361.33 363C359.941 363.014 358.607 362.467 357.624 361.487C357.164 360.977 356.795 360.394 356.527 359.764C356.236 359.144 356.092 358.465 356.111 357.779C356.127 356.397 356.668 355.072 357.624 354.073C358.858 352.851 360.62 352.322 362.322 352.663C362.669 352.712 363.008 352.818 363.32 352.978C363.64 353.081 363.941 353.241 364.206 353.448C364.505 353.626 364.784 353.838 365.043 354.073C365.995 355.074 366.533 356.399 366.551 357.779C366.542 358.462 366.401 359.137 366.133 359.764C365.658 361.076 364.627 362.107 363.313 362.582C362.686 362.85 362.014 362.991 361.33 363Z" fill="#95A5A5"/>
<path d="M355.902 347.392C355.845 346.006 356.341 344.657 357.281 343.637C358.221 342.62 359.528 342.016 360.912 341.962C362.298 341.905 363.647 342.401 364.667 343.341C365.684 344.281 366.288 345.588 366.342 346.974C366.399 348.358 365.903 349.709 364.963 350.727C364.023 351.747 362.716 352.348 361.33 352.402H361.121C358.313 352.421 355.998 350.2 355.902 347.392ZM355.223 337.159C355.079 335.779 355.498 334.4 356.381 333.331C357.265 332.262 358.538 331.59 359.92 331.47C361.302 331.324 362.681 331.74 363.753 332.624C364.822 333.507 365.492 334.785 365.611 336.167C365.743 337.546 365.322 338.921 364.441 339.988C363.56 341.057 362.291 341.732 360.912 341.863H360.39C357.718 341.849 355.488 339.819 355.223 337.159ZM353.919 327.026C353.693 325.656 354.024 324.253 354.837 323.128C355.65 322.002 356.879 321.246 358.249 321.029C361.09 320.557 363.774 322.472 364.253 325.308C364.704 328.163 362.768 330.845 359.915 331.312C359.64 331.371 359.361 331.406 359.081 331.418C356.52 331.406 354.339 329.552 353.919 327.026ZM351.877 317.166C351.501 315.829 351.684 314.396 352.384 313.195C353.082 311.994 354.238 311.129 355.587 310.796C358.372 310.065 361.222 311.722 361.962 314.504C362.691 317.284 361.034 320.132 358.256 320.872C357.81 320.992 357.354 321.062 356.893 321.081C354.522 321.076 352.457 319.464 351.877 317.166ZM348.744 307.821C348.215 306.547 348.215 305.116 348.744 303.842C349.273 302.569 350.288 301.558 351.564 301.034C352.828 300.487 354.262 300.473 355.538 300.992C356.814 301.514 357.829 302.527 358.35 303.803C359.471 306.456 358.231 309.515 355.578 310.641C354.931 310.904 354.243 311.045 353.547 311.057C351.439 311.054 349.543 309.774 348.749 307.821H348.744Z" fill="#95A5A5"/>
<path d="M348.436 301.817C347.045 301.831 345.708 301.286 344.723 300.304C344.249 299.798 343.861 299.216 343.581 298.581C343.353 297.944 343.231 297.275 343.215 296.598C343.215 293.715 345.553 291.376 348.436 291.376C351.319 291.376 353.658 293.715 353.658 296.598C353.648 297.279 353.507 297.954 353.239 298.581C352.765 299.892 351.731 300.926 350.419 301.401C349.792 301.666 349.118 301.81 348.436 301.817Z" fill="#95A5A5"/>
<path d="M335.228 266.423C335.228 285.163 320.036 300.355 301.296 300.355C282.556 300.355 267.364 285.163 267.364 266.423C267.364 247.683 282.556 232.491 301.296 232.491C320.036 232.491 335.228 247.683 335.228 266.423Z" fill="#67B9CC"/>
<path d="M333.872 153.456C345.044 152.986 363.053 153.978 366.603 164.628C371.825 180.287 366.603 222.051 230.874 222.051H230.822C95.0943 222.051 89.8729 180.287 95.0943 164.628C98.6426 154.03 116.603 152.986 127.774 153.402L333.872 153.456Z" fill="#717171"/>
<path d="M332.619 139.726C331.433 140.166 329.722 140.702 327.483 141.291C329.722 140.697 331.423 140.149 332.619 139.726C331.073 120.058 328.46 100.486 324.787 81.1022C320.038 62.0472 272.846 56.0433 239.8 55.1574C236.668 55.0517 233.641 55 230.821 55C228.004 55 224.975 55.0517 221.843 55.1574C188.799 56.0433 141.607 62.0472 136.855 81.1022C133.185 100.486 130.57 120.058 129.026 139.726C129.839 140.025 130.92 140.38 132.257 140.77C130.941 140.389 129.851 140.034 129.026 139.726C127.458 156.431 126.415 169.847 126.415 169.847C126.415 169.847 127.407 172.876 136.961 176.269C149.124 180.602 175.172 185.509 230.821 185.509C286.471 185.509 312.521 180.602 324.684 176.269C334.236 172.876 335.228 169.847 335.228 169.847C335.228 169.847 334.184 156.431 332.619 139.726ZM326.585 141.526L325.539 141.782L326.585 141.526ZM133.573 141.136L132.496 140.842C132.821 140.936 133.201 141.038 133.573 141.136ZM135.791 141.705L135.117 141.543L135.791 141.705ZM138.052 142.227C138.709 142.372 139.403 142.518 140.141 142.671C139.501 142.539 138.855 142.41 138.27 142.278L138.052 142.227ZM194.389 148.162C176.291 147.706 158.253 145.89 140.427 142.727C158.253 145.885 176.291 147.702 194.389 148.167V148.162ZM220.318 148.872C223.377 148.914 226.531 148.942 229.778 148.961C226.524 148.964 223.37 148.935 220.318 148.877V148.872ZM195.146 148.198C197.193 148.282 199.322 148.355 201.5 148.428C199.333 148.367 197.193 148.287 195.146 148.205V148.198ZM202.976 148.487C204.726 148.543 206.573 148.585 208.401 148.632C206.59 148.59 204.719 148.548 202.992 148.491L202.976 148.487ZM211.402 148.715L215.996 148.799L211.402 148.715ZM322.856 142.393L323.551 142.243L323.377 142.283L322.856 142.393Z" fill="#2C3E50"/>
<path d="M335.228 169.847C335.228 169.847 334.236 172.876 324.684 176.269C312.521 180.602 286.471 185.509 230.821 185.509C175.172 185.509 149.124 180.602 136.961 176.269C127.407 172.876 126.415 169.847 126.415 169.847C126.415 169.847 127.458 156.431 129.026 139.726C132.045 140.784 135.131 141.639 138.265 142.283C151.368 145.154 177.94 148.705 229.778 148.966H231.867C283.651 148.705 310.223 145.154 323.377 142.283C326.512 141.639 329.6 140.784 332.619 139.726C334.184 156.431 335.228 169.847 335.228 169.847Z" fill="#2C2F38"/>
<path d="M332.62 139.726C329.749 140.723 326.821 141.543 323.848 142.18C310.903 145.103 284.279 148.705 231.868 148.966H229.779C177.314 148.705 150.744 145.051 137.796 142.18C134.823 141.55 131.893 140.73 129.026 139.726C130.57 120.058 133.186 100.486 136.856 81.1022C141.607 62.0472 188.8 56.0433 221.843 55.1574C224.976 55.0517 228.005 55 230.822 55C233.642 55 236.668 55.0517 239.801 55.1574C272.847 56.0433 320.039 62.0472 324.788 81.1022C328.461 100.486 331.074 120.058 332.62 139.726Z" fill="#35495E"/>
<path d="M323.848 142.18C310.903 145.103 284.279 148.705 231.868 148.966H229.779C177.313 148.705 150.744 145.051 137.796 142.18C139.57 120.411 141.816 96.8673 144.061 85.4353C148.445 63.4054 191.408 56.3042 221.843 55.1574C224.975 55.0517 228.004 55 230.822 55C233.642 55 236.668 55.0517 239.801 55.1574C270.236 56.3042 313.198 63.4054 317.586 85.4353C319.83 96.8673 322.074 120.411 323.848 142.18Z" fill="#717171"/>
<path d="M151.373 131.633C151.182 131.633 150.99 131.624 150.799 131.603C147.939 131.288 145.874 128.722 146.179 125.86C146.915 119.214 147.697 112.611 148.435 106.645C148.583 105.263 149.286 104.002 150.379 103.144C151.474 102.288 152.867 101.91 154.244 102.098C157.104 102.448 159.139 105.05 158.791 107.909C158.065 113.85 157.282 120.394 156.556 127.004C156.258 129.641 154.028 131.633 151.373 131.633Z" fill="#95A5A5"/>
<path d="M207.381 310.901C202.329 311.555 197.717 314.111 194.488 318.052C181.021 332.565 174.286 339.873 164.21 337.159C171.572 335.227 178.619 328.546 189.633 318.052C194.199 313.159 200.698 310.539 207.381 310.901Z" fill="#AF8066"/>
<path d="M188.484 357.727C169.03 359.158 150.666 348.59 142.129 331.051C146.269 333.906 150.882 336.009 155.753 337.264C162.608 349.079 174.86 356.742 188.484 357.727Z" fill="#603E26"/>
<path d="M319.516 331.051C310.977 348.59 292.613 359.158 273.158 357.727C286.783 356.742 299.037 349.079 305.889 337.264C310.761 336.009 315.373 333.906 319.516 331.051Z" fill="#603E26"/>
<path d="M297.432 337.159C287.358 339.873 280.624 332.565 267.154 318.052C263.926 314.111 259.313 311.555 254.261 310.901C260.944 310.539 267.443 313.159 272.009 318.052C283.025 328.546 290.073 335.227 297.432 337.159Z" fill="#AF8066"/>
<path d="M161.924 87.9402C161.924 90.8235 159.586 93.1616 156.705 93.1616C153.822 93.1616 151.483 90.8235 151.483 87.9402C151.483 85.057 153.822 82.7189 156.705 82.7189C159.586 82.7189 161.924 85.057 161.924 87.9402Z" fill="#95A5A5"/>
<path d="M270.809 286.47C268.699 286.47 266.795 285.196 265.987 283.246C265.181 281.296 265.627 279.051 267.12 277.559L312.432 232.247C313.743 230.889 315.684 230.344 317.508 230.823C319.333 231.3 320.76 232.726 321.237 234.55C321.714 236.376 321.171 238.317 319.813 239.628L274.501 284.94C273.521 285.92 272.195 286.47 270.809 286.47Z" fill="#B0D3F0"/>
<path d="M286.471 302.132C284.361 302.129 282.457 300.858 281.649 298.908C280.84 296.957 281.287 294.713 282.779 293.219L328.094 247.906C329.403 246.551 331.344 246.005 333.169 246.482C334.995 246.962 336.419 248.386 336.899 250.212C337.376 252.037 336.83 253.978 335.475 255.29L290.162 300.602C289.182 301.579 287.855 302.129 286.471 302.132Z" fill="#B0D3F0"/>
<path d="M340.449 305.576C331.799 305.576 324.787 298.565 324.787 289.915C324.787 281.265 331.799 274.253 340.449 274.253C349.099 274.253 356.111 281.265 356.111 289.915C356.111 298.565 349.099 305.576 340.449 305.576ZM340.449 284.696C337.566 284.696 335.228 287.031 335.228 289.915C335.228 292.798 337.566 295.136 340.449 295.136C343.332 295.136 345.67 292.798 345.67 289.915C345.67 287.031 343.332 284.696 340.449 284.696Z" fill="#B19046"/>
<path d="M301.295 305.577C279.672 305.577 262.145 288.047 262.145 266.423C262.145 244.8 279.672 227.27 301.295 227.27C322.919 227.27 340.449 244.8 340.449 266.423C340.425 288.037 322.909 305.553 301.295 305.577ZM301.295 237.713C285.439 237.713 272.585 250.566 272.585 266.423C272.585 282.28 285.439 295.136 301.295 295.136C317.152 295.136 330.008 282.28 330.008 266.423C329.987 250.576 317.145 237.732 301.295 237.713Z" fill="#F3D55B"/>
</g>
<defs>
<clipPath id="clip0">
<rect width="308" height="308" fill="white" transform="translate(77 55)"/>
</clipPath>
</defs>
</svg>
