<svg width="406" height="625" viewBox="0 0 406 625" fill="none" xmlns="http://www.w3.org/2000/svg">
<path d="M371.313 486.665C370.24 476.457 361.543 469.831 351.782 470.857C342.021 471.883 333.811 481.498 335.965 490.381C338.118 499.263 344.967 508.67 355.496 506.189C366.024 503.708 372.386 496.874 371.313 486.665Z" fill="#CD142B"/>
<circle cx="263" cy="526" r="24" fill="#00237C"/>
<rect y="126" width="406" height="316" rx="100" fill="#00237C"/>
<path d="M65.774 243V216.096H83.862V221.606H72.044V226.66H83.216V231.866H72.044V237.452H84.546V243H65.774ZM103.6 243V232.664C103.6 232.132 103.549 231.625 103.448 231.144C103.372 230.663 103.233 230.245 103.03 229.89C102.827 229.51 102.536 229.219 102.156 229.016C101.801 228.788 101.345 228.674 100.788 228.674C100.231 228.674 99.7367 228.788 99.306 229.016C98.9007 229.219 98.5587 229.51 98.28 229.89C98.0014 230.27 97.786 230.713 97.634 231.22C97.5074 231.701 97.444 232.208 97.444 232.74V243H91.174V224.076H97.216V226.698H97.292C97.52 226.293 97.8114 225.9 98.166 225.52C98.546 225.115 98.9767 224.773 99.458 224.494C99.9647 224.215 100.509 223.987 101.092 223.81C101.675 223.633 102.295 223.544 102.954 223.544C104.221 223.544 105.297 223.772 106.184 224.228C107.071 224.684 107.78 225.279 108.312 226.014C108.869 226.723 109.262 227.547 109.49 228.484C109.743 229.421 109.87 230.359 109.87 231.296V243H103.6ZM137.314 241.214C137.314 243.063 137.048 244.672 136.516 246.04C135.984 247.408 135.237 248.535 134.274 249.422C133.311 250.334 132.133 251.005 130.74 251.436C129.372 251.892 127.852 252.12 126.18 252.12C124.508 252.12 122.785 251.867 121.012 251.36C119.264 250.853 117.744 250.119 116.452 249.156L119.568 244.71C120.48 245.521 121.481 246.116 122.57 246.496C123.685 246.901 124.774 247.104 125.838 247.104C127.662 247.104 129.005 246.623 129.866 245.66C130.753 244.697 131.196 243.418 131.196 241.822V240.682H131.082C130.499 241.442 129.714 242.05 128.726 242.506C127.738 242.962 126.611 243.19 125.344 243.19C123.9 243.19 122.621 242.937 121.506 242.43C120.391 241.898 119.441 241.189 118.656 240.302C117.896 239.415 117.313 238.389 116.908 237.224C116.503 236.033 116.3 234.779 116.3 233.462C116.3 232.145 116.503 230.891 116.908 229.7C117.313 228.509 117.896 227.458 118.656 226.546C119.441 225.634 120.391 224.912 121.506 224.38C122.621 223.823 123.887 223.544 125.306 223.544C126.497 223.544 127.637 223.785 128.726 224.266C129.815 224.747 130.689 225.495 131.348 226.508H131.424V224.076H137.314V241.214ZM131.386 233.424C131.386 232.791 131.272 232.183 131.044 231.6C130.841 231.017 130.537 230.511 130.132 230.08C129.727 229.624 129.245 229.269 128.688 229.016C128.131 228.763 127.497 228.636 126.788 228.636C126.079 228.636 125.445 228.763 124.888 229.016C124.356 229.269 123.9 229.611 123.52 230.042C123.14 230.473 122.849 230.979 122.646 231.562C122.443 232.145 122.342 232.765 122.342 233.424C122.342 234.057 122.443 234.665 122.646 235.248C122.849 235.831 123.14 236.35 123.52 236.806C123.9 237.237 124.356 237.591 124.888 237.87C125.445 238.123 126.079 238.25 126.788 238.25C127.497 238.25 128.131 238.123 128.688 237.87C129.271 237.591 129.752 237.237 130.132 236.806C130.537 236.375 130.841 235.869 131.044 235.286C131.272 234.703 131.386 234.083 131.386 233.424ZM144.998 243V214.272H151.306V243H144.998ZM165.664 218.034C165.664 218.515 165.563 218.971 165.36 219.402C165.183 219.807 164.929 220.162 164.6 220.466C164.296 220.77 163.916 221.011 163.46 221.188C163.029 221.365 162.573 221.454 162.092 221.454C161.079 221.454 160.23 221.125 159.546 220.466C158.862 219.782 158.52 218.971 158.52 218.034C158.52 217.578 158.609 217.147 158.786 216.742C158.963 216.311 159.217 215.944 159.546 215.64C159.875 215.336 160.255 215.095 160.686 214.918C161.117 214.715 161.585 214.614 162.092 214.614C162.573 214.614 163.029 214.703 163.46 214.88C163.916 215.057 164.296 215.298 164.6 215.602C164.929 215.906 165.183 216.273 165.36 216.704C165.563 217.109 165.664 217.553 165.664 218.034ZM158.976 243V224.076H165.208V243H158.976ZM183.938 229.662C183.432 229.181 182.836 228.775 182.152 228.446C181.468 228.117 180.746 227.952 179.986 227.952C179.404 227.952 178.859 228.066 178.352 228.294C177.871 228.522 177.63 228.915 177.63 229.472C177.63 230.004 177.896 230.384 178.428 230.612C178.986 230.84 179.872 231.093 181.088 231.372C181.798 231.524 182.507 231.739 183.216 232.018C183.951 232.297 184.61 232.664 185.192 233.12C185.775 233.576 186.244 234.133 186.598 234.792C186.953 235.451 187.13 236.236 187.13 237.148C187.13 238.339 186.89 239.352 186.408 240.188C185.927 240.999 185.294 241.657 184.508 242.164C183.748 242.671 182.887 243.038 181.924 243.266C180.962 243.494 179.999 243.608 179.036 243.608C177.491 243.608 175.971 243.367 174.476 242.886C173.007 242.379 171.778 241.645 170.79 240.682L174.286 236.996C174.844 237.604 175.528 238.111 176.338 238.516C177.149 238.921 178.01 239.124 178.922 239.124C179.429 239.124 179.923 239.01 180.404 238.782C180.911 238.529 181.164 238.098 181.164 237.49C181.164 236.907 180.86 236.477 180.252 236.198C179.644 235.919 178.694 235.628 177.402 235.324C176.744 235.172 176.085 234.969 175.426 234.716C174.768 234.463 174.172 234.121 173.64 233.69C173.134 233.259 172.716 232.727 172.386 232.094C172.057 231.461 171.892 230.701 171.892 229.814C171.892 228.674 172.133 227.711 172.614 226.926C173.096 226.115 173.716 225.457 174.476 224.95C175.236 224.443 176.072 224.076 176.984 223.848C177.922 223.595 178.846 223.468 179.758 223.468C181.177 223.468 182.558 223.696 183.9 224.152C185.268 224.583 186.421 225.241 187.358 226.128L183.938 229.662ZM205.852 243V232.74C205.852 232.208 205.814 231.701 205.738 231.22C205.662 230.739 205.51 230.321 205.282 229.966C205.079 229.586 204.801 229.295 204.446 229.092C204.091 228.864 203.635 228.75 203.078 228.75C201.989 228.75 201.153 229.143 200.57 229.928C199.987 230.688 199.696 231.638 199.696 232.778V243H193.464V214.272H199.696V226.47H199.772C200.203 225.71 200.887 225.039 201.824 224.456C202.761 223.848 203.889 223.544 205.206 223.544C206.498 223.544 207.575 223.772 208.436 224.228C209.323 224.684 210.032 225.279 210.564 226.014C211.121 226.723 211.514 227.547 211.742 228.484C211.995 229.421 212.122 230.359 212.122 231.296V243H205.852ZM260.047 229.434C260.047 231.562 259.68 233.513 258.945 235.286C258.211 237.034 257.185 238.541 255.867 239.808C254.575 241.049 253.03 242.012 251.231 242.696C249.433 243.38 247.482 243.722 245.379 243.722C243.277 243.722 241.326 243.38 239.527 242.696C237.754 242.012 236.209 241.049 234.891 239.808C233.599 238.541 232.586 237.034 231.851 235.286C231.117 233.513 230.749 231.562 230.749 229.434C230.749 227.281 231.117 225.343 231.851 223.62C232.586 221.872 233.599 220.39 234.891 219.174C236.209 217.958 237.754 217.021 239.527 216.362C241.326 215.703 243.277 215.374 245.379 215.374C247.482 215.374 249.433 215.703 251.231 216.362C253.03 217.021 254.575 217.958 255.867 219.174C257.185 220.39 258.211 221.872 258.945 223.62C259.68 225.343 260.047 227.281 260.047 229.434ZM253.093 229.434C253.093 228.269 252.903 227.179 252.523 226.166C252.143 225.153 251.611 224.291 250.927 223.582C250.269 222.847 249.458 222.277 248.495 221.872C247.558 221.441 246.519 221.226 245.379 221.226C244.239 221.226 243.201 221.441 242.263 221.872C241.326 222.277 240.515 222.847 239.831 223.582C239.147 224.291 238.615 225.153 238.235 226.166C237.881 227.179 237.703 228.269 237.703 229.434C237.703 230.65 237.893 231.777 238.273 232.816C238.653 233.829 239.173 234.703 239.831 235.438C240.515 236.173 241.326 236.755 242.263 237.186C243.201 237.591 244.239 237.794 245.379 237.794C246.519 237.794 247.558 237.591 248.495 237.186C249.433 236.755 250.243 236.173 250.927 235.438C251.611 234.703 252.143 233.829 252.523 232.816C252.903 231.777 253.093 230.65 253.093 229.434ZM279.069 243V232.664C279.069 232.132 279.019 231.625 278.917 231.144C278.841 230.663 278.702 230.245 278.499 229.89C278.297 229.51 278.005 229.219 277.625 229.016C277.271 228.788 276.815 228.674 276.257 228.674C275.7 228.674 275.206 228.788 274.775 229.016C274.37 229.219 274.028 229.51 273.749 229.89C273.471 230.27 273.255 230.713 273.103 231.22C272.977 231.701 272.913 232.208 272.913 232.74V243H266.643V224.076H272.685V226.698H272.761C272.989 226.293 273.281 225.9 273.635 225.52C274.015 225.115 274.446 224.773 274.927 224.494C275.434 224.215 275.979 223.987 276.561 223.81C277.144 223.633 277.765 223.544 278.423 223.544C279.69 223.544 280.767 223.772 281.653 224.228C282.54 224.684 283.249 225.279 283.781 226.014C284.339 226.723 284.731 227.547 284.959 228.484C285.213 229.421 285.339 230.359 285.339 231.296V243H279.069ZM292.796 243V214.272H299.104V243H292.796ZM317.376 245.85C316.996 246.838 316.565 247.712 316.084 248.472C315.628 249.257 315.071 249.916 314.412 250.448C313.779 251.005 313.019 251.423 312.132 251.702C311.271 251.981 310.245 252.12 309.054 252.12C308.471 252.12 307.863 252.082 307.23 252.006C306.622 251.93 306.09 251.829 305.634 251.702L306.318 246.458C306.622 246.559 306.951 246.635 307.306 246.686C307.686 246.762 308.028 246.8 308.332 246.8C309.295 246.8 309.991 246.572 310.422 246.116C310.853 245.685 311.22 245.065 311.524 244.254L312.132 242.696L304.228 224.076H311.144L315.362 236.236H315.476L319.238 224.076H325.85L317.376 245.85ZM332.058 233.994V216.096H338.442V233.994H332.058ZM338.974 239.77C338.974 240.277 338.873 240.758 338.67 241.214C338.493 241.645 338.227 242.025 337.872 242.354C337.543 242.658 337.15 242.899 336.694 243.076C336.238 243.279 335.757 243.38 335.25 243.38C334.744 243.38 334.262 243.291 333.806 243.114C333.376 242.937 332.996 242.683 332.666 242.354C332.337 242.025 332.071 241.645 331.868 241.214C331.666 240.783 331.564 240.315 331.564 239.808C331.564 239.327 331.653 238.871 331.83 238.44C332.033 237.984 332.299 237.591 332.628 237.262C332.958 236.933 333.35 236.679 333.806 236.502C334.262 236.299 334.744 236.198 335.25 236.198C335.757 236.198 336.238 236.299 336.694 236.502C337.15 236.679 337.543 236.933 337.872 237.262C338.227 237.566 338.493 237.946 338.67 238.402C338.873 238.833 338.974 239.289 338.974 239.77Z" fill="white"/>
<path d="M63.6121 272.008V289H61.2841V274.072H53.1481V289H50.8201V272.008H63.6121ZM71.6271 294.76H69.3951V277.576H71.5791V279.4H71.6511C72.0991 278.728 72.6911 278.208 73.4271 277.84C74.1631 277.472 74.9471 277.288 75.7791 277.288C76.6431 277.288 77.4271 277.448 78.1311 277.768C78.8511 278.072 79.4591 278.496 79.9551 279.04C80.4671 279.584 80.8591 280.224 81.1311 280.96C81.4031 281.68 81.5391 282.456 81.5391 283.288C81.5391 284.12 81.4031 284.904 81.1311 285.64C80.8591 286.36 80.4671 286.992 79.9551 287.536C79.4591 288.08 78.8511 288.512 78.1311 288.832C77.4271 289.152 76.6351 289.312 75.7551 289.312C74.9711 289.312 74.2111 289.136 73.4751 288.784C72.7391 288.432 72.1471 287.92 71.6991 287.248H71.6271V294.76ZM79.2831 283.288C79.2831 282.728 79.1951 282.2 79.0191 281.704C78.8591 281.192 78.6111 280.752 78.2751 280.384C77.9391 280 77.5311 279.696 77.0511 279.472C76.5711 279.248 76.0191 279.136 75.3951 279.136C74.8191 279.136 74.2831 279.248 73.7871 279.472C73.3071 279.68 72.8911 279.976 72.5391 280.36C72.1871 280.728 71.9151 281.168 71.7231 281.68C71.5311 282.176 71.4351 282.712 71.4351 283.288C71.4351 283.864 71.5311 284.408 71.7231 284.92C71.9151 285.416 72.1871 285.856 72.5391 286.24C72.8911 286.608 73.3071 286.904 73.7871 287.128C74.2831 287.336 74.8191 287.44 75.3951 287.44C76.0191 287.44 76.5711 287.328 77.0511 287.104C77.5311 286.88 77.9391 286.584 78.2751 286.216C78.6111 285.832 78.8591 285.392 79.0191 284.896C79.1951 284.384 79.2831 283.848 79.2831 283.288ZM93.5061 281.632C93.5061 280.768 93.2581 280.12 92.7621 279.688C92.2821 279.256 91.6021 279.04 90.7221 279.04C90.0821 279.04 89.4741 279.16 88.8981 279.4C88.3381 279.64 87.8661 279.952 87.4821 280.336L86.2821 278.992C86.7941 278.48 87.4581 278.064 88.2741 277.744C89.0901 277.424 89.9781 277.264 90.9381 277.264C91.6101 277.264 92.2261 277.352 92.7861 277.528C93.3461 277.704 93.8261 277.968 94.2261 278.32C94.6421 278.672 94.9621 279.12 95.1861 279.664C95.4261 280.192 95.5541 280.816 95.5701 281.536C95.5861 281.76 95.5941 281.976 95.5941 282.184C95.5941 282.392 95.5941 282.608 95.5941 282.832V286.504C95.5941 286.936 95.6021 287.376 95.6181 287.824C95.6501 288.272 95.6901 288.664 95.7381 289H93.7221C93.6901 288.728 93.6581 288.448 93.6261 288.16C93.6101 287.872 93.6021 287.592 93.6021 287.32H93.5541C93.0901 288.008 92.5381 288.512 91.8981 288.832C91.2581 289.136 90.5061 289.288 89.6421 289.288C89.2101 289.288 88.7541 289.224 88.2741 289.096C87.8101 288.984 87.3781 288.792 86.9781 288.52C86.5941 288.232 86.2741 287.872 86.0181 287.44C85.7621 286.992 85.6341 286.44 85.6341 285.784C85.6341 284.92 85.8581 284.24 86.3061 283.744C86.7541 283.232 87.3461 282.848 88.0821 282.592C88.8181 282.32 89.6581 282.152 90.6021 282.088C91.5461 282.008 92.5141 281.968 93.5061 281.968V281.632ZM93.0501 283.48C92.4421 283.48 91.8261 283.504 91.2021 283.552C90.5941 283.6 90.0341 283.704 89.5221 283.864C89.0261 284.024 88.6181 284.256 88.2981 284.56C87.9781 284.848 87.8181 285.232 87.8181 285.712C87.8181 286.064 87.8901 286.36 88.0341 286.6C88.1781 286.84 88.3621 287.04 88.5861 287.2C88.8101 287.344 89.0661 287.448 89.3541 287.512C89.6421 287.576 89.9301 287.608 90.2181 287.608C90.7461 287.608 91.2101 287.52 91.6101 287.344C92.0261 287.168 92.3781 286.928 92.6661 286.624C92.9541 286.304 93.1701 285.944 93.3141 285.544C93.4581 285.128 93.5301 284.688 93.5301 284.224V283.48H93.0501ZM106.034 282.496C106.754 282.496 107.33 282.392 107.762 282.184C108.21 281.96 108.434 281.52 108.434 280.864C108.434 280.48 108.346 280.184 108.17 279.976C108.01 279.768 107.778 279.608 107.474 279.496C107.17 279.384 106.81 279.32 106.394 279.304C105.994 279.272 105.554 279.256 105.074 279.256H103.298V282.496H106.034ZM103.298 287.32H105.242C105.754 287.32 106.234 287.312 106.682 287.296C107.13 287.28 107.522 287.224 107.858 287.128C108.194 287.016 108.458 286.848 108.65 286.624C108.842 286.384 108.938 286.056 108.938 285.64C108.938 285.224 108.842 284.904 108.65 284.68C108.474 284.456 108.218 284.288 107.882 284.176C107.546 284.064 107.146 284 106.682 283.984C106.234 283.968 105.738 283.96 105.194 283.96H103.298V287.32ZM101.066 289V277.576H106.37C107.826 277.576 108.914 277.856 109.634 278.416C110.354 278.976 110.714 279.72 110.714 280.648C110.714 281.08 110.642 281.44 110.498 281.728C110.37 282.016 110.186 282.256 109.946 282.448C109.722 282.624 109.458 282.768 109.154 282.88C108.85 282.992 108.522 283.096 108.17 283.192C108.586 283.224 108.978 283.296 109.346 283.408C109.73 283.52 110.058 283.688 110.33 283.912C110.618 284.136 110.842 284.416 111.002 284.752C111.178 285.088 111.266 285.488 111.266 285.952C111.266 286.864 110.874 287.6 110.09 288.16C109.306 288.72 108.162 289 106.658 289H101.066ZM124.701 280.432L118.221 289H115.965V277.576H118.221V285.904L124.701 277.576H126.957V289H124.701V280.432ZM140.329 289L136.921 280.24L133.345 289H130.969L135.817 277.576H138.097L142.657 289H140.329ZM158.316 283.288C158.316 284.168 158.156 284.976 157.836 285.712C157.532 286.448 157.1 287.088 156.54 287.632C155.996 288.16 155.348 288.576 154.596 288.88C153.844 289.168 153.028 289.312 152.148 289.312C151.268 289.312 150.452 289.168 149.7 288.88C148.964 288.576 148.316 288.16 147.756 287.632C147.212 287.088 146.78 286.448 146.46 285.712C146.156 284.976 146.004 284.168 146.004 283.288C146.004 282.408 146.156 281.6 146.46 280.864C146.78 280.128 147.212 279.496 147.756 278.968C148.316 278.424 148.964 278.008 149.7 277.72C150.452 277.416 151.268 277.264 152.148 277.264C153.028 277.264 153.844 277.416 154.596 277.72C155.348 278.008 155.996 278.424 156.54 278.968C157.1 279.496 157.532 280.128 157.836 280.864C158.156 281.6 158.316 282.408 158.316 283.288ZM156.06 283.288C156.06 282.712 155.964 282.176 155.772 281.68C155.596 281.168 155.34 280.728 155.004 280.36C154.668 279.976 154.26 279.68 153.78 279.472C153.3 279.248 152.756 279.136 152.148 279.136C151.54 279.136 150.996 279.248 150.516 279.472C150.036 279.68 149.628 279.976 149.292 280.36C148.956 280.728 148.7 281.168 148.524 281.68C148.348 282.176 148.26 282.712 148.26 283.288C148.26 283.848 148.348 284.384 148.524 284.896C148.7 285.392 148.956 285.832 149.292 286.216C149.628 286.584 150.036 286.88 150.516 287.104C150.996 287.328 151.54 287.44 152.148 287.44C152.756 287.44 153.3 287.328 153.78 287.104C154.26 286.88 154.668 286.584 155.004 286.216C155.34 285.832 155.596 285.392 155.772 284.896C155.964 284.384 156.06 283.848 156.06 283.288ZM170.969 292.336H168.953V287.176H170.801L174.737 277.576H177.041L180.689 287.176H182.609V292.336H180.593V289H170.969V292.336ZM175.193 281.632L173.081 287.176H178.457L175.913 280.168L175.193 281.632ZM194.088 289L190.68 280.24L187.104 289H184.728L189.576 277.576H191.856L196.416 289H194.088ZM205.763 284.488C204.659 284.488 203.803 284.856 203.195 285.592C202.603 286.328 202.227 287.464 202.067 289H199.595C199.755 287.608 200.123 286.448 200.699 285.52C201.291 284.592 202.051 283.984 202.979 283.696V283.624C202.179 283.544 201.507 283.288 200.963 282.856C200.435 282.424 200.171 281.744 200.171 280.816C200.171 280.256 200.283 279.776 200.507 279.376C200.747 278.96 201.067 278.624 201.467 278.368C201.883 278.096 202.379 277.896 202.955 277.768C203.531 277.64 204.163 277.576 204.851 277.576H209.627V289H207.419V284.488H205.763ZM202.427 281.08C202.427 281.416 202.499 281.688 202.643 281.896C202.803 282.104 203.011 282.264 203.267 282.376C203.523 282.488 203.827 282.568 204.179 282.616C204.531 282.648 204.907 282.664 205.307 282.664H207.419V279.472H205.283C204.851 279.472 204.459 279.488 204.107 279.52C203.755 279.552 203.451 279.624 203.195 279.736C202.955 279.848 202.763 280.016 202.619 280.24C202.491 280.448 202.427 280.728 202.427 281.08ZM230.894 280.48C230.638 280.08 230.262 279.76 229.766 279.52C229.286 279.264 228.766 279.136 228.206 279.136C227.614 279.136 227.078 279.248 226.598 279.472C226.118 279.68 225.71 279.968 225.374 280.336C225.038 280.704 224.774 281.144 224.582 281.656C224.406 282.168 224.318 282.712 224.318 283.288C224.318 283.864 224.406 284.408 224.582 284.92C224.774 285.432 225.038 285.872 225.374 286.24C225.71 286.608 226.118 286.904 226.598 287.128C227.078 287.336 227.614 287.44 228.206 287.44C228.83 287.44 229.374 287.32 229.838 287.08C230.318 286.84 230.71 286.52 231.014 286.12L232.502 287.464C232.006 288.024 231.398 288.472 230.678 288.808C229.974 289.144 229.142 289.312 228.182 289.312C227.27 289.312 226.43 289.168 225.662 288.88C224.91 288.576 224.262 288.16 223.718 287.632C223.19 287.088 222.774 286.448 222.47 285.712C222.166 284.976 222.014 284.168 222.014 283.288C222.014 282.408 222.166 281.6 222.47 280.864C222.774 280.128 223.19 279.496 223.718 278.968C224.262 278.424 224.91 278.008 225.662 277.72C226.43 277.416 227.27 277.264 228.182 277.264C228.966 277.264 229.75 277.424 230.534 277.744C231.318 278.064 231.95 278.528 232.43 279.136L230.894 280.48ZM234.781 277.576H244.813V279.376H240.805V289H238.573V279.376H234.781V277.576ZM253.077 286.6H253.149L256.341 277.576H258.741L253.725 290.296C253.469 290.952 253.213 291.552 252.957 292.096C252.717 292.64 252.437 293.112 252.117 293.512C251.797 293.912 251.405 294.216 250.941 294.424C250.493 294.648 249.925 294.76 249.237 294.76C248.965 294.76 248.685 294.744 248.397 294.712C248.109 294.68 247.837 294.64 247.581 294.592L247.821 292.624C247.997 292.688 248.189 292.736 248.397 292.768C248.605 292.816 248.821 292.84 249.045 292.84C249.605 292.84 250.037 292.672 250.341 292.336C250.661 292.016 250.933 291.552 251.157 290.944L251.949 288.928L247.101 277.576H249.573L253.077 286.6ZM262.721 292.336H260.705V287.176H262.553L266.489 277.576H268.793L272.441 287.176H274.361V292.336H272.345V289H262.721V292.336ZM266.945 281.632L264.833 287.176H270.209L267.665 280.168L266.945 281.632ZM286.56 282.304C286.528 281.344 286.224 280.552 285.648 279.928C285.072 279.304 284.248 278.992 283.176 278.992C282.68 278.992 282.216 279.088 281.784 279.28C281.368 279.456 281 279.696 280.68 280C280.36 280.304 280.096 280.656 279.888 281.056C279.696 281.456 279.584 281.872 279.552 282.304H286.56ZM288.72 283.072C288.72 283.2 288.72 283.336 288.72 283.48C288.72 283.608 288.712 283.744 288.696 283.888H279.552C279.568 284.4 279.672 284.88 279.864 285.328C280.072 285.76 280.344 286.136 280.68 286.456C281.016 286.776 281.408 287.032 281.856 287.224C282.32 287.416 282.808 287.512 283.32 287.512C284.12 287.512 284.8 287.336 285.36 286.984C285.936 286.616 286.376 286.2 286.68 285.736L288.288 286.888C287.648 287.736 286.912 288.352 286.08 288.736C285.248 289.12 284.328 289.312 283.32 289.312C282.472 289.312 281.68 289.168 280.944 288.88C280.208 288.592 279.568 288.184 279.024 287.656C278.496 287.128 278.08 286.496 277.776 285.76C277.472 285.024 277.32 284.208 277.32 283.312C277.32 282.432 277.464 281.624 277.752 280.888C278.056 280.136 278.472 279.496 279 278.968C279.528 278.424 280.144 278.008 280.848 277.72C281.568 277.416 282.344 277.264 283.176 277.264C284.056 277.264 284.84 277.416 285.528 277.72C286.216 278.008 286.792 278.416 287.256 278.944C287.736 279.456 288.096 280.064 288.336 280.768C288.592 281.472 288.72 282.24 288.72 283.072ZM295.779 289H293.547V277.576H295.779V282.088H301.563V277.576H303.795V289H301.563V283.888H295.779V289ZM307.705 277.576H317.737V279.376H313.729V289H311.497V279.376H307.705V277.576ZM333.297 283.288C333.297 284.168 333.137 284.976 332.817 285.712C332.513 286.448 332.081 287.088 331.521 287.632C330.977 288.16 330.329 288.576 329.577 288.88C328.825 289.168 328.009 289.312 327.129 289.312C326.249 289.312 325.433 289.168 324.681 288.88C323.945 288.576 323.297 288.16 322.737 287.632C322.193 287.088 321.761 286.448 321.441 285.712C321.137 284.976 320.985 284.168 320.985 283.288C320.985 282.408 321.137 281.6 321.441 280.864C321.761 280.128 322.193 279.496 322.737 278.968C323.297 278.424 323.945 278.008 324.681 277.72C325.433 277.416 326.249 277.264 327.129 277.264C328.009 277.264 328.825 277.416 329.577 277.72C330.329 278.008 330.977 278.424 331.521 278.968C332.081 279.496 332.513 280.128 332.817 280.864C333.137 281.6 333.297 282.408 333.297 283.288ZM331.041 283.288C331.041 282.712 330.945 282.176 330.753 281.68C330.577 281.168 330.321 280.728 329.985 280.36C329.649 279.976 329.241 279.68 328.761 279.472C328.281 279.248 327.737 279.136 327.129 279.136C326.521 279.136 325.977 279.248 325.497 279.472C325.017 279.68 324.609 279.976 324.273 280.36C323.937 280.728 323.681 281.168 323.505 281.68C323.329 282.176 323.241 282.712 323.241 283.288C323.241 283.848 323.329 284.384 323.505 284.896C323.681 285.392 323.937 285.832 324.273 286.216C324.609 286.584 325.017 286.88 325.497 287.104C325.977 287.328 326.521 287.44 327.129 287.44C327.737 287.44 328.281 287.328 328.761 287.104C329.241 286.88 329.649 286.584 329.985 286.216C330.321 285.832 330.577 285.392 330.753 284.896C330.945 284.384 331.041 283.848 331.041 283.288ZM343.117 282.496C343.837 282.496 344.413 282.392 344.845 282.184C345.293 281.96 345.517 281.52 345.517 280.864C345.517 280.48 345.429 280.184 345.253 279.976C345.093 279.768 344.861 279.608 344.557 279.496C344.253 279.384 343.893 279.32 343.477 279.304C343.077 279.272 342.637 279.256 342.157 279.256H340.381V282.496H343.117ZM340.381 287.32H342.325C342.837 287.32 343.317 287.312 343.765 287.296C344.213 287.28 344.605 287.224 344.941 287.128C345.277 287.016 345.541 286.848 345.733 286.624C345.925 286.384 346.021 286.056 346.021 285.64C346.021 285.224 345.925 284.904 345.733 284.68C345.557 284.456 345.301 284.288 344.965 284.176C344.629 284.064 344.229 284 343.765 283.984C343.317 283.968 342.821 283.96 342.277 283.96H340.381V287.32ZM338.149 289V277.576H343.453C344.909 277.576 345.997 277.856 346.717 278.416C347.437 278.976 347.797 279.72 347.797 280.648C347.797 281.08 347.725 281.44 347.581 281.728C347.453 282.016 347.269 282.256 347.029 282.448C346.805 282.624 346.541 282.768 346.237 282.88C345.933 282.992 345.605 283.096 345.253 283.192C345.669 283.224 346.061 283.296 346.429 283.408C346.813 283.52 347.141 283.688 347.413 283.912C347.701 284.136 347.925 284.416 348.085 284.752C348.261 285.088 348.349 285.488 348.349 285.952C348.349 286.864 347.957 287.6 347.173 288.16C346.389 288.72 345.245 289 343.741 289H338.149ZM353.864 292.192H351.944L353.6 286.192H355.856L353.864 292.192ZM93.4893 322H91.2573V310.576H93.4893V315.088H99.2733V310.576H101.505V322H99.2733V316.888H93.4893V322ZM114.151 314.632C114.151 313.768 113.903 313.12 113.407 312.688C112.927 312.256 112.247 312.04 111.367 312.04C110.727 312.04 110.119 312.16 109.543 312.4C108.983 312.64 108.511 312.952 108.127 313.336L106.927 311.992C107.439 311.48 108.103 311.064 108.919 310.744C109.735 310.424 110.623 310.264 111.583 310.264C112.255 310.264 112.871 310.352 113.431 310.528C113.991 310.704 114.471 310.968 114.871 311.32C115.287 311.672 115.607 312.12 115.831 312.664C116.071 313.192 116.199 313.816 116.215 314.536C116.231 314.76 116.239 314.976 116.239 315.184C116.239 315.392 116.239 315.608 116.239 315.832V319.504C116.239 319.936 116.247 320.376 116.263 320.824C116.295 321.272 116.335 321.664 116.383 322H114.367C114.335 321.728 114.303 321.448 114.271 321.16C114.255 320.872 114.247 320.592 114.247 320.32H114.199C113.735 321.008 113.183 321.512 112.543 321.832C111.903 322.136 111.151 322.288 110.287 322.288C109.855 322.288 109.399 322.224 108.919 322.096C108.455 321.984 108.023 321.792 107.623 321.52C107.239 321.232 106.919 320.872 106.663 320.44C106.407 319.992 106.279 319.44 106.279 318.784C106.279 317.92 106.503 317.24 106.951 316.744C107.399 316.232 107.991 315.848 108.727 315.592C109.463 315.32 110.303 315.152 111.247 315.088C112.191 315.008 113.159 314.968 114.151 314.968V314.632ZM113.695 316.48C113.087 316.48 112.471 316.504 111.847 316.552C111.239 316.6 110.679 316.704 110.167 316.864C109.671 317.024 109.263 317.256 108.943 317.56C108.623 317.848 108.463 318.232 108.463 318.712C108.463 319.064 108.535 319.36 108.679 319.6C108.823 319.84 109.007 320.04 109.231 320.2C109.455 320.344 109.711 320.448 109.999 320.512C110.287 320.576 110.575 320.608 110.863 320.608C111.391 320.608 111.855 320.52 112.255 320.344C112.671 320.168 113.023 319.928 113.311 319.624C113.599 319.304 113.815 318.944 113.959 318.544C114.103 318.128 114.175 317.688 114.175 317.224V316.48H113.695ZM120.943 310.576H123.151V312.208C123.151 312.928 123.175 313.544 123.223 314.056C123.271 314.568 123.391 314.984 123.583 315.304C123.791 315.624 124.095 315.864 124.495 316.024C124.911 316.168 125.487 316.24 126.223 316.24H128.575V310.576H130.783V322H128.575V318.16L126.055 318.136C125.015 318.136 124.159 318.032 123.487 317.824C122.831 317.6 122.311 317.288 121.927 316.888C121.543 316.472 121.279 315.968 121.135 315.376C121.007 314.768 120.943 314.072 120.943 313.288V310.576ZM145.065 313.432L138.585 322H136.329V310.576H138.585V318.904L145.065 310.576H147.321V322H145.065V313.432ZM155.077 322H152.845V310.576H155.077V315.088H160.861V310.576H163.093V322H160.861V316.888H155.077V322ZM175.738 314.632C175.738 313.768 175.49 313.12 174.994 312.688C174.514 312.256 173.834 312.04 172.954 312.04C172.314 312.04 171.706 312.16 171.13 312.4C170.57 312.64 170.098 312.952 169.714 313.336L168.514 311.992C169.026 311.48 169.69 311.064 170.506 310.744C171.322 310.424 172.21 310.264 173.17 310.264C173.842 310.264 174.458 310.352 175.018 310.528C175.578 310.704 176.058 310.968 176.458 311.32C176.874 311.672 177.194 312.12 177.418 312.664C177.658 313.192 177.786 313.816 177.802 314.536C177.818 314.76 177.826 314.976 177.826 315.184C177.826 315.392 177.826 315.608 177.826 315.832V319.504C177.826 319.936 177.834 320.376 177.85 320.824C177.882 321.272 177.922 321.664 177.97 322H175.954C175.922 321.728 175.89 321.448 175.858 321.16C175.842 320.872 175.834 320.592 175.834 320.32H175.786C175.322 321.008 174.77 321.512 174.13 321.832C173.49 322.136 172.738 322.288 171.874 322.288C171.442 322.288 170.986 322.224 170.506 322.096C170.042 321.984 169.61 321.792 169.21 321.52C168.826 321.232 168.506 320.872 168.25 320.44C167.994 319.992 167.866 319.44 167.866 318.784C167.866 317.92 168.09 317.24 168.538 316.744C168.986 316.232 169.578 315.848 170.314 315.592C171.05 315.32 171.89 315.152 172.834 315.088C173.778 315.008 174.746 314.968 175.738 314.968V314.632ZM175.282 316.48C174.674 316.48 174.058 316.504 173.434 316.552C172.826 316.6 172.266 316.704 171.754 316.864C171.258 317.024 170.85 317.256 170.53 317.56C170.21 317.848 170.05 318.232 170.05 318.712C170.05 319.064 170.122 319.36 170.266 319.6C170.41 319.84 170.594 320.04 170.818 320.2C171.042 320.344 171.298 320.448 171.586 320.512C171.874 320.576 172.162 320.608 172.45 320.608C172.978 320.608 173.442 320.52 173.842 320.344C174.258 320.168 174.61 319.928 174.898 319.624C175.186 319.304 175.402 318.944 175.546 318.544C175.69 318.128 175.762 317.688 175.762 317.224V316.48H175.282ZM188.626 317.488C187.522 317.488 186.666 317.856 186.058 318.592C185.466 319.328 185.09 320.464 184.93 322H182.458C182.618 320.608 182.986 319.448 183.562 318.52C184.154 317.592 184.914 316.984 185.842 316.696V316.624C185.042 316.544 184.37 316.288 183.826 315.856C183.298 315.424 183.034 314.744 183.034 313.816C183.034 313.256 183.146 312.776 183.37 312.376C183.61 311.96 183.93 311.624 184.33 311.368C184.746 311.096 185.242 310.896 185.818 310.768C186.394 310.64 187.026 310.576 187.714 310.576H192.49V322H190.282V317.488H188.626ZM185.29 314.08C185.29 314.416 185.362 314.688 185.506 314.896C185.666 315.104 185.874 315.264 186.13 315.376C186.386 315.488 186.69 315.568 187.042 315.616C187.394 315.648 187.77 315.664 188.17 315.664H190.282V312.472H188.146C187.714 312.472 187.322 312.488 186.97 312.52C186.618 312.552 186.314 312.624 186.058 312.736C185.818 312.848 185.626 313.016 185.482 313.24C185.354 313.448 185.29 313.728 185.29 314.08ZM213.757 313.48C213.501 313.08 213.125 312.76 212.629 312.52C212.149 312.264 211.629 312.136 211.069 312.136C210.477 312.136 209.941 312.248 209.461 312.472C208.981 312.68 208.573 312.968 208.237 313.336C207.901 313.704 207.637 314.144 207.445 314.656C207.269 315.168 207.181 315.712 207.181 316.288C207.181 316.864 207.269 317.408 207.445 317.92C207.637 318.432 207.901 318.872 208.237 319.24C208.573 319.608 208.981 319.904 209.461 320.128C209.941 320.336 210.477 320.44 211.069 320.44C211.693 320.44 212.237 320.32 212.701 320.08C213.181 319.84 213.573 319.52 213.877 319.12L215.365 320.464C214.869 321.024 214.261 321.472 213.541 321.808C212.837 322.144 212.005 322.312 211.045 322.312C210.133 322.312 209.293 322.168 208.525 321.88C207.773 321.576 207.125 321.16 206.581 320.632C206.053 320.088 205.637 319.448 205.333 318.712C205.029 317.976 204.877 317.168 204.877 316.288C204.877 315.408 205.029 314.6 205.333 313.864C205.637 313.128 206.053 312.496 206.581 311.968C207.125 311.424 207.773 311.008 208.525 310.72C209.293 310.416 210.133 310.264 211.045 310.264C211.829 310.264 212.613 310.424 213.397 310.744C214.181 311.064 214.813 311.528 215.293 312.136L213.757 313.48ZM231.276 319.6H231.348L234.54 310.576H236.94L231.924 323.296C231.668 323.952 231.412 324.552 231.156 325.096C230.916 325.64 230.636 326.112 230.316 326.512C229.996 326.912 229.604 327.216 229.14 327.424C228.692 327.648 228.124 327.76 227.436 327.76C227.164 327.76 226.884 327.744 226.596 327.712C226.308 327.68 226.036 327.64 225.78 327.592L226.02 325.624C226.196 325.688 226.388 325.736 226.596 325.768C226.804 325.816 227.02 325.84 227.244 325.84C227.804 325.84 228.236 325.672 228.54 325.336C228.86 325.016 229.132 324.552 229.356 323.944L230.148 321.928L225.3 310.576H227.772L231.276 319.6ZM243.104 327.76H240.872V310.576H243.056V312.4H243.128C243.576 311.728 244.168 311.208 244.904 310.84C245.64 310.472 246.424 310.288 247.256 310.288C248.12 310.288 248.904 310.448 249.608 310.768C250.328 311.072 250.936 311.496 251.432 312.04C251.944 312.584 252.336 313.224 252.608 313.96C252.88 314.68 253.016 315.456 253.016 316.288C253.016 317.12 252.88 317.904 252.608 318.64C252.336 319.36 251.944 319.992 251.432 320.536C250.936 321.08 250.328 321.512 249.608 321.832C248.904 322.152 248.112 322.312 247.232 322.312C246.448 322.312 245.688 322.136 244.952 321.784C244.216 321.432 243.624 320.92 243.176 320.248H243.104V327.76ZM250.76 316.288C250.76 315.728 250.672 315.2 250.496 314.704C250.336 314.192 250.088 313.752 249.752 313.384C249.416 313 249.008 312.696 248.528 312.472C248.048 312.248 247.496 312.136 246.872 312.136C246.296 312.136 245.76 312.248 245.264 312.472C244.784 312.68 244.368 312.976 244.016 313.36C243.664 313.728 243.392 314.168 243.2 314.68C243.008 315.176 242.912 315.712 242.912 316.288C242.912 316.864 243.008 317.408 243.2 317.92C243.392 318.416 243.664 318.856 244.016 319.24C244.368 319.608 244.784 319.904 245.264 320.128C245.76 320.336 246.296 320.44 246.872 320.44C247.496 320.44 248.048 320.328 248.528 320.104C249.008 319.88 249.416 319.584 249.752 319.216C250.088 318.832 250.336 318.392 250.496 317.896C250.672 317.384 250.76 316.848 250.76 316.288ZM269.495 316.288C269.495 317.168 269.335 317.976 269.015 318.712C268.711 319.448 268.279 320.088 267.719 320.632C267.175 321.16 266.527 321.576 265.775 321.88C265.023 322.168 264.207 322.312 263.327 322.312C262.447 322.312 261.631 322.168 260.879 321.88C260.143 321.576 259.495 321.16 258.935 320.632C258.391 320.088 257.959 319.448 257.639 318.712C257.335 317.976 257.183 317.168 257.183 316.288C257.183 315.408 257.335 314.6 257.639 313.864C257.959 313.128 258.391 312.496 258.935 311.968C259.495 311.424 260.143 311.008 260.879 310.72C261.631 310.416 262.447 310.264 263.327 310.264C264.207 310.264 265.023 310.416 265.775 310.72C266.527 311.008 267.175 311.424 267.719 311.968C268.279 312.496 268.711 313.128 269.015 313.864C269.335 314.6 269.495 315.408 269.495 316.288ZM267.239 316.288C267.239 315.712 267.143 315.176 266.951 314.68C266.775 314.168 266.519 313.728 266.183 313.36C265.847 312.976 265.439 312.68 264.959 312.472C264.479 312.248 263.935 312.136 263.327 312.136C262.719 312.136 262.175 312.248 261.695 312.472C261.215 312.68 260.807 312.976 260.471 313.36C260.135 313.728 259.879 314.168 259.703 314.68C259.527 315.176 259.439 315.712 259.439 316.288C259.439 316.848 259.527 317.384 259.703 317.896C259.879 318.392 260.135 318.832 260.471 319.216C260.807 319.584 261.215 319.88 261.695 320.104C262.175 320.328 262.719 320.44 263.327 320.44C263.935 320.44 264.479 320.328 264.959 320.104C265.439 319.88 265.847 319.584 266.183 319.216C266.519 318.832 266.775 318.392 266.951 317.896C267.143 317.384 267.239 316.848 267.239 316.288ZM279.315 315.496C280.035 315.496 280.611 315.392 281.043 315.184C281.491 314.96 281.715 314.52 281.715 313.864C281.715 313.48 281.627 313.184 281.451 312.976C281.291 312.768 281.059 312.608 280.755 312.496C280.451 312.384 280.091 312.32 279.675 312.304C279.275 312.272 278.835 312.256 278.355 312.256H276.579V315.496H279.315ZM276.579 320.32H278.523C279.035 320.32 279.515 320.312 279.963 320.296C280.411 320.28 280.803 320.224 281.139 320.128C281.475 320.016 281.739 319.848 281.931 319.624C282.123 319.384 282.219 319.056 282.219 318.64C282.219 318.224 282.123 317.904 281.931 317.68C281.755 317.456 281.499 317.288 281.163 317.176C280.827 317.064 280.427 317 279.963 316.984C279.515 316.968 279.019 316.96 278.475 316.96H276.579V320.32ZM274.347 322V310.576H279.651C281.107 310.576 282.195 310.856 282.915 311.416C283.635 311.976 283.995 312.72 283.995 313.648C283.995 314.08 283.923 314.44 283.779 314.728C283.651 315.016 283.467 315.256 283.227 315.448C283.003 315.624 282.739 315.768 282.435 315.88C282.131 315.992 281.803 316.096 281.451 316.192C281.867 316.224 282.259 316.296 282.627 316.408C283.011 316.52 283.339 316.688 283.611 316.912C283.899 317.136 284.123 317.416 284.283 317.752C284.459 318.088 284.547 318.488 284.547 318.952C284.547 319.864 284.155 320.6 283.371 321.16C282.587 321.72 281.443 322 279.939 322H274.347ZM291.478 322H289.246V310.576H291.478V315.088H297.262V310.576H299.494V322H297.262V316.888H291.478V322ZM310.34 317.488C309.236 317.488 308.38 317.856 307.772 318.592C307.18 319.328 306.804 320.464 306.644 322H304.172C304.332 320.608 304.7 319.448 305.276 318.52C305.868 317.592 306.628 316.984 307.556 316.696V316.624C306.756 316.544 306.084 316.288 305.54 315.856C305.012 315.424 304.748 314.744 304.748 313.816C304.748 313.256 304.86 312.776 305.084 312.376C305.324 311.96 305.644 311.624 306.044 311.368C306.46 311.096 306.956 310.896 307.532 310.768C308.108 310.64 308.74 310.576 309.428 310.576H314.204V322H311.996V317.488H310.34ZM307.004 314.08C307.004 314.416 307.076 314.688 307.22 314.896C307.38 315.104 307.588 315.264 307.844 315.376C308.1 315.488 308.404 315.568 308.756 315.616C309.108 315.648 309.484 315.664 309.884 315.664H311.996V312.472H309.86C309.428 312.472 309.036 312.488 308.684 312.52C308.332 312.552 308.028 312.624 307.772 312.736C307.532 312.848 307.34 313.016 307.196 313.24C307.068 313.448 307.004 313.728 307.004 314.08ZM68.6423 338.008H74.1863C75.1623 338.008 76.0423 338.096 76.8263 338.272C77.6103 338.448 78.2823 338.736 78.8423 339.136C79.4023 339.536 79.8343 340.048 80.1383 340.672C80.4423 341.296 80.5943 342.048 80.5943 342.928C80.5943 343.872 80.4183 344.664 80.0663 345.304C79.7143 345.944 79.2343 346.464 78.6263 346.864C78.0343 347.248 77.3383 347.528 76.5383 347.704C75.7383 347.88 74.8903 347.968 73.9943 347.968H71.6663V355H68.6423V338.008ZM73.7783 345.424C74.2743 345.424 74.7463 345.392 75.1943 345.328C75.6423 345.248 76.0423 345.12 76.3943 344.944C76.7463 344.752 77.0263 344.496 77.2343 344.176C77.4423 343.856 77.5463 343.44 77.5463 342.928C77.5463 342.432 77.4423 342.032 77.2343 341.728C77.0263 341.408 76.7463 341.16 76.3943 340.984C76.0583 340.808 75.6663 340.696 75.2183 340.648C74.7863 340.584 74.3383 340.552 73.8743 340.552H71.6663V345.424H73.7783ZM83.7252 343.48H86.4852V345.4H86.5332C86.8532 344.728 87.3012 344.184 87.8772 343.768C88.4532 343.352 89.1252 343.144 89.8932 343.144C90.0052 343.144 90.1252 343.152 90.2532 343.168C90.3812 343.168 90.4932 343.184 90.5892 343.216V345.856C90.3972 345.808 90.2292 345.776 90.0852 345.76C89.9572 345.744 89.8292 345.736 89.7012 345.736C89.0452 345.736 88.5172 345.856 88.1172 346.096C87.7172 346.336 87.4052 346.624 87.1812 346.96C86.9572 347.296 86.8052 347.64 86.7252 347.992C86.6452 348.344 86.6052 348.624 86.6052 348.832V355H83.7252V343.48ZM101.837 348.088C101.837 347.72 101.781 347.368 101.669 347.032C101.573 346.696 101.413 346.4 101.189 346.144C100.965 345.888 100.677 345.688 100.325 345.544C99.9895 345.384 99.5895 345.304 99.1255 345.304C98.2615 345.304 97.5255 345.568 96.9175 346.096C96.3255 346.608 95.9975 347.272 95.9335 348.088H101.837ZM104.717 349.384C104.717 349.512 104.717 349.64 104.717 349.768C104.717 349.896 104.709 350.024 104.693 350.152H95.9335C95.9655 350.568 96.0695 350.952 96.2455 351.304C96.4375 351.64 96.6855 351.936 96.9895 352.192C97.2935 352.432 97.6375 352.624 98.0215 352.768C98.4055 352.912 98.8055 352.984 99.2215 352.984C99.9415 352.984 100.549 352.856 101.045 352.6C101.541 352.328 101.949 351.96 102.269 351.496L104.189 353.032C103.053 354.568 101.405 355.336 99.2455 355.336C98.3495 355.336 97.5255 355.2 96.7735 354.928C96.0215 354.64 95.3655 354.24 94.8055 353.728C94.2615 353.216 93.8295 352.592 93.5095 351.856C93.2055 351.104 93.0535 350.256 93.0535 349.312C93.0535 348.384 93.2055 347.544 93.5095 346.792C93.8295 346.024 94.2615 345.376 94.8055 344.848C95.3495 344.304 95.9895 343.888 96.7255 343.6C97.4775 343.296 98.2855 343.144 99.1495 343.144C99.9495 343.144 100.685 343.28 101.357 343.552C102.045 343.808 102.637 344.2 103.133 344.728C103.629 345.24 104.013 345.888 104.285 346.672C104.573 347.44 104.717 348.344 104.717 349.384ZM114.179 350.32H108.419V347.872H114.179V350.32ZM118.698 338.008H121.722V355H118.698V338.008ZM127.008 343.48H129.744V345.328H129.792C130.048 344.752 130.488 344.248 131.112 343.816C131.752 343.368 132.504 343.144 133.368 343.144C134.12 343.144 134.76 343.28 135.288 343.552C135.832 343.808 136.272 344.152 136.608 344.584C136.96 345.016 137.216 345.512 137.376 346.072C137.536 346.632 137.616 347.208 137.616 347.8V355H134.736V348.616C134.736 348.28 134.712 347.928 134.664 347.56C134.616 347.192 134.512 346.864 134.352 346.576C134.192 346.272 133.968 346.024 133.68 345.832C133.408 345.64 133.04 345.544 132.576 345.544C132.112 345.544 131.712 345.64 131.376 345.832C131.04 346.008 130.76 346.24 130.536 346.528C130.328 346.816 130.168 347.152 130.056 347.536C129.944 347.904 129.888 348.28 129.888 348.664V355H127.008V343.48ZM141 345.784V343.48H143.016V340.144H145.848V343.48H148.728V345.784H145.848V351.136C145.848 351.648 145.936 352.072 146.112 352.408C146.304 352.744 146.72 352.912 147.36 352.912C147.552 352.912 147.76 352.896 147.984 352.864C148.208 352.816 148.408 352.752 148.584 352.672L148.68 354.928C148.424 355.024 148.12 355.096 147.768 355.144C147.416 355.208 147.08 355.24 146.76 355.24C145.992 355.24 145.368 355.136 144.888 354.928C144.408 354.704 144.024 354.408 143.736 354.04C143.464 353.656 143.272 353.224 143.16 352.744C143.064 352.248 143.016 351.72 143.016 351.16V345.784H141ZM160.605 348.088C160.605 347.72 160.549 347.368 160.437 347.032C160.341 346.696 160.181 346.4 159.957 346.144C159.733 345.888 159.445 345.688 159.093 345.544C158.757 345.384 158.357 345.304 157.893 345.304C157.029 345.304 156.293 345.568 155.685 346.096C155.093 346.608 154.765 347.272 154.701 348.088H160.605ZM163.485 349.384C163.485 349.512 163.485 349.64 163.485 349.768C163.485 349.896 163.477 350.024 163.461 350.152H154.701C154.733 350.568 154.837 350.952 155.013 351.304C155.205 351.64 155.453 351.936 155.757 352.192C156.061 352.432 156.405 352.624 156.789 352.768C157.173 352.912 157.573 352.984 157.989 352.984C158.709 352.984 159.317 352.856 159.813 352.6C160.309 352.328 160.717 351.96 161.037 351.496L162.957 353.032C161.821 354.568 160.173 355.336 158.013 355.336C157.117 355.336 156.293 355.2 155.541 354.928C154.789 354.64 154.133 354.24 153.573 353.728C153.029 353.216 152.597 352.592 152.277 351.856C151.973 351.104 151.821 350.256 151.821 349.312C151.821 348.384 151.973 347.544 152.277 346.792C152.597 346.024 153.029 345.376 153.573 344.848C154.117 344.304 154.757 343.888 155.493 343.6C156.245 343.296 157.053 343.144 157.917 343.144C158.717 343.144 159.453 343.28 160.125 343.552C160.813 343.808 161.405 344.2 161.901 344.728C162.397 345.24 162.781 345.888 163.053 346.672C163.341 347.44 163.485 348.344 163.485 349.384ZM167.954 343.48H170.714V345.4H170.762C171.082 344.728 171.53 344.184 172.106 343.768C172.682 343.352 173.354 343.144 174.122 343.144C174.234 343.144 174.354 343.152 174.482 343.168C174.61 343.168 174.722 343.184 174.818 343.216V345.856C174.626 345.808 174.458 345.776 174.314 345.76C174.186 345.744 174.058 345.736 173.93 345.736C173.274 345.736 172.746 345.856 172.346 346.096C171.946 346.336 171.634 346.624 171.41 346.96C171.186 347.296 171.034 347.64 170.954 347.992C170.874 348.344 170.834 348.624 170.834 348.832V355H167.954V343.48ZM192.128 343.144C192.88 343.144 193.52 343.28 194.048 343.552C194.592 343.808 195.032 344.152 195.368 344.584C195.72 345.016 195.976 345.512 196.136 346.072C196.296 346.632 196.376 347.208 196.376 347.8V355H193.496V348.616C193.496 348.28 193.472 347.928 193.424 347.56C193.376 347.192 193.272 346.864 193.112 346.576C192.952 346.272 192.728 346.024 192.44 345.832C192.168 345.64 191.8 345.544 191.336 345.544C190.888 345.544 190.504 345.64 190.184 345.832C189.864 346.024 189.6 346.272 189.392 346.576C189.184 346.88 189.032 347.224 188.936 347.608C188.84 347.976 188.792 348.344 188.792 348.712V355H185.912V348.04C185.912 347.32 185.736 346.728 185.384 346.264C185.048 345.784 184.512 345.544 183.776 345.544C183.344 345.544 182.968 345.64 182.648 345.832C182.328 346.008 182.064 346.24 181.856 346.528C181.664 346.816 181.512 347.152 181.4 347.536C181.304 347.904 181.256 348.28 181.256 348.664V355H178.376V343.48H181.112V345.328H181.16C181.288 345.04 181.456 344.768 181.664 344.512C181.888 344.256 182.144 344.024 182.432 343.816C182.736 343.608 183.08 343.448 183.464 343.336C183.848 343.208 184.272 343.144 184.736 343.144C185.632 343.144 186.376 343.344 186.968 343.744C187.56 344.144 188.016 344.672 188.336 345.328C188.72 344.624 189.232 344.088 189.872 343.72C190.512 343.336 191.264 343.144 192.128 343.144ZM209.52 348.088C209.52 347.72 209.464 347.368 209.352 347.032C209.256 346.696 209.096 346.4 208.872 346.144C208.648 345.888 208.36 345.688 208.008 345.544C207.672 345.384 207.272 345.304 206.808 345.304C205.944 345.304 205.208 345.568 204.6 346.096C204.008 346.608 203.68 347.272 203.616 348.088H209.52ZM212.4 349.384C212.4 349.512 212.4 349.64 212.4 349.768C212.4 349.896 212.392 350.024 212.376 350.152H203.616C203.648 350.568 203.752 350.952 203.928 351.304C204.12 351.64 204.368 351.936 204.672 352.192C204.976 352.432 205.32 352.624 205.704 352.768C206.088 352.912 206.488 352.984 206.904 352.984C207.624 352.984 208.232 352.856 208.728 352.6C209.224 352.328 209.632 351.96 209.952 351.496L211.872 353.032C210.736 354.568 209.088 355.336 206.928 355.336C206.032 355.336 205.208 355.2 204.456 354.928C203.704 354.64 203.048 354.24 202.488 353.728C201.944 353.216 201.512 352.592 201.192 351.856C200.888 351.104 200.736 350.256 200.736 349.312C200.736 348.384 200.888 347.544 201.192 346.792C201.512 346.024 201.944 345.376 202.488 344.848C203.032 344.304 203.672 343.888 204.408 343.6C205.16 343.296 205.968 343.144 206.832 343.144C207.632 343.144 208.368 343.28 209.04 343.552C209.728 343.808 210.32 344.2 210.816 344.728C211.312 345.24 211.696 345.888 211.968 346.672C212.256 347.44 212.4 348.344 212.4 349.384ZM228.581 355H225.845V353.272H225.797C225.397 353.944 224.837 354.456 224.117 354.808C223.413 355.16 222.653 355.336 221.837 355.336C220.957 355.336 220.165 355.176 219.461 354.856C218.773 354.52 218.181 354.08 217.685 353.536C217.205 352.976 216.829 352.328 216.557 351.592C216.301 350.84 216.173 350.04 216.173 349.192C216.173 348.344 216.309 347.552 216.581 346.816C216.853 346.08 217.237 345.44 217.733 344.896C218.229 344.352 218.821 343.928 219.509 343.624C220.197 343.304 220.949 343.144 221.765 343.144C222.293 343.144 222.765 343.208 223.181 343.336C223.597 343.448 223.957 343.592 224.261 343.768C224.581 343.944 224.853 344.136 225.077 344.344C225.301 344.552 225.485 344.752 225.629 344.944H225.701V336.856H228.581V355ZM219.101 349.192C219.101 349.64 219.165 350.088 219.293 350.536C219.437 350.984 219.645 351.384 219.917 351.736C220.189 352.088 220.533 352.376 220.949 352.6C221.365 352.824 221.853 352.936 222.413 352.936C222.941 352.936 223.413 352.832 223.829 352.624C224.245 352.4 224.597 352.112 224.885 351.76C225.189 351.408 225.413 351.016 225.557 350.584C225.717 350.136 225.797 349.688 225.797 349.24C225.797 348.792 225.717 348.344 225.557 347.896C225.413 347.448 225.189 347.048 224.885 346.696C224.597 346.344 224.245 346.056 223.829 345.832C223.413 345.608 222.941 345.496 222.413 345.496C221.853 345.496 221.365 345.608 220.949 345.832C220.533 346.04 220.189 346.32 219.917 346.672C219.645 347.024 219.437 347.424 219.293 347.872C219.165 348.304 219.101 348.744 219.101 349.192ZM233.808 343.48H236.688V355H233.808V343.48ZM233.4 339.568C233.4 339.104 233.568 338.704 233.904 338.368C234.256 338.016 234.696 337.84 235.224 337.84C235.752 337.84 236.192 338.008 236.544 338.344C236.912 338.664 237.096 339.072 237.096 339.568C237.096 340.064 236.912 340.48 236.544 340.816C236.192 341.136 235.752 341.296 235.224 341.296C234.696 341.296 234.256 341.128 233.904 340.792C233.568 340.44 233.4 340.032 233.4 339.568ZM249.014 353.536H248.942C248.654 354.048 248.19 354.472 247.55 354.808C246.91 355.128 246.182 355.288 245.366 355.288C244.902 355.288 244.414 355.224 243.902 355.096C243.406 354.984 242.942 354.792 242.51 354.52C242.094 354.232 241.742 353.864 241.454 353.416C241.182 352.952 241.046 352.384 241.046 351.712C241.046 350.848 241.286 350.16 241.766 349.648C242.262 349.136 242.894 348.744 243.662 348.472C244.43 348.2 245.278 348.024 246.206 347.944C247.15 347.848 248.07 347.8 248.966 347.8V347.512C248.966 346.792 248.702 346.264 248.174 345.928C247.662 345.576 247.046 345.4 246.326 345.4C245.718 345.4 245.134 345.528 244.574 345.784C244.014 346.04 243.55 346.352 243.182 346.72L241.694 344.968C242.35 344.36 243.102 343.904 243.95 343.6C244.814 343.296 245.686 343.144 246.566 343.144C247.59 343.144 248.43 343.288 249.086 343.576C249.758 343.864 250.286 344.24 250.67 344.704C251.054 345.168 251.318 345.688 251.462 346.264C251.622 346.84 251.702 347.416 251.702 347.992V355H249.014V353.536ZM248.966 349.744H248.318C247.854 349.744 247.366 349.768 246.854 349.816C246.342 349.848 245.87 349.936 245.438 350.08C245.006 350.208 244.646 350.4 244.358 350.656C244.07 350.896 243.926 351.232 243.926 351.664C243.926 351.936 243.982 352.168 244.094 352.36C244.222 352.536 244.382 352.68 244.574 352.792C244.766 352.904 244.982 352.984 245.222 353.032C245.462 353.08 245.702 353.104 245.942 353.104C246.934 353.104 247.686 352.84 248.198 352.312C248.71 351.784 248.966 351.064 248.966 350.152V349.744ZM254.847 345.784V343.48H256.863V340.144H259.695V343.48H262.575V345.784H259.695V351.136C259.695 351.648 259.783 352.072 259.959 352.408C260.151 352.744 260.567 352.912 261.207 352.912C261.399 352.912 261.607 352.896 261.831 352.864C262.055 352.816 262.255 352.752 262.431 352.672L262.527 354.928C262.271 355.024 261.967 355.096 261.615 355.144C261.263 355.208 260.927 355.24 260.607 355.24C259.839 355.24 259.215 355.136 258.735 354.928C258.255 354.704 257.871 354.408 257.583 354.04C257.311 353.656 257.119 353.224 257.007 352.744C256.911 352.248 256.863 351.72 256.863 351.16V345.784H254.847ZM274.451 348.088C274.451 347.72 274.395 347.368 274.283 347.032C274.187 346.696 274.027 346.4 273.803 346.144C273.579 345.888 273.291 345.688 272.939 345.544C272.603 345.384 272.203 345.304 271.739 345.304C270.875 345.304 270.139 345.568 269.531 346.096C268.939 346.608 268.611 347.272 268.547 348.088H274.451ZM277.331 349.384C277.331 349.512 277.331 349.64 277.331 349.768C277.331 349.896 277.323 350.024 277.307 350.152H268.547C268.579 350.568 268.683 350.952 268.859 351.304C269.051 351.64 269.299 351.936 269.603 352.192C269.907 352.432 270.251 352.624 270.635 352.768C271.019 352.912 271.419 352.984 271.835 352.984C272.555 352.984 273.163 352.856 273.659 352.6C274.155 352.328 274.563 351.96 274.883 351.496L276.803 353.032C275.667 354.568 274.019 355.336 271.859 355.336C270.963 355.336 270.139 355.2 269.387 354.928C268.635 354.64 267.979 354.24 267.419 353.728C266.875 353.216 266.443 352.592 266.123 351.856C265.819 351.104 265.667 350.256 265.667 349.312C265.667 348.384 265.819 347.544 266.123 346.792C266.443 346.024 266.875 345.376 267.419 344.848C267.963 344.304 268.603 343.888 269.339 343.6C270.091 343.296 270.899 343.144 271.763 343.144C272.563 343.144 273.299 343.28 273.971 343.552C274.659 343.808 275.251 344.2 275.747 344.728C276.243 345.24 276.627 345.888 276.899 346.672C277.187 347.44 277.331 348.344 277.331 349.384ZM288.616 348.088C288.616 346.12 288.92 344.232 289.528 342.424C290.152 340.616 291.016 338.952 292.12 337.432L294.136 338.752C293.176 340.096 292.424 341.576 291.88 343.192C291.352 344.792 291.088 346.424 291.088 348.088C291.088 349.752 291.352 351.392 291.88 353.008C292.424 354.608 293.176 356.08 294.136 357.424L292.12 358.744C291.016 357.224 290.152 355.56 289.528 353.752C288.92 351.944 288.616 350.056 288.616 348.088ZM304.554 338.008H307.17L314.49 355H311.034L309.45 351.112H302.082L300.546 355H297.162L304.554 338.008ZM308.394 348.52L305.778 341.608L303.114 348.52H308.394ZM317.635 352.36L324.187 345.928C324.715 345.416 325.131 344.904 325.435 344.392C325.755 343.864 325.915 343.264 325.915 342.592C325.915 341.792 325.651 341.16 325.123 340.696C324.611 340.216 323.971 339.976 323.203 339.976C322.387 339.976 321.731 340.256 321.235 340.816C320.739 341.36 320.435 342.048 320.323 342.88L317.515 342.448C317.595 341.744 317.795 341.096 318.115 340.504C318.435 339.912 318.843 339.4 319.339 338.968C319.835 338.536 320.411 338.2 321.067 337.96C321.739 337.704 322.467 337.576 323.251 337.576C323.987 337.576 324.691 337.68 325.363 337.888C326.051 338.096 326.659 338.416 327.187 338.848C327.715 339.264 328.131 339.784 328.435 340.408C328.755 341.016 328.915 341.728 328.915 342.544C328.915 343.088 328.843 343.6 328.699 344.08C328.555 344.544 328.355 344.984 328.099 345.4C327.859 345.816 327.571 346.216 327.235 346.6C326.915 346.968 326.563 347.328 326.179 347.68L321.283 352.36H328.939V355H317.635V352.36ZM339.364 348.088C339.364 350.056 339.052 351.944 338.428 353.752C337.82 355.56 336.964 357.224 335.86 358.744L333.844 357.424C334.804 356.08 335.548 354.608 336.076 353.008C336.62 351.392 336.892 349.752 336.892 348.088C336.892 346.424 336.62 344.792 336.076 343.192C335.548 341.576 334.804 340.096 333.844 338.752L335.86 337.432C336.964 338.952 337.82 340.616 338.428 342.424C339.052 344.232 339.364 346.12 339.364 348.088Z" fill="white"/>
<g clip-path="url(#clip0)">
<path d="M342.959 16.416H222.041C198.859 16.416 180 35.275 180 58.457V126.101C180 149.283 198.859 168.142 222.041 168.142H228.28L242.902 186.693C244.042 188.138 245.78 188.981 247.619 188.981C249.458 188.981 251.198 188.138 252.336 186.693L266.958 168.142H342.959C366.141 168.142 385 149.283 385 126.101V58.457C385 35.275 366.141 16.416 342.959 16.416V16.416Z" fill="#6787F5"/>
<path d="M342.959 16.416H282.5V168.142H342.959C366.141 168.142 385 149.283 385 126.101V58.457C385 35.275 366.141 16.416 342.959 16.416Z" fill="#38478A"/>
<path d="M259.981 176.994L266.959 168.142L259.981 176.994Z" fill="white"/>
<path d="M385 65.7657H334.502L372.092 28.1759C364.53 20.8985 354.259 16.416 342.959 16.416H332.891L309.023 40.2846V16.416H255.979V40.2846L232.11 16.416H222.041C210.741 16.416 200.47 20.8985 192.908 28.1759L230.498 65.7657H180V118.81H230.498L194.319 154.987L192.916 156.39C200.478 163.664 210.746 168.142 222.041 168.142H228.28L229.975 170.293L255.334 144.932L254.923 168.142H309.021V144.356L332.729 168.142H342.959C354.206 168.142 364.435 163.703 371.986 156.485L370.572 155.065L334.437 118.81H385V65.7657Z" fill="white"/>
<path d="M385 65.7657H334.502L372.092 28.1759C364.53 20.8985 354.259 16.416 342.959 16.416H332.891L309.023 40.2846V16.416H282.5V168.142H309.021V144.356L332.729 168.142H342.959C354.206 168.142 364.435 163.703 371.986 156.485L370.572 155.065L334.437 118.81H385V65.7657Z" fill="#C7D3ED"/>
<path d="M297.009 77.7774V16.416H267.991V77.7774H180V106.798H267.991L266.958 168.142H297.009V106.798H385V77.7774H297.009Z" fill="#FF337A"/>
<path d="M297.009 77.7774V16.416H282.5V168.142H297.009V106.798H385V77.7774H297.009Z" fill="#D1005B"/>
<path d="M259.981 69.7677V61.275L215.613 16.9067C211.063 17.6074 206.751 19.0416 202.802 21.0827L251.488 69.7677H259.981Z" fill="#FF337A"/>
<path d="M362.198 21.0827C358.249 19.0416 353.937 17.6074 349.387 16.9067L305.019 61.275V69.7677H313.511L362.198 21.0827Z" fill="#D1005B"/>
<path d="M202.812 163.481C206.763 165.521 211.075 166.953 215.627 167.654L259.981 123.298V114.806H251.488L202.812 163.481Z" fill="#FF337A"/>
<path d="M305.019 114.806V123.323L349.221 167.676C353.78 166.991 358.103 165.574 362.063 163.545L313.488 114.806H305.019Z" fill="#D1005B"/>
</g>
<circle cx="333.5" cy="612.5" r="11.5" stroke="#CD142B" stroke-opacity="0.53" stroke-width="2"/>
<defs>
<clipPath id="clip0">
<rect width="205" height="205" fill="white" transform="translate(180)"/>
</clipPath>
</defs>
</svg>
