<svg width="377" height="373" viewBox="0 0 377 373" fill="none" xmlns="http://www.w3.org/2000/svg">
<circle cx="143.5" cy="143.5" r="143.5" fill="#00237C"/>
<path d="M29.192 106H22.496L33.188 80.512H39.164L49.748 106H42.908L40.928 100.996H31.064L29.192 106ZM32.828 96.064H39.236L36.068 87.316L32.828 96.064ZM54.3746 106V80.512H60.4946V89.764C60.8306 89.764 61.1546 89.776 61.4666 89.8C61.8026 89.8 62.1266 89.812 62.4386 89.836L70.2506 80.512H76.9466L68.4146 91.276C69.4946 91.804 70.4906 92.488 71.4026 93.328C72.3146 94.144 73.1426 95.152 73.8866 96.352C74.6306 97.552 75.2786 98.956 75.8306 100.564C76.3826 102.148 76.8506 103.96 77.2346 106H70.5386C70.1786 104.056 69.7226 102.376 69.1706 100.96C68.6426 99.544 67.9826 98.392 67.1906 97.504C66.3986 96.592 65.4506 95.932 64.3466 95.524C63.2426 95.092 61.9586 94.9 60.4946 94.948V106H54.3746ZM82.5586 106V80.512H88.6786V100.816H98.3986V80.512H104.519V100.816H107.255V111.004H102.215V106H82.5586ZM113.309 106V80.512H130.445V85.732H119.249V90.52H129.833V95.452H119.249V100.744H131.093V106H113.309ZM153.788 106V95.344H143.852V106H137.696V80.512H143.852V90.16H153.788V80.512H159.944V106H153.788ZM178.616 85.768V106H172.46V85.768H165.26V80.512H185.816V85.768H178.616ZM218.758 106V95.344H208.822V106H202.666V80.512H208.822V90.16H218.758V80.512H224.914V106H218.758ZM236.243 106H229.547L240.239 80.512H246.215L256.799 106H249.959L247.979 100.996H238.115L236.243 106ZM239.879 96.064H246.287L243.119 87.316L239.879 96.064ZM47.228 129.512V155H41.108V134.696H31.748V155H25.628V129.512H47.228ZM74.3394 137.36C74.3394 138.848 74.0634 140.108 73.5114 141.14C72.9594 142.148 72.2154 142.964 71.2794 143.588C70.3434 144.212 69.2634 144.668 68.0394 144.956C66.8154 145.244 65.5434 145.388 64.2234 145.388H61.1634V155H55.0074V129.512H64.3674C65.7594 129.512 67.0554 129.656 68.2554 129.944C69.4794 130.208 70.5354 130.652 71.4234 131.276C72.3354 131.876 73.0434 132.68 73.5474 133.688C74.0754 134.672 74.3394 135.896 74.3394 137.36ZM68.1834 137.396C68.1834 136.796 68.0634 136.304 67.8234 135.92C67.5834 135.536 67.2594 135.236 66.8514 135.02C66.4434 134.804 65.9754 134.66 65.4474 134.588C64.9434 134.516 64.4154 134.48 63.8634 134.48H61.1634V140.492H63.7554C64.3314 140.492 64.8834 140.444 65.4114 140.348C65.9394 140.252 66.4074 140.084 66.8154 139.844C67.2474 139.604 67.5834 139.292 67.8234 138.908C68.0634 138.5 68.1834 137.996 68.1834 137.396ZM84.1187 155H77.4227L88.1147 129.512H94.0907L104.675 155H97.8347L95.8547 149.996H85.9907L84.1187 155ZM87.7547 145.064H94.1627L90.9947 136.316L87.7547 145.064ZM109.301 155V129.512H115.421V138.764C115.757 138.764 116.081 138.776 116.393 138.8C116.729 138.8 117.053 138.812 117.365 138.836L125.177 129.512H131.873L123.341 140.276C124.421 140.804 125.417 141.488 126.329 142.328C127.241 143.144 128.069 144.152 128.813 145.352C129.557 146.552 130.205 147.956 130.757 149.564C131.309 151.148 131.777 152.96 132.161 155H125.465C125.105 153.056 124.649 151.376 124.097 149.96C123.569 148.544 122.909 147.392 122.117 146.504C121.325 145.592 120.377 144.932 119.273 144.524C118.169 144.092 116.885 143.9 115.421 143.948V155H109.301ZM148.393 134.768V155H142.237V134.768H135.037V129.512H155.593V134.768H148.393ZM167.151 146.504L177.735 129.512H184.683V155H178.563V138.224H178.455L167.835 155H160.923V129.512H167.043V146.504H167.151ZM192.447 155V129.512H198.567V138.764C198.903 138.764 199.227 138.776 199.539 138.8C199.875 138.8 200.199 138.812 200.511 138.836L208.323 129.512H215.019L206.487 140.276C207.567 140.804 208.563 141.488 209.475 142.328C210.387 143.144 211.215 144.152 211.959 145.352C212.703 146.552 213.351 147.956 213.903 149.564C214.455 151.148 214.923 152.96 215.307 155H208.611C208.251 153.056 207.795 151.376 207.243 149.96C206.715 148.544 206.055 147.392 205.263 146.504C204.471 145.592 203.523 144.932 202.419 144.524C201.315 144.092 200.031 143.9 198.567 143.948V155H192.447ZM220.631 155V129.512H237.767V134.732H226.571V139.52H237.155V144.452H226.571V149.744H238.415V155H220.631ZM44.96 186.36C44.96 187.848 44.684 189.108 44.132 190.14C43.58 191.148 42.836 191.964 41.9 192.588C40.964 193.212 39.884 193.668 38.66 193.956C37.436 194.244 36.164 194.388 34.844 194.388H31.784V204H25.628V178.512H34.988C36.38 178.512 37.676 178.656 38.876 178.944C40.1 179.208 41.156 179.652 42.044 180.276C42.956 180.876 43.664 181.68 44.168 182.688C44.696 183.672 44.96 184.896 44.96 186.36ZM38.804 186.396C38.804 185.796 38.684 185.304 38.444 184.92C38.204 184.536 37.88 184.236 37.472 184.02C37.064 183.804 36.596 183.66 36.068 183.588C35.564 183.516 35.036 183.48 34.484 183.48H31.784V189.492H34.376C34.952 189.492 35.504 189.444 36.032 189.348C36.56 189.252 37.028 189.084 37.436 188.844C37.868 188.604 38.204 188.292 38.444 187.908C38.684 187.5 38.804 186.996 38.804 186.396ZM51.1753 204V178.512H68.3113V183.732H57.1153V188.52H67.6993V193.452H57.1153V198.744H68.9593V204H51.1753ZM88.4145 178.512H94.4985V204H88.4505V194.532H83.8425C80.5305 194.532 78.1185 193.656 76.6065 191.904C75.1185 190.128 74.3745 187.644 74.3745 184.452V178.512H80.4945V183.156C80.4945 184.236 80.5425 185.172 80.6385 185.964C80.7585 186.732 80.9625 187.368 81.2505 187.872C81.5625 188.376 81.9945 188.748 82.5465 188.988C83.1225 189.228 83.8665 189.348 84.7785 189.348H88.4145V178.512ZM108.498 195.504L119.082 178.512H126.03V204H119.91V187.224H119.802L109.182 204H102.27V178.512H108.39V195.504H108.498Z" fill="white"/>
<circle cx="277" cy="273" r="100" fill="#CD142B"/>
<g clip-path="url(#clip0)">
<path d="M342.345 274.106C342.345 309.946 313.292 339 277.452 339C241.613 339 212.559 309.946 212.559 274.106C212.559 238.267 241.613 209.214 277.452 209.214C313.292 209.214 342.345 238.267 342.345 274.106Z" fill="#CD142B"/>
<path d="M278.159 256.074H245.445C230.516 256.074 218.413 268.176 218.413 283.106C218.413 293.905 224.747 303.225 233.902 307.555C237.578 309.294 239.936 312.982 239.936 317.049V322.848C239.936 325.053 242.785 325.932 244.026 324.11L250.43 314.718C252.385 311.853 255.629 310.138 259.097 310.138H278.159C293.089 310.138 305.191 298.035 305.191 283.106C305.19 268.176 293.088 256.074 278.159 256.074Z" fill="#F8FAFD"/>
<path d="M244.231 307.555C235.077 303.225 228.743 293.905 228.743 283.106C228.743 268.176 240.845 256.074 255.775 256.074H245.445C230.516 256.074 218.413 268.176 218.413 283.106C218.413 293.905 224.746 303.225 233.901 307.555C237.578 309.294 239.935 312.982 239.935 317.049V322.848C239.935 325.053 242.784 325.932 244.026 324.11L250.095 315.208C249.503 311.896 247.342 309.027 244.231 307.555Z" fill="#DDDDDD"/>
<path d="M248.494 283.622C248.494 286.378 246.261 288.613 243.505 288.613C240.749 288.613 238.515 286.378 238.515 283.622C238.515 280.866 240.749 278.632 243.505 278.632C246.261 278.632 248.494 280.866 248.494 283.622Z" fill="#7956BA"/>
<path d="M266.793 283.622C266.793 286.378 264.559 288.613 261.803 288.613C259.047 288.613 256.812 286.378 256.812 283.622C256.812 280.866 259.047 278.632 261.803 278.632C264.559 278.632 266.793 280.866 266.793 283.622Z" fill="#7956BA"/>
<path d="M285.09 283.622C285.09 286.378 282.856 288.613 280.1 288.613C277.344 288.613 275.109 286.378 275.109 283.622C275.109 280.866 277.344 278.632 280.1 278.632C282.856 278.632 285.09 280.866 285.09 283.622Z" fill="#7956BA"/>
<path d="M276.536 206H309.249C324.178 206 336.281 218.102 336.281 233.032C336.281 243.831 329.948 253.151 320.793 257.481C317.116 259.22 314.759 262.908 314.759 266.975V272.774C314.759 274.978 311.91 275.858 310.668 274.036L304.264 264.643C302.31 261.778 299.066 260.064 295.597 260.064H276.536C261.606 260.064 249.504 247.961 249.504 233.032C249.504 218.102 261.606 206 276.536 206Z" fill="#00237C"/>
<path d="M306.722 256.621H287.66C272.731 256.621 260.628 244.517 260.628 229.589C260.628 219.747 265.888 211.135 273.75 206.407C260.13 207.801 249.504 219.308 249.504 233.297C249.504 248.226 261.606 260.329 276.536 260.329H295.598C299.066 260.329 302.31 262.044 304.264 264.909L310.668 274.301C311.91 276.123 314.759 275.244 314.759 273.039V267.24C314.759 265.436 315.225 263.707 316.063 262.189L315.388 261.201C313.435 258.335 310.191 256.621 306.722 256.621Z" fill="#1A47B8"/>
<path d="M316.181 233.548C316.181 236.304 313.946 238.539 311.191 238.539C308.435 238.539 306.2 236.304 306.2 233.548C306.2 230.792 308.435 228.558 311.191 228.558C313.946 228.558 316.181 230.792 316.181 233.548Z" fill="#F8FAFD"/>
<path d="M297.882 233.548C297.882 236.304 295.649 238.539 292.893 238.539C290.137 238.539 287.902 236.304 287.902 233.548C287.902 230.792 290.137 228.558 292.893 228.558C295.649 228.558 297.882 230.792 297.882 233.548Z" fill="#F8FAFD"/>
<path d="M279.585 233.548C279.585 236.304 277.351 238.539 274.595 238.539C271.839 238.539 269.604 236.304 269.604 233.548C269.604 230.792 271.839 228.558 274.595 228.558C277.351 228.558 279.585 230.792 279.585 233.548Z" fill="#F8FAFD"/>
</g>
<circle cx="277.5" cy="272.5" r="85" stroke="white" stroke-width="5" stroke-dasharray="15 15"/>
<defs>
<clipPath id="clip0">
<rect width="133" height="133" fill="white" transform="translate(211 206)"/>
</clipPath>
</defs>
</svg>
