<svg width="1440" height="595" viewBox="0 0 1440 595" fill="none" xmlns="http://www.w3.org/2000/svg">
<mask id="mask0" mask-type="alpha" maskUnits="userSpaceOnUse" x="0" y="0" width="1440" height="595">
<rect width="1440" height="595" fill="#C4C4C4"/>
</mask>
<g mask="url(#mask0)">
<path d="M1589.79 48.9675C1468.86 71.7766 1433.25 103.952 1410.16 142.209C1381.87 188.94 1339.76 234.745 1265.86 277.218C1217.32 305.162 1153.11 340.201 1058 358.575C948.094 379.803 784.999 369.523 668.943 360.292C496.336 346.562 317.33 324.875 161.628 298.58C100.5 288.26 65.8187 282.713 6.06301 294.859C-2.4128 296.557 -13.1741 298.984 -24.8288 297.295C-33.7924 295.999 -41.0178 292.553 -48.0405 289.333C-63.3169 282.212 -80.5714 275.437 -99.6463 269.069C-116.989 263.341 -138.824 256.099 -138.83 248.102C-138.834 242.852 -129.632 239.152 -121.844 236.388C-108.293 231.568 -78.542 217.234 -50.1545 220.445C-26.1576 223.162 -4.10091 228.932 18.6426 233.111C78.4152 244.126 142.273 253.762 205.686 262.597C418.728 292.29 726.701 328.061 942.316 279.918C1093.24 246.209 1193.72 201.738 1229.01 149.441C1252.63 114.41 1267.54 79.486 1334.44 48.4211C1359.5 36.7914 1393.1 27.3154 1434.49 20.862C1476.73 14.2896 1540.03 11.4688 1585.37 18.1633C1624.77 23.9994 1624.58 41.7182 1589.79 48.9675Z" fill="#CD142B"/>
<path d="M1723.3 89.0942C1752.67 89.2187 1772.07 97.2133 1762.08 104.103C1760.14 105.359 1757.21 106.49 1753.49 107.42C1688.66 123.151 1634.81 143.327 1606.84 165.314C1594.53 175.006 1584.59 185.019 1575.27 195.01C1557.66 213.882 1539.48 232.864 1523.12 251.808C1504.94 272.85 1487.9 294.151 1468.33 315.084C1459.72 324.251 1450.54 333.492 1440.93 342.577C1410.85 370.754 1373.86 398.734 1324.07 424.705C1287.36 443.862 1243.68 460.386 1158.98 464.973C1073.52 469.598 979.234 464.38 897.425 458.96C671.015 443.947 449.297 416.1 232.398 391.789C193.833 387.469 149.273 381.166 109.38 382.243C76.0864 383.144 44.7542 387.739 12.8734 392.028C6.17618 392.924 -1.18704 393.847 -8.31579 394.061C-13.5232 394.276 -18.8078 393.844 -22.6525 392.888C-29.3125 391.219 -32.7619 387.634 -35.4673 384.075C-39.8388 378.343 -43.9754 372.563 -48.0141 366.805C-49.4452 364.788 -50.8374 362.797 -52.3077 360.848C-57.8361 353.49 -62.2289 345.266 -53.617 337.908C-48.397 333.591 -39.4596 329.656 -27.5189 326.418C-3.90472 319.664 31.5548 307.985 72.3512 310.265C103.003 311.979 132.187 316.389 160.626 319.987C224.537 328.064 289.466 335.707 353.768 343.476C430.351 352.732 508.246 361.732 586.845 369.328C706.711 380.899 851.471 394.048 981.842 387.81C1095.82 382.33 1170.18 354.996 1227.33 330.939C1302.69 299.219 1346.5 263.32 1377.35 226.465C1391.66 209.4 1401.99 191.837 1416.62 174.912C1429.32 160.22 1446.21 145.593 1471.82 132.434C1491.42 122.287 1518.67 113.32 1551.86 106.097C1597.21 96.1836 1664.05 88.8403 1723.3 89.0942Z" fill="#979797"/>
<path d="M1918.01 129.591C1938.17 129.066 1974.36 129.504 1974.17 137.31C1973.98 138.242 1972.8 139.143 1970.76 139.912C1924.37 160.17 1860.17 176.998 1823.86 198.765C1807.14 208.795 1792.49 219.222 1778.91 229.591C1753.42 249.21 1729.1 269.375 1707.48 289.171C1683.25 311.348 1665.95 334.486 1647.77 357.283C1639.46 367.674 1631.19 378.091 1622.61 388.462C1596.37 420.106 1566.85 451.845 1525.2 482.184C1496.24 503.271 1465.88 529.167 1392.28 543.034C1316.13 557.393 1213.59 554.29 1127.51 550.834C833.788 539.018 558.881 503.119 268.531 485.483C210.963 481.99 145.844 476.934 88.3792 480.761C41.1525 483.912 -3.93383 490.928 -49.2763 495.911C-57.9839 496.868 -67.4959 497.697 -76.2632 497.826C-82.4411 497.917 -88.1489 497.533 -92.2685 496.218C-97.8794 494.435 -99.5686 490.829 -99.6106 487.131C-99.6151 480.965 -98.3057 474.753 -96.0939 468.58C-95.3305 466.424 -94.3319 464.278 -93.4115 462.198C-89.9849 454.38 -84.4206 446.11 -70.8336 439.076C-62.0377 434.711 -50.4229 430.771 -36.4992 427.43C1.74026 418.309 43.1368 408.287 98.8196 408.941C138.047 409.423 176.099 413.079 213.053 416.137C285.96 422.168 357.731 428.71 428.815 435.999C513.021 444.621 597.503 453.714 682.356 461.759C817.07 474.523 970.692 488.954 1117.14 487.457C1264.77 485.95 1324.55 454.613 1380.56 423.947C1457.81 381.645 1503.34 335.698 1542.32 289.71C1558.7 270.389 1576.22 251.051 1594.97 231.948C1609.83 216.811 1626.47 201.54 1650.78 187.577C1668.58 177.328 1692.68 167.901 1722.13 159.669C1772.04 145.713 1847.5 131.364 1918.01 129.591Z" fill="#00237C"/>
</g>
</svg>
