<svg width="1440" height="585" viewBox="0 0 1440 585" fill="none" xmlns="http://www.w3.org/2000/svg">
<mask id="mask0" mask-type="alpha" maskUnits="userSpaceOnUse" x="0" y="0" width="1440" height="585">
<rect width="1440" height="585" fill="#C4C4C4"/>
</mask>
<g mask="url(#mask0)">
<path d="M1715.49 243.377C1540.07 273.835 1366.46 312.364 1193.87 350.011C1009.91 390.127 843.718 456.486 672.578 512.325C569.48 546.006 464.263 573.289 350.212 571.734C270.408 570.624 203.121 557.929 143.794 532.509C61.1378 497.095 2.46241 446.078 -84.0433 413.552C-104.065 406.024 -126.978 399.471 -153.393 399.722C-175.347 399.945 -197.726 404.816 -219.109 407.697C-238.147 410.26 -250.802 406.804 -260.816 400.01C-291.345 379.283 -297.301 339.359 -315.719 312.535C-319.607 306.867 -324.964 299.764 -324.727 293.317C-324.547 288.713 -319.167 286.695 -314.387 285.027C-277.265 272.073 -240.785 256.302 -200.556 246.763C-154.444 235.829 -111.996 237.582 -74.5172 248.206C-10.3102 266.445 36.0813 304.535 86.8612 334.118C137.027 363.296 188.519 392.273 248.385 415.533C299.027 435.236 355.824 449.969 419.537 455.969C499.392 463.465 583.839 450.996 662.536 432.615C856.075 387.377 1034.55 313.346 1229.43 266.111C1326.4 242.607 1425.84 222.186 1524.31 201.891C1608.64 184.508 1694.43 167.632 1780.02 156.956C1804.12 153.946 1835.91 149.321 1857.58 155.406C1868.09 158.361 1872.83 163.69 1876.44 169.155C1881.79 177.271 1883.56 186.866 1876.56 195.822C1853.42 225.464 1763.24 236.225 1715.54 243.356" fill="#00237C"/>
<path d="M1770.28 143.322C1674.5 157.277 1579.98 175.977 1486.13 195.512C1424.47 208.35 1362.92 221.606 1301.39 234.793C1207.53 254.9 1117.1 280.567 1027.71 307.773C930.708 337.296 833.856 368.548 735.064 394.78C622.953 424.548 508.327 446.181 394.005 431.664C303.136 420.099 227.908 391.466 161.05 358.826C119.501 338.533 80.846 316.564 42.6537 294.387C7.02634 273.704 -25.8255 250.31 -70.4881 235.188C-130.563 214.851 -196.955 220.385 -268.329 227.33C-294.776 229.904 -319.005 226.392 -340.563 220.626C-392.239 206.808 -434.839 183.417 -473.971 160.108C-479.084 157.064 -484.323 153.882 -489.424 150.464C-499.566 143.653 -508.617 136.326 -516.493 128.55C-517.105 128.01 -517.642 127.44 -518.18 126.869C-523.375 121.282 -529.823 114.768 -529.148 107.745C-528.748 103.595 -522.913 101.388 -516.688 99.6209C-399.016 66.6481 -272.232 35.3481 -155.874 57.5231C-86.6995 70.6964 -41.7949 103.877 6.08264 132.9C60.9512 166.227 116.32 199.542 174.882 230.583C246.738 268.676 325.27 306.141 419.335 328.365C517.845 351.63 618.909 344.796 727.463 324.256C866.511 297.947 1000.33 256.937 1134.93 220.299C1269.05 183.79 1406.44 155.032 1544.48 126.737C1627.47 109.729 1712.21 92.703 1795.98 82.6497C1820.39 79.7202 1845.51 77.5825 1869.47 79.5982C1886.79 81.0298 1905.59 83.8941 1918.1 90.2394C1926.04 94.3019 1931.21 102.899 1926.11 109.556C1916.53 122.079 1885.21 126.789 1865.06 130.213C1833.75 135.524 1801.84 139.276 1770.26 143.305" fill="#CD142B"/>
<path d="M1814.6 69.9384C1726.55 80.2153 1639.8 96.4295 1553.81 113.747C1494.36 125.75 1434.91 138.316 1375.57 150.696C1279.49 170.744 1186.04 195.69 1092.7 220.763C990.757 248.138 887.777 275.183 783.145 296.312C721.592 308.738 658.085 319.317 594.615 323.508C529.807 327.78 469.994 319.272 415.324 305.302C303.993 276.841 212.435 229.752 127.365 182.848C81.7917 157.715 37.9783 131.612 -5.62283 105.408C-46.2875 80.9728 -84.0957 53.9827 -138.5 38.2586C-224.686 13.2784 -328.765 20.6974 -429.087 29.1961C-463.118 32.0844 -496.129 31.2221 -528.035 28.2073C-598.032 21.5899 -660.733 10.0389 -717.465 -11.8407C-724.723 -14.508 -731.582 -17.4692 -738 -20.7051C-748.867 -26.4826 -759.194 -33.0178 -764.499 -41.349C-764.815 -41.8344 -765.077 -42.326 -765.321 -42.8016C-768.501 -49.1339 -765.629 -53.6642 -759.09 -58.0445C-754.886 -60.8635 -746.931 -62.6634 -738.293 -64.1479C-579.901 -91.3853 -404.853 -125.911 -254.429 -101.632C-176.78 -89.0972 -129.888 -55.4753 -78.4031 -23.3287C-14.5104 16.6002 49.5795 56.6072 116.487 94.7658C202.099 143.603 292.989 193.038 402.082 226.671C454.182 242.721 513.487 253.895 577.673 252.572C632.631 251.431 689.506 244.493 743.883 236.145C883.899 214.638 1020.58 180.859 1156.96 148.533C1287.54 117.57 1419.49 91.3375 1552.15 65.561C1626.51 51.1149 1702.27 36.3336 1777.01 28.0678C1800.11 25.5078 1823.6 24.0966 1846.64 24.8268C1874.82 25.721 1906.91 26.6959 1929.5 33.8808C1938.62 36.7863 1952.73 41.4875 1952.51 48.2217C1952.05 63.7099 1836.43 67.7474 1814.48 69.9704" fill="#979797"/>
</g>
</svg>
