<svg width="1440" height="553" viewBox="0 0 1440 553" fill="none" xmlns="http://www.w3.org/2000/svg">
<mask id="mask0" mask-type="alpha" maskUnits="userSpaceOnUse" x="0" y="0" width="1440" height="553">
<rect width="1440" height="553" fill="#C4C4C4"/>
</mask>
<g mask="url(#mask0)">
<path d="M2129.07 -584.27C2051.67 -542.141 1979.13 -491.959 1915.58 -430.216C1873.86 -389.675 1831.67 -344.027 1802.12 -293.906C1752.13 -209.142 1729.9 -106.309 1705.13 -9.50472C1677.83 97.238 1651.15 206.043 1605.55 304.527C1580.94 357.681 1546.77 403.502 1495.02 431.668C1446.44 458.14 1393.26 470.131 1339.32 471.077C1225.79 473.051 1113.83 438.673 1006.36 407.096C948.625 390.126 891.067 372.487 832.838 357.278C780.43 343.589 724.916 327.692 670.304 326.614C518.209 323.651 448.665 333.135 306.299 385.713C256.088 404.261 185.36 427.608 137.573 454.783C37.3962 511.75 -270.937 636.857 -351.347 668.67C-763.637 790.61 -658.915 735.101 -732.857 730.593C-748.822 729.622 -765.88 727.857 -780.169 722.006C-800.217 713.805 -828.694 697.191 -824.382 668.67C-824.148 667.035 -823.772 665.423 -823.259 663.852C-814.486 636.969 -782.826 619.328 -761.233 605.994C-747.569 597.698 -733.503 590.174 -719.097 583.457C-570.88 512.876 -68.0443 368.657 89.9082 324.899C251.324 280.305 416.141 241.685 580.638 222.493C672.249 211.807 757.419 210.911 846.124 236.791C920.691 258.581 992.522 289.239 1064.65 317.454C1154.06 352.437 1249.34 390.005 1347.4 387.177C1399.5 385.675 1452.22 369.372 1496.76 339.619C1541.73 309.652 1566.68 258.006 1580.44 207.487C1613.15 87.4275 1606.93 -44.2894 1619.94 -169.859C1626.11 -229.377 1635.17 -289.582 1655.46 -346.233C1675.18 -401.263 1707.88 -443.981 1745.56 -486.456C1796.81 -544.276 1853.53 -598.747 1915.61 -641.974C1936.55 -656.51 1958.89 -668.645 1982.23 -678.163C2044.17 -703.514 2112.49 -722.209 2179.1 -709.574C2200.13 -705.586 2223.92 -697.861 2239.98 -683.005C2285.44 -640.958 2153.08 -596.668 2129.07 -584.27Z" fill="#00237C"/>
<path d="M2011.54 -746.076C1923.06 -701.846 1837.7 -650.491 1764.98 -582.506C1721.12 -541.486 1674.83 -493.342 1650.33 -438.293C1608.29 -343.86 1608.58 -228.65 1604.3 -124.12C1599.68 -11.3933 1604.71 114.697 1564.12 218.278C1544.06 269.531 1512.48 306.638 1461.59 329.436C1416.76 349.385 1368.14 357.261 1320.25 352.33C1227.8 343.132 1141.27 299.066 1058.49 259.515C971.643 218.091 882.475 172.344 786.59 157.177C718.613 146.415 646.269 155.613 577.978 163.525C475.049 175.46 372.569 193.861 270.887 214.539C205.964 227.722 140.781 241.358 76.1503 256.279C-52.341 285.94 -179.829 322.35 -307.927 355.034C-402.529 379.178 -834.279 507.868 -931.256 502.482C-944.716 501.728 -959.317 499.832 -971.229 493.571C-996.408 480.322 -975.42 446.873 -963.398 433.928C-961.623 432.082 -959.751 430.341 -957.79 428.715C-924.522 400.219 -881.03 383.554 -841.288 369.351C-822.75 362.703 -803.516 356.61 -784.564 350.784C-604.505 295.409 -88.5543 151.792 96.0937 115.814C266.732 82.56 439.685 52.3819 612.026 40.2938C697.406 34.31 776.247 33.3413 856.96 63.0831C922.954 87.405 984.92 122.029 1047.17 154.424C1125.07 194.963 1208.52 238.5 1298.16 242.197C1346.46 244.219 1397.18 231.333 1439.61 205.617C1486.76 177.054 1511.13 127.079 1523.3 75.5963C1551.89 -45.4846 1534.86 -179.773 1533.05 -306.871C1532.14 -369.792 1536.23 -402.569 1550.52 -466.343C1567.03 -525.092 1595.17 -587.353 1621.82 -622.74C1666.7 -682.316 1717.23 -740.398 1779.22 -780.182C1800.94 -793.935 1823.44 -806.236 1846.59 -817.009C1920.65 -851.804 2003.8 -877.382 2085.25 -875.819C2105.79 -875.411 2132.73 -872.628 2148.48 -857.987C2197.34 -812.556 2035.16 -757.444 2011.53 -746.079" fill="#CD142B"/>
</g>
</svg>
