<svg width="1440" height="508" viewBox="0 0 1440 508" fill="none" xmlns="http://www.w3.org/2000/svg">
<mask id="mask0" mask-type="alpha" maskUnits="userSpaceOnUse" x="0" y="0" width="1440" height="508">
<rect width="1440" height="508" fill="#C4C4C4"/>
</mask>
<g mask="url(#mask0)">
<path d="M-688.981 -246.237C-606.359 -221.665 -530.062 -190.315 -465.109 -149.017C-422.458 -121.901 -379.829 -90.8614 -351.885 -55.0037C-304.624 5.63775 -290.514 83.2765 -272.902 155.956C-253.488 236.098 -234.998 317.911 -194.13 389.691C-172.072 428.431 -138.481 460.455 -83.2459 476.883C-31.3822 492.328 27.1814 496.021 87.7678 491.042C215.289 480.549 344.899 441.945 469.163 405.995C535.919 386.677 602.548 366.857 669.674 348.856C730.089 332.655 794.234 314.408 855.793 307.783C1027.23 289.364 1104.47 289.373 1259.08 315.19C1313.61 324.298 1390.71 334.966 1441.6 351.043C1548.27 384.743 1750.61 525.593 1837.71 541.821C2288.66 592.996 2308.04 484.714 2391.71 473.373C2409.78 470.927 2429.16 467.746 2445.85 461.681C2469.28 453.177 2503.08 437.236 2501.25 415.506C2501.16 414.26 2500.91 413.045 2500.5 411.877C2493.47 391.895 2459.72 381.527 2436.84 373.441C2422.35 368.436 2407.32 364.073 2391.82 360.374C2232.54 321.173 1682.07 262.26 1508.99 244.956C1332.1 227.368 1150.75 214.788 967.71 217.287C865.768 218.681 770.037 227.008 667.491 256.537C581.286 281.388 497.219 312.848 413.078 342.438C308.772 379.125 197.596 418.443 87.5614 426.633C29.1059 430.984 -28.4865 423.888 -75.4481 405.462C-122.866 386.915 -145.47 349.384 -155.598 311.543C-179.676 221.614 -158.728 118.493 -160.061 22.1909C-160.692 -23.455 -164.51 -69.3283 -181.341 -111.247C-197.695 -151.965 -229.962 -181.731 -267.853 -210.78C-319.386 -250.329 -377.438 -286.692 -442.706 -313.74C-464.727 -322.829 -488.576 -329.902 -513.827 -334.833C-580.832 -347.991 -655.717 -355.296 -731.992 -338.41C-756.084 -333.08 -783.667 -324.55 -803.309 -311.292C-858.912 -273.767 -714.682 -253.338 -688.981 -246.237Z" fill="#00237C"/>
<path d="M-539.605 -384.558C-444.745 -359.526 -354.144 -328.621 -279.529 -283.44C-234.519 -256.178 -187.546 -223.63 -165.813 -183.404C-128.52 -114.398 -141.052 -24.7459 -147.303 56.1131C-154.051 143.314 -173.069 241.933 -138.377 318.207C-121.24 355.952 -89.6385 381.471 -34.7918 393.814C13.5274 404.583 67.4029 405.558 121.8 396.649C226.8 379.698 328.815 336.252 426.145 296.715C528.249 255.289 633.42 210.255 742.91 188.299C820.532 172.724 900.953 172.215 976.949 171.134C1091.49 169.513 1204.85 172.969 1317.06 178.281C1388.71 181.658 1460.6 185.36 1531.74 190.119C1673.16 199.578 1812.75 214.395 1953.41 226.248C2057.29 235.006 2529.42 289.37 2639.1 274.906C2654.33 272.893 2670.96 269.871 2685.02 263.739C2714.76 250.765 2694.69 226.969 2682.53 218.172C2680.73 216.924 2678.81 215.768 2676.77 214.711C2642.36 196.069 2595.19 187.713 2551.98 180.875C2531.83 177.667 2510.84 174.966 2490.13 172.441C2293.41 148.443 1728.12 91.388 1524.18 82.9646C1335.72 75.1751 1144.32 70.024 951.698 78.8802C856.269 83.2714 767.667 90.8709 673.704 122.559C596.876 148.471 523.489 181.97 450.017 213.765C358.077 253.554 259.57 296.263 158.321 308.636C103.772 315.326 48.0613 310.677 3.04778 295.167C-46.9651 277.943 -69.098 241.65 -77.3311 202.891C-96.674 111.732 -63.284 5.46445 -47.781 -93.5964C-40.0897 -142.639 -41.2196 -167.703 -50.5448 -215.799C-62.8967 -259.75 -87.9536 -305.202 -114.193 -329.905C-158.369 -371.496 -209.072 -411.323 -274.601 -435.704C-297.58 -444.101 -321.597 -451.285 -346.504 -457.212C-426.138 -476.433 -516.981 -487.521 -608.794 -477.675C-631.945 -475.182 -662.549 -470.162 -681.817 -457.105C-741.608 -416.587 -564.972 -390.899 -539.592 -384.562" fill="#CD142B"/>
</g>
</svg>
