<svg width="327" height="252" viewBox="0 0 327 252" fill="none" xmlns="http://www.w3.org/2000/svg">
<rect x="-300" width="600" height="180" rx="90" fill="#00237C"/>
<path d="M240.2 197V176L281.6 138.5C284.2 136 286.3 133.45 287.9 130.85C289.5 128.25 290.3 125.35 290.3 122.15C290.3 118.35 289.1 115.3 286.7 113C284.3 110.6 281.1 109.4 277.1 109.4C272.9 109.4 269.45 110.9 266.75 113.9C264.15 116.8 262.6 120.65 262.1 125.45L237.95 122.15C238.55 116.75 240 111.95 242.3 107.75C244.7 103.55 247.7 100 251.3 97.1C254.9 94.1 259 91.85 263.6 90.35C268.3 88.75 273.25 87.95 278.45 87.95C283.35 87.95 288.1 88.6 292.7 89.9C297.3 91.2 301.4 93.2 305 95.9C308.6 98.6 311.45 102 313.55 106.1C315.75 110.2 316.85 115 316.85 120.5C316.85 124.3 316.35 127.75 315.35 130.85C314.35 133.85 312.95 136.65 311.15 139.25C309.45 141.85 307.45 144.3 305.15 146.6C302.95 148.8 300.65 151 298.25 153.2L273.65 175.1H317V197H240.2Z" fill="#CD142B"/>
<g clip-path="url(#clip0)">
<path d="M142.38 12V125.034H139.811C132.717 125.034 126.966 130.785 126.966 137.879V24.8448C126.966 17.7508 132.717 12 139.811 12H142.38Z" fill="#B49ACA"/>
<path d="M227.155 17.1379V119.897C227.146 122.731 224.851 125.026 222.017 125.034H142.379V12H222.017C224.851 12.0085 227.146 14.3038 227.155 17.1379Z" fill="#7D6599"/>
<path d="M219.448 150.724H140.349C133.599 150.833 127.851 145.838 127.016 139.138C126.974 138.72 126.957 138.3 126.965 137.879C126.965 130.785 132.716 125.035 139.81 125.035H219.448C215.183 125.035 211.741 130.789 211.741 137.879C211.741 144.97 215.183 150.724 219.448 150.724Z" fill="#F5EFCA"/>
<path d="M222.017 122.466H142.379C133.879 122.495 126.995 129.379 126.966 137.879C126.958 138.382 126.978 138.885 127.027 139.385C128.012 147.39 134.853 153.378 142.919 153.293H224.586C226.005 153.293 227.155 152.143 227.155 150.724V117.328C227.147 120.162 224.851 122.457 222.017 122.466ZM132.137 138.845C132.107 138.524 132.095 138.202 132.103 137.879C132.126 132.214 136.713 127.626 142.379 127.603H214.863C210.701 133.822 210.701 141.937 214.863 148.155H142.919C137.476 148.256 132.83 144.244 132.137 138.845Z" fill="#5D4C72"/>
<path d="M152.655 137.879H178.345V158.431C178.345 159.356 177.848 160.21 177.043 160.667C176.238 161.123 175.249 161.111 174.456 160.635L166.821 156.055C166.008 155.568 164.993 155.568 164.18 156.055L156.545 160.635C155.751 161.111 154.763 161.123 153.958 160.667C153.153 160.21 152.655 159.356 152.655 158.431V137.879Z" fill="#E64C3C"/>
<path d="M169.636 59.834C168.589 63.4928 168.062 67.2805 168.069 71.0861V84.3419C161.903 81.85 157.793 77.4314 157.793 72.3705C157.793 66.8986 162.597 62.1461 169.636 59.834Z" fill="#3D324C"/>
<path d="M201.465 72.371C201.465 77.4318 197.355 81.8504 191.189 84.3423L191.19 71.0865C191.18 67.7637 192.106 64.5053 193.861 61.6841C198.511 64.253 201.465 68.0808 201.465 72.371Z" fill="#3D324C"/>
<path d="M126.966 114.759V137.879C118.318 137.886 109.96 134.766 103.434 129.093C102.792 128.554 102.149 127.963 101.533 127.346C100.916 126.73 100.325 126.088 99.7859 125.445C94.6894 119.588 91.6411 112.228 91.1028 104.483C91.0257 103.635 91 102.787 91 101.914V67.2327C91 60.8481 96.1757 55.6724 102.56 55.6724C108.945 55.6724 114.121 60.8481 114.121 67.2327V101.914C114.114 102.777 114.201 103.638 114.378 104.483C114.708 106.092 115.335 107.625 116.227 109.004C117.201 110.44 118.439 111.678 119.875 112.652C121.986 114.022 124.449 114.754 126.966 114.759Z" fill="#FF5364"/>
<path d="M114.378 104.483H91.1028C91.0257 103.635 91 102.787 91 101.914V99.3447H114.121V101.914C114.115 102.777 114.201 103.638 114.378 104.483Z" fill="#FB7B76"/>
<path d="M91 78.793H114.121V83.9309H91V78.793Z" fill="#FB7B76"/>
<path d="M119.875 112.652L103.434 129.093C102.792 128.554 102.15 127.963 101.533 127.346C100.916 126.73 100.326 126.088 99.7861 125.445L116.228 109.004C117.201 110.44 118.439 111.678 119.875 112.652Z" fill="#FB7B76"/>
<path d="M188.62 140.448H144.948C143.529 140.448 142.379 139.298 142.379 137.88C142.379 136.461 143.529 135.311 144.948 135.311H188.62C190.039 135.311 191.189 136.461 191.189 137.88C191.189 139.298 190.039 140.448 188.62 140.448Z" fill="#CBB292"/>
<path d="M240 41.5433C240.004 44.6105 238.788 47.5533 236.619 49.7222C234.45 51.8911 231.507 53.1077 228.44 53.1036H209.173C208.312 53.0933 207.452 53.1621 206.604 53.3091C205.734 53.4306 204.875 53.6195 204.035 53.8743C201.421 54.6421 199.02 56.005 197.022 57.8562C196.379 58.4303 195.786 59.0576 195.249 59.7315C194.727 60.3377 194.262 60.9914 193.862 61.6839C193.817 61.7469 193.783 61.8162 193.759 61.8895C192.515 63.9108 191.702 66.1672 191.37 68.5174C191.244 69.3679 191.184 70.2267 191.19 71.0864V84.3422C183.752 87.2194 175.508 87.2194 168.069 84.3422V71.0864C168.069 70.2129 168.095 69.3652 168.172 68.5174C168.327 65.5766 168.819 62.6633 169.636 59.8343C171.139 54.5296 173.7 49.5836 177.163 45.2939C177.677 44.626 178.242 43.9581 178.833 43.3158C179.27 42.8534 179.681 42.4424 180.092 42.0057L180.632 41.4662C187.02 35.3146 195.233 31.4023 204.035 30.3169C204.883 30.1884 205.73 30.1114 206.604 30.06C207.477 30.0086 208.299 29.9829 209.173 29.9829H216.88C216.874 34.9544 220.433 39.2147 225.326 40.0935C230.22 40.9722 235.039 38.2166 236.763 33.5538C238.845 35.6914 240.007 38.5594 240 41.5433Z" fill="#FF5364"/>
<path d="M237.431 29.983C237.435 31.2047 237.208 32.4162 236.763 33.5538C234.882 38.4957 229.54 41.185 224.45 39.7527C219.36 38.3203 216.204 33.24 217.176 28.0423C218.149 22.8447 222.927 19.2483 228.191 19.7527C233.454 20.257 237.463 24.6953 237.431 29.983Z" fill="white"/>
<path d="M227.155 32.552C228.574 32.552 229.724 31.4018 229.724 29.983C229.724 28.5642 228.574 27.4141 227.155 27.4141C225.736 27.4141 224.586 28.5642 224.586 29.983C224.586 31.4018 225.736 32.552 227.155 32.552Z" fill="#2C2F38"/>
<path d="M197.021 57.8563C196.379 58.4304 195.786 59.0578 195.249 59.7317C194.726 60.3378 194.262 60.9915 193.861 61.6841C193.817 61.7471 193.782 61.8163 193.759 61.8896L177.163 45.2941C177.677 44.6261 178.242 43.9582 178.833 43.316C179.27 42.8535 179.681 42.4425 180.092 42.0058L180.631 41.4663L197.021 57.8563Z" fill="#FB7B76"/>
<path d="M191.37 68.5171C191.244 69.3676 191.184 70.2264 191.19 71.0861V73.655H168.069V71.0861C168.069 70.2126 168.095 69.3649 168.172 68.5171H191.37Z" fill="#FB7B76"/>
<path d="M209.172 29.9829V53.1036C208.311 53.0933 207.451 53.1621 206.603 53.3091C205.733 53.4306 204.875 53.6195 204.034 53.8743V30.3169C204.882 30.1884 205.73 30.1114 206.603 30.06C207.477 30.0086 208.299 29.9829 209.172 29.9829Z" fill="#FB7B76"/>
</g>
<defs>
<clipPath id="clip0">
<rect width="149" height="149" fill="white" transform="translate(91 12)"/>
</clipPath>
</defs>
</svg>
