<svg width="415" height="415" fill="none" xmlns="http://www.w3.org/2000/svg"><circle cx="207.5" cy="207.5" r="207.5" fill="#00237C"/><g clip-path="url(#clip0)"><path d="M353.635 242.742c-11.635 43.424-41.424 77.132-79.022 95.142a147.604 147.604 0 01-19.756 7.783 143.079 143.079 0 01-10.488 2.865 146.041 146.041 0 01-16.348 2.863c-18.09 2.142-36.877.945-55.55-4.058-15.992-4.285-30.661-11.029-43.713-19.725a139.883 139.883 0 01-6.441-4.54 144.905 144.905 0 01-12.725-10.66 147.809 147.809 0 01-12.757-13.581 150.498 150.498 0 01-8.104-10.761c-23.544-34.398-32.49-78.479-20.855-121.898C89.02 87.261 170.129 40.432 249.04 61.577c78.912 21.144 125.74 102.253 104.595 181.165z" fill="#00237C"/><path d="M121.085 294.452a67.566 67.566 0 00-5.627 7.448c-2.186 3.329-4.132 6.857-5.866 10.512a147.701 147.701 0 01-12.758-13.581 150.53 150.53 0 01-8.103-10.761c6.915-13.511 13.143-19.217 13.143-19.217l21.895 4.942-2.684 20.657zm153.528 43.432a147.733 147.733 0 01-19.756 7.782 142.587 142.587 0 01-10.488 2.866c.591-7.219.39-14.423-.967-21.306l11.565-21.841 17.878 9.28s.893 2.851 1.456 8.353c.391 3.748.619 8.723.312 14.866z" fill="#E8B391"/><path d="M284.435 309.72l-41.033 17.506-6.884-7.543-8.498 31.712c-18.09 2.142-36.876.945-55.549-4.058-18.674-5.004-35.548-13.362-50.154-24.265l8.497-31.713-9.729 3.093-11.856-15.795-14.925-19.882 53.017-43.226a12.276 12.276 0 0110.935-2.344l93.573 25.073a12.264 12.264 0 018.298 7.498l24.308 63.944z" fill="#49AAB7"/><path d="M188.183 221.226l-2.446 2.913c-33.546-12.557-48.976 11.81-83.864 44.716l-7.568-10.08 53.019-43.225a12.27 12.27 0 0110.932-2.343l29.927 8.019z" fill="#488089"/><path d="M199.215 247.498c-10.172-2.726-16.21-13.183-13.484-23.356l5.689-21.233 36.841 9.872-5.69 21.232c-2.723 10.174-13.181 16.211-23.356 13.485zm-8.172-95.153c-2.352 8.775-11.37 13.983-20.145 11.632-8.775-2.351-13.983-11.371-11.631-20.147 2.35-8.773 11.37-13.98 20.146-11.629 8.775 2.351 13.98 11.371 11.63 20.144zm94.337 25.277c-2.351 8.776-11.369 13.984-20.144 11.633-8.775-2.352-13.983-11.372-11.632-20.147 2.351-8.773 11.371-13.981 20.146-11.629 8.776 2.351 13.981 11.37 11.63 20.143z" fill="#E8B391"/><path d="M207.016 218.382c-26.122-6.999-41.626-33.85-34.626-59.975l16.27-60.722 94.604 25.349-16.27 60.722c-7 26.125-33.852 41.626-59.978 34.626z" fill="#FFCBA7"/><path d="M213.913 219.713a48.96 48.96 0 01-6.893-1.333c-26.125-7-41.63-33.846-34.63-59.973l16.27-60.72 13.535 3.626-16.27 60.72c-6.385 23.827 5.95 48.256 27.988 57.68z" fill="#E8B391"/><path d="M195.904 110.629l-16.616 3.443-8.984 33.529c8.086 2.167 16.398-2.632 18.565-10.718l7.035-26.254z" fill="#3E4654"/><path d="M239.337 79.404c-26.156-7.008-53.042 8.515-60.05 34.668l89.259 23.917-5.061 18.887c-2.167 8.086 2.632 16.398 10.716 18.565l13.142-49.046c4.712-17.585-5.722-35.66-23.309-40.373l-24.697-6.618z" fill="#3E4654"/><path d="M261.546 85.355l-22.21-5.95c-26.155-7.009-53.039 8.514-60.047 34.668l22.209 5.951c7.006-26.154 33.892-41.677 60.048-34.669z" fill="#216E82"/><path d="M212.216 152.908a9.154 9.154 0 00-6.473-11.212 9.152 9.152 0 00-11.21 6.474m58.211 15.597a9.154 9.154 0 10-17.684-4.738" fill="#38435C"/><path d="M228.993 166.381l-15.008-4.022a4.818 4.818 0 00-5.9 3.408 4.818 4.818 0 003.405 5.902l15.008 4.021a4.819 4.819 0 102.495-9.309z" fill="#E8B391"/><path d="M195.574 172.667c-3.271 12.208 3.972 24.758 16.181 28.029 12.209 3.272 24.76-3.974 28.031-16.183" fill="#fff"/><path d="M139.875 286.118l-11.118 41.494a139.883 139.883 0 01-6.441-4.54l8.497-31.713 9.062-5.241z" fill="#488089"/><path d="M115.458 301.9c-2.186 3.328-4.132 6.857-5.866 10.512a147.83 147.83 0 01-12.758-13.581c2.978-5.21 10.231-6.08 14.346-1.589l4.278 4.658zm159.155 35.984a147.733 147.733 0 01-19.756 7.782c.424-2.305.774-4.361 1.063-6.11a14.008 14.008 0 016.824-9.865l11.557-6.673c.391 3.748.619 8.723.312 14.866z" fill="#FFCBA7"/><path d="M236.521 319.683l4.809-17.949 12.221 21.167-10.147 4.328-6.883-7.546z" fill="#488089"/><path d="M241.362 124.485l-.025.014a165.158 165.158 0 01-16.862 5.488c-38.738 10.384-73.766 5.251-78.246-11.453-4.474-16.706 23.297-38.662 62.033-49.04 8.698-2.331 17.208-3.883 25.227-4.693 27.7-2.8 49.545 3.193 53.021 16.147 3.788 14.154-15.573 32.081-45.148 43.537z" fill="#ED5972"/><path d="M241.362 124.485l-.025.014a165.158 165.158 0 01-16.862 5.488c-38.738 10.384-73.766 5.251-78.246-11.453-4.474-16.705 23.297-38.662 62.033-49.04 8.698-2.331 17.208-3.883 25.227-4.693-25.227 4.693-41.403 30.79-37.588 45.827 3.817 15.039 45.461 13.857 45.461 13.857z" fill="#CD142B"/><path d="M212.994 87.079l.001-29.445-25.499 14.722 25.498 14.723z" fill="#3E4654"/><path d="M229.341 303.052c1.683-6.281-1.132-12.494-6.283-13.874-5.154-1.381-10.696 2.593-12.379 8.874-1.683 6.279 1.13 12.491 6.284 13.872 5.152 1.38 10.696-2.593 12.378-8.872z" fill="#CD142B"/><path d="M175.8 292.923c.841-3.139-.565-6.245-3.142-6.936-2.577-.69-5.348 1.297-6.189 4.436-.842 3.142.565 6.246 3.142 6.936 2.577.691 5.347-1.294 6.189-4.436z" fill="#ED5972"/><path d="M156.677 315.303c.842-3.142-.565-6.246-3.142-6.936-2.577-.691-5.348 1.294-6.189 4.436-.842 3.139.565 6.245 3.142 6.936 2.577.69 5.348-1.297 6.189-4.436zm46.122 2.827c1.468-5.477-.737-10.825-4.926-11.947-4.185-1.122-8.769 2.407-10.237 7.884-1.467 5.474.738 10.823 4.924 11.944 4.188 1.122 8.772-2.407 10.239-7.881z" fill="#F7D65E"/><path d="M173.257 280.505c6.847-5.068 9.256-13.421 5.38-18.656-3.875-5.238-12.567-5.372-19.414-.304-6.847 5.068-9.255 13.419-5.38 18.656 3.876 5.235 12.568 5.37 19.414.304z" fill="#CD142B"/></g><circle cx="209" cy="208" r="180" stroke="#fff" stroke-width="6" stroke-dasharray="15 15"/><defs><clipPath id="clip0"><path fill="#fff" transform="rotate(15 -37.865 416.732)" d="M0 0h295.84v295.84H0z"/></clipPath></defs></svg>