<svg width="615" height="650" fill="none" xmlns="http://www.w3.org/2000/svg"><path d="M432.779 539.619c-12.557 15.507-34.401 18.432-50.58 5.33-8.236-6.669-12.278-14.563-13.003-22.982-.735-8.541 1.906-18.157 8.067-28.118 5.529-8.939 13.732-12.528 22.839-12.733 9.327-.211 19.517 3.18 27.918 8.303 7.336 4.472 11.804 12.857 12.735 22.536.929 9.667-1.763 19.992-7.976 27.664z" stroke="#00237C" stroke-width="10"/><path d="M434.049 74.996c12.078 9.78 28.483 7.563 37.835-3.986 9.353-11.549 7.848-30.633-3.967-37.837-11.816-7.204-29.221-9.943-37.836 3.986-8.615 13.928-8.111 28.056 3.968 37.837z" fill="#00237C"/><rect y="230" width="615" height="222" rx="100" fill="#00237C"/><path d="M65.774 320v-26.904h18.088v5.51H72.044v5.054h11.172v5.206H72.044v5.586h12.502V320H65.774zm37.826 0v-10.336c0-.532-.051-1.039-.152-1.52a3.655 3.655 0 00-.418-1.254 2.081 2.081 0 00-.874-.874c-.355-.228-.811-.342-1.368-.342s-1.051.114-1.482.342a2.833 2.833 0 00-1.026.874 4.33 4.33 0 00-.646 1.33 5.95 5.95 0 00-.19 1.52V320h-6.27v-18.924h6.042v2.622h.076a6.17 6.17 0 01.874-1.178c.38-.405.81-.747 1.292-1.026a8.487 8.487 0 011.634-.684 6.374 6.374 0 011.862-.266c1.267 0 2.343.228 3.23.684.887.456 1.596 1.051 2.128 1.786a6.39 6.39 0 011.178 2.47c.253.937.38 1.875.38 2.812V320h-6.27zm33.714-1.786c0 1.849-.266 3.458-.798 4.826-.532 1.368-1.279 2.495-2.242 3.382-.963.912-2.141 1.583-3.534 2.014-1.368.456-2.888.684-4.56.684-1.672 0-3.395-.253-5.168-.76-1.748-.507-3.268-1.241-4.56-2.204l3.116-4.446a8.91 8.91 0 003.002 1.786c1.115.405 2.204.608 3.268.608 1.824 0 3.167-.481 4.028-1.444.887-.963 1.33-2.242 1.33-3.838v-1.14h-.114c-.583.76-1.368 1.368-2.356 1.824-.988.456-2.115.684-3.382.684-1.444 0-2.723-.253-3.838-.76a8.84 8.84 0 01-2.85-2.128 9.447 9.447 0 01-1.748-3.078 11.605 11.605 0 01-.608-3.762c0-1.317.203-2.571.608-3.762a9.805 9.805 0 011.748-3.154 8.599 8.599 0 012.85-2.166c1.115-.557 2.381-.836 3.8-.836 1.191 0 2.331.241 3.42.722a5.93 5.93 0 012.622 2.242h.076v-2.432h5.89v17.138zm-5.928-7.79c0-.633-.114-1.241-.342-1.824a4.213 4.213 0 00-.912-1.52 4.276 4.276 0 00-1.444-1.064c-.557-.253-1.191-.38-1.9-.38-.709 0-1.343.127-1.9.38a4.216 4.216 0 00-1.368 1.026c-.38.431-.671.937-.874 1.52a5.62 5.62 0 00-.304 1.862c0 .633.101 1.241.304 1.824.203.583.494 1.102.874 1.558.38.431.836.785 1.368 1.064.557.253 1.191.38 1.9.38.709 0 1.343-.127 1.9-.38a4.459 4.459 0 001.444-1.064c.405-.431.709-.937.912-1.52a5.064 5.064 0 00.342-1.862zM144.998 320v-28.728h6.308V320h-6.308zm20.666-24.966c0 .481-.101.937-.304 1.368-.177.405-.431.76-.76 1.064a3.25 3.25 0 01-1.14.722 3.566 3.566 0 01-1.368.266c-1.013 0-1.862-.329-2.546-.988-.684-.684-1.026-1.495-1.026-2.432 0-.456.089-.887.266-1.292.177-.431.431-.798.76-1.102a3.78 3.78 0 011.14-.722 3.255 3.255 0 011.406-.304c.481 0 .937.089 1.368.266a3.25 3.25 0 011.14.722c.329.304.583.671.76 1.102.203.405.304.849.304 1.33zM158.976 320v-18.924h6.232V320h-6.232zm24.962-13.338a6.93 6.93 0 00-1.786-1.216 4.936 4.936 0 00-2.166-.494c-.582 0-1.127.114-1.634.342-.481.228-.722.621-.722 1.178 0 .532.266.912.798 1.14.558.228 1.444.481 2.66.76.71.152 1.419.367 2.128.646a7.489 7.489 0 011.976 1.102 5.257 5.257 0 011.406 1.672c.355.659.532 1.444.532 2.356 0 1.191-.24 2.204-.722 3.04a5.898 5.898 0 01-1.9 1.976 7.882 7.882 0 01-2.584 1.102c-.962.228-1.925.342-2.888.342-1.545 0-3.065-.241-4.56-.722-1.469-.507-2.698-1.241-3.686-2.204l3.496-3.686a6.997 6.997 0 002.052 1.52 5.706 5.706 0 002.584.608c.507 0 1.001-.114 1.482-.342.507-.253.76-.684.76-1.292 0-.583-.304-1.013-.912-1.292-.608-.279-1.558-.57-2.85-.874a14.82 14.82 0 01-1.976-.608 6.554 6.554 0 01-1.786-1.026 5.265 5.265 0 01-1.254-1.596c-.329-.633-.494-1.393-.494-2.28 0-1.14.241-2.103.722-2.888a6.058 6.058 0 011.862-1.976 7.96 7.96 0 012.508-1.102c.938-.253 1.862-.38 2.774-.38 1.419 0 2.8.228 4.142.684 1.368.431 2.521 1.089 3.458 1.976l-3.42 3.534zM205.852 320v-10.26a9.74 9.74 0 00-.114-1.52 3.223 3.223 0 00-.456-1.254 2.143 2.143 0 00-.836-.874c-.355-.228-.811-.342-1.368-.342-1.089 0-1.925.393-2.508 1.178-.583.76-.874 1.71-.874 2.85V320h-6.232v-28.728h6.232v12.198h.076c.431-.76 1.115-1.431 2.052-2.014.937-.608 2.065-.912 3.382-.912 1.292 0 2.369.228 3.23.684.887.456 1.596 1.051 2.128 1.786a6.39 6.39 0 011.178 2.47c.253.937.38 1.875.38 2.812V320h-6.27zm54.195-13.566c0 2.128-.367 4.079-1.102 5.852-.734 1.748-1.76 3.255-3.078 4.522-1.292 1.241-2.837 2.204-4.636 2.888-1.798.684-3.749 1.026-5.852 1.026-2.102 0-4.053-.342-5.852-1.026-1.773-.684-3.318-1.647-4.636-2.888-1.292-1.267-2.305-2.774-3.04-4.522-.734-1.773-1.102-3.724-1.102-5.852 0-2.153.368-4.091 1.102-5.814.735-1.748 1.748-3.23 3.04-4.446 1.318-1.216 2.863-2.153 4.636-2.812 1.799-.659 3.75-.988 5.852-.988 2.103 0 4.054.329 5.852.988 1.799.659 3.344 1.596 4.636 2.812 1.318 1.216 2.344 2.698 3.078 4.446.735 1.723 1.102 3.661 1.102 5.814zm-6.954 0c0-1.165-.19-2.255-.57-3.268-.38-1.013-.912-1.875-1.596-2.584a6.697 6.697 0 00-2.432-1.71c-.937-.431-1.976-.646-3.116-.646-1.14 0-2.178.215-3.116.646a7.17 7.17 0 00-2.432 1.71c-.684.709-1.216 1.571-1.596 2.584a9.841 9.841 0 00-.532 3.268c0 1.216.19 2.343.57 3.382.38 1.013.9 1.887 1.558 2.622a7.653 7.653 0 002.432 1.748c.938.405 1.976.608 3.116.608 1.14 0 2.179-.203 3.116-.608a7.642 7.642 0 002.432-1.748 7.843 7.843 0 001.596-2.622c.38-1.039.57-2.166.57-3.382zM279.069 320v-10.336c0-.532-.05-1.039-.152-1.52a3.655 3.655 0 00-.418-1.254 2.076 2.076 0 00-.874-.874c-.354-.228-.81-.342-1.368-.342-.557 0-1.051.114-1.482.342a2.838 2.838 0 00-1.026.874c-.278.38-.494.823-.646 1.33-.126.481-.19.988-.19 1.52V320h-6.27v-18.924h6.042v2.622h.076c.228-.405.52-.798.874-1.178.38-.405.811-.747 1.292-1.026a8.522 8.522 0 011.634-.684 6.378 6.378 0 011.862-.266c1.267 0 2.344.228 3.23.684.887.456 1.596 1.051 2.128 1.786.558.709.95 1.533 1.178 2.47.254.937.38 1.875.38 2.812V320h-6.27zm13.727 0v-28.728h6.308V320h-6.308zm24.58 2.85c-.38.988-.811 1.862-1.292 2.622a7.072 7.072 0 01-1.672 1.976c-.633.557-1.393.975-2.28 1.254-.861.279-1.887.418-3.078.418-.583 0-1.191-.038-1.824-.114a11.171 11.171 0 01-1.596-.304l.684-5.244a5.7 5.7 0 00.988.228c.38.076.722.114 1.026.114.963 0 1.659-.228 2.09-.684.431-.431.798-1.051 1.102-1.862l.608-1.558-7.904-18.62h6.916l4.218 12.16h.114l3.762-12.16h6.612l-8.474 21.774zm14.682-11.856v-17.898h6.384v17.898h-6.384zm6.916 5.776c0 .507-.101.988-.304 1.444a3.197 3.197 0 01-.798 1.14 3.674 3.674 0 01-1.178.722 3.51 3.51 0 01-1.444.304c-.506 0-.988-.089-1.444-.266a3.473 3.473 0 01-1.14-.76 4.022 4.022 0 01-.798-1.14 3.27 3.27 0 01-.304-1.406c0-.481.089-.937.266-1.368.203-.456.469-.849.798-1.178.33-.329.722-.583 1.178-.76a3.513 3.513 0 011.444-.304c.507 0 .988.101 1.444.304.456.177.849.431 1.178.76.355.304.621.684.798 1.14.203.431.304.887.304 1.368zM67.22 365.192c-1.696 0-3.224-.368-4.584-1.104a8.424 8.424 0 01-3.216-3.096c-.768-1.312-1.152-2.776-1.152-4.392 0-1.616.384-3.08 1.152-4.392a8.249 8.249 0 013.216-3.072c1.36-.752 2.888-1.128 4.584-1.128 1.68 0 3.2.376 4.56 1.128a8.08 8.08 0 013.192 3.072c.768 1.296 1.152 2.76 1.152 4.392 0 1.632-.384 3.104-1.152 4.416-.768 1.296-1.832 2.32-3.192 3.072-1.36.736-2.88 1.104-4.56 1.104zm0-2.136c1.232 0 2.336-.28 3.312-.84a6.077 6.077 0 002.328-2.304c.576-.992.864-2.096.864-3.312 0-1.216-.288-2.312-.864-3.288a6.028 6.028 0 00-2.328-2.328c-.976-.56-2.08-.84-3.312-.84-1.232 0-2.352.28-3.36.84a6.2 6.2 0 00-2.352 2.328c-.56.976-.84 2.072-.84 3.288 0 1.216.28 2.32.84 3.312a6.253 6.253 0 002.352 2.304c1.008.56 2.128.84 3.36.84zm20.56-10.344c1.184 0 2.24.264 3.168.792a5.516 5.516 0 012.16 2.208c.528.928.792 1.992.792 3.192 0 1.232-.28 2.328-.84 3.288-.544.944-1.32 1.68-2.328 2.208-.992.528-2.128.792-3.408.792-2.16 0-3.832-.736-5.016-2.208-1.168-1.488-1.752-3.576-1.752-6.264 0-2.608.536-4.648 1.608-6.12 1.072-1.488 2.712-2.472 4.92-2.952l5.808-1.296.336 2.112-5.352 1.152c-1.664.368-2.904.992-3.72 1.872-.816.88-1.28 2.144-1.392 3.792a5.598 5.598 0 012.112-1.896c.864-.448 1.832-.672 2.904-.672zm-.408 10.56c.816 0 1.536-.184 2.16-.552a3.862 3.862 0 001.488-1.512c.352-.656.528-1.4.528-2.232 0-1.264-.384-2.28-1.152-3.048-.768-.768-1.776-1.152-3.024-1.152s-2.264.384-3.048 1.152c-.768.768-1.152 1.784-1.152 3.048 0 .832.176 1.576.528 2.232.368.64.872 1.144 1.512 1.512.64.368 1.36.552 2.16.552zm29.619-10.992V365h-18.12v-12.72h2.304v10.704h5.616V352.28h2.304v10.704h5.592V352.28h2.304zm1.896 10.704v4.728h-2.16V365h-2.136v-2.016h4.296zm15.849-10.704V365h-2.208v-1.872a4.633 4.633 0 01-1.824 1.488 5.758 5.758 0 01-2.472.528c-1.696 0-3.032-.464-4.008-1.392-.976-.944-1.464-2.328-1.464-4.152v-7.32h2.304v7.056c0 1.232.296 2.168.888 2.808.592.624 1.44.936 2.544.936 1.216 0 2.176-.368 2.88-1.104.704-.736 1.056-1.776 1.056-3.12v-6.576h2.304zm17.758 0V365h-2.208v-1.872a4.633 4.633 0 01-1.824 1.488 5.758 5.758 0 01-2.472.528c-1.696 0-3.032-.464-4.008-1.392-.976-.944-1.464-2.328-1.464-4.152v-7.32h2.304v7.056c0 1.232.296 2.168.888 2.808.592.624 1.44.936 2.544.936 1.216 0 2.176-.368 2.88-1.104.704-.736 1.056-1.776 1.056-3.12v-6.576h2.304zm-6-1.656c-1.184 0-2.104-.28-2.76-.84-.656-.576-.992-1.4-1.008-2.472h1.56c.016.592.216 1.072.6 1.44.4.352.928.528 1.584.528s1.184-.176 1.584-.528c.4-.368.608-.848.624-1.44h1.608c-.016 1.072-.36 1.896-1.032 2.472-.672.56-1.592.84-2.76.84zm30.492 1.656V365h-2.064v-4.032h-3.96L168.178 365h-2.472l3.096-4.344c-.96-.288-1.696-.76-2.208-1.416-.512-.672-.768-1.504-.768-2.496 0-1.456.496-2.56 1.488-3.312.992-.768 2.36-1.152 4.104-1.152h5.568zm-8.808 4.536c0 .848.264 1.48.792 1.896.544.4 1.352.6 2.424.6h3.528v-5.016h-3.432c-2.208 0-3.312.84-3.312 2.52zm21.66 1.56c.848.224 1.504.584 1.968 1.08.464.496.696 1.112.696 1.848 0 .752-.256 1.424-.768 2.016-.512.576-1.224 1.032-2.136 1.368-.896.32-1.904.48-3.024.48-.944 0-1.872-.12-2.784-.36a8.645 8.645 0 01-2.4-1.08l.696-1.752a8.005 8.005 0 002.088.912 9.228 9.228 0 002.376.312c1.088 0 1.952-.184 2.592-.552.656-.384.984-.896.984-1.536 0-.592-.264-1.048-.792-1.368-.512-.32-1.24-.48-2.184-.48h-2.328v-1.656h2.16c.864 0 1.544-.152 2.04-.456.496-.304.744-.72.744-1.248 0-.576-.296-1.024-.888-1.344-.576-.32-1.36-.48-2.352-.48-1.264 0-2.6.328-4.008.984l-.624-1.776a10.67 10.67 0 014.872-1.176c1.024 0 1.944.144 2.76.432.816.288 1.456.696 1.92 1.224.464.528.696 1.128.696 1.8 0 .624-.208 1.184-.624 1.68-.416.496-.976.872-1.68 1.128zm13.127 6.912c-1.824 0-3.216-.432-4.176-1.296-.944-.88-1.416-2.136-1.416-3.768v-7.944h2.304v4.92c.368-.368.88-.68 1.536-.936.672-.256 1.44-.384 2.304-.384 1.552 0 2.76.4 3.624 1.2.88.784 1.32 1.888 1.32 3.312 0 1.504-.496 2.696-1.488 3.576-.992.88-2.328 1.32-4.008 1.32zm7.344-13.008h2.304V365h-2.304v-12.72zm-7.32 11.256c.992 0 1.76-.288 2.304-.864.56-.592.84-1.344.84-2.256 0-.848-.28-1.536-.84-2.064-.56-.528-1.36-.792-2.4-.792-.752 0-1.408.152-1.968.456-.544.304-.96.728-1.248 1.272v1.128c0 .976.28 1.744.84 2.304.576.544 1.4.816 2.472.816zm20.703-3.912h-2.64V365h-2.304v-12.72h2.304v5.376h2.688l4.128-5.376h2.472l-4.824 6.12 5.16 6.6h-2.712l-4.272-5.376zm35.117-7.464c1.6 0 2.864.464 3.792 1.392.944.928 1.416 2.304 1.416 4.128V365h-2.304v-7.056c0-1.232-.288-2.16-.864-2.784-.56-.624-1.368-.936-2.424-.936-1.168 0-2.096.368-2.784 1.104-.688.72-1.032 1.76-1.032 3.12V365h-2.304v-7.056c0-1.232-.288-2.16-.864-2.784-.56-.624-1.368-.936-2.424-.936-1.168 0-2.096.368-2.784 1.104-.688.72-1.032 1.76-1.032 3.12V365h-2.304v-12.72h2.208v1.896a4.376 4.376 0 011.824-1.488c.752-.352 1.608-.528 2.568-.528.992 0 1.872.2 2.64.6.768.4 1.36.984 1.776 1.752.48-.736 1.144-1.312 1.992-1.728.864-.416 1.832-.624 2.904-.624zm16.435 12.984c-1.264 0-2.4-.28-3.408-.84A6.204 6.204 0 01269.46 362c-.56-.992-.84-2.112-.84-3.36 0-1.248.28-2.36.84-3.336a5.984 5.984 0 012.376-2.304c1.008-.56 2.144-.84 3.408-.84 1.264 0 2.392.28 3.384.84a5.822 5.822 0 012.352 2.304c.576.976.864 2.088.864 3.336 0 1.248-.288 2.368-.864 3.36a6.031 6.031 0 01-2.352 2.304c-.992.56-2.12.84-3.384.84zm0-2.016c.816 0 1.544-.184 2.184-.552a4.061 4.061 0 001.536-1.584c.368-.688.552-1.472.552-2.352 0-.88-.184-1.656-.552-2.328a3.858 3.858 0 00-1.536-1.584c-.64-.368-1.368-.552-2.184-.552-.816 0-1.552.184-2.208.552-.64.368-1.152.896-1.536 1.584-.368.672-.552 1.448-.552 2.328 0 .88.184 1.664.552 2.352.384.672.896 1.2 1.536 1.584.656.368 1.392.552 2.208.552zm22.433-10.848V365h-2.304v-10.704h-5.472l-.144 2.832c-.08 1.712-.232 3.144-.456 4.296-.224 1.136-.592 2.048-1.104 2.736-.512.688-1.224 1.032-2.136 1.032-.416 0-.888-.072-1.416-.216l.144-1.944c.208.048.4.072.576.072.64 0 1.12-.28 1.44-.84.32-.56.528-1.224.624-1.992.096-.768.184-1.864.264-3.288l.216-4.704h9.768zm11.439 13.008c-1.808 0-3.2-.44-4.176-1.32-.96-.88-1.44-2.128-1.44-3.744v-7.944h2.304v4.92c.416-.416.976-.736 1.68-.96.72-.24 1.496-.36 2.328-.36 1.584 0 2.816.4 3.696 1.2.88.8 1.32 1.904 1.32 3.312 0 1.52-.504 2.72-1.512 3.6-1.008.864-2.408 1.296-4.2 1.296zm.024-1.752c1.04 0 1.856-.28 2.448-.84.592-.56.888-1.312.888-2.256 0-.896-.288-1.6-.864-2.112-.576-.512-1.384-.768-2.424-.768-.768 0-1.448.152-2.04.456a3.135 3.135 0 00-1.344 1.272v1.128c0 .976.296 1.744.888 2.304.592.544 1.408.816 2.448.816zm15.335-3.912h-2.64V365h-2.304v-12.72h2.304v5.376h2.688l4.128-5.376h2.472l-4.824 6.12 5.16 6.6h-2.712l-4.272-5.376zm16.106 5.52c-1.264 0-2.4-.28-3.408-.84a6.204 6.204 0 01-2.376-2.304c-.56-.992-.84-2.112-.84-3.36 0-1.248.28-2.36.84-3.336a5.984 5.984 0 012.376-2.304c1.008-.56 2.144-.84 3.408-.84 1.264 0 2.392.28 3.384.84a5.822 5.822 0 012.352 2.304c.576.976.864 2.088.864 3.336 0 1.248-.288 2.368-.864 3.36a6.031 6.031 0 01-2.352 2.304c-.992.56-2.12.84-3.384.84zm0-2.016c.816 0 1.544-.184 2.184-.552a4.061 4.061 0 001.536-1.584c.368-.688.552-1.472.552-2.352 0-.88-.184-1.656-.552-2.328a3.858 3.858 0 00-1.536-1.584c-.64-.368-1.368-.552-2.184-.552-.816 0-1.552.184-2.208.552-.64.368-1.152.896-1.536 1.584-.368.672-.552 1.448-.552 2.328 0 .88.184 1.664.552 2.352.384.672.896 1.2 1.536 1.584.656.368 1.392.552 2.208.552zM129.682 381.28V394h-2.208v-2.016a4.99 4.99 0 01-1.944 1.608c-.784.368-1.648.552-2.592.552-1.232 0-2.336-.272-3.312-.816a5.953 5.953 0 01-2.304-2.28c-.544-.992-.816-2.128-.816-3.408 0-1.28.272-2.408.816-3.384a5.953 5.953 0 012.304-2.28c.976-.544 2.08-.816 3.312-.816.912 0 1.752.176 2.52.528.768.336 1.408.84 1.92 1.512v-1.92h2.304zm-6.552 10.848c.8 0 1.528-.184 2.184-.552a4.061 4.061 0 001.536-1.584c.368-.688.552-1.472.552-2.352 0-.88-.184-1.656-.552-2.328a3.858 3.858 0 00-1.536-1.584 4.387 4.387 0 00-2.184-.552c-.816 0-1.552.184-2.208.552-.64.368-1.152.896-1.536 1.584-.368.672-.552 1.448-.552 2.328 0 .88.184 1.664.552 2.352.384.672.896 1.2 1.536 1.584.656.368 1.392.552 2.208.552zm12.64-10.848h2.304v5.4h7.248v-5.4h2.304V394h-2.304v-5.328h-7.248V394h-2.304v-12.72zm27.376 2.016h-7.056V394h-2.304v-12.72h9.36v2.016zm14.138-2.016V394h-2.304v-10.704h-5.472l-.144 2.832c-.08 1.712-.232 3.144-.456 4.296-.224 1.136-.592 2.048-1.104 2.736-.512.688-1.224 1.032-2.136 1.032-.416 0-.888-.072-1.416-.216l.144-1.944c.208.048.4.072.576.072.64 0 1.12-.28 1.44-.84.32-.56.528-1.224.624-1.992.096-.768.184-1.864.264-3.288l.216-4.704h9.768zm17.727 0V394h-2.208v-1.872a4.633 4.633 0 01-1.824 1.488 5.758 5.758 0 01-2.472.528c-1.696 0-3.032-.464-4.008-1.392-.976-.944-1.464-2.328-1.464-4.152v-7.32h2.304v7.056c0 1.232.296 2.168.888 2.808.592.624 1.44.936 2.544.936 1.216 0 2.176-.368 2.88-1.104.704-.736 1.056-1.776 1.056-3.12v-6.576h2.304zm17.758 0V394h-2.208v-1.872a4.633 4.633 0 01-1.824 1.488 5.758 5.758 0 01-2.472.528c-1.696 0-3.032-.464-4.008-1.392-.976-.944-1.464-2.328-1.464-4.152v-7.32h2.304v7.056c0 1.232.296 2.168.888 2.808.592.624 1.44.936 2.544.936 1.216 0 2.176-.368 2.88-1.104.704-.736 1.056-1.776 1.056-3.12v-6.576h2.304zm-6-1.656c-1.184 0-2.104-.28-2.76-.84-.656-.576-.992-1.4-1.008-2.472h1.56c.016.592.216 1.072.6 1.44.4.352.928.528 1.584.528s1.184-.176 1.584-.528c.4-.368.608-.848.624-1.44h1.608c-.016 1.072-.36 1.896-1.032 2.472-.672.56-1.592.84-2.76.84zm17.71 14.52c-1.296 0-2.456-.28-3.48-.84a6.204 6.204 0 01-2.376-2.304c-.576-.992-.864-2.112-.864-3.36 0-1.248.288-2.36.864-3.336a5.984 5.984 0 012.376-2.304c1.024-.56 2.184-.84 3.48-.84 1.152 0 2.176.232 3.072.696a4.942 4.942 0 012.112 2.016L227.911 385c-.4-.608-.896-1.064-1.488-1.368a4.244 4.244 0 00-1.968-.456c-.832 0-1.584.184-2.256.552a4.016 4.016 0 00-1.56 1.584c-.368.672-.552 1.448-.552 2.328 0 .896.184 1.688.552 2.376a4.06 4.06 0 001.56 1.56c.672.368 1.424.552 2.256.552.72 0 1.376-.152 1.968-.456.592-.304 1.088-.76 1.488-1.368l1.752 1.104c-.496.88-1.2 1.56-2.112 2.04-.896.464-1.92.696-3.072.696zm14.791-5.52h-2.64V394h-2.304v-12.72h2.304v5.376h2.688l4.128-5.376h2.472l-4.824 6.12 5.16 6.6h-2.712l-4.272-5.376zm22.438-7.344V394H259.5v-1.872a4.633 4.633 0 01-1.824 1.488 5.758 5.758 0 01-2.472.528c-1.696 0-3.032-.464-4.008-1.392-.976-.944-1.464-2.328-1.464-4.152v-7.32h2.304v7.056c0 1.232.296 2.168.888 2.808.592.624 1.44.936 2.544.936 1.216 0 2.176-.368 2.88-1.104.704-.736 1.056-1.776 1.056-3.12v-6.576h2.304zm17.758 0V394h-2.208v-1.872a4.633 4.633 0 01-1.824 1.488 5.758 5.758 0 01-2.472.528c-1.696 0-3.032-.464-4.008-1.392-.976-.944-1.464-2.328-1.464-4.152v-7.32h2.304v7.056c0 1.232.296 2.168.888 2.808.592.624 1.44.936 2.544.936 1.216 0 2.176-.368 2.88-1.104.704-.736 1.056-1.776 1.056-3.12v-6.576h2.304zm-6-1.656c-1.184 0-2.104-.28-2.76-.84-.656-.576-.992-1.4-1.008-2.472h1.56c.016.592.216 1.072.6 1.44.4.352.928.528 1.584.528s1.184-.176 1.584-.528c.4-.368.608-.848.624-1.44h1.608c-.016 1.072-.36 1.896-1.032 2.472-.672.56-1.592.84-2.76.84zm11.806-2.424h2.712l-.456 11.496h-1.824l-.432-11.496zm1.368 16.944c-.448 0-.824-.144-1.128-.432a1.504 1.504 0 01-.456-1.104c0-.432.152-.792.456-1.08.304-.304.68-.456 1.128-.456.448 0 .816.152 1.104.456.288.288.432.648.432 1.08 0 .432-.152.8-.456 1.104a1.465 1.465 0 01-1.08.432z" fill="#fff"/><g clip-path="url(#clip0)"><path d="M342.959 93.416H222.041c-23.182 0-42.041 18.859-42.041 42.041v67.644c0 23.182 18.859 42.041 42.041 42.041h6.239l14.622 18.551a6.009 6.009 0 009.434 0l14.622-18.551h76.001c23.182 0 42.041-18.859 42.041-42.041v-67.644c0-23.182-18.859-42.041-42.041-42.041z" fill="#6787F5"/><path d="M342.959 93.416H282.5v151.726h60.459c23.182 0 42.041-18.859 42.041-42.041v-67.644c0-23.182-18.859-42.041-42.041-42.041z" fill="#38478A"/><path d="M259.98 253.994l6.978-8.852-6.978 8.852zM385 142.766h-50.498l37.59-37.59c-7.562-7.278-17.833-11.76-29.133-11.76h-10.068l-23.868 23.869V93.416h-53.044v23.869L232.11 93.416h-10.069c-11.3 0-21.571 4.483-29.133 11.76l37.59 37.59H180v53.044h50.498l-36.179 36.177-1.403 1.403c7.562 7.274 17.83 11.752 29.125 11.752h6.239l1.695 2.151 25.359-25.361-.411 23.21h54.098v-23.786l23.708 23.786h10.23c11.247 0 21.476-4.439 29.027-11.657l-1.414-1.42-36.135-36.255H385v-53.044z" fill="#fff"/><path d="M385 142.766h-50.498l37.59-37.59c-7.562-7.278-17.833-11.76-29.133-11.76h-10.068l-23.868 23.869V93.416H282.5v151.726h26.521v-23.786l23.708 23.786h10.23c11.247 0 21.476-4.439 29.027-11.657l-1.414-1.42-36.135-36.255H385v-53.044z" fill="#C7D3ED"/><path d="M297.009 154.777V93.416h-29.018v61.361H180v29.021h87.991l-1.033 61.344h30.051v-61.344H385v-29.021h-87.991z" fill="#FF337A"/><path d="M297.009 154.777V93.416H282.5v151.726h14.509v-61.344H385v-29.021h-87.991z" fill="#D1005B"/><path d="M259.98 146.768v-8.493l-44.368-44.368c-4.55.7-8.862 2.135-12.811 4.176l48.686 48.685h8.493z" fill="#FF337A"/><path d="M362.199 98.083a41.704 41.704 0 00-12.811-4.176l-44.368 44.368v8.493h8.492l48.687-48.685z" fill="#D1005B"/><path d="M202.812 240.481a41.76 41.76 0 0012.815 4.173l44.354-44.356v-8.492h-8.493l-48.676 48.675z" fill="#FF337A"/><path d="M305.02 191.806v8.517l44.202 44.353a41.738 41.738 0 0012.842-4.131l-48.575-48.739h-8.469z" fill="#D1005B"/></g><path fill-rule="evenodd" clip-rule="evenodd" d="M343 16l16-16 16 16-16 16-16-16z" fill="#CD142B"/><circle cx="336.5" cy="637.5" r="11.5" stroke="#CD142B" stroke-opacity=".53" stroke-width="2"/><circle cx="210.026" cy="552.027" r="5.921" transform="rotate(-165 210.026 552.027)" stroke="#00237C" stroke-opacity=".54" stroke-width="2"/><defs><clipPath id="clip0"><path fill="#fff" transform="translate(180 77)" d="M0 0h205v205H0z"/></clipPath></defs></svg>