<svg width="410" height="441" fill="none" xmlns="http://www.w3.org/2000/svg"><circle cx="87.86" cy="15.86" r="11.5" transform="rotate(-15 87.86 15.86)" stroke="#CD142B" stroke-opacity=".53" stroke-width="2"/><circle cx="87.921" cy="90.921" r="5.921" transform="rotate(-180 87.92 90.92)" stroke="#00237C" stroke-opacity=".54" stroke-width="2"/><circle cx="212" cy="243.184" r="161" transform="rotate(-15 212 243.184)" fill="#CD142B"/><circle cx="209.55" cy="241.77" r="133" transform="rotate(-15 209.55 241.77)" stroke="#fff" stroke-width="6" stroke-dasharray="15 15"/><path d="M37.313 149.665c-1.073-10.208-9.77-16.834-19.531-15.808-9.761 1.026-17.971 10.641-15.817 19.524 2.153 8.882 9.002 18.289 19.53 15.808 10.529-2.481 16.891-9.315 15.818-19.524z" fill="#00237C"/><g clip-path="url(#clip0)"><path d="M217.669 153.996c-3.426.526-6.842 1.217-10.228 2.263-26.407 8.106-45.521 30.209-54.604 48.197l19.212 71.723 4.663-.699c14.06-2.1 24.665-.292 31.53 5.378 7.587 6.267 8.551 15.743 8.669 18.501.386 9.166 7.844 16.603 17.031 15.945a81.494 81.494 0 0015.206-2.56c3.47-.929 6.821-2.164 10.111-3.534 37.192-15.482 58.183-56.276 47.161-96.138-11.73-42.385-54.397-64.356-88.751-59.076z" fill="#FABE2C"/><path d="M306.421 213.073c-11.731-42.386-54.398-64.357-88.751-59.077l41.59 155.215c37.192-15.483 58.182-56.276 47.161-96.138z" fill="#FF9100"/><path d="M241.613 211.385c-7.72-4.466-10.375-14.377-5.926-22.098 4.469-7.726 14.375-10.38 22.099-5.921 7.723 4.459 10.379 14.37 5.919 22.093l.002.006c-4.461 7.713-14.372 10.369-22.094 5.92z" fill="#00C8C8"/><path d="M192.571 205.45c-4.422-7.637-1.903-17.573 5.92-22.083 7.703-4.446 17.626-1.807 22.088 5.918 4.468 7.728 1.829 17.618-5.918 22.089-7.764 4.483-17.632 1.807-22.09-5.924z" fill="#474F54"/><path d="M185.012 250.89c-8.921-.002-16.174-7.258-16.17-16.17-.005-8.891 7.185-16.174 16.165-16.168 8.942-.005 16.181 7.223 16.175 16.168.003 8.971-7.269 16.17-16.17 16.17z" fill="#FF435B"/><path d="M271.262 250.887c-8.919.002-16.176-7.208-16.17-16.17-.002-8.964 7.269-16.173 16.17-16.17 8.922.002 16.174 7.258 16.17 16.17.005 8.942-7.246 16.178-16.17 16.17z" fill="#99341F"/><path d="M136.638 163.992c-12.91 3.459-2.629 52.671 8.191 93.049.486 1.815.955 3.474 1.432 5.197l12.422 2.252 4.557-1.221 7.376-1.976 6.815-7.407c-.45-1.731-.867-3.372-1.361-5.216-10.82-40.379-26.522-88.138-39.432-84.678z" fill="#B35324"/><path d="M177.429 253.886c-.45-1.731-.867-3.372-1.361-5.216-10.819-40.378-26.521-88.138-39.431-84.678l26.601 99.277 7.376-1.976 6.815-7.407z" fill="#99341F"/><path d="M161.844 258.063l-15.584 4.175c6.356 22.977 11.729 37.75 12.176 39.122l14.004-3.753 14.003-3.752c-.544-2.579-2.748-15.899-9.013-39.969l-15.586 4.177z" fill="#FFF7E6"/><path d="M177.43 253.886l-15.586 4.176 10.596 39.545 14.003-3.752c-.544-2.579-2.748-15.9-9.013-39.969z" fill="#FFCCB3"/><path d="M170.215 289.304c-11.486 3.078-18.324 14.921-15.246 26.408l2.79 10.414c1.538 5.741-2.137 12.106-7.878 13.644l2.791 10.414 21.174-5.674c3.67-.983 6.939-2.665 9.9-4.709 10.94-7.554 16.51-21.692 12.878-35.25-3.078-11.487-14.922-18.325-26.409-15.247z" fill="#474F54"/><path d="M196.623 304.551c-3.078-11.487-14.921-18.325-26.408-15.247l13.53 50.497c10.94-7.554 16.511-21.692 12.878-35.25z" fill="#32393F"/><path d="M253.898 289.204c8.627-2.312 13.747-11.179 11.435-19.807-2.312-8.627-11.179-13.746-19.806-11.435-8.627 2.312-13.747 11.18-11.435 19.807 2.311 8.627 11.179 13.746 19.806 11.435z" fill="#FFF7E6"/><path d="M265.333 269.398c-2.311-8.627-11.179-13.747-19.806-11.435l8.371 31.241c8.627-2.312 13.747-11.179 11.435-19.806z" fill="#FFE6CC"/></g><path fill-rule="evenodd" clip-rule="evenodd" d="M5.012 32.995l10.96-18.984 18.983 10.96-10.96 18.984-18.983-10.96z" fill="#FF9B21" fill-opacity=".68"/><defs><clipPath id="clip0"><path fill="#fff" transform="rotate(-15 707.487 -312.736)" d="M0 0h184v184H0z"/></clipPath></defs></svg>