<svg width="321" height="456" fill="none" xmlns="http://www.w3.org/2000/svg"><circle cx="254.5" cy="79.5" r="11.5" stroke="#CD142B" stroke-opacity=".53" stroke-width="2"/><circle cx="209.026" cy="113.027" r="5.921" transform="rotate(-165 209.026 113.027)" stroke="#00237C" stroke-opacity=".54" stroke-width="2"/><path fill-rule="evenodd" clip-rule="evenodd" d="M270 440.5l15.5-15.5 15.5 15.5-15.5 15.5-15.5-15.5z" fill="#FF9B21" fill-opacity=".68"/><path fill-rule="evenodd" clip-rule="evenodd" d="M286 139.5l17.5-17.5 17.5 17.5-17.5 17.5-17.5-17.5z" fill="#2B44FF"/><circle cx="199.5" cy="280.5" r="121.5" fill="#00237C"/><circle cx="198" cy="279" r="100" stroke="#fff" stroke-width="6" stroke-dasharray="15 15"/><g clip-path="url(#clip0)"><path d="M271.011 264.809l-17.208 64.22a8.551 8.551 0 01-6.71 6.195l-57.661 10.643a8.557 8.557 0 01-7.114-1.907l-44.617-38.048a8.55 8.55 0 01-2.714-8.72l17.207-64.22a8.52 8.52 0 012.598-4.191 8.498 8.498 0 014.114-2.003l57.663-10.644a8.565 8.565 0 017.114 1.906l44.616 38.05a8.493 8.493 0 012.559 3.79 8.527 8.527 0 01.153 4.929z" fill="#E53935"/><path d="M270.858 259.881a8.482 8.482 0 00-2.559-3.791l-44.615-38.05a8.568 8.568 0 00-7.114-1.906l-.397.073 44.309 37.788a8.488 8.488 0 012.559 3.791 8.518 8.518 0 01.154 4.929l-17.208 64.22a8.55 8.55 0 01-6.71 6.194l-57.265 10.57.307.262a8.545 8.545 0 003.34 1.757 8.572 8.572 0 003.774.149l57.661-10.643a8.551 8.551 0 006.71-6.195l17.208-64.22a8.515 8.515 0 00-.154-4.928z" fill="#D32F2F"/><path d="M205.421 271.96l-19.763 73.757a8.512 8.512 0 01-3.34-1.757L137.7 305.912a8.554 8.554 0 01-2.714-8.72l17.208-64.22a8.52 8.52 0 012.598-4.191l50.629 43.179z" fill="#F44336"/><path d="M271.011 264.809l-17.209 64.222a8.557 8.557 0 01-6.612 6.176l-.096.018-57.662 10.642a8.556 8.556 0 01-3.774-.15l19.763-73.757 65.436-12.08a8.527 8.527 0 01.154 4.929z" fill="#D32F2F"/><path d="M270.857 259.88l-7.41 1.368c-.043.49-.123.981-.254 1.466l-17.208 64.222a8.557 8.557 0 01-6.612 6.176l-.096.019-52.861 9.755-.758 2.831a8.556 8.556 0 003.774.15l57.662-10.642.096-.018a8.557 8.557 0 006.612-6.176l17.209-64.222a8.527 8.527 0 00-.154-4.929z" fill="#C62828"/><path d="M238.131 304.827c1.492-3.566.57-7.347-2.058-8.446-2.628-1.1-5.967.899-7.459 4.464-1.491 3.566-.57 7.347 2.059 8.446 2.628 1.1 5.967-.899 7.458-4.464zm-53.567-19.555c2.775.582 5.668-2.014 6.462-5.798.794-3.784-.812-7.323-3.587-7.906-2.775-.582-5.669 2.014-6.462 5.798-.794 3.784.812 7.324 3.587 7.906zm-34.938 16.932c2.775.583 5.669-2.013 6.463-5.797.793-3.784-.813-7.324-3.588-7.906-2.775-.582-5.668 2.013-6.462 5.798-.794 3.784.812 7.323 3.587 7.905zm38.641-60.976c3.784.794 7.324-.812 7.906-3.587.582-2.775-2.014-5.668-5.798-6.462-3.784-.794-7.324.812-7.906 3.587-.582 2.775 2.014 5.668 5.798 6.462zm26.513-5.309c3.785.794 7.324-.812 7.906-3.587.583-2.775-2.013-5.668-5.797-6.462-3.784-.794-7.324.812-7.906 3.587-.582 2.775 2.013 5.668 5.797 6.462zm21.207 18.957c3.785.794 7.324-.812 7.906-3.588.583-2.775-2.013-5.668-5.797-6.462-3.784-.794-7.324.812-7.906 3.587-.582 2.776 2.013 5.669 5.797 6.463zm-25.742 4.63c3.784.793 7.324-.813 7.906-3.588.582-2.775-2.013-5.668-5.797-6.462-3.784-.794-7.324.812-7.906 3.587-.582 2.775 2.013 5.669 5.797 6.463z" fill="#F1F1F1"/></g><path d="M167.958 39.94c-.972-22.125-19.745-36.256-43.876-35.634-24.131.62-41.138 22.342-35.51 43.977 5.63 21.635 20.947 36.383 43.877 35.634 22.931-.749 36.481-21.853 35.509-43.977z" fill="#CD142B" fill-opacity=".53"/><path d="M37.313 261.665c-1.073-10.208-9.77-16.834-19.531-15.808-9.761 1.026-17.971 10.641-15.817 19.524 2.153 8.882 9.002 18.289 19.53 15.808 10.529-2.481 16.891-9.315 15.818-19.524z" fill="#00237C"/><defs><clipPath id="clip0"><path fill="#fff" transform="rotate(15 -677.746 690.508)" d="M0 0h134v134H0z"/></clipPath></defs></svg>