<svg width="354" height="550" fill="none" xmlns="http://www.w3.org/2000/svg"><circle cx="88.861" cy="94.86" r="11.5" transform="rotate(-165 88.86 94.86)" stroke="#CD142B" stroke-opacity=".53" stroke-width="2"/><circle cx="159.185" cy="12.185" r="8.5" transform="rotate(-165 159.185 12.185)" stroke="#00237C" stroke-opacity=".54" stroke-width="2"/><circle cx="177.148" cy="278.467" r="158.796" transform="rotate(-6.794 177.148 278.467)" fill="#BFE1FF"/><g clip-path="url(#clip0)"><path d="M194.945 426.772c81.905-9.758 140.392-84.065 130.635-165.97-9.758-81.906-84.066-140.393-165.971-130.635-81.905 9.757-140.392 84.065-130.635 165.97 9.758 81.905 84.065 140.392 165.971 130.635z" fill="#BFE1FF"/><path d="M325.579 260.802c-.01-.083-.019-.166-.03-.248l-82.417-64.871-124.396 10.831-51.295 116.609 48.993 38.563-1.744 2.062 80.096 63.043.158-.019c81.906-9.758 140.393-84.065 130.635-165.97z" fill="#87C7FF"/><path d="M189.797 383.562c-57.948 6.904-110.71-34.624-117.613-92.573-6.903-57.948 34.625-110.709 92.573-117.613 57.949-6.904 110.71 34.624 117.614 92.573 6.903 57.949-34.625 110.71-92.574 117.613zm-20.761-174.269c-38.144 4.544-65.479 39.273-60.935 77.417 4.544 38.144 39.274 65.479 77.418 60.935 38.143-4.544 65.479-39.273 60.935-77.417-4.545-38.144-39.274-65.479-77.418-60.935z" fill="#FF475A"/><path d="M164.758 173.376l-.17.023 4.279 35.917.17-.023c38.143-4.544 72.873 22.791 77.417 60.935 4.544 38.144-22.791 72.873-60.935 77.418l-.17.018 4.279 35.917.17-.018c57.948-6.904 99.477-59.665 92.573-117.614-6.904-57.948-59.665-99.476-117.613-92.573z" fill="#F03049"/><path d="M60.025 260.869l227.089-27.054 7.416 62.255-227.088 27.053-7.417-62.254z" fill="#4A7AFF"/><path d="M173.398 247.362l113.714-13.547 7.417 62.255-113.714 13.547-7.417-62.255z" fill="#0053BF"/><path d="M80.049 307.678l-3.78-31.72 9.607-1.145 2.782 23.35 12.032-1.433.997 8.37-21.638 2.578zm20.941-18.556c-1.162-9.749 5.607-17.308 15.404-18.475 9.796-1.167 18.151 4.59 19.313 14.339 1.161 9.749-5.608 17.308-15.404 18.475-9.797 1.167-18.152-4.59-19.313-14.339zm24.967-2.974c-.527-4.423-3.942-7.585-8.555-7.036-4.613.55-7.19 4.426-6.663 8.849.527 4.422 3.942 7.584 8.555 7.035 4.613-.55 7.19-4.425 6.663-8.848zm36.363 11.729l-13.613-14.681 1.915 16.074-9.607 1.145-3.779-31.721 9.892-1.178 12.824 13.713-1.791-15.028 9.607-1.144 3.779 31.721-9.227 1.099z" fill="#fff"/><path d="M187.077 262.757l-11.679 1.391 3.779 31.72 11.727-1.396c9.939-1.185 16.673-7.823 15.466-17.952-1.207-10.13-9.306-14.953-19.293-13.763zm2.782 23.35l-4.565.544-1.785-14.98 4.613-.55c5.136-.612 7.989 2.28 8.499 6.56.476 3.995-1.959 7.854-6.762 8.426zm18.228-9.744c-1.161-9.749 5.608-17.308 15.404-18.475 9.797-1.167 18.152 4.59 19.313 14.339 1.162 9.749-5.607 17.308-15.404 18.475-9.796 1.167-18.151-4.59-19.313-14.339zm24.968-2.974c-.527-4.423-3.942-7.585-8.555-7.035-4.613.549-7.19 4.425-6.663 8.848.526 4.422 3.942 7.585 8.555 7.035 4.613-.55 7.19-4.425 6.663-8.848zm36.363 11.729l-13.613-14.68 1.915 16.074-9.607 1.144-3.779-31.72 9.892-1.179 12.823 13.713-1.79-15.027 9.606-1.145 3.779 31.721-9.226 1.099z" fill="#E9EDF5"/></g><circle cx="176.682" cy="278.328" r="139.941" transform="rotate(-6.794 176.682 278.328)" stroke="#fff" stroke-width="5" stroke-dasharray="15 15"/><circle cx="185.5" cy="537.5" r="11.5" stroke="#CD142B" stroke-opacity=".53" stroke-width="2"/><circle cx="272.141" cy="462.141" r="6.831" transform="rotate(-165 272.141 462.141)" stroke="#00237C" stroke-opacity=".54" stroke-width="2"/><path fill-rule="evenodd" clip-rule="evenodd" d="M281 73l19-19 19 19-19 19-19-19z" fill="#CD142B"/><defs><clipPath id="clip0"><path fill="#fff" transform="rotate(-6.794 1250.954 -21.326)" d="M0 0h298.703v298.703H0z"/></clipPath></defs></svg>