<svg width="1440" height="356" fill="none" xmlns="http://www.w3.org/2000/svg"><mask id="a" maskUnits="userSpaceOnUse" x="0" y="0" width="1440" height="348"><path fill="#C4C4C4" d="M0 0h1440v348H0z"/></mask><g mask="url(#a)"><path d="M2082.09 625.537c-71.04-20.833-136.49-47.338-191.94-82.159-36.41-22.863-72.73-49.019-96.25-79.179-39.8-51.006-50.6-116.187-64.52-177.216-15.34-67.295-29.85-135.99-63.91-196.325-18.38-32.563-46.87-59.521-94.36-73.45-44.59-13.094-95.2-16.345-147.71-12.326-110.52 8.471-223.36 40.525-331.53 70.365-58.11 16.035-116.115 32.491-174.52 47.42-52.566 13.436-108.395 28.58-161.777 33.977-148.665 15.008-297.369-10.163-430.67-32.228-47.014-7.785-94.463-15.334-141.181-23.511-75.286-13.168-148.087-30.677-223.153-44.52-64.884-11.975-133.935-19.846-206.534-10.549-15.675 2.006-32.5 4.624-47.056 9.67-20.423 7.074-49.956 20.361-48.767 38.599.056 1.046.252 2.066.586 3.046 5.714 16.786 34.728 25.573 54.38 32.417 12.45 4.238 25.374 7.938 38.715 11.082 137.104 33.308 287.948 52.035 437.385 67.006 152.727 15.218 309.402 26.248 467.821 24.628 88.227-.903 171.206-7.64 260.466-32.15 75.037-20.626 148.345-46.804 221.685-71.412 90.91-30.51 187.81-63.211 283.16-69.796 50.66-3.498 100.36 2.606 140.66 18.19 40.69 15.686 59.57 47.236 67.64 79.013 19.2 75.52-.79 161.99-1.38 242.798-.29 38.302 2.19 76.802 15.99 112.019 13.41 34.208 40.79 59.268 73.04 83.741 43.88 33.319 93.44 63.981 149.42 86.847 18.89 7.684 39.4 13.681 61.16 17.884 57.73 11.215 122.39 17.54 188.69 3.571 20.94-4.41 44.96-11.495 62.2-22.568 48.79-31.341-75.63-48.859-97.74-54.884z" fill="#00237C"/><path d="M1950.34 741.207c-81.62-21.251-159.45-47.419-223.19-85.524-38.45-22.992-78.5-50.424-96.57-84.233-31.02-57.998-18.55-133.19-11.68-201.02 7.42-73.15 25.67-155.848-2.97-219.938-14.14-31.716-41.02-53.21-88.25-63.71-41.61-9.162-88.21-10.12-135.43-2.787-91.16 13.949-180.21 50.137-265.14 83.057-89.09 34.493-180.905 72.004-276.036 90.142-67.442 12.865-137.033 13.083-202.806 13.791-99.134 1.062-197.146-2.134-294.139-6.884-61.93-3.021-124.066-6.314-185.528-10.493-122.192-8.306-242.692-21.102-364.181-31.415-89.72-7.62-185.145-16.507-280.305-4.656-13.208 1.649-27.65 4.141-39.932 9.25-25.96 10.808-9.027 30.827 1.33 38.24a45.049 45.049 0 004.918 2.919c29.435 15.732 70.094 22.866 107.356 28.716 17.378 2.744 35.495 5.066 53.364 7.238 169.771 20.65 345.746 32.037 522.045 39.638 162.921 7.027 328.426 11.849 495.247 4.921 82.646-3.436 159.444-9.581 241.317-35.924 66.943-21.541 131.05-49.458 195.19-75.945 80.27-33.145 166.28-68.724 254.1-78.842 47.32-5.471 95.44-1.424 134.1 11.707 42.96 14.583 61.45 45.093 67.87 77.636 15.09 76.539-15.73 165.618-30.94 248.696-7.54 41.13-7.02 62.164.18 102.543 9.89 36.91 30.74 75.113 53 95.909 37.46 35.013 80.61 68.563 136.87 89.191 19.72 7.106 40.37 13.197 61.82 18.235 68.55 16.336 146.95 25.876 226.56 17.855 20.08-2.032 46.65-6.164 63.56-17.07 52.46-33.841-99.9-55.856-121.74-61.24" fill="#CD142B"/></g></svg>