<svg width="29" height="28" viewBox="0 0 29 28" fill="none" xmlns="http://www.w3.org/2000/svg">
<mask id="mask0" mask-type="alpha" maskUnits="userSpaceOnUse" x="0" y="0" width="29" height="28">
<g clip-path="url(#clip0)">
<path d="M6.88027 17.4314C6.92443 18.6347 6.88027 19.8417 6.90971 21.045C6.90971 21.2768 6.77356 21.2179 6.6558 21.2179C6.53805 21.2179 6.39453 21.2805 6.39453 21.045C6.39453 19.4921 6.39453 17.9392 6.39453 16.3826C6.39453 16.2391 6.42397 16.1839 6.58588 16.1839C7.03115 16.1839 7.03115 16.1839 7.1857 16.5997L8.16822 19.3302C8.38165 18.7414 8.58036 18.2262 8.77172 17.6742C8.91155 17.2842 9.06243 16.8978 9.18754 16.5004C9.19257 16.4486 9.20852 16.3985 9.23435 16.3533C9.26018 16.3081 9.29529 16.269 9.33736 16.2384C9.37944 16.2077 9.42753 16.1864 9.47845 16.1758C9.52938 16.1651 9.58199 16.1654 9.6328 16.1765C9.87199 16.1765 9.94927 16.2244 9.94559 16.4857C9.94559 17.9907 9.94559 19.4921 9.94559 20.9972C9.94559 21.2216 9.85359 21.2253 9.688 21.2216C9.52241 21.2179 9.41937 21.2216 9.42305 21.0008C9.44145 19.93 9.42305 18.8555 9.42305 17.7846C9.45067 17.6301 9.45067 17.4719 9.42305 17.3173C9.42305 17.2584 9.38993 17.3394 9.36785 17.3173C9.08082 18.1011 8.79012 18.8849 8.51045 19.6724C8.45525 19.827 8.37797 19.8895 8.22342 19.8601C8.06887 19.8306 7.88855 19.9484 7.80024 19.6908C7.52057 18.8776 7.20778 18.0717 6.90971 17.2658C6.79196 17.2879 6.88027 17.3762 6.88027 17.4314Z" fill="white"/>
<path d="M10.9883 18.7118C10.9883 17.9391 10.9883 17.1663 10.9883 16.3935C10.9883 16.2316 11.0288 16.1801 11.1944 16.1838C11.7942 16.1838 12.3903 16.1838 12.9901 16.1838C13.2146 16.1838 13.1704 16.3052 13.1741 16.434C13.1778 16.5628 13.1999 16.6879 12.9828 16.6769C12.5706 16.6585 12.1548 16.6769 11.739 16.6769C11.5881 16.6769 11.5219 16.699 11.5255 16.8756C11.5255 17.3466 11.5255 17.8213 11.5255 18.296C11.5255 18.4248 11.5587 18.4653 11.6911 18.4653C12.0591 18.4653 12.4271 18.4653 12.7951 18.4653C13.0232 18.4653 12.968 18.5978 12.9717 18.7229C12.9754 18.848 12.9901 18.9584 12.7914 18.9473C12.4234 18.9473 12.0554 18.9473 11.6875 18.9473C11.5513 18.9473 11.5219 18.9878 11.5255 19.1166C11.5255 19.606 11.5255 20.0955 11.5255 20.5886C11.5255 20.7542 11.5807 20.7799 11.7243 20.7762C12.1474 20.7762 12.5743 20.7762 12.9975 20.7762C13.2293 20.7762 13.1704 20.9124 13.1741 21.0301C13.1778 21.1479 13.2109 21.2693 12.9975 21.262C12.3903 21.2105 11.8015 21.2105 11.176 21.2105C11.0214 21.2105 10.9809 21.17 10.9846 21.0154C10.992 20.2537 10.9883 19.4809 10.9883 18.7118Z" fill="white"/>
<path d="M2.21222 16.7582C1.82757 16.6545 1.42678 16.6245 1.03099 16.6698C0.959772 16.6719 0.889764 16.6887 0.825451 16.7194C0.761137 16.75 0.703937 16.7938 0.657514 16.8478C0.611092 16.9019 0.576471 16.965 0.555871 17.0332C0.535271 17.1014 0.529146 17.1732 0.537888 17.2439C0.537888 18.2252 0.537888 19.2065 0.537888 20.1878C0.530805 20.2547 0.537292 20.3224 0.556961 20.3867C0.57663 20.4511 0.609078 20.5108 0.652363 20.5623C0.695649 20.6139 0.748882 20.6561 0.80888 20.6866C0.868878 20.7171 0.934408 20.7352 1.00155 20.7398C1.33767 20.7944 1.68114 20.7844 2.01351 20.7103C2.08711 20.7103 2.2159 20.5999 2.22326 20.7545C2.23062 20.909 2.34102 21.1225 2.13126 21.1666C1.59695 21.3366 1.01986 21.3131 0.501089 21.1004C0.352687 21.0311 0.228279 20.9192 0.143732 20.779C0.059186 20.6387 0.0183344 20.4765 0.0263883 20.3129C0.0263883 19.2457 0.0263883 18.1749 0.0263883 17.1041C0.0274082 16.8761 0.113703 16.6568 0.268294 16.4893C0.422885 16.3217 0.634576 16.2181 0.861715 16.1988C1.27217 16.1283 1.69261 16.1408 2.09815 16.2356C2.19382 16.2577 2.24166 16.2982 2.2343 16.4049C2.22694 16.5116 2.21222 16.6183 2.21222 16.7582Z" fill="white"/>
<path d="M25.0483 16.7545C24.664 16.656 24.2652 16.6273 23.8708 16.6698C23.7996 16.6714 23.7295 16.6878 23.6651 16.718C23.6006 16.7482 23.5431 16.7916 23.4964 16.8453C23.4496 16.899 23.4146 16.9618 23.3935 17.0298C23.3724 17.0978 23.3658 17.1695 23.374 17.2402C23.374 18.2215 23.374 19.2028 23.374 20.1841C23.3669 20.2507 23.3733 20.3181 23.3927 20.3822C23.4122 20.4464 23.4443 20.5059 23.4872 20.5574C23.5301 20.6089 23.5829 20.6512 23.6425 20.6819C23.702 20.7126 23.7672 20.731 23.834 20.7361C24.1701 20.7908 24.5136 20.7808 24.8459 20.7066C24.9195 20.7066 25.0483 20.5962 25.0557 20.7471C25.063 20.898 25.1771 21.1151 24.9674 21.1593C24.4255 21.3348 23.8383 21.3073 23.3151 21.082C23.1688 21.0162 23.0454 20.9081 22.9609 20.7718C22.8763 20.6354 22.8344 20.4769 22.8404 20.3166C22.8404 19.2445 22.8404 18.1737 22.8404 17.1041C22.8405 16.8764 22.926 16.6571 23.08 16.4895C23.234 16.3219 23.4453 16.2182 23.6721 16.1988C24.0825 16.1283 24.503 16.1408 24.9085 16.2356C25.0042 16.254 25.052 16.2945 25.0446 16.4012C25.0373 16.5079 25.0483 16.6294 25.0483 16.7545Z" fill="white"/>
<path d="M28.7284 16.1877C28.4266 16.9053 28.1506 17.6045 27.8378 18.2889C27.7708 18.4126 27.7357 18.5511 27.7357 18.6918C27.7357 18.8326 27.7708 18.9711 27.8378 19.0948C28.1396 19.7167 28.4045 20.3607 28.6842 20.9973C28.7136 21.0635 28.7394 21.1334 28.7651 21.2033C28.2058 21.2549 28.2058 21.2549 27.9924 20.7691C27.7274 20.1546 27.4625 19.5401 27.1865 18.9292C27.1538 18.8635 27.1367 18.791 27.1367 18.7176C27.1367 18.6442 27.1538 18.5717 27.1865 18.506C27.4809 17.8216 27.7716 17.1371 28.0439 16.4453C28.1249 16.2392 28.2242 16.1509 28.4413 16.184C28.5368 16.1925 28.6327 16.1937 28.7284 16.1877V16.1877Z" fill="white"/>
<path d="M26.7334 18.7267C26.7334 19.4921 26.7334 20.2539 26.7334 21.0156C26.7334 21.2732 26.5936 21.218 26.4537 21.218C26.3139 21.218 26.1777 21.2622 26.1777 21.0082C26.1925 19.4725 26.1925 17.938 26.1777 16.4047C26.1777 16.1398 26.3212 16.195 26.4721 16.184C26.623 16.1729 26.7334 16.184 26.7297 16.4158C26.7224 17.1849 26.7334 17.9576 26.7334 18.7267Z" fill="white"/>
<path d="M24.099 23.6797C23.9187 23.6503 23.9997 23.8159 23.9849 23.8895C23.8281 24.6159 23.5333 25.3055 23.1165 25.9208C23.0834 25.803 23.065 25.7257 23.0429 25.6484C22.9162 25.1427 22.7425 24.6499 22.524 24.1765C22.4026 23.9263 22.2407 23.8637 22.0236 23.9484C21.8065 24.033 21.7844 24.0919 21.9426 24.2464C21.968 24.2699 21.9883 24.2983 22.0022 24.33C22.0161 24.3616 22.0233 24.3958 22.0233 24.4304C22.0233 24.465 22.0161 24.4992 22.0022 24.5309C21.9883 24.5625 21.968 24.591 21.9426 24.6144C21.6953 24.9783 21.4131 25.3173 21.0999 25.6264C20.8929 25.8295 20.6407 25.9808 20.364 26.068C20.2711 26.0999 20.1725 26.112 20.0746 26.1034C19.9768 26.0949 19.8818 26.0659 19.7958 26.0184C19.7098 25.9709 19.6347 25.9059 19.5754 25.8276C19.5161 25.7493 19.4738 25.6595 19.4514 25.5638C19.3804 25.2895 19.3914 25.0004 19.483 24.7323C19.5745 24.4641 19.7426 24.2287 19.9665 24.0551C20.3824 23.7607 20.7283 23.8968 20.8129 24.4231C21.0079 24.3421 21.2361 24.2759 21.203 24.0109C21.1699 23.746 20.938 23.7239 20.732 23.6797C20.6989 23.676 20.6656 23.676 20.6326 23.6797C20.2814 23.6764 19.9375 23.7802 19.6468 23.9775C19.3562 24.1748 19.1327 24.456 19.0061 24.7837C18.8449 25.179 18.5927 25.5307 18.2701 25.8104C18.0162 26.0238 17.8543 25.9428 17.8028 25.6153C17.7513 25.2878 17.7844 24.8499 17.7513 24.4709C17.7255 24.1728 17.7071 23.8416 17.3833 23.7349C17.0595 23.6282 16.8019 23.7864 16.5848 24.0072C16.2423 24.3921 15.9617 24.8278 15.7531 25.2989C15.6317 25.2989 15.6979 25.2105 15.7016 25.1553C15.7016 25.0229 15.7274 24.8904 15.7347 24.7579C15.7347 24.5261 15.7715 24.2943 15.7678 24.0624C15.7731 24.0288 15.7688 23.9943 15.7553 23.963C15.7418 23.9317 15.7197 23.9049 15.6916 23.8856C15.6635 23.8664 15.6305 23.8555 15.5964 23.8542C15.5624 23.8529 15.5287 23.8613 15.4992 23.8784C15.3851 23.9226 15.1312 23.8784 15.2563 24.1507C15.2772 24.1921 15.2862 24.2384 15.2823 24.2845C15.2784 24.3306 15.2617 24.3748 15.2343 24.412C14.8411 25.0023 14.3025 25.4814 13.6703 25.803C13.4633 25.9122 13.2306 25.963 12.9969 25.9502C12.885 25.9527 12.7754 25.9179 12.6855 25.8513C12.5955 25.7847 12.5303 25.69 12.5001 25.5822C12.4228 25.3357 12.4486 25.2952 12.7025 25.2768C13.1717 25.254 13.6171 25.0634 13.9573 24.7395C14.0649 24.662 14.1434 24.5507 14.1802 24.4234C14.217 24.2961 14.2101 24.1601 14.1605 24.0371C14.1109 23.9142 14.0215 23.8115 13.9066 23.7453C13.7918 23.6792 13.658 23.6535 13.5268 23.6724C13.2684 23.6687 13.0131 23.7297 12.7843 23.8499C12.5555 23.9701 12.3604 24.1456 12.2168 24.3605C11.8139 24.8083 11.3356 25.1819 10.8037 25.4645C10.8568 24.7718 10.9801 24.0862 11.1717 23.4185C10.984 23.4405 10.7448 23.4185 10.686 23.573C10.5792 23.8784 10.4063 23.7423 10.2297 23.7055C10.125 23.6791 10.0175 23.6655 9.90951 23.665C9.61306 23.6793 9.32631 23.7752 9.08087 23.942C8.83543 24.1089 8.64083 24.3403 8.51853 24.6107C8.30703 24.968 8.02236 25.2765 7.6832 25.516C7.536 25.6264 7.36673 25.7772 7.16434 25.6668C6.96195 25.5565 7.02083 25.3467 7.01715 25.1701C7.00146 24.6641 7.09954 24.1611 7.30417 23.6981C7.03554 23.6208 6.84419 23.8453 6.64548 23.8416C6.44677 23.838 6.21494 23.6871 5.97575 23.676C4.87179 23.6172 4.08798 25.1848 4.50381 26.068C4.53015 26.132 4.5696 26.1899 4.61963 26.2378C4.66966 26.2857 4.72916 26.3227 4.79431 26.3462C4.85946 26.3698 4.92882 26.3795 4.99793 26.3747C5.06704 26.3698 5.13438 26.3506 5.19562 26.3182C5.53042 26.164 5.8195 25.9257 6.03462 25.6264C6.20022 25.4166 6.34373 25.1848 6.52405 24.9272C6.50723 25.1501 6.50723 25.374 6.52405 25.5969C6.57924 26.0937 6.89203 26.2851 7.34097 26.1084C7.49117 26.0482 7.63042 25.9637 7.75312 25.8582C7.91871 25.7257 8.08062 25.5859 8.2499 25.4461C8.37869 26.0937 8.80555 26.2814 9.37593 25.9465C9.71246 25.7442 9.99919 25.4687 10.2149 25.1406C10.2481 25.0891 10.2591 25.0045 10.3474 24.9898C10.3474 25.1921 10.3106 25.3835 10.3069 25.5749C10.3042 25.6545 10.2784 25.7317 10.2327 25.797C10.187 25.8623 10.1233 25.913 10.0493 25.9428C9.63352 26.1673 9.2177 26.3955 8.82027 26.653C8.13214 27.0983 8.1579 27.6098 8.87547 27.9888H9.47161C9.47161 27.952 9.51576 27.9447 9.54888 27.9373C9.84121 27.8643 10.1057 27.7073 10.3098 27.4855C10.5138 27.2638 10.6484 26.9872 10.697 26.6898C10.7375 26.4691 10.7559 26.2446 10.7816 26.0238C10.7816 25.9502 10.7816 25.8692 10.8442 25.8177L11.9481 25.0597V25.3577C11.9332 25.4969 11.9502 25.6376 11.9981 25.7692C12.0459 25.9007 12.1233 26.0195 12.2242 26.1165C12.3251 26.2135 12.4468 26.2861 12.5802 26.3287C12.7135 26.3713 12.8548 26.3828 12.9932 26.3623C13.5674 26.285 14.1021 26.0273 14.5204 25.6264C14.7858 25.3913 15.0319 25.1354 15.2563 24.861C15.2195 25.2952 15.1827 25.6889 15.157 26.0864C15.1509 26.1193 15.1523 26.1533 15.1611 26.1856C15.1699 26.218 15.1858 26.248 15.2077 26.2734C15.2295 26.2988 15.2568 26.319 15.2876 26.3325C15.3183 26.346 15.3516 26.3524 15.3851 26.3513C15.5507 26.3734 15.6317 26.3292 15.6206 26.1489C15.6268 26.0824 15.651 26.0188 15.6906 25.9649C15.958 25.4298 16.2694 24.9178 16.6216 24.4341C16.6943 24.343 16.777 24.2603 16.8681 24.1875C17.0484 24.0514 17.1735 24.0956 17.2361 24.3163C17.2704 24.5044 17.2828 24.6958 17.2729 24.8867C17.2628 25.235 17.2937 25.5833 17.3649 25.9244C17.3744 26.0106 17.4067 26.0927 17.4584 26.1623C17.5101 26.2319 17.5793 26.2866 17.6591 26.3206C17.7388 26.3547 17.8261 26.367 17.9122 26.3562C17.9982 26.3454 18.0798 26.312 18.1487 26.2593C18.2729 26.1914 18.3849 26.103 18.4799 25.998C18.6197 25.8435 18.7522 25.6889 18.8883 25.527C19.1128 26.5868 20.0217 26.7046 20.7504 26.263C21.0938 26.0438 21.4006 25.7718 21.6593 25.4571C21.8506 25.2216 22.0273 24.9787 22.2297 24.7211C22.4675 25.1935 22.6396 25.6961 22.7412 26.2151C22.7527 26.2637 22.7527 26.3143 22.7412 26.3628C22.7297 26.4114 22.707 26.4566 22.6749 26.4948C22.5132 26.7072 22.321 26.8944 22.1045 27.0505C21.8716 27.2296 21.5806 27.3162 21.2876 27.2933C21.1625 27.2933 21.0263 27.1866 21.0006 27.4111C20.9917 27.4519 20.9921 27.4942 21.0019 27.5349C21.0117 27.5755 21.0306 27.6133 21.0572 27.6456C21.0838 27.6778 21.1174 27.7036 21.1554 27.721C21.1933 27.7384 21.2348 27.7469 21.2766 27.746C21.4517 27.7559 21.6259 27.7136 21.777 27.6245C22.034 27.4942 22.2687 27.324 22.4725 27.1204C23.2719 26.306 23.9088 25.3469 24.3492 24.2943C24.396 24.197 24.4258 24.0924 24.4376 23.9852C24.4412 23.7644 24.2609 23.7092 24.099 23.6797ZM12.5075 24.8904C12.5447 24.6837 12.631 24.489 12.7591 24.3225C12.8871 24.156 13.0532 24.0227 13.2435 23.9336C13.3068 23.9032 13.3775 23.8915 13.4473 23.9C13.5171 23.9084 13.583 23.9367 13.6372 23.9815C13.687 24.039 13.7162 24.1115 13.7202 24.1874C13.7242 24.2634 13.7027 24.3385 13.6593 24.401C13.5564 24.5688 13.4156 24.7102 13.2481 24.8137C13.0807 24.9173 12.8913 24.9801 12.6952 24.9971C12.559 25.0155 12.4928 25.0302 12.5075 24.8904ZM6.43205 24.5592C6.21561 24.8915 5.9784 25.2099 5.72184 25.5123C5.68136 25.5528 5.64824 25.6006 5.60408 25.6374C5.45321 25.7625 5.33177 25.9502 5.09258 25.8656C4.94539 25.814 4.89019 25.6484 4.89019 25.3467C4.89238 25.0635 4.95776 24.7844 5.08154 24.5298C5.35385 23.9594 5.71816 23.8269 6.29221 24.0808C6.64916 24.2501 6.64916 24.2501 6.43205 24.5703V24.5592ZM10.0162 27.3559C9.93537 27.4974 9.81146 27.6094 9.66254 27.6756C9.51362 27.7418 9.34746 27.7587 9.18826 27.7239C9.11779 27.7195 9.05008 27.6949 8.9932 27.6531C8.93631 27.6113 8.89266 27.554 8.86744 27.488C8.84223 27.4221 8.83652 27.3503 8.85099 27.2812C8.86546 27.2121 8.89951 27.1486 8.94907 27.0983C9.10117 26.9006 9.29137 26.7355 9.50841 26.6126C9.74024 26.4691 9.97575 26.3366 10.2628 26.1673C10.2839 26.5816 10.1991 26.9945 10.0162 27.3669V27.3559ZM10.4394 24.3237C10.1685 24.8222 9.78085 25.2477 9.30969 25.5638C9.00795 25.7441 8.80187 25.619 8.79819 25.2915C8.80319 25.0553 8.85902 24.8229 8.96189 24.6101C9.06476 24.3974 9.21225 24.2094 9.39433 24.0588C9.54273 23.94 9.73134 23.8832 9.92067 23.9003C10.11 23.9175 10.2853 24.0072 10.41 24.1507C10.4652 24.2207 10.4836 24.2611 10.4394 24.3347V24.3237Z" fill="white"/>
<path d="M17.9204 19.5694C17.9316 19.3802 17.8824 19.1924 17.7798 19.033C17.6773 18.8736 17.5268 18.7508 17.35 18.6825C17.5157 18.6065 17.6546 18.4822 17.7485 18.326C17.8424 18.1697 17.8869 17.9887 17.8763 17.8067C17.8763 17.5823 17.8763 17.3578 17.8763 17.1333C17.8687 16.9067 17.7798 16.6904 17.6257 16.5242C17.4715 16.3579 17.2626 16.2528 17.0372 16.2281C16.5334 16.1797 16.0268 16.1662 15.5211 16.1876C15.3997 16.1876 15.3887 16.2428 15.3887 16.3385V21.0745C15.3887 21.1775 15.4108 21.2216 15.5248 21.2216C15.9958 21.2216 16.4705 21.2216 16.9453 21.2216C17.0791 21.2213 17.2114 21.1938 17.3343 21.1409C17.4572 21.088 17.5681 21.0107 17.6603 20.9137C17.7524 20.8167 17.824 20.702 17.8706 20.5766C17.9172 20.4512 17.9379 20.3176 17.9315 20.1839C17.9241 19.9705 17.9204 19.7718 17.9204 19.5694ZM16.0805 16.6586C16.305 16.6586 16.5294 16.6586 16.7539 16.6586C16.8262 16.6552 16.8984 16.6662 16.9663 16.6912C17.0342 16.7161 17.0964 16.7544 17.1492 16.8038C17.2021 16.8532 17.2444 16.9127 17.2739 16.9788C17.3033 17.0449 17.3192 17.1162 17.3206 17.1885C17.3647 17.4504 17.3647 17.7178 17.3206 17.9797C17.3043 18.0958 17.2499 18.2032 17.166 18.2851C17.0821 18.367 16.9734 18.4188 16.8569 18.4323C16.5844 18.4605 16.3102 18.4703 16.0363 18.4618C15.9112 18.4618 15.9112 18.3918 15.9112 18.3035C15.9112 18.0459 15.9112 17.7883 15.9112 17.5308C15.9112 17.2732 15.9112 17.0671 15.9112 16.8353C15.9039 16.6881 15.9554 16.6513 16.0915 16.6586H16.0805ZM17.3611 20.2575C17.345 20.3774 17.2897 20.4886 17.2038 20.5738C17.118 20.659 17.0064 20.7134 16.8864 20.7285C16.5979 20.7586 16.3077 20.7684 16.0179 20.758C15.9075 20.758 15.9002 20.6991 15.9002 20.6181C15.9002 20.3606 15.9002 20.103 15.9002 19.8454C15.9002 19.5878 15.9002 19.3486 15.9002 19.1094C15.9002 18.9917 15.9002 18.9254 16.0584 18.9328C16.2902 18.9328 16.5221 18.9328 16.7539 18.9328C16.8355 18.9281 16.9172 18.9405 16.9938 18.9692C17.0704 18.9979 17.1401 19.0422 17.1986 19.0993C17.2572 19.1564 17.3031 19.2251 17.3336 19.301C17.3641 19.3768 17.3785 19.4582 17.3758 19.54C17.4038 19.7784 17.4026 20.0194 17.3721 20.2575H17.3611Z" fill="white"/>
<path d="M5.47822 17.2878C5.49314 17.0621 5.43643 16.8374 5.31617 16.6458C5.19592 16.4542 5.01825 16.3054 4.80849 16.2207C4.5736 16.1334 4.32192 16.1007 4.07252 16.125C3.92063 16.1213 3.7696 16.1489 3.62889 16.2062C3.48818 16.2635 3.36082 16.3493 3.25477 16.4581C3.14873 16.5669 3.06629 16.6964 3.0126 16.8386C2.95892 16.9807 2.93516 17.1324 2.9428 17.2841C2.9428 17.7589 2.9428 18.2336 2.9428 18.7046V19.3301C2.9428 19.5693 2.9428 19.8122 2.9428 20.0661C2.9428 20.872 3.35863 21.2878 4.16819 21.3062C4.97776 21.3246 5.4635 20.9088 5.47822 20.1434C5.49294 19.183 5.48926 18.2336 5.47822 17.2878ZM4.94096 20.1066C4.95599 20.2051 4.94795 20.3057 4.9175 20.4006C4.88704 20.4954 4.83499 20.5819 4.76544 20.6533C4.69589 20.7246 4.61074 20.7788 4.51668 20.8117C4.42262 20.8445 4.32223 20.8551 4.22339 20.8426C4.12301 20.8591 4.02013 20.8515 3.92327 20.8204C3.82641 20.7893 3.73836 20.7355 3.66642 20.6636C3.59448 20.5916 3.54072 20.5036 3.50959 20.4067C3.47846 20.3099 3.47086 20.207 3.48742 20.1066C3.48742 19.1756 3.48742 18.2483 3.48742 17.3173C3.48742 16.8389 3.73765 16.6144 4.22339 16.6218C4.32229 16.6043 4.42393 16.6106 4.5199 16.6402C4.61588 16.6698 4.70343 16.7218 4.77534 16.7919C4.84725 16.862 4.90144 16.9482 4.93344 17.0434C4.96544 17.1386 4.97432 17.24 4.95936 17.3393C4.95936 17.803 4.95936 18.2703 4.95936 18.734C4.95936 19.1977 4.94464 19.6319 4.94096 20.1066Z" fill="white"/>
<path d="M21.8614 21.0191C21.5155 19.5251 21.1844 18.0311 20.8458 16.5371C20.7685 16.1875 20.7722 16.1875 20.4042 16.1875C20.0362 16.1875 20.0362 16.1875 19.9369 16.5555C19.5983 18.0421 19.261 19.5288 18.9249 21.0155C18.9249 21.078 18.8697 21.1847 18.9249 21.1958C19.0636 21.2179 19.2042 21.2253 19.3444 21.2179C19.4659 21.2179 19.4475 21.1075 19.4622 21.0339C19.5431 20.688 19.6241 20.3384 19.6903 19.9888C19.7161 19.8674 19.7492 19.8085 19.8927 19.8122C20.235 19.8122 20.5735 19.8122 20.9157 19.8122C21.0335 19.8122 21.0887 19.8453 21.1108 19.9704C21.166 20.2795 21.2616 20.5849 21.3021 20.8977C21.3426 21.2105 21.4456 21.2657 21.7143 21.2252C21.8688 21.2105 21.9019 21.2105 21.8614 21.0191ZM20.7869 19.3485C20.5418 19.336 20.2961 19.336 20.051 19.3485C19.8596 19.3485 19.8338 19.2896 19.8706 19.1203C20.0436 18.3549 20.2092 17.5858 20.3748 16.8168H20.4116C20.5257 17.3319 20.6434 17.8471 20.7538 18.3586C20.8164 18.6346 20.8642 18.9143 20.9341 19.1829C20.9636 19.3227 20.9194 19.3706 20.7869 19.3485Z" fill="white"/>
<path d="M17.633 10.9072C17.633 10.9072 13.1141 8.12887 12.816 6.18223C12.7204 5.53457 12.0801 3.13531 15.3147 0.761802C15.2889 0.702925 9.10675 2.32942 7.6716 4.53733C7.29959 4.91157 7.07883 5.40997 7.05167 5.93695C7.02451 6.46393 7.19285 6.98239 7.52441 7.3929C7.8966 7.87842 8.38862 8.25885 8.95219 8.49685C10.483 9.17027 14.2843 10.6091 17.633 10.9072Z" fill="url(#paint0_linear)"/>
<path d="M13.0918 5.24015C13.0918 5.24015 13.7579 3.49221 16.6318 2.86664C17.4345 2.723 18.215 2.4756 18.9538 2.13067C19.2035 1.99459 19.3995 1.77775 19.5099 1.51568C19.6202 1.2536 19.6382 0.961831 19.561 0.688167C19.4175 0.235545 18.998 -0.176599 17.7726 0.0809911C17.3428 0.174479 16.928 0.326787 16.5398 0.533613C15.4469 1.10399 13.0845 2.59433 13.0918 5.24015Z" fill="url(#paint1_linear)"/>
<path d="M9.15234 9.11523C9.15234 9.11523 12.0079 11.5771 13.5976 12.3277C13.719 12.3903 17.5866 14.8227 19.1395 14.6093C19.3993 14.5854 19.6513 14.5076 19.8794 14.3809C20.1075 14.2542 20.3067 14.0813 20.4642 13.8733C20.593 13.7357 20.6874 13.5697 20.7399 13.3887C20.7923 13.2078 20.8013 13.017 20.766 12.8319C20.6887 12.486 20.4311 12.0959 19.743 11.8199C18.7604 11.4723 17.7401 11.2426 16.7034 11.1355C16.3699 11.1127 16.0381 11.0697 15.7098 11.0067C14.1864 10.7013 10.5065 9.87696 9.15234 9.11523Z" fill="url(#paint2_linear)"/>
</g>
</mask>
<g mask="url(#mask0)">
<rect x="4.41602" y="-2.94385" width="19.8712" height="18.3993" fill="white"/>
</g>
<defs>
<linearGradient id="paint0_linear" x1="12.0396" y1="10.6164" x2="13.4122" y2="0.33126" gradientUnits="userSpaceOnUse">
<stop stop-color="#6DBDD7"/>
<stop offset="0.09" stop-color="#77BED4"/>
<stop offset="0.2" stop-color="#7CBED3"/>
<stop offset="0.26" stop-color="#75B1D1"/>
<stop offset="0.5" stop-color="#5B84CB"/>
<stop offset="0.71" stop-color="#4863C7"/>
<stop offset="0.88" stop-color="#3C4EC4"/>
<stop offset="1" stop-color="#3847C3"/>
</linearGradient>
<linearGradient id="paint1_linear" x1="13.0918" y1="2.62009" x2="19.6125" y2="2.62009" gradientUnits="userSpaceOnUse">
<stop stop-color="#6DBDD7"/>
<stop offset="0.14" stop-color="#77BED4"/>
<stop offset="0.3" stop-color="#7CBED3"/>
<stop offset="0.56" stop-color="#608CCC"/>
<stop offset="0.86" stop-color="#435AC6"/>
<stop offset="1" stop-color="#3847C3"/>
</linearGradient>
<linearGradient id="paint2_linear" x1="9.74848" y1="8.0812" x2="20.3244" y2="14.1898" gradientUnits="userSpaceOnUse">
<stop stop-color="#6DBDD7"/>
<stop offset="0.46" stop-color="#7CBED3"/>
<stop offset="1" stop-color="#3847C3"/>
</linearGradient>
<clipPath id="clip0">
<rect width="28.7801" height="28" fill="white"/>
</clipPath>
</defs>
</svg>
